<svg preserveAspectRatio="xMidYMid meet" data-bbox="16 9.506 930 186.984" viewBox="16 9.506 930 186.984" xmlns="http://www.w3.org/2000/svg" data-type="color" role="presentation" aria-hidden="true" aria-label="">
    <g>
        <path d="M341.13 115.25h28.11c16.6 0 27.93 7.41 27.93 22.22v.18c0 15.08-11.51 23.11-28.38 23.11h-6.78v16.95h-20.88zm26.5 30.61c5.35 0 8.92-2.41 8.92-6.87v-.18c0-4.55-3.3-6.87-8.83-6.87h-5.71v13.92z" fill="#0091d9" data-color="1"></path>
        <path d="M399.58 153.62v-.18c0-14.54 10.44-25.61 25.07-25.61 17.31 0 25.34 12.05 25.34 26.86 0 1.07 0 2.32-.09 3.39h-31.32c1.43 4.28 4.82 6.51 9.19 6.51 3.66 0 6.69-1.7 9.91-5l10.89 8.66c-4.82 6.25-11.69 10.62-22.22 10.62-15.97 0-26.77-10.08-26.77-25.25m31.95-4.46c-.44-4.64-3.21-7.32-6.78-7.32-3.39 0-5.8 2.86-6.42 7.32z" fill="#0091d9" data-color="1"></path>
        <path d="M454.46 128.99h20.26v6.78c3.12-4.02 8.03-7.94 14.9-7.94 10.26 0 16.68 6.78 16.68 17.76v32.13h-20.26V152.1c0-4.19-2.5-6.6-5.53-6.6-3.04 0-5.8 2.41-5.8 6.6v25.61h-20.26v-48.72z" fill="#0091d9" data-color="1"></path>
        <path d="M512.02 128.99h20.26v6.78c3.12-4.02 8.03-7.94 14.9-7.94 10.26 0 16.68 6.78 16.68 17.76v32.13H543.6V152.1c0-4.19-2.5-6.6-5.53-6.6-3.04 0-5.8 2.41-5.8 6.6v25.61h-20.26v-48.72z" fill="#0091d9" data-color="1"></path>
        <path d="m566.1 171.82 6.87-11.51c5.89 3.66 12.49 5.44 18.02 5.44 1.96 0 2.94-.45 2.94-1.61v-.18c0-.98-.89-1.61-5.8-2.85-12.31-3.04-19.9-6.34-19.9-16.42v-.18c0-10.71 8.57-16.69 21.24-16.69 8.03 0 15.97 2.05 21.86 5.62l-6.42 12.05c-5.18-2.86-11.42-4.55-15.53-4.55-1.96 0-2.85.53-2.85 1.52v.18c0 .98 1.07 1.61 5.98 2.86 12.32 3.03 19.72 6.42 19.72 16.42v.18c0 10.62-7.94 16.78-21.15 16.78-9.45-.01-18.02-2.42-24.98-7.06" fill="#0091d9" data-color="1"></path>
        <path d="m614.65 187.17 5.89-13.83c3.66 2.05 7.05 3.21 8.92 3.21 1.16 0 2.23-.18 3.3-.71l-19.1-46.85h20.97l8.48 25.7 7.76-25.7h20.61l-16.86 45.33c-4.73 12.76-9.91 17.94-21.15 17.94-7.04 0-13.38-2.06-18.82-5.09" fill="#0091d9" data-color="1"></path>
        <path fill="#0091d9" d="M695.06 112.57v65.14H674.8v-65.14z" data-color="1"></path>
        <path fill="#0091d9" d="M698.27 128.99h21.24l7.85 24.45 7.94-24.45h20.97l-19.72 49.08h-18.56z" data-color="1"></path>
        <path d="M757.44 163.88v-.18c0-9.73 7.23-15.17 18.56-15.17 4.1 0 9.37.89 11.51 1.78v-.8c0-4.46-2.77-7.05-9.01-7.05-5 0-9.19 1.07-13.47 2.77l-3.57-13.47c5.62-2.14 12.05-3.57 20.52-3.57 9.91 0 16.33 2.05 20.61 6.34 3.66 3.66 5.09 8.39 5.09 15.44v27.75h-20.25v-4.91c-3.39 3.66-7.94 6.07-14.01 6.07-9.38-.01-15.98-5.36-15.98-15m30.25-4.19v-2.05c-1.16-.45-2.94-.8-4.64-.8-4.02 0-6.25 2.41-6.25 5.44v.18c0 2.85 2.05 4.73 4.64 4.73 3.57-.01 6.25-2.86 6.25-7.5" fill="#0091d9" data-color="1"></path>
        <path d="M813.39 128.99h20.26v6.78c3.12-4.02 8.03-7.94 14.9-7.94 10.26 0 16.69 6.78 16.69 17.76v32.13h-20.25V152.1c0-4.19-2.5-6.6-5.53-6.6s-5.8 2.41-5.8 6.6v25.61H813.4v-48.72z" fill="#0091d9" data-color="1"></path>
        <path d="M870.78 112.57h20.97v12.94h-20.97zm.35 16.42h20.25v48.72h-20.25z" fill="#0091d9" data-color="1"></path>
        <path d="M895.76 163.88v-.18c0-9.73 7.23-15.17 18.56-15.17 4.1 0 9.37.89 11.51 1.78v-.8c0-4.46-2.77-7.05-9.01-7.05-5 0-9.19 1.07-13.47 2.77l-3.57-13.47c5.62-2.14 12.05-3.57 20.52-3.57 9.91 0 16.33 2.05 20.61 6.34 3.66 3.66 5.09 8.39 5.09 15.44v27.75h-20.25v-4.91c-3.39 3.66-7.94 6.07-14.01 6.07-9.37-.01-15.98-5.36-15.98-15m30.25-4.19v-2.05c-1.16-.45-2.94-.8-4.64-.8-4.02 0-6.25 2.41-6.25 5.44v.18c0 2.85 2.05 4.73 4.64 4.73 3.57-.01 6.25-2.86 6.25-7.5" fill="#0091d9" data-color="1"></path>
        <path d="M363.88 36.19h20.7L410.9 99.1h-22.66l-3.3-8.39h-21.86l-3.21 8.39h-22.31zm15.88 39.71-5.71-15.17-5.71 15.17z" fill="#ffffff" data-color="2"></path>
        <path d="M416.71 65.99H411V50.38h5.71c.09-5.18 1.34-9.37 4.37-12.4 3.3-3.3 7.59-4.64 14.28-4.64 5.98 0 9.64.54 12.4 1.34v12.67c-1.96-.45-3.93-.71-6.52-.71-3.12 0-4.73 1.25-4.73 3.93v.36h11.24v15.08h-10.8V99.1h-20.26V65.99zm38.01 0h-5.71V50.91h5.71c0-5.44 1.25-9.82 4.37-12.94 3.3-3.3 7.59-4.64 14.28-4.64 5.98 0 9.64.54 12.4 1.34v12.67c-1.96-.45-3.93-.71-6.51-.71-3.12 0-4.73 1.25-4.73 3.93v.36h11.24V66h-10.8v33.1h-20.26V65.99z" fill="#ffffff" data-color="2"></path>
        <path d="M487.48 74.92v-.18c0-13.74 11.42-25.52 27.48-25.52 15.97 0 27.31 11.6 27.31 25.34v.18c0 13.74-11.42 25.52-27.48 25.52-15.98 0-27.31-11.6-27.31-25.34m35.33 0v-.18c0-4.82-3.57-8.66-8.03-8.66-4.55 0-7.85 3.84-7.85 8.48v.18c0 4.82 3.57 8.66 8.03 8.66 4.55-.01 7.85-3.84 7.85-8.48" fill="#ffffff" data-color="2"></path>
        <path d="M546.82 50.38h20.26v9.82c2.77-6.6 7.23-10.89 15.26-10.53v21.51h-2.14c-8.57 0-13.12 4.73-13.12 15.53v12.4h-20.26z" fill="#ffffff" data-color="2"></path>
        <path d="M584.39 75.09v-.18c0-15.44 9.28-25.7 20.79-25.7 7.41 0 11.51 3.21 14.63 6.69V33.96h20.25V99.1h-20.25v-5.98c-3.3 3.57-7.05 7.14-14.46 7.14-11.77 0-20.96-10.26-20.96-25.17m35.88-.26v-.18c0-4.82-3.48-8.74-8.12-8.74s-8.12 3.84-8.12 8.74v.18c0 4.91 3.48 8.74 8.12 8.74s8.12-3.84 8.12-8.74" fill="#ffffff" data-color="2"></path>
        <path d="M644.27 85.27v-.18c0-9.73 7.23-15.17 18.56-15.17 4.1 0 9.37.89 11.51 1.78v-.8c0-4.46-2.77-7.05-9.01-7.05-5 0-9.19 1.07-13.47 2.77l-3.57-13.47c5.62-2.14 12.05-3.57 20.52-3.57 9.91 0 16.33 2.05 20.61 6.33 3.66 3.66 5.09 8.39 5.09 15.44V99.1h-20.25v-4.91c-3.39 3.66-7.94 6.07-14.01 6.07-9.37 0-15.98-5.36-15.98-14.99m30.25-4.2v-2.05c-1.16-.45-2.94-.8-4.64-.8-4.01 0-6.25 2.41-6.25 5.44v.18c0 2.85 2.05 4.73 4.64 4.73 3.58 0 6.25-2.86 6.25-7.5" fill="#ffffff" data-color="2"></path>
        <path d="M720.48 93.57v5.53h-20.26V33.96h20.26v22.4c3.3-3.57 7.05-7.14 14.46-7.14 11.78 0 20.97 10.26 20.97 25.16v.18c0 15.44-9.28 25.7-20.79 25.7-7.41 0-11.51-3.22-14.64-6.69m15.8-18.74v-.18c0-4.91-3.48-8.74-8.12-8.74s-8.12 3.84-8.12 8.74v.18c0 4.82 3.48 8.74 8.12 8.74s8.12-3.84 8.12-8.74" fill="#ffffff" data-color="2"></path>
        <path fill="#ffffff" d="M780.99 33.96V99.1h-20.26V33.96z" data-color="2"></path>
        <path d="M785.72 75.01v-.18c0-14.54 10.44-25.61 25.07-25.61 17.31 0 25.34 12.05 25.34 26.86 0 1.07 0 2.32-.09 3.39h-31.32c1.43 4.28 4.82 6.51 9.19 6.51 3.66 0 6.69-1.69 9.9-5l10.89 8.66c-4.82 6.25-11.69 10.62-22.22 10.62-15.96 0-26.76-10.09-26.76-25.25m31.95-4.47c-.45-4.64-3.21-7.32-6.78-7.32-3.39 0-5.8 2.85-6.42 7.32z" fill="#ffffff" data-color="2"></path>
        <path d="m317.5 144.26-16.47-21.96a5.82 5.82 0 0 1-1.17-3.5V96.71c0-1.85.86-3.58 2.35-4.68 4.4-3.24 13.24-10.13 11.16-11.82V63.55c0-2.21-1.25-4.23-3.23-5.22l-7.06-3.53a5.83 5.83 0 0 1-3.22-5.22V42.1c0-1.55-.61-3.03-1.71-4.13l-10.09-10.09a5.8 5.8 0 0 0-4.13-1.71H62.53c-3.22 0-5.84-2.61-5.84-5.83v-4.99c0-4.34-4.56-7.16-8.44-5.22L19.39 24.56a5.83 5.83 0 0 0-3.22 5.22v124.05h121.78l53.07-68.55-42.99-42.99H265.7v117.68l-39.95-39.95-45.77 61.51h83.69c1.55 0 3.03-.61 4.13-1.71l3.34-3.34a5.85 5.85 0 0 1 4.12-1.71h21.69c1.84 0 3.56-.86 4.67-2.33l15.89-21.19a5.82 5.82 0 0 0-.01-6.99" fill="#0091d9" data-color="1"></path>
        <path fill="#e1001e" d="m168.72 53.27 33.25 33.25-60.61 78.29H16v31.48h141.39l.75.2.15-.2h.23v-.31l65.23-87.68 31.97 31.96V53.27z" data-color="3"></path>
    </g>
</svg>