<svg width="132" height="51" viewBox="0 0 132 51" fill="none" xmlns="http://www.w3.org/2000/svg">
<g clip-path="url(#clip0_68_60)">
<path d="M7.04937 49.3671H0L6.31117 0.671631H15.241L21.5522 49.3671H14.2339L13.2269 38.1505H8.05642L7.04937 49.3671ZM8.59413 32.2398H12.6892L10.8087 9.4708H10.6751L8.59413 32.2398Z" fill="#ffffff"/>
<path d="M27.4609 0.671631L34.7123 25.1197H34.8459V0.671631H41.0234V49.3671H36.4575L28.6684 23.9117H28.5348V49.3671H22.2904V0.671631H27.4609Z" fill="#ffffff"/>
<path d="M59.0167 0.671631V7.72341H54.0483V49.3656H46.9305V7.72341H41.8953V0.671631H59.0167Z" fill="#ffffff"/>
<path d="M63.1133 49.3671H56.064L62.3736 0.671631H71.3034L77.6146 49.3671H70.2963L69.2893 38.1505H64.1188L63.1118 49.3671H63.1133ZM64.6565 32.2398H68.7516L66.8711 9.4708H66.7375L64.6565 32.2398Z" fill="#ffffff"/>
<path d="M93.1927 0.671631V7.79181H85.5388V20.6874H91.5811V27.0007H85.5388V42.3138H93.5284V49.3656H78.3542V0.671631H93.1927Z" fill="#ffffff"/>
<path d="M113.402 0.671631V37.2768C113.402 46.4786 110.045 50.0387 103.935 50.0387C97.8239 50.0387 94.467 46.5455 94.467 37.4789V0.671631H101.652V37.4789C101.652 41.8443 102.457 42.718 103.935 42.718C105.413 42.718 106.284 41.8443 106.284 37.4789V0.671631H113.402Z" fill="#ffffff"/>
<path d="M131.8 11.6861L126.093 12.8272C125.624 7.92392 124.817 6.84967 123.474 6.84967C122.132 6.84967 121.527 8.12602 121.527 11.6177C121.527 20.7527 132.002 23.8417 132.002 36.9394C132.002 45.3344 128.645 50.0371 123.072 50.0371C118.305 50.0371 114.544 45.9407 114.209 37.88L120.319 36.8057C120.722 42.1785 121.796 43.2543 123.005 43.2543C124.481 43.2543 125.019 41.9111 125.019 38.6868C125.019 27.0676 114.411 24.717 114.411 12.224C114.411 5.43963 117.365 0 123.072 0C128.778 0 130.995 4.50064 131.801 11.6861H131.8Z" fill="#ffffff"/>
</g>
<defs>
<clipPath id="clip0_68_60">
<rect width="132" height="50.0387" fill="white"/>
</clipPath>
</defs>
</svg>
