<?xml version="1.0" encoding="UTF-8" standalone="no"?> <svg xmlns="http://www.w3.org/2000/svg" xmlns:xlink="http://www.w3.org/1999/xlink" xmlns:serif="http://www.serif.com/" width="100%" height="100%" viewBox="0 0 142 95" version="1.1" xml:space="preserve" style="fill-rule:evenodd;clip-rule:evenodd;stroke-linejoin:round;stroke-miterlimit:2;"> <path d="M28.917,1.759C30.67,2.7 32.016,4.01 32.954,5.687C33.892,7.365 34.382,9.288 34.382,11.415C34.382,13.543 33.892,15.466 32.954,17.143C32.016,18.862 30.67,20.171 28.917,21.153C27.163,22.135 25.124,22.626 22.799,22.626L13.541,22.626L13.541,0.327L22.799,0.327C25.124,0.327 27.163,0.818 28.917,1.759ZM25.898,15.098C26.836,14.239 27.285,13.011 27.285,11.415C27.285,9.82 26.836,8.592 25.898,7.733C24.96,6.874 23.737,6.424 22.146,6.424L20.474,6.424L20.474,16.366L22.146,16.366C23.737,16.407 24.96,15.957 25.898,15.098Z" style="fill:white;fill-rule:nonzero;"></path> <path d="M43.599,5.892L43.599,8.633L50.492,8.633L50.492,13.911L43.599,13.911L43.599,17.062L51.43,17.062L51.43,22.626L36.625,22.626L36.625,0.327L51.43,0.327L51.43,5.892L43.599,5.892Z" style="fill:white;fill-rule:nonzero;"></path> <path d="M56.406,20.99C54.693,19.721 53.754,17.921 53.591,15.507L61.014,15.507C61.137,16.775 61.667,17.43 62.727,17.43C63.094,17.43 63.42,17.348 63.665,17.144C63.91,16.98 64.073,16.693 64.073,16.325C64.073,15.793 63.788,15.384 63.217,15.057C62.646,14.73 61.789,14.361 60.566,13.952C59.138,13.461 57.955,12.97 57.017,12.479C56.079,11.988 55.304,11.293 54.611,10.352C53.958,9.41 53.632,8.224 53.632,6.792C53.632,5.36 53.999,4.092 54.733,3.11C55.467,2.087 56.487,1.309 57.792,0.777C59.097,0.245 60.525,-0 62.156,-0C64.889,-0 67.05,0.614 68.641,1.882C70.232,3.15 71.088,4.91 71.17,7.201L63.665,7.201C63.624,6.587 63.502,6.137 63.176,5.851C62.89,5.564 62.523,5.442 62.115,5.442C61.83,5.442 61.585,5.524 61.381,5.728C61.177,5.933 61.096,6.219 61.096,6.546C61.096,7.037 61.381,7.447 61.911,7.774C62.482,8.101 63.339,8.51 64.563,8.96C65.949,9.492 67.132,9.983 68.029,10.474C68.927,10.965 69.742,11.62 70.395,12.479C71.047,13.338 71.414,14.402 71.414,15.711C71.414,17.062 71.088,18.289 70.395,19.394C69.742,20.458 68.763,21.317 67.458,21.931C66.194,22.544 64.644,22.831 62.89,22.831C60.321,22.872 58.118,22.217 56.406,20.99Z" style="fill:white;fill-rule:nonzero;"></path> <rect x="73.699" y="0.327" width="6.974" height="22.299" style="fill:white;fill-rule:nonzero;"></rect> <path d="M97.231,7.938C96.946,7.487 96.579,7.16 96.089,6.915C95.6,6.669 94.988,6.546 94.254,6.546C92.908,6.546 91.888,6.996 91.154,7.856C90.42,8.715 90.053,9.901 90.053,11.415C90.053,13.175 90.461,14.443 91.277,15.302C92.092,16.162 93.357,16.612 95.029,16.612C96.66,16.612 97.925,15.957 98.903,14.648L93.357,14.648L93.357,9.697L104.695,9.697L104.695,16.734C103.716,18.412 102.411,19.803 100.698,20.99C98.985,22.176 96.864,22.79 94.254,22.79C91.97,22.79 89.931,22.299 88.259,21.358C86.546,20.417 85.241,19.067 84.343,17.348C83.446,15.63 82.997,13.666 82.997,11.456C82.997,9.247 83.446,7.283 84.343,5.564C85.241,3.846 86.546,2.496 88.259,1.555C89.972,0.614 91.929,0.123 94.213,0.123C97.109,0.123 99.475,0.818 101.31,2.25C103.145,3.641 104.206,5.564 104.573,7.978L97.231,7.978L97.231,7.938Z" style="fill:white;fill-rule:nonzero;"></path> <path d="M128.31,22.626L121.335,22.626L113.953,11.415L113.953,22.626L106.979,22.626L106.979,0.327L113.953,0.327L121.335,11.743L121.335,0.327L128.31,0.327L128.31,22.626Z" style="fill:white;fill-rule:nonzero;"></path> <rect x="21.616" y="31.014" width="6.974" height="22.299" style="fill:white;fill-rule:nonzero;"></rect> <path d="M49.798,31.014L49.798,36.578L43.885,36.578L43.885,53.353L36.91,53.353L36.91,36.578L31.078,36.578L31.078,31.014L49.798,31.014Z" style="fill:white;fill-rule:nonzero;"></path> <path d="M75.656,31.014L75.656,36.578L66.928,36.578L66.928,39.647L73.209,39.647L73.209,44.925L66.928,44.925L66.928,53.353L59.954,53.353L59.954,31.055L75.656,31.055L75.656,31.014Z" style="fill:white;fill-rule:nonzero;"></path> <path d="M82.834,52.044C81.08,51.062 79.694,49.712 78.674,47.953C77.655,46.193 77.124,44.229 77.124,42.061C77.124,39.892 77.655,37.928 78.674,36.169C79.694,34.41 81.08,33.059 82.834,32.078C84.588,31.096 86.505,30.605 88.585,30.605C90.665,30.605 92.582,31.096 94.336,32.078C96.089,33.059 97.435,34.41 98.455,36.169C99.475,37.928 99.964,39.892 99.964,42.061C99.964,44.229 99.475,46.193 98.455,47.953C97.435,49.712 96.049,51.062 94.295,52.044C92.541,53.026 90.624,53.517 88.544,53.517C86.505,53.558 84.588,53.067 82.834,52.044ZM91.807,45.702C92.541,44.802 92.949,43.616 92.949,42.102C92.949,40.588 92.582,39.36 91.807,38.46C91.073,37.56 89.972,37.11 88.585,37.11C87.198,37.11 86.097,37.56 85.363,38.46C84.629,39.36 84.221,40.547 84.221,42.102C84.221,43.616 84.588,44.802 85.363,45.702C86.097,46.602 87.198,47.053 88.585,47.053C89.972,47.012 91.073,46.562 91.807,45.702Z" style="fill:white;fill-rule:nonzero;"></path> <path d="M113.464,53.313L109.304,45.293L109.263,45.293L109.263,53.313L102.289,53.313L102.289,31.014L112.648,31.014C114.443,31.014 115.993,31.341 117.257,31.955C118.521,32.609 119.5,33.469 120.112,34.573C120.764,35.678 121.05,36.906 121.05,38.297C121.05,39.77 120.642,41.12 119.826,42.266C119.011,43.411 117.828,44.27 116.278,44.761L121.131,53.313L113.464,53.313ZM109.222,40.67L112.036,40.67C112.689,40.67 113.219,40.506 113.545,40.22C113.872,39.933 114.035,39.442 114.035,38.788C114.035,38.215 113.872,37.724 113.505,37.397C113.178,37.069 112.648,36.906 111.996,36.906L109.222,36.906L109.222,40.67Z" style="fill:white;fill-rule:nonzero;"></path> <rect x="0" y="92.878" width="141.687" height="1.678" style="fill:white;fill-rule:nonzero;"></rect> <path d="M49.431,70.129C49.391,69.802 49.309,69.597 49.227,69.515C49.391,69.065 49.554,68.574 49.635,68.124C49.717,67.674 49.798,67.224 49.839,66.815C49.88,66.446 49.962,66.119 50.002,65.792C50.084,65.464 50.166,65.178 50.247,64.892C50.696,64.769 51.022,64.605 51.226,64.319C51.43,64.032 51.634,63.828 51.756,63.582C52.205,63.541 52.531,63.623 52.653,63.787C52.776,63.951 52.939,64.196 53.143,64.564C53.265,64.851 53.469,65.137 53.673,65.465C53.918,65.792 54.244,66.037 54.733,66.201C54.815,66.487 54.897,66.774 55.019,67.019C55.141,67.265 55.223,67.551 55.386,67.838C55.631,68.369 55.835,68.942 56.039,69.515C56.242,70.088 56.365,70.661 56.406,71.152C56.079,71.765 55.875,72.42 55.671,73.197C55.508,73.975 55.386,74.752 55.345,75.53C55.304,76.307 55.345,77.084 55.386,77.78C55.468,78.516 55.59,79.13 55.753,79.621L55.998,80.235L56.854,80.153C57.792,79.908 58.608,79.662 59.383,79.376C60.117,79.089 60.81,78.721 61.463,78.312C62.115,77.903 62.727,77.412 63.298,76.88C63.91,76.348 64.522,75.734 65.134,74.998C65.745,74.261 66.316,73.443 66.806,72.543C67.295,71.643 67.703,70.661 68.029,69.679C68.356,68.697 68.6,67.715 68.763,66.733C68.927,65.751 69.049,64.851 69.131,63.992C69.62,63.746 69.905,63.378 69.946,62.887L69.824,62.396C69.742,62.273 69.702,62.15 69.742,62.028C69.742,61.905 69.783,61.782 69.824,61.7C70.028,61.087 70.476,60.677 71.129,60.391C71.578,60.718 72.026,61.046 72.434,61.414C72.842,61.782 73.209,62.15 73.535,62.519C73.576,63.214 73.698,63.828 73.862,64.319C74.025,64.81 74.188,65.301 74.351,65.792C74.514,66.242 74.677,66.651 74.84,67.06C74.963,67.469 75.085,67.96 75.126,68.574C74.881,69.351 74.677,70.088 74.555,70.783C74.433,71.479 74.31,72.175 74.229,72.952L74.147,73.361C73.698,74.179 73.209,74.998 72.76,75.816C72.312,76.675 71.945,77.371 71.659,78.025C71.496,78.189 71.374,78.353 71.251,78.557C71.129,78.762 71.007,78.967 70.925,79.171C70.884,79.253 70.803,79.376 70.721,79.539C70.64,79.703 70.558,79.867 70.476,79.908L69.538,79.539L69.294,80.726L68.682,80.89L68.233,81.421C67.622,82.444 67.01,83.304 66.357,83.999C65.705,84.695 64.97,85.308 64.155,85.84C63.339,86.372 62.442,86.904 61.422,87.354C60.403,87.845 59.22,88.336 57.915,88.868C57.384,88.786 56.936,88.745 56.569,88.745C56.202,88.745 55.835,88.704 55.468,88.704C55.1,88.704 54.774,88.704 54.407,88.663C54.081,88.623 53.673,88.582 53.265,88.541C53.143,88.295 53.02,88.132 52.857,88.05C52.694,87.927 52.49,87.886 52.368,87.886C51.838,87.641 51.471,87.272 51.226,86.781C50.981,86.331 50.696,85.799 50.41,85.227C50.288,84.899 50.166,84.613 50.002,84.286C49.88,83.958 49.676,83.672 49.472,83.385L50.247,83.14L49.227,81.994C49.146,81.912 49.064,81.831 48.983,81.749C48.901,81.667 48.82,81.585 48.738,81.462L48.738,80.971C48.616,78.844 48.575,76.88 48.616,75.08C48.616,73.279 48.86,71.684 49.35,70.333L49.431,70.129Z" style="fill:rgb(92,190,126);fill-rule:nonzero;"></path> <path d="M77.736,71.888C77.899,71.356 78.226,70.865 78.593,70.497C79,70.129 79.449,69.76 79.898,69.515C80.387,69.229 80.876,69.024 81.366,68.82C81.896,68.656 82.386,68.492 82.834,68.369C83.854,67.919 84.955,67.51 86.138,67.101C87.321,66.692 88.503,66.365 89.727,66.037C90.95,65.71 92.215,65.546 93.479,65.424C94.784,65.342 96.13,65.505 97.517,65.915C97.598,66.16 97.721,66.406 97.884,66.651C98.047,66.897 98.21,67.101 98.373,67.347C98.537,67.592 98.7,67.797 98.822,68.042C98.944,68.247 99.026,68.492 99.067,68.738C99.311,68.983 99.515,69.229 99.678,69.474C99.842,69.72 99.842,70.088 99.76,70.538C99.515,70.743 99.271,70.947 99.026,71.111C98.781,71.274 98.537,71.438 98.251,71.561C97.313,71.315 96.334,71.234 95.355,71.315C94.376,71.397 93.52,71.438 92.745,71.52C92.5,71.274 92.256,71.152 91.929,71.152C91.603,71.152 91.277,71.193 90.91,71.315C90.543,71.438 90.216,71.52 89.849,71.643C89.482,71.765 89.156,71.765 88.87,71.725C88.626,71.929 88.299,72.052 87.932,72.134C87.565,72.215 87.157,72.256 86.709,72.297C86.668,72.42 86.709,72.502 86.79,72.543C86.872,72.584 86.872,72.666 86.831,72.788C86.994,72.952 87.198,73.116 87.443,73.156C87.688,73.238 87.932,73.32 88.218,73.402C88.503,73.484 88.707,73.566 88.952,73.688C89.156,73.811 89.319,73.975 89.36,74.261C89.727,74.261 90.094,74.343 90.379,74.548C90.665,74.711 90.91,74.957 91.073,75.202C91.236,75.448 91.399,75.734 91.481,76.021C91.562,76.307 91.603,76.593 91.603,76.798C91.685,77.003 91.766,77.084 91.888,77.084C92.011,77.043 92.092,77.125 92.256,77.248C92.337,77.575 92.541,77.944 92.827,78.271C93.112,78.598 93.398,79.007 93.561,79.417C93.602,80.071 93.642,80.644 93.683,81.135C93.724,81.626 93.602,82.158 93.397,82.649C93.031,83.59 92.46,84.449 91.807,85.227C91.114,85.963 90.339,86.659 89.482,87.231C88.626,87.804 87.688,88.295 86.709,88.704C85.73,89.113 84.792,89.482 83.854,89.768C83.732,89.727 83.65,89.727 83.528,89.768C83.405,89.809 83.405,89.727 83.446,89.564C83.242,89.727 82.997,89.85 82.753,89.932C82.508,89.973 82.263,90.014 81.978,89.973C81.692,89.973 81.407,89.932 81.121,89.932C80.836,89.891 80.55,89.932 80.306,89.973C80.142,89.809 79.979,89.604 79.816,89.441C79.694,89.277 79.571,89.073 79.49,88.786C79.368,88.786 79.286,88.704 79.327,88.582C79.327,88.459 79.286,88.377 79.204,88.377C79.368,88.132 79.449,87.968 79.408,87.927C79.408,87.886 79.368,87.845 79.286,87.845C79.204,87.804 79.164,87.804 79.123,87.763C79.082,87.722 79.041,87.681 79.082,87.6C79.204,87.395 79.204,87.15 79.204,86.863C79.164,86.577 79.164,86.331 79.123,86.045C79.082,85.758 79.123,85.472 79.164,85.227C79.245,84.981 79.408,84.776 79.735,84.613C80.591,84.736 81.448,84.695 82.223,84.531C82.997,84.367 83.732,84.122 84.425,83.795C85.118,83.467 85.771,83.14 86.423,82.772C87.035,82.403 87.688,82.076 88.299,81.79C88.381,81.544 88.503,81.381 88.626,81.217C88.748,81.053 88.911,80.93 89.074,80.808C89.238,80.685 89.36,80.521 89.482,80.399C89.605,80.235 89.686,80.03 89.768,79.826C89.809,79.662 89.768,79.539 89.645,79.498C89.523,79.457 89.482,79.376 89.482,79.212L89.074,79.089C88.585,78.803 88.014,78.557 87.402,78.353C86.79,78.148 86.26,77.944 85.812,77.698C85.526,77.862 85.281,77.903 85.037,77.821C84.792,77.739 84.466,77.657 84.099,77.575C83.242,77.534 82.386,77.453 81.57,77.289C80.754,77.166 79.979,76.921 79.245,76.593C79.204,76.471 79.123,76.348 79.041,76.225C78.96,76.102 78.837,76.102 78.633,76.143C78.47,75.939 78.307,75.734 78.185,75.53C78.062,75.325 77.899,75.12 77.777,74.875C77.818,74.548 77.859,74.302 77.899,74.098C77.94,73.893 77.859,73.647 77.655,73.443C77.777,73.116 77.818,72.829 77.899,72.625C77.777,72.502 77.777,72.215 77.736,71.888Z" style="fill:rgb(92,190,126);fill-rule:nonzero;"></path> </svg> 