<svg width="49" height="28" viewBox="0 0 49 28" fill="none" xmlns="http://www.w3.org/2000/svg">
<path d="M0 6.16959L3.40807 5.6857V7.81954L1.57701 8.00976V9.05809L2.48355 8.98064V10.6634L1.57701 10.7149V13.8419L0 13.8444V6.16959ZM6.3954 5.50664C6.67879 5.69169 6.9252 5.96823 7.13464 6.33626C7.36583 6.76386 7.53286 7.22314 7.63036 7.69935C7.75577 8.28009 7.81665 8.87291 7.81192 9.46702C7.81575 10.0691 7.75489 10.6698 7.63036 11.2589C7.52972 11.7539 7.36298 12.2332 7.13464 12.6839C6.95622 13.0421 6.70434 13.3588 6.3954 13.6133C6.14355 13.8228 5.827 13.9388 5.49939 13.9416C5.1802 13.939 4.87199 13.8248 4.62816 13.6188C4.34132 13.378 4.10898 13.079 3.94655 12.7415C3.74053 12.3232 3.59152 11.8791 3.5035 11.4212C3.39402 10.8756 3.34086 10.3202 3.34487 9.7638C3.3416 9.20063 3.39474 8.63855 3.5035 8.08597C3.59371 7.60952 3.74252 7.14606 3.94655 6.70615C4.11127 6.34325 4.34246 6.01438 4.62816 5.7365C4.86469 5.50137 5.16974 5.34735 5.49939 5.2966C5.81377 5.25314 6.13309 5.32799 6.3954 5.50664ZM5.05758 8.76441C4.94026 9.00192 4.8818 9.30076 4.88222 9.66095C4.88263 10.0211 4.94108 10.3121 5.05758 10.5339C5.17531 10.7562 5.31989 10.8634 5.49133 10.8555C5.66277 10.8477 5.8121 10.7268 5.93934 10.493C6.06038 10.2588 6.12089 9.9538 6.12089 9.57792C6.12089 9.21051 6.05893 8.91497 5.93934 8.69316C5.81975 8.47135 5.66917 8.36973 5.49133 8.38336C5.31349 8.397 5.17531 8.52649 5.05758 8.76441ZM9.91439 13.827H8.07279V5.02336L11.1425 4.58965C11.6283 4.52088 12.0292 4.66896 12.3409 5.03761C12.6526 5.40627 12.8143 6.0432 12.8143 6.93602C12.8143 7.5143 12.7317 8.00335 12.5665 8.40319C12.4134 8.76273 12.1685 9.07574 11.8564 9.31088L12.9835 13.8177L10.9102 13.8215L10.1003 10.2663L9.91749 10.2768L9.91439 13.827ZM10.6121 6.90752C10.5736 6.86474 10.5253 6.83183 10.4714 6.81156C10.4175 6.79129 10.3595 6.78425 10.3023 6.79104L9.91563 6.83317V8.296L10.3023 8.26255C10.3627 8.25619 10.4213 8.23778 10.4745 8.20841C10.5277 8.17904 10.5745 8.1393 10.6121 8.09154C10.7013 7.98745 10.746 7.78671 10.746 7.48931C10.7478 7.19253 10.7032 6.99798 10.614 6.90752H10.6121ZM19.6485 7.47691L19.6949 7.47258L20.3617 3.27924L22.6364 2.95643L20.4583 13.8084L17.8992 13.8128L17.2052 9.22786H17.1618L16.4802 13.8128L14.4849 13.8165L12.7369 4.36165L15.1535 4.01902L15.9083 7.94284L15.9498 7.93912L16.4573 3.83376L18.9148 3.48494L19.6485 7.47691ZM25.0865 11.4825L23.2511 11.5445L22.7876 13.8066L20.9373 13.8097L23.1129 2.8889L26.2012 2.45085L28.8416 13.7936L25.5804 13.7991L25.0865 11.4825ZM23.6086 9.79044L24.7178 9.72848L24.2165 7.40318L24.1019 7.4131L23.6086 9.79044ZM32.3234 13.7861L29.2474 13.7929V2.02086L34.406 1.28851C35.2351 1.16955 35.9198 1.34614 36.4552 1.83189C36.9906 2.31764 37.27 3.17948 37.27 4.39635C37.27 5.18322 37.1275 5.85278 36.8425 6.40504C36.5574 6.95729 36.1857 7.37489 35.7271 7.65783L37.7893 13.7793L34.1334 13.7861L32.6382 8.99427L32.3283 9.01162L32.3234 13.7861ZM33.5007 4.44219C33.4273 4.38367 33.3428 4.34069 33.2522 4.31587C33.1617 4.29106 33.067 4.28492 32.974 4.29783L32.3215 4.3697V6.3406L32.974 6.28298C33.1724 6.26671 33.3587 6.18142 33.5007 6.04196C33.6515 5.89863 33.7269 5.62601 33.7269 5.22411C33.7269 4.82221 33.6523 4.56198 33.5032 4.44343L33.5007 4.44219ZM48.4343 9.79478C48.0625 10.7386 47.5979 11.51 47.0407 12.1089C46.5286 12.6955 45.8757 13.1419 45.1433 13.4063C44.4364 13.6529 43.6922 13.7751 42.9435 13.7675L37.9486 13.7762V0.782934L42.9417 0.0741302C43.6734 -0.0395641 44.4195 -0.0223615 45.1452 0.124936C45.859 0.270926 46.5168 0.616146 47.0425 1.12061C47.599 1.65097 48.0635 2.3606 48.4361 3.2495C48.8112 4.145 48.9992 5.21895 49 6.47133C49 7.73404 48.812 8.84227 48.4361 9.79602L48.4343 9.79478ZM42.6145 10.2006C42.8476 10.2005 43.0757 10.1336 43.272 10.0079C43.4424 9.88895 43.5818 9.67644 43.6952 9.3685C43.8041 9.06823 43.8779 8.75636 43.9152 8.43913C43.961 8.08679 43.9839 7.55436 43.9839 6.84184C43.9839 6.12932 43.9616 5.60453 43.917 5.26748C43.8786 4.9575 43.8048 4.65295 43.697 4.35979C43.5855 4.08222 43.4444 3.89345 43.2738 3.79349C43.1032 3.69353 42.8841 3.65842 42.6164 3.68816L42.0271 3.75012V10.2241L42.6145 10.2006ZM0.907166 16.547H0.873086V21.622L0 21.495V14.1721L1.92401 14.1752L2.15886 15.6802H2.1948L2.41663 14.1759L4.56619 14.1796V22.1524L2.98671 21.9213V16.6468H2.94953L2.25614 21.8197L1.56585 21.7205L0.907166 16.547ZM7.14827 20.8054L6.0329 20.6815L5.75096 22.3246L4.6579 22.1672L6.0676 14.182L7.82493 14.1851L9.38087 22.8457L7.44199 22.5663L7.14827 20.8054ZM6.26094 19.3804L6.93511 19.438L6.63025 17.6592L6.56085 17.6548L6.26094 19.3804ZM10.9139 14.1895L12.9835 14.1926V20.6455C12.9835 21.4589 12.809 22.1102 12.4599 22.5997C12.1148 23.083 11.642 23.2813 11.0452 23.2013C10.7208 23.1619 10.4172 23.021 10.1777 22.7986C9.92212 22.5544 9.72126 22.2588 9.58845 21.9312C9.42458 21.5337 9.31052 21.1175 9.24888 20.692C9.17189 20.187 9.1346 19.6768 9.13735 19.166L10.5886 19.2781V19.8797C10.5811 20.0104 10.5973 20.1414 10.6363 20.2664C10.6685 20.3407 10.7075 20.3797 10.7528 20.3841C10.798 20.3884 10.8426 20.3568 10.8699 20.288C10.9047 20.1644 10.9187 20.0359 10.9114 19.9076L10.9139 14.1895ZM17.0899 14.4472C17.4794 14.7259 17.8045 15.0852 18.0429 15.5005C18.3363 16.0045 18.5531 16.5493 18.6861 17.117C18.8466 17.7813 18.9255 18.4627 18.921 19.1462C18.927 19.8196 18.8481 20.4912 18.6861 21.1449C18.53 21.7492 18.3156 22.2589 18.0429 22.6741C17.8052 23.0542 17.478 23.3703 17.0899 23.5948C16.7412 23.7924 16.3366 23.8685 15.9399 23.811C15.5263 23.7506 15.139 23.572 14.8245 23.2967C14.4666 22.9879 14.1709 22.6135 13.9533 22.1939C13.6965 21.7034 13.507 21.1805 13.39 20.6393C13.2528 20.0214 13.1855 19.39 13.1892 18.7571C13.1844 18.1328 13.2518 17.5101 13.39 16.9014C13.5042 16.3837 13.694 15.8856 13.9533 15.4231C14.1692 15.035 14.4672 14.6986 14.8263 14.4373C15.1505 14.2016 15.5409 14.0745 15.9417 14.0742C16.3539 14.0766 16.7552 14.2072 17.0899 14.4478V14.4472ZM15.3747 17.907C15.2248 18.1548 15.15 18.4813 15.1504 18.8865C15.1508 19.2918 15.2256 19.6284 15.3747 19.8965C15.5253 20.166 15.7106 20.3103 15.9324 20.3302C16.1543 20.35 16.3519 20.2391 16.5062 19.9962C16.6605 19.7533 16.7392 19.4181 16.7392 18.9944C16.7392 18.5813 16.6615 18.2391 16.5062 17.9677C16.3509 17.6963 16.1596 17.5567 15.9324 17.5489C15.7106 17.5408 15.5253 17.6592 15.3747 17.907ZM21.5483 24.5985L19.1472 24.2515V14.2031L23.1625 14.2099C23.8051 14.2099 24.3355 14.4478 24.7494 14.9249C25.1633 15.402 25.379 16.1641 25.379 17.1969C25.379 17.8636 25.2689 18.4138 25.0487 18.8475C24.8285 19.2812 24.5408 19.591 24.1855 19.7769L25.7774 25.2063L22.9506 24.7992L21.7869 20.5452L21.5471 20.5235L21.5483 24.5985ZM22.4654 16.7589C22.4127 16.7025 22.3494 16.6571 22.2791 16.6252C22.2088 16.5933 22.1329 16.5755 22.0558 16.573L21.5489 16.5551V18.2168L22.0558 18.2459C22.13 18.2513 22.2045 18.2418 22.2749 18.2177C22.3453 18.1936 22.4101 18.1556 22.4654 18.1059C22.5819 18.003 22.6403 17.7829 22.6407 17.4454C22.6412 17.1079 22.5827 16.8787 22.4654 16.7577V16.7589ZM25.9261 14.2186L28.8428 14.2236V25.64L25.9261 25.228V14.2186ZM29.245 14.2242L37.7856 14.2378V17.5216L34.9668 17.415V26.5291L31.5699 26.0384V17.2762L29.2474 17.1839L29.245 14.2242ZM45.1823 23.4907V28L41.0759 27.4089V23.0718L37.9504 14.2341L42.1702 14.2409L43.7286 18.6852L43.7863 18.6883L45.5529 14.2465L48.9777 14.2539L45.1823 23.4907Z" fill="white"/>
</svg>