<svg width="257" height="44" viewBox="0 0 257 44" fill="none" xmlns="http://www.w3.org/2000/svg">
<path d="M7.99758 1.25195V18.6204H10.6904V1.25195H18.688V42.694H10.6904V24.9216H7.99758V42.694H0V1.25195H7.99758Z" fill="white"></path>
<path d="M29.863 1.25195V42.694H21.7847V1.25195H29.863Z" fill="white"></path>
<path d="M51.8363 13.4234V14.312C51.8363 22.6058 47.0431 26.4834 41.0113 26.4834V42.6671H33.0137V1.25195H40.9035C46.9892 1.25195 51.8363 5.1565 51.8363 13.4234ZM41.496 21.2594C42.7885 21.2594 43.704 20.263 43.704 17.6241V10.0843C43.704 7.44537 42.8154 6.44904 41.496 6.44904H40.9843V21.2863H41.496V21.2594Z" fill="white"></path>
<path d="M67.8047 1.25195V18.6204H70.4975V1.25195H78.4951V42.694H70.4975V24.9216H67.8047V42.694H59.8071V1.25195H67.8047Z" fill="white"></path>
<path d="M91.7703 0.740234C98.206 0.740234 102.299 5.77575 102.299 17.0585V26.8334C102.299 38.1162 98.206 43.1517 91.7703 43.1517C85.3345 43.1517 81.2415 38.1162 81.2415 26.8334V17.0585C81.2415 5.77575 85.3883 0.740234 91.7703 0.740234ZM91.7703 37.8469C92.7666 37.8469 93.2244 37.0929 93.2244 35.9081V8.03769C93.2244 6.82594 92.7666 6.09889 91.7703 6.09889C90.7739 6.09889 90.3162 6.85287 90.3162 8.03769V35.9081C90.3162 37.1198 90.8278 37.8469 91.7703 37.8469Z" fill="white"></path>
<path d="M123.896 13.4234V14.312C123.896 22.6058 119.102 26.4834 113.071 26.4834V42.6671H105.073V1.25195H112.963C119.049 1.25195 123.896 5.1565 123.896 13.4234ZM113.555 21.2594C114.848 21.2594 115.763 20.263 115.763 17.6241V10.0843C115.763 7.44537 114.875 6.44904 113.555 6.44904H113.044V21.2863H113.555V21.2594Z" fill="white"></path>
<path d="M142.179 0.740234C148.426 0.740234 151.577 5.64111 151.577 13.531V16.7354H143.983C143.633 15.2274 143.579 13.4771 143.579 11.7537V8.01077C143.579 6.85287 143.122 6.12581 142.233 6.12581C141.344 6.12581 140.833 6.87979 140.833 8.06462V35.935C140.833 37.1467 141.344 37.8738 142.233 37.8738C143.122 37.8738 143.579 37.1198 143.579 35.9888V32.0035C143.579 30.2532 143.633 28.5029 143.983 27.0219H151.577V30.4686C151.577 38.3585 148.426 43.2594 142.179 43.2594C135.932 43.2594 131.731 38.2239 131.731 26.9411V17.1663C131.731 5.88346 135.77 0.847946 142.179 0.847946V0.740234Z" fill="white"></path>
<path d="M168.434 1.25195L172.177 42.2093V42.7209H164.395L163.749 32.5422H160.544L159.898 42.7209H152.897V42.2093L156.667 1.25195H168.461H168.434ZM163.345 26.2141L162.402 11.4846H161.891L160.948 26.2141H163.345Z" fill="white"></path>
<path d="M183.325 37.847C184.214 37.847 184.672 37.1468 184.672 36.1505V1.25195H192.562V32.1113C192.562 38.951 189.169 43.2056 183.218 43.2056C177.267 43.2056 173.82 38.951 173.82 32.1113V1.25195H181.952V36.1505C181.952 37.1468 182.41 37.847 183.298 37.847H183.325Z" fill="white"></path>
<path d="M205.756 0.740234C212.003 0.740234 215.154 5.64111 215.154 13.531V16.7354H207.56C207.21 15.2274 207.156 13.4771 207.156 11.7537V8.01077C207.156 6.85287 206.699 6.12581 205.81 6.12581C204.921 6.12581 204.41 6.87979 204.41 8.06462V35.935C204.41 37.1467 204.921 37.8738 205.81 37.8738C206.699 37.8738 207.156 37.1198 207.156 35.9888V32.0035C207.156 30.2532 207.21 28.5029 207.56 27.0219H215.154V30.4686C215.154 38.3585 212.003 43.2594 205.756 43.2594C199.509 43.2594 195.308 38.2239 195.308 26.9411V17.1663C195.308 5.88346 199.347 0.847946 205.756 0.847946V0.740234Z" fill="white"></path>
<path d="M227.218 37.847C228.106 37.847 228.564 37.1468 228.564 36.1505V1.25195H236.454V32.1113C236.454 38.951 233.061 43.2056 227.11 43.2056C221.159 43.2056 217.712 38.951 217.712 32.1113V1.25195H225.844V36.1505C225.844 37.1468 226.302 37.847 227.191 37.847H227.218Z" fill="white"></path>
<path d="M246.498 33.8346V36.0427C246.498 37.2006 246.956 37.9007 247.791 37.9007C248.626 37.9007 249.326 37.2006 249.326 35.558C249.326 32.7575 247.872 28.9607 245.637 25.11L244.182 22.7673C241.732 18.6742 238.985 14.8774 238.985 9.62644C238.985 4.3755 242.405 0.740234 247.979 0.740234C253.553 0.740234 256.812 4.13315 256.812 10.2189V14.2042H249.864C249.514 12.6962 249.46 11.1075 249.46 9.57258V7.82227C249.46 6.71823 249.003 6.0181 248.168 6.0181C247.333 6.0181 246.633 6.71823 246.633 8.36083C246.633 10.919 247.979 13.908 250.241 17.7048L251.749 20.0475C254.2 24.1944 257 28.8799 257 34.2385C257 39.5972 253.661 43.1786 248.006 43.1786C242.351 43.1786 239.174 39.7857 239.174 33.5923V29.203H246.121C246.471 30.711 246.525 32.2997 246.525 33.8346H246.498Z" fill="white"></path>
</svg>