<svg width="270" height="48" viewBox="0 0 270 48" fill="none" xmlns="http://www.w3.org/2000/svg">
<g clip-path="url(#clip0_1_597)">
<path d="M67.3118 12.6162C68.1415 12.6054 69.0249 12.5661 69.9047 12.5983C70.0728 12.6054 70.2767 12.8665 70.3804 13.0561C71.2495 14.6297 72.1007 16.2141 72.9518 17.7984C74.5505 20.7776 76.1456 23.7604 77.7872 26.8254C77.9732 26.5965 78.1484 26.4356 78.2521 26.2389C79.5289 23.8712 80.8057 21.5072 82.0575 19.1253C83.0446 17.2477 84.0138 15.3593 84.9508 13.453C85.2656 12.8164 85.6769 12.4981 86.3957 12.5589C86.8392 12.5947 87.2898 12.5589 87.7369 12.5732C88.2269 12.5875 88.4343 12.8093 88.4915 13.3458C88.6668 14.9623 88.9279 16.5717 89.1496 18.1811C89.1711 18.3277 89.1639 18.478 89.1818 18.6246C89.4143 20.5344 89.6575 22.4407 89.8792 24.3505C90.0759 26.06 90.2261 27.7732 90.43 29.4827C90.6195 31.0385 90.8556 32.5906 91.0666 34.1428C91.1023 34.4075 91.1846 34.6936 91.1166 34.9332C91.0594 35.1299 90.8162 35.4089 90.6481 35.4125C89.1603 35.4518 87.6689 35.4339 86.1811 35.4339C85.8092 35.4339 85.6661 35.2408 85.6304 34.8831C85.5159 33.7029 85.405 32.5227 85.2477 31.3496C85.0581 29.9512 84.7935 28.5635 84.6075 27.1616C84.5181 26.4856 84.561 25.7918 84.5002 25.1123C84.4823 24.9084 84.3285 24.7189 84.2355 24.5222C84.0818 24.6724 83.8815 24.7975 83.7849 24.9764C82.1254 28.07 80.466 31.1636 78.8423 34.2751C78.5561 34.8223 78.2128 35.1013 77.5941 35.0477C77.2972 35.0226 76.9968 35.0226 76.7 35.0477C76.1778 35.0941 75.8559 34.8259 75.6306 34.4075C73.9962 31.3639 72.3653 28.3168 70.738 25.2696C70.5234 24.8655 70.341 24.4435 70.1479 24.0322C70.0549 24.0393 69.9655 24.0501 69.8725 24.0572C69.3396 27.8161 68.8067 31.5749 68.2595 35.4339C66.9506 35.4339 65.7095 35.4482 64.4685 35.4268C63.9249 35.416 63.9857 34.969 64.0322 34.6292C64.1395 33.8066 64.3076 32.9912 64.422 32.1686C64.5973 30.9133 64.7224 29.6472 64.912 28.3955C65.0908 27.2081 65.3269 26.0314 65.5379 24.8476C65.5522 24.7618 65.5629 24.6724 65.5701 24.583C65.7095 23.1989 65.8168 21.8148 65.9956 20.4343C66.2639 18.3492 66.575 16.2713 66.8898 14.1934C66.9613 13.732 67.1294 13.2885 67.3154 12.6126L67.3118 12.6162Z" fill="#005958"/>
<path d="M144.51 12.7199C144.61 13.0561 144.717 13.2778 144.742 13.5067C144.896 14.9802 145.014 16.4573 145.175 17.9308C145.357 19.5795 145.568 21.2283 145.772 22.8734C145.969 24.4614 146.176 26.0493 146.376 27.6372C146.58 29.2538 146.795 30.8704 146.981 32.4905C147.067 33.2272 147.099 33.9711 147.138 34.7115C147.16 35.0763 146.974 35.2587 146.598 35.2587C145.171 35.2587 143.744 35.2587 142.242 35.2587C141.766 31.414 141.298 27.6372 140.804 23.6316C140.411 24.1538 140.085 24.49 139.874 24.887C138.276 27.9269 136.688 30.9705 135.129 34.0284C134.875 34.5255 134.553 34.665 134.023 34.7365C132.79 34.9118 132.153 34.3646 131.616 33.2988C129.989 30.08 128.262 26.9112 126.567 23.721C126.541 23.6745 126.474 23.6567 126.406 23.6102C125.987 23.7032 125.919 24.0143 125.869 24.4006C125.519 27.1294 125.147 29.8582 124.782 32.5835C124.696 33.2308 124.596 33.8746 124.503 34.5219C124.428 35.0548 124.135 35.2873 123.587 35.2658C122.872 35.2408 122.157 35.2765 121.441 35.2551C120.762 35.2336 120.619 35.0083 120.708 34.3538C120.901 32.9483 121.052 31.532 121.252 30.1265C121.477 28.5421 121.76 26.9649 121.978 25.3805C122.278 23.2096 122.529 21.028 122.833 18.8571C123.019 17.5087 123.269 16.1711 123.469 14.8228C123.537 14.3543 123.559 13.8751 123.569 13.3994C123.58 12.9094 123.809 12.6913 124.292 12.7163C124.321 12.7163 124.353 12.7163 124.381 12.7163C126.441 12.6197 126.416 12.634 127.403 14.5045C129.263 18.0345 131.159 21.5466 133.033 25.0694C133.394 25.7453 133.73 26.4356 134.181 27.3225C134.667 26.4606 135.089 25.7453 135.479 25.0157C136.867 22.4085 138.24 19.7905 139.621 17.1797C140.325 15.8457 141.051 14.5224 141.731 13.1777C141.888 12.8629 142.056 12.7127 142.396 12.7163C143.079 12.7235 143.759 12.7163 144.51 12.7163V12.7199Z" fill="#005958"/>
<path d="M230.072 35.3087H226.965C226.188 35.3087 225.412 35.2622 224.643 35.323C223.91 35.3803 223.402 35.1192 222.959 34.5577C221.636 32.8803 220.287 31.2173 218.943 29.5578C218.367 28.8497 217.769 28.1594 217.029 27.2724C216.983 27.7803 216.933 28.0807 216.933 28.3811C216.925 30.3482 216.933 32.3117 216.929 34.2787C216.929 35.2551 216.883 35.3016 215.935 35.3052C214.544 35.3123 213.152 35.3052 211.679 35.3052C211.654 34.8903 211.622 34.5756 211.622 34.2573C211.622 27.3476 211.622 20.4343 211.622 13.5246C211.622 12.5053 211.625 12.5017 212.684 12.5017C215.724 12.5017 218.76 12.4767 221.8 12.5089C223.799 12.5339 225.698 13.031 227.269 14.315C229.815 16.3965 230.201 19.9228 228.009 22.6696C226.889 24.0751 225.455 25.0551 223.671 25.4663C223.528 25.4985 223.385 25.5558 223.256 25.6273C223.159 25.6809 223.081 25.7739 222.92 25.9134C225.273 29.0428 227.898 31.929 230.23 35.0405C230.18 35.1263 230.13 35.2122 230.083 35.3016L230.072 35.3087ZM216.811 19.4186C216.811 20.1339 216.829 20.8491 216.807 21.5609C216.793 22.0937 217.011 22.3191 217.548 22.3048C218.528 22.2761 219.518 22.3477 220.491 22.2475C221.561 22.1402 222.591 21.8505 223.342 20.9743C224.1 20.0874 224.121 19.0466 223.821 18.0273C223.52 17.0152 222.594 16.6611 221.654 16.6003C220.259 16.5073 218.857 16.5538 217.458 16.5359C217.011 16.5288 216.807 16.7362 216.811 17.1869C216.822 17.9308 216.811 18.6747 216.811 19.4186Z" fill="#005958"/>
<path d="M93.4199 24.236C93.2661 21.5001 94.0458 19.043 95.7053 16.8578C96.9892 15.1697 98.7309 14.1505 100.669 13.3922C103.069 12.4552 105.58 12.4695 108.048 12.7199C110.354 12.9523 112.536 13.7713 114.36 15.3235C116.159 16.8543 117.328 18.7677 117.847 21.0745C118.455 23.7747 118.412 26.4427 117.368 29.0392C116.123 32.1328 113.784 34.0284 110.698 35.1263C108.999 35.7308 107.257 36.024 105.469 35.9775C102.368 35.8953 99.482 35.0441 97.075 33.0448C94.8255 31.1779 93.6488 28.6887 93.4306 25.7668C93.3913 25.2625 93.4271 24.7546 93.4271 24.2396L93.4199 24.236ZM98.5593 24.4149C98.781 25.6344 98.9026 26.8826 99.2495 28.0664C99.6894 29.5757 100.651 30.7058 102.164 31.3281C103.663 31.9469 105.226 32.0828 106.799 31.929C110.319 31.5892 111.928 30.1515 112.636 27.0507C113.101 25.0121 113.094 22.8806 112.4 20.8098C111.835 19.1289 110.805 17.9236 109.174 17.2477C107.179 16.4215 105.133 16.3464 103.08 16.9794C101.524 17.4587 100.305 18.3421 99.5499 19.8764C98.8382 21.3212 98.7131 22.8305 98.5628 24.4113L98.5593 24.4149Z" fill="#005958"/>
<path d="M248.413 18.4636C247.547 17.9844 246.893 17.6482 246.267 17.2691C244.539 16.2248 242.647 16.0173 240.691 16.1962C240.265 16.2355 239.826 16.4322 239.446 16.6504C238.338 17.287 238.166 18.8177 239.221 19.5473C240.18 20.2089 241.27 20.7132 242.365 21.1388C244.074 21.8005 245.827 22.3226 247.372 23.3777C249.192 24.6223 250.09 26.3926 250.126 28.4848C250.162 30.7237 249.228 32.6371 247.375 34.0105C245.126 35.6771 242.529 36.2171 239.865 35.7522C237.537 35.3445 235.405 34.2572 233.978 32.2222C233.198 31.11 232.512 29.9333 231.825 28.7602C231.517 28.2345 231.675 27.9055 232.261 27.7696C233.066 27.58 233.892 27.4727 234.69 27.2653C235.115 27.1544 235.326 27.3404 235.473 27.6444C236.371 29.5184 237.851 30.7666 239.783 31.3997C241.024 31.8074 242.347 31.929 243.595 31.2995C244.886 30.6486 245.24 28.9534 244.185 27.9412C243.567 27.344 242.73 26.9327 241.929 26.5786C240.13 25.7775 238.256 25.1337 236.478 24.2861C234.811 23.4957 233.663 22.1009 233.349 20.2912C232.866 17.498 233.756 15.0267 236.485 13.4101C238.03 12.4945 239.754 12.1762 241.481 12.0189C242.494 11.9259 243.563 12.1119 244.564 12.3551C245.644 12.6197 246.678 13.0847 247.726 13.4816C248.22 13.6676 248.441 14.0217 248.42 14.5903C248.377 15.8028 248.405 17.0187 248.405 18.4744L248.413 18.4636Z" fill="#005958"/>
<path d="M150.057 28.1558C151.112 27.8626 152.07 27.5872 153.032 27.3404C153.526 27.2152 153.812 27.5085 154.012 27.9198C154.835 29.6043 156.183 30.7309 157.885 31.4104C159.087 31.8897 160.357 32.022 161.637 31.6321C163.247 31.1422 163.744 29.2288 162.599 27.9913C161.902 27.2403 160.983 26.9148 160.071 26.5572C158.511 25.9384 156.927 25.3734 155.4 24.6795C153.744 23.9285 152.478 22.7375 151.966 20.9207C151.516 19.3292 151.555 17.7484 152.328 16.2534C153.361 14.2542 155.107 13.2277 157.213 12.609C158.894 12.1119 160.589 12.2013 162.259 12.3551C163.719 12.491 165.149 12.9738 166.44 13.7356C166.616 13.8393 166.823 14.0753 166.827 14.2542C166.845 15.5918 166.816 16.9294 166.798 18.2669C166.798 18.3134 166.726 18.3564 166.626 18.4815C165.832 18.0309 165.046 17.5195 164.205 17.1261C162.317 16.2391 160.325 16.0281 158.311 16.5753C156.873 16.9687 156.534 18.5781 157.617 19.6153C158.404 20.3663 159.388 20.7883 160.403 21.1424C162.188 21.7647 163.973 22.3441 165.614 23.3491C169.362 25.6452 169.298 31.0385 166.548 33.5455C165.482 34.5148 164.241 35.1442 162.85 35.5627C161.179 36.0634 159.484 36.1885 157.839 35.7737C155.561 35.1979 153.565 34.057 152.152 32.0649C151.326 30.899 150.529 29.733 150.057 28.1594V28.1558Z" fill="#005958"/>
<path d="M184.959 35.3052C183.318 35.3052 181.805 35.3302 180.295 35.2765C180.074 35.2694 179.82 34.9153 179.67 34.6686C179.577 34.5148 179.645 34.2608 179.645 34.0534C179.645 27.2617 179.645 20.4736 179.645 13.6819C179.645 12.6448 179.77 12.5124 180.828 12.5089C185.653 12.5053 190.478 12.5053 195.302 12.5089C196.139 12.5089 196.178 12.5482 196.186 13.3458C196.196 14.3543 196.186 15.3664 196.186 16.4859C195.824 16.5038 195.51 16.5359 195.199 16.5359C192.101 16.5395 189.004 16.5359 185.907 16.5359C184.97 16.5359 184.966 16.5467 184.959 17.4837C184.956 18.4064 184.956 19.3292 184.959 20.2519C184.963 21.3999 184.981 21.4178 186.089 21.4178C188.829 21.4178 191.568 21.4178 194.308 21.4178C195.342 21.4178 195.41 21.4929 195.413 22.5444C195.413 23.46 195.413 24.3719 195.413 25.4055H184.952V35.2944L184.959 35.3052Z" fill="#005958"/>
<path d="M258.348 16.5252H252.189C252.189 15.2949 252.168 14.1433 252.214 12.9953C252.221 12.8272 252.518 12.6197 252.722 12.5267C252.894 12.4481 253.133 12.5053 253.341 12.5053C258.498 12.5053 263.652 12.5053 268.809 12.5053C269.986 12.5053 270.004 12.5267 270.004 13.7106C270.004 14.5975 270.004 15.4845 270.004 16.5038H263.763V17.6697C263.763 23.0952 263.763 28.5171 263.763 33.9425C263.763 34.1822 263.766 34.4182 263.756 34.6578C263.734 35.0763 263.544 35.3159 263.087 35.3123C261.717 35.3016 260.344 35.3052 258.974 35.3123C258.555 35.3123 258.384 35.0834 258.359 34.7079C258.341 34.4718 258.348 34.2322 258.348 33.9926C258.348 28.5671 258.348 23.1452 258.348 17.7198V16.5288V16.5252Z" fill="#005958"/>
<path d="M200.914 23.882C200.914 20.4879 200.914 17.0974 200.914 13.7034C200.914 12.5732 200.978 12.5124 202.144 12.5089C203.128 12.5089 204.108 12.5089 205.091 12.5089C206.332 12.5089 206.357 12.5339 206.357 13.7463C206.357 19.1038 206.357 24.4614 206.357 29.8189C206.357 31.3067 206.364 32.7945 206.357 34.2823C206.354 35.2336 206.271 35.3087 205.349 35.3087C204.158 35.3123 202.967 35.3195 201.776 35.3087C201.003 35.3016 200.917 35.2122 200.914 34.4218C200.907 30.9097 200.914 27.3976 200.914 23.8856V23.882Z" fill="#005958"/>
</g>
<path d="M5.68695 40C7.85269 40 9.73432 38.8073 10.6977 37.0553V37.0479C11.1345 36.2565 11.3774 35.3509 11.3774 34.3902C11.3774 31.4638 9.10372 29.064 6.2025 28.8101L11.0079 16.715L11.0641 16.8511L14.014 24.2273L16.3139 29.9767L18.5615 35.5973L20.2418 39.8046L20.2904 39.9224H27.6909C29.5986 39.9224 31.7006 39.8303 32.5821 38.1664C32.9742 37.4266 33.157 36.5174 33.1645 35.634C33.172 34.9604 33.0636 34.2977 32.8286 33.7088L32.7242 33.4475L32.6012 33.1347L31.9214 31.4416L30.0022 26.638L30.0097 26.6197L31.4285 23.0529L33.9411 16.7329L39.1984 29.9762L43.1449 39.9215H49.7943C51.8667 39.9215 54.4165 40.0428 55.4136 38.1656C55.8056 37.4257 55.9884 36.5165 55.9999 35.6331C56.0035 34.9595 55.8955 34.2969 55.6601 33.7079L55.5556 33.4466L50.571 20.9065L46.3669 10.3867C45.1199 7.26535 42.4089 5.01298 39.1944 4.26568C38.4364 4.09249 37.6522 4.00044 36.8534 4.00044H28.7888L31.7121 11.1262L31.7382 11.1886L27.8103 21.0823L27.7953 21.1155L27.7577 21.016L23.8001 11.1258L23.5054 10.3859C23.2629 9.78209 22.9677 9.2154 22.6239 8.68186C22.4898 8.46854 22.3438 8.26219 22.1911 8.05977C22.042 7.85735 21.8809 7.66234 21.7132 7.47432C21.549 7.28673 21.3773 7.10263 21.1976 6.92944C19.8647 5.62635 18.1734 4.69146 16.3214 4.26481C16.2094 4.23907 16.0975 4.21682 15.9815 4.195C15.5332 4.10688 15.0819 4.04799 14.6185 4.01832C14.5623 4.01483 14.5066 4.01091 14.4504 4.01091C14.3083 4.00349 14.1667 4 14.0211 4H5.92282L8.79793 11.1846C8.79793 11.1921 4.94129 20.9057 4.94129 20.9057L4.91119 20.9794L0.448283 32.2042C0.41111 32.2888 0.377478 32.3774 0.347386 32.462C0.123466 33.0618 0 33.7136 0 34.3907C0 37.4898 2.54676 40 5.68695 40Z" fill="#005958"/>
<defs>
<clipPath id="clip0_1_597">
<rect width="206" height="24.0337" fill="white" transform="translate(64 11.9831)"/>
</clipPath>
</defs>
</svg>
