<?xml version="1.0" encoding="utf-8"?>
<!-- Generator: Adobe Illustrator 19.0.0, SVG Export Plug-In . SVG Version: 6.00 Build 0)  -->
<svg version="1.1" id="layer" xmlns="http://www.w3.org/2000/svg" xmlns:xlink="http://www.w3.org/1999/xlink" x="0px" y="0px"
	 viewBox="-153 -46 652 652" style="enable-background:new -153 -46 652 652;" xml:space="preserve">
<style type="text/css">
	.st0{fill:#ffffff;}
</style>
<g>
	<path d="M-132,275.9h33c12,0,19.6,3,24.3,7.7c4.1,4.1,6.2,9.1,6.2,16v0.2c0,9.9-5.1,16.7-13.3,20.7l15.7,23h-25.8l-12.8-19.3h-0.2
		h-4.6v19.3H-132V275.9z M-99.6,308.1c5.4,0,8.7-2.4,8.7-6.6v-0.2c0-4.3-3.4-6.5-8.6-6.5h-9.9v13.2H-99.6z"/>
	<path d="M-61.6,309.9v-0.2c0-19.6,16.1-35.3,37-35.3c20.9,0,36.8,15.5,36.8,35.1v0.2c0,19.6-16.1,35.3-37,35.3
		S-61.6,329.5-61.6,309.9 M-10.6,309.9v-0.2c0-8-5.5-15.3-14.2-15.3c-8.6,0-14,7.1-14,15.1v0.2c0,8,5.5,15.3,14.2,15.3
		C-16,325-10.6,317.8-10.6,309.9"/>
	<path d="M19.8,309.9v-0.2c0-20.2,15.7-35.3,35.9-35.3c14.9,0,24.9,7.2,30.6,17.6l-18.6,10.9c-2.5-4.8-6.1-8.2-12.3-8.2
		c-7.6,0-12.7,6.7-12.7,14.8v0.2c0,8.8,5.2,15,12.7,15c6.4,0,10-3.5,12.8-8.5l18.6,10.5c-5.7,10-15.2,18.3-32,18.3
		C36.1,345,19.8,330.9,19.8,309.9"/>
	<polygon points="94.1,275.9 116.7,275.9 116.7,301.2 135.9,275.9 162.2,275.9 138.6,305.3 162.6,343.5 135.7,343.5 122.5,322.1 
		116.7,329.1 116.7,343.5 94.1,343.5 	"/>
	<polygon points="173.9,336.5 173.9,343 167.6,343 167.6,322.5 173.9,322.5 173.9,329 189.9,329 189.9,336.5 	"/>
	<polygon points="167.6,319.9 167.6,312.4 175.5,312.4 175.5,305.6 167.6,305.6 167.6,298.2 189.9,298.2 189.9,305.6 181.9,305.6 
		181.9,312.4 189.9,312.4 189.9,319.9 	"/>
	<polygon points="167.6,295.3 167.6,275.9 173.7,275.9 173.7,288 176,288 176,276 181.4,276 181.4,288 183.8,288 183.8,276 
		189.9,276 189.9,295.3 	"/>
	<path d="M254.4,308.7v-0.2c0-20.3,16.7-36.5,38.3-36.5c21.6,0,38,16,38,36.3v0.2c0,20.3-16.7,36.5-38.2,36.5
		C270.9,345,254.4,329,254.4,308.7 M307.1,308.7v-0.2c0-8.3-5.7-15.8-14.7-15.8c-8.9,0-14.5,7.4-14.5,15.6v0.2
		c0,8.3,5.7,15.8,14.7,15.8C301.5,324.3,307.1,316.9,307.1,308.7"/>
	<polygon points="354.9,293.3 334.4,293.3 334.4,273.6 398.9,273.6 398.9,293.3 378.3,293.3 378.3,343.5 354.9,343.5 	"/>
	<polygon points="407.2,273.6 467.9,273.6 467.9,292.7 430.2,292.7 430.2,299.8 468,299.8 468,316.7 430.2,316.7 430.2,324.3 
		468,324.3 468,343.5 407.2,343.5 	"/>
	<polygon class="st0" points="268.8,204.6 221.8,301.8 221.8,275.8 197.2,275.8 197.2,342.6 202.3,342.6 202.3,342.6 227.8,342.6 
		294.3,204.6 	"/>
</g>
</svg>
