<svg width="72" height="33" viewBox="0 0 72 33" fill="none" xmlns="http://www.w3.org/2000/svg">
<path fill-rule="evenodd" clip-rule="evenodd" d="M35.9996 32.9696C43.0112 32.9696 49.7988 32.0605 55.6297 30.3428C61.3746 28.6487 65.9061 26.2595 68.7336 23.4327C70.9012 21.2651 72 18.9271 72 16.4846C72 14.0421 70.9012 11.7045 68.7336 9.53688C65.9061 6.7097 61.3746 4.32046 55.6297 2.62685C49.7992 0.908254 43.0112 0 35.9996 0C26.4938 0 17.5432 1.65305 10.7975 4.65435C3.83458 7.75192 0 11.9536 0 16.4846C0 18.9271 1.09917 21.2651 3.26677 23.4327C6.09395 26.2595 10.625 28.6487 16.3707 30.3428C22.2008 32.0605 28.9888 32.9696 35.9996 32.9696Z" fill="white"/>
<path fill-rule="evenodd" clip-rule="evenodd" d="M1.68555 16.4846C1.68555 14.5051 2.61838 12.5685 4.45865 10.7286C9.95243 5.23528 22.3329 1.68542 36.0001 1.68542C49.6674 1.68542 62.0487 5.23528 67.542 10.7286C69.3823 12.5685 70.3155 14.5055 70.3155 16.4846C70.3155 24.5065 54.6015 31.2838 36.0005 31.2838C22.3337 31.2838 9.95284 27.7344 4.45906 22.2406C2.61838 20.4011 1.68555 18.4638 1.68555 16.4846Z" fill="#080602"/>
<path fill-rule="evenodd" clip-rule="evenodd" d="M12.2721 21.6461C14.0632 22.7703 15.7483 22.6294 15.7483 22.6294C20.945 22.6294 21.1204 18.4158 21.1204 18.4511C21.2256 16.7308 20.1724 15.7124 19.4702 15.2207C18.768 14.7291 15.9588 13.5706 15.9588 13.5706C14.7998 13.1142 14.7998 12.0257 14.7998 12.0257C14.7998 9.4275 17.5738 9.3218 17.5738 9.3218C20.5587 9.35662 20.911 12.9245 21.0851 13.3596C21.2256 13.7107 21.5063 13.3248 21.5063 13.3248C21.5063 13.3248 23.0512 8.79495 23.2621 8.30375C23.4727 7.81214 22.9111 7.95266 22.9111 7.95266C22.0331 8.54956 20.6988 9.00594 20.6988 9.00594C19.5398 7.98748 17.6791 8.02271 17.6791 8.02271C17.6791 8.02271 12.3066 8.128 12.3066 12.9388C12.3066 12.9388 12.3418 15.2916 14.6946 16.0639C17.5033 17.1167 18.4165 18.1004 18.4165 18.8378C18.4165 19.5748 17.8192 21.3655 15.8531 21.3655C15.8531 21.3655 11.8854 21.0152 11.8854 16.696C11.8854 16.696 11.7801 16.1692 11.6396 16.5903C11.4991 17.0119 9.67315 22.1738 9.67315 22.1738C9.67315 22.1738 9.56786 22.6298 10.0943 22.4196C10.6207 22.2094 12.0616 21.5413 12.2721 21.6461ZM53.8933 21.7797C53.8933 21.7797 53.8204 22.0964 54.1862 21.9501C54.5529 21.8039 55.5529 21.3405 55.7 21.413C56.9442 22.1939 58.1155 22.0964 58.1155 22.0964C62.4298 22.0898 62.2532 19.2204 62.2532 19.2446C62.2847 18.7972 62.2006 18.3493 62.009 17.9438C61.8175 17.5384 61.5249 17.1889 61.1594 16.9291C60.6714 16.5878 58.2445 15.7476 58.2445 15.7476C57.4395 15.4301 57.6148 14.7967 57.6148 14.7967C57.7205 13.3244 59.4551 13.3739 59.4551 13.3739C61.5297 13.3985 61.9275 15.6702 62.0012 15.9873C62.0742 16.3043 62.2942 15.9627 62.2942 15.9627C62.2942 15.9627 63.4904 12.428 63.6367 12.0867C63.7829 11.745 63.3925 11.8425 63.3925 11.8425C62.7829 12.2575 61.7673 12.7676 61.7673 12.7676C60.7337 12.1125 59.1069 12.1547 59.1069 12.1547C59.1069 12.1547 55.5828 12.2981 55.5828 15.6415C55.5828 15.6415 55.6078 17.2761 57.2424 17.814C59.1958 18.5453 60.1958 19.018 60.1806 19.7415C60.1704 20.2545 59.6255 20.937 58.2588 20.937C58.2588 20.937 55.9929 20.8329 55.4313 17.9717C55.4313 17.9717 55.2154 17.6083 55.1105 17.9246C55.0048 18.2405 53.8933 21.7797 53.8933 21.7797Z" fill="white"/>
<path fill-rule="evenodd" clip-rule="evenodd" d="M27.5463 12.3415C27.1255 12.3616 21.7879 13.43 21.7879 19.0832C21.7879 19.0832 21.6826 22.4192 25.7556 22.4192C25.7556 22.4192 28.2485 22.5241 29.8991 19.8907C29.8991 19.8907 30.1449 19.4699 29.7585 19.4699C29.7585 19.4699 28.4943 20.9448 26.3525 20.9448C26.3525 20.9448 24.4213 21.1201 24.4213 18.9082C24.4213 16.696 26.1067 13.5706 27.5463 13.5706C28.9859 13.5706 29.8286 15.0454 29.7938 16.7308C29.7938 16.7308 29.7938 16.9414 29.9695 16.9414C30.1449 16.9414 30.1801 16.766 30.3202 16.3797C30.4607 15.9934 31.6197 12.7631 31.6197 12.7631C31.6197 12.7631 31.7598 12.3768 31.4792 12.3768C31.1981 12.3768 30.2153 13.0089 30.2153 13.0089C30.2153 13.0089 30.1096 13.2191 29.5476 12.9032C28.9859 12.5873 28.2837 12.3063 27.5463 12.3415Z" fill="white"/>
<path fill-rule="evenodd" clip-rule="evenodd" d="M36.3594 12.4468C35.4823 12.4669 30.6362 13.3248 30.6362 18.9775C30.6362 18.9775 30.7829 22.0804 34.4942 22.2692C36.0894 22.2885 40.6082 20.6633 40.6434 16.2036C40.6795 11.5689 36.3594 12.4468 36.3594 12.4468Z" fill="white"/>
<path fill-rule="evenodd" clip-rule="evenodd" d="M36.9917 13.5001C36.0093 13.4476 33.6561 15.045 33.1645 19.2581C33.1645 19.2581 32.8834 21.084 34.6393 21.084C36.3948 21.084 38.0106 17.0114 38.0106 15.0446C38.0101 15.045 38.1494 13.5615 36.9917 13.5001Z" fill="#080602"/>
<path fill-rule="evenodd" clip-rule="evenodd" d="M48.1578 12.6222H45.9374C46.2094 11.7164 46.4023 11.0773 46.4023 11.0773C46.4023 11.0773 46.5072 10.7262 46.2262 10.7614L41.6267 13.8164C41.6267 13.8164 41.4506 14.0622 41.9426 14.0622H42.6444C42.6444 14.0622 42.8205 14.2027 42.7148 14.5886C42.6091 14.9749 41.4858 18.7321 41.4153 19.1889C41.3457 19.6448 41.1343 22.0324 43.6628 22.0324C43.6628 22.0324 46.4019 22.243 47.3843 20.1016C47.3843 20.1016 47.5957 19.5744 47.209 19.855C46.8227 20.1369 46.6121 20.5928 45.3126 20.5928C44.0139 20.5928 43.9435 19.4343 44.1893 18.5211C44.3236 18.0201 44.9759 15.8328 45.5367 13.9573C46.2135 13.9589 47.4626 13.9622 47.665 13.9561C48.1041 13.943 48.1394 13.6795 48.1394 13.6795C48.1394 13.6795 48.2619 13.0781 48.2971 12.8676C48.3327 12.6574 48.1578 12.6222 48.1578 12.6222ZM54.9519 12.6222H52.7323L53.1964 11.0773C53.1964 11.0773 53.3021 10.7262 53.0211 10.7614L48.4208 13.8164C48.4208 13.8164 48.2455 14.0622 48.7367 14.0622H49.4385C49.4385 14.0622 49.6146 14.2027 49.5089 14.5886C49.4041 14.9749 48.2799 18.7321 48.2103 19.1889C48.1398 19.6448 47.9292 22.0324 50.4569 22.0324C50.4569 22.0324 53.196 22.243 54.1793 20.1016C54.1793 20.1016 54.3898 19.5744 54.0031 19.855C53.6176 20.1369 53.4062 20.5928 52.1075 20.5928C50.808 20.5928 50.7376 19.4343 50.9842 18.5211C51.1186 18.0201 51.7699 15.8328 52.3308 13.9573C53.0076 13.9589 54.2567 13.9622 54.4599 13.9561C54.8982 13.943 54.9335 13.6795 54.9335 13.6795C54.9335 13.6795 55.0568 13.0781 55.092 12.8676C55.1277 12.6574 54.9519 12.6222 54.9519 12.6222ZM62.2651 21.9251C62.2651 21.1258 62.914 20.5351 63.6805 20.5351C64.44 20.5351 65.089 21.1254 65.089 21.9251C65.089 22.7326 64.44 23.3229 63.6805 23.3229C62.914 23.3229 62.2651 22.7326 62.2651 21.9251Z" fill="white"/>
<path fill-rule="evenodd" clip-rule="evenodd" d="M63.6806 23.0903C64.3111 23.0903 64.8089 22.5966 64.8089 21.9251C64.8089 21.266 64.3111 20.7682 63.6806 20.7682C63.0428 20.7682 62.5454 21.266 62.5454 21.9251C62.5454 22.5966 63.0432 23.0903 63.6806 23.0903Z" fill="#080602"/>
<path fill-rule="evenodd" clip-rule="evenodd" d="M63.3869 22.7326H63.1436V21.1258H63.7548C64.135 21.1258 64.323 21.2659 64.323 21.5826C64.323 21.8698 64.1424 21.9956 63.906 22.0251L64.3636 22.7326H64.0907L63.6667 22.0366H63.3865V22.7326H63.3869Z" fill="white"/>
<path fill-rule="evenodd" clip-rule="evenodd" d="M63.678 21.8301C63.8845 21.8301 64.0684 21.8149 64.0684 21.5683C64.0684 21.3692 63.8878 21.3323 63.7181 21.3323H63.3867V21.8301H63.678Z" fill="#080602"/>
</svg>
