<svg width="118" height="58" viewBox="0 0 118 58" fill="none" xmlns="http://www.w3.org/2000/svg">
<g clip-path="url(#clip0_43_415)">
<path d="M58.5996 53.6888C74.6115 53.6888 89.0342 50.6295 99.3975 45.7493C109.878 40.814 115.7 34.2924 115.7 27.594C115.7 20.8963 109.878 14.374 99.3975 9.43877C89.0342 4.55883 74.6114 1.50029 58.5996 1.50029C42.5886 1.50034 28.1662 4.55879 17.8027 9.43877C7.32186 14.3741 1.5 20.8963 1.5 27.594C1.50027 34.2924 7.32221 40.814 17.8027 45.7493C28.1662 50.6295 42.5885 53.6887 58.5996 53.6888Z" stroke="black" stroke-width="3"/>
<path d="M69.176 31.5964L72.0811 23.4475H75.761L76.1603 22.3272L76.4331 21.5648H73.6514H72.7515L73.3695 19.8332L73.8125 18.5915H73.5811L65.5251 23.2013L65.4457 23.4475H67.0514H68.2752L68.0035 24.2084L65.2984 31.7885C64.7937 33.2045 65.1327 34.4669 66.0566 35.2686C66.7025 35.8292 67.6323 36.1663 68.7699 36.1663C70.3794 36.1663 72.1412 35.5421 73.3059 34.6214C73.7492 34.2709 74.1098 33.8783 74.3374 33.46L74.222 33.3055C73.0571 33.8553 71.7622 34.1066 71.188 34.1066C70.5947 34.1066 70.1023 33.981 69.7348 33.7529C69.0692 33.3386 68.8225 32.5825 69.176 31.5964Z" fill="black"/>
<path d="M82.9841 34.633C83.4102 34.2798 83.7565 33.8837 83.9739 33.46L83.8477 33.3055C82.753 33.8553 81.5398 34.1066 81.0004 34.1066C80.5371 34.1066 80.1599 34.0188 79.8691 33.8587C79.1736 33.4771 78.9802 32.6739 79.3631 31.5964L82.2704 23.4475H86.6575L87.058 22.3272L87.3304 21.5648H83.8411H82.9424L83.5359 19.9003L84.0017 18.5915H83.7712L76.8222 22.9941L76.4963 23.2013L76.4175 23.4475H76.6599H77.937H78.4648L78.1928 24.2084L75.4887 31.7885C74.9704 33.2391 75.3174 34.5277 76.2374 35.3267C76.8448 35.8516 77.6985 36.1663 78.7277 36.1663C80.2281 36.1663 81.883 35.5467 82.9841 34.633Z" fill="black"/>
<path d="M54.1321 28.7782C55.206 25.6537 57.008 23.1226 59.3391 23.1226C60.2524 23.1226 60.8128 23.5149 61.0964 24.175C61.5386 25.2008 61.307 26.8783 60.6526 28.7782C59.5769 31.9012 57.7704 34.434 55.4427 34.434C54.9782 34.434 54.6076 34.3294 54.3147 34.1434C53.1393 33.3965 53.27 31.2789 54.1321 28.7782ZM55.2565 36.2121C59.2783 36.2121 63.4986 32.8843 64.6782 28.7782C65.2582 26.7622 64.9956 24.9351 64.1032 23.5963C63.1789 22.2089 61.5766 21.3468 59.5293 21.3468C55.503 21.3468 51.2832 24.6711 50.1027 28.7782C49.4027 31.2094 49.9266 33.366 51.3066 34.7225C52.2571 35.6573 53.6134 36.2121 55.2565 36.2121Z" fill="black"/>
<path d="M51.4336 21.3312H51.2469L48.7347 22.4874C47.8533 21.7431 46.9012 21.3115 45.5513 21.3115C41.8011 21.3115 37.7767 24.4717 36.4827 28.7883C35.7521 31.2273 36.3016 33.3707 37.6666 34.7129C38.605 35.6346 39.9291 36.1784 41.4891 36.1784C43.411 36.1784 45.5123 35.2616 46.9822 33.9717C47.6813 33.3578 48.2392 32.6607 48.5643 31.9351L48.4225 31.8077C46.8176 33.1151 44.6398 34.2804 43.056 34.2804C42.2629 34.2804 41.6335 34.0634 41.1593 33.6808C40.0462 32.7822 39.8066 30.9512 40.4448 28.7421C41.3524 25.5923 43.7601 23.1226 45.7638 23.1226C46.7772 23.1226 47.5893 23.654 48.1231 24.5426C48.6421 25.4065 48.8994 26.609 48.8187 27.9968H49.0317L49.365 27.0738L51.0169 22.4866L51.4336 21.3312Z" fill="black"/>
<path d="M26.1464 19.311C26.3952 17.6823 28.203 16.5016 30.2654 16.5016C32.1943 16.5016 33.7478 17.4098 34.7615 18.8648C35.4346 19.8318 35.8727 21.037 36.0164 22.3864H36.2132L36.4036 21.8511L38.5362 15.8552L38.9468 14.6993H38.7606L35.5458 16.1848C34.1641 15.231 32.3183 14.6715 30.3786 14.6715C26.1947 14.6715 22.7161 17.5391 22.142 20.9327C21.8161 22.8574 22.4059 24.2084 23.4175 25.22C24.4296 26.2321 25.8638 26.9021 27.223 27.4628C28.7967 28.1136 30.2614 28.7248 30.8424 29.8011C31.0789 30.2383 31.1731 30.7516 31.0626 31.3795C30.7742 33.0047 29.0482 34.3823 26.9853 34.3823C25.4808 34.3823 24.1757 33.8783 23.1685 32.8517C22.1851 31.8503 21.4897 30.3442 21.1787 28.3079C21.105 27.8249 21.0475 27.3198 21.0181 26.7772H20.8251L17.4454 36.2216H17.6317L18.4949 35.805L21.1495 34.523C22.495 35.5056 24.8301 36.2121 26.9576 36.2121C31.1405 36.2121 34.6211 33.3886 35.2022 29.8341C35.4508 28.3205 35.1751 27.1889 34.5918 26.3022C33.5322 24.6919 31.4511 23.8932 29.6152 23.1026C28.6055 22.667 27.672 22.2288 27.0214 21.6533C26.3575 21.0641 25.9891 20.3322 26.1464 19.311Z" fill="black"/>
<path d="M90.0132 24.4215C90.1927 23.29 91.4946 22.5211 92.988 22.5211C94.4749 22.5211 95.6556 23.2355 96.3838 24.3643C96.7931 24.999 97.0614 25.7623 97.1572 26.6074H97.3989L97.5333 26.2278L98.8624 22.5145L99.2741 21.3641H99.0888L96.9225 22.3491C95.8166 21.6544 94.3918 21.2493 93.0682 21.2493C90.0379 21.2493 87.5296 23.1911 87.1195 25.5484C86.8766 26.935 87.3492 27.9141 88.1327 28.646C88.8593 29.3245 89.8521 29.7922 90.7991 30.1672C92.0048 30.6452 93.1224 31.1187 93.4877 31.9633C93.6086 32.243 93.6469 32.5627 93.5783 32.9373C93.3736 34.065 92.1293 34.9409 90.6386 34.9409C89.6079 34.9409 88.7326 34.6354 88.052 34.0068C87.3814 33.3868 86.9016 32.4468 86.6479 31.1682C86.5594 30.7192 86.495 30.2336 86.4638 29.6997H86.2727L83.9483 36.2187H84.1331L84.9875 35.8242L86.5303 35.1136C87.5198 35.7568 89.1384 36.2121 90.6203 36.2121C93.6477 36.2121 96.2981 34.4234 96.7153 31.9538C96.88 30.9758 96.7004 30.2062 96.3167 29.5791C95.5398 28.3044 93.9103 27.6274 92.5296 27.0553C91.8446 26.772 91.2099 26.4867 90.7446 26.1231C90.205 25.7016 89.8951 25.1757 90.0132 24.4215Z" fill="black"/>
<path d="M100.797 35.8916C99.8899 35.8916 99.1793 35.1887 99.1793 34.2922C99.1793 33.4013 99.8899 32.7023 100.797 32.7023C101.697 32.7023 102.402 33.4013 102.402 34.2922C102.402 35.1887 101.697 35.8916 100.797 35.8916ZM100.797 32.3808C99.7489 32.3808 98.8601 33.1929 98.8601 34.2922C98.8601 35.4018 99.7489 36.2124 100.797 36.2124C101.836 36.2124 102.723 35.4018 102.723 34.2922C102.723 33.1929 101.836 32.3808 100.797 32.3808Z" fill="black"/>
<path d="M100.393 34.1601V33.4755H100.847C101.079 33.4755 101.325 33.5266 101.325 33.8008C101.325 34.1403 101.073 34.1601 100.791 34.1601H100.393ZM101.674 33.8203C101.674 33.3842 101.417 33.1929 100.897 33.1929H100.061V35.4018H100.393V34.4437H100.776L101.357 35.4018H101.728L101.104 34.429C101.427 34.3887 101.674 34.2161 101.674 33.8203Z" fill="black"/>
</g>
<defs>
<clipPath id="clip0_43_415">
<rect width="118" height="58" fill="white"/>
</clipPath>
</defs>
</svg>
