<svg width="201px" height="83px" viewBox="0 0 201 83" version="1.1" xmlns="http://www.w3.org/2000/svg" xmlns:xlink="http://www.w3.org/1999/xlink">
    <defs>
        <polygon id="path-pf7r-syx78-1" points="0 0 201 0 201 83 0 83"></polygon>
    </defs>
    <g id="EDGE" stroke="none" stroke-width="1" fill="none" fill-rule="evenodd">
        <g id="home-copy-4" transform="translate(-40, -37)">
            <g id="Group-3-Copy" transform="translate(40, 37)">
                <mask id="mask-pf7r-syx78-2" fill="white">
                    <use xlink:href="#path-pf7r-syx78-1"></use>
                </mask>
                <g id="Clip-2"></g>
                <path d="M18.4206894,81.4285196 L30.5219287,81.4285196 L30.5219287,43.9032539 L18.4206894,43.9032539 L18.4206894,81.4285196 Z M47.5976923,43.9032539 L37.2444957,43.9032539 L37.2444957,81.4285196 L48.2701552,81.4285196 L48.2701552,62.9338489 C48.7884852,62.8129501 48.7874542,63.1215126 49.0281902,63.384448 C49.7607083,64.1848543 50.3692498,65.3025876 51.090427,66.1535188 C55.4705859,71.3230352 60.2146841,76.2069316 64.5394273,81.4285196 L74.8926238,81.4285196 L74.8926238,43.9032539 L63.8672221,43.9032539 L63.8672221,62.6657579 L47.5976923,43.9032539 Z M140.115339,44.7183537 C137.845616,44.7900165 135.374592,44.773003 133.099714,44.7201582 C132.221053,44.6995358 129.658271,43.947592 129.215976,44.8454391 C129.075246,45.3287763 129.622186,45.3777545 129.951072,45.440395 C131.604521,45.7548863 132.708969,45.1527127 132.732681,47.5229981 C132.834749,57.7841815 121.104924,79.7379996 137.219032,82.6962807 C145.404573,84.1991371 153.567175,80.0537798 155.756481,71.8342126 C157.249354,66.2293061 158.220031,50.5990847 161.484401,46.9870739 C162.245529,46.1446494 163.164656,45.6071785 164.293332,45.4983954 C167.283717,45.2104554 168.137892,45.5290712 167.931178,48.5907221 C167.296089,57.9947876 163.54071,68.6612009 162.705866,78.224832 C162.042424,80.8644974 161.216086,81.1660998 158.516182,81.2859674 L158.700472,82.2036635 L171.971369,82.231246 L171.971626,81.1617175 C168.914227,81.4555865 168.526059,80.6500246 168.748753,77.8136732 C169.499056,68.2624155 172.942818,57.483868 174.196759,47.8642986 C174.70581,45.726015 176.872435,45.52108 178.763527,45.8440782 C180.841744,46.199041 182.961974,48.9998187 183.241372,51.0295769 C184.219782,58.1396599 180.957473,66.3432447 172.509545,64.8099704 L172.538155,66.1218119 C179.471302,67.7901628 188.798664,62.4402005 189.923473,55.2306146 C192.044476,41.6340182 176.360033,44.7482562 168.06031,44.7183537 C166.019208,44.7108781 163.951043,44.7077847 161.897312,44.7183537 C159.147148,44.7325316 156.416314,44.5768326 153.675944,44.5654903 L153.675944,45.3857456 C157.060425,45.4635951 157.62051,48.1638387 157.45916,51.0169457 C157.225383,55.1465784 154.292476,71.5326102 152.56196,74.8149206 C148.765857,82.0162576 135.89653,83.4907581 134.893378,74.0245677 C134.3851,69.2278009 137.237074,55.2620638 138.436373,50.0139245 C139.221472,46.5782351 139.581287,45.4733908 143.464509,45.2406156 C143.303159,43.7240969 141.136277,44.6858734 140.115339,44.7183537 L140.115339,44.7183537 Z M108.237917,57.5730598 C107.924754,51.4484692 98.0811242,50.8053085 94.6484447,54.347461 C91.6776484,57.4127208 91.5170718,66.7520835 93.9860339,70.0364562 C96.5351555,73.4267763 103.732235,74.0444168 106.756643,71.2410613 C107.272138,70.7631375 108.91502,68.0265469 107.834543,68.0265469 L99.6327634,68.0265469 L99.6327634,60.5215454 L119.801238,60.5215454 L119.801238,81.4285196 L113.347243,81.4285196 L112.138924,77.9502965 C109.239781,80.1257004 106.037012,81.4372841 102.424941,81.9335103 C85.1893737,84.3019912 76.6695342,71.8130747 80.7739035,55.7961835 C85.1648877,38.660528 115.720839,39.5552817 119.344509,53.6058284 C119.48859,54.1641795 120.171105,57.5730598 119.397863,57.5730598 L108.237917,57.5730598 Z M0,0 L0,9.64947188 L12.3700698,9.64947188 L12.3700698,37.5255235 L24.4713091,37.5255235 L24.4713091,9.64947188 L36.8411211,9.64947188 L36.8411211,0 L0,0 Z M82.2876538,0 L82.2876538,37.5255235 L115.364117,37.5255235 L115.364117,28.4122336 L94.6577236,28.4122336 L94.6577236,22.7833535 L112.13712,22.7833535 L112.13712,14.2059879 L94.6577236,14.2059879 L94.6577236,8.84519885 L115.095286,8.84519885 L115.095286,0 L82.2876538,0 Z M176.945377,8.84519885 L181.920417,8.84519885 C183.361741,8.84519885 185.98432,10.2088541 186.894168,11.3928368 C189.239412,14.4441765 189.301013,24.1655689 186.227634,26.8085854 C185.703118,27.2597001 183.324625,28.4122336 182.727166,28.4122336 L176.945377,28.4122336 L176.945377,8.84519885 Z M184.609496,37.5255235 C186.980514,37.5255235 191.878229,35.7785497 193.92165,34.4775349 C203.021164,28.6839335 203.278396,10.365842 195.091308,3.75842973 C192.987574,2.06069185 187.809687,0 185.147414,0 L164.575308,0 L164.575308,37.5255235 L184.609496,37.5255235 Z M52.9761068,8.57736562 L62.5225541,8.57736562 C62.8138086,8.57736562 63.9772802,9.46232373 64.2306459,9.82295769 C65.4639671,11.5768916 65.206993,14.9463316 63.2942497,16.0473091 C63.1122801,16.1519678 61.8114291,16.6185492 61.7158048,16.6185492 L52.9761068,16.6185492 L52.9761068,8.57736562 Z M71.2666338,23.1772411 C72.1971018,21.8648841 73.8345709,20.904912 74.8691688,19.5435768 C79.3153111,13.6935216 77.6059305,4.10256578 70.6415964,1.02080807 C70.0815113,0.77282389 67.8202936,0 67.3630498,0 L40.8748675,0 L40.8748675,37.5255235 L52.9761068,37.5255235 L52.9761068,24.9275661 L59.1610128,24.9275661 L64.9428019,37.5255235 L78.2539074,37.5255235 L71.2666338,23.1772411 Z M120.473443,0 L120.473443,37.5255235 L131.499102,37.5255235 L131.499102,19.0308527 L147.768374,37.5255235 L158.121571,37.5255235 L158.121571,0 L146.827081,0 L146.95879,18.4972485 C145.172858,17.1284377 143.881544,14.8836911 142.394084,13.130015 C138.626591,8.68898428 134.606247,4.43407063 130.826639,0 L120.473443,0 Z" id="Fill-1" fill="#ffffff" mask="url(#mask-pf7r-syx78-2)"></path>
            </g>
        </g>
    </g>
</svg>