<svg width="32" viewBox="0 0 32 32" aria-hidden="true" class="astro-b7ousclo" data-icon="custom/nodejs">  <symbol id="ai:local:custom/nodejs"><g fill="#2B2B2B"><path d="M14.915 4.305a2.004 2.004 0 0 1 1.957 0c2.978 1.683 5.957 3.363 8.935 5.047.56.315.934.939.929 1.584v10.125c.004.672-.408 1.31-.998 1.619-2.97 1.673-5.936 3.349-8.904 5.022a1.947 1.947 0 0 1-1.978-.055l-2.671-1.544c-.182-.109-.387-.195-.516-.371.114-.153.317-.172.482-.24.371-.117.712-.307 1.054-.49.086-.06.191-.037.274.015.761.437 1.515.886 2.279 1.318.163.094.328-.03.467-.108 2.913-1.647 5.83-3.287 8.742-4.934a.29.29 0 0 0 .159-.284c.002-3.34 0-6.681.001-10.021a.313.313 0 0 0-.187-.312c-2.958-1.666-5.914-3.335-8.872-5.001a.308.308 0 0 0-.349 0C12.762 7.34 9.806 9.01 6.848 10.676a.31.31 0 0 0-.188.31V21.01a.283.283 0 0 0 .161.281c.79.448 1.58.892 2.37 1.338.444.24.99.382 1.48.198.434-.155.737-.596.729-1.056.004-3.32-.003-6.641.003-9.961-.011-.147.129-.27.272-.255.38-.003.759-.005 1.138 0 .158-.003.267.156.248.304-.002 3.342.004 6.683-.003 10.025.001.89-.365 1.86-1.188 2.295-1.015.526-2.27.415-3.272-.09-.868-.433-1.696-.944-2.549-1.408-.592-.307-1.002-.947-.998-1.619V10.936a1.843 1.843 0 0 1 .961-1.604l8.903-5.027Z"></path><path d="M17.505 11.318c1.294-.083 2.68-.049 3.845.589.901.488 1.401 1.514 1.417 2.516-.025.135-.166.21-.295.2-.376 0-.751.006-1.127-.002-.16.006-.252-.14-.272-.282-.108-.48-.37-.954-.82-1.185-.693-.347-1.496-.33-2.251-.322-.552.029-1.145.077-1.612.4-.359.247-.468.742-.34 1.142.121.286.452.379.723.464 1.56.408 3.213.368 4.743.905.634.218 1.254.644 1.47 1.307.284.89.16 1.952-.473 2.666-.513.587-1.26.907-2.005 1.08-.991.221-2.02.227-3.026.129-.947-.108-1.932-.357-2.663-1.002-.625-.542-.93-1.388-.9-2.204.008-.137.145-.234.277-.222.378-.003.756-.004 1.135 0 .15-.01.263.12.27.262.07.457.242.937.64 1.207.769.496 1.733.462 2.613.476.73-.032 1.548-.042 2.143-.524.314-.275.407-.735.322-1.13-.092-.334-.441-.49-.741-.592-1.54-.487-3.212-.31-4.737-.861-.619-.219-1.218-.633-1.455-1.269-.332-.9-.18-2.013.518-2.703.682-.686 1.665-.95 2.6-1.045Z"></path></g></symbol><use xlink:href="#ai:local:custom/nodejs"></use>  </svg>