<svg fill="#78766d" width="14" height="10" viewBox="0 0 14 10" xmlns="http://www.w3.org/2000/svg"><path fill-rule="evenodd" clip-rule="evenodd" d="M9.26954 1.31918C8.74765 1.18951 8.22291 1.12537 7.70403 1.12123L7.70802 0.621251C8.26552 0.625698 8.8294 0.694622 9.3901 0.833934L9.26954 1.31918ZM6.1341 1.29217C5.61738 1.40973 5.1165 1.5859 4.64137 1.81461L4.42451 1.36409C4.9329 1.11936 5.46929 0.930647 6.02318 0.804633L6.1341 1.29217ZM11.4358 2.2739C11.2094 2.12558 10.98 1.99259 10.7486 1.87436L10.976 1.42909C11.2236 1.55556 11.4685 1.69759 11.7098 1.85567L12.0666 2.08946L11.7926 2.50769L11.4358 2.2739ZM3.30044 2.65449C2.88728 2.98213 2.51016 3.35589 2.17885 3.76948L1.78862 3.45688C2.14375 3.01354 2.54767 2.61332 2.98975 2.26273L3.30044 2.65449ZM12.8631 3.20907L12.5063 2.97527L12.7803 2.55704L13.1371 2.79084L12.8631 3.20907ZM1.33981 5.10736C1.11705 5.57601 0.945725 6.07612 0.834598 6.60227L0.34539 6.49894C0.464781 5.93367 0.648893 5.39625 0.888228 4.89272L1.33981 5.10736ZM0.688533 8.1753C0.693883 8.43516 0.713433 8.69954 0.748067 8.96796L0.252178 9.03194C0.215265 8.74586 0.194362 8.46356 0.188639 8.18559L0.688533 8.1753ZM13.0001 4.99995L11.8648 4.46569C8.7923 3.0198 5.37433 5.6624 6.00012 8.99995H1.50012C0.752281 3.39114 7.11327 -0.36068 11.6602 3.00738L13.0001 3.99995V4.99995ZM9.39343 5.36218C9.65957 5.28953 9.9379 5.25342 10.2218 5.25912L10.2319 4.75922C9.89885 4.75254 9.57282 4.79491 9.26176 4.87982L9.39343 5.36218ZM11.0465 5.39477C11.1775 5.43577 11.3086 5.48648 11.4394 5.54749L11.8031 5.71725L12.0146 5.26415L11.6508 5.0944C11.5001 5.02407 11.3482 4.9653 11.1959 4.91761L11.0465 5.39477ZM7.97238 6.22066C8.16447 6.01612 8.38421 5.83825 8.62428 5.69298L8.36542 5.2652C8.08642 5.43403 7.83115 5.64067 7.60791 5.87838L7.97238 6.22066ZM12.5307 6.05675L12.8944 6.2265L13.1058 5.77341L12.7421 5.60365L12.5307 6.05675ZM7.21528 7.69283C7.26885 7.41392 7.36213 7.14921 7.48862 6.90405L7.04428 6.67479C6.89644 6.96135 6.78708 7.27139 6.72425 7.59851L7.21528 7.69283ZM7.24372 8.94374C7.21128 8.80315 7.189 8.6643 7.17618 8.52767L6.67837 8.57438C6.69328 8.73332 6.71913 8.89411 6.75653 9.05617L7.24372 8.94374Z" fill="#78766d"></path></svg>