<svg width="24" height="24" viewBox="0 0 24 24" fill="none" xmlns="http://www.w3.org/2000/svg">
<path d="M12 0C5.38548 0 0 5.38064 0 12C0 18.6145 5.38548 24 12 24C18.6145 24 24 18.6145 24 12C24 5.38064 18.6145 0 12 0ZM1.20968 12C1.20968 10.4371 1.54355 8.95161 2.14355 7.61129L7.29194 21.7113C3.69194 19.9597 1.20968 16.2677 1.20968 12ZM12 22.7903C10.9403 22.7903 9.91935 22.6355 8.95161 22.35L12.1887 12.9435L15.5032 22.0306C15.5274 22.0839 15.5516 22.1323 15.5806 22.1806C14.4629 22.5726 13.2581 22.7903 12 22.7903ZM13.4855 6.94355C14.1339 6.90968 14.7194 6.84193 14.7194 6.84193C15.3 6.77419 15.2323 5.91774 14.6516 5.95161C14.6516 5.95161 12.9048 6.0871 11.7774 6.0871C10.7177 6.0871 8.9371 5.95161 8.9371 5.95161C8.35645 5.91774 8.28871 6.80806 8.86935 6.84193C8.86935 6.84193 9.42097 6.90968 10.0016 6.94355L11.6806 11.55L9.31935 18.629L5.39032 6.94355C6.03871 6.90968 6.62419 6.84193 6.62419 6.84193C7.20484 6.77419 7.1371 5.91774 6.55645 5.95161C6.55645 5.95161 4.80968 6.0871 3.68226 6.0871C3.47903 6.0871 3.24194 6.08226 2.98548 6.07258C4.91613 3.14516 8.23064 1.20968 12 1.20968C14.8065 1.20968 17.3661 2.28387 19.2871 4.04032C19.2387 4.03548 19.1952 4.03065 19.1468 4.03065C18.0871 4.03065 17.3371 4.95484 17.3371 5.94677C17.3371 6.8371 17.85 7.5871 18.3968 8.47742C18.8081 9.19355 19.2871 10.1177 19.2871 11.4532C19.2871 12.3774 18.9339 13.4468 18.4645 14.9419L17.3903 18.5371L13.4855 6.94355ZM17.4242 21.3242L20.7194 11.7968C21.3339 10.2581 21.5419 9.02903 21.5419 7.93064C21.5419 7.53387 21.5177 7.16613 21.4694 6.82258C22.3113 8.36129 22.7903 10.1226 22.7903 12C22.7903 15.9823 20.6323 19.4565 17.4242 21.3242Z" fill="#A6746C"/>
</svg>
