<svg width="148" height="80" viewBox="0 0 148 80" fill="none" xmlns="http://www.w3.org/2000/svg">
<path fill-rule="evenodd" clip-rule="evenodd" d="M68.8384 55.9035H77.0687V23.0528H68.8384V55.9035Z" fill="#222222"/>
<path fill-rule="evenodd" clip-rule="evenodd" d="M97.5052 48.985C102.735 48.985 106.578 44.5015 106.578 39.4685C106.578 34.435 102.714 29.9941 97.5052 29.9941C92.2752 29.9941 88.4116 34.435 88.4116 39.4685C88.4116 44.5015 92.2752 48.985 97.5052 48.985ZM97.5693 22C107.431 22 115.373 29.5711 115.373 39.405C115.373 49.2811 107.367 57 97.4837 57C87.6002 57 79.5953 49.387 79.5953 39.532C79.5953 29.6978 87.7073 22 97.5693 22ZM116.319 45.9688L123.871 44.1913C124.413 48.1386 127.313 49.5648 130.358 49.5648C133.383 49.5648 134.489 47.7873 134.489 46.4027C134.489 45.2867 133.842 44.1913 131.631 43.7575L127.02 42.8686C121.513 41.8148 117.613 38.384 117.613 33.114C117.613 26.8315 123.391 22.4089 129.92 22.4089C138.327 22.4089 141.79 27.6169 142.395 31.9776L134.989 34.0442C134.593 31.3574 132.924 29.415 129.879 29.415C127.25 29.415 125.998 31.1509 125.998 32.4734C125.998 33.5688 126.52 34.8295 128.481 35.2015L133.279 36.1107C139.558 37.3095 143 41.112 143 46.0514C143 51.4248 138.327 56.5913 130.317 56.5913C121.931 56.5913 117.425 52.2306 116.319 45.9688Z" fill="#222222"/>
<path fill-rule="evenodd" clip-rule="evenodd" d="M13.8574 55.9035H5L19.6464 23.0528H28.5462L13.8574 55.9035Z" fill="#3B6BE3"/>
<path fill-rule="evenodd" clip-rule="evenodd" d="M45.0123 23.0325H34.8103L45.9553 39.1059L39.7538 48.1137L28.5812 23.0518H19.6804L34.3701 55.9035H43.8694L50.8086 45.4895L57.6657 55.9035H67.2691L55.8064 39.1059L66.8077 23.0325H56.7421L50.8086 32.7628L45.0123 23.0325Z" fill="#222222"/>
</svg>
