<svg width="148" height="80" viewBox="0 0 148 80" fill="none" xmlns="http://www.w3.org/2000/svg">
<g clip-path="url(#clip0_1806_3)">
<path d="M8.63256 29.6178H11.6317C14.3728 29.6178 15.5807 30.4897 15.5807 32.2609C15.5807 33.8 14.3728 34.8451 11.9482 34.8451H8.63256V29.6178ZM5 47.033H12.3507C16.2137 47.033 20.0767 45.6438 20.0767 41.1722C20.0767 38.5291 18.2358 36.5001 15.6704 36.2065V36.1454C17.7694 35.5124 19.217 33.9737 19.217 31.651C19.217 27.9059 16.0417 26.4848 12.9565 26.4848H5V47.033ZM8.63256 37.9781H12.1202C15.0605 37.9781 16.4492 38.7338 16.4492 40.8833C16.4492 43.5787 13.8484 43.9 11.9753 43.9H8.63256V37.9781Z" fill="#010101"/>
<path d="M31.6846 40.0683C31.6846 37.8915 33.2136 35.8907 35.7514 35.8907C38.2892 35.8907 39.8136 37.892 39.8136 40.0683C39.8136 42.2446 38.2892 44.2464 35.7514 44.2464C33.2132 44.2464 31.6846 42.2451 31.6846 40.0683ZM28.2241 40.0683C28.2241 44.451 31.5669 47.3793 35.7514 47.3793C39.9309 47.3793 43.2787 44.4515 43.2787 40.0683C43.2787 35.6851 39.9314 32.7531 35.7514 32.7531C31.5669 32.7526 28.2241 35.6856 28.2241 40.0683Z" fill="#010101"/>
<path d="M48.2995 40.0683C48.2995 37.8915 49.8286 35.8907 52.3663 35.8907C54.9041 35.8907 56.4285 37.892 56.4285 40.0683C56.4285 42.2446 54.9041 44.2464 52.3663 44.2464C49.8286 44.2464 48.2995 42.2451 48.2995 40.0683ZM44.839 40.0683C44.839 44.451 48.1822 47.3793 52.3663 47.3793C56.5458 47.3793 59.8936 44.4515 59.8936 40.0683C59.8936 35.6851 56.5463 32.7531 52.3663 32.7531C48.1818 32.7526 44.839 35.6856 44.839 40.0683Z" fill="#010101"/>
<path d="M62.0013 33.1013H65.2898V35.2804H65.3441C65.9504 33.9737 67.2756 32.7508 69.5825 32.7508C71.7177 32.7508 73.1925 33.5907 73.9114 35.335C74.9202 33.568 76.3903 32.7508 78.4622 32.7508C82.1531 32.7508 83.4521 35.3962 83.4521 38.7343V47.0335H79.9916V39.1394C79.9916 37.3998 79.476 35.8902 77.4267 35.8902C75.2647 35.8902 74.4547 37.6887 74.4547 39.4853V47.033H70.9988V38.7338C70.9988 37.0168 70.3065 35.8902 68.633 35.8902C66.3575 35.8902 65.4618 37.5683 65.4618 39.4284V47.033H62.0013V33.1013Z" fill="#010101"/>
<path d="M97.7331 40.0683C97.7331 42.2474 96.2087 44.2464 93.6663 44.2464C91.128 44.2464 89.5995 42.2474 89.5995 40.0683C89.5995 37.8915 91.128 35.8856 93.6663 35.8856C96.2087 35.8856 97.7331 37.8915 97.7331 40.0683ZM86.2567 47.033H89.5452V44.9446H89.5995C90.6124 46.6227 92.4266 47.3789 94.3622 47.3789C98.6236 47.3789 101.193 44.1866 101.193 40.0678C101.193 35.9467 98.452 32.7526 94.503 32.7526C91.9105 32.7526 90.5222 33.9686 89.8028 34.8748H89.7168V26H86.2563L86.2567 47.033Z" fill="#010101"/>
<path d="M106.219 38.675C106.477 36.6691 107.748 35.3647 109.793 35.3647C111.955 35.3647 113.28 36.6422 113.312 38.675H106.219ZM116.773 41.2866V40.3304C116.773 35.4809 114.149 32.7531 110.286 32.7531C106.097 32.7531 102.758 35.6856 102.758 40.0683C102.758 44.451 106.097 47.3793 110.286 47.3793C112.471 47.3793 114.524 46.5963 116.135 44.5969L113.656 42.7141C112.792 43.7824 111.665 44.5969 109.937 44.5969C108.006 44.5969 106.445 43.3471 106.219 41.2866H116.773Z" fill="#010101"/>
<path d="M119.025 33.1013H122.486V35.3077H122.545C123.295 33.7116 124.82 32.7508 126.638 32.7508C127.072 32.7508 127.475 32.8397 127.877 32.9577V36.3232C127.303 36.1796 126.751 36.0634 126.203 36.0634C122.947 36.0634 122.485 38.8227 122.485 39.5789V47.0335H119.025L119.025 33.1013Z" fill="#010101"/>
<path d="M135.618 35.8902C138.124 35.8902 139.712 37.5683 139.712 39.9836C139.712 42.3016 138.155 44.0727 135.59 44.0727C133.256 44.0727 131.524 42.2446 131.524 40.0382C131.524 37.5683 133.193 35.8902 135.618 35.8902ZM139.712 33.1013V35.1915H139.657C138.644 33.5065 136.826 32.7508 134.894 32.7508C130.629 32.7508 128.064 35.9449 128.064 40.0683C128.064 44.0116 130.805 47.2062 134.953 47.2062C136.686 47.2062 138.472 46.5412 139.486 45.1776H139.535V46.1953C139.535 48.95 138.504 50.8675 135.157 50.8675C133.225 50.8675 131.782 50.1386 130.398 48.8546L128.326 51.7047C130.28 53.4531 132.618 54 135.188 54C140.58 54 143 50.8036 143 45.7851V33.1013H139.712Z" fill="#010101"/>
<path d="M22.5 26H25.5V47H22.5V26Z" fill="#010101"/>
</g>
<defs>
<clipPath id="clip0_1806_3">
<rect width="138" height="28" fill="white" transform="translate(5 26)"/>
</clipPath>
</defs>
</svg>
