<svg width="248" height="77" viewBox="0 0 248 77" fill="none" xmlns="http://www.w3.org/2000/svg">
<path d="M121.594 31.6822C121.057 27.8843 117.422 24.9983 113.25 24.9983C105.709 24.9983 102.874 31.4135 102.874 38.1006C102.874 44.4677 105.709 50.8828 113.25 50.8828C118.382 50.8828 121.271 47.3537 121.911 42.324H130.044C129.187 51.8459 122.609 57.9411 113.25 57.9411C101.427 57.9411 94.4748 49.1167 94.4748 38.1006C94.4748 26.7613 101.427 17.9369 113.25 17.9369C121.646 17.9369 128.704 22.8578 129.724 31.6822H121.594Z" fill="white"/>
<path d="M132.561 18.8465H150.533C157.806 18.8465 162.726 21.1981 162.726 28.3108C162.726 32.0575 160.858 34.6779 157.54 36.2809C162.192 37.6183 164.547 41.2019 164.547 45.9628C164.547 53.7218 157.969 57.0333 151.067 57.0333H132.561V18.8465ZM140.96 34.3036H149.464C152.405 34.3036 154.596 32.963 154.596 29.7538C154.596 26.1191 151.816 25.3704 148.821 25.3704H140.96V34.3036ZM140.96 50.5062H149.947C153.262 50.5062 156.148 49.4376 156.148 45.4829C156.148 41.5794 153.688 40.0244 150.104 40.0244H140.96V50.5062Z" fill="white"/>
<path d="M174.872 44.3569C174.872 49.4379 178.833 51.4152 183.326 51.4152C186.266 51.4152 190.758 50.5609 190.758 46.6575C190.758 42.5396 185.037 41.8453 179.422 40.3447C173.752 38.8473 168.028 36.6524 168.028 29.4885C168.028 21.6784 175.407 17.9349 182.308 17.9349C190.275 17.9349 197.605 21.4096 197.605 30.2372H189.475C189.21 25.6395 185.943 24.462 181.931 24.462C179.262 24.462 176.155 25.5851 176.155 28.7942C176.155 31.7346 177.976 32.109 187.549 34.5727C190.333 35.2638 198.888 37.0299 198.888 45.6944C198.888 52.7014 193.379 57.9423 183.002 57.9423C174.552 57.9423 166.637 53.7701 166.742 44.3569H174.872Z" fill="white"/>
<path d="M49 37.5764C49 26.2115 58.2116 17 69.5764 17C80.9445 17 90.1593 26.2115 90.1593 37.5764C90.1593 48.9445 80.9445 58.1625 69.5764 58.1625C58.2116 58.1625 49 48.9445 49 37.5764ZM88.9114 37.5764C85.7919 30.7741 78.5512 25.3061 69.5764 25.3061C60.6016 25.3061 53.3642 30.7741 50.2446 37.5764C53.3642 44.3819 60.6016 49.8468 69.5764 49.8468C78.5512 49.8468 85.7919 44.3819 88.9114 37.5764Z" fill="white"/>
<path d="M58.5703 37.4731C58.5703 31.4451 63.4496 26.5625 69.4712 26.5625C75.496 26.5625 80.3785 31.4451 80.3785 37.4731C80.3785 43.4947 75.496 48.3772 69.4712 48.3772C63.4496 48.3772 58.5703 43.4947 58.5703 37.4731Z" fill="white"/>
</svg>
