<svg width="148" height="80" viewBox="0 0 148 80" fill="none" xmlns="http://www.w3.org/2000/svg">
<path d="M29.8088 39.5152C29.8088 48.5031 36.9502 55.8152 45.7283 55.8152H60.598C61.5318 55.8152 62.2561 54.9063 62.2561 54.1236V24.2538C62.2561 22.3668 63.7554 20.8312 65.5979 20.8312C66.7799 20.8312 67.8814 21.4729 68.4717 22.5065C68.5457 22.6366 73.0477 30.5838 77.8136 38.9984C82.3674 47.0388 87.0768 55.3531 87.1508 55.4836C87.3891 55.8997 87.8549 56.1682 88.3383 56.1682C89.1041 56.1682 89.7273 55.5305 89.7273 54.746V24.2538C89.7273 22.3668 91.2259 20.8312 93.0692 20.8312C94.2511 20.8312 95.3527 21.4729 95.9426 22.5065C96.0175 22.6366 100.516 30.5838 105.279 38.9988C109.828 47.0375 114.533 55.3496 114.609 55.4836C114.847 55.8997 115.313 56.1682 115.796 56.1682C116.562 56.1682 117.185 55.5305 117.185 54.746V15.2133H111.323V38.7452C111.323 38.7452 100.704 20.0296 100.36 19.4278C98.8096 16.7144 95.8699 15 92.7411 15C87.84 15 83.8655 19.0713 83.8655 24.0891V38.7452C83.8655 38.7452 73.2462 20.0296 72.9018 19.4278C71.3515 16.7144 68.4118 15 65.283 15C60.3819 15 56.4074 19.0713 56.4074 24.0891V48.172C56.4104 49.0484 55.767 49.8123 54.8302 49.814H45.7912C40.2364 49.814 35.7332 45.2032 35.7332 39.5152C35.7332 33.8273 40.2364 29.2164 45.7912 29.2164H53.3625V23.2152H45.7283C36.9502 23.2152 29.8088 30.5273 29.8088 39.5152Z" fill="#CC0000"/>
<path d="M119.139 15.2131V54.7462C119.139 56.6336 117.64 58.1688 115.797 58.1688C114.615 58.1688 113.513 57.5271 112.923 56.4939C112.849 56.3638 108.35 48.4162 103.588 40.0017C99.0375 31.9634 94.3336 23.6504 94.2566 23.5168C94.0192 23.1007 93.5525 22.8318 93.0691 22.8318C92.3034 22.8318 91.6809 23.4695 91.6809 24.2536V54.7462C91.6809 56.6336 90.1816 58.1688 88.3387 58.1688C87.1567 58.1688 86.056 57.5271 85.4648 56.4939C85.3908 56.3638 80.8889 48.4166 76.1229 40.0017C71.5688 31.9616 66.8598 23.6474 66.7853 23.5168C66.547 23.1007 66.0812 22.8318 65.5978 22.8318C64.8321 22.8318 64.2096 23.4695 64.2096 24.2536V54.1238C64.2096 56.0905 62.5221 57.8158 60.5983 57.8158H45.7286C35.8734 57.8158 27.855 49.6067 27.855 39.515C27.855 29.4242 35.8734 21.2147 45.7286 21.2147H53.3624V15.2131H45.7355C32.627 15.2131 22 26.0932 22 39.515C22 52.9373 32.627 63.8178 45.7355 63.8178H60.7476C66.4345 63.8209 70.0916 60.4092 70.084 54.1164V40.2548C70.084 40.2548 80.7793 59.1035 81.048 59.5726C82.5983 62.2856 85.538 64 88.6668 64C93.5683 64 97.542 59.9287 97.542 54.9114V40.2548C97.542 40.2548 108.162 58.9708 108.506 59.5726C110.056 62.2856 112.996 64 116.125 64C121.026 64 125 59.9287 125 54.9114V15.2131H119.139Z" fill="#CC0000"/>
</svg>
