<svg width="148" height="80" viewBox="0 0 148 80" fill="none" xmlns="http://www.w3.org/2000/svg">
<path d="M83.2302 33.0825C83.2302 29.1147 83.2998 25.4205 83.5088 22L72.8506 23.9839V24.9416L73.8955 25.0785C74.6618 25.1469 75.1494 25.4205 75.4281 25.831C75.7067 26.3099 75.9157 26.994 76.055 28.0201C76.1943 30.004 76.3337 34.5191 76.264 41.6338C76.264 48.6801 76.1943 53.1268 76.055 54.837C79.8864 55.6579 82.8819 56 85.1111 56C89.2908 56 92.5649 54.837 94.9334 52.4427C97.3019 50.1167 98.5558 46.833 98.5558 42.7968C98.5558 39.5815 97.6502 36.9135 95.839 34.7928C94.0278 32.672 91.7289 31.6459 89.0121 31.6459C87.2009 31.6459 85.32 32.1247 83.2302 33.0825ZM83.4392 54.1529C83.2998 51.9638 83.1605 45.3964 83.1605 34.6559C83.7875 34.4507 84.6234 34.3139 85.6683 34.3139C87.3402 34.3139 88.6638 35.1348 89.6391 36.8451C90.6143 38.5553 91.102 40.6076 91.102 43.2072C91.102 46.4225 90.5447 49.0221 89.4301 51.2113C88.3155 53.332 86.9223 54.4266 85.1807 54.4266C84.6234 54.2897 84.0661 54.2213 83.4392 54.1529ZM32.8647 22.6841H5V24.0523L6.4629 24.1891C7.57749 24.3944 8.34377 24.8048 8.8314 25.4205C9.31903 26.1046 9.59768 27.1992 9.66734 28.7042C10.2246 36.0926 10.2246 43.002 9.66734 49.3642C9.52802 50.8692 9.24937 51.9638 8.8314 52.6479C8.34377 53.332 7.57749 53.7425 6.4629 53.8793L5 54.0845V55.4527H22.9727V54.0845L21.0919 53.9477C20.6329 53.91 20.1865 53.7814 19.7794 53.5698C19.3724 53.3582 19.0131 53.0679 18.7234 52.7163C18.2357 52.0322 17.9571 50.9376 17.8874 49.4326C17.6784 46.6962 17.5391 43.5493 17.5391 40.0604L21.3009 40.1288C23.321 40.1972 24.7143 41.7022 25.4109 44.7123H26.8041V33.5614H25.4109C24.7143 36.503 23.3907 38.008 21.3009 38.0765L17.5391 38.1449C17.5391 31.9879 17.6784 27.6097 17.8874 24.9416H23.3907C27.2918 24.9416 29.9389 27.4044 31.4715 32.33L33.1434 31.8511L32.8647 22.6841ZM29.5906 43.7545C29.5906 47.3119 30.6355 50.2535 32.6557 52.5795C34.6759 54.9054 37.6714 56 41.4331 56C45.1948 56 48.26 54.837 50.4891 52.4427C52.7183 50.1167 53.7633 47.175 53.7633 43.6177C53.7633 40.0604 52.7183 37.1187 50.6981 34.7928C48.6779 32.4668 45.6825 31.3722 41.9207 31.3722C38.159 31.3722 35.0939 32.5352 32.8647 34.9296C30.6355 37.2555 29.5906 40.1972 29.5906 43.7545ZM45.1252 35.9557C45.9611 37.9396 46.3094 40.5392 46.3094 43.6861C46.3094 50.9376 44.7769 54.495 41.7814 54.495C40.2489 54.495 39.0646 53.4688 38.2287 51.4165C37.3927 49.3642 37.0444 46.7646 37.0444 43.6861C37.0444 36.503 38.577 32.9457 41.5724 32.9457C43.105 32.8773 44.2892 33.9034 45.1252 35.9557ZM103.989 52.5795C106.288 54.837 109.214 56 112.697 56C114.857 56 116.738 55.5895 118.409 54.7002C120.081 53.8793 121.405 52.8531 122.31 51.6217L121.614 50.8008C120.081 51.9638 118.34 52.5111 116.32 52.5111C113.533 52.5111 111.374 51.6217 109.911 49.7746C108.378 47.9276 107.681 45.6016 107.821 42.5915H122.728C122.728 39.3078 121.892 36.6398 120.151 34.5191C118.409 32.4668 115.971 31.4406 112.836 31.4406C108.935 31.4406 105.94 32.672 103.78 35.0664C101.621 37.4608 100.576 40.4024 100.576 43.8913C100.576 47.4487 101.691 50.3219 103.989 52.5795ZM109.144 35.4085C109.911 33.7666 110.886 32.9457 112.209 32.9457C114.299 32.9457 115.344 35.5453 115.344 40.8129L107.96 40.9497C108.03 38.8974 108.378 37.0503 109.144 35.4085ZM141.467 32.672C139.587 31.8511 137.218 31.3722 134.362 31.3722C131.436 31.3722 129.137 32.1247 127.396 33.5614C125.654 34.998 124.749 36.7767 124.749 38.8974C124.749 40.7445 125.306 42.1811 126.351 43.2072C127.396 44.2334 129.068 45.1227 131.227 45.8753C133.178 46.5594 134.571 47.2435 135.268 47.8592C135.964 48.5433 136.382 49.2958 136.382 50.3219C136.382 51.2797 136.034 52.169 135.268 52.8531C134.571 53.6056 133.596 53.9477 132.342 53.9477C129.277 53.9477 126.978 51.7585 125.376 47.3803L124.191 47.7223L124.47 54.5634C126.978 55.5211 129.764 56 132.829 56C136.034 56 138.472 55.3159 140.283 53.8793C142.094 52.5111 143 50.5272 143 48.0644C143 46.4225 142.582 45.0543 141.676 44.0282C140.771 43.002 139.308 42.1127 137.218 41.2918C134.919 40.4708 133.317 39.7183 132.481 39.0342C131.645 38.3501 131.227 37.5292 131.227 36.503C131.227 35.4769 131.506 34.6559 132.133 33.9718C132.76 33.2877 133.526 33.0141 134.501 33.0141C137.288 33.0141 139.308 34.998 140.562 38.8974L141.746 38.5553L141.467 32.672ZM74.4528 32.0563C73.4775 31.5775 72.4326 31.3722 71.2484 31.3722C70.0641 31.3722 68.8799 31.8511 67.5563 32.8089C66.2327 33.7666 65.2574 35.0664 64.4912 36.8451L64.5608 31.3722L53.9722 33.4245V34.3823L55.0172 34.4507C56.3407 34.5875 57.107 35.6137 57.2463 37.4608C57.6643 41.7022 57.6643 46.2173 57.2463 51.006C57.107 52.8531 56.3407 53.8109 55.0172 54.0161L53.9722 54.1529V55.4527H68.7405V54.1529L66.8597 54.0161C65.5361 53.8793 64.7698 52.8531 64.6305 51.006C64.2125 47.0382 64.1429 42.7968 64.4912 38.4185C64.9091 37.7344 65.8147 37.3239 67.208 37.1871C68.6012 37.0503 70.2034 37.4608 71.8753 38.4185L74.4528 32.0563Z" fill="#33629A"/>
</svg>
