<svg width="148" height="80" viewBox="0 0 148 80" fill="none" xmlns="http://www.w3.org/2000/svg">
<g clip-path="url(#clip0_1806_3)">
<path d="M22.7318 30.0728V46.9272C22.7318 48.823 23.5035 50.6411 24.877 51.9816C26.2505 53.3221 28.1134 54.0752 30.0559 54.0752C31.9983 54.0752 33.8612 53.3221 35.2347 51.9816C36.6083 50.6411 37.3799 48.823 37.3799 46.9272V30.0728C37.3799 28.177 36.6083 26.3589 35.2347 25.0184C33.8612 23.6779 31.9983 22.9248 30.0559 22.9248C28.1134 22.9248 26.2505 23.6779 24.877 25.0184C23.5035 26.3589 22.7318 28.177 22.7318 30.0728ZM27.9743 46.9272V30.0728C27.9711 29.8021 28.026 29.5337 28.1355 29.2849C28.2449 29.0361 28.4065 28.8124 28.6098 28.6281C28.8131 28.4439 29.0536 28.3032 29.3159 28.2151C29.5782 28.127 29.8565 28.0934 30.133 28.1165C30.3985 28.1081 30.663 28.153 30.9101 28.2484C31.1571 28.3437 31.3815 28.4875 31.5694 28.6709C31.7573 28.8542 31.9046 29.0732 32.0023 29.3144C32.1 29.5555 32.146 29.8136 32.1374 30.0728V46.9272C32.1295 47.4436 31.9157 47.9367 31.5415 48.3019C31.1673 48.6671 30.6621 48.8757 30.133 48.8835C29.8596 48.8936 29.5868 48.8509 29.3303 48.758C29.0738 48.6651 28.8386 48.5238 28.6381 48.3421C28.4376 48.1604 28.2758 47.9419 28.1619 47.6991C28.048 47.4563 27.9842 47.194 27.9743 46.9272ZM79.6279 23.301H64.8257V28.4175H69.6056V53.5485H74.848V28.4175H79.6279V23.301ZM95.0469 23.301V46.9272C95.0469 47.446 94.8357 47.9436 94.4598 48.3105C94.0839 48.6774 93.5741 48.8835 93.0425 48.8835C92.5108 48.8835 92.001 48.6774 91.6251 48.3105C91.2492 47.9436 91.038 47.446 91.038 46.9272V23.301H85.6413V46.9272C85.6413 48.8429 86.4211 50.6802 87.8091 52.0348C89.1971 53.3895 91.0796 54.1505 93.0425 54.1505C95.0054 54.1505 96.8879 53.3895 98.2758 52.0348C99.6638 50.6802 100.444 48.8429 100.444 46.9272V23.301H95.0469ZM143 28.4175V23.301H130.048V53.5485H143V48.432H135.291V40.6068H140.225V35.4903H135.291V28.4175H143ZM59.8916 53.5485H54.3408L50.486 39.2524C51.4478 39.0667 52.3129 38.5592 52.9322 37.8174C53.5515 37.0756 53.8861 36.1461 53.8782 35.1893V30.5243C53.8845 30.2459 53.833 29.9692 53.7268 29.7108C53.6205 29.4524 53.4617 29.2177 53.26 29.0208C53.0583 28.8239 52.8178 28.669 52.5531 28.5653C52.2883 28.4616 52.0048 28.4113 51.7196 28.4175H49.7151V53.5485H44.4726V23.301H51.7196C53.6347 23.2842 55.4808 23.9988 56.8636 25.2921C58.2464 26.5855 59.0564 28.3551 59.1207 30.2233V35.0388C59.1911 36.2885 58.9631 37.5371 58.4547 38.6862C57.9463 39.8352 57.1714 40.8533 56.1911 41.6602L59.8916 53.5485ZM118.33 23.301V39.8544L112.933 23.301H107.536V53.5485H112.933V38.801L117.867 53.5485H123.726V23.301H118.33ZM5 23.7524V54H10.5508V41.0583H15.6391V35.9417H10.5508V28.8689H18.5687V23.7524H5Z" fill="black"/>
</g>
<defs>
<clipPath id="clip0_1806_3">
<rect width="138" height="31" fill="white" transform="translate(5 23)"/>
</clipPath>
</defs>
</svg>
