<svg width="148" height="80" viewBox="0 0 148 80" fill="none" xmlns="http://www.w3.org/2000/svg">
<g clip-path="url(#clip0_1806_3)">
<path d="M23.3814 28.0486L16.9062 39.8161L10.4309 28.0486H10.4077H5V50.9757H10.4077V39.4027L14.9102 47.5719L15.7225 49.0307H18.0898L19.111 47.1343L23.3814 39.4027V50.9757H28.7891V28.0486H23.3814Z" fill="#0E1929"/>
<path d="M42.111 42.6607C42.111 40.9345 41.0666 39.6459 39.558 39.6459C37.9798 39.6459 36.9122 41.056 36.9122 42.6607C36.9122 44.3383 37.9798 45.6755 39.558 45.6755C41.0666 45.6755 42.111 44.3869 42.111 42.6607ZM31.1564 42.7093C31.1564 37.7008 34.4289 34.3214 37.7477 34.3214C40.0454 34.3214 41.5076 35.5613 42.3663 36.8013L42.9001 34.759H47.7508V50.5381H42.9001L42.3663 48.4958C41.5076 49.76 40.0454 50.9757 37.7477 50.9757C34.4289 51 31.1564 47.6205 31.1564 42.7093Z" fill="#0E1929"/>
<path d="M61.8153 35.4397V40.2537C60.7477 39.6216 58.7982 39.0381 57.1504 39.0381C56.1988 39.0381 55.6882 39.2326 55.6882 39.6216C55.6882 40.0106 56.222 40.2537 57.6842 40.5941C60.2836 41.1776 62.8829 42.1501 62.8829 45.5782C62.8829 48.8848 60.3996 50.9757 55.8739 50.9757C53.553 50.9757 51.6499 50.4165 50.3734 49.6871V44.5328C51.7427 45.481 53.3905 46.259 55.6186 46.259C56.7326 46.259 57.3824 46.0645 57.3824 45.6269C57.3824 45.1163 56.5701 44.9461 54.7598 44.4598C52.439 43.8277 50.1877 42.6364 50.1877 39.6702C50.1877 36.5825 52.6014 34.3214 56.8718 34.3214C58.6589 34.3214 60.5621 34.7347 61.8153 35.4397Z" fill="#0E1929"/>
<path d="M70.8204 35.9746C71.6559 35.0507 73.0484 34.297 74.6963 34.297C77.8991 34.297 79.8951 36.3393 79.8951 39.889V50.4894H74.1625V41.445C74.1625 40.1564 73.6287 39.5973 72.5843 39.5973C71.4934 39.5973 70.8204 40.351 70.8204 41.3478V50.4651H65.0878V28H70.8204V35.9746Z" fill="#0E1929"/>
<path d="M92.7992 42.6607C92.7992 40.9345 91.7548 39.6459 90.2462 39.6459C88.668 39.6459 87.6004 41.056 87.6004 42.6607C87.6004 44.3383 88.668 45.6755 90.2462 45.6755C91.7548 45.6755 92.7992 44.3869 92.7992 42.6607ZM81.8446 42.7093C81.8446 37.7008 85.1171 34.3214 88.4359 34.3214C90.7336 34.3214 92.1958 35.5613 93.0545 36.8013L93.5883 34.759H98.439V50.5381H93.5883L93.0545 48.4958C92.1958 49.76 90.7336 50.9757 88.4359 50.9757C85.1171 51 81.8446 47.6205 81.8446 42.7093Z" fill="#0E1929"/>
<path d="M106.957 42.6121C106.957 44.3626 108.001 45.6269 109.51 45.6269C111.065 45.6269 112.132 44.314 112.132 42.6364C112.132 40.9831 111.065 39.5973 109.486 39.5973C107.978 39.5973 106.957 40.8858 106.957 42.6121ZM107.003 36.704C107.862 35.3668 109.626 34.297 111.482 34.297C114.94 34.297 117.888 37.555 117.888 42.6121C117.888 47.6691 114.685 50.9271 111.227 50.9271C109.045 50.9271 107.537 49.6871 106.701 48.4471L106.168 50.4894H101.317V28H107.026L107.003 36.704Z" fill="#0E1929"/>
<path d="M125.779 28H120.07V50.4894H125.779V28Z" fill="#0E1929"/>
<path d="M137.616 40.9345C137.592 39.8404 136.896 38.8922 135.666 38.8922C134.552 38.8922 133.624 39.6702 133.229 40.9345H137.616ZM142.861 44.241H133.438C134.157 45.7484 135.805 46.4535 137.592 46.4535C139.217 46.4535 140.656 45.8943 141.979 45.2865V49.8573C140.424 50.6353 138.683 51.0243 136.78 51.0243C131.024 51.0243 127.891 47.4746 127.891 42.7093C127.891 37.7738 131.256 34.3457 135.689 34.3457C139.704 34.3457 142.977 37.1416 142.977 42.4419C143 43.0254 142.954 43.6332 142.861 44.241Z" fill="#0E1929"/>
</g>
<defs>
<clipPath id="clip0_1806_3">
<rect width="138" height="23" fill="white" transform="translate(5 28)"/>
</clipPath>
</defs>
</svg>
