<svg width="236" height="31" viewBox="0 0 236 31" fill="none" xmlns="http://www.w3.org/2000/svg">
<path d="M17.6904 3.20248C17.6904 0.640496 15.2548 0 13.3319 0V0.384297C14.4856 0.384297 15.3829 0.768595 15.3829 1.66529C15.3829 2.17769 14.9984 2.94628 13.8446 2.94628C12.9473 2.94628 11.0244 2.43388 9.61434 1.92149C7.94785 1.28099 6.40956 0.768595 5.12765 0.768595C2.56382 0.768595 0.769147 2.69008 0.769147 4.86777C0.769147 6.78926 2.17925 7.42975 2.69201 7.68595L2.82021 7.42975C2.56382 7.17355 2.17925 6.91735 2.17925 6.14876C2.17925 5.63636 2.69202 4.73967 3.97393 4.73967C5.12765 4.73967 6.66594 5.25207 8.717 5.89256C10.5117 6.40496 12.4345 6.78926 13.4601 6.91736V10.8884L11.5372 12.5537V12.6818L13.4601 14.3471V19.8554C12.4345 20.4959 11.2808 20.624 10.2553 20.624C8.33243 20.624 6.66594 20.1116 5.25584 18.5744L10.5117 16.0124V7.17355L4.10212 9.99173C4.61488 8.32645 6.02499 7.17355 7.43509 6.40496L7.3069 6.02066C3.46116 7.04545 0 10.6322 0 14.9876C0 20.1116 4.23031 23.9545 8.97338 23.9545C14.101 23.9545 17.434 19.8554 17.434 15.6281H17.1776C16.4085 17.2934 15.2548 18.8306 13.8446 19.5992V14.3471L15.8957 12.6818V12.5537L13.8446 10.8884V6.91736C15.7675 6.91736 17.6904 5.63636 17.6904 3.20248ZM6.53775 17.2934L4.99946 18.062C4.10212 16.9091 3.58935 15.3719 3.58935 13.1942C3.58935 12.2975 3.58935 11.2727 3.84574 10.5041L6.53775 9.35124V17.2934ZM20.126 20.2397L18.4595 21.5207L18.7159 21.7769L19.4851 21.1364L22.3053 23.6983L26.151 21.1364L26.0228 20.8802L24.9973 21.5207L23.7154 20.2397V11.5289L24.7409 10.7603L26.9202 12.5537V20.3678C26.9202 25.2355 25.8946 26.0041 23.7154 26.7727V27.157C27.3047 27.2851 30.6377 26.1322 30.6377 19.8554V11.4008L31.7914 10.5041L31.535 10.2479L30.5095 11.0165L27.3047 8.32645L23.7154 11.0165V0.512397H23.459L18.9723 3.58678V3.84298C19.4851 4.09917 20.2542 4.35537 20.2542 5.76446L20.126 20.2397ZM43.585 18.8306L40.3802 21.2645L37.1754 18.7025V17.1653L43.2004 13.0661V12.938L40.1238 8.32645L33.4579 11.9132V20.3678L32.176 21.3926L32.4324 21.6488L33.5861 20.7521L37.9446 23.9545L43.7132 19.343L43.585 18.8306ZM37.1754 16.6529V10.376L37.4318 10.2479L40.252 14.7314L37.1754 16.6529ZM68.0695 2.04959C68.0695 1.66529 67.9413 1.28099 67.8131 0.896694H67.5568C67.1722 1.92149 66.6594 2.43388 65.3775 2.43388C64.2238 2.43388 63.4546 1.79339 62.9419 1.28099L59.2243 5.50826L59.4807 5.76446L60.7626 4.61157C61.5318 5.25207 62.1727 5.76446 63.9674 5.89256V16.5248L56.4041 3.58678C55.7632 2.56198 54.8658 1.15289 53.0712 1.15289C51.0201 1.15289 49.2254 2.94628 49.4818 5.76446H49.8664C49.9946 4.99587 50.3791 4.09917 51.2765 4.09917C51.9174 4.09917 52.5584 4.73967 52.943 5.38016V9.60744C50.6355 9.60744 49.0972 10.6322 49.0972 12.5537C49.0972 13.5785 49.61 15.1157 51.1483 15.5V15.2438C50.8919 14.9876 50.7637 14.7314 50.7637 14.3471C50.7637 13.7066 51.2765 13.1942 52.1738 13.1942H52.8148V18.5744C50.1228 18.5744 47.9435 20.1116 47.9435 22.6736C47.9435 25.1074 49.9946 26.2603 52.302 26.1322V25.876C50.8919 25.7479 50.2509 25.1074 50.2509 24.2107C50.2509 23.0579 51.0201 22.5455 52.0456 22.5455C53.0712 22.5455 53.9685 23.186 54.6094 23.9545L58.327 19.8554L58.0706 19.5992L57.1733 20.624C55.7632 19.343 54.994 18.9587 53.3275 18.7025V5.89256L63.5828 23.8264H64.352V5.89256C66.2749 5.76446 68.0695 4.22727 68.0695 2.04959ZM77.4275 18.8306L74.2227 21.2645L71.0179 18.7025V17.1653L77.0429 13.0661V12.938L73.9663 8.32645L67.3004 11.9132V20.3678L66.0185 21.3926L66.2748 21.6488L67.4286 20.7521L71.7871 23.9545L77.5557 19.343L77.4275 18.8306ZM71.0179 16.6529V10.376L71.2743 10.2479L74.0945 14.7314L71.0179 16.6529ZM98.3226 9.73554L97.4253 10.376L94.9897 8.32645L92.1695 10.8884L93.3232 12.0413V21.6488L90.2466 19.7273V11.7851L91.2721 11.1446L88.3237 8.32645L85.5035 10.8884L86.6572 12.0413V21.2645L86.2727 21.5207L83.5807 19.5992V11.9132C83.5807 10.1198 82.6833 9.60744 81.6578 8.96694C80.7605 8.32645 80.2477 7.94215 80.2477 7.04545C80.2477 6.27686 81.0168 5.89256 81.4014 5.63636V5.38016C80.3759 5.38016 77.6839 6.40496 77.6839 8.83884C77.6839 10.1198 78.3248 10.6322 78.9658 11.2727C79.6067 11.9132 80.2477 12.4256 80.2477 13.5785V21.0083L78.8376 22.0331L79.094 22.2893L80.3759 21.2645L83.3243 23.8264L86.5291 21.6488L90.1184 23.8264L96.9125 19.8554V11.2727L98.579 9.99173L98.3226 9.73554ZM122.166 2.69008L120.884 3.84298L118.064 1.28099L113.834 4.35537V1.53719H113.449L113.577 22.2893C113.193 22.2893 112.039 22.0331 111.142 21.7769L110.885 4.48347C110.885 3.20248 109.988 1.40909 107.681 1.40909C105.373 1.40909 103.835 3.20248 103.835 4.99587H104.219C104.348 4.22727 104.732 3.58678 105.501 3.58678C106.271 3.58678 106.911 4.09917 106.911 5.76446V10.7603C104.604 10.8884 103.194 12.1694 103.194 13.8347C103.194 14.8595 103.707 16.3967 105.245 16.3967V16.1405C104.732 15.8843 104.604 15.5 104.604 15.2438C104.604 14.4752 105.245 14.219 106.271 14.219H106.783V22.1612C104.86 22.8017 104.091 24.2107 104.091 25.7479C104.091 27.9256 105.758 29.4628 108.322 29.4628C110.116 29.4628 111.655 29.2066 113.193 28.8223C114.475 28.5661 116.141 28.1818 116.91 28.1818C117.936 28.1818 118.32 28.6942 118.32 29.3347C118.32 30.2314 117.936 30.6157 117.423 30.7438V31C119.474 30.6157 120.756 29.3347 120.756 27.4132C120.756 25.4917 118.833 24.3388 116.782 24.3388C115.757 24.3388 113.577 24.7231 112.039 24.9793C110.244 25.3636 108.45 25.6198 107.937 25.6198C107.04 25.6198 106.014 25.2355 106.014 23.9545C106.014 22.9298 106.911 22.0331 109.091 22.0331C110.244 22.0331 111.655 22.1612 113.065 22.5455C114.603 22.9298 116.013 23.314 117.295 23.314C119.218 23.314 120.884 22.6736 120.884 19.9835V4.22727L122.423 2.94628L122.166 2.69008ZM116.91 10.5041C116.526 10.8884 116.013 11.2727 115.372 11.2727C114.731 11.2727 114.09 10.8884 113.834 10.5041V4.86777L115.116 3.97107L116.91 5.63636V10.5041ZM116.91 14.3471C116.654 14.0909 116.013 13.7066 115.372 13.7066C114.731 13.7066 114.09 14.0909 113.834 14.3471V11.0165C114.09 11.2727 114.731 11.657 115.372 11.657C116.013 11.657 116.654 11.2727 116.91 11.0165V14.3471ZM116.91 20.3678C116.91 21.3926 116.269 22.4174 114.859 22.4174H113.834V14.8595C114.09 14.6033 114.731 14.219 115.372 14.219C116.013 14.219 116.526 14.6033 116.91 14.8595V20.3678ZM134.473 11.2727L130.37 8.32645L124.089 11.9132V20.2397L122.807 21.2645L122.935 21.5207L123.961 20.7521L128.063 23.8264L134.473 19.9835V11.2727ZM127.55 19.343V10.1198L130.755 12.4256V21.5207L127.55 19.343ZM146.651 8.58264H146.394C146.01 8.83884 145.625 9.09504 145.241 9.09504C144.728 9.09504 144.087 8.83884 143.831 8.45455H143.574L141.395 10.8884L139.216 8.45455L135.37 11.0165L135.498 11.2727L136.524 10.6322L137.806 12.0413V20.1116L136.139 21.3926L136.395 21.6488L137.165 21.0083L140.241 23.5702L144.215 20.8802L144.087 20.624L142.933 21.2645L141.395 19.9835V11.0165C142.036 11.657 142.805 12.2975 143.702 12.2975C145.497 12.4256 146.523 10.6322 146.651 8.58264ZM162.034 20.8802L157.675 23.8264L151.778 14.8595L156.009 8.32645H156.265C156.778 8.83884 157.547 9.35124 158.444 9.35124C159.342 9.35124 159.983 8.83884 160.367 8.32645H160.624C160.495 10.8884 158.701 12.4256 157.419 12.4256C156.137 12.4256 155.496 11.7851 154.727 11.4008L154.342 12.0413L160.752 21.5207L162.034 20.7521V20.8802ZM147.933 20.2397L146.266 21.5207L146.523 21.7769L147.292 21.1364L150.112 23.6983L153.958 21.1364L153.701 20.8802L152.676 21.5207L151.394 20.2397V0.512397H151.266L146.651 3.58678V3.84298C147.163 4.09917 147.933 4.22727 147.933 5.76446V20.2397ZM183.313 3.20248C183.313 0.640496 180.878 0 178.955 0V0.384297C180.109 0.384297 181.006 0.768595 181.006 1.66529C181.006 2.17769 180.621 2.94628 179.468 2.94628C178.57 2.94628 176.647 2.43388 175.237 1.92149C173.571 1.40909 172.033 0.896694 170.751 0.896694C168.187 0.896694 166.392 2.81818 166.392 4.99587C166.392 6.91736 167.802 7.55785 168.315 7.81405L168.443 7.55785C168.059 7.30165 167.674 7.04545 167.674 6.27686C167.674 5.76446 168.187 4.86777 169.469 4.86777C170.622 4.86777 172.161 5.38016 174.212 6.02066C176.006 6.53306 177.929 6.91735 178.955 7.04545V11.0165L177.032 12.6818V12.8099L178.955 14.4752V19.9835C177.929 20.624 176.776 20.7521 175.75 20.7521C173.827 20.7521 172.161 20.2397 170.751 18.7025L176.007 16.1405V7.17355L169.597 9.99173C170.238 8.32645 171.648 7.17355 172.93 6.27686L172.802 6.02066C168.956 7.04545 165.495 10.5041 165.495 14.8595C165.495 19.9835 169.725 23.8264 174.468 23.8264C179.596 23.8264 182.929 19.7273 182.929 15.5H182.672C181.903 17.1653 180.75 18.7025 179.339 19.4711V14.219L181.391 12.5537V12.4256L179.468 10.7603V6.91736C181.391 6.91736 183.313 5.63636 183.313 3.20248ZM172.161 17.2934L170.622 18.062C169.725 16.9091 169.212 15.3719 169.212 13.1942C169.212 12.2975 169.341 11.2727 169.597 10.5041L172.289 9.35124L172.161 17.2934ZM187.8 1.92149H187.672L185.108 4.09917V4.22727L187.287 6.66116H187.544L190.108 4.48347V4.35537L187.8 1.92149ZM191.646 20.8802L190.62 21.5207L189.338 20.2397V11.4008L190.62 10.5041L190.364 10.2479L189.467 11.0165L187.159 8.32645L183.442 10.8884L183.698 11.2727L184.595 10.6322L185.749 12.0413V20.3678L184.083 21.6488L184.211 21.905L185.108 21.2645L187.928 23.8264L191.774 21.2645L191.646 20.8802ZM213.054 20.7521L212.156 21.3926L210.746 20.1116V11.4008L212.028 10.376L211.772 10.1198L210.746 11.0165L207.798 8.32645L203.952 11.0165L201.004 8.32645L197.414 11.0165L195.107 8.32645L191.389 10.8884L191.518 11.2727L192.415 10.6322L193.697 12.0413V20.3678L192.671 21.3926L195.62 23.8264L198.44 21.2645L197.286 20.1116V11.4008L198.44 10.6322L200.363 12.4256V20.1116L199.337 21.1364L202.286 23.5702L205.106 21.0083L203.952 19.8554V11.4008L204.978 10.7603L207.029 12.5537V20.2397L206.131 21.1364L209.08 23.8264L213.054 21.1364V20.7521ZM224.206 18.8306L221.002 21.2645L217.797 18.7025V17.1653L223.822 13.0661V12.938L220.745 8.32645L214.079 11.9132V20.624L218.566 23.8264L224.335 19.2149L224.206 18.8306ZM217.797 16.6529V10.376L218.053 10.2479L220.873 14.7314L217.797 16.6529ZM235.872 15.5L233.436 13.5785C235.103 12.1694 235.744 10.2479 235.744 8.96694V8.19835H235.487C235.231 8.83884 234.718 9.47934 233.693 9.47934C232.667 9.47934 232.026 8.96694 231.385 8.19835L225.617 11.4008V16.0124L227.796 17.6777C225.616 19.5992 225.232 20.8802 225.232 21.905C225.232 23.186 225.873 24.0826 226.898 24.4669L227.027 24.2107C226.77 23.9545 226.514 23.8264 226.514 23.1859C226.514 22.8017 227.027 22.1612 228.052 22.1612C229.334 22.1612 230.103 23.0579 230.488 23.4421L236 20.1116V15.5H235.872ZM234.462 11.657C233.564 13.1942 231.641 14.7314 230.488 15.5L229.078 14.3471V9.86364C229.59 11.1446 231.001 12.1694 232.411 12.1694C233.308 12.1694 233.821 12.0413 234.462 11.657ZM232.282 21.905C231.641 20.4959 230.103 19.4711 228.565 19.4711C228.18 19.4711 227.155 19.4711 226.129 20.1116C226.77 19.0868 228.437 17.2934 230.616 16.0124L232.154 17.2934L232.282 21.905Z" fill="white"/>
</svg>
