<svg width="148" height="80" viewBox="0 0 148 80" fill="none" xmlns="http://www.w3.org/2000/svg">
<path d="M12.8162 32C12.8162 30.4 11.327 30 10.1514 30V30.24C10.8568 30.24 11.4054 30.48 11.4054 31.04C11.4054 31.36 11.1703 31.84 10.4649 31.84C9.91622 31.84 8.74054 31.52 7.87838 31.2C6.85946 30.8 5.91892 30.48 5.13514 30.48C3.56757 30.48 2.47027 31.68 2.47027 33.04C2.47027 34.24 3.33243 34.64 3.64595 34.8L3.72432 34.64C3.56757 34.48 3.33243 34.32 3.33243 33.84C3.33243 33.52 3.64595 32.96 4.42973 32.96C5.13514 32.96 6.07568 33.28 7.32973 33.68C8.42703 34 9.6027 34.24 10.2297 34.32V36.8L9.05405 37.84V37.92L10.2297 38.96V42.4C9.6027 42.8 8.8973 42.88 8.27027 42.88C7.09459 42.88 6.07568 42.56 5.21351 41.6L8.42703 40V34.48L4.50811 36.24C4.82162 35.2 5.68378 34.48 6.54595 34L6.46757 33.76C4.11622 34.4 2 36.64 2 39.36C2 42.56 4.58649 44.96 7.48649 44.96C10.6216 44.96 12.6595 42.4 12.6595 39.76H12.5027C12.0324 40.8 11.327 41.76 10.4649 42.24V38.96L11.7189 37.92V37.84L10.4649 36.8V34.32C11.6405 34.32 12.8162 33.52 12.8162 32ZM5.9973 40.8L5.05676 41.28C4.50811 40.56 4.19459 39.6 4.19459 38.24C4.19459 37.68 4.19459 37.04 4.35135 36.56L5.9973 35.84V40.8ZM14.3054 42.64L13.2865 43.44L13.4432 43.6L13.9135 43.2L15.6378 44.8L17.9892 43.2L17.9108 43.04L17.2838 43.44L16.5 42.64V37.2L17.127 36.72L18.4595 37.84V42.72C18.4595 45.76 17.8324 46.24 16.5 46.72V46.96C18.6946 47.04 20.7324 46.32 20.7324 42.4V37.12L21.4378 36.56L21.2811 36.4L20.6541 36.88L18.6946 35.2L16.5 36.88V30.32H16.3432L13.6 32.24V32.4C13.9135 32.56 14.3838 32.72 14.3838 33.6L14.3054 42.64ZM28.6486 41.76L26.6892 43.28L24.7297 41.68V40.72L28.4135 38.16V38.08L26.5324 35.2L22.4568 37.44V42.72L21.673 43.36L21.8297 43.52L22.5351 42.96L25.2 44.96L28.727 42.08L28.6486 41.76ZM24.7297 40.4V36.48L24.8865 36.4L26.6108 39.2L24.7297 40.4ZM43.6189 31.28C43.6189 31.04 43.5405 30.8 43.4622 30.56H43.3054C43.0703 31.2 42.7568 31.52 41.973 31.52C41.2676 31.52 40.7973 31.12 40.4838 30.8L38.2108 33.44L38.3676 33.6L39.1514 32.88C39.6216 33.28 40.0135 33.6 41.1108 33.68V40.32L36.4865 32.24C36.0946 31.6 35.5459 30.72 34.4487 30.72C33.1946 30.72 32.0973 31.84 32.2541 33.6H32.4892C32.5676 33.12 32.8027 32.56 33.3514 32.56C33.7432 32.56 34.1351 32.96 34.3703 33.36V36C32.9595 36 32.0189 36.64 32.0189 37.84C32.0189 38.48 32.3324 39.44 33.273 39.68V39.52C33.1162 39.36 33.0378 39.2 33.0378 38.96C33.0378 38.56 33.3514 38.24 33.9 38.24H34.2919V41.6C32.6459 41.6 31.3135 42.56 31.3135 44.16C31.3135 45.68 32.5676 46.4 33.9784 46.32V46.16C33.1162 46.08 32.7243 45.68 32.7243 45.12C32.7243 44.4 33.1946 44.08 33.8216 44.08C34.4486 44.08 34.9973 44.48 35.3892 44.96L37.6622 42.4L37.5054 42.24L36.9568 42.88C36.0946 42.08 35.6243 41.84 34.6054 41.68V33.68L40.8757 44.88H41.3459V33.68C42.5216 33.6 43.6189 32.64 43.6189 31.28ZM49.3405 41.76L47.3811 43.28L45.4216 41.68V40.72L49.1054 38.16V38.08L47.2243 35.2L43.1486 37.44V42.72L42.3649 43.36L42.5216 43.52L43.227 42.96L45.8919 44.96L49.4189 42.08L49.3405 41.76ZM45.4216 40.4V36.48L45.5784 36.4L47.3027 39.2L45.4216 40.4ZM62.1162 36.08L61.5676 36.48L60.0784 35.2L58.3541 36.8L59.0595 37.52V43.52L57.1784 42.32V37.36L57.8054 36.96L56.0027 35.2L54.2784 36.8L54.9838 37.52V43.28L54.7487 43.44L53.1027 42.24V37.44C53.1027 36.32 52.5541 36 51.927 35.6C51.3784 35.2 51.0649 34.96 51.0649 34.4C51.0649 33.92 51.5351 33.68 51.7703 33.52V33.36C51.1432 33.36 49.4973 34 49.4973 35.52C49.4973 36.32 49.8892 36.64 50.2811 37.04C50.673 37.44 51.0649 37.76 51.0649 38.48V43.12L50.2027 43.76L50.3595 43.92L51.1432 43.28L52.9459 44.88L54.9054 43.52L57.1 44.88L61.2541 42.4V37.04L62.273 36.24L62.1162 36.08ZM76.6946 31.68L75.9108 32.4L74.1865 30.8L71.6 32.72V30.96H71.3649L71.4432 43.92C71.2081 43.92 70.5027 43.76 69.9541 43.6L69.7973 32.8C69.7973 32 69.2486 30.88 67.8378 30.88C66.427 30.88 65.4865 32 65.4865 33.12H65.7216C65.8 32.64 66.0351 32.24 66.5054 32.24C66.9757 32.24 67.3676 32.56 67.3676 33.6V36.72C65.9568 36.8 65.0946 37.6 65.0946 38.64C65.0946 39.28 65.4081 40.24 66.3486 40.24V40.08C66.0351 39.92 65.9568 39.68 65.9568 39.52C65.9568 39.04 66.3487 38.88 66.9757 38.88H67.2892V43.84C66.1135 44.24 65.6432 45.12 65.6432 46.08C65.6432 47.44 66.6622 48.4 68.2297 48.4C69.327 48.4 70.2676 48.24 71.2081 48C71.9919 47.84 73.0108 47.6 73.4811 47.6C74.1081 47.6 74.3432 47.92 74.3432 48.32C74.3432 48.88 74.1081 49.12 73.7946 49.2V49.36C75.0486 49.12 75.8324 48.32 75.8324 47.12C75.8324 45.92 74.6568 45.2 73.4027 45.2C72.7757 45.2 71.4432 45.44 70.5027 45.6C69.4054 45.84 68.3081 46 67.9946 46C67.4459 46 66.8189 45.76 66.8189 44.96C66.8189 44.32 67.3676 43.76 68.7 43.76C69.4054 43.76 70.2676 43.84 71.1297 44.08C72.0703 44.32 72.9324 44.56 73.7162 44.56C74.8919 44.56 75.9108 44.16 75.9108 42.48V32.64L76.8514 31.84L76.6946 31.68ZM73.4811 36.56C73.2459 36.8 72.9324 37.04 72.5405 37.04C72.1486 37.04 71.7568 36.8 71.6 36.56V33.04L72.3838 32.48L73.4811 33.52V36.56ZM73.4811 38.96C73.3243 38.8 72.9324 38.56 72.5405 38.56C72.1486 38.56 71.7568 38.8 71.6 38.96V36.88C71.7568 37.04 72.1486 37.28 72.5405 37.28C72.9324 37.28 73.3243 37.04 73.4811 36.88V38.96ZM73.4811 42.72C73.4811 43.36 73.0892 44 72.227 44H71.6V39.28C71.7568 39.12 72.1486 38.88 72.5405 38.88C72.9324 38.88 73.2459 39.12 73.4811 39.28V42.72ZM84.2189 37.04L81.7108 35.2L77.8703 37.44V42.64L77.0865 43.28L77.1649 43.44L77.7919 42.96L80.3 44.88L84.2189 42.48V37.04ZM79.9865 42.08V36.32L81.9459 37.76V43.44L79.9865 42.08ZM91.6649 35.36H91.5081C91.273 35.52 91.0378 35.68 90.8027 35.68C90.4892 35.68 90.0973 35.52 89.9405 35.28H89.7838L88.4514 36.8L87.1189 35.28L84.7676 36.88L84.8459 37.04L85.473 36.64L86.2568 37.52V42.56L85.2378 43.36L85.3946 43.52L85.8649 43.12L87.7459 44.72L90.1757 43.04L90.0973 42.88L89.3919 43.28L88.4514 42.48V36.88C88.8432 37.28 89.3135 37.68 89.8622 37.68C90.9595 37.76 91.5865 36.64 91.6649 35.36ZM101.07 43.04L98.4054 44.88L94.8 39.28L97.3865 35.2H97.5432C97.8568 35.52 98.327 35.84 98.8757 35.84C99.4243 35.84 99.8162 35.52 100.051 35.2H100.208C100.13 36.8 99.0324 37.76 98.2487 37.76C97.4649 37.76 97.073 37.36 96.6027 37.12L96.3676 37.52L100.286 43.44L101.07 42.96V43.04ZM92.4487 42.64L91.4297 43.44L91.5865 43.6L92.0568 43.2L93.7811 44.8L96.1324 43.2L95.9757 43.04L95.3486 43.44L94.5649 42.64V30.32H94.4865L91.6649 32.24V32.4C91.9784 32.56 92.4487 32.64 92.4487 33.6V42.64ZM114.081 32C114.081 30.4 112.592 30 111.416 30V30.24C112.122 30.24 112.67 30.48 112.67 31.04C112.67 31.36 112.435 31.84 111.73 31.84C111.181 31.84 110.005 31.52 109.143 31.2C108.124 30.88 107.184 30.56 106.4 30.56C104.832 30.56 103.735 31.76 103.735 33.12C103.735 34.32 104.597 34.72 104.911 34.88L104.989 34.72C104.754 34.56 104.519 34.4 104.519 33.92C104.519 33.6 104.832 33.04 105.616 33.04C106.322 33.04 107.262 33.36 108.516 33.76C109.614 34.08 110.789 34.32 111.416 34.4V36.88L110.241 37.92V38L111.416 39.04V42.48C110.789 42.88 110.084 42.96 109.457 42.96C108.281 42.96 107.262 42.64 106.4 41.68L109.614 40.08V34.48L105.695 36.24C106.086 35.2 106.949 34.48 107.732 33.92L107.654 33.76C105.303 34.4 103.186 36.56 103.186 39.28C103.186 42.48 105.773 44.88 108.673 44.88C111.808 44.88 113.846 42.32 113.846 39.68H113.689C113.219 40.72 112.514 41.68 111.651 42.16V38.88L112.905 37.84V37.76L111.73 36.72V34.32C112.905 34.32 114.081 33.52 114.081 32ZM107.262 40.8L106.322 41.28C105.773 40.56 105.459 39.6 105.459 38.24C105.459 37.68 105.538 37.04 105.695 36.56L107.341 35.84L107.262 40.8ZM116.824 31.2H116.746L115.178 32.56V32.64L116.511 34.16H116.668L118.235 32.8V32.72L116.824 31.2ZM119.176 43.04L118.549 43.44L117.765 42.64V37.12L118.549 36.56L118.392 36.4L117.843 36.88L116.432 35.2L114.159 36.8L114.316 37.04L114.865 36.64L115.57 37.52V42.72L114.551 43.52L114.63 43.68L115.178 43.28L116.903 44.88L119.254 43.28L119.176 43.04ZM132.265 42.96L131.716 43.36L130.854 42.56V37.12L131.638 36.48L131.481 36.32L130.854 36.88L129.051 35.2L126.7 36.88L124.897 35.2L122.703 36.88L121.292 35.2L119.019 36.8L119.097 37.04L119.646 36.64L120.43 37.52V42.72L119.803 43.36L121.605 44.88L123.33 43.28L122.624 42.56V37.12L123.33 36.64L124.505 37.76V42.56L123.878 43.2L125.681 44.72L127.405 43.12L126.7 42.4V37.12L127.327 36.72L128.581 37.84V42.64L128.032 43.2L129.835 44.88L132.265 43.2V42.96ZM139.084 41.76L137.124 43.28L135.165 41.68V40.72L138.849 38.16V38.08L136.968 35.2L132.892 37.44V42.88L135.635 44.88L139.162 42L139.084 41.76ZM135.165 40.4V36.48L135.322 36.4L137.046 39.2L135.165 40.4ZM146.216 39.68L144.727 38.48C145.746 37.6 146.138 36.4 146.138 35.6V35.12H145.981C145.824 35.52 145.511 35.92 144.884 35.92C144.257 35.92 143.865 35.6 143.473 35.12L139.946 37.12V40L141.278 41.04C139.946 42.24 139.711 43.04 139.711 43.68C139.711 44.48 140.103 45.04 140.73 45.28L140.808 45.12C140.651 44.96 140.495 44.88 140.495 44.48C140.495 44.24 140.808 43.84 141.435 43.84C142.219 43.84 142.689 44.4 142.924 44.64L146.295 42.56V39.68H146.216ZM145.354 37.28C144.805 38.24 143.63 39.2 142.924 39.68L142.062 38.96V36.16C142.376 36.96 143.238 37.6 144.1 37.6C144.649 37.6 144.962 37.52 145.354 37.28ZM144.022 43.68C143.63 42.8 142.689 42.16 141.749 42.16C141.514 42.16 140.886 42.16 140.259 42.56C140.651 41.92 141.67 40.8 143.003 40L143.943 40.8L144.022 43.68Z" fill="black"/>
</svg>
