<svg width="148" height="80" viewBox="0 0 148 80" fill="none" xmlns="http://www.w3.org/2000/svg">
<g clip-path="url(#clip0_1806_3)">
<path d="M114.299 33.3573C113.222 32.4241 112.086 31.7262 110.888 31.2585C109.69 30.793 108.43 30.5602 107.111 30.5602C104.555 30.5602 102.477 31.3956 100.875 33.0638C99.272 34.732 98.4718 36.8939 98.4718 39.5489C98.4718 42.1178 99.2513 44.2354 100.811 45.9058C102.37 47.574 104.338 48.4072 106.711 48.4072C108.097 48.4072 109.414 48.1583 110.664 47.6602C111.915 47.1621 113.117 46.4084 114.267 45.401V49.7729C113.245 50.5199 112.132 51.0806 110.929 51.4483C109.724 51.8159 108.421 51.9996 107.015 51.9996C105.227 51.9996 103.572 51.7016 102.056 51.106C100.538 50.5105 99.2053 49.6331 98.0552 48.472C96.9166 47.3341 96.0387 45.9938 95.4285 44.4512C94.8157 42.9063 94.5093 41.2609 94.5093 39.5159C94.5093 37.7708 94.8157 36.1326 95.4285 34.5993C96.0391 33.066 96.9258 31.7186 98.0872 30.5597C99.2487 29.3892 100.579 28.5029 102.079 27.9024C103.581 27.3002 105.204 27 106.951 27C108.325 27 109.635 27.2024 110.881 27.6098C112.127 28.0173 113.334 28.6311 114.507 29.4549L114.299 33.3573Z" fill="#CF1C23"/>
<path d="M79.0775 30.8537V51.3674H75.2758V30.8533H69.0642V27.5701H85.2597V30.8533L79.0775 30.8537Z" fill="#CF1C23"/>
<path d="M48.7784 51.3674V27.5701H52.578V47.9046H61.0757V51.3669L48.7784 51.3674Z" fill="#CF1C23"/>
<path d="M4.99999 27.568V51.3672H8.56134V40.687H10.7501C12.4537 40.687 13.7066 40.5959 14.5112 40.4096C15.3158 40.2255 16.0151 39.9189 16.6117 39.4837C17.3456 38.9414 17.9196 38.1942 18.3357 37.2404C18.7519 36.2888 18.9573 35.2463 18.9573 34.12C18.9573 32.9938 18.7519 31.961 18.3357 31.0233C17.9196 30.0856 17.3456 29.3418 16.6117 28.7878C16.0151 28.3549 15.3158 28.0427 14.5112 27.8542C13.7062 27.6634 12.4532 27.568 10.7501 27.568L4.99999 27.568ZM8.8014 30.8864H9.77618C11.7879 30.8864 13.1682 31.1443 13.9179 31.6656C14.6703 32.1843 15.0453 33.0804 15.0453 34.3488C15.0453 35.5282 14.6935 36.3521 13.9917 36.8199C13.2898 37.2849 11.884 37.5179 9.77618 37.5179H8.8014V30.8864Z" fill="#CF1C23"/>
<path d="M32.9002 27C29.5847 27 26.405 28.315 24.0606 30.6558C21.7161 32.9966 20.399 36.1715 20.3989 39.4819C20.399 42.7924 21.7161 45.9672 24.0606 48.308C26.405 50.6488 29.5847 51.9638 32.9002 51.9638C36.2156 51.9637 39.3952 50.6486 41.7396 48.3078C44.0839 45.967 45.401 42.7923 45.4011 39.4819C45.401 36.1715 44.0839 32.9968 41.7396 30.656C39.3952 28.3152 36.2156 27.0001 32.9002 27ZM32.9002 30.5749C34.0213 30.5749 35.1315 30.8052 36.1672 31.2528C37.203 31.7005 38.1441 32.3566 38.9369 33.1837C39.7297 34.0108 40.3585 34.9928 40.7875 36.0735C41.2166 37.1543 41.4374 38.3126 41.4374 39.4824C41.4374 40.6521 41.2166 41.8105 40.7875 42.8912C40.3585 43.9719 39.7297 44.9539 38.9369 45.781C38.1441 46.6081 37.203 47.2642 36.1672 47.7119C35.1315 48.1595 34.0213 48.3898 32.9002 48.3898C31.7791 48.3898 30.669 48.1595 29.6332 47.7119C28.5975 47.2642 27.6563 46.6081 26.8636 45.781C26.0708 44.9539 25.442 43.9719 25.0129 42.8912C24.5839 41.8105 24.3631 40.6521 24.3631 39.4824C24.3631 38.3126 24.5839 37.1543 25.0129 36.0735C25.442 34.9928 26.0708 34.0108 26.8636 33.1837C27.6563 32.3566 28.5975 31.7005 29.6332 31.2528C30.669 30.8052 31.7791 30.5749 32.9002 30.5749Z" fill="#CF1C23"/>
<path d="M129.676 27C126.36 27 123.18 28.315 120.836 30.6558C118.491 32.9966 117.174 36.1715 117.174 39.4819C117.174 42.7924 118.491 45.9672 120.836 48.308C123.18 50.6488 126.36 51.9638 129.676 51.9638C132.991 51.9637 136.171 50.6486 138.515 48.3078C140.859 45.967 142.176 42.7923 142.176 39.4819C142.176 36.1715 140.859 32.9968 138.515 30.656C136.171 28.3152 132.991 27.0001 129.676 27ZM129.676 30.5749C130.797 30.5749 131.907 30.8052 132.943 31.2528C133.978 31.7005 134.919 32.3566 135.712 33.1837C136.505 34.0108 137.134 34.9928 137.563 36.0735C137.992 37.1543 138.213 38.3126 138.213 39.4824C138.213 40.6521 137.992 41.8105 137.563 42.8912C137.134 43.9719 136.505 44.9539 135.712 45.781C134.919 46.6081 133.978 47.2642 132.943 47.7119C131.907 48.1595 130.797 48.3898 129.676 48.3898C128.554 48.3898 127.444 48.1595 126.409 47.7119C125.373 47.2642 124.432 46.6081 123.639 45.781C122.846 44.9539 122.217 43.9719 121.788 42.8912C121.359 41.8105 121.138 40.6521 121.138 39.4824C121.138 38.3126 121.359 37.1543 121.788 36.0735C122.217 34.9928 122.846 34.0108 123.639 33.1837C124.432 32.3566 125.373 31.7005 126.409 31.2528C127.444 30.8052 128.554 30.5749 129.676 30.5749Z" fill="#CF1C23"/>
<path d="M67.0419 27.5705H63.2402V51.3674H67.0419V27.5705Z" fill="#CF1C23"/>
<path d="M91.0482 27.5705H87.2464V51.3674H91.0482V27.5705Z" fill="#CF1C23"/>
</g>
<defs>
<clipPath id="clip0_1806_3">
<rect width="137" height="25" fill="white" transform="translate(5 27)"/>
</clipPath>
</defs>
</svg>
