<svg width="137" height="22" viewBox="0 0 137 22" fill="none" xmlns="http://www.w3.org/2000/svg">
<g clip-path="url(#clip0_1_41)">
<path d="M7.8519 6.94589V14.5967C8.85292 14.0384 9.55389 13.0665 9.89418 11.9704L9.97436 12.012C9.75392 14.7415 7.95191 17.4708 5.14859 17.4708C2.32515 17.4708 0.24263 15.2998 0.24263 11.8256C0.24263 9.22045 1.88456 7.58664 3.9872 6.11845C3.67997 6.03522 3.36358 5.99352 3.04595 5.99439C1.60405 5.99439 0.763112 7.00761 0.763112 8.04161H0.642978C0.622857 7.89678 0.622857 7.75225 0.622857 7.60742C0.622857 5.76706 1.5641 3.53375 3.84694 3.53375C5.30867 3.53375 6.43012 4.91914 8.13211 4.91914C8.81297 4.91914 9.65391 4.58822 9.99419 3.82311H10.0543C10.0344 5.16756 9.63408 6.55295 7.8519 6.94589ZM8.93311 14.7828C7.93179 15.8785 6.85059 16.8092 5.44893 16.8092C2.84593 16.8092 0.843595 14.7 0.843595 11.6395C0.843595 9.84072 1.5644 8.86906 2.36539 7.73147H2.2852C1.78455 8.24847 0.463073 9.55106 0.463073 11.7636C0.463073 15.1549 2.52547 17.2434 5.22878 17.2434C7.11098 17.2434 8.3925 15.8996 8.97335 14.8036L8.93311 14.7828ZM9.7338 4.75414C9.39352 5.41567 8.67272 6.26328 7.21099 6.26328C5.74926 6.26328 4.40767 5.22928 3.22615 5.22928C2.14465 5.22928 1.40402 5.97392 1.12351 6.53217L1.14363 6.57372C1.52416 6.18078 2.10471 5.78783 3.04595 5.78783C4.60769 5.78783 5.60901 6.78058 7.19087 6.78058C8.87304 6.78058 9.63379 5.643 9.77404 4.77492L9.7338 4.75414ZM4.1671 6.18078C3.14596 7.27681 2.20472 8.47611 2.20472 10.8127C2.20472 12.0945 2.62519 13.4179 3.56643 14.245L4.14698 13.9346V8.39331L3.60638 8.68267L3.50637 8.47581L6.30969 6.90403C5.54894 6.73903 4.86808 6.38764 4.1671 6.18078ZM7.63146 6.98714C7.4912 7.00761 7.35124 7.00761 7.19087 7.00761C6.91065 7.00761 6.65026 6.98714 6.38988 6.92481V12.9626L3.76676 14.4314C4.30736 14.8448 4.96809 15.0929 5.80903 15.0929C6.48989 15.0929 7.09056 14.9481 7.63116 14.7L7.63146 6.98714ZM4.74795 8.04192L4.36742 8.26925V13.8111L4.74795 13.6043V8.04192ZM16.2619 8.8275V15.9821C16.2619 17.967 14.5599 19.3114 12.6576 19.7041L12.6176 19.6213C13.5589 19.1455 14.0995 18.1738 14.0995 17.1398V9.73714L13.0182 8.72422L12.5978 9.19967V14.9689L13.1985 15.5271V15.5687L11.5766 17.3883L9.71457 15.6307V15.5479L10.4354 14.762V5.62253L12.5578 3.28625L12.5978 3.30672V8.84828L14.34 6.90464L16.1621 8.60047L16.5024 8.228L16.6628 8.37314L16.2619 8.8275ZM10.6552 15.5891V15.5479L11.0757 15.1134V5.27083L10.6552 5.72611V14.9068L10.0143 15.5687V15.6099L11.5761 17.0573L11.8563 16.7264L10.6552 15.5891ZM14.7401 9.40622L13.4384 8.24847L13.1582 8.55861L14.3196 9.63417V17.0781C14.3196 17.5743 14.2196 18.091 14.0394 18.3807L14.0595 18.4015C14.5602 18.029 14.7404 17.4708 14.7404 16.7472V9.40622H14.7401ZM19.4457 12.9837V14.0381L21.388 15.6096L22.5094 14.3691L22.6698 14.5344L20.0668 17.4084L17.4236 15.2167L17.0232 15.6509L16.8628 15.4856L17.3235 14.9893V9.75792L21.1081 6.90434L23.0906 10.2129L19.4457 12.9837ZM17.9639 14.8036V9.55106L17.5434 9.8615V15.0104L20.0266 17.0989L20.347 16.7475L17.9639 14.8036ZM19.486 8.43456L19.4457 8.45533V12.6943L21.2279 11.3502L19.486 8.43456ZM20.0064 8.02114L19.646 8.28972L21.4084 11.2053L21.7688 10.9364L20.0064 8.02114ZM36.1428 17.3879L33.3593 14.9065L31.2369 17.3879L28.3534 14.8237V10.7711H27.7927C27.292 10.7711 27.0319 11.1021 26.9115 11.4947H26.8514C26.7875 11.238 26.7539 10.9742 26.7514 10.7091C26.7514 10.1713 26.8916 8.76547 28.3534 8.76547V5.20881C28.3534 4.5265 27.5725 4.25761 27.5725 3.34767C27.5725 2.16945 28.6537 1.01139 30.6362 0.287224L30.7164 0.349252C29.9956 0.783752 29.6151 1.19717 29.6151 2.08633C29.6151 3.45125 30.8966 3.09956 30.8966 5.25006V6.0772L33.2395 3.53375L35.7025 6.03564L38.0253 3.53375L40.2679 5.80831V13.4591L36.1428 17.3879ZM28.9943 14.4931V10.1304H27.8728C27.292 10.1304 27.0319 10.523 26.9917 10.8747L27.0115 10.8955C27.2118 10.6682 27.4121 10.5441 27.8725 10.5441H28.5732V14.7211L31.2165 17.0784L31.5168 16.7059L28.9943 14.4931ZM28.9943 5.00195C28.9943 4.15434 28.2735 3.86467 28.2735 3.3272C28.2735 2.58256 28.5537 1.96258 28.9943 1.38356L28.9543 1.36308C28.3537 1.83883 27.7929 2.60395 27.7929 3.34797C27.7929 4.09261 28.5738 4.444 28.5738 5.10583V8.76578H28.9943V5.00195ZM33.2194 7.06995L31.6976 5.53972L30.8966 6.38733V13.7072L32.7187 15.2995L33.2194 14.7204V7.06995ZM33.86 14.4519V6.78058L32.158 5.0435L31.8376 5.37442L33.4395 6.96636V14.6792L36.1428 17.0986L36.4633 16.7881L33.86 14.4519ZM37.7448 6.80106L36.4834 5.5602L35.7626 6.32531V13.6868L37.725 15.4648L37.7448 15.4443V6.80106ZM38.3854 6.5117L36.9237 5.0435L36.6234 5.37442L37.965 6.69778V15.341L38.3854 14.9273V6.5117ZM46.8939 17.3879L44.9916 15.6096L43.2896 17.3879L41.2071 15.4856L40.9266 15.7957L40.7665 15.6304L41.1269 15.2374V9.6962L44.8916 6.88386L47.0543 8.62095L47.4348 8.20722L47.5952 8.37284L47.1546 8.84828V14.5762L48.2157 15.5891L48.5563 15.217L48.7164 15.3618L46.8939 17.3879ZM41.7678 15.0929V9.50981L41.3474 9.81995V15.2998L43.2698 17.0781L43.5903 16.7472L41.7678 15.0929ZM44.9916 9.65464L43.3497 8.33128L43.2896 8.37284V14.3898L44.6513 15.6096L44.9916 15.2582V9.65464ZM45.6325 15.279V9.3445L43.9305 7.91756L43.5302 8.20692L45.2121 9.57183V15.4856L46.8942 17.057L47.1946 16.7261L45.6325 15.279ZM52.721 10.6471H54.7834V15.0721L51.5996 17.3879C51.1791 16.8917 50.5781 16.5403 49.8375 16.5403C49.2368 16.5403 48.756 16.7472 48.1154 17.3054L48.0154 17.2639L50.7388 13.1698H49.0566V9.32372L52.4009 6.92511C52.8012 7.25603 53.1015 7.44181 53.6223 7.44181C54.023 7.44181 54.6035 7.359 55.0441 6.98714L55.1243 7.02839L52.721 10.6471ZM50.4784 15.9405C49.8976 15.9405 49.4372 16.1474 49.0365 16.4368V16.4783C49.357 16.3335 49.6774 16.2922 49.9778 16.2922C50.4382 16.2922 51.1593 16.5199 51.6398 17.0989L52.1005 16.7475C51.7197 16.2922 51.2593 15.9405 50.4784 15.9405ZM52.6207 12.4667H51.4993L49.1564 15.9616L49.1765 16.0029C49.757 15.5687 50.3178 15.2793 50.9986 15.2793C51.5993 15.2793 52.2201 15.5687 52.6006 16.0649L52.6207 16.0444V12.4667ZM49.6973 12.4667V9.13795L49.2768 9.44808V12.9219H50.8986L51.2191 12.467L49.6973 12.4667ZM53.8824 8.41378C53.4619 8.72422 53.2217 8.88953 52.5207 8.88953C52.1201 8.88953 51.6395 8.70345 51.2593 8.28972L51.2193 8.3105V11.3294H51.9801L53.9025 8.43425L53.8824 8.41378ZM52.9213 8.2277C52.5609 8.2277 52.1005 8.04192 51.7999 7.6282L51.2992 7.97958C51.6798 8.45533 52.0402 8.66189 52.6006 8.66189C52.961 8.66189 53.4818 8.55831 54.0224 8.08256L54.0422 8.02083C53.7022 8.16597 53.2817 8.2277 52.9213 8.2277ZM53.2616 11.7847H51.96L51.6596 12.2189H52.8412V16.2302L53.2616 15.9201V11.7847ZM61.6917 8.8275V15.9821C61.6917 17.967 59.9897 19.3114 58.0874 19.7041L58.0475 19.6213C58.9887 19.1455 59.5293 18.1738 59.5293 17.1398V9.73714L58.4481 8.72422L58.0276 9.19967V14.9689L58.6283 15.5271V15.5687L57.0065 17.3883L55.1444 15.6307V15.5479L55.8652 14.762V5.62253L57.9877 3.28625L58.0276 3.30672V8.84828L59.7699 6.90464L61.592 8.60047L61.9323 8.228L62.0927 8.37314L61.6917 8.8275ZM56.0851 15.5891V15.5479L56.5055 15.1134V5.27083L56.0851 5.72581V14.9065L55.4442 15.5684V15.6096L57.0059 17.057L57.2861 16.7261L56.0851 15.5891ZM60.1699 9.40622L58.8683 8.24847L58.5881 8.55861L59.7495 9.63417V17.0781C59.7495 17.5743 59.6494 18.091 59.4692 18.3807L59.4894 18.4015C59.99 18.029 60.1702 17.4708 60.1702 16.7472L60.1699 9.40622ZM65.3363 17.3879L63.6142 15.7544L63.2135 16.1886L63.0531 16.023L63.5138 15.5063V9.53058L62.6729 8.70345L62.3524 9.07592L62.1921 8.91031L63.9941 6.88386L65.5961 8.37284L65.9967 7.91786L66.1769 8.0627L65.6763 8.62095V14.659L66.6376 15.5894L67.0782 15.1137L67.2383 15.2793L65.3363 17.3879ZM64.1548 15.3618V9.19967L63.1135 8.20722L62.8333 8.53814L63.7343 9.42731V15.5687L65.3363 17.0573L65.6366 16.7264L64.1548 15.3618ZM64.7554 6.71856L63.1135 5.16786L64.6155 3.51358L66.2574 5.06428L64.7554 6.71856ZM63.7343 4.83664L63.4339 5.14678L64.7353 6.40811L65.0356 6.05672L63.7343 4.83664ZM73.8033 17.3879L72.0611 15.7544V9.71667L70.9997 8.72422L70.439 9.3445V14.9273L71.0598 15.5268V15.6096L69.4179 17.3879L67.5555 15.6304V15.5684L68.2766 14.7828V9.57183L67.3353 8.68267L66.9548 9.11686L66.7947 8.95156L68.6169 6.90434L70.439 8.57939V8.99281L72.3413 6.90434L74.1232 8.55861L74.5238 8.12442L74.704 8.28972L74.2235 8.80672V14.7204L75.1245 15.5888L75.5651 15.0926L75.7252 15.2579L73.8033 17.3879ZM68.5169 15.5891V15.5479C68.5169 15.5891 68.9175 15.1342 68.9175 15.1342V9.26139L67.7759 8.18614L67.4954 8.49628L68.4967 9.44747V14.9062L67.8759 15.5681V15.6093L69.4179 17.0567L69.738 16.7053L68.5169 15.5891ZM72.7017 15.4238V9.36528L71.4604 8.20722L71.14 8.55861L72.2812 9.61308V15.6304L73.7829 17.0778L74.1034 16.7261L72.7017 15.4238ZM79.4499 21.1099C78.7895 20.3656 78.3288 20.0554 77.708 20.0554C77.0472 20.0554 76.2862 20.3243 75.5053 20.7585L75.4453 20.6968L78.2086 17.3883L76.2463 15.7755L75.8657 16.1893L75.7057 16.0444L76.146 15.5482V9.6962L79.9506 6.88386L82.0731 8.62095L82.4337 8.20722L82.5938 8.37284L82.1734 8.84828V15.9204C82.1734 16.9956 82.7539 16.9544 82.7539 17.7604C82.7539 18.6908 81.4523 19.5592 79.4499 21.1099ZM76.7869 15.3823V9.53058L76.3664 9.84103V15.5687L78.3486 17.2229L78.6492 16.8505L76.7869 15.3823ZM78.1885 19.518C77.5278 19.518 76.9268 19.7248 76.3664 20.1175V20.159C76.7268 20.0142 77.1271 19.8281 77.808 19.8281C78.4288 19.8281 78.9493 20.1795 79.4701 20.8001L79.8707 20.4692C79.3697 19.8697 78.7691 19.518 78.1885 19.518ZM80.6314 17.5328C80.1311 17.2019 80.0107 16.8505 80.0107 15.9613V15.5888L76.6866 19.5589L76.7067 19.5794C77.3473 19.1868 77.9281 18.8974 78.8694 18.8974C79.6704 18.8974 80.211 19.228 80.8318 19.7658C81.2123 19.4349 81.4724 19.1043 81.4724 18.5873C81.4724 18.1738 81.1318 17.8637 80.6314 17.5328ZM80.0107 9.65464L78.3486 8.31081L78.3084 8.35206V14.7L79.5902 15.734L80.0107 15.2378V9.65464ZM81.2321 17.2434C80.7113 16.8297 80.6513 16.4783 80.6513 15.5891V9.30325L78.9691 7.89708L78.5889 8.16597L80.2308 9.50981V15.8785C80.2308 16.7677 80.271 17.0161 80.8116 17.3879C81.2922 17.7189 81.6724 18.0703 81.6724 18.546C81.6724 18.6698 81.6526 18.8766 81.6526 18.8766L81.6724 18.8974C81.7727 18.7938 81.8928 18.6285 81.8928 18.3596C81.8931 17.9049 81.6727 17.5948 81.2321 17.2434ZM86.0381 17.3879L84.1958 15.8993L83.8153 16.3335L83.6552 16.1679L84.0955 15.6716V8.43456H82.9341L82.8939 8.39331L83.5948 7.31775H84.0952V5.93267L86.218 3.59609L86.2579 3.63764V7.31806H87.8599L87.9001 7.35961L87.1992 8.43486H86.2579V14.7003L87.3595 15.569L87.78 15.0932L87.9401 15.2585L86.0381 17.3879ZM84.7364 5.58097L84.3159 6.05672V7.31806H84.7364V5.58097ZM84.7364 15.4651V8.43456H84.3159V15.7132L86.0179 17.0781L86.3183 16.7472L84.7364 15.4651ZM94.488 9.03436V14.824L91.1038 17.4087L88.5606 15.4238L88.2602 15.7752L88.1002 15.6096L88.4606 15.1962V9.53058L92.0051 6.90434L94.3678 8.80703L94.7481 8.39331L94.9084 8.55861L94.488 9.03436ZM89.1018 14.9896V9.3445L88.681 9.65464V15.217L91.084 17.1194L91.4645 16.83L89.1018 14.9896ZM92.3256 9.71667L90.6434 8.35175L90.6236 8.37253V14.5344L92.3256 15.8577V9.71667ZM92.9665 9.3445L91.1041 7.85553L90.7239 8.14489L92.546 9.59231V16.0233L92.9665 15.6927V9.3445ZM102.137 17.3879L100.395 15.7544V9.71667L99.3339 8.72422L98.7731 9.3445V14.9273L99.3939 15.5268V15.6096L97.752 17.3879L95.8896 15.6304V15.5684L96.6107 14.7828V9.57183L95.6695 8.68267L95.289 9.11686L95.1289 8.95156L96.951 6.90434L98.7731 8.57939V8.99281L100.675 6.90434L102.458 8.55861L102.858 8.12442L103.038 8.28972L102.558 8.80672V14.7204L103.459 15.5888L103.899 15.0926L104.059 15.2579L102.137 17.3879ZM96.8507 15.5891V15.5479C96.8507 15.5891 97.2514 15.1342 97.2514 15.1342V9.26139L96.1101 8.18614L95.8299 8.49628L96.8312 9.44747V14.9062L96.2104 15.5681V15.6093L97.7523 17.0567L98.0728 16.7053L96.8507 15.5891ZM101.036 15.4238V9.36528L99.7946 8.20722L99.4741 8.55861L100.615 9.61308V15.6304L102.117 17.0778L102.438 16.7261L101.036 15.4238ZM114.508 17.3879C113.947 16.7677 113.747 16.5608 113.086 16.3747V20.4276L113.046 20.4481L112.245 19.7034L109.922 21.916L109.882 21.8955V16.3335C109.181 16.4988 108.44 16.8713 107.719 17.6153L107.679 17.5948C107.819 16.0026 108.58 14.824 109.881 14.3691V10.3369H109.461C108.88 10.3369 108.56 10.6471 108.28 11.2053H108.22C108.16 11.0196 108.119 10.7296 108.119 10.2544C108.119 9.38575 108.74 8.47611 109.762 8.47611H109.881V6.24281L109.061 5.4777L108.66 5.89142L108.52 5.74658L110.542 3.53406L112.424 5.31239V7.194L112.865 6.69778V4.31964H113.085V6.49092L115.748 3.53375L118.011 5.66378V14.6587L114.508 17.3879ZM109.882 15.5684C109.061 15.7337 108.481 16.2507 108.1 16.933L108.12 16.9745C108.681 16.4783 109.201 16.251 109.882 16.0854V15.5684ZM110.523 9.63417H109.422C108.661 9.63417 108.36 10.1304 108.341 10.7094L108.36 10.7299C108.601 10.3162 108.841 10.1716 109.322 10.1099H110.103V21.3791L110.523 20.9654V9.63417ZM110.523 5.91189L109.522 4.961L109.201 5.31239L110.103 6.13922V8.47581H110.523V5.91189ZM112.866 7.09042L112.426 7.56617V19.5388L112.866 19.9525V7.09042ZM115.489 6.61497L114.308 5.49847L113.086 6.86339V14.1417C114.128 14.2453 114.848 14.5554 115.469 15.2582L115.489 15.2378V6.61497ZM113.086 15.5684V16.1061C113.767 16.2714 114.047 16.4783 114.528 17.057L114.989 16.6849C114.508 16.0646 114.027 15.6927 113.086 15.5684ZM116.13 6.28436L114.768 4.98147L114.448 5.33286L115.709 6.53217V16.1474L116.13 15.8165V6.28436ZM125.001 9.03436V14.824L121.616 17.4087L119.073 15.4238L118.772 15.7752L118.612 15.6096L118.973 15.1962V9.53058L122.517 6.90434L124.88 8.80703L125.26 8.39331L125.421 8.55861L125.001 9.03436ZM119.614 14.9896V9.3445L119.193 9.65464V15.217L121.596 17.1194L121.977 16.83L119.614 14.9896ZM122.838 9.71667L121.156 8.35175L121.136 8.37253V14.5344L122.838 15.8577V9.71667ZM123.479 9.3445L121.616 7.85553L121.236 8.14489L123.058 9.59231V16.0233L123.479 15.6927V9.3445ZM129.646 10.6471H131.708V15.0721L128.525 17.3879C128.104 16.8917 127.503 16.5403 126.763 16.5403C126.162 16.5403 125.681 16.7472 125.04 17.3054L124.94 17.2639L127.664 13.1698H125.981V9.32372L129.326 6.92511C129.726 7.25603 130.026 7.44181 130.547 7.44181C130.948 7.44181 131.528 7.359 131.969 6.98714L132.049 7.02839L129.646 10.6471ZM127.403 15.9405C126.823 15.9405 126.362 16.1474 125.962 16.4368V16.4783C126.282 16.3335 126.602 16.2922 126.903 16.2922C127.364 16.2922 128.084 16.5199 128.565 17.0989L129.025 16.7475C128.645 16.2922 128.184 15.9405 127.403 15.9405ZM129.546 12.4667H128.425L126.082 15.9616L126.102 16.0029C126.682 15.5687 127.243 15.2793 127.924 15.2793C128.525 15.2793 129.145 15.5687 129.526 16.0649L129.546 16.0444L129.546 12.4667ZM126.623 12.4667V9.13795L126.202 9.44808V12.9219H127.824L128.144 12.467L126.623 12.4667ZM130.807 8.41378C130.387 8.72422 130.147 8.88953 129.445 8.88953C129.045 8.88953 128.564 8.70345 128.184 8.28972L128.144 8.3105V11.3294H128.905L130.827 8.43425L130.807 8.41378ZM129.846 8.2277C129.486 8.2277 129.025 8.04192 128.725 7.6282L128.224 7.97958C128.605 8.45533 128.965 8.66189 129.526 8.66189C129.886 8.66189 130.407 8.55831 130.948 8.08256L130.968 8.02083C130.627 8.16597 130.207 8.2277 129.846 8.2277ZM130.187 11.7847H128.885L128.585 12.2189H129.766V16.2302L130.187 15.9201V11.7847ZM135.033 17.3879L133.19 15.8993L132.81 16.3335L132.65 16.1679L133.09 15.6716V8.43456H131.929L131.889 8.39331L132.589 7.31775H133.09V5.93267L135.212 3.59609L135.253 3.63764V7.31806H136.854L136.895 7.35961L136.194 8.43486H135.253V14.7003L136.354 15.569L136.775 15.0932L136.935 15.2585L135.033 17.3879ZM133.731 5.58097L133.31 6.05672V7.31806H133.731V5.58097ZM133.731 15.4651V8.43456H133.31V15.7132L135.012 17.0781L135.313 16.7472L133.731 15.4651Z" fill="white"/>
</g>
<defs>
<clipPath id="clip0_1_41">
<rect width="137" height="22" fill="white"/>
</clipPath>
</defs>
</svg>
