<svg width="148" height="80" viewBox="0 0 148 80" fill="none" xmlns="http://www.w3.org/2000/svg">
<g clip-path="url(#clip0_1806_3)">
<path d="M5 53.9998H142V25.9991H5V53.9998Z" fill="#0F75BF"/>
<path d="M17.2295 48.1262C19.3541 48.0642 19.9611 47.754 19.9611 46.8856V31.8736H19.5969C17.7758 31.8736 16.3796 33.7966 14.4979 37.3324L14.1336 37.2704L14.255 31.4394H29.6129L29.7343 37.2704L29.3701 37.3324C27.549 33.7965 26.1528 31.8736 24.271 31.8736H23.9068V46.8856C23.9068 47.754 24.5138 48.0642 26.6384 48.1262V48.4984H17.2294L17.2295 48.1262ZM30.4019 48.1262C32.3445 48.0642 32.8301 47.754 32.8301 46.8856V33.0525C32.8301 32.184 32.3445 31.8739 30.4019 31.8118V31.4396H39.0825V31.7498C37.5649 31.8118 36.8364 32.122 36.8364 32.9904V39.3797H43.0888V33.0525C43.0888 32.122 42.3604 31.8739 40.8428 31.8118V31.4396H49.5234V31.7498C47.5808 31.8118 47.0952 32.122 47.0952 32.9904V46.8235C47.0952 47.692 47.5201 48.0021 49.5234 48.0642V48.4364H40.8428V48.0642C42.3604 48.0022 43.0888 47.754 43.0888 46.8235V39.8762H36.8364V46.8858C36.8364 47.8163 37.5649 48.0644 39.0825 48.1264V48.4986H30.4019V48.1262ZM50.1914 48.1262C52.1339 48.0642 52.6195 47.754 52.6195 46.8856V33.0525C52.6195 32.184 52.1339 31.8739 50.1914 31.8118V31.4396H64.8817L64.9424 37.4567L64.5782 37.5187C62.6964 33.4866 61.9073 31.8738 58.8721 31.8738H56.6261V39.4417H57.4152C59.297 39.4417 60.4504 38.5112 61.1181 36.154H61.4216V43.2259H61.1181C60.4504 40.8066 59.297 39.8761 57.4152 39.8761H56.6261V48.0646H58.69C62.2715 48.0646 63.2427 46.5759 65.1852 42.1095L65.5494 42.1715L65.428 48.5608H50.1914L50.1914 48.1262ZM73.3801 48.1262C75.3226 48.0642 75.8082 47.754 75.8082 46.8856V33.0525C75.8082 32.184 75.3226 31.8739 73.3801 31.8118V31.4396H82.0606V31.7498C80.5431 31.8118 79.8146 32.122 79.8146 32.9904V39.3797H86.067V33.0525C86.067 32.122 85.3386 31.8739 83.821 31.8118V31.4396H92.5015V31.7498C90.5591 31.8118 90.0734 32.122 90.0734 32.9904V46.8235C90.0734 47.692 90.4983 48.0021 92.5015 48.0642V48.4364H83.821V48.0642C85.3386 48.0022 86.067 47.754 86.067 46.8235V39.8762H79.8146V46.8858C79.8146 47.8163 80.5431 48.0644 82.0606 48.1264V48.4986H73.3801V48.1262ZM93.1696 48.1262C95.1728 48.0642 95.6584 47.754 95.6584 46.8856V33.0525C95.6584 32.184 95.1728 31.8739 93.1696 31.8118V31.4396H102.153V31.7498C100.15 31.8118 99.6646 32.184 99.6646 32.9904V46.8235C99.6646 47.692 100.15 48.0021 102.153 48.0642V48.4364H93.1696V48.1262ZM102.761 48.1262C104.703 48.0642 105.189 47.754 105.189 46.8856V33.0525C105.189 32.184 104.703 31.8739 102.761 31.8118V31.4396H111.562V31.7498C109.559 31.8118 109.195 32.122 109.195 32.9904V48.064H110.288C113.869 48.064 115.022 46.6993 117.208 41.8608H117.572L117.329 48.4982H102.761L102.761 48.1262ZM118.058 48.1262C120 48.0642 120.486 47.754 120.486 46.8856V33.0525C120.486 32.184 120 31.8739 118.058 31.8118V31.4396H126.859V31.7498C124.856 31.8118 124.492 32.122 124.492 32.9904V48.064H125.585C129.166 48.064 130.319 46.6993 132.505 41.8608H132.869L132.626 48.4982H117.997V48.126L118.058 48.1262Z" fill="white"/>
</g>
<defs>
<clipPath id="clip0_1806_3">
<rect width="137" height="28" fill="white" transform="translate(5 26)"/>
</clipPath>
</defs>
</svg>
