<svg width="148" height="80" viewBox="0 0 148 80" fill="none" xmlns="http://www.w3.org/2000/svg">
<path d="M36.447 37.729C39.4764 37.6605 40.3716 37.1725 40.3716 35.9573V14.5913H39.8555C37.2032 14.5913 35.2059 17.3704 32.5892 22.3734L32.0376 22.3039L32.2444 14H54.2849L54.4562 22.3039L53.9057 22.3734C51.2889 17.3704 49.2906 14.5913 46.6393 14.5913H46.1577V35.9573C46.1577 37.1725 47.0175 37.6605 50.0834 37.729V38.2159H36.447V37.729Z" fill="white"/>
<path d="M55.1791 37.729C57.9682 37.6257 58.6222 37.2083 58.6222 35.9573V16.2585C58.6222 15.0075 57.9682 14.5554 55.1791 14.4511V14H67.6101V14.4511C65.4414 14.5554 64.4083 14.938 64.4083 16.2585V25.2917H73.3607V16.2585C73.3607 14.938 72.2941 14.5554 70.1579 14.4511V14H82.5899V14.4511C79.7653 14.5554 79.1458 15.0075 79.1458 16.2585V35.9573C79.1458 37.2083 79.7653 37.6257 82.5899 37.729V38.2159H70.1579V37.729C72.2941 37.6257 73.3607 37.2779 73.3607 35.9573V25.9862H64.4083V35.9573C64.4083 37.2779 65.4414 37.6257 67.6101 37.729V38.2159H55.1791V37.729Z" fill="white"/>
<path d="M83.5541 37.729C86.3432 37.6257 86.9961 37.1725 86.9961 35.9573V16.2585C86.9961 15.0423 86.3432 14.5554 83.5541 14.4511V14H104.595L104.697 22.5821L104.147 22.6516C101.425 16.8835 100.29 14.5912 95.9516 14.5912H92.7833V25.3612H93.9188C96.639 25.3612 98.2916 24.0754 99.2224 20.6713H99.6705V30.712H99.2224C98.2916 27.272 96.639 25.9514 93.9188 25.9514H92.7833V37.5898H95.7103C100.84 37.5898 102.253 35.5052 105.042 29.0784L105.593 29.1489L105.422 38.2158H83.5541V37.729Z" fill="white"/>
<path d="M32 64.8769C34.7902 64.7746 35.4431 64.3573 35.4431 63.1063V43.4064C35.4431 42.1544 34.7902 41.7044 32 41.599V41.1468H44.432V41.599C42.2613 41.7043 41.2292 42.0859 41.2292 43.4064V52.4396H50.1827V43.4064C50.1827 42.0859 49.1151 41.7044 46.9799 41.599V41.1468H59.4119V41.599C56.5883 41.7043 55.9688 42.1544 55.9688 43.4064V63.1063C55.9688 64.3573 56.5883 64.7746 59.4119 64.8769V65.3638H46.9799V64.8769C49.1151 64.7746 50.1827 64.4258 50.1827 63.1063V53.1341H41.2292V63.1063C41.2292 64.4258 42.2613 64.7746 44.432 64.8769V65.3638H32V64.8769Z" fill="white"/>
<path d="M60.1337 64.8769C62.9918 64.7746 63.6802 64.3215 63.6802 63.1063V43.4064C63.6802 42.1902 62.9918 41.7044 60.1337 41.599V41.1468H72.9784V41.599C70.1203 41.7043 69.4319 42.1902 69.4319 43.4064V63.1063C69.4319 64.3215 70.1203 64.7746 72.9784 64.8769V65.3638H60.1337V64.8769Z" fill="white"/>
<path d="M73.8726 64.8769C76.6617 64.7746 77.3167 64.3215 77.3167 63.1063V43.4064C77.3167 42.1902 76.6617 41.7044 73.8726 41.599V41.1468H86.5114V41.599C83.6523 41.7043 83.1018 42.1544 83.1018 43.4064V64.7388H84.651C89.8166 64.7388 91.4347 62.7922 94.603 55.9133L95.1557 55.9481L94.8444 65.3638H73.8726V64.8769Z" fill="white"/>
<path d="M95.6696 64.8769C98.4587 64.7746 99.1137 64.3215 99.1137 63.1063V43.4064C99.1137 42.1902 98.4587 41.7044 95.6696 41.599V41.1468H108.307V41.599C105.45 41.7043 104.899 42.1544 104.899 43.4064V64.7388H106.448C111.615 64.7388 113.233 62.7922 116.401 55.9133L116.952 55.9481L116.642 65.3638H95.6696V64.8769Z" fill="white"/>
</svg>
