<svg width="248" height="77" viewBox="0 0 248 77" fill="none" xmlns="http://www.w3.org/2000/svg">
<path d="M23.6904 27.2025C23.6904 24.6405 21.2548 24 19.3319 24V24.3843C20.4856 24.3843 21.3829 24.7686 21.3829 25.6653C21.3829 26.1777 20.9984 26.9463 19.8446 26.9463C18.9473 26.9463 17.0244 26.4339 15.6143 25.9215C13.9479 25.281 12.4096 24.7686 11.1276 24.7686C8.56382 24.7686 6.76915 26.6901 6.76915 28.8678C6.76915 30.7893 8.17925 31.4298 8.69201 31.686L8.82021 31.4298C8.56382 31.1736 8.17925 30.9174 8.17925 30.1488C8.17925 29.6364 8.69202 28.7397 9.97393 28.7397C11.1276 28.7397 12.6659 29.2521 14.717 29.8926C16.5117 30.405 18.4345 30.7893 19.4601 30.9174V34.8884L17.5372 36.5537V36.6818L19.4601 38.3471V43.8554C18.4345 44.4959 17.2808 44.624 16.2553 44.624C14.3324 44.624 12.6659 44.1116 11.2558 42.5744L16.5117 40.0124V31.1736L10.1021 33.9917C10.6149 32.3264 12.025 31.1736 13.4351 30.405L13.3069 30.0207C9.46116 31.0455 6 34.6322 6 38.9876C6 44.1116 10.2303 47.9545 14.9734 47.9545C20.101 47.9545 23.434 43.8554 23.434 39.6281H23.1776C22.4085 41.2934 21.2548 42.8306 19.8446 43.5992V38.3471L21.8957 36.6818V36.5537L19.8446 34.8884V30.9174C21.7675 30.9174 23.6904 29.6364 23.6904 27.2025ZM12.5378 41.2934L10.9995 42.062C10.1021 40.9091 9.58935 39.3719 9.58935 37.1942C9.58935 36.2975 9.58935 35.2727 9.84574 34.5041L12.5378 33.3512V41.2934ZM26.126 44.2397L24.4595 45.5207L24.7159 45.7769L25.4851 45.1364L28.3053 47.6983L32.151 45.1364L32.0228 44.8802L30.9973 45.5207L29.7154 44.2397V35.5289L30.7409 34.7603L32.9202 36.5537V44.3678C32.9202 49.2355 31.8946 50.0041 29.7154 50.7727V51.157C33.3047 51.2851 36.6377 50.1322 36.6377 43.8554V35.4008L37.7914 34.5041L37.535 34.2479L36.5095 35.0165L33.3047 32.3264L29.7154 35.0165V24.5124H29.459L24.9723 27.5868V27.843C25.4851 28.0992 26.2542 28.3554 26.2542 29.7645L26.126 44.2397ZM49.585 42.8306L46.3802 45.2645L43.1754 42.7025V41.1653L49.2004 37.0661V36.938L46.1238 32.3264L39.4579 35.9132V44.3678L38.176 45.3926L38.4324 45.6488L39.5861 44.7521L43.9446 47.9545L49.7132 43.343L49.585 42.8306ZM43.1754 40.6529V34.376L43.4318 34.2479L46.252 38.7314L43.1754 40.6529ZM74.0695 26.0496C74.0695 25.6653 73.9413 25.281 73.8131 24.8967H73.5568C73.1722 25.9215 72.6594 26.4339 71.3775 26.4339C70.2238 26.4339 69.4546 25.7934 68.9419 25.281L65.2243 29.5083L65.4807 29.7645L66.7626 28.6116C67.5318 29.2521 68.1727 29.7645 69.9674 29.8926V40.5248L62.4041 27.5868C61.7632 26.562 60.8658 25.1529 59.0712 25.1529C57.0201 25.1529 55.2254 26.9463 55.4818 29.7645H55.8664C55.9946 28.9959 56.3791 28.0992 57.2765 28.0992C57.9174 28.0992 58.5584 28.7397 58.943 29.3802V33.6074C56.6355 33.6074 55.0972 34.6322 55.0972 36.5537C55.0972 37.5785 55.61 39.1157 57.1483 39.5V39.2438C56.8919 38.9876 56.7637 38.7314 56.7637 38.3471C56.7637 37.7066 57.2765 37.1942 58.1738 37.1942H58.8148V42.5744C56.1228 42.5744 53.9435 44.1116 53.9435 46.6736C53.9435 49.1074 55.9946 50.2603 58.302 50.1322V49.876C56.8919 49.7479 56.2509 49.1074 56.2509 48.2107C56.2509 47.0579 57.0201 46.5455 58.0456 46.5455C59.0712 46.5455 59.9685 47.186 60.6094 47.9545L64.327 43.8554L64.0706 43.5992L63.1733 44.624C61.7632 43.343 60.994 42.9587 59.3275 42.7025V29.8926L69.5828 47.8264H70.352V29.8926C72.2749 29.7645 74.0695 28.2273 74.0695 26.0496ZM83.4275 42.8306L80.2227 45.2645L77.0179 42.7025V41.1653L83.0429 37.0661V36.938L79.9663 32.3264L73.3004 35.9132V44.3678L72.0185 45.3926L72.2748 45.6488L73.4286 44.7521L77.7871 47.9545L83.5557 43.343L83.4275 42.8306ZM77.0179 40.6529V34.376L77.2743 34.2479L80.0945 38.7314L77.0179 40.6529ZM104.323 33.7355L103.425 34.376L100.99 32.3264L98.1695 34.8884L99.3232 36.0413V45.6488L96.2466 43.7273V35.7851L97.2721 35.1446L94.3237 32.3264L91.5035 34.8884L92.6572 36.0413V45.2645L92.2727 45.5207L89.5807 43.5992V35.9132C89.5807 34.1198 88.6833 33.6074 87.6578 32.9669C86.7605 32.3264 86.2477 31.9421 86.2477 31.0455C86.2477 30.2769 87.0168 29.8926 87.4014 29.6364V29.3802C86.3759 29.3802 83.6839 30.405 83.6839 32.8388C83.6839 34.1198 84.3248 34.6322 84.9658 35.2727C85.6067 35.9132 86.2477 36.4256 86.2477 37.5785V45.0083L84.8376 46.0331L85.094 46.2893L86.3759 45.2645L89.3243 47.8264L92.5291 45.6488L96.1184 47.8264L102.913 43.8554V35.2727L104.579 33.9917L104.323 33.7355ZM128.166 26.6901L126.884 27.843L124.064 25.281L119.834 28.3554V25.5372H119.449L119.577 46.2893C119.193 46.2893 118.039 46.0331 117.142 45.7769L116.885 28.4835C116.885 27.2025 115.988 25.4091 113.681 25.4091C111.373 25.4091 109.835 27.2025 109.835 28.9959H110.219C110.348 28.2273 110.732 27.5868 111.501 27.5868C112.271 27.5868 112.911 28.0992 112.911 29.7645V34.7603C110.604 34.8884 109.194 36.1694 109.194 37.8347C109.194 38.8595 109.707 40.3967 111.245 40.3967V40.1405C110.732 39.8843 110.604 39.5 110.604 39.2438C110.604 38.4752 111.245 38.219 112.271 38.219H112.783V46.1612C110.86 46.8017 110.091 48.2107 110.091 49.7479C110.091 51.9256 111.758 53.4628 114.322 53.4628C116.116 53.4628 117.655 53.2066 119.193 52.8223C120.475 52.5661 122.141 52.1818 122.91 52.1818C123.936 52.1818 124.32 52.6942 124.32 53.3347C124.32 54.2314 123.936 54.6157 123.423 54.7438V55C125.474 54.6157 126.756 53.3347 126.756 51.4132C126.756 49.4917 124.833 48.3388 122.782 48.3388C121.757 48.3388 119.577 48.7231 118.039 48.9793C116.244 49.3636 114.45 49.6198 113.937 49.6198C113.04 49.6198 112.014 49.2355 112.014 47.9545C112.014 46.9298 112.911 46.0331 115.091 46.0331C116.244 46.0331 117.655 46.1612 119.065 46.5455C120.603 46.9298 122.013 47.314 123.295 47.314C125.218 47.314 126.884 46.6736 126.884 43.9835V28.2273L128.423 26.9463L128.166 26.6901ZM122.91 34.5041C122.526 34.8884 122.013 35.2727 121.372 35.2727C120.731 35.2727 120.09 34.8884 119.834 34.5041V28.8678L121.116 27.9711L122.91 29.6364V34.5041ZM122.91 38.3471C122.654 38.0909 122.013 37.7066 121.372 37.7066C120.731 37.7066 120.09 38.0909 119.834 38.3471V35.0165C120.09 35.2727 120.731 35.657 121.372 35.657C122.013 35.657 122.654 35.2727 122.91 35.0165V38.3471ZM122.91 44.3678C122.91 45.3926 122.269 46.4174 120.859 46.4174H119.834V38.8595C120.09 38.6033 120.731 38.219 121.372 38.219C122.013 38.219 122.526 38.6033 122.91 38.8595V44.3678ZM140.473 35.2727L136.37 32.3264L130.089 35.9132V44.2397L128.807 45.2645L128.935 45.5207L129.961 44.7521L134.063 47.8264L140.473 43.9835V35.2727ZM133.55 43.343V34.1198L136.755 36.4256V45.5207L133.55 43.343ZM152.651 32.5826H152.394C152.01 32.8388 151.625 33.095 151.241 33.095C150.728 33.095 150.087 32.8388 149.831 32.4545H149.574L147.395 34.8884L145.216 32.4545L141.37 35.0165L141.498 35.2727L142.524 34.6322L143.806 36.0413V44.1116L142.139 45.3926L142.395 45.6488L143.165 45.0083L146.241 47.5702L150.215 44.8802L150.087 44.624L148.933 45.2645L147.395 43.9835V35.0165C148.036 35.657 148.805 36.2975 149.702 36.2975C151.497 36.4256 152.523 34.6322 152.651 32.5826ZM168.034 44.8802L163.675 47.8264L157.778 38.8595L162.009 32.3264H162.265C162.778 32.8388 163.547 33.3512 164.444 33.3512C165.342 33.3512 165.983 32.8388 166.367 32.3264H166.624C166.495 34.8884 164.701 36.4256 163.419 36.4256C162.137 36.4256 161.496 35.7851 160.727 35.4008L160.342 36.0413L166.752 45.5207L168.034 44.7521V44.8802ZM153.933 44.2397L152.266 45.5207L152.523 45.7769L153.292 45.1364L156.112 47.6983L159.958 45.1364L159.701 44.8802L158.676 45.5207L157.394 44.2397V24.5124H157.266L152.651 27.5868V27.843C153.163 28.0992 153.933 28.2273 153.933 29.7645V44.2397ZM189.313 27.2025C189.313 24.6405 186.878 24 184.955 24V24.3843C186.109 24.3843 187.006 24.7686 187.006 25.6653C187.006 26.1777 186.621 26.9463 185.468 26.9463C184.57 26.9463 182.647 26.4339 181.237 25.9215C179.571 25.4091 178.033 24.8967 176.751 24.8967C174.187 24.8967 172.392 26.8182 172.392 28.9959C172.392 30.9174 173.802 31.5579 174.315 31.814L174.443 31.5579C174.059 31.3017 173.674 31.0455 173.674 30.2769C173.674 29.7645 174.187 28.8678 175.469 28.8678C176.622 28.8678 178.161 29.3802 180.212 30.0207C182.006 30.5331 183.929 30.9174 184.955 31.0455V35.0165L183.032 36.6818V36.8099L184.955 38.4752V43.9835C183.929 44.624 182.776 44.7521 181.75 44.7521C179.827 44.7521 178.161 44.2397 176.751 42.7025L182.007 40.1405V31.1736L175.597 33.9917C176.238 32.3264 177.648 31.1736 178.93 30.2769L178.802 30.0207C174.956 31.0455 171.495 34.5041 171.495 38.8595C171.495 43.9835 175.725 47.8264 180.468 47.8264C185.596 47.8264 188.929 43.7273 188.929 39.5H188.672C187.903 41.1653 186.75 42.7025 185.339 43.4711V38.219L187.391 36.5537V36.4256L185.468 34.7603V30.9174C187.391 30.9174 189.313 29.6364 189.313 27.2025ZM178.161 41.2934L176.622 42.062C175.725 40.9091 175.212 39.3719 175.212 37.1942C175.212 36.2975 175.341 35.2727 175.597 34.5041L178.289 33.3512L178.161 41.2934ZM193.8 25.9215H193.672L191.108 28.0992V28.2273L193.287 30.6612H193.544L196.108 28.4835V28.3554L193.8 25.9215ZM197.646 44.8802L196.62 45.5207L195.338 44.2397V35.4008L196.62 34.5041L196.364 34.2479L195.467 35.0165L193.159 32.3264L189.442 34.8884L189.698 35.2727L190.595 34.6322L191.749 36.0413V44.3678L190.083 45.6488L190.211 45.905L191.108 45.2645L193.928 47.8264L197.774 45.2645L197.646 44.8802ZM219.054 44.7521L218.156 45.3926L216.746 44.1116V35.4008L218.028 34.376L217.772 34.1198L216.746 35.0165L213.798 32.3264L209.952 35.0165L207.004 32.3264L203.414 35.0165L201.107 32.3264L197.389 34.8884L197.518 35.2727L198.415 34.6322L199.697 36.0413V44.3678L198.671 45.3926L201.62 47.8264L204.44 45.2645L203.286 44.1116V35.4008L204.44 34.6322L206.363 36.4256V44.1116L205.337 45.1364L208.286 47.5702L211.106 45.0083L209.952 43.8554V35.4008L210.978 34.7603L213.029 36.5537V44.2397L212.131 45.1364L215.08 47.8264L219.054 45.1364V44.7521ZM230.206 42.8306L227.002 45.2645L223.797 42.7025V41.1653L229.822 37.0661V36.938L226.745 32.3264L220.079 35.9132V44.624L224.566 47.8264L230.335 43.2149L230.206 42.8306ZM223.797 40.6529V34.376L224.053 34.2479L226.873 38.7314L223.797 40.6529ZM241.872 39.5L239.436 37.5785C241.103 36.1694 241.744 34.2479 241.744 32.9669V32.1983H241.487C241.231 32.8388 240.718 33.4793 239.693 33.4793C238.667 33.4793 238.026 32.9669 237.385 32.1983L231.617 35.4008V40.0124L233.796 41.6777C231.616 43.5992 231.232 44.8802 231.232 45.905C231.232 47.186 231.873 48.0826 232.898 48.4669L233.027 48.2107C232.77 47.9545 232.514 47.8264 232.514 47.1859C232.514 46.8017 233.027 46.1612 234.052 46.1612C235.334 46.1612 236.103 47.0579 236.488 47.4421L242 44.1116V39.5H241.872ZM240.462 35.657C239.564 37.1942 237.641 38.7314 236.488 39.5L235.078 38.3471V33.8636C235.59 35.1446 237.001 36.1694 238.411 36.1694C239.308 36.1694 239.821 36.0413 240.462 35.657ZM238.282 45.905C237.641 44.4959 236.103 43.4711 234.565 43.4711C234.18 43.4711 233.155 43.4711 232.129 44.1116C232.77 43.0868 234.437 41.2934 236.616 40.0124L238.154 41.2934L238.282 45.905Z" fill="white"/>
</svg>
