<?xml version="1.0" encoding="UTF-8"?>
<svg width="300" height="60" version="1.1" viewBox="0 0 211.39 27.692" xml:space="preserve" xmlns="http://www.w3.org/2000/svg">
  <path d="m-5e-7 34.985h211.39v-42.279h-211.39z" fill="#0f75bf"/><path d="m18.87 26.116c3.2782-0.09366 4.2149-0.56198 4.2149-1.8733v-22.667h-0.56199c-2.8099 0-4.9642 2.9036-7.8678 8.2424l-0.56198-0.093664 0.18733-8.8044h23.697l0.18733 8.8044-0.56198 0.093664c-2.8099-5.3389-4.9642-8.2424-7.8678-8.2424h-0.56198v22.667c0 1.3113 0.93664 1.7796 4.2149 1.8733v0.56199h-14.518zm20.325 0c2.9973-0.09366 3.7466-0.56198 3.7466-1.8733v-20.887c0-1.3113-0.74931-1.7796-3.7466-1.8733v-0.56199h13.394v0.46832c-2.3416 0.093664-3.4656 0.56198-3.4656 1.8733v9.6474h9.6474v-9.5537c0-1.405-1.124-1.7796-3.4656-1.8733v-0.56199h13.394v0.46832c-2.9973 0.093664-3.7466 0.56198-3.7466 1.8733v20.887c0 1.3113 0.65565 1.7796 3.7466 1.8733v0.56198h-13.394v-0.56198c2.3416-0.09366 3.4656-0.46832 3.4656-1.8733v-10.49h-9.6474v10.584c0 1.405 1.124 1.7796 3.4656 1.8733v0.56199h-13.394zm30.535 0c2.9973-0.09366 3.7466-0.56198 3.7466-1.8733v-20.887c0-1.3113-0.74931-1.7796-3.7466-1.8733v-0.56199h22.667l0.09366 9.0854-0.56198 0.09366c-2.9036-6.0882-4.1212-8.5234-8.8044-8.5234h-3.4656v11.427h1.2176c2.9036 0 4.6832-1.405 5.7135-4.9642h0.46832v10.678h-0.46832c-1.0303-3.6529-2.8099-5.0579-5.7135-5.0579h-1.2176v12.364h3.1846c5.5262 0 7.0248-2.2479 10.022-8.9918l0.56198 0.09366-0.18733 9.6474h-23.51zm35.78 0c2.9972-0.09366 3.7466-0.56198 3.7466-1.8733v-20.887c0-1.3113-0.74932-1.7796-3.7466-1.8733v-0.56199h13.394v0.46832c-2.3416 0.093664-3.4656 0.56198-3.4656 1.8733v9.6474h9.6474v-9.5537c0-1.405-1.124-1.7796-3.4656-1.8733v-0.56199h13.394v0.46832c-2.9972 0.093664-3.7466 0.56198-3.7466 1.8733v20.887c0 1.3113 0.65564 1.7796 3.7466 1.8733v0.56198h-13.394v-0.56198c2.3416-0.09366 3.4656-0.46832 3.4656-1.8733v-10.49h-9.6474v10.584c0 1.405 1.124 1.7796 3.4656 1.8733v0.56199h-13.394zm30.535 0c3.0909-0.09366 3.8402-0.56198 3.8402-1.8733v-20.887c0-1.3113-0.74931-1.7796-3.8402-1.8733v-0.56199h13.862v0.46832c-3.0909 0.093664-3.8402 0.65565-3.8402 1.8733v20.887c0 1.3113 0.74931 1.7796 3.8402 1.8733v0.56198h-13.862zm14.799 0c2.9973-0.09366 3.7466-0.56198 3.7466-1.8733v-20.887c0-1.3113-0.74931-1.7796-3.7466-1.8733v-0.56199h13.581v0.46832c-3.0909 0.093664-3.6529 0.56198-3.6529 1.8733v22.76h1.686c5.5262 0 7.3058-2.0606 10.678-9.3664h0.56198l-0.37465 10.022h-22.479zm23.603 0c2.9972-0.09366 3.7466-0.56198 3.7466-1.8733v-20.887c0-1.3113-0.74932-1.7796-3.7466-1.8733v-0.56199h13.581v0.46832c-3.0909 0.093664-3.6529 0.56198-3.6529 1.8733v22.76h1.686c5.5262 0 7.3058-2.0606 10.678-9.3664h0.56199l-0.37466 10.022h-22.573v-0.56199z" fill="#fff" stroke-width=".93664"/>
</svg>
