<svg width="148" height="80" viewBox="0 0 148 80" fill="none" xmlns="http://www.w3.org/2000/svg">
<g clip-path="url(#clip0_1817_61)">
<path d="M12.8519 35.9459V43.5967C13.8529 43.0384 14.5539 42.0665 14.8942 40.9704L14.9744 41.012C14.7539 43.7415 12.9519 46.4707 10.1486 46.4707C7.32515 46.4707 5.24263 44.2998 5.24263 40.8256C5.24263 38.2204 6.88456 36.5866 8.9872 35.1184C8.67997 35.0352 8.36358 34.9935 8.04596 34.9944C6.60405 34.9944 5.76312 36.0076 5.76312 37.0416H5.64298C5.62286 36.8968 5.62286 36.7522 5.62286 36.6074C5.62286 34.767 6.56411 32.5337 8.84695 32.5337C10.3087 32.5337 11.4301 33.9191 13.1321 33.9191C13.813 33.9191 14.6539 33.5882 14.9942 32.8231H15.0543C15.0344 34.1675 14.6341 35.5529 12.8519 35.9459ZM13.9331 43.7828C12.9318 44.8785 11.8506 45.8092 10.4489 45.8092C7.84593 45.8092 5.8436 43.7 5.8436 40.6395C5.8436 38.8407 6.5644 37.869 7.36539 36.7315H7.28521C6.78455 37.2485 5.46308 38.551 5.46308 40.7636C5.46308 44.1549 7.52547 46.2434 10.2288 46.2434C12.111 46.2434 13.3925 44.8996 13.9734 43.8036L13.9331 43.7828ZM14.7338 33.7541C14.3935 34.4157 13.6727 35.2633 12.211 35.2633C10.7493 35.2633 9.40767 34.2293 8.22616 34.2293C7.14466 34.2293 6.40403 34.9739 6.12352 35.5322L6.14364 35.5737C6.52416 35.1808 7.10471 34.7878 8.04596 34.7878C9.6077 34.7878 10.609 35.7806 12.1909 35.7806C13.873 35.7806 14.6338 34.643 14.774 33.7749L14.7338 33.7541ZM9.16711 35.1808C8.14597 36.2768 7.20472 37.4761 7.20472 39.8127C7.20472 41.0945 7.62519 42.4179 8.56644 43.245L9.14699 42.9345V37.3933L8.60638 37.6827L8.50637 37.4758L11.3097 35.904C10.5489 35.739 9.86809 35.3876 9.16711 35.1808ZM12.6315 35.9871C12.4912 36.0076 12.3512 36.0076 12.1909 36.0076C11.9107 36.0076 11.6503 35.9871 11.3899 35.9248V41.9626L8.76676 43.4314C9.30736 43.8448 9.9681 44.0929 10.809 44.0929C11.4899 44.0929 12.0906 43.9481 12.6312 43.7L12.6315 35.9871ZM9.74795 37.0419L9.36743 37.2692V42.8111L9.74795 42.6042V37.0419ZM21.2619 37.8275V44.9821C21.2619 46.967 19.5599 48.3114 17.6576 48.704L17.6176 48.6212C18.5589 48.1455 19.0995 47.1738 19.0995 46.1398V38.7371L18.0183 37.7242L17.5978 38.1997V43.9689L18.1985 44.5271V44.5687L16.5766 46.3882L14.7146 44.6307V44.5479L15.4354 43.762V34.6225L17.5578 32.2862L17.5978 32.3067V37.8483L19.34 35.9046L21.1622 37.6005L21.5024 37.228L21.6628 37.3731L21.2619 37.8275ZM15.6552 44.5891V44.5479L16.0757 44.1134V34.2708L15.6552 34.7261V43.9068L15.0143 44.5687V44.6099L16.5761 46.0573L16.8563 45.7264L15.6552 44.5891ZM19.7401 38.4062L18.4384 37.2485L18.1582 37.5586L19.3196 38.6342V46.0781C19.3196 46.5743 19.2196 47.091 19.0394 47.3807L19.0595 47.4015C19.5602 47.029 19.7404 46.4707 19.7404 45.7472V38.4062H19.7401ZM24.4457 41.9837V43.0381L26.388 44.6096L27.5094 43.3691L27.6698 43.5344L25.0668 46.4084L22.4236 44.2167L22.0232 44.6509L21.8628 44.4855L22.3235 43.9893V38.7579L26.1081 35.9043L28.0906 39.2129L24.4457 41.9837ZM22.9639 43.8036V38.551L22.5434 38.8615V44.0104L25.0266 46.0989L25.347 45.7475L22.9639 43.8036ZM24.486 37.4345L24.4457 37.4553V41.6943L26.2279 40.3502L24.486 37.4345ZM25.0064 37.0211L24.646 37.2897L26.4084 40.2053L26.7688 39.9364L25.0064 37.0211ZM41.1428 46.3879L38.3594 43.9065L36.2369 46.3879L33.3534 43.8237V39.7711H32.7927C32.292 39.7711 32.0319 40.102 31.9115 40.4947H31.8514C31.7875 40.238 31.7539 39.9742 31.7514 39.7091C31.7514 39.1713 31.8916 37.7655 33.3534 37.7655V34.2088C33.3534 33.5265 32.5725 33.2576 32.5725 32.3477C32.5725 31.1694 33.6537 30.0114 35.6362 29.2872L35.7164 29.3492C34.9956 29.7837 34.6151 30.1972 34.6151 31.0863C34.6151 32.4512 35.8966 32.0995 35.8966 34.25V35.0772L38.2395 32.5337L40.7026 35.0356L43.0253 32.5337L45.2679 34.8083V42.4591L41.1428 46.3879ZM33.9943 43.4931V39.1304H32.8728C32.292 39.1304 32.0319 39.523 31.9917 39.8747L32.0115 39.8955C32.2118 39.6682 32.4121 39.5441 32.8725 39.5441H33.5732V43.7211L36.2165 46.0784L36.5168 45.7059L33.9943 43.4931ZM33.9943 34.0019C33.9943 33.1543 33.2735 32.8647 33.2735 32.3272C33.2735 31.5825 33.5537 30.9626 33.9943 30.3835L33.9543 30.3631C33.3537 30.8388 32.7929 31.6039 32.7929 32.348C32.7929 33.0926 33.5738 33.444 33.5738 34.1058V37.7658H33.9943V34.0019ZM38.2194 36.0699L36.6976 34.5397L35.8966 35.3873V42.7072L37.7187 44.2995L38.2194 43.7204V36.0699ZM38.86 43.4519V35.7806L37.158 34.0435L36.8376 34.3744L38.4395 35.9664V43.6792L41.1428 46.0986L41.4633 45.7881L38.86 43.4519ZM42.7448 35.801L41.4834 34.5602L40.7626 35.3253V42.6867L42.725 44.4648L42.7448 44.4443V35.801ZM43.3854 35.5117L41.9237 34.0435L41.6234 34.3744L42.965 35.6978V44.341L43.3854 43.9273V35.5117ZM51.8939 46.3879L49.9916 44.6096L48.2896 46.3879L46.2071 44.4855L45.9266 44.7957L45.7665 44.6304L46.1269 44.2374V38.6962L49.8916 35.8839L52.0543 37.6209L52.4348 37.2072L52.5952 37.3728L52.1546 37.8483V43.5762L53.2157 44.5891L53.5563 44.217L53.7164 44.3618L51.8939 46.3879ZM46.7678 44.0929V38.5098L46.3474 38.8199V44.2998L48.2698 46.0781L48.5903 45.7472L46.7678 44.0929ZM49.9916 38.6546L48.3497 37.3313L48.2896 37.3728V43.3898L49.6513 44.6096L49.9916 44.2582V38.6546ZM50.6325 44.279V38.3445L48.9305 36.9175L48.5302 37.2069L50.2121 38.5718V44.4855L51.8942 46.057L52.1946 45.7261L50.6325 44.279ZM57.721 39.6471H59.7834V44.0721L56.5996 46.3879C56.1791 45.8917 55.5781 45.5403 54.8375 45.5403C54.2368 45.5403 53.756 45.7472 53.1154 46.3054L53.0154 46.2639L55.7388 42.1697H54.0566V38.3237L57.4009 35.9251C57.8012 36.256 58.1016 36.4418 58.6223 36.4418C59.023 36.4418 59.6035 36.359 60.0441 35.9871L60.1243 36.0284L57.721 39.6471ZM55.4784 44.9405C54.8976 44.9405 54.4372 45.1474 54.0365 45.4367V45.4783C54.357 45.3335 54.6774 45.2922 54.9778 45.2922C55.4382 45.2922 56.1593 45.5199 56.6398 46.0989L57.1005 45.7475C56.7197 45.2922 56.2593 44.9405 55.4784 44.9405ZM57.6207 41.4667H56.4993L54.1564 44.9616L54.1765 45.0029C54.757 44.5687 55.3178 44.2793 55.9986 44.2793C56.5993 44.2793 57.2201 44.5687 57.6006 45.0649L57.6207 45.0444V41.4667ZM54.6973 41.4667V38.1379L54.2768 38.4481V41.9219H55.8986L56.2191 41.467L54.6973 41.4667ZM58.8824 37.4138C58.462 37.7242 58.2217 37.8895 57.5207 37.8895C57.1201 37.8895 56.6395 37.7034 56.2593 37.2897L56.2194 37.3105V40.3294H56.9801L58.9025 37.4342L58.8824 37.4138ZM57.9214 37.2277C57.5609 37.2277 57.1005 37.0419 56.7999 36.6282L56.2992 36.9796C56.6798 37.4553 57.0402 37.6619 57.6006 37.6619C57.961 37.6619 58.4818 37.5583 59.0224 37.0825L59.0422 37.0208C58.7022 37.166 58.2818 37.2277 57.9214 37.2277ZM58.2616 40.7847H56.96L56.6597 41.2189H57.8412V45.2302L58.2616 44.9201V40.7847ZM66.6917 37.8275V44.9821C66.6917 46.967 64.9897 48.3114 63.0874 48.704L63.0475 48.6212C63.9887 48.1455 64.5293 47.1738 64.5293 46.1398V38.7371L63.4481 37.7242L63.0276 38.1997V43.9689L63.6283 44.5271V44.5687L62.0065 46.3882L60.1444 44.6307V44.5479L60.8652 43.762V34.6225L62.9877 32.2862L63.0276 32.3067V37.8483L64.7699 35.9046L66.592 37.6005L66.9323 37.228L67.0927 37.3731L66.6917 37.8275ZM61.0851 44.5891V44.5479L61.5055 44.1134V34.2708L61.0851 34.7258V43.9065L60.4442 44.5684V44.6096L62.0059 46.057L62.2861 45.7261L61.0851 44.5891ZM65.1699 38.4062L63.8683 37.2485L63.5881 37.5586L64.7495 38.6342V46.0781C64.7495 46.5743 64.6494 47.091 64.4692 47.3807L64.4894 47.4015C64.99 47.029 65.1702 46.4707 65.1702 45.7472L65.1699 38.4062ZM70.3363 46.3879L68.6142 44.7544L68.2135 45.1886L68.0531 45.023L68.5138 44.5063V38.5306L67.6729 37.7034L67.3525 38.0759L67.1921 37.9103L68.9941 35.8839L70.5961 37.3728L70.9967 36.9179L71.1769 37.0627L70.6763 37.6209V43.659L71.6376 44.5894L72.0782 44.1137L72.2383 44.2793L70.3363 46.3879ZM69.1548 44.3618V38.1997L68.1135 37.2072L67.8333 37.5381L68.7343 38.4273V44.5687L70.3363 46.0573L70.6366 45.7264L69.1548 44.3618ZM69.7554 35.7185L68.1135 34.1679L69.6155 32.5136L71.2574 34.0643L69.7554 35.7185ZM68.7343 33.8366L68.434 34.1468L69.7353 35.4081L70.0356 35.0567L68.7343 33.8366ZM78.8033 46.3879L77.0611 44.7544V38.7167L75.9997 37.7242L75.439 38.3445V43.9273L76.0598 44.5268V44.6096L74.4179 46.3879L72.5555 44.6304V44.5684L73.2766 43.7828V38.5718L72.3353 37.6827L71.9548 38.1169L71.7947 37.9515L73.6169 35.9043L75.439 37.5794V37.9928L77.3413 35.9043L79.1232 37.5586L79.5239 37.1244L79.7041 37.2897L79.2235 37.8067V43.7204L80.1245 44.5888L80.5651 44.0926L80.7252 44.2579L78.8033 46.3879ZM73.5169 44.5891V44.5479C73.5169 44.5891 73.9175 44.1342 73.9175 44.1342V38.2614L72.7759 37.1861L72.4954 37.4963L73.4967 38.4475V43.9062L72.876 44.5681V44.6093L74.4179 46.0567L74.738 45.7053L73.5169 44.5891ZM77.7017 44.4238V38.3653L76.4604 37.2072L76.14 37.5586L77.2813 38.6131V44.6304L78.7829 46.0778L79.1034 45.7261L77.7017 44.4238ZM84.4499 50.1099C83.7895 49.3656 83.3288 49.0554 82.708 49.0554C82.0473 49.0554 81.2862 49.3243 80.5053 49.7585L80.4453 49.6968L83.2087 46.3882L81.2463 44.7755L80.8657 45.1892L80.7057 45.0444L81.146 44.5482V38.6962L84.9506 35.8839L87.0731 37.6209L87.4338 37.2072L87.5938 37.3728L87.1734 37.8483V44.9204C87.1734 45.9956 87.7539 45.9544 87.7539 46.7604C87.7539 47.6908 86.4523 48.5592 84.4499 50.1099ZM81.7869 44.3823V38.5306L81.3664 38.841V44.5687L83.3486 46.2229L83.6492 45.8505L81.7869 44.3823ZM83.1885 48.518C82.5278 48.518 81.9268 48.7248 81.3664 49.1175V49.159C81.7268 49.0142 82.1271 48.8281 82.808 48.8281C83.4288 48.8281 83.9493 49.1795 84.4701 49.8001L84.8707 49.4692C84.3698 48.8697 83.7691 48.518 83.1885 48.518ZM85.6314 46.5328C85.1311 46.2019 85.0107 45.8505 85.0107 44.9613V44.5888L81.6866 48.5589L81.7067 48.5794C82.3473 48.1867 82.9281 47.8974 83.8694 47.8974C84.6704 47.8974 85.211 48.228 85.8318 48.7658C86.2123 48.4349 86.4724 48.1042 86.4724 47.5872C86.4724 47.1738 86.1318 46.8637 85.6314 46.5328ZM85.0107 38.6546L83.3486 37.3108L83.3084 37.352V43.7L84.5902 44.734L85.0107 44.2377V38.6546ZM86.2321 46.2434C85.7113 45.8297 85.6513 45.4783 85.6513 44.5891V38.3032L83.9691 36.8971L83.5889 37.166L85.2308 38.5098V44.8785C85.2308 45.7677 85.271 46.0161 85.8117 46.3879C86.2922 46.7189 86.6724 47.0702 86.6724 47.546C86.6724 47.6697 86.6526 47.8766 86.6526 47.8766L86.6724 47.8974C86.7727 47.7938 86.8929 47.6285 86.8929 47.3596C86.8931 46.9049 86.6727 46.5948 86.2321 46.2434ZM91.0381 46.3879L89.1958 44.8993L88.8153 45.3335L88.6552 45.1679L89.0955 44.6716V37.4345H87.9341L87.8939 37.3933L88.5949 36.3177H89.0952V34.9327L91.218 32.5961L91.2579 32.6376V36.318H92.8599L92.9001 36.3596L92.1992 37.4349H91.2579V43.7003L92.3595 44.569L92.78 44.0932L92.9401 44.2585L91.0381 46.3879ZM89.7364 34.581L89.3159 35.0567V36.318H89.7364V34.581ZM89.7364 44.4651V37.4345H89.3159V44.7132L91.0179 46.0781L91.3183 45.7472L89.7364 44.4651ZM99.488 38.0344V43.824L96.1038 46.4087L93.5606 44.4238L93.2603 44.7752L93.1002 44.6096L93.4606 44.1962V38.5306L97.0051 35.9043L99.3678 37.807L99.7481 37.3933L99.9084 37.5586L99.488 38.0344ZM94.1018 43.9896V38.3445L93.681 38.6546V44.217L96.084 46.1194L96.4645 45.83L94.1018 43.9896ZM97.3256 38.7167L95.6434 37.3517L95.6236 37.3725V43.5344L97.3256 44.8577V38.7167ZM97.9665 38.3445L96.1041 36.8555L95.7239 37.1449L97.546 38.5923V45.0233L97.9665 44.6927V38.3445ZM107.137 46.3879L105.395 44.7544V38.7167L104.334 37.7242L103.773 38.3445V43.9273L104.394 44.5268V44.6096L102.752 46.3879L100.89 44.6304V44.5684L101.611 43.7828V38.5718L100.669 37.6827L100.289 38.1169L100.129 37.9515L101.951 35.9043L103.773 37.5794V37.9928L105.675 35.9043L107.458 37.5586L107.858 37.1244L108.038 37.2897L107.558 37.8067V43.7204L108.459 44.5888L108.899 44.0926L109.059 44.2579L107.137 46.3879ZM101.851 44.5891V44.5479C101.851 44.5891 102.251 44.1342 102.251 44.1342V38.2614L101.11 37.1861L100.83 37.4963L101.831 38.4475V43.9062L101.21 44.5681V44.6093L102.752 46.0567L103.073 45.7053L101.851 44.5891ZM106.036 44.4238V38.3653L104.795 37.2072L104.474 37.5586L105.615 38.6131V44.6304L107.117 46.0778L107.438 45.7261L106.036 44.4238ZM119.508 46.3879C118.947 45.7677 118.747 45.5608 118.086 45.3747V49.4276L118.046 49.4481L117.245 48.7034L114.922 50.916L114.882 50.8955V45.3335C114.181 45.4988 113.44 45.8712 112.719 46.6153L112.679 46.5948C112.819 45.0025 113.58 43.824 114.881 43.3691V39.3369H114.461C113.88 39.3369 113.56 39.6471 113.28 40.2053H113.22C113.16 40.0196 113.119 39.7296 113.119 39.2544C113.119 38.3857 113.74 37.4761 114.762 37.4761H114.881V35.2428L114.061 34.4777L113.66 34.8914L113.52 34.7466L115.542 32.534L117.424 34.3124V36.194L117.865 35.6978V33.3196H118.085V35.4909L120.748 32.5337L123.011 34.6638V43.6587L119.508 46.3879ZM114.882 44.5684C114.061 44.7337 113.481 45.2507 113.1 45.933L113.12 45.9745C113.681 45.4783 114.201 45.251 114.882 45.0854V44.5684ZM115.523 38.6342H114.422C113.661 38.6342 113.36 39.1304 113.341 39.7094L113.36 39.7299C113.601 39.3162 113.841 39.1716 114.322 39.1099H115.103V50.3791L115.523 49.9654V38.6342ZM115.523 34.9119L114.522 33.961L114.201 34.3124L115.103 35.1392V37.4758H115.523V34.9119ZM117.866 36.0904L117.426 36.5662V48.5387L117.866 48.9525V36.0904ZM120.489 35.615L119.308 34.4985L118.086 35.8634V43.1417C119.128 43.2453 119.848 43.5554 120.469 44.2582L120.489 44.2377V35.615ZM118.086 44.5684V45.1061C118.767 45.2714 119.047 45.4783 119.528 46.057L119.989 45.6849C119.508 45.0646 119.027 44.6927 118.086 44.5684ZM121.13 35.2844L119.768 33.9815L119.448 34.3329L120.709 35.5322V45.1474L121.13 44.8165V35.2844ZM130.001 38.0344V43.824L126.616 46.4087L124.073 44.4238L123.772 44.7752L123.612 44.6096L123.973 44.1962V38.5306L127.517 35.9043L129.88 37.807L130.26 37.3933L130.421 37.5586L130.001 38.0344ZM124.614 43.9896V38.3445L124.193 38.6546V44.217L126.596 46.1194L126.977 45.83L124.614 43.9896ZM127.838 38.7167L126.156 37.3517L126.136 37.3725V43.5344L127.838 44.8577V38.7167ZM128.479 38.3445L126.616 36.8555L126.236 37.1449L128.058 38.5923V45.0233L128.479 44.6927V38.3445ZM134.646 39.6471H136.708V44.0721L133.525 46.3879C133.104 45.8917 132.504 45.5403 131.763 45.5403C131.162 45.5403 130.681 45.7472 130.04 46.3054L129.94 46.2639L132.664 42.1697H130.981V38.3237L134.326 35.9251C134.726 36.256 135.026 36.4418 135.547 36.4418C135.948 36.4418 136.528 36.359 136.969 35.9871L137.049 36.0284L134.646 39.6471ZM132.403 44.9405C131.823 44.9405 131.362 45.1474 130.962 45.4367V45.4783C131.282 45.3335 131.602 45.2922 131.903 45.2922C132.364 45.2922 133.084 45.5199 133.565 46.0989L134.025 45.7475C133.645 45.2922 133.184 44.9405 132.403 44.9405ZM134.546 41.4667H133.425L131.082 44.9616L131.102 45.0029C131.682 44.5687 132.243 44.2793 132.924 44.2793C133.525 44.2793 134.145 44.5687 134.526 45.0649L134.546 45.0444L134.546 41.4667ZM131.623 41.4667V38.1379L131.202 38.4481V41.9219H132.824L133.144 41.467L131.623 41.4667ZM135.807 37.4138C135.387 37.7242 135.147 37.8895 134.445 37.8895C134.045 37.8895 133.564 37.7034 133.184 37.2897L133.144 37.3105V40.3294H133.905L135.827 37.4342L135.807 37.4138ZM134.846 37.2277C134.486 37.2277 134.025 37.0419 133.725 36.6282L133.224 36.9796C133.605 37.4553 133.965 37.6619 134.526 37.6619C134.886 37.6619 135.407 37.5583 135.948 37.0825L135.968 37.0208C135.627 37.166 135.207 37.2277 134.846 37.2277ZM135.187 40.7847H133.885L133.585 41.2189H134.766V45.2302L135.187 44.9201V40.7847ZM140.033 46.3879L138.19 44.8993L137.81 45.3335L137.65 45.1679L138.09 44.6716V37.4345H136.929L136.889 37.3933L137.589 36.3177H138.09V34.9327L140.212 32.5961L140.253 32.6376V36.318H141.854L141.895 36.3596L141.194 37.4349H140.253V43.7003L141.354 44.569L141.775 44.0932L141.935 44.2585L140.033 46.3879ZM138.731 34.581L138.31 35.0567V36.318H138.731V34.581ZM138.731 44.4651V37.4345H138.31V44.7132L140.012 46.0781L140.313 45.7472L138.731 44.4651Z" fill="#231F20"/>
</g>
<defs>
<clipPath id="clip0_1817_61">
<rect width="137" height="22" fill="white" transform="translate(5 29)"/>
</clipPath>
</defs>
</svg>
