<svg width="248" height="77" viewBox="0 0 248 77" fill="none" xmlns="http://www.w3.org/2000/svg">
<g clip-path="url(#clip0_1_65)">
<path d="M29.6205 53.1404C33.2028 53.0363 34.2264 52.5157 34.2264 51.0579V25.8592H33.6123C30.5417 25.8592 28.1876 29.0871 25.0146 35.0222L24.4005 34.9181L24.6052 25.1303H50.5005L50.7052 34.9181L50.0911 35.0222C47.0205 29.087 44.6664 25.8592 41.4934 25.8592H40.8793V51.0579C40.8793 52.5157 41.9029 53.0363 45.4852 53.1404V53.7652H29.6204L29.6205 53.1404ZM51.831 53.1404C55.1064 53.0363 55.9252 52.5157 55.9252 51.0579V27.838C55.9252 26.3803 55.1063 25.8597 51.831 25.7555V25.1308H66.4675V25.6514C63.9087 25.7555 62.6804 26.2761 62.6804 27.7339V38.4588H73.2228V27.8381C73.2228 26.2762 71.9945 25.8597 69.4357 25.7555V25.1308H84.0722V25.6514C80.7969 25.7555 79.9781 26.2762 79.9781 27.7339V50.9538C79.9781 52.4116 80.6945 52.9322 84.0722 53.0363V53.6611H69.4357V53.0363C71.9945 52.9322 73.2228 52.5157 73.2228 50.9538V39.2922H62.6804V51.0583C62.6804 52.6202 63.9087 53.0367 66.4675 53.1408V53.7656H51.831V53.1404ZM85.1986 53.1404C88.474 53.0363 89.2928 52.5157 89.2928 51.0579V27.838C89.2928 26.3803 88.474 25.8597 85.1986 25.7555V25.1308H109.968L110.071 35.2309L109.457 35.335C106.284 28.5668 104.953 25.8596 99.8355 25.8596H96.0484V38.5629H97.3789C100.552 38.5629 102.497 37.001 103.622 33.0443H104.134V44.9149H103.622C102.497 40.854 100.552 39.2921 97.3789 39.2921H96.0484V53.037H99.5284C105.567 53.037 107.205 50.538 110.48 43.0409L111.094 43.145L110.89 53.8699H85.1986L85.1986 53.1404ZM124.298 53.1404C127.573 53.0363 128.392 52.5157 128.392 51.0579V27.838C128.392 26.3803 127.573 25.8597 124.298 25.7555V25.1308H138.934V25.6514C136.376 25.7555 135.147 26.2761 135.147 27.7339V38.4588H145.69V27.8381C145.69 26.2762 144.461 25.8597 141.903 25.7555V25.1308H156.539V25.6514C153.264 25.7555 152.445 26.2762 152.445 27.7339V50.9538C152.445 52.4116 153.161 52.9322 156.539 53.0363V53.6611H141.903V53.0363C144.461 52.9322 145.69 52.5157 145.69 50.9538V39.2922H135.147V51.0583C135.147 52.6202 136.376 53.0367 138.934 53.1408V53.7656H124.298V53.1404ZM157.665 53.1404C161.043 53.0363 161.862 52.5157 161.862 51.0579V27.838C161.862 26.3803 161.043 25.8597 157.665 25.7555V25.1308H172.813V25.6514C169.436 25.7555 168.617 26.3803 168.617 27.7339V50.9538C168.617 52.4115 169.436 52.9321 172.813 53.0363V53.661H157.665V53.1404ZM173.837 53.1404C177.113 53.0363 177.932 52.5157 177.932 51.0579V27.838C177.932 26.3803 177.113 25.8597 173.837 25.7555V25.1308H188.678V25.6514C185.301 25.7555 184.686 26.2761 184.686 27.7339V53.036H186.529C192.568 53.036 194.512 50.7452 198.197 42.6234H198.812L198.402 53.7648H173.838L173.837 53.1404ZM199.63 53.1404C202.905 53.0363 203.724 52.5157 203.724 51.0579V27.838C203.724 26.3803 202.905 25.8597 199.63 25.7555V25.1308H214.471V25.6514C211.093 25.7555 210.479 26.2761 210.479 27.7339V53.036H212.321C218.36 53.036 220.305 50.7452 223.99 42.6234H224.604L224.195 53.7648H199.528V53.14L199.63 53.1404Z" fill="white"/>
</g>
<defs>
<clipPath id="clip0_1_65">
<rect width="231" height="47" fill="white" transform="translate(9 16)"/>
</clipPath>
</defs>
</svg>
