<svg width="90" height="22" viewBox="0 0 90 22" fill="none" xmlns="http://www.w3.org/2000/svg">
<path d="M8.76416 7.0694C8.76416 4.71294 10.3793 3.16185 12.0543 3.16185C13.161 3.16185 13.9984 3.72859 14.477 4.47431L14.6864 3.34082H16.481V10.7383H14.6864L14.477 9.60483C13.9984 10.3804 13.161 10.9173 12.0543 10.9173C10.3793 10.9471 8.76416 9.3662 8.76416 7.0694ZM14.4172 7.03957C14.4172 5.90609 13.6694 5.07088 12.6824 5.07088C11.6654 5.07088 10.9177 5.90609 10.9177 7.03957C10.9177 8.17306 11.6654 9.00826 12.6824 9.00826C13.6694 9.00826 14.4172 8.20289 14.4172 7.03957Z" fill="#ffffff"/>
<path d="M21.8047 9.00822C22.373 9.00822 23.0311 8.91873 23.6592 8.44147V10.4102C23.061 10.7383 22.2534 10.9173 21.4757 10.9173C19.2624 10.9173 17.5874 9.3065 17.5874 7.03953C17.5874 4.80238 19.3222 3.19164 21.4757 3.19164C22.2235 3.19164 23.0311 3.34078 23.6592 3.72855V5.69724C23.061 5.27964 22.4328 5.1305 21.8047 5.1305C20.6981 5.1305 19.7708 5.87621 19.7708 7.09919C19.7708 8.29233 20.6981 9.00822 21.8047 9.00822Z" fill="#ffffff"/>
<path d="M28.6241 9.00822C29.1924 9.00822 29.8504 8.91873 30.4785 8.44147V10.4102C29.8803 10.7383 29.0727 10.9173 28.2951 10.9173C26.0817 10.9173 24.4067 9.3065 24.4067 7.03953C24.4067 4.80238 26.1415 3.19164 28.2951 3.19164C29.0428 3.19164 29.8504 3.34078 30.4785 3.72855V5.69724C29.8803 5.27964 29.2522 5.1305 28.6241 5.1305C27.5174 5.1305 26.5902 5.87621 26.5902 7.09919C26.5603 8.29233 27.5174 9.00822 28.6241 9.00822Z" fill="#ffffff"/>
<path d="M31.2261 7.03957C31.2261 4.74277 32.9609 3.16185 35.1144 3.16185C37.3277 3.16185 39.0027 4.71294 39.0027 7.03957C39.0027 9.30655 37.3277 10.9173 35.1144 10.9173C32.931 10.9471 31.2261 9.33638 31.2261 7.03957ZM36.8492 7.03957C36.8492 5.78677 35.9818 5.07088 35.1144 5.07088C34.2171 5.07088 33.3796 5.78677 33.3796 7.03957C33.3796 8.29238 34.2171 9.00826 35.1144 9.00826C35.9818 9.00826 36.8492 8.29238 36.8492 7.03957Z" fill="#ffffff"/>
<path d="M39.9897 7.75544V3.37064H42.1134V7.75544C42.1134 8.59064 42.5321 9.00824 43.3397 9.00824C44.1473 9.00824 44.5959 8.59064 44.5959 7.72561V3.37064H46.7195V7.75544C46.7195 9.63465 45.4334 10.9471 43.3397 10.9471C41.2759 10.9471 39.9897 9.60482 39.9897 7.75544Z" fill="#ffffff"/>
<path d="M54.8859 5.81655V10.7383H52.7623V6.41313C52.7623 5.51827 52.3436 5.10067 51.5958 5.10067C50.848 5.10067 50.3097 5.63758 50.3097 6.35347V10.7383H48.186V3.37061H49.8311L50.0405 4.41461H50.1003C50.519 3.72855 51.3266 3.19164 52.3136 3.19164C53.8989 3.19164 54.8859 4.17598 54.8859 5.81655Z" fill="#ffffff"/>
<path d="M58.8035 3.37061H60.7776V5.13049H58.8035V7.78524C58.8035 8.70993 59.4017 9.06787 60.2392 9.06787C60.4486 9.06787 60.658 9.03805 60.8972 8.97839V10.7681C60.5981 10.8576 60.2691 10.8874 59.7307 10.8874C57.7567 10.8874 56.7098 9.7241 56.7098 7.87473V5.10067H55.6929V3.34078H56.7696V1.61072H58.8035V3.37061Z" fill="#ffffff"/>
<path d="M61.4961 7.0694C61.4961 4.71294 63.1112 3.16185 64.7862 3.16185C65.8929 3.16185 66.7304 3.72859 67.2089 4.47431L67.4183 3.34082H69.2129V10.7383H67.4183L67.2089 9.60483C66.7304 10.3804 65.8929 10.9173 64.7862 10.9173C63.1112 10.9471 61.4961 9.3662 61.4961 7.0694ZM67.1192 7.03957C67.1192 5.90609 66.3714 5.07088 65.3844 5.07088C64.3675 5.07088 63.6197 5.90609 63.6197 7.03957C63.6197 8.17306 64.3675 9.00826 65.3844 9.00826C66.3714 9.00826 67.1192 8.20289 67.1192 7.03957Z" fill="#ffffff"/>
<path d="M72.8604 4.44446C73.3091 3.69875 74.2662 3.19166 75.2233 3.19166C76.9581 3.19166 78.4536 4.71292 78.4536 7.06938C78.4536 9.42584 76.8684 10.9471 75.1336 10.9471C74.0568 10.9471 73.2194 10.3804 72.7408 9.63465L72.5314 10.7085H70.7368V0H72.8604V4.44446ZM72.8305 7.03956C72.8305 8.20287 73.5484 9.00824 74.5653 9.00824C75.5823 9.00824 76.3001 8.20287 76.3001 7.06938C76.3001 5.93589 75.5524 5.10069 74.5653 5.10069C73.5484 5.10069 72.8305 5.90607 72.8305 7.03956Z" fill="#ffffff"/>
<path d="M79.6206 0.0596619H81.7442V10.7383H79.6206V0.0596619Z" fill="#ffffff"/>
<path d="M89.9401 7.66592H84.9152C85.1844 8.73975 86.1416 9.24684 87.2482 9.24684C88.0558 9.24684 88.8335 8.97838 89.5513 8.50113V10.2312C88.8036 10.6488 87.9362 10.8874 86.979 10.8874C84.3769 10.8874 82.8813 9.27667 82.8813 7.03952C82.8813 4.68306 84.5264 3.13197 86.5902 3.13197C88.4745 3.13197 90 4.41461 90 6.89038C89.9701 7.18867 89.9701 7.42729 89.9401 7.66592ZM87.9661 6.38329C87.9661 5.42878 87.3679 4.86203 86.5603 4.86203C85.7527 4.86203 85.0648 5.42878 84.8554 6.38329H87.9661Z" fill="#ffffff"/>
<path d="M65.2045 14.0492H67.1786V15.8091H65.2045V18.4639C65.2045 19.3886 65.8027 19.7465 66.6402 19.7465C66.8496 19.7465 67.059 19.7167 67.2982 19.657V21.4467C66.9991 21.5362 66.6701 21.5661 66.1317 21.5661C64.1577 21.5661 63.1108 20.4027 63.1108 18.5534V15.8091H62.064V14.0492H63.1407V12.3192H65.1746L65.2045 14.0492Z" fill="#ffffff"/>
<path d="M74.9255 18.3148H69.9006C70.1698 19.3886 71.1269 19.8957 72.2336 19.8957C73.0411 19.8957 73.8188 19.6272 74.5367 19.15V20.88C73.7889 21.2976 72.9215 21.5363 71.9644 21.5363C69.3622 21.5363 67.8667 19.9255 67.8667 17.6884C67.8667 15.3319 69.5118 13.7808 71.5756 13.7808C73.4599 13.7808 74.9853 15.0635 74.9853 17.5392C74.9853 17.8673 74.9853 18.1358 74.9255 18.3148ZM72.9514 17.062C72.9514 16.1075 72.3532 15.5407 71.5456 15.5407C70.7381 15.5407 70.0501 16.1075 69.8408 17.062H72.9514Z" fill="#ffffff"/>
<path d="M79.92 19.6869C80.4883 19.6869 81.1463 19.5974 81.7744 19.1201V21.0888C81.1762 21.4169 80.3686 21.5959 79.591 21.5959C77.3776 21.5959 75.7026 19.9852 75.7026 17.7182C75.7026 15.481 77.4374 13.8703 79.591 13.8703C80.3387 13.8703 81.1463 14.0194 81.7744 14.4072V16.3759C81.1762 15.9583 80.5481 15.8091 79.92 15.8091C78.8133 15.8091 77.8861 16.5549 77.8861 17.7778C77.8562 18.971 78.8133 19.6869 79.92 19.6869Z" fill="#ffffff"/>
<path d="M85.1543 14.7651C85.573 14.2282 86.2908 13.8703 87.1582 13.8703C88.7435 13.8703 89.7604 14.795 89.7604 16.4952V21.4169H87.6368V17.0918C87.6368 16.1969 87.248 15.7793 86.4703 15.7793C85.7225 15.7793 85.1842 16.2267 85.1842 17.0023V21.4169H83.0605V12.1402H85.1842L85.1543 14.7651Z" fill="#ffffff"/>
<path d="M2.54199 3.22148H4.66561V10.4698H2.54199V3.22148Z" fill="#ffffff"/>
<path d="M7.23826 5.78671V7.90455H0V5.78671H7.23826Z" fill="#ffffff"/>
</svg>
