<svg id="Layer_1" data-name="Layer 1" xmlns="http://www.w3.org/2000/svg" viewBox="0 0 695.94 459.86"><defs><style>.cls-1{fill:#455a64;}.cls-2{fill:#e0e0e0;}.cls-3{opacity:0.6;}.cls-4{fill:#fff;}.cls-5{fill:#263238;}.cls-6{fill:#39c0c8;}.cls-7{opacity:0.3;}.cls-8{fill:#ffbe9d;}.cls-9{fill:#eb996e;}</style></defs><g id="freepik--Character--inject-548"><path class="cls-1" d="M323.84,364.91l-6.44,21.17s-23.68.56-25.25,4.35l40.6,14,11.38-32.57Z"/><path class="cls-2" d="M330.56,388.63a1.75,1.75,0,0,1,.49,2.29,1.7,1.7,0,0,1-2.26.51,1.86,1.86,0,0,1-.51-2.42,1.73,1.73,0,0,1,2.41-.27"/><g class="cls-3"><path class="cls-4" d="M332.75,404.4l1-3.33-39.31-12.14s-2.07.16-2.31,1.5Z"/></g><path class="cls-5" d="M316.81,385.64c-.06.2.9.63,1.66,1.61s1,2,1.2,2,.31-1.27-.63-2.43S316.83,385.45,316.81,385.64Z"/><path class="cls-5" d="M312,385.94c-.11.18.63.81,1,1.88s.27,2,.47,2.08.71-1,.21-2.34S312,385.75,312,385.94Z"/><path class="cls-5" d="M307.78,390.2c.17.11.78-.79.65-2.05s-.92-2-1.06-1.87.24.91.33,2S307.59,390.12,307.78,390.2Z"/><path class="cls-5" d="M318.82,381c0,.21,1,.25,2.12.71s1.84,1.12,2,1-.43-1.13-1.73-1.65S318.77,380.79,318.82,381Z"/><path class="cls-1" d="M294.66,336.81l-13,17.93s-22.57-7.16-25.29-4.08l33.86,26.39,21.35-27.11Z"/><path class="cls-2" d="M293.31,361.43a1.76,1.76,0,0,1-.27,2.32,1.7,1.7,0,0,1-2.31-.25A1.84,1.84,0,0,1,291,361a1.75,1.75,0,0,1,2.37.53"/><g class="cls-3"><path class="cls-4" d="M290.26,377.05l2.05-2.82L259.07,350s-2-.52-2.67.67Z"/></g><path class="cls-5" d="M281.28,354.14c-.12.17.64.89,1,2s.3,2.2.5,2.25.7-1.09.19-2.49S281.36,354,281.28,354.14Z"/><path class="cls-5" d="M276.58,352.84c-.16.13.34,1,.35,2.11s-.39,2-.22,2.12,1-.73,1-2.14S276.71,352.69,276.58,352.84Z"/><path class="cls-5" d="M271.25,355.54c.13.15,1-.5,1.28-1.73s-.21-2.2-.39-2.12-.07.94-.32,1.95S271.1,355.37,271.25,355.54Z"/><path class="cls-5" d="M284.69,350.38c-.05.2.89.57,1.77,1.36s1.38,1.65,1.58,1.58,0-1.21-1.1-2.13S284.71,350.19,284.69,350.38Z"/><polygon class="cls-6" points="423.77 278.47 440.05 283.08 438.19 269.55 434.01 267.36 427.64 266.37 424.02 269.28 422.86 273.07 423.77 278.47"/><g class="cls-7"><polygon points="423.81 278.35 440.05 283.08 438.19 269.55 434.01 267.36 427.64 266.37 424.02 269.28 422.86 273.07 423.81 278.35"/></g><path class="cls-8" d="M426.59,238.54s10.7,6.17,15.62,7.14,19.88,5,19.88,5l16.8-21.22s-32.41-1.16-36.94-4-30-34-30-34l-6.86,7.07S424.59,237.46,426.59,238.54Z"/><path class="cls-6" d="M460.38,251.38l.2-25,28.18-3.9s5.82-1.65,8-.15S486,241.09,486,241.09Z"/><path class="cls-5" d="M595.57,156.36c-.48-4.34-4.19-7.86-8.39-9s-8.74-.31-12.74,1.43c1-3.23-1.82-6.72-5.14-7.37s-6.71.88-9.33,3a21.57,21.57,0,0,0-7.78,17c.09,3.2.91,6.33,1.21,9.52s0,6.6-1.83,9.21-5.65,4-8.4,2.4l-.62,9.28a28.6,28.6,0,0,0,25.68.26c3.45-1.73,6.88-4.94,6.34-8.76-.17-1.18-.71-2.29-.85-3.47-.31-2.65,1.47-5.16,3.68-6.65s4.83-2.21,7.3-3.2a20.52,20.52,0,0,0,7.8-5.08A11.27,11.27,0,0,0,595.57,156.36Z"/><path class="cls-5" d="M524.76,221.54A12.16,12.16,0,0,0,544.12,219c1.73-3.08,2.17-7,4.82-9.32,1.82-1.61,4.39-2.17,6.13-3.86,2.6-2.51,2.57-6.61,2.36-10.22a23.45,23.45,0,0,0-1.08-6.85,7.92,7.92,0,0,0-4.59-4.91"/><path class="cls-5" d="M520,165.54c-1.19,2.4-3.91,3.55-6.45,4.37s-5.29,1.62-7,3.7c-3,3.69-1.22,9.77-4.38,13.28-1.7,1.88-4.47,2.57-6,4.55s-1.62,4.62-1.17,7,1.37,4.74,1.58,7.18c0,0,.09,5.7,9.55,7.65"/><path class="cls-5" d="M553.2,189.81c1.29-2.05.31-4.79-1.18-6.69s-3.47-3.46-4.52-5.64c-.92-1.92-1-4.13-1.52-6.21a14.87,14.87,0,0,0-25-6.81c-2.49,2.53-4,6.33-2.87,9.68,1.37,3.88,5.69,5.74,9.58,7.07s8.23,3,9.93,6.69c1,2.26.85,4.85.83,7.34s.21,5.16,1.82,7,5.07,2.3,6.4.21"/><path class="cls-8" d="M544.74,185.41a4,4,0,0,1,1,5.36h0L516,236.54c-3.36,5.5-13.31,3.84-19.17.2h0c-5.93-3.67-4.39-6.73-1.35-12.06,5.07-8.9,7-12.2,7-12.16s-6.83-5.74-2.55-16.55c2.12-5.38,7.14-13.29,11.45-19.64,3.89-5.71,12.12-10.66,17.66-6.54Z"/><path class="cls-5" d="M509,184.67a1.47,1.47,0,0,0,.46,2,1.42,1.42,0,0,0,2-.32l0,0a1.48,1.48,0,0,0-.47-2,1.42,1.42,0,0,0-2,.33Z"/><path class="cls-5" d="M511,180.33c.06.26,1.44.12,2.8.93s2,2.09,2.2,2,.14-.43-.11-1a4.07,4.07,0,0,0-1.65-1.81,3.87,3.87,0,0,0-2.35-.53C511.26,180,511,180.21,511,180.33Z"/><path class="cls-5" d="M521.57,192.54a1.47,1.47,0,0,0,.47,2,1.38,1.38,0,0,0,2-.31l0-.06a1.48,1.48,0,0,0-.46-2,1.41,1.41,0,0,0-2,.31Z"/><path class="cls-5" d="M524.32,189.1c.06.26,1.44.12,2.8.93s2,2.08,2.21,2,.13-.42-.12-1a4.05,4.05,0,0,0-1.64-1.81,4,4,0,0,0-2.35-.54C524.61,188.77,524.29,189,524.32,189.1Z"/><path class="cls-5" d="M513,197a9.9,9.9,0,0,0-2-1.71c-.32-.25-.61-.51-.53-.78a2.35,2.35,0,0,1,.84-.9l2.6-2c3.67-2.93,6.54-5.42,6.42-5.57s-3.18,2.11-6.85,5L511,193.09a2.44,2.44,0,0,0-1,1.26,1,1,0,0,0,.28.85,2.54,2.54,0,0,0,.54.44A10.34,10.34,0,0,0,513,197Z"/><path class="cls-9" d="M502.49,212.54a29.2,29.2,0,0,0,15.33,4.31s-7.36,4.82-16.71-2Z"/><path class="cls-5" d="M525.68,185.43c-.09.45,1.38,1.08,2.87,2.22s2.52,2.34,2.93,2.13c.19-.1.17-.58-.14-1.25a6.33,6.33,0,0,0-4.42-3.32C526.19,185.1,525.72,185.22,525.68,185.43Z"/><path class="cls-5" d="M513,177.43c.09.47,1.35.78,2.64,1.52s2.24,1.61,2.68,1.43c.21-.09.22-.5-.08-1.08a5,5,0,0,0-4.29-2.38C513.27,177,513,177.2,513,177.43Z"/><path class="cls-5" d="M532.48,222a10.18,10.18,0,0,1-6.31-12.95,9.9,9.9,0,0,1,1.58-2.93c1.74-2.25,4.51-4,5-6.74.67-3.7-3-7.15-2.38-10.85.38-2.15,2.18-3.87,2.45-6s-.9-4-2.21-5.56-2.85-3-3.61-5-.42-4.47,1.38-5.47a108.72,108.72,0,0,1,18.57,18c1.26,1.56,2.53,3.28,2.64,5.28s-1.08,4-2.24,5.82l-17,25.9"/><path class="cls-6" d="M557.21,194.54c-.19,0-.22-3.38-2.26-6.89s-4.9-5.31-4.77-5.46a5.51,5.51,0,0,1,1.87,1.13,14.29,14.29,0,0,1,5.14,9A5.72,5.72,0,0,1,557.21,194.54Z"/><path class="cls-1" d="M550,181.41a2,2,0,0,1-.31.21,4,4,0,0,1-1,.3,5,5,0,0,1-3.7-1.2,9.58,9.58,0,0,1-2.78-5.08c-.57-2.1-.82-4.51-2-6.61a9,9,0,0,0-5.25-4.07,8.64,8.64,0,0,0-5.48.23,9.24,9.24,0,0,0-3.21,2c-.65.62-1,1-1,1a.58.58,0,0,1,.17-.33,5.87,5.87,0,0,1,.66-.83,9.07,9.07,0,0,1,3.22-2.22,8.8,8.8,0,0,1,5.77-.37,9.47,9.47,0,0,1,5.62,4.29c1.29,2.27,1.51,4.72,2.05,6.77a9.31,9.31,0,0,0,2.53,4.9,5,5,0,0,0,3.42,1.29A7.06,7.06,0,0,0,550,181.41Z"/><path class="cls-9" d="M511.55,200.59a7.51,7.51,0,0,0-.14,2.17,2.59,2.59,0,0,0,1,1.84,2.28,2.28,0,0,0,2.22.08,3.78,3.78,0,0,0,1.6-1.64c.32-.62.47-1.5-.09-1.92a1.73,1.73,0,0,0-.82-.27l-3.9-.58"/><path class="cls-5" d="M511.28,203.92a4.93,4.93,0,0,0,1.8.79,2.82,2.82,0,0,0,2-.41,3,3,0,0,0,1.25-2,3.32,3.32,0,0,0,0-.63c0-.2,0-.18-.17-.24a3.65,3.65,0,0,0-.62-.1l-.64-.1c-.84-.12-1.59-.24-2.22-.35a7.23,7.23,0,0,1-2-.49,6.6,6.6,0,0,1,2.08,0c.64,0,1.39.13,2.23.22l.65.07a5.77,5.77,0,0,1,.71.1.81.81,0,0,1,.46.29,1.18,1.18,0,0,1,.19.48,3.57,3.57,0,0,1,0,.8,3.49,3.49,0,0,1-1.58,2.47,3.15,3.15,0,0,1-2.36.35,3,3,0,0,1-1.39-.75C511.33,204.14,511.25,204,511.28,203.92Z"/><path class="cls-5" d="M284.5,348.69s42.11-63.65,47.59-70.95,10.93-13.37,24.32-9.49c6.54,1.9,73,19.53,73,19.53h0l10.93-1.66,37.28,29.42S455,341.81,426.53,331.16c-28.73-10.74-71-29.07-71-29.07S335.76,324.09,329,333c-7.06,9.31-24.68,27.56-24.68,27.56Z"/><path class="cls-5" d="M432.13,275.87c-1.61.59-95.79,16-95.79,16l-19,87.47,22.65,7,24.53-71.1,33.43,2.3,42.43-31.4Z"/><path class="cls-6" d="M432,264.42l10.38,1,13.36-3.14s6.78-16.29,10.15-23.19,30.46-17.55,30.46-17.55l25.94,3.67,7.51,3.23L521.29,259l-23,34.45L476,320.15s-42.08-37.51-43.77-43.61c-1.43-5.22.61-8-3-9.72-1.27-.6-3,.63-3.6,1.61-1.36,2.16-2.79,3.35-2,9.11a8.8,8.8,0,0,1-.92-5.09,12.32,12.32,0,0,1,2-4.39A8.38,8.38,0,0,1,432,264.42Z"/><g class="cls-7"><path d="M479.19,246.62c-2.82,3.41-5.46,8.26-5.44,12.69a52.7,52.7,0,0,1,.1,5.62c-.19,2-.89,3.84-1.09,5.79a22.66,22.66,0,0,0,.77,7.19,16.47,16.47,0,0,0,1.6,4.93,40.84,40.84,0,0,0,3,3.81c2.12,2.78,3.15,6.21,4.64,9.37s3.74,6.27,7.07,7.31c1.58-1.36,3.26-2.9,3.52-5a8.16,8.16,0,0,0-.85-4A117.7,117.7,0,0,0,480.62,272a32.76,32.76,0,0,1-3.52-7.45c-2-5.79.17-12.49,2.1-17.95"/></g><path class="cls-5" d="M480.68,269.8a3.69,3.69,0,0,1-.84-.63A9.67,9.67,0,0,1,478,267a15.57,15.57,0,0,1-2.07-9.12,31.59,31.59,0,0,1,2.26-9.13c.44-1.11.82-2,1.1-2.62a4.1,4.1,0,0,1,.48-.93,38.73,38.73,0,0,1-1.23,3.68,34.76,34.76,0,0,0-2.09,9,16.2,16.2,0,0,0,1.88,8.9A17.3,17.3,0,0,0,480.68,269.8Z"/><path class="cls-8" d="M379.79,178.82l11.47-4.9,9.48,3.55,13.49,16.93-7,7.36-2.18-3.17s-6.79-2.53-8.12-4.89a43.21,43.21,0,0,0-3.31-4.85L391.09,187s-6.91,2.22-8.83.76l-.85-.82,7.23-3-.05-1.91s-5.57,3.24-8.76,2.07l-.88-1.48,5.93-2.36s-3.54.73-4.25,0A3.18,3.18,0,0,1,379.79,178.82Z"/><path class="cls-9" d="M399.33,182.72s.06.08,0,.27a1,1,0,0,1-.47.62,1.36,1.36,0,0,1-1.24,0,10.34,10.34,0,0,1-1.38-.77c-1-.59-2.17-1.26-3.53-1.93-.68-.34-1.4-.67-2.15-1a3.54,3.54,0,0,0-2.29-.49,1.25,1.25,0,0,0-.81.64,1,1,0,0,0,.15,1,17,17,0,0,0,1.62,1.67l2.89,2.83c.82.82,1.47,1.48,1.92,2s.68.73.65.76a3.67,3.67,0,0,1-.79-.62c-.49-.42-1.18-1-2-1.82l-3-2.75-.85-.8a5.11,5.11,0,0,1-.86-.94A1.49,1.49,0,0,1,387,180a1.71,1.71,0,0,1,1.14-.94,4,4,0,0,1,2.64.52c.76.34,1.48.69,2.16,1,1.36.71,2.54,1.42,3.51,2.05a10.74,10.74,0,0,0,1.29.81,1.17,1.17,0,0,0,1,.06A.89.89,0,0,0,399.33,182.72Z"/><path class="cls-9" d="M398.3,182.38a7.5,7.5,0,0,1-2-1,32.92,32.92,0,0,1-4.41-3.09l-.36-.3h.26c-1.85.71-3.52,1.32-4.73,1.73a7.75,7.75,0,0,1-2,.57,9.12,9.12,0,0,1,1.86-.9c1.18-.5,2.82-1.17,4.67-1.88l.15-.06.12.1.36.3C395.41,180.59,398.37,182.24,398.3,182.38Z"/><path class="cls-8" d="M509.24,260.08l-7.9,24.72-4.46-4.4-9.36,4.77,5.07,21s5.66,7.88,12.23,7.39,7.82-4.57,9.89-9.51,13.5-35.73,13.5-35.73S512.1,259.85,509.24,260.08Z"/><path class="cls-8" d="M473.53,268.8s12.11-4.95,13.37-4.57l10.31,3.18a3.23,3.23,0,0,1,.53,3.74s1.64,4.09.77,6.42l-.87,2.33a4.65,4.65,0,0,1-.16,3.55c-1.44,2.78-1.24,3.49-2.43,3.89s-7.77-1-7.77-1-8.44-1.8-8.93-2.8.56-1.81.56-1.81h7l-1.12-1.19-4.13-1s-4.25,1.33-6.42-.29a1,1,0,0,1-.16-1.36l1.08-1.32a3.71,3.71,0,0,1-3-3.61l3.39-1.08S471.36,270.88,473.53,268.8Z"/><path class="cls-9" d="M492.3,270.54a45.15,45.15,0,0,0-8.21-.47,44.2,44.2,0,0,0-8.06,1.58,7.65,7.65,0,0,1,2.24-1,23.29,23.29,0,0,1,5.79-1.13,24.21,24.21,0,0,1,5.89.33A8.14,8.14,0,0,1,492.3,270.54Z"/><path class="cls-9" d="M493.05,276.94a21,21,0,0,1-2.63-.5,36.81,36.81,0,0,0-6.36-.67,37.86,37.86,0,0,0-6.38.5,23.44,23.44,0,0,1-2.64.44,10,10,0,0,1,2.57-.8,28,28,0,0,1,6.45-.66,28.56,28.56,0,0,1,6.44.83A10.09,10.09,0,0,1,493.05,276.94Z"/><path class="cls-9" d="M493.22,283.37a15.87,15.87,0,0,1-4-.54,16.32,16.32,0,0,1-3.9-1,15,15,0,0,1,4,.53A15.88,15.88,0,0,1,493.22,283.37Z"/><path class="cls-9" d="M513.8,298.19a3.15,3.15,0,0,1-.72-.59c-.44-.4-1-1-1.78-1.78-1.47-1.54-3.37-3.77-5.61-6.09s-4.23-4.49-5.66-6.06a23.29,23.29,0,0,1-2.24-2.62,23.2,23.2,0,0,1,2.5,2.36c1.5,1.51,3.51,3.62,5.77,6s4.12,4.61,5.51,6.2A32.22,32.22,0,0,1,513.8,298.19Z"/><path class="cls-6" d="M529.1,228.14a12.31,12.31,0,0,1,6.36,12.24c-.89,8.73-4.79,30.21-4.79,30.21l-24.78-11.52L510.3,242S522.47,226.78,529.1,228.14Z"/><path class="cls-5" d="M487.41,226a1.85,1.85,0,0,1-.44.23l-1.31.58c-1.14.5-2.8,1.19-4.82,2.1a57,57,0,0,0-6.89,3.59c-1.24.77-2.51,1.63-3.78,2.58a16.66,16.66,0,0,0-3.54,3.32,37.62,37.62,0,0,0-4.58,8.28c-1.14,2.69-2.05,5.17-2.85,7.25s-1.44,3.75-2,4.87c-.25.57-.49,1-.64,1.29a2.34,2.34,0,0,1-.26.43,17.24,17.24,0,0,1,.71-1.8c.47-1.14,1.07-2.83,1.82-4.92s1.62-4.59,2.75-7.31a36.61,36.61,0,0,1,4.61-8.41,16.84,16.84,0,0,1,3.64-3.41q1.95-1.43,3.84-2.58a54.6,54.6,0,0,1,7-3.53c2.05-.87,3.73-1.5,4.89-1.94l1.35-.49A1.76,1.76,0,0,1,487.41,226Z"/><path class="cls-5" d="M530.67,270.59a11.83,11.83,0,0,1-1.65-.66l-4.42-2c-3.73-1.68-8.85-4-14.5-6.66l-4.32-2-.18-.09V259c1.09-5,2.1-9.31,2.88-12.4.39-1.54.72-2.77,1-3.61a7.13,7.13,0,0,1,.43-1.28,8.65,8.65,0,0,1-.25,1.33c-.21.93-.49,2.15-.82,3.64-.69,3.19-1.63,7.51-2.7,12.43l-.14-.29,4.32,2c5.65,2.62,10.75,5,14.43,6.79l4.35,2.12A12.1,12.1,0,0,1,530.67,270.59Z"/><path class="cls-5" d="M529.61,228.38c0,.08-.91-.07-2.35-.06a17.31,17.31,0,0,0-5.52,1,16.7,16.7,0,0,0-4.9,2.72c-1.13.9-1.73,1.58-1.8,1.52a6.73,6.73,0,0,1,1.56-1.8A15,15,0,0,1,527.27,228,6.22,6.22,0,0,1,529.61,228.38Z"/><path class="cls-1" d="M440.23,291.72c0,.13-8-2-17.84-4.86s-17.75-5.21-17.71-5.35,8,2,17.85,4.85S440.27,291.54,440.23,291.72Z"/><path class="cls-1" d="M284.5,348.69l.36.19,1,.59,4,2.32,14.56,8.63h-.23c9.61-10.71,22.94-25.59,37.23-42.4,5.29-6.27,10.34-12.35,14.73-18.16l.11-.15.18.07c7.56,3.07,14.39,6.4,20.49,9.4s11.45,5.71,15.93,7.88,8.09,3.81,10.58,4.9l2.86,1.24.74.32.24.13-.26-.09-.75-.28c-.66-.27-1.64-.63-2.89-1.17-2.52-1-6.14-2.64-10.65-4.77s-9.89-4.79-16-7.78-12.94-6.28-20.49-9.32l.29-.08c-4.38,5.83-9.43,11.93-14.73,18.19-14.29,16.82-27.66,31.66-37.35,42.31l-.1.11-.13-.07-14.48-8.78-3.92-2.4-1-.64A1.5,1.5,0,0,1,284.5,348.69Z"/><path class="cls-1" d="M356.39,300.09a27.75,27.75,0,0,1-1.23-3.88A26.48,26.48,0,0,1,354,292.3a11.77,11.77,0,0,1,1.63,3.76A11.54,11.54,0,0,1,356.39,300.09Z"/><path class="cls-4" d="M479.53,245.75a7.33,7.33,0,0,1-2.37.31,17,17,0,0,1-10.81-3.69,6.66,6.66,0,0,1-1.68-1.71,24.85,24.85,0,0,0,6.93,4A25.33,25.33,0,0,0,479.53,245.75Z"/><path class="cls-4" d="M507.12,248.54c0,.08-1.5-.5-3.94-1.17a44.6,44.6,0,0,0-9.74-1.51,43.81,43.81,0,0,0-9.83.73c-2.49.47-4,.93-4,.84a4,4,0,0,1,1-.41,29.06,29.06,0,0,1,2.91-.79,38.69,38.69,0,0,1,19.75.79,26.59,26.59,0,0,1,2.84,1A4.2,4.2,0,0,1,507.12,248.54Z"/><path class="cls-4" d="M534.47,247.67c0,.14-5.76-.33-12.84-1.06s-12.8-1.44-12.78-1.58,5.76.33,12.84,1.06S534.48,247.54,534.47,247.67Z"/><path class="cls-4" d="M474.17,232.12a11.18,11.18,0,0,1-1.13-3.23,12,12,0,0,1-.63-3.36A21.8,21.8,0,0,1,474.17,232.12Z"/><path class="cls-9" d="M497.28,279.32a2.07,2.07,0,0,1,.62,1.28,3.88,3.88,0,0,1-1.07,3.47l.06-.28a2.27,2.27,0,0,1-1,2.95,4.14,4.14,0,0,1-1.65.41h-1.53a19.88,19.88,0,0,1-2.56-.16,7.38,7.38,0,0,1-2.31-.52,23,23,0,0,1,2.34.15c.72,0,1.58.07,2.53.05a7.53,7.53,0,0,0,2.94-.43,1.78,1.78,0,0,0,.78-2.28l-.08-.16.14-.13a3.7,3.7,0,0,0,1.1-3.07C497.51,280.17,497.4,279.74,497.28,279.32Z"/><path class="cls-1" d="M556,190.39a5,5,0,0,1-.55,1.11,12.14,12.14,0,0,1-2.14,2.64,14.1,14.1,0,0,1-4.22,2.77A13.69,13.69,0,0,1,543,198a13.54,13.54,0,0,1-5.91-1.8,14.15,14.15,0,0,1-3.86-3.24,11.84,11.84,0,0,1-1.81-2.88,4.4,4.4,0,0,1-.41-1.17,20,20,0,0,0,2.49,3.81,14.55,14.55,0,0,0,3.83,3.06,13.06,13.06,0,0,0,11.57.69,14.38,14.38,0,0,0,4.16-2.59A20.38,20.38,0,0,0,556,190.39Z"/><path class="cls-1" d="M556.17,191.54a1.73,1.73,0,0,0,.08.42,6.44,6.44,0,0,1,.06,1.24,11.94,11.94,0,0,1-1.1,4.43,21.3,21.3,0,0,1-3.82,5.57c-1.7,1.89-3.75,3.78-5.6,6s-3.44,4.54-5.23,6.37a14.75,14.75,0,0,1-5.6,3.78,8.86,8.86,0,0,1-4.53.47,5,5,0,0,1-1.2-.33,1.38,1.38,0,0,1-.39-.18c0-.06.57.18,1.62.31a9.2,9.2,0,0,0,4.37-.61,14.51,14.51,0,0,0,5.38-3.77c1.74-1.81,3.32-4.1,5.18-6.37s4-4.15,5.64-6a22.33,22.33,0,0,0,3.85-5.4,12.52,12.52,0,0,0,1.22-4.28C556.19,192.16,556.12,191.54,556.17,191.54Z"/><path class="cls-1" d="M572.13,148.24s-.6.17-1.63.6a12.87,12.87,0,0,0-3.9,2.56,12.47,12.47,0,0,0-3.45,5.9c-.67,2.53-.22,5.45.07,8.49a19.38,19.38,0,0,1-1,8.61,19.68,19.68,0,0,1-3.56,6.12,16.83,16.83,0,0,1-3.55,3.19,10.55,10.55,0,0,1-1.11.67,1.73,1.73,0,0,1-.41.2l1.4-1a19,19,0,0,0,3.39-3.25,19.8,19.8,0,0,0,3.38-6.05,19,19,0,0,0,.91-8.4c-.29-3-.74-6,0-8.66a12.73,12.73,0,0,1,3.66-6,12.13,12.13,0,0,1,4.08-2.48,8.9,8.9,0,0,1,1.25-.35A1.24,1.24,0,0,1,572.13,148.24Z"/><path class="cls-1" d="M594,156.54s-.75-.35-2.14-.85a18.34,18.34,0,0,0-6.14-1,17.28,17.28,0,0,0-8.77,2.47,17.49,17.49,0,0,0-8.31,14.18c-.12,1.9-.09,3.75-.29,5.52a13.26,13.26,0,0,1-1.42,4.84,13.43,13.43,0,0,1-8.13,6.63,10.72,10.72,0,0,1-1.69.32,2,2,0,0,1-.6,0c0-.05.82-.11,2.23-.55a13.48,13.48,0,0,0,5.28-3.2,12.72,12.72,0,0,0,3.85-8.12c.19-1.73.15-3.57.26-5.5a17.8,17.8,0,0,1,8.58-14.56,17.57,17.57,0,0,1,15.22-1.26,13,13,0,0,1,1.56.73A2.89,2.89,0,0,1,594,156.54Z"/></g></svg>