<svg id="Layer_1" data-name="Layer 1" xmlns="http://www.w3.org/2000/svg" viewBox="0 0 695.94 460.12"><defs><style>.cls-1{fill:#ebebeb;}.cls-2{fill:#263238;}.cls-3{fill:#fff;}.cls-4{fill:#39c0c8;}.cls-5{opacity:0.2;}.cls-6{fill:#455a64;}.cls-7{fill:#fafafa;}.cls-8{fill:#f5f5f5;}.cls-9{fill:#e0e0e0;}.cls-10{opacity:0.5;}.cls-11{opacity:0.6;}.cls-12{opacity:0.3;}.cls-13{fill:#ffbe9d;}.cls-14{fill:#eb996e;}</style></defs><g id="freepik--background-simple--inject-548"><path class="cls-1" d="M573.15,8.21l-2.37.69c-20,5.8-35.4,21.85-39.49,42.06a53.56,53.56,0,0,0-1,7.88c-1,19.11,8.43,38.5,24.17,49.72,9.26,6.6,20.81,10.86,27,20.33,8.08,12.32,4.1,28.47-.15,42.48s-8.19,30.18,0,42.47c5.09,7.69,14.09,12.12,23.17,14.06,24,5.11,49.65-5.69,65.84-23.85s23.77-42.63,25.32-66.86c2.18-33.93-7.4-69.34-30-95.15S606.82,1.48,573.15,8.21Z"/><circle class="cls-1" cx="67.95" cy="214.31" r="67.95"/></g><g id="freepik--Floor--inject-548"><path class="cls-2" d="M678.39,459.86c0,.15-148,.26-330.42.26S17.51,460,17.51,459.86s147.93-.26,330.46-.26S678.39,459.72,678.39,459.86Z"/></g><g id="freepik--landing-page--inject-548"><rect class="cls-3" x="65.65" y="44.16" width="556.59" height="380.11" rx="11.97"/><path class="cls-1" d="M499.68,240.54a26.82,26.82,0,0,1,4.6-5.59l-1.77-6.47,9.79-5.23,4.39,5.08a26.89,26.89,0,0,1,7.21-.71l3.32-5.82L537.84,225l-.49,6.69a26.82,26.82,0,0,1,5.59,4.6l6.48-1.78,5.22,9.8-5.07,4.39a27.68,27.68,0,0,1,.7,7.2l5.83,3.33-3.23,10.62-6.69-.49a27.46,27.46,0,0,1-4.6,5.59l1.77,6.47-9.8,5.23-4.39-5.08a26.85,26.85,0,0,1-7.2.71l-3.32,5.83L508,284.9l.48-6.69a27.14,27.14,0,0,1-5.59-4.6l-6.47,1.78-5.23-9.8,5.08-4.39a26.84,26.84,0,0,1-.7-7.2l-5.83-3.32L493,240.05l6.69.49Zm8.92,10.07a15,15,0,1,0,18.71-10h0a15,15,0,0,0-18.69,10Z"/><path class="cls-1" d="M385,117.45a26.14,26.14,0,0,1,4.43-5.4l-1.71-6.25,9.46-5,4.24,4.9a26.17,26.17,0,0,1,7-.68l3.21-5.63,10.26,3.12-.47,6.46a26.4,26.4,0,0,1,5.39,4.44L433,111.7l5.05,9.46-4.91,4.23a26.59,26.59,0,0,1,.69,7l5.61,3.15-3.12,10.25-6.46-.47a25.87,25.87,0,0,1-4.44,5.4l1.71,6.25-9.45,5-4.24-4.9a26.17,26.17,0,0,1-7,.68l-3.2,5.63L393,160.26l.47-6.46a26.79,26.79,0,0,1-5.4-4.44l-6.24,1.71-5.05-9.46,4.9-4.24a26.63,26.63,0,0,1-.68-7l-5.63-3.21L378.49,117l6.46.47Zm8.6,9.71a14.46,14.46,0,1,0,18.09-9.62,14.46,14.46,0,0,0-18.09,9.62Z"/><path class="cls-1" d="M340,205.63a16.54,16.54,0,0,1,2.76-3.36l-1.06-3.89,5.89-3.14,2.64,3a15.77,15.77,0,0,1,4.33-.42l2-3.51,6.38,2-.29,4a16.21,16.21,0,0,1,3.36,2.76l3.89-1.06,3.15,5.89L370,210.54a16.59,16.59,0,0,1,.43,4.33l3.5,2-2,6.4-4-.29a16.58,16.58,0,0,1-2.77,3.36l1.07,3.89-5.89,3.14-2.64-3.05a15.81,15.81,0,0,1-4.33.42l-2,3.51L345,232.31l.29-4a16.14,16.14,0,0,1-3.34-2.77l-3.89,1L335,220.69l3-2.64a15.77,15.77,0,0,1-.42-4.33l-3.51-2,2-6.39,4,.29Zm5.36,6a9,9,0,1,0,11.24-6,9,9,0,0,0-11.24,6v0Z"/><path class="cls-1" d="M434.59,382.45a16.26,16.26,0,0,1,2.77-3.36l-1.07-3.89,5.89-3.14,2.64,3.05a15.77,15.77,0,0,1,4.33-.42l2-3.51,6.38,1.95-.29,4a16.26,16.26,0,0,1,3.36,2.77l3.89-1.07,3.15,5.89-3.06,2.64a16.59,16.59,0,0,1,.43,4.33l3.5,2-1.94,6.38-4-.29a16.26,16.26,0,0,1-2.77,3.36l1.07,3.89L455,410.2l-2.64-3.06a16.41,16.41,0,0,1-4.36.4l-2,3.5-6.39-1.94.29-4a16.26,16.26,0,0,1-3.36-2.77l-3.89,1.07-3.1-5.86,3.05-2.64a16.58,16.58,0,0,1-.42-4.33l-3.51-2,1.95-6.39,4,.29Zm5.36,6.09a9,9,0,1,0,11.24-6,9,9,0,0,0-11.24,6Z"/><rect class="cls-3" x="285.07" y="226.43" width="60.8" height="76.05" transform="matrix(0.33, -0.94, 0.94, 0.33, -38.57, 474.48)"/><path class="cls-2" d="M361.41,248.35l-.35-.11-1-.34-3.92-1.36-14.71-5.11-51.84-18.1.25-.12-20.12,57.37h0l-.14-.28,71.75,25.24-.24.11c6.11-17.26,11.16-31.57,14.7-41.58l4.16-11.6c.48-1.33.84-2.36,1.1-3.06l.39-1.06s-.11.35-.34,1l-1.05,3-4,11.6c-3.51,10.05-8.52,24.42-14.56,41.75l-.06.17-.18-.06-71.76-25.16-.21-.07.07-.21h0c7.28-20.71,14.16-40.29,20.17-57.36l.06-.18.19.06,51.9,18.33,14.58,5.32,3.85,1.38,1,.36Z"/><rect class="cls-4" x="288.85" y="229.08" width="53.15" height="70.71" transform="matrix(0.33, -0.94, 0.94, 0.33, -38.58, 474.42)"/><g class="cls-5"><polygon points="273.25 277.78 307.5 254.79 315.08 279.36 328.53 272.38 339.97 301.21 273.25 277.78"/></g><g class="cls-5"><path d="M329.4,258.2a5.57,5.57,0,1,1-3.41-7.1h0A5.57,5.57,0,0,1,329.4,258.2Z"/></g><path class="cls-6" d="M580.66,357.43a4.39,4.39,0,0,0,2.16-.73,4.13,4.13,0,0,0,1.54-2.23,6.53,6.53,0,0,0,.16-1.76v-2.06c.1-5.85.24-14.25.42-24.61,0-2.6.11-5.32.16-8.16,0-1.41.06-2.86.09-4.33a13,13,0,0,0,0-2.16,3.69,3.69,0,0,0-.94-1.84,3.53,3.53,0,0,0-1.83-1,19.31,19.31,0,0,0-2.28-.08h-4.81l-10-.06-44.7-.33a3.62,3.62,0,0,0-3.57,3.32c0,2-.1,3.88-.15,5.8-.09,3.86-.17,7.67-.26,11.41-.17,7.47-.34,14.68-.5,21.55l-.06,2.56a3.83,3.83,0,0,0,.52,2.24,3.47,3.47,0,0,0,1.7,1.44,6,6,0,0,0,2.31.25l9.47.1,17,.18,24.61.32,6.69.12,1.74.05h.59a2.91,2.91,0,0,1-.59,0H571.7l-24.62-.07-17-.09-9.47-.06a6.62,6.62,0,0,1-2.54-.29,4.1,4.1,0,0,1-2-1.72,4.48,4.48,0,0,1-.64-2.6l.06-2.56c.14-6.87.3-14.08.46-21.56q.12-5.61.24-11.4c0-1.94.1-3.9.15-5.86a4.42,4.42,0,0,1,4.33-4l44.71.39,10,.09h4.81a16.2,16.2,0,0,1,2.41.1,4.11,4.11,0,0,1,2.15,1.19,4.42,4.42,0,0,1,1.1,2.16,12.51,12.51,0,0,1,0,2.29c0,1.47-.08,2.92-.11,4.34q-.11,4.25-.21,8.15c-.28,10.36-.51,18.76-.67,24.61,0,.72,0,1.41-.06,2.05a6.56,6.56,0,0,1-.2,1.82,4.25,4.25,0,0,1-1.68,2.29,3.76,3.76,0,0,1-1.64.61A2.21,2.21,0,0,1,580.66,357.43Z"/><polygon class="cls-6" points="553.24 328.39 561.48 333.48 552.98 338.38 544.48 343.28 544.73 333.28 544.99 323.29 553.24 328.39"/><path class="cls-4" d="M512.05,141.54h.21l.59.16,2.28.61,8.51,2.3-.14.08c.38-1.47.79-3.12,1.24-4.89v-.08h.09a27.35,27.35,0,0,0,8.65-2.94,19.31,19.31,0,0,0,4.13-3.06,13.72,13.72,0,0,0,3.06-4.5,17.1,17.1,0,0,0,.44-11.59,20.55,20.55,0,0,0-7.37-10.19,16.79,16.79,0,0,0-8.91-3.17,18.56,18.56,0,0,0-8.92,1.45,16.68,16.68,0,0,0-6.6,5.25c-.38.57-.82,1.09-1.15,1.67l-1,1.74a20.79,20.79,0,0,0-1.35,3.57,18,18,0,0,0-.53,3.58,16.69,16.69,0,0,0,.26,3.38,18.47,18.47,0,0,0,2.1,5.7,24.56,24.56,0,0,0,5.73,6.82h0c-.44,1.3-.79,2.29-1,3-.12.32-.2.58-.27.76s-.1.26-.1.27a1,1,0,0,1,.07-.25c.06-.19.13-.44.23-.76.23-.7.55-1.71,1-3v.07a23.89,23.89,0,0,1-5.85-6.81,18.26,18.26,0,0,1-2.17-5.76,16.53,16.53,0,0,1-.27-3.44,17.18,17.18,0,0,1,.52-3.64,19.92,19.92,0,0,1,1.35-3.64l1-1.77c.33-.59.78-1.12,1.17-1.7a17,17,0,0,1,6.72-5.38,19,19,0,0,1,9.09-1.49,17.27,17.27,0,0,1,9.1,3.24,20.74,20.74,0,0,1,7.51,10.41,16.82,16.82,0,0,1,.8,6.1,10.58,10.58,0,0,1-.14,1.49,10.39,10.39,0,0,1-.26,1.46c-.11.48-.22,1-.35,1.43l-.51,1.36a14.35,14.35,0,0,1-3.15,4.59,19.93,19.93,0,0,1-4.21,3.09,27.26,27.26,0,0,1-8.77,2.93l.11-.09-1.27,4.88v.1h-.11l-8.54-2.44-2.24-.65-.57-.17Z"/><path class="cls-4" d="M523.11,145.21l.07-.24-11-3.17H512l-.13-.11a.13.13,0,0,1-.06-.07.21.21,0,0,1,0-.11v-.16h0v-.15l1.13-3.59a24.27,24.27,0,0,1-5.74-6.74,18.75,18.75,0,0,1-2.19-5.84,16.43,16.43,0,0,1-.28-3.5,18.43,18.43,0,0,1,.52-3.69,21,21,0,0,1,1.37-3.69l1-1.78a9.58,9.58,0,0,1,.76-1.12l.42-.6a17.29,17.29,0,0,1,6.83-5.47,19,19,0,0,1,9.21-1.5,17.59,17.59,0,0,1,9.23,3.27,21,21,0,0,1,7.58,10.52,17,17,0,0,1,.81,6.18,7.72,7.72,0,0,1-.1,1.18l-.06.48a8.68,8.68,0,0,1-.25,1.35l-.11.48c-.08.32-.15.63-.24.94l-.52,1.39a14.37,14.37,0,0,1-3.21,4.68,19.26,19.26,0,0,1-4.26,3.13,27.62,27.62,0,0,1-8.6,2.92L524,144.5l.23.06-.29.17-.13.47-.45-.14Zm-10.72-3.89,2.81.74,8.15,2.22,1-4-.28.05.35-.31.13-.53h.57l.31-.27-.06.22a27.14,27.14,0,0,0,8-2.81,18.75,18.75,0,0,0,4.08-3,13.63,13.63,0,0,0,3-4.42,17,17,0,0,0,.42-11.41,20.22,20.22,0,0,0-7.27-10.07,16.51,16.51,0,0,0-8.79-3.12A18.18,18.18,0,0,0,516,106a16.5,16.5,0,0,0-6.5,5.17c-.13.2-.28.4-.42.59a9.33,9.33,0,0,0-.71,1.06l-1,1.73a20.21,20.21,0,0,0-1.33,3.52,18.13,18.13,0,0,0-.52,3.52,16.15,16.15,0,0,0,.26,3.33,17.86,17.86,0,0,0,2.07,5.62,24,24,0,0,0,5.31,6.44l.1-.3.16.52.1.08.14.12-.07.33.18.56-.3-.23-1.14,3.31Z"/><path class="cls-4" d="M522.88,148a49.56,49.56,0,0,1-6-1.48,50.18,50.18,0,0,1-5.89-1.83A104.05,104.05,0,0,1,522.87,148Z"/><path class="cls-4" d="M522.88,148.22a39.39,39.39,0,0,1-6.06-1.48c-6.18-1.72-6.14-1.86-6.06-2.14s.08-.3,2.08.19c1.13.28,2.63.67,4.22,1.12,6.18,1.72,6.14,1.86,6.06,2.14v.09l-.09.06A.26.26,0,0,1,522.88,148.22Z"/><path class="cls-4" d="M517.78,151.4a5,5,0,0,1-2.17-.34,5,5,0,0,1-2-1,9.44,9.44,0,0,1,2.09.6A9.54,9.54,0,0,1,517.78,151.4Z"/><path class="cls-4" d="M517.56,151.68a8,8,0,0,1-2-.38,5.35,5.35,0,0,1-2.14-1.08v-.11l.05-.12c.12-.26.32-.2,1.43.17l1,.3,1,.29c1.11.34,1.32.4,1.27.68v.12l-.11.07A.62.62,0,0,1,517.56,151.68Z"/><path class="cls-4" d="M514.47,142.17a.67.67,0,0,1,0-.2,3.19,3.19,0,0,1,.16-.57c.16-.53.38-1.27.65-2.2l2.46-8.07c.52-1.71,1.1-3.57,1.71-5.57a3.87,3.87,0,0,0,.21-1.51,1,1,0,0,0-.85-1,1.46,1.46,0,0,0-1.22.78,2.29,2.29,0,0,0-.23,1.56,3.64,3.64,0,0,0,4.4,2.67,3.72,3.72,0,0,0,1.2-.54,5.5,5.5,0,0,0,2.22-3,3.37,3.37,0,0,0,.13-1.86,1.32,1.32,0,0,0-1.28-1,1.34,1.34,0,0,0-1.09,1.23,3.65,3.65,0,0,0,.37,1.84,6.75,6.75,0,0,0,2.25,3,3.75,3.75,0,0,0,1.66.69,3.61,3.61,0,0,0,1.75-.22,2.84,2.84,0,0,0,1.34-1,2,2,0,0,0,.34-1.57,1.36,1.36,0,0,0-1-1.12,1.69,1.69,0,0,0-1.43.39,7.26,7.26,0,0,0-1.54,2.73c-.78,1.94-1.44,3.77-2,5.44-1.18,3.34-2.13,6-2.8,7.95-.33.92-.58,1.65-.77,2.17-.08.23-.15.41-.2.56s-.08.19-.09.18a1.46,1.46,0,0,1,.05-.2,3,3,0,0,1,.17-.57l.7-2.18c.62-1.89,1.52-4.63,2.69-8,.6-1.68,1.25-3.52,2-5.48.21-.48.4-1,.63-1.47a4,4,0,0,1,1-1.39,2,2,0,0,1,1.72-.47,1.75,1.75,0,0,1,1.21,1.38,2.45,2.45,0,0,1-.39,1.84,3.24,3.24,0,0,1-1.5,1.16,4,4,0,0,1-1.93.24,4.16,4.16,0,0,1-1.82-.74,7.17,7.17,0,0,1-2.38-3.16,4.06,4.06,0,0,1-.4-2,1.56,1.56,0,0,1,3.1-.26,3.69,3.69,0,0,1-.13,2.08,5.84,5.84,0,0,1-2.39,3.15,4,4,0,0,1-3.76.4,4,4,0,0,1-2.36-2.77,2.46,2.46,0,0,1,.28-1.8,1.75,1.75,0,0,1,1.52-.94,1.24,1.24,0,0,1,.83.44,1.6,1.6,0,0,1,.31.84,4.35,4.35,0,0,1-.23,1.64q-.95,3-1.75,5.55c-1.08,3.37-2,6.11-2.57,8-.3.93-.54,1.65-.72,2.18l-.19.56A.86.86,0,0,1,514.47,142.17Z"/><path class="cls-4" d="M520.88,144.21h-.09c-.24-.08-.18-.3-.12-.5l.87-2.77c.59-1.81,1.51-4.6,2.7-8,.5-1.43,1-2.84,1.56-4.3a6.32,6.32,0,0,1-.56-.33,5.87,5.87,0,0,1-1-.93,5.49,5.49,0,0,1-.89.7,4.25,4.25,0,0,1-4,.41l-.15-.06-4.39,13.65c-.07.2-.15.43-.4.35s-.17-.3-.12-.5l.81-2.78L518.5,128a4,4,0,0,1-1.66-2.48,2.75,2.75,0,0,1,.32-2,2,2,0,0,1,1.75-1.05,1.5,1.5,0,0,1,1,.53,1.83,1.83,0,0,1,.37,1,4.62,4.62,0,0,1-.24,1.73l-.58,1.85.22.11a3.41,3.41,0,0,0,3.2-.36,4.26,4.26,0,0,0,.82-.65,8.67,8.67,0,0,1-.9-1.67,4.36,4.36,0,0,1-.42-2.16,1.81,1.81,0,0,1,3.57-.33,4.05,4.05,0,0,1-.14,2.21,6,6,0,0,1-1,1.94,5.17,5.17,0,0,0,.94.87c.12.08.24.16.37.23,0-.12.09-.24.14-.37l.16-.38c.15-.37.3-.74.47-1.11a4.2,4.2,0,0,1,1.06-1.48,2.21,2.21,0,0,1,1.94-.51,2,2,0,0,1,1.39,1.58,2.66,2.66,0,0,1-.42,2,3.45,3.45,0,0,1-1.62,1.25,4.14,4.14,0,0,1-2,.26,4.69,4.69,0,0,1-.65-.14c-.59,1.54-1.13,3-1.57,4.25l-3.78,10.67C521.12,144,521.05,144.21,520.88,144.21Zm6-16.09a2.16,2.16,0,0,0,.44.1,3.32,3.32,0,0,0,1.62-.2,2.56,2.56,0,0,0,1.23-.94,1.85,1.85,0,0,0,.31-1.37,1.15,1.15,0,0,0-.77-.94,1.47,1.47,0,0,0-1.21.34,5.08,5.08,0,0,0-1.21,2c-.09.21-.17.42-.26.62Zm-8.07-4.81a1.25,1.25,0,0,0-.93.67,2,2,0,0,0-.2,1.39,3,3,0,0,0,1.1,1.76l.5-1.64a3.74,3.74,0,0,0,.2-1.41.75.75,0,0,0-.62-.76Zm5.37-1.36h-.06a1.09,1.09,0,0,0-.86,1,3.41,3.41,0,0,0,.35,1.72,8.92,8.92,0,0,0,.68,1.3,5.31,5.31,0,0,0,.66-1.43,3,3,0,0,0,.13-1.71,1.12,1.12,0,0,0-.93-.88Z"/><path class="cls-4" d="M521.21,149.93a32.54,32.54,0,0,1-4.87-1.16,34.36,34.36,0,0,1-4.77-1.52,67.2,67.2,0,0,1,9.64,2.68Z"/><path class="cls-4" d="M521.19,150.18a29.59,29.59,0,0,1-4.92-1.17c-5.06-1.41-5-1.57-4.94-1.83v-.1l.09-.06c.08,0,.31-.17,5.06,1.15s4.87,1.56,4.91,1.63l.06.09-.06.21-.09.06Z"/><path class="cls-7" d="M342.17,149.29h-63a4.36,4.36,0,0,0-4.36,4.36v38.4a4.36,4.36,0,0,0,4.36,4.36H316l16.89,14.35V196.41h9.38a4.36,4.36,0,0,0,4.36-4.36v-38.4a4.37,4.37,0,0,0-4.38-4.36Z"/><path class="cls-2" d="M342.17,149.29a3.54,3.54,0,0,1,1.12.12,4.36,4.36,0,0,1,2.63,1.91,4.43,4.43,0,0,1,.69,2.32v10.08c0,5.38,0,11.91.05,19.4v8.79a4.64,4.64,0,0,1-1,3,4.56,4.56,0,0,1-2.81,1.63,11.38,11.38,0,0,1-1.65.06h-8.41l.23-.22v14.87l-.39-.34-16.91-14.34.17.06H279.34a4.64,4.64,0,0,1-4.75-3.83,8.58,8.58,0,0,1-.07-1.6v-38a4.56,4.56,0,0,1,2.21-3.44,4.7,4.7,0,0,1,2.64-.65h26.16l26.77.08h0l-26.77.09H279.37a4.29,4.29,0,0,0-2.4.59,4.1,4.1,0,0,0-1.65,1.87,4.41,4.41,0,0,0-.34,1.23v38a8.49,8.49,0,0,0,.07,1.51,4.05,4.05,0,0,0,1.46,2.49,4.18,4.18,0,0,0,2.78.91H316l.07.06L333,210.54l-.4.18V196.14h8.63a10.56,10.56,0,0,0,1.59,0,4.15,4.15,0,0,0,2.59-1.46c1.39-1.58.83-3.82.95-5.77s0-3.92,0-5.79c0-7.49,0-14,.05-19.4V153.59a4.34,4.34,0,0,0-3.17-4.16A8.92,8.92,0,0,0,342.17,149.29Z"/><path class="cls-2" d="M334.06,164.12c0,.14-10.48.26-23.41.26s-23.41-.12-23.41-.26,10.48-.26,23.41-.26S334.06,164,334.06,164.12Z"/><path class="cls-2" d="M334.06,171.54c0,.15-10.48.27-23.41.27s-23.41-.12-23.41-.27,10.48-.26,23.41-.26S334.06,171.42,334.06,171.54Z"/><path class="cls-2" d="M334.06,179c0,.14-10.48.26-23.41.26s-23.41-.12-23.41-.26,10.48-.26,23.41-.26S334.06,178.87,334.06,179Z"/><path class="cls-8" d="M254.2,44.16c3.17,12.67-6.15,25.2-17.86,31s-25.28,6-38.35,6.2-26.66.51-38.28,6.47c-12.36,6.34-20.82,18.18-28.47,29.78S116,141.39,104.33,149s-28.42,9.38-38.68,0V58.7A14.54,14.54,0,0,1,80.19,44.16h174Z"/><circle class="cls-4" cx="118.81" cy="93.79" r="12.54"/><path class="cls-2" d="M281.88,78.38c0-.18,11.25-.33,25.14-.33s25.14.15,25.14.33"/><path class="cls-2" d="M399,78.38c0,.18-11.26.33-25.14.33s-25.14-.15-25.14-.33,11.25-.33,25.14-.33S399,78.2,399,78.38Z"/><path class="cls-2" d="M466,78.38c0,.18-11.26.33-25.14.33s-25.14-.15-25.14-.33,11.25-.33,25.14-.33S466,78.2,466,78.38Z"/><path class="cls-2" d="M533.39,78.38c0,.18-11.25.33-25.13.33s-25.15-.15-25.15-.33,11.26-.33,25.15-.33S533.39,78.2,533.39,78.38Z"/><path class="cls-2" d="M592,86.37a5.42,5.42,0,0,0,1.2-.2,5.67,5.67,0,0,0,2.89-1.77,5.42,5.42,0,0,0,1.15-2.17,10.8,10.8,0,0,0,.18-3c-.14-2.11.5-4.85-1.41-6.85a5.38,5.38,0,0,0-3.58-1.77h-38.3a5.29,5.29,0,0,0-4.7,2.88,5.48,5.48,0,0,0-.58,2.76v3a10.29,10.29,0,0,0,.19,2.82,5.18,5.18,0,0,0,1.31,2.31,5.43,5.43,0,0,0,2.23,1.37,9,9,0,0,0,2.63.24l19.15.07,12.91.1,3.51.07h.92a1.61,1.61,0,0,1,.31,0,.81.81,0,0,1-.31,0h-.92l-3.51.06-12.91.11-19.15.07a9.47,9.47,0,0,1-2.81-.25,5.94,5.94,0,0,1-4-4.12,6.39,6.39,0,0,1-.21-1.51V76.36a6.17,6.17,0,0,1,.65-3.07,6,6,0,0,1,5.29-3.24h38.34a5.91,5.91,0,0,1,5.34,5.68v3.48a10.78,10.78,0,0,1-.25,3,5.66,5.66,0,0,1-4.31,4A4.11,4.11,0,0,1,592,86.37Z"/><path class="cls-9" d="M190.76,318.34h-61a11.13,11.13,0,0,1-11.13-11.13h0a11.13,11.13,0,0,1,11.13-11.13h61a11.13,11.13,0,0,1,11.13,11.13h0a11.13,11.13,0,0,1-11.13,11.13Z"/><path class="cls-2" d="M234.25,225.87c0,.22-26.05.39-58.17.39s-58.18-.17-58.18-.39,26-.38,58.18-.38S234.25,225.66,234.25,225.87Z"/><path class="cls-2" d="M234.25,247c0,.21-26.05.38-58.17.38s-58.18-.17-58.18-.38,26-.39,58.18-.39S234.25,246.76,234.25,247Z"/><path class="cls-2" d="M186.7,268.08c0,.21-15.4.38-34.4.38s-34.4-.17-34.4-.38,15.4-.39,34.4-.39S186.7,267.87,186.7,268.08Z"/><path class="cls-4" d="M184.19,202.54c0,.15-14.64.26-32.69.26s-32.69-.11-32.69-.26,14.64-.26,32.69-.26S184.19,202.41,184.19,202.54Z"/><path class="cls-2" d="M611.18,424.27a11.33,11.33,0,0,0,4.61-1,10.94,10.94,0,0,0,4.44-3.73,11.58,11.58,0,0,0,1.58-3.4,15.19,15.19,0,0,0,.38-4.3v-53.9c0-46.81,0-114.55-.08-198.24V63.46c0-1.48,0-3-.11-4.41a16.55,16.55,0,0,0-3.25-8.1,21.06,21.06,0,0,0-1.44-1.69,17.93,17.93,0,0,0-1.68-1.46,16.37,16.37,0,0,0-3.85-2.21,16.67,16.67,0,0,0-4.34-1.1,45.3,45.3,0,0,0-4.53-.11H436.53L263,44.42H82.5c-1,0-2,0-3,.1l-1.45.23-1.42.37a15.37,15.37,0,0,0-8.87,7.28A14.92,14.92,0,0,0,66,58c-.19,1.93-.09,4-.12,5.93V410.44a24.19,24.19,0,0,0,.28,5.1A10.79,10.79,0,0,0,77.07,424H340.24l270.91.18-270.91.19H77.07a11.34,11.34,0,0,1-11.39-8.89c-.09-.43-.14-.86-.21-1.3a8.06,8.06,0,0,1,0-1.3v-349c0-2-.08-4,.12-6a15.86,15.86,0,0,1,11-13.27L78,44.24c.5-.09,1-.16,1.51-.24,1-.08,2-.11,3-.1H602.77c1.52,0,3,0,4.58.11a17.56,17.56,0,0,1,4.44,1.13,16.69,16.69,0,0,1,4,2.28,17.43,17.43,0,0,1,1.72,1.5A18.76,18.76,0,0,1,619,50.65a16.92,16.92,0,0,1,3.32,8.3,44.2,44.2,0,0,1,.11,4.46V159.6c0,83.69-.06,151.43-.08,198.24v53.9a14.62,14.62,0,0,1-.41,4.32,11,11,0,0,1-6.07,7.16,11.73,11.73,0,0,1-3.44.95A11.89,11.89,0,0,1,611.18,424.27Z"/></g><g id="freepik--Device--inject-548"><path class="cls-6" d="M507.89,386.07,403.63,397.48a15.28,15.28,0,0,1-16.86-13.54h0l-25.7-234.83a17.43,17.43,0,0,1,15.43-19.22l102.33-11.2a15.46,15.46,0,0,1,17,13.68l25.92,236.44A15.66,15.66,0,0,1,507.89,386.07Z"/><rect class="cls-2" x="375.5" y="125.72" width="131.54" height="264.68" rx="14.31" transform="translate(-25.43 49.49) rotate(-6.24)"/><path class="cls-6" d="M418.14,136a1.51,1.51,0,0,1-.33-3l19.31-2.12a1.51,1.51,0,0,1,.33,3Z"/><path class="cls-6" d="M407.79,137.14a1.51,1.51,0,1,1,1.34-1.66h0A1.52,1.52,0,0,1,407.79,137.14Z"/><path class="cls-6" d="M413.32,136.54a1.51,1.51,0,0,1-.44-3H413a1.51,1.51,0,0,1,1.66,1.32h0A1.52,1.52,0,0,1,413.32,136.54Z"/><path class="cls-6" d="M447.89,132.76a1.51,1.51,0,1,1,1.34-1.67A1.51,1.51,0,0,1,447.89,132.76Z"/><path class="cls-6" d="M442.36,133.36a1.51,1.51,0,1,1,1.34-1.67,1.51,1.51,0,0,1-1.34,1.67Z"/><path class="cls-8" d="M475,123.09l-18.18,2a4,4,0,0,0-3.49,3.27l-.93,5.29a4.45,4.45,0,0,1-3.91,3.66l-40.27,4.41a4.48,4.48,0,0,1-4.61-2.73l-2-5a4,4,0,0,0-4.12-2.44l-18.18,2a14.57,14.57,0,0,0-12.89,16.06l25,228.81a14.55,14.55,0,0,0,16,12.89h0l95.72-10.47A14.56,14.56,0,0,0,516,364.78h0L491,136A14.58,14.58,0,0,0,475,123.09Z"/><path class="cls-3" d="M485.75,126.27a14.55,14.55,0,0,0-10.8-3.18l-18.18,2a4,4,0,0,0-3.49,3.27l-.93,5.29a4.45,4.45,0,0,1-3.91,3.66l-40.27,4.41a4.48,4.48,0,0,1-4.61-2.73l-2-5a4,4,0,0,0-4.12-2.44l-18.18,2a14.57,14.57,0,0,0-12.89,16.06l17.95,164h.38c12.29,0,23.28-8.95,28.83-19.92s6.55-23.67,6.39-36-1.36-24.65.2-36.85a82.83,82.83,0,0,1,29.24-52.92c7.87-6.38,16.93-11.38,24.34-18.38C480.23,143.42,485.5,135.07,485.75,126.27Z"/><path class="cls-3" d="M516.07,364.79l-7.24-66.2A61.48,61.48,0,0,0,466,384.92l37.19-4.07a14.56,14.56,0,0,0,12.93-16Z"/><path class="cls-6" d="M500.55,175.12h0a.9.9,0,0,1,1,.77v0l3.17,29a.9.9,0,0,1-.77,1h0Z"/><path class="cls-6" d="M367.61,208.83h0a.93.93,0,0,0-.82,1l1.93,17.62a.92.92,0,0,0,1,.82h0Z"/><path class="cls-6" d="M364.83,183.41h0a.93.93,0,0,0-.82,1L366,202.05a.92.92,0,0,0,1,.82h0Z"/><path class="cls-6" d="M362.74,164.34h0a.78.78,0,0,0-.7.85v0l.81,7.47a.8.8,0,0,0,.88.7h0Z"/><rect class="cls-3" x="460.2" y="133.48" width="0.93" height="1.31" transform="translate(-11.85 50.87) rotate(-6.24)"/><rect class="cls-3" x="461.68" y="132.72" width="0.93" height="1.89" transform="translate(-11.8 51.11) rotate(-6.25)"/><rect class="cls-3" x="463.16" y="132.16" width="0.93" height="2.33" transform="translate(-11.74 51.18) rotate(-6.24)"/><rect class="cls-3" x="464.62" y="131.14" width="0.93" height="3.17" transform="translate(-11.67 51.34) rotate(-6.24)"/><path class="cls-3" d="M479.43,132.79l-4.65.51a.34.34,0,0,1-.37-.3l-.26-2.31a.34.34,0,0,1,.3-.37l4.66-.51h.06a.06.06,0,0,1,0,.06l.09.76h.49a.09.09,0,0,1,.1.08h0l.12,1.11a.1.1,0,0,1-.08.1h-.49l.08.76A.1.1,0,0,1,479.43,132.79ZM479,130l-4.57.5a.16.16,0,0,0-.14.18h0l.25,2.31a.17.17,0,0,0,.18.15l4.57-.5-.08-.77a.07.07,0,0,1,.05-.09h0l.5-.06-.1-.94-.5,0a.08.08,0,0,1-.1-.06h0Z"/><polygon class="cls-3" points="474.94 132.72 474.73 130.84 478.7 130.41 478.8 131.26 478.82 131.44 478.91 132.29 474.94 132.72"/><path class="cls-3" d="M470.16,133.62a.34.34,0,0,0-.38-.3h0a.34.34,0,1,0,.08.68h0a.34.34,0,0,0,.3-.38Z"/><path class="cls-3" d="M468.57,133l.48.38a1,1,0,0,1,.7-.38,1,1,0,0,1,.75.22l.39-.48a1.65,1.65,0,0,0-2.32.26Z"/><path class="cls-3" d="M469.57,131.39a2.58,2.58,0,0,0-1.76,1l.48.38a2,2,0,0,1,2.82-.31l.39-.48A2.6,2.6,0,0,0,469.57,131.39Z"/><path class="cls-3" d="M467,131.73l.48.38a3,3,0,0,1,2-1.11,3,3,0,0,1,2.21.65l.39-.48a3.62,3.62,0,0,0-5.09.55h0Z"/><circle class="cls-1" cx="468.19" cy="246.87" r="16.57"/></g><g id="freepik--Plants--inject-548"><path class="cls-2" d="M632.58,147.3a2.12,2.12,0,0,1,.08-.47c.08-.31.17-.78.29-1.36.27-1.21.65-3,1.15-5.2,1-4.54,2.51-11.07,4.33-19.14,3.72-16.19,8.84-38.53,14.53-63.28l.25-1.12.25,1.12c.11.44.21.93.32,1.41,5.65,25.1,10.77,47.81,14.48,64.28,1.82,8.22,3.3,14.87,4.32,19.5l1.16,5.3.28,1.39c.06.31.08.47.08.47a1.37,1.37,0,0,0-.13-.46c-.13-.31-.19-.79-.34-1.37-.29-1.23-.71-3-1.24-5.29-1.07-4.61-2.6-11.26-4.49-19.45L653.27,59.37c-.11-.48-.21-1-.31-1.4h.5c-5.74,24.73-10.92,47.07-14.67,63.24-1.9,8-3.43,14.57-4.49,19.1l-1.25,5.23c-.14.57-.26,1-.34,1.34A1.74,1.74,0,0,1,632.58,147.3Z"/><path class="cls-6" d="M632.57,166.09V150.2H675v15.89a18.49,18.49,0,0,1-18.49,18.45h-5.4A18.48,18.48,0,0,1,632.57,166.09Z"/><path class="cls-2" d="M632.57,150.2a4.54,4.54,0,0,1,.48.67l1.29,2c1.14,1.76,2.72,4.24,4.67,7.28l15.25,24.15.11.17H654l14.79-24.28,4.52-7.32c.53-.83.94-1.49,1.26-2a6.11,6.11,0,0,1,.46-.67,3.85,3.85,0,0,1-.37.73c-.3.5-.69,1.18-1.17,2l-4.39,7.41L654.4,184.7l-.22.36-.23-.36-.1-.17L638.73,160.3l-4.53-7.38-1.21-2A5.2,5.2,0,0,1,632.57,150.2Z"/><path class="cls-2" d="M658,57.71a4.63,4.63,0,1,1-4.63-4.63A4.63,4.63,0,0,1,658,57.71Z"/><path class="cls-2" d="M653.34,0c.15,0,.26,13.11.26,29.29s-.11,29.25-.26,29.25-.26-13.11-.26-29.29S653.2,0,653.34,0Z"/><path class="cls-2" d="M655.74,186.31a2,2,0,1,1-2-2A2,2,0,0,1,655.74,186.31Z"/><path class="cls-2" d="M652.88,187.05l.32-.16a4.39,4.39,0,0,0-2,3.28,11.38,11.38,0,0,0,.34,3.94c.09.42.31.93.73.9s.56-.47.62-.85a8.55,8.55,0,0,0,.06-2.37,4.13,4.13,0,0,0,.92,2.8c.12.15.3.31.49.26s.26-.25.31-.43a9.57,9.57,0,0,0,.3-2,3,3,0,0,0,.63,1.65,1.1,1.1,0,0,0,1.55.14l0,0a1.52,1.52,0,0,0,.17-1.16,13.69,13.69,0,0,0-2.78-6.51"/><path class="cls-4" d="M635.24,150.2s-19-21.95-16.93-22.74,19,11.37,19,11.37-14.54-32.53-11.63-34.91S644,132.75,644,132.75s-2.38-45.49,0-46,11.11,45.49,11.11,45.49,13-42.05,16.66-42.05-4,40.46-4,40.46,15.33-25.91,17.71-22.48-10.84,31.47-10.84,31.47,19.31-16.13,20.1-14-20.89,24.59-20.89,24.59Z"/><path class="cls-2" d="M632.58,117.15c.13-.06,3.51,7.18,7.54,16.17s7.2,16.32,7.07,16.38-3.51-7.16-7.54-16.16S632.45,117.2,632.58,117.15Z"/><path class="cls-2" d="M648,121.19c.15,0,.71,6.37,1.26,14.25s.87,14.28.73,14.29-.71-6.37-1.25-14.25S647.82,121.2,648,121.19Z"/><path class="cls-2" d="M669.18,100.82a1.86,1.86,0,0,1-.11.52l-.42,1.44c-.4,1.33-.94,3.12-1.59,5.3-1.34,4.47-3.15,10.67-5,17.55s-3.36,13.16-4.42,17.71c-.52,2.22-1,4-1.26,5.39-.14.59-.26,1.07-.36,1.46a1.82,1.82,0,0,1-.16.5,1.51,1.51,0,0,1,.06-.52c.07-.4.16-.89.26-1.48.24-1.29.61-3.14,1.1-5.43,1-4.57,2.44-10.86,4.28-17.76s3.7-13.08,5.14-17.53c.71-2.22,1.31-4,1.75-5.25.2-.57.37-1,.51-1.42A1.74,1.74,0,0,1,669.18,100.82Z"/><path class="cls-2" d="M678.36,124.27c.11.08-3.6,5.62-8.31,12.37s-8.61,12.16-8.73,12.08,3.6-5.62,8.31-12.38S678.24,124.18,678.36,124.27Z"/><path class="cls-2" d="M641.66,149.74a7.28,7.28,0,0,1-1.66-1.19,46,46,0,0,1-3.63-3.35,47.51,47.51,0,0,1-3.25-3.7,7.82,7.82,0,0,1-1.15-1.7c.13-.09,2.1,2.3,4.78,5S641.76,149.62,641.66,149.74Z"/><path class="cls-2" d="M653.23,141a20.39,20.39,0,0,1,.72,4.52,20.65,20.65,0,0,1,.16,4.58,19.85,19.85,0,0,1-.68-4.53A19.41,19.41,0,0,1,653.23,141Z"/><path class="cls-3" d="M675,160.1a9.37,9.37,0,0,1-1.64.34c-1,.19-2.59.43-4.5.69a145,145,0,0,1-15,1.33,95.13,95.13,0,0,1-15-.62c-1.91-.25-3.45-.5-4.51-.73a8.9,8.9,0,0,1-1.62-.39,13.18,13.18,0,0,1,1.66.19c1.06.16,2.6.36,4.51.56a112.07,112.07,0,0,0,15,.47c5.85-.2,11.13-.74,15-1.18l4.52-.52A11.89,11.89,0,0,1,675,160.1Z"/><path class="cls-3" d="M675,164.83a10.39,10.39,0,0,1-1.64.34c-1,.19-2.59.43-4.5.69a145,145,0,0,1-15,1.33,94,94,0,0,1-15-.63c-1.91-.24-3.45-.49-4.51-.72a9.1,9.1,0,0,1-1.62-.39,13.18,13.18,0,0,1,1.66.19c1.06.16,2.6.36,4.51.56a112.07,112.07,0,0,0,15,.47c5.85-.2,11.13-.74,15-1.18l4.52-.52A10.42,10.42,0,0,1,675,164.83Z"/><path class="cls-4" d="M99,387.68c1-3.42,3.1-6.73,6.37-8.14s7.34-.63,10.83.63,6.9,3,10.59,3.19,7.87-1.53,9-5.06c1-3.33-1-6.87-3.47-9.29a21.92,21.92,0,0,0-35.9,8.62"/><g class="cls-10"><path d="M99,387.68c1-3.42,3.1-6.73,6.37-8.14s7.34-.63,10.83.63,6.9,3,10.59,3.19,7.87-1.53,9-5.06c1-3.33-1-6.87-3.47-9.29a21.92,21.92,0,0,0-35.9,8.62"/></g><path class="cls-4" d="M69.71,402.54c-5.43-5.15-5.16-14.13-2.45-21.1s8.61-12.33,15.21-15.86a48.16,48.16,0,0,1,42-1.36,19.89,19.89,0,0,0-16.1,9.46c-3,4.93-3.64,10.92-6.09,16.14a25.41,25.41,0,0,1-32.57,12.72"/><path class="cls-4" d="M67.1,371.54c-6-7.09-6.81-18.47-5.92-27.72s3-18.56,1.57-27.73c-.87-5.44-3-10.63-3.69-16.09s.3-11.63,4.53-15.15c4.86-4,12.51-3.1,17.57.71s8,9.77,10.13,15.72c4.7,13.08,6.43,27.59,2.56,40.94S81,367.54,67.62,371.54"/><path class="cls-2" d="M64.22,429.73a3.66,3.66,0,0,1,0-.81c0-.54,0-1.33,0-2.34.08-2,.27-5,.73-8.59a113.84,113.84,0,0,1,2.3-12.57A58.19,58.19,0,0,1,73,390.86a60.81,60.81,0,0,1,9.38-12.54,59.17,59.17,0,0,1,9.83-8.17c1.5-1,3-1.83,4.2-2.55s2.4-1.23,3.31-1.67l2.16-.91a7.15,7.15,0,0,1,.77-.29,4.22,4.22,0,0,1-.73.38l-2.11,1c-.9.47-2,1.05-3.27,1.74a41.14,41.14,0,0,0-4.14,2.6,61.73,61.73,0,0,0-19,20.66c-5.53,9.66-7,19.82-8.14,26.94-.49,3.59-.74,6.52-.88,8.55-.06,1-.1,1.75-.14,2.33A5.39,5.39,0,0,1,64.22,429.73Z"/><path class="cls-4" d="M12.41,343.6C1.3,350.31,1.34,356.41,3.19,362.17s8.68,9.76,14.33,7.6c3.2-1.22,5.51-4,7.49-6.79s3.84-5.77,6.61-7.78,6.79-2.77,9.57-.78"/><g class="cls-10"><path d="M12.41,343.6C1.3,350.31,1.34,356.41,3.19,362.17s8.68,9.76,14.33,7.6c3.2-1.22,5.51-4,7.49-6.79s3.84-5.77,6.61-7.78,6.79-2.77,9.57-.78"/></g><path class="cls-4" d="M4.1,351c2.9-4,10.08-5.17,14.61-3.17s7.85,6,10.83,9.94,5.86,8.15,10,10.91,9.86,3.76,14,1a12,12,0,0,0,4.75-8.22,27.43,27.43,0,0,0-.65-9.68c-1-4.66-2.58-9.53-6.31-12.49-4.16-3.3-9.93-3.46-15.23-3.28-6.09.19-12.27.65-18,2.76S6.56,345.39,4.1,351"/><path class="cls-2" d="M55,420.84a1,1,0,0,1,0-.25v-.71c0-.67,0-1.6-.09-2.76-.07-2.44-.17-5.89-.29-10.15s-.31-9.37-.62-15-.74-11.86-1.59-18.33a59,59,0,0,0-1.85-9.31,48.38,48.38,0,0,0-3.4-8.15,47,47,0,0,0-4.3-6.75,45.77,45.77,0,0,0-4.69-5.15,34.65,34.65,0,0,0-8.35-5.74c-.55-.24-1-.49-1.45-.66l-1.08-.34-.67-.27a.57.57,0,0,1-.22-.11l.24.06.68.22,1.11.38c.43.16.91.39,1.47.63A33.43,33.43,0,0,1,38.32,344a45.8,45.8,0,0,1,4.78,5.16A46.91,46.91,0,0,1,47.47,356,48.33,48.33,0,0,1,51,364.15a58.65,58.65,0,0,1,1.86,9.39c.86,6.49,1.26,12.72,1.56,18.38s.42,10.76.51,15.05.12,7.75.13,10.14v3.48A1,1,0,0,1,55,420.84Z"/><path class="cls-2" d="M59,425.86a31.48,31.48,0,0,1-1.22-4.77,50.22,50.22,0,0,1-.51-13.41,88.78,88.78,0,0,1,4.24-19.45c2.28-7.15,5.37-14.8,8-23a108.46,108.46,0,0,0,3.19-12.18,110.71,110.71,0,0,0,1.58-11.62,170.93,170.93,0,0,0,.35-19.86c-.19-5.66-.49-10.24-.68-13.4-.09-1.56-.16-2.78-.22-3.64v-1a1.71,1.71,0,0,1,0-.32,1.13,1.13,0,0,1,0,.32c0,.24.06.55.09.94.08.87.18,2.08.31,3.64.25,3.16.6,7.73.84,13.4a163.3,163.3,0,0,1-.25,19.91,106.49,106.49,0,0,1-1.55,11.67A103.58,103.58,0,0,1,70,365.37c-2.65,8.24-5.76,15.88-8.06,23a90.94,90.94,0,0,0-4.32,19.34A52.27,52.27,0,0,0,58,421.05c.28,1.56.53,2.76.75,3.57.09.38.16.69.22.92A1.66,1.66,0,0,1,59,425.86Z"/><polygon class="cls-6" points="86.53 430.88 34.35 430.88 33.16 420.84 86.53 420.84 86.53 430.88"/><polygon class="cls-6" points="39.95 429.73 46.48 459.86 74.83 459.86 80.93 429.73 39.95 429.73"/><path class="cls-6" d="M86.53,430.88c0,.14-11.47.21-25.62.18s-25.62-.19-25.62-.33,11.47-.19,25.66-.19S86.53,430.74,86.53,430.88Z"/><path class="cls-2" d="M77.57,445.75A21.4,21.4,0,0,0,73,443.11,16.23,16.23,0,0,0,67.36,442a19.89,19.89,0,0,0-6.87,1.26c-2.38.81-4.6,1.74-6.76,2.26a16.38,16.38,0,0,1-5.84.18,12.15,12.15,0,0,1-3.73-1.15,6.67,6.67,0,0,1-.91-.58c-.19-.15-.29-.23-.28-.24s.45.25,1.27.64a13.31,13.31,0,0,0,3.72,1,16.31,16.31,0,0,0,5.7-.28c2.09-.52,4.31-1.47,6.7-2.28a19.46,19.46,0,0,1,7-1.24,15.83,15.83,0,0,1,5.71,1.25,14.54,14.54,0,0,1,3.4,2,10.69,10.69,0,0,1,.81.7C77.5,445.64,77.58,445.74,77.57,445.75Z"/><path class="cls-3" d="M77.18,447.76a23.09,23.09,0,0,0-4.42-2.6,14.82,14.82,0,0,0-5.38-1.11,19.36,19.36,0,0,0-6.65,1.2c-2.3.77-4.45,1.66-6.51,2.21a16.71,16.71,0,0,1-5.62.63,9.48,9.48,0,0,1-3.68-1,6.23,6.23,0,0,1-.88-.56q-.28-.21-.27-.24s.43.25,1.23.62a10,10,0,0,0,3.62.81,17.44,17.44,0,0,0,5.47-.72c2-.57,4.16-1.47,6.48-2.24a19.55,19.55,0,0,1,6.82-1.19A14.79,14.79,0,0,1,73,444.84a14.57,14.57,0,0,1,3.26,2,10,10,0,0,1,.78.68C77.13,447.67,77.19,447.75,77.18,447.76Z"/><path class="cls-3" d="M78.09,443.75A24.89,24.89,0,0,0,73.37,441a17.48,17.48,0,0,0-5.73-1.38,18.82,18.82,0,0,0-7.08,1.25,61.53,61.53,0,0,1-7,2.29,17.77,17.77,0,0,1-6,0,13.51,13.51,0,0,1-3.88-1.23,7,7,0,0,1-.94-.58c-.2-.15-.3-.24-.29-.25s.46.27,1.32.66a15.09,15.09,0,0,0,3.84,1,18,18,0,0,0,5.9-.11c2.16-.47,4.45-1.48,6.93-2.31a18.59,18.59,0,0,1,7.27-1.23A16.77,16.77,0,0,1,77,442.74c.29.23.57.47.84.73S78.1,443.74,78.09,443.75Z"/><path class="cls-2" d="M87,430.92c0,.14-11.74.25-26.21.25s-26.22-.11-26.22-.25,11.74-.25,26.22-.25S87,430.78,87,430.92Z"/></g><g id="freepik--Character--inject-548"><path class="cls-6" d="M323.84,364.91l-6.44,21.17s-23.68.56-25.25,4.35l40.6,14,11.38-32.57Z"/><path class="cls-9" d="M330.56,388.63a1.75,1.75,0,0,1,.49,2.29,1.7,1.7,0,0,1-2.26.51,1.86,1.86,0,0,1-.51-2.42,1.73,1.73,0,0,1,2.41-.27"/><g class="cls-11"><path class="cls-3" d="M332.75,404.4l1-3.33-39.31-12.14s-2.07.16-2.31,1.5Z"/></g><path class="cls-2" d="M316.81,385.64c-.06.2.9.63,1.66,1.61s1,2,1.2,2,.31-1.27-.63-2.43S316.83,385.45,316.81,385.64Z"/><path class="cls-2" d="M312,385.94c-.11.18.63.81,1,1.88s.27,2,.47,2.08.71-1,.21-2.34S312,385.75,312,385.94Z"/><path class="cls-2" d="M307.78,390.2c.17.11.78-.79.65-2.05s-.92-2-1.06-1.87.24.91.33,2S307.59,390.12,307.78,390.2Z"/><path class="cls-2" d="M318.82,381c0,.21,1,.25,2.12.71s1.84,1.12,2,1-.43-1.13-1.73-1.65S318.77,380.79,318.82,381Z"/><path class="cls-6" d="M294.66,336.81l-13,17.93s-22.57-7.16-25.29-4.08l33.86,26.39,21.35-27.11Z"/><path class="cls-9" d="M293.31,361.43a1.76,1.76,0,0,1-.27,2.32,1.7,1.7,0,0,1-2.31-.25A1.84,1.84,0,0,1,291,361a1.75,1.75,0,0,1,2.37.53"/><g class="cls-11"><path class="cls-3" d="M290.26,377.05l2.05-2.82L259.07,350s-2-.52-2.67.67Z"/></g><path class="cls-2" d="M281.28,354.14c-.12.17.64.89,1,2s.3,2.2.5,2.25.7-1.09.19-2.49S281.36,354,281.28,354.14Z"/><path class="cls-2" d="M276.58,352.84c-.16.13.34,1,.35,2.11s-.39,2-.22,2.12,1-.73,1-2.14S276.71,352.69,276.58,352.84Z"/><path class="cls-2" d="M271.25,355.54c.13.15,1-.5,1.28-1.73s-.21-2.2-.39-2.12-.07.94-.32,1.95S271.1,355.37,271.25,355.54Z"/><path class="cls-2" d="M284.69,350.38c-.05.2.89.57,1.77,1.36s1.38,1.65,1.58,1.58,0-1.21-1.1-2.13S284.71,350.19,284.69,350.38Z"/><polygon class="cls-4" points="423.77 278.47 440.05 283.08 438.19 269.55 434.01 267.36 427.64 266.37 424.02 269.28 422.86 273.07 423.77 278.47"/><g class="cls-12"><polygon points="423.81 278.35 440.05 283.08 438.19 269.55 434.01 267.36 427.64 266.37 424.02 269.28 422.86 273.07 423.81 278.35"/></g><path class="cls-13" d="M426.59,238.54s10.7,6.17,15.62,7.14,19.88,5,19.88,5l16.8-21.22s-32.41-1.16-36.94-4-30-34-30-34l-6.86,7.07S424.59,237.46,426.59,238.54Z"/><path class="cls-4" d="M460.38,251.38l.2-25,28.18-3.9s5.82-1.65,8-.15S486,241.09,486,241.09Z"/><path class="cls-2" d="M595.57,156.36c-.48-4.34-4.19-7.86-8.39-9s-8.74-.31-12.74,1.43c1-3.23-1.82-6.72-5.14-7.37s-6.71.88-9.33,3a21.57,21.57,0,0,0-7.78,17c.09,3.2.91,6.33,1.21,9.52s0,6.6-1.83,9.21-5.65,4-8.4,2.4l-.62,9.28a28.6,28.6,0,0,0,25.68.26c3.45-1.73,6.88-4.94,6.34-8.76-.17-1.18-.71-2.29-.85-3.47-.31-2.65,1.47-5.16,3.68-6.65s4.83-2.21,7.3-3.2a20.52,20.52,0,0,0,7.8-5.08A11.27,11.27,0,0,0,595.57,156.36Z"/><path class="cls-2" d="M524.76,221.54A12.16,12.16,0,0,0,544.12,219c1.73-3.08,2.17-7,4.82-9.32,1.82-1.61,4.39-2.17,6.13-3.86,2.6-2.51,2.57-6.61,2.36-10.22a23.45,23.45,0,0,0-1.08-6.85,7.92,7.92,0,0,0-4.59-4.91"/><path class="cls-2" d="M520,165.54c-1.19,2.4-3.91,3.55-6.45,4.37s-5.29,1.62-7,3.7c-3,3.69-1.22,9.77-4.38,13.28-1.7,1.88-4.47,2.57-6,4.55s-1.62,4.62-1.17,7,1.37,4.74,1.58,7.18c0,0,.09,5.7,9.55,7.65"/><path class="cls-2" d="M553.2,189.81c1.29-2.05.31-4.79-1.18-6.69s-3.47-3.46-4.52-5.64c-.92-1.92-1-4.13-1.52-6.21a14.87,14.87,0,0,0-25-6.81c-2.49,2.53-4,6.33-2.87,9.68,1.37,3.88,5.69,5.74,9.58,7.07s8.23,3,9.93,6.69c1,2.26.85,4.85.83,7.34s.21,5.16,1.82,7,5.07,2.3,6.4.21"/><path class="cls-13" d="M544.74,185.41a4,4,0,0,1,1,5.36h0L516,236.54c-3.36,5.5-13.31,3.84-19.17.2h0c-5.93-3.67-4.39-6.73-1.35-12.06,5.07-8.9,7-12.2,7-12.16s-6.83-5.74-2.55-16.55c2.12-5.38,7.14-13.29,11.45-19.64,3.89-5.71,12.12-10.66,17.66-6.54Z"/><path class="cls-2" d="M509,184.67a1.47,1.47,0,0,0,.46,2,1.42,1.42,0,0,0,2-.32l0,0a1.48,1.48,0,0,0-.47-2,1.42,1.42,0,0,0-2,.33Z"/><path class="cls-2" d="M511,180.33c.06.26,1.44.12,2.8.93s2,2.09,2.2,2,.14-.43-.11-1a4.07,4.07,0,0,0-1.65-1.81,3.87,3.87,0,0,0-2.35-.53C511.26,180,511,180.21,511,180.33Z"/><path class="cls-2" d="M521.57,192.54a1.47,1.47,0,0,0,.47,2,1.38,1.38,0,0,0,2-.31l0-.06a1.48,1.48,0,0,0-.46-2,1.41,1.41,0,0,0-2,.31Z"/><path class="cls-2" d="M524.32,189.1c.06.26,1.44.12,2.8.93s2,2.08,2.21,2,.13-.42-.12-1a4.05,4.05,0,0,0-1.64-1.81,4,4,0,0,0-2.35-.54C524.61,188.77,524.29,189,524.32,189.1Z"/><path class="cls-2" d="M513,197a9.9,9.9,0,0,0-2-1.71c-.32-.25-.61-.51-.53-.78a2.35,2.35,0,0,1,.84-.9l2.6-2c3.67-2.93,6.54-5.42,6.42-5.57s-3.18,2.11-6.85,5L511,193.09a2.44,2.44,0,0,0-1,1.26,1,1,0,0,0,.28.85,2.54,2.54,0,0,0,.54.44A10.34,10.34,0,0,0,513,197Z"/><path class="cls-14" d="M502.49,212.54a29.2,29.2,0,0,0,15.33,4.31s-7.36,4.82-16.71-2Z"/><path class="cls-2" d="M525.68,185.43c-.09.45,1.38,1.08,2.87,2.22s2.52,2.34,2.93,2.13c.19-.1.17-.58-.14-1.25a6.33,6.33,0,0,0-4.42-3.32C526.19,185.1,525.72,185.22,525.68,185.43Z"/><path class="cls-2" d="M513,177.43c.09.47,1.35.78,2.64,1.52s2.24,1.61,2.68,1.43c.21-.09.22-.5-.08-1.08a5,5,0,0,0-4.29-2.38C513.27,177,513,177.2,513,177.43Z"/><path class="cls-2" d="M532.48,222a10.18,10.18,0,0,1-6.31-12.95,9.9,9.9,0,0,1,1.58-2.93c1.74-2.25,4.51-4,5-6.74.67-3.7-3-7.15-2.38-10.85.38-2.15,2.18-3.87,2.45-6s-.9-4-2.21-5.56-2.85-3-3.61-5-.42-4.47,1.38-5.47a108.72,108.72,0,0,1,18.57,18c1.26,1.56,2.53,3.28,2.64,5.28s-1.08,4-2.24,5.82l-17,25.9"/><path class="cls-4" d="M557.21,194.54c-.19,0-.22-3.38-2.26-6.89s-4.9-5.31-4.77-5.46a5.51,5.51,0,0,1,1.87,1.13,14.29,14.29,0,0,1,5.14,9A5.72,5.72,0,0,1,557.21,194.54Z"/><path class="cls-6" d="M550,181.41a2,2,0,0,1-.31.21,4,4,0,0,1-1,.3,5,5,0,0,1-3.7-1.2,9.58,9.58,0,0,1-2.78-5.08c-.57-2.1-.82-4.51-2-6.61a9,9,0,0,0-5.25-4.07,8.64,8.64,0,0,0-5.48.23,9.24,9.24,0,0,0-3.21,2c-.65.62-1,1-1,1a.58.58,0,0,1,.17-.33,5.87,5.87,0,0,1,.66-.83,9.07,9.07,0,0,1,3.22-2.22,8.8,8.8,0,0,1,5.77-.37,9.47,9.47,0,0,1,5.62,4.29c1.29,2.27,1.51,4.72,2.05,6.77a9.31,9.31,0,0,0,2.53,4.9,5,5,0,0,0,3.42,1.29A7.06,7.06,0,0,0,550,181.41Z"/><path class="cls-14" d="M511.55,200.59a7.51,7.51,0,0,0-.14,2.17,2.59,2.59,0,0,0,1,1.84,2.28,2.28,0,0,0,2.22.08,3.78,3.78,0,0,0,1.6-1.64c.32-.62.47-1.5-.09-1.92a1.73,1.73,0,0,0-.82-.27l-3.9-.58"/><path class="cls-2" d="M511.28,203.92a4.93,4.93,0,0,0,1.8.79,2.82,2.82,0,0,0,2-.41,3,3,0,0,0,1.25-2,3.32,3.32,0,0,0,0-.63c0-.2,0-.18-.17-.24a3.65,3.65,0,0,0-.62-.1l-.64-.1c-.84-.12-1.59-.24-2.22-.35a7.23,7.23,0,0,1-2-.49,6.6,6.6,0,0,1,2.08,0c.64,0,1.39.13,2.23.22l.65.07a5.77,5.77,0,0,1,.71.1.81.81,0,0,1,.46.29,1.18,1.18,0,0,1,.19.48,3.57,3.57,0,0,1,0,.8,3.49,3.49,0,0,1-1.58,2.47,3.15,3.15,0,0,1-2.36.35,3,3,0,0,1-1.39-.75C511.33,204.14,511.25,204,511.28,203.92Z"/><path class="cls-2" d="M284.5,348.69s42.11-63.65,47.59-70.95,10.93-13.37,24.32-9.49c6.54,1.9,73,19.53,73,19.53h0l10.93-1.66,37.28,29.42S455,341.81,426.53,331.16c-28.73-10.74-71-29.07-71-29.07S335.76,324.09,329,333c-7.06,9.31-24.68,27.56-24.68,27.56Z"/><path class="cls-2" d="M432.13,275.87c-1.61.59-95.79,16-95.79,16l-19,87.47,22.65,7,24.53-71.1,33.43,2.3,42.43-31.4Z"/><path class="cls-4" d="M432,264.42l10.38,1,13.36-3.14s6.78-16.29,10.15-23.19,30.46-17.55,30.46-17.55l25.94,3.67,7.51,3.23L521.29,259l-23,34.45L476,320.15s-42.08-37.51-43.77-43.61c-1.43-5.22.61-8-3-9.72-1.27-.6-3,.63-3.6,1.61-1.36,2.16-2.79,3.35-2,9.11a8.8,8.8,0,0,1-.92-5.09,12.32,12.32,0,0,1,2-4.39A8.38,8.38,0,0,1,432,264.42Z"/><g class="cls-12"><path d="M479.19,246.62c-2.82,3.41-5.46,8.26-5.44,12.69a52.7,52.7,0,0,1,.1,5.62c-.19,2-.89,3.84-1.09,5.79a22.66,22.66,0,0,0,.77,7.19,16.47,16.47,0,0,0,1.6,4.93,40.84,40.84,0,0,0,3,3.81c2.12,2.78,3.15,6.21,4.64,9.37s3.74,6.27,7.07,7.31c1.58-1.36,3.26-2.9,3.52-5a8.16,8.16,0,0,0-.85-4A117.7,117.7,0,0,0,480.62,272a32.76,32.76,0,0,1-3.52-7.45c-2-5.79.17-12.49,2.1-17.95"/></g><path class="cls-2" d="M480.68,269.8a3.69,3.69,0,0,1-.84-.63A9.67,9.67,0,0,1,478,267a15.57,15.57,0,0,1-2.07-9.12,31.59,31.59,0,0,1,2.26-9.13c.44-1.11.82-2,1.1-2.62a4.1,4.1,0,0,1,.48-.93,38.73,38.73,0,0,1-1.23,3.68,34.76,34.76,0,0,0-2.09,9,16.2,16.2,0,0,0,1.88,8.9A17.3,17.3,0,0,0,480.68,269.8Z"/><path class="cls-13" d="M379.79,178.82l11.47-4.9,9.48,3.55,13.49,16.93-7,7.36-2.18-3.17s-6.79-2.53-8.12-4.89a43.21,43.21,0,0,0-3.31-4.85L391.09,187s-6.91,2.22-8.83.76l-.85-.82,7.23-3-.05-1.91s-5.57,3.24-8.76,2.07l-.88-1.48,5.93-2.36s-3.54.73-4.25,0A3.18,3.18,0,0,1,379.79,178.82Z"/><path class="cls-14" d="M399.33,182.72s.06.08,0,.27a1,1,0,0,1-.47.62,1.36,1.36,0,0,1-1.24,0,10.34,10.34,0,0,1-1.38-.77c-1-.59-2.17-1.26-3.53-1.93-.68-.34-1.4-.67-2.15-1a3.54,3.54,0,0,0-2.29-.49,1.25,1.25,0,0,0-.81.64,1,1,0,0,0,.15,1,17,17,0,0,0,1.62,1.67l2.89,2.83c.82.82,1.47,1.48,1.92,2s.68.73.65.76a3.67,3.67,0,0,1-.79-.62c-.49-.42-1.18-1-2-1.82l-3-2.75-.85-.8a5.11,5.11,0,0,1-.86-.94A1.49,1.49,0,0,1,387,180a1.71,1.71,0,0,1,1.14-.94,4,4,0,0,1,2.64.52c.76.34,1.48.69,2.16,1,1.36.71,2.54,1.42,3.51,2.05a10.74,10.74,0,0,0,1.29.81,1.17,1.17,0,0,0,1,.06A.89.89,0,0,0,399.33,182.72Z"/><path class="cls-14" d="M398.3,182.38a7.5,7.5,0,0,1-2-1,32.92,32.92,0,0,1-4.41-3.09l-.36-.3h.26c-1.85.71-3.52,1.32-4.73,1.73a7.75,7.75,0,0,1-2,.57,9.12,9.12,0,0,1,1.86-.9c1.18-.5,2.82-1.17,4.67-1.88l.15-.06.12.1.36.3C395.41,180.59,398.37,182.24,398.3,182.38Z"/><path class="cls-13" d="M509.24,260.08l-7.9,24.72-4.46-4.4-9.36,4.77,5.07,21s5.66,7.88,12.23,7.39,7.82-4.57,9.89-9.51,13.5-35.73,13.5-35.73S512.1,259.85,509.24,260.08Z"/><path class="cls-13" d="M473.53,268.8s12.11-4.95,13.37-4.57l10.31,3.18a3.23,3.23,0,0,1,.53,3.74s1.64,4.09.77,6.42l-.87,2.33a4.65,4.65,0,0,1-.16,3.55c-1.44,2.78-1.24,3.49-2.43,3.89s-7.77-1-7.77-1-8.44-1.8-8.93-2.8.56-1.81.56-1.81h7l-1.12-1.19-4.13-1s-4.25,1.33-6.42-.29a1,1,0,0,1-.16-1.36l1.08-1.32a3.71,3.71,0,0,1-3-3.61l3.39-1.08S471.36,270.88,473.53,268.8Z"/><path class="cls-14" d="M492.3,270.54a45.15,45.15,0,0,0-8.21-.47,44.2,44.2,0,0,0-8.06,1.58,7.65,7.65,0,0,1,2.24-1,23.29,23.29,0,0,1,5.79-1.13,24.21,24.21,0,0,1,5.89.33A8.14,8.14,0,0,1,492.3,270.54Z"/><path class="cls-14" d="M493.05,276.94a21,21,0,0,1-2.63-.5,36.81,36.81,0,0,0-6.36-.67,37.86,37.86,0,0,0-6.38.5,23.44,23.44,0,0,1-2.64.44,10,10,0,0,1,2.57-.8,28,28,0,0,1,6.45-.66,28.56,28.56,0,0,1,6.44.83A10.09,10.09,0,0,1,493.05,276.94Z"/><path class="cls-14" d="M493.22,283.37a15.87,15.87,0,0,1-4-.54,16.32,16.32,0,0,1-3.9-1,15,15,0,0,1,4,.53A15.88,15.88,0,0,1,493.22,283.37Z"/><path class="cls-14" d="M513.8,298.19a3.15,3.15,0,0,1-.72-.59c-.44-.4-1-1-1.78-1.78-1.47-1.54-3.37-3.77-5.61-6.09s-4.23-4.49-5.66-6.06a23.29,23.29,0,0,1-2.24-2.62,23.2,23.2,0,0,1,2.5,2.36c1.5,1.51,3.51,3.62,5.77,6s4.12,4.61,5.51,6.2A32.22,32.22,0,0,1,513.8,298.19Z"/><path class="cls-4" d="M529.1,228.14a12.31,12.31,0,0,1,6.36,12.24c-.89,8.73-4.79,30.21-4.79,30.21l-24.78-11.52L510.3,242S522.47,226.78,529.1,228.14Z"/><path class="cls-2" d="M487.41,226a1.85,1.85,0,0,1-.44.23l-1.31.58c-1.14.5-2.8,1.19-4.82,2.1a57,57,0,0,0-6.89,3.59c-1.24.77-2.51,1.63-3.78,2.58a16.66,16.66,0,0,0-3.54,3.32,37.62,37.62,0,0,0-4.58,8.28c-1.14,2.69-2.05,5.17-2.85,7.25s-1.44,3.75-2,4.87c-.25.57-.49,1-.64,1.29a2.34,2.34,0,0,1-.26.43,17.24,17.24,0,0,1,.71-1.8c.47-1.14,1.07-2.83,1.82-4.92s1.62-4.59,2.75-7.31a36.61,36.61,0,0,1,4.61-8.41,16.84,16.84,0,0,1,3.64-3.41q1.95-1.43,3.84-2.58a54.6,54.6,0,0,1,7-3.53c2.05-.87,3.73-1.5,4.89-1.94l1.35-.49A1.76,1.76,0,0,1,487.41,226Z"/><path class="cls-2" d="M530.67,270.59a11.83,11.83,0,0,1-1.65-.66l-4.42-2c-3.73-1.68-8.85-4-14.5-6.66l-4.32-2-.18-.09V259c1.09-5,2.1-9.31,2.88-12.4.39-1.54.72-2.77,1-3.61a7.13,7.13,0,0,1,.43-1.28,8.65,8.65,0,0,1-.25,1.33c-.21.93-.49,2.15-.82,3.64-.69,3.19-1.63,7.51-2.7,12.43l-.14-.29,4.32,2c5.65,2.62,10.75,5,14.43,6.79l4.35,2.12A12.1,12.1,0,0,1,530.67,270.59Z"/><path class="cls-2" d="M529.61,228.38c0,.08-.91-.07-2.35-.06a17.31,17.31,0,0,0-5.52,1,16.7,16.7,0,0,0-4.9,2.72c-1.13.9-1.73,1.58-1.8,1.52a6.73,6.73,0,0,1,1.56-1.8A15,15,0,0,1,527.27,228,6.22,6.22,0,0,1,529.61,228.38Z"/><path class="cls-6" d="M440.23,291.72c0,.13-8-2-17.84-4.86s-17.75-5.21-17.71-5.35,8,2,17.85,4.85S440.27,291.54,440.23,291.72Z"/><path class="cls-6" d="M284.5,348.69l.36.19,1,.59,4,2.32,14.56,8.63h-.23c9.61-10.71,22.94-25.59,37.23-42.4,5.29-6.27,10.34-12.35,14.73-18.16l.11-.15.18.07c7.56,3.07,14.39,6.4,20.49,9.4s11.45,5.71,15.93,7.88,8.09,3.81,10.58,4.9l2.86,1.24.74.32.24.13-.26-.09-.75-.28c-.66-.27-1.64-.63-2.89-1.17-2.52-1-6.14-2.64-10.65-4.77s-9.89-4.79-16-7.78-12.94-6.28-20.49-9.32l.29-.08c-4.38,5.83-9.43,11.93-14.73,18.19-14.29,16.82-27.66,31.66-37.35,42.31l-.1.11-.13-.07-14.48-8.78-3.92-2.4-1-.64A1.5,1.5,0,0,1,284.5,348.69Z"/><path class="cls-6" d="M356.39,300.09a27.75,27.75,0,0,1-1.23-3.88A26.48,26.48,0,0,1,354,292.3a11.77,11.77,0,0,1,1.63,3.76A11.54,11.54,0,0,1,356.39,300.09Z"/><path class="cls-3" d="M479.53,245.75a7.33,7.33,0,0,1-2.37.31,17,17,0,0,1-10.81-3.69,6.66,6.66,0,0,1-1.68-1.71,24.85,24.85,0,0,0,6.93,4A25.33,25.33,0,0,0,479.53,245.75Z"/><path class="cls-3" d="M507.12,248.54c0,.08-1.5-.5-3.94-1.17a44.6,44.6,0,0,0-9.74-1.51,43.81,43.81,0,0,0-9.83.73c-2.49.47-4,.93-4,.84a4,4,0,0,1,1-.41,29.06,29.06,0,0,1,2.91-.79,38.69,38.69,0,0,1,19.75.79,26.59,26.59,0,0,1,2.84,1A4.2,4.2,0,0,1,507.12,248.54Z"/><path class="cls-3" d="M534.47,247.67c0,.14-5.76-.33-12.84-1.06s-12.8-1.44-12.78-1.58,5.76.33,12.84,1.06S534.48,247.54,534.47,247.67Z"/><path class="cls-3" d="M474.17,232.12a11.18,11.18,0,0,1-1.13-3.23,12,12,0,0,1-.63-3.36A21.8,21.8,0,0,1,474.17,232.12Z"/><path class="cls-14" d="M497.28,279.32a2.07,2.07,0,0,1,.62,1.28,3.88,3.88,0,0,1-1.07,3.47l.06-.28a2.27,2.27,0,0,1-1,2.95,4.14,4.14,0,0,1-1.65.41h-1.53a19.88,19.88,0,0,1-2.56-.16,7.38,7.38,0,0,1-2.31-.52,23,23,0,0,1,2.34.15c.72,0,1.58.07,2.53.05a7.53,7.53,0,0,0,2.94-.43,1.78,1.78,0,0,0,.78-2.28l-.08-.16.14-.13a3.7,3.7,0,0,0,1.1-3.07C497.51,280.17,497.4,279.74,497.28,279.32Z"/><path class="cls-6" d="M556,190.39a5,5,0,0,1-.55,1.11,12.14,12.14,0,0,1-2.14,2.64,14.1,14.1,0,0,1-4.22,2.77A13.69,13.69,0,0,1,543,198a13.54,13.54,0,0,1-5.91-1.8,14.15,14.15,0,0,1-3.86-3.24,11.84,11.84,0,0,1-1.81-2.88,4.4,4.4,0,0,1-.41-1.17,20,20,0,0,0,2.49,3.81,14.55,14.55,0,0,0,3.83,3.06,13.06,13.06,0,0,0,11.57.69,14.38,14.38,0,0,0,4.16-2.59A20.38,20.38,0,0,0,556,190.39Z"/><path class="cls-6" d="M556.17,191.54a1.73,1.73,0,0,0,.08.42,6.44,6.44,0,0,1,.06,1.24,11.94,11.94,0,0,1-1.1,4.43,21.3,21.3,0,0,1-3.82,5.57c-1.7,1.89-3.75,3.78-5.6,6s-3.44,4.54-5.23,6.37a14.75,14.75,0,0,1-5.6,3.78,8.86,8.86,0,0,1-4.53.47,5,5,0,0,1-1.2-.33,1.38,1.38,0,0,1-.39-.18c0-.06.57.18,1.62.31a9.2,9.2,0,0,0,4.37-.61,14.51,14.51,0,0,0,5.38-3.77c1.74-1.81,3.32-4.1,5.18-6.37s4-4.15,5.64-6a22.33,22.33,0,0,0,3.85-5.4,12.52,12.52,0,0,0,1.22-4.28C556.19,192.16,556.12,191.54,556.17,191.54Z"/><path class="cls-6" d="M572.13,148.24s-.6.17-1.63.6a12.87,12.87,0,0,0-3.9,2.56,12.47,12.47,0,0,0-3.45,5.9c-.67,2.53-.22,5.45.07,8.49a19.38,19.38,0,0,1-1,8.61,19.68,19.68,0,0,1-3.56,6.12,16.83,16.83,0,0,1-3.55,3.19,10.55,10.55,0,0,1-1.11.67,1.73,1.73,0,0,1-.41.2l1.4-1a19,19,0,0,0,3.39-3.25,19.8,19.8,0,0,0,3.38-6.05,19,19,0,0,0,.91-8.4c-.29-3-.74-6,0-8.66a12.73,12.73,0,0,1,3.66-6,12.13,12.13,0,0,1,4.08-2.48,8.9,8.9,0,0,1,1.25-.35A1.24,1.24,0,0,1,572.13,148.24Z"/><path class="cls-6" d="M594,156.54s-.75-.35-2.14-.85a18.34,18.34,0,0,0-6.14-1,17.28,17.28,0,0,0-8.77,2.47,17.49,17.49,0,0,0-8.31,14.18c-.12,1.9-.09,3.75-.29,5.52a13.26,13.26,0,0,1-1.42,4.84,13.43,13.43,0,0,1-8.13,6.63,10.72,10.72,0,0,1-1.69.32,2,2,0,0,1-.6,0c0-.05.82-.11,2.23-.55a13.48,13.48,0,0,0,5.28-3.2,12.72,12.72,0,0,0,3.85-8.12c.19-1.73.15-3.57.26-5.5a17.8,17.8,0,0,1,8.58-14.56,17.57,17.57,0,0,1,15.22-1.26,13,13,0,0,1,1.56.73A2.89,2.89,0,0,1,594,156.54Z"/></g></svg>