<svg id="Layer_1" data-name="Layer 1" xmlns="http://www.w3.org/2000/svg" viewBox="0 0 695.94 460.12"><defs><style>.cls-1{fill:#455a64;}.cls-2{fill:#263238;}.cls-3{fill:#f5f5f5;}.cls-4{fill:#fff;}.cls-5{fill:#ebebeb;}</style></defs><g id="freepik--Device--inject-548"><path class="cls-1" d="M507.89,386.07,403.63,397.48a15.28,15.28,0,0,1-16.86-13.54h0l-25.7-234.83a17.43,17.43,0,0,1,15.43-19.22l102.33-11.2a15.46,15.46,0,0,1,17,13.68l25.92,236.44A15.66,15.66,0,0,1,507.89,386.07Z"/><rect class="cls-2" x="375.5" y="125.72" width="131.54" height="264.68" rx="14.31" transform="translate(-25.43 49.49) rotate(-6.24)"/><path class="cls-1" d="M418.14,136a1.51,1.51,0,0,1-.33-3l19.31-2.12a1.51,1.51,0,0,1,.33,3Z"/><path class="cls-1" d="M407.79,137.14a1.51,1.51,0,1,1,1.34-1.66h0A1.52,1.52,0,0,1,407.79,137.14Z"/><path class="cls-1" d="M413.32,136.54a1.51,1.51,0,0,1-.44-3H413a1.51,1.51,0,0,1,1.66,1.32h0A1.52,1.52,0,0,1,413.32,136.54Z"/><path class="cls-1" d="M447.89,132.76a1.51,1.51,0,1,1,1.34-1.67A1.51,1.51,0,0,1,447.89,132.76Z"/><path class="cls-1" d="M442.36,133.36a1.51,1.51,0,1,1,1.34-1.67,1.51,1.51,0,0,1-1.34,1.67Z"/><path class="cls-3" d="M475,123.09l-18.18,2a4,4,0,0,0-3.49,3.27l-.93,5.29a4.45,4.45,0,0,1-3.91,3.66l-40.27,4.41a4.48,4.48,0,0,1-4.61-2.73l-2-5a4,4,0,0,0-4.12-2.44l-18.18,2a14.57,14.57,0,0,0-12.89,16.06l25,228.81a14.55,14.55,0,0,0,16,12.89h0l95.72-10.47A14.56,14.56,0,0,0,516,364.78h0L491,136A14.58,14.58,0,0,0,475,123.09Z"/><path class="cls-4" d="M485.75,126.27a14.55,14.55,0,0,0-10.8-3.18l-18.18,2a4,4,0,0,0-3.49,3.27l-.93,5.29a4.45,4.45,0,0,1-3.91,3.66l-40.27,4.41a4.48,4.48,0,0,1-4.61-2.73l-2-5a4,4,0,0,0-4.12-2.44l-18.18,2a14.57,14.57,0,0,0-12.89,16.06l17.95,164h.38c12.29,0,23.28-8.95,28.83-19.92s6.55-23.67,6.39-36-1.36-24.65.2-36.85a82.83,82.83,0,0,1,29.24-52.92c7.87-6.38,16.93-11.38,24.34-18.38C480.23,143.42,485.5,135.07,485.75,126.27Z"/><path class="cls-4" d="M516.07,364.79l-7.24-66.2A61.48,61.48,0,0,0,466,384.92l37.19-4.07a14.56,14.56,0,0,0,12.93-16Z"/><path class="cls-1" d="M500.55,175.12h0a.9.9,0,0,1,1,.77v0l3.17,29a.9.9,0,0,1-.77,1h0Z"/><path class="cls-1" d="M367.61,208.83h0a.93.93,0,0,0-.82,1l1.93,17.62a.92.92,0,0,0,1,.82h0Z"/><path class="cls-1" d="M364.83,183.41h0a.93.93,0,0,0-.82,1L366,202.05a.92.92,0,0,0,1,.82h0Z"/><path class="cls-1" d="M362.74,164.34h0a.78.78,0,0,0-.7.85v0l.81,7.47a.8.8,0,0,0,.88.7h0Z"/><rect class="cls-4" x="460.2" y="133.48" width="0.93" height="1.31" transform="translate(-11.85 50.87) rotate(-6.24)"/><rect class="cls-4" x="461.68" y="132.72" width="0.93" height="1.89" transform="translate(-11.8 51.11) rotate(-6.25)"/><rect class="cls-4" x="463.16" y="132.16" width="0.93" height="2.33" transform="translate(-11.74 51.18) rotate(-6.24)"/><rect class="cls-4" x="464.62" y="131.14" width="0.93" height="3.17" transform="translate(-11.67 51.34) rotate(-6.24)"/><path class="cls-4" d="M479.43,132.79l-4.65.51a.34.34,0,0,1-.37-.3l-.26-2.31a.34.34,0,0,1,.3-.37l4.66-.51h.06a.06.06,0,0,1,0,.06l.09.76h.49a.09.09,0,0,1,.1.08h0l.12,1.11a.1.1,0,0,1-.08.1h-.49l.08.76A.1.1,0,0,1,479.43,132.79ZM479,130l-4.57.5a.16.16,0,0,0-.14.18h0l.25,2.31a.17.17,0,0,0,.18.15l4.57-.5-.08-.77a.07.07,0,0,1,.05-.09h0l.5-.06-.1-.94-.5,0a.08.08,0,0,1-.1-.06h0Z"/><polygon class="cls-4" points="474.94 132.72 474.73 130.84 478.7 130.41 478.8 131.26 478.82 131.44 478.91 132.29 474.94 132.72"/><path class="cls-4" d="M470.16,133.62a.34.34,0,0,0-.38-.3h0a.34.34,0,1,0,.08.68h0a.34.34,0,0,0,.3-.38Z"/><path class="cls-4" d="M468.57,133l.48.38a1,1,0,0,1,.7-.38,1,1,0,0,1,.75.22l.39-.48a1.65,1.65,0,0,0-2.32.26Z"/><path class="cls-4" d="M469.57,131.39a2.58,2.58,0,0,0-1.76,1l.48.38a2,2,0,0,1,2.82-.31l.39-.48A2.6,2.6,0,0,0,469.57,131.39Z"/><path class="cls-4" d="M467,131.73l.48.38a3,3,0,0,1,2-1.11,3,3,0,0,1,2.21.65l.39-.48a3.62,3.62,0,0,0-5.09.55h0Z"/><circle class="cls-5" cx="468.19" cy="246.87" r="16.57"/></g></svg>