<?xml version="1.0" encoding="utf-8"?>
<!-- Generator: Adobe Illustrator 25.4.1, SVG Export Plug-In . SVG Version: 6.00 Build 0)  -->
<svg version="1.1" id="Capa_1" xmlns="http://www.w3.org/2000/svg" xmlns:xlink="http://www.w3.org/1999/xlink" x="0px" y="0px"
	 viewBox="0 0 512 419" style="enable-background:new 0 0 512 419;" xml:space="preserve">
<style type="text/css">
	.st0{fill:url(#SVGID_1_);}
	.st1{fill:#F2F2F2;}
</style>
<linearGradient id="SVGID_1_" gradientUnits="userSpaceOnUse" x1="281.8196" y1="-654.2999" x2="281.8196" y2="-307.0038" gradientTransform="matrix(1 0 0 -1 0 -246.4659)">
	<stop  offset="0" style="stop-color:#39C0C8"/>
	<stop  offset="1" style="stop-color:#74D3D8"/>
</linearGradient>
<path class="st0" d="M493.2,144.2H299.7V60.5H55.6v133h183.6V360c0,6.6,6.7,11.9,14.9,11.9h127.8l40.3,32.3
	c4.3,3.4,10.7,4.4,16.2,2.6c5.6-1.8,9.2-6.2,9.2-11V372h45.6c8.2,0,14.9-5.3,14.9-11.9V156.1C508.1,149.5,501.4,144.2,493.2,144.2z"
	/>
<path class="st1" d="M373.1,299.5c-8.2,0-14.9,5.3-14.9,11.9s6.7,11.9,14.9,11.9s14.9-5.3,14.9-11.9S381.3,299.5,373.1,299.5z
	 M373.1,192c-24.6,0-44.7,16.1-44.7,35.8c0,6.6,6.7,11.9,14.9,11.9s14.9-5.3,14.9-11.9c0-6.6,6.7-11.9,14.9-11.9s14.9,5.4,14.9,11.9
	c0,4.9-3.7,9.3-9.4,11.1c-12.4,4-20.4,13.4-20.4,24.1v0.6c0,6.6,6.7,11.9,14.9,11.9s14.9-5.3,14.9-11.9v-0.6c0-0.8,0.7-1.6,1.6-1.9
	c17.1-5.5,28.1-18.5,28.1-33.3C417.8,208,397.7,192,373.1,192L373.1,192z M328.5,84.4C328.5,37.9,281.7,0,224.3,0H105.2
	C77.4,0,51,8.8,31,24.9S0,62.1,0,84.4v71.7c0,16,8,31,22.4,42.3c10.7,8.4,23.9,13.9,38.1,16.2v37c0,4.8,3.6,9.2,9.2,11
	c5.6,1.8,12,0.8,16.2-2.6l55.2-44.3h83.1c57.5,0,104.2-37.5,104.2-83.6V84.4z M105.2,120.3c-8.2,0-14.9-5.3-14.9-11.9
	c0-6.6,6.7-11.9,14.9-11.9s14.9,5.3,14.9,11.9C120.1,114.9,113.4,120.3,105.2,120.3z M164.7,120.3c-8.2,0-14.9-5.3-14.9-11.9
	c0-6.6,6.7-11.9,14.9-11.9s14.9,5.3,14.9,11.9C179.6,114.9,172.9,120.3,164.7,120.3z M224.3,120.3c-8.2,0-14.9-5.3-14.9-11.9
	c0-6.6,6.7-11.9,14.9-11.9s14.9,5.3,14.9,11.9C239.1,114.9,232.5,120.3,224.3,120.3z"/>
</svg>
