<svg width="86" height="24" viewBox="0 0 86 24" fill="none" xmlns="http://www.w3.org/2000/svg">
<path d="M25.4834 3.37H30.8138V4.76472H26.9497V7.05456H30.5958V8.44928H26.9497V12.0506H25.4834V3.37Z" fill="#ffffff"/>
<path d="M32.1803 3.28671C32.6955 3.28671 33.0918 3.66141 33.0918 4.16102C33.0918 4.66062 32.6955 5.03532 32.1803 5.03532C31.6651 5.03532 31.2886 4.61899 31.2886 4.16102C31.2886 3.70305 31.6651 3.28671 32.1803 3.28671ZM31.4867 6.15943H32.8936V12.0506H31.4867V6.15943Z" fill="#ffffff"/>
<path d="M34.1431 6.15942H35.55V7.09617H35.5698C35.867 6.43004 36.5011 6.0137 37.2343 6.0137C37.4126 6.0137 37.5712 6.05534 37.7297 6.09697V7.51251C37.4919 7.45006 37.2739 7.40842 37.0559 7.40842C35.7283 7.40842 35.55 8.57416 35.55 8.88641V12.0506H34.1431V6.15942Z" fill="#ffffff"/>
<path d="M41.3159 7.80397C41.0384 7.40845 40.7016 7.20028 40.226 7.20028C39.8495 7.20028 39.4136 7.38763 39.4136 7.82478C39.4136 8.88644 42.4453 8.01213 42.4453 10.3228C42.4453 11.7175 41.1772 12.2171 40.0279 12.2171C39.156 12.2171 38.4228 11.9881 37.8481 11.3012L38.7795 10.3852C39.1362 10.8016 39.5126 11.1138 40.1071 11.1138C40.5232 11.1138 41.0384 10.9057 41.0384 10.4477C41.0384 9.24032 38.0067 10.1979 38.0067 7.94968C38.0067 6.63823 39.1362 6.05536 40.2656 6.05536C41.0186 6.05536 41.8113 6.30516 42.267 6.95048L41.3159 7.80397Z" fill="#ffffff"/>
<path d="M42.6636 7.40843V6.15943H43.8129V4.45245H45.2198V6.15943H46.7654V7.40843H45.2198V9.98971C45.2198 10.5726 45.3783 10.9473 46.0124 10.9473C46.2502 10.9473 46.587 10.9056 46.7654 10.7599V12.0089C46.4682 12.1547 45.9926 12.1963 45.6557 12.1963C44.1696 12.1963 43.8129 11.4885 43.8129 10.1146V7.40843H42.6636Z" fill="#ffffff"/>
<path d="M49.8169 3.37H55.1473V4.76472H51.2832V7.05456H54.9293V8.44928H51.2832V12.0506H49.8169V3.37Z" fill="#ffffff"/>
<path d="M56.5944 9.61501C56.6935 10.4893 57.3276 11.0097 58.1004 11.0097C58.7939 11.0097 59.2497 10.6558 59.6064 10.2187L60.617 11.0097C59.963 11.8632 59.1308 12.1963 58.2391 12.1963C56.5548 12.1963 55.1875 10.9473 55.1875 9.09459C55.1875 7.2419 56.535 5.99289 58.2391 5.99289C59.8045 5.99289 60.8746 7.13781 60.8746 9.19867V9.59419H56.5944V9.61501ZM59.4677 8.51172C59.4478 7.65823 58.9128 7.11699 58.0409 7.11699C57.2087 7.11699 56.6935 7.67905 56.5944 8.51172H59.4677Z" fill="#ffffff"/>
<path d="M66.1258 11.1763H66.106C65.6898 11.884 64.9566 12.2171 64.1838 12.2171C62.4599 12.2171 61.4097 10.864 61.4097 9.11541C61.4097 7.3668 62.5193 6.01371 64.1244 6.01371C65.1746 6.01371 65.7295 6.53413 66.0267 6.90883H66.0663V2.7663H67.4732V12.0506H66.1456V11.1763H66.1258ZM64.4613 10.8848C65.4917 10.8848 66.106 10.0313 66.106 9.11541C66.106 8.19947 65.4917 7.34598 64.4613 7.34598C63.4309 7.34598 62.8166 8.19947 62.8166 9.11541C62.8166 10.0313 63.4309 10.8848 64.4613 10.8848Z" fill="#ffffff"/>
<path d="M69.6525 9.61501C69.7516 10.4893 70.3857 11.0097 71.1585 11.0097C71.852 11.0097 72.3078 10.6558 72.6645 10.2187L73.6751 11.0097C73.0211 11.8632 72.1889 12.1963 71.2972 12.1963C69.6129 12.1963 68.2456 10.9473 68.2456 9.09459C68.2456 7.2419 69.5931 5.99289 71.2972 5.99289C72.8626 5.99289 73.9327 7.13781 73.9327 9.19867V9.59419H69.6525V9.61501ZM72.5258 8.51172C72.5059 7.65823 71.9709 7.11699 71.099 7.11699C70.2668 7.11699 69.7516 7.67905 69.6525 8.51172H72.5258Z" fill="#ffffff"/>
<path d="M74.7446 6.15942H76.1515V7.09617H76.1713C76.4686 6.43004 77.1027 6.0137 77.8358 6.0137C78.0142 6.0137 78.1727 6.05534 78.3312 6.09697V7.51251C78.0934 7.45006 77.8755 7.40842 77.6575 7.40842C76.3299 7.40842 76.1515 8.57416 76.1515 8.88641V12.0506H74.7446V6.15942Z" fill="#ffffff"/>
<path d="M82.2745 11.2387H82.2348C81.8385 11.9048 81.1846 12.1963 80.4316 12.1963C79.4012 12.1963 78.3906 11.5926 78.3906 10.4269C78.3906 8.51171 80.5109 8.38681 81.9178 8.38681H82.2745V8.22028C82.2745 7.49169 81.7395 7.11699 80.9865 7.11699C80.4118 7.11699 79.857 7.36679 79.5003 7.72068L78.7671 6.95046C79.3814 6.28432 80.2533 6.0137 81.145 6.0137C83.5427 6.0137 83.5427 7.82476 83.5427 8.65743V12.0506H82.2745V11.2387ZM82.1952 9.40683H81.898C81.1252 9.40683 79.7975 9.46928 79.7975 10.3228C79.7975 10.864 80.3325 11.093 80.7883 11.093C81.7395 11.093 82.1952 10.5726 82.1952 9.7399V9.40683Z" fill="#ffffff"/>
<path d="M84.5933 2.7663H86.0002V12.0506H84.5933V2.7663Z" fill="#ffffff"/>
<path d="M25.4842 14.278H26.9505V21.5638H30.4579V22.9586H25.4644V14.278H25.4842Z" fill="#ffffff"/>
<path d="M34.5982 22.1467H34.5586C34.1623 22.8128 33.5083 23.1043 32.7554 23.1043C31.7249 23.1043 30.7144 22.5006 30.7144 21.3348C30.7144 19.4197 32.8346 19.2948 34.2415 19.2948H34.5982V19.1283C34.5982 18.3997 34.0632 18.025 33.3102 18.025C32.7355 18.025 32.1807 18.2748 31.824 18.6287L31.0908 17.8584C31.7051 17.1923 32.577 16.9217 33.4687 16.9217C35.8664 16.9217 35.8664 18.7327 35.8664 19.5654V22.9586H34.5982V22.1467ZM34.4991 20.3356H34.2019C33.4291 20.3356 32.1014 20.3981 32.1014 21.2516C32.1014 21.7928 32.6365 22.0218 33.0922 22.0218C34.0434 22.0218 34.4991 21.5014 34.4991 20.6687V20.3356Z" fill="#ffffff"/>
<path d="M36.8975 13.6951H38.3044V19.5238L40.4643 17.0674H42.2675L39.8698 19.7528L42.426 22.9586H40.5633L38.3242 19.9609H38.3044V22.9586H36.8975V13.6951Z" fill="#ffffff"/>
<path d="M43.4757 20.5438C43.5748 21.4181 44.2089 21.9385 44.9817 21.9385C45.6753 21.9385 46.131 21.5846 46.4877 21.1475L47.4983 21.9385C46.8444 22.792 46.0121 23.1251 45.1204 23.1251C43.4361 23.1251 42.0688 21.8761 42.0688 20.0234C42.0688 18.1707 43.4163 16.9217 45.1204 16.9217C46.6859 16.9217 47.7559 18.0666 47.7559 20.1275V20.523H43.4757V20.5438ZM46.349 19.4405C46.3292 18.587 45.7942 18.0458 44.9223 18.0458C44.09 18.0458 43.5748 18.6078 43.4757 19.4405H46.349Z" fill="#ffffff"/>
<path d="M47.6768 17.0674H49.2026L50.4113 21.1891H50.4311L51.5606 17.0674H53.0864L54.2951 21.1891H54.315L55.4841 17.0674H56.891L54.9887 22.9586H53.6016L52.274 18.9409H52.2541L51.0652 22.9586H49.6187L47.6768 17.0674Z" fill="#ffffff"/>
<path d="M60.0413 16.9217C61.7257 16.9217 63.0929 18.1707 63.0929 20.0234C63.0929 21.8761 61.7455 23.1251 60.0413 23.1251C58.357 23.1251 56.9897 21.8761 56.9897 20.0234C56.9897 18.1707 58.357 16.9217 60.0413 16.9217ZM60.0413 21.7928C61.0717 21.7928 61.686 20.9393 61.686 20.0234C61.686 19.1075 61.0717 18.254 60.0413 18.254C59.0109 18.254 58.3966 19.1075 58.3966 20.0234C58.3966 20.9393 59.0109 21.7928 60.0413 21.7928Z" fill="#ffffff"/>
<path d="M66.6009 16.9217C68.2852 16.9217 69.6525 18.1707 69.6525 20.0234C69.6525 21.8761 68.305 23.1251 66.6009 23.1251C64.9166 23.1251 63.5493 21.8761 63.5493 20.0234C63.5691 18.1707 64.9166 16.9217 66.6009 16.9217ZM66.6009 21.7928C67.6313 21.7928 68.2456 20.9393 68.2456 20.0234C68.2456 19.1075 67.6313 18.254 66.6009 18.254C65.5705 18.254 64.9562 19.1075 64.9562 20.0234C64.9562 20.9393 65.5903 21.7928 66.6009 21.7928Z" fill="#ffffff"/>
<path d="M74.8831 22.0843H74.8633C74.4471 22.792 73.714 23.1251 72.9412 23.1251C71.2172 23.1251 70.167 21.772 70.167 20.0234C70.167 18.2748 71.2767 16.9217 72.8817 16.9217C73.9319 16.9217 74.4868 17.4421 74.784 17.8168H74.8236V13.6951H76.2305V22.9794H74.9029V22.0843H74.8831ZM73.2186 21.7928C74.249 21.7928 74.8633 20.9393 74.8633 20.0234C74.8633 19.1075 74.249 18.254 73.2186 18.254C72.1882 18.254 71.5739 19.1075 71.5739 20.0234C71.5739 20.9393 72.1882 21.7928 73.2186 21.7928Z" fill="#ffffff"/>
<path d="M18.5286 12.1755C17.7954 12.1755 17.0226 12.3212 16.3489 12.6751C15.6752 13.0082 15.0807 13.5078 14.5853 14.0906C14.2485 14.4862 13.9711 14.9441 13.7531 15.4229L13.7729 15.3605C13.8323 15.1523 13.872 14.9649 13.9314 14.7568C14.0305 14.3404 14.1494 13.9449 14.2683 13.5286L14.625 12.2796L14.8033 11.6551L14.8429 11.4885L14.8826 11.3845C14.9024 11.322 14.942 11.2596 14.9816 11.1763C15.1402 10.8849 15.3978 10.5726 15.6554 10.2395C15.9328 9.92729 16.2102 9.59422 16.5074 9.24034C16.8047 8.88645 17.0821 8.53257 17.3397 8.11623C17.4586 7.90807 17.5775 7.67908 17.6567 7.4501C17.736 7.22111 17.7954 6.9505 17.7558 6.70069L17.4982 6.67988C17.3595 7.05458 17.0623 7.34601 16.765 7.61663C16.448 7.88725 16.1111 8.11623 15.7743 8.36603C15.4176 8.61584 15.0609 8.86564 14.7042 9.15707C14.3475 9.44851 13.9909 9.76076 13.654 10.1979C13.5747 10.302 13.4955 10.4269 13.4162 10.5726L13.2379 10.9265L12.9406 11.551C12.9406 11.5718 12.9208 11.5926 12.9208 11.6134C12.7227 11.5094 12.5245 11.3845 12.3462 11.2387C12.1678 11.093 11.9895 10.9265 11.831 10.7391C11.6923 10.5518 11.5734 10.3228 11.4941 10.0522H11.4347C11.395 10.3228 11.395 10.6142 11.4545 10.9057C11.5139 11.1971 11.613 11.4677 11.7319 11.7383C11.8508 12.009 12.0093 12.2588 12.1678 12.5086C12.2471 12.6127 12.3264 12.7376 12.4056 12.8416C12.3264 13.0498 12.2471 13.2788 12.1678 13.5078C12.1084 13.7368 12.0291 13.9449 11.9697 14.1739C11.9102 14.4029 11.8508 14.6319 11.8112 14.8609L11.7913 14.9649C11.3752 14.3613 10.9195 13.82 10.3844 13.3621C10.0278 13.029 9.65126 12.7376 9.27477 12.4878C9.23514 12.4461 9.21532 12.3837 9.19551 12.342C9.13606 12.238 9.07661 12.1131 9.01717 11.9882C8.91809 11.7383 8.83883 11.4885 8.77938 11.2387C8.66049 10.7183 8.64067 10.1563 8.71993 9.61504C8.77938 9.34442 8.81901 9.05299 8.91809 8.78237C8.95772 8.65747 8.99735 8.51175 9.0568 8.36603L9.23514 7.97052C9.29459 7.8248 9.37385 7.72072 9.43329 7.575L9.65127 7.2003C9.80979 6.9505 9.98813 6.72151 10.1665 6.47171L10.0079 6.30518C9.78997 6.51334 9.572 6.72151 9.37385 6.9505L9.07661 7.30438C8.97754 7.42928 8.87846 7.53336 8.7992 7.67908L8.54159 8.0746C8.44252 8.1995 8.38307 8.34522 8.32362 8.49094C8.1651 8.76155 8.06602 9.0738 7.94713 9.38606C7.74897 10.0106 7.66971 10.6975 7.70934 11.3845C7.70934 11.4677 7.70934 11.5302 7.72916 11.6134C7.19414 11.3845 6.6393 11.2179 6.04484 11.1347C5.62871 11.0722 5.17296 11.0514 4.75683 11.1138C4.3407 11.1763 3.92458 11.2804 3.52827 11.4469C2.75546 11.78 2.08173 12.342 1.62598 13.0082L1.80432 13.2163C2.14118 13.0082 2.45823 12.8416 2.79509 12.6959C3.13196 12.571 3.46882 12.4669 3.80568 12.4045C4.14255 12.342 4.47941 12.3212 4.81628 12.342C4.99462 12.342 5.13332 12.3629 5.29185 12.4045C5.45037 12.4253 5.6089 12.4669 5.76742 12.5086C6.08447 12.5918 6.42133 12.7167 6.73838 12.8833C7.05543 13.029 7.37248 13.1955 7.66971 13.3829C8.28399 13.7368 8.85864 14.1531 9.41348 14.6111C9.9485 15.069 10.4439 15.5894 10.8402 16.1723C11.2365 16.7552 11.5536 17.3797 11.6923 18.025C11.7715 18.3581 11.7913 18.6911 11.7715 19.0242C11.7517 19.3989 11.7121 19.7736 11.6526 20.1483C11.5337 20.8145 11.3554 21.4598 11.0582 22.0426L9.71071 23.021C9.71071 23.021 9.63145 23.0835 9.65127 23.1459C9.67108 23.2084 9.75034 23.1876 9.75034 23.1876L11.7121 23.0627C11.7121 23.0627 12.3858 23.8745 12.7029 23.937C12.7821 23.9578 12.9803 23.9162 13.4558 23.3541C14.0701 22.6255 14.8826 23.1876 15.5761 23.021C15.6752 23.0002 15.695 22.9794 15.6752 22.9586C15.5365 22.7712 15.1402 22.5839 14.8826 22.3549C14.8231 22.2924 14.724 22.23 14.6051 22.1051C14.3872 21.543 14.3079 20.9394 14.2881 20.3149C14.2881 20.0026 14.2881 19.6695 14.3079 19.3365C14.3277 19.0034 14.3475 18.6911 14.3872 18.3789C14.5655 17.1715 15.0807 16.0266 15.8337 15.1731C16.6065 14.3404 17.5775 13.7368 18.6673 13.5702C18.9447 13.5286 19.2222 13.5078 19.4996 13.5286C19.777 13.5286 20.0742 13.591 20.3517 13.6535C20.9263 13.7784 21.501 14.0282 22.0558 14.3613L22.2341 14.1531C21.4415 12.9665 20.0148 12.1755 18.5286 12.1755Z" fill="#ffffff"/>
<path d="M14.6441 3.0161C13.911 4.63981 13.5345 5.18104 12.5833 5.05614C12.3654 5.01451 12.405 4.61899 12.3852 4.41082C12.4446 2.82875 13.3759 0.559722 14.6045 0.95524C15.3377 1.20504 14.8621 2.55813 14.6441 3.0161ZM21.5003 8.05375C20.3312 8.28274 19.6773 9.61501 19.3404 10.8432C19.281 11.1346 18.9441 11.8008 19.3206 11.9257C20.351 12.2796 21.2031 10.6142 21.7183 9.55256C21.6985 9.55256 22.4118 7.90804 21.5003 8.05375ZM5.19213 4.30674C4.79582 5.70146 5.50918 7.09618 6.3018 8.09539C6.49996 8.30356 6.87645 8.94887 7.13406 8.67826C8.00594 7.72069 7.03498 5.95126 6.46033 4.84797C6.46033 4.82716 5.50918 3.20345 5.19213 4.30674ZM22.7091 11.1138C21.9957 10.864 21.2625 11.093 20.7671 11.8216C20.6681 11.9673 20.7077 12.2379 20.8464 12.342C21.6192 12.8624 22.61 13.0914 23.4224 12.5918C23.5611 12.5085 23.6998 12.2587 23.5809 12.0298C23.5611 12.0089 23.2837 11.322 22.7091 11.1138ZM8.48151 1.62138C8.38243 1.53811 8.22391 1.45484 8.16446 1.55893C7.98612 2.91202 8.50133 4.49409 9.53173 5.26431C9.67044 5.36839 9.98749 5.65983 10.0866 5.38921C10.582 4.05694 9.41284 2.6414 8.48151 1.62138ZM11.9492 5.59738C11.6718 6.28433 11.5133 6.72148 11.5331 7.30435C11.5727 8.59499 12.1276 9.82318 12.9796 10.4893C13.158 10.635 13.3759 10.5101 13.3958 10.2395C13.5345 8.78234 13.3165 6.9921 12.5239 5.74309C12.3852 5.49329 12.0879 5.30594 11.9492 5.59738ZM5.25158 14.5694C5.29121 14.9233 5.07324 15.527 5.58844 15.6519C6.32162 15.8184 6.9359 14.9233 6.81701 14.1114C6.77738 13.8408 6.71793 13.3412 6.36125 13.3412C5.94512 13.3412 5.19213 13.9865 5.25158 14.5694ZM5.23176 13.2788C5.25158 13.1539 5.25158 12.9457 5.13269 12.9041C3.90412 12.571 2.75482 13.5077 2.57648 14.6735C2.55667 14.8608 2.43778 15.2147 2.73501 15.3188C3.98339 15.756 4.79582 14.4237 5.23176 13.2788ZM3.40874 10.4893C3.28984 9.844 2.83409 9.55256 2.49722 9.34439C1.68479 8.90724 0.773271 9.09459 0.0995433 9.844C-0.0391654 9.98971 -0.0391654 10.302 0.139174 10.4269C0.991242 11.1346 2.16036 11.5718 3.17095 11.1138C3.32947 11.0514 3.54745 10.7807 3.40874 10.4893ZM18.092 10.4685C17.7948 10.1146 17.3192 10.1562 16.9626 10.1979C16.1699 10.3436 15.4962 10.9681 15.2188 11.8216C15.1593 12.0089 15.2782 12.1963 15.4368 12.1963C16.3681 12.2171 17.4381 11.8632 18.092 11.0097C18.2109 10.864 18.2902 10.5726 18.092 10.4685ZM16.4077 6.15943C16.804 6.38841 17.2994 6.13861 17.6561 5.93045C18.4685 5.41003 19.0432 4.47327 19.1423 3.47407C19.1621 3.2659 19.0036 3.12018 18.8252 3.18263C17.8543 3.57815 16.7842 4.43164 16.2888 5.59738C16.1898 5.78473 16.1699 6.1178 16.4077 6.15943ZM15.199 8.47009C15.6547 8.1162 15.7142 7.55415 15.7538 7.13782C15.7934 6.20106 15.3179 5.38921 14.5054 5.05614C14.3469 4.97287 14.1091 5.11859 14.0695 5.32676C13.8317 6.43005 13.9308 7.69987 14.6441 8.49091C14.763 8.61581 15.0405 8.69907 15.199 8.47009ZM6.63867 10.5309C6.77738 10.5101 6.97553 10.4477 6.9359 10.302C6.5594 8.88642 5.05342 8.03294 3.82486 8.26192C3.64652 8.30356 3.2304 8.30356 3.28984 8.63662C3.58708 10.1771 5.31103 10.4685 6.63867 10.5309ZM10.7405 7.22108C9.84878 6.92965 9.13542 8.30355 9.51192 10.0105C9.53173 10.0938 9.59118 10.2395 9.63081 10.302C9.82897 10.635 9.98749 10.3852 10.2055 10.3436C10.9188 10.2187 11.5529 8.71989 10.9188 7.3668C10.8792 7.32517 10.7801 7.22108 10.7405 7.22108ZM18.1713 8.09539C17.8543 8.22029 17.3391 8.24111 17.4579 8.65744C17.6363 9.36521 18.6072 9.53174 19.2017 9.24031C19.3999 9.11541 19.7565 8.92806 19.6377 8.65744C19.4395 8.19947 18.6469 7.90804 18.1713 8.09539ZM5.17232 7.42925C4.99398 6.09698 4.14191 5.38921 3.52763 5.72228C3.40874 5.78473 3.21058 5.82636 3.25021 6.15943C3.40874 7.55415 4.35988 7.94967 5.01379 7.69987C5.09306 7.65824 5.19213 7.57497 5.17232 7.42925ZM11.6322 5.09777C12.0681 4.22347 12.3455 3.20345 12.1078 2.16261C11.9294 1.41321 11.9492 -0.189681 11.2557 0.0184864C9.96768 0.414005 10.0668 3.24508 10.5621 4.86879C10.681 5.26431 10.4829 6.05535 10.9188 6.05535C11.2953 6.07616 11.4737 5.47248 11.6322 5.09777ZM7.70871 3.72387C7.62944 3.66142 7.47092 3.57815 7.43129 3.68224C6.99535 4.78552 7.4511 6.15943 8.28336 6.7423C8.40225 6.82557 8.64004 7.05455 8.75893 6.82557C9.29395 5.70146 8.44188 4.53572 7.70871 3.72387ZM15.4169 4.0153C15.4764 4.36919 15.3575 5.16023 15.734 5.09777C16.4672 4.97287 16.6851 3.6406 16.5662 2.7663C16.5068 2.47486 16.4077 1.99608 16.1699 2.07935C15.7142 2.2667 15.3179 3.34917 15.4169 4.0153ZM9.92804 10.8016C9.82897 10.7599 9.69026 10.7391 9.67044 10.8432C9.51192 11.9465 10.2253 13.0498 11.0972 13.3828C11.2161 13.4245 11.4935 13.5702 11.5331 13.3412C11.7907 12.1963 10.7603 11.3636 9.92804 10.8016ZM18.9441 5.95126C18.845 6.30515 18.4091 6.90883 18.8252 7.13782C19.4989 7.4917 20.3312 6.59658 20.569 5.72228C20.6284 5.43084 20.7473 4.91042 20.4501 4.84797C19.9943 4.72307 19.1026 5.30594 18.9441 5.95126ZM20.4699 14.3404C20.1727 14.2571 19.6773 13.8824 19.5188 14.2988C19.2413 15.0482 20.0141 15.8809 20.7077 16.0682C20.9455 16.1098 21.3616 16.1931 21.4012 15.8809C21.4805 15.4437 21.0049 14.4861 20.4699 14.3404ZM18.1911 14.2571C17.24 14.2155 16.6851 15.1523 16.7446 15.9225C16.7842 16.3805 16.487 17.1923 17.1409 17.338C18.092 17.5462 18.845 16.3388 18.746 15.2772C18.6865 14.9025 18.5874 14.4861 18.1911 14.2571ZM8.4617 14.5486C8.12483 14.4029 7.66907 13.8616 7.35203 14.3404C6.85664 15.0898 7.4511 16.1931 8.22391 16.5054C8.50133 16.5886 8.95708 16.776 9.11561 16.4221C9.31376 15.9641 9.01653 14.7984 8.4617 14.5486Z" fill="#ffffff"/>
</svg>
