<svg width="58" height="34" viewBox="0 0 58 34" fill="none" xmlns="http://www.w3.org/2000/svg">
<path d="M0 7.30278L4.03404 6.73001V9.25578L1.86666 9.48093V10.7218L2.93972 10.6301V12.622L1.86666 12.6829V16.3843L0 16.3872V7.30278ZM7.57006 6.51806C7.9055 6.7371 8.19717 7.06443 8.44508 7.50006C8.71874 8.0062 8.91644 8.54983 9.03185 9.11351C9.18029 9.80092 9.25237 10.5026 9.24676 11.2059C9.2513 11.9185 9.17925 12.6296 9.03185 13.3268C8.91273 13.9128 8.71537 14.4801 8.44508 15.0136C8.23389 15.4376 7.93575 15.8125 7.57006 16.1137C7.27195 16.3617 6.89726 16.499 6.50948 16.5024C6.13167 16.4992 5.76685 16.3641 5.47823 16.1203C5.13871 15.8352 4.86369 15.4812 4.67142 15.0818C4.42756 14.5866 4.25118 14.061 4.147 13.5189C4.01741 12.8732 3.95449 12.2158 3.95923 11.5571C3.95536 10.8905 4.01827 10.2252 4.147 9.57114C4.25377 9.00718 4.42992 8.4586 4.67142 7.93789C4.8664 7.50834 5.14005 7.11906 5.47823 6.79015C5.7582 6.51182 6.11928 6.32951 6.50948 6.26944C6.88161 6.218 7.25958 6.3066 7.57006 6.51806ZM5.98652 10.3742C5.84765 10.6553 5.77846 11.0091 5.77895 11.4354C5.77944 11.8617 5.84863 12.2062 5.98652 12.4687C6.12588 12.7318 6.29702 12.8587 6.49994 12.8494C6.70287 12.8401 6.87963 12.6971 7.03024 12.4203C7.17351 12.1431 7.24514 11.782 7.24514 11.3371C7.24514 10.9022 7.17179 10.5524 7.03024 10.2899C6.88868 10.0273 6.71045 9.90703 6.49994 9.92316C6.28944 9.9393 6.12588 10.0926 5.98652 10.3742ZM11.7354 16.3667H9.55555V5.94602L13.1891 5.43265C13.7642 5.35125 14.2387 5.52652 14.6076 5.96289C14.9766 6.39925 15.168 7.15317 15.168 8.20998C15.168 8.89447 15.0702 9.47336 14.8746 9.94663C14.6934 10.3722 14.4035 10.7427 14.0341 11.021L15.3682 16.3557L12.9141 16.3601L11.9554 12.1519L11.7391 12.1644L11.7354 16.3667ZM12.5613 8.17624C12.5156 8.1256 12.4585 8.08665 12.3947 8.06266C12.3309 8.03867 12.2622 8.03034 12.1945 8.03837L11.7369 8.08824V9.81976L12.1945 9.78015C12.2661 9.77263 12.3354 9.75084 12.3984 9.71607C12.4614 9.68131 12.5168 9.63427 12.5613 9.57774C12.6669 9.45453 12.7197 9.21691 12.7197 8.86489C12.7219 8.5136 12.6691 8.28332 12.5635 8.17624H12.5613ZM23.2574 8.85022L23.3124 8.84509L24.1016 3.88154L26.7941 3.49945L24.216 16.3447L21.1868 16.3498L20.3653 10.9228H20.314L19.5072 16.3498L17.1454 16.3542L15.0763 5.16277L17.9368 4.7572L18.8302 9.40173L18.8793 9.39733L19.48 4.53792L22.3889 4.12503L23.2574 8.85022ZM29.6942 13.5916L27.5217 13.6649L26.9731 16.3425L24.783 16.3461L27.3581 3.41951L31.0137 2.90101L34.139 16.3271L30.2788 16.3337L29.6942 13.5916ZM27.9449 11.5887L29.2578 11.5153L28.6644 8.76295L28.5287 8.77468L27.9449 11.5887ZM38.2603 16.3183L34.6194 16.3263V2.39204L40.7255 1.52518C41.7069 1.38437 42.5173 1.59338 43.1511 2.16836C43.7848 2.74333 44.1156 3.76347 44.1156 5.20384C44.1156 6.13523 43.9469 6.92778 43.6095 7.58147C43.2721 8.23516 42.832 8.72946 42.2892 9.06437L44.7302 16.3102L40.4028 16.3183L38.6329 10.6463L38.2662 10.6668L38.2603 16.3183ZM39.6539 5.25811C39.567 5.18883 39.4669 5.13796 39.3598 5.10858C39.2526 5.07921 39.1405 5.07194 39.0305 5.08723L38.2581 5.1723V7.5052L39.0305 7.43699C39.2653 7.41774 39.4859 7.31679 39.6539 7.1517C39.8324 6.98205 39.9216 6.65936 39.9216 6.18364C39.9216 5.70792 39.8334 5.39989 39.6568 5.25957L39.6539 5.25811ZM57.3303 11.5938C56.8903 12.711 56.3404 13.6241 55.6808 14.333C55.0747 15.0273 54.3018 15.5558 53.4349 15.8687C52.5982 16.1606 51.7173 16.3053 50.8311 16.2963L44.9187 16.3065V0.926738L50.8289 0.0877459C51.695 -0.046831 52.5782 -0.0264687 53.4371 0.147883C54.2821 0.320687 55.0608 0.729316 55.683 1.32643C56.3416 1.95421 56.8915 2.79418 57.3325 3.84634C57.7765 4.90633 57.999 6.17753 58 7.65994C58 9.15458 57.7775 10.4664 57.3325 11.5953L57.3303 11.5938ZM50.4417 12.0742C50.7175 12.074 50.9876 11.9949 51.2199 11.8461C51.4216 11.7053 51.5866 11.4537 51.7208 11.0892C51.8497 10.7338 51.9371 10.3647 51.9812 9.98917C52.0355 9.57212 52.0626 8.9419 52.0626 8.0985C52.0626 7.25511 52.0362 6.63394 51.9834 6.23497C51.938 5.86806 51.8506 5.50757 51.723 5.16057C51.591 4.83201 51.424 4.60857 51.2221 4.49025C51.0201 4.37193 50.7607 4.33037 50.4439 4.36558L49.7463 4.43892V12.102L50.4417 12.0742ZM1.07379 19.5862H1.03345V25.5934L0 25.443V16.7752L2.2774 16.7788L2.55538 18.5602H2.59792L2.8605 16.7796L5.40488 16.784V26.2212L3.53529 25.9476V19.7043H3.49128L2.67054 25.8273L1.85346 25.71L1.07379 19.5862ZM8.46122 24.6268L7.14099 24.4801L6.80726 26.425L5.51344 26.2388L7.18206 16.7869L9.26216 16.7906L11.1039 27.0418L8.80888 26.7111L8.46122 24.6268ZM7.4109 22.94L8.20891 23.0082L7.84805 20.9027L7.7659 20.8975L7.4109 22.94ZM12.9185 16.7957L15.3682 16.7994V24.4376C15.3682 25.4003 15.1616 26.1713 14.7485 26.7507C14.3399 27.3227 13.7803 27.5574 13.074 27.4628C12.69 27.4162 12.3305 27.2493 12.0471 26.9861C11.7445 26.6971 11.5068 26.3471 11.3496 25.9593C11.1556 25.4889 11.0206 24.9962 10.9477 24.4926C10.8565 23.8948 10.8124 23.2909 10.8156 22.6863L12.5334 22.819V23.5311C12.5246 23.6858 12.5437 23.8408 12.5899 23.9887C12.628 24.0767 12.6742 24.123 12.7278 24.1281C12.7813 24.1332 12.8341 24.0958 12.8664 24.0144C12.9076 23.8681 12.9242 23.7159 12.9155 23.5641L12.9185 16.7957ZM20.2289 17.1008C20.69 17.4307 21.0747 17.8559 21.357 18.3476C21.7042 18.9441 21.9608 19.5889 22.1183 20.261C22.3082 21.0473 22.4016 21.8539 22.3963 22.6628C22.4033 23.46 22.31 24.2549 22.1183 25.0287C21.9335 25.744 21.6797 26.3473 21.357 26.8387C21.0756 27.2886 20.6883 27.6628 20.2289 27.9285C19.8161 28.1624 19.3372 28.2525 18.8676 28.1844C18.378 28.113 17.9196 27.9016 17.5474 27.5757C17.1237 27.2101 16.7737 26.767 16.5161 26.2703C16.2121 25.6897 15.9879 25.0708 15.8494 24.4302C15.687 23.6988 15.6073 22.9514 15.6117 22.2022C15.606 21.4633 15.6858 20.7263 15.8494 20.0057C15.9846 19.3929 16.2092 18.8033 16.5161 18.2559C16.7717 17.7965 17.1244 17.3983 17.5496 17.0891C17.9332 16.8101 18.3954 16.6596 18.8698 16.6593C19.3577 16.6621 19.8327 16.8167 20.2289 17.1015V17.1008ZM18.1987 21.196C18.0212 21.4894 17.9327 21.8759 17.9332 22.3555C17.9336 22.8351 18.0221 23.2336 18.1987 23.5509C18.3769 23.8699 18.5962 24.0408 18.8588 24.0643C19.1214 24.0877 19.3553 23.9565 19.538 23.669C19.7206 23.3815 19.8138 22.9847 19.8138 22.4831C19.8138 21.9942 19.7218 21.5891 19.538 21.2679C19.3541 20.9467 19.1277 20.7814 18.8588 20.7721C18.5962 20.7626 18.3769 20.9027 18.1987 21.196ZM25.5062 29.1166L22.664 28.7059V16.8118L27.4168 16.8199C28.1774 16.8199 28.8053 17.1015 29.2952 17.6662C29.7852 18.2309 30.0404 19.133 30.0404 20.3556C30.0404 21.1447 29.9101 21.7959 29.6495 22.3093C29.3889 22.8227 29.0483 23.1894 28.6278 23.4094L30.512 29.836L27.166 29.3542L25.7885 24.3188L25.5047 24.2931L25.5062 29.1166ZM26.5917 19.8371C26.5293 19.7703 26.4544 19.7165 26.3712 19.6788C26.288 19.641 26.1982 19.62 26.1069 19.617L25.5069 19.5958V21.5627L26.1069 21.5972C26.1947 21.6036 26.2829 21.5923 26.3662 21.5638C26.4495 21.5353 26.5262 21.4903 26.5917 21.4314C26.7296 21.3097 26.7988 21.0491 26.7992 20.6496C26.7997 20.2502 26.7305 19.9788 26.5917 19.8356V19.8371ZM30.6881 16.8302L34.1405 16.836V30.3494L30.6881 29.8617V16.8302ZM34.6165 16.8368L44.7258 16.8529V20.7399L41.3893 20.6137V31.4018L37.3684 30.821V20.4494L34.6194 20.3402L34.6165 16.8368ZM53.4811 27.8053V33.1428L48.6205 32.4432V27.3095L44.9209 16.8485L49.9158 16.8566L51.7604 22.1171L51.8286 22.1208L53.9197 16.8632L57.9736 16.872L53.4811 27.8053Z" fill="#ffffff"/>
</svg>
