<svg id="Layer_1" data-name="Layer 1" xmlns="http://www.w3.org/2000/svg" viewBox="0 0 257.92 145.74"><defs><style>.cls-1{fill:#f2f2f2;}.cls-2{fill:#fff;}.cls-3{fill:#3f3f3f;}.cls-4{fill:#d8d8d8;}.cls-5{fill:#fafdff;}.cls-6{fill:#74d3d8;}</style></defs><path class="cls-1" d="M78.92,43.79S88.4-2,127.27.07s21.88,32.41,77.25,27.66,74.25,84.83,24.88,107.18-176,8.55-177.09-27S57.69,53,78.92,43.79Z" transform="translate(0 0)"/><path class="cls-2" d="M223.85,130.21V52.79a3.93,3.93,0,0,0-3.67-4.13H72.9a3.92,3.92,0,0,0-3.67,4.13v78.88Z" transform="translate(0 0)"/><path class="cls-3" d="M69.23,131.94a.27.27,0,0,1-.27-.27h0V52.79a4.19,4.19,0,0,1,3.94-4.4H220.18a4.19,4.19,0,0,1,3.94,4.4v77.42a.27.27,0,0,1-.27.27h0a.28.28,0,0,1-.28-.27V52.79a3.65,3.65,0,0,0-3.39-3.86H72.9a3.66,3.66,0,0,0-3.4,3.86v78.88a.27.27,0,0,1-.27.27Z" transform="translate(0 0)"/><rect class="cls-4" x="78.92" y="57.54" width="136.26" height="74.13"/><rect class="cls-1" x="126.78" y="62.4" width="82.42" height="64.41" rx="3.08"/><rect class="cls-2" x="131.89" y="65.99" width="72.79" height="27.73" rx="4.54"/><path d="M52.31,108.2H30.47a.28.28,0,0,1-.27-.23l-5-35.53a.26.26,0,0,1,.2-.31H57.88a.25.25,0,0,1,.2.09.26.26,0,0,1,.07.22L52.58,108A.27.27,0,0,1,52.31,108.2Zm-21.6-.54H52.08l5.48-35H25.82Z" transform="translate(0 0)"/><path class="cls-3" d="M51.25,72.67H34.36a.29.29,0,0,1-.27-.19C31,62.2,25.93,51.58,18.72,40a.27.27,0,0,1,0-.32.28.28,0,0,1,.32-.07C28.34,44,35.3,49.2,39.75,55.21c2.57-12.69,10.82-23,24.54-30.52a.28.28,0,0,1,.28,0,.3.3,0,0,1,.12.26c-1.87,20.37-7.28,33.34-11.63,43.76C52.54,70,52,71.27,51.51,72.5A.29.29,0,0,1,51.25,72.67Zm-16.69-.54H51.07c.48-1.18,1-2.39,1.5-3.63,4.3-10.3,9.65-23.09,11.55-43.09C50.6,33,42.55,43.25,40.19,55.92a.26.26,0,0,1-.49.08c-4.25-6-11-11.19-20-15.54C26.6,51.74,31.47,62.1,34.56,72.13Z" transform="translate(0 0)"/><path class="cls-3" d="M69.17,107.93h-42a9.08,9.08,0,1,1,.6,18.15q-.3,0-.6,0h42Z" transform="translate(0 0)"/><path class="cls-3" d="M69.57,126.36H6.07c-.15,0,.45-.13.45-.28s-.6-.27-.45-.27h63.5a.28.28,0,0,1,.28.27A.3.3,0,0,1,69.57,126.36Z" transform="translate(0 0)"/><path d="M69.57,144.51H6.48c-.15,0,.09-.12.09-.28s-.24-.27-.09-.27H69.57a.28.28,0,1,1,.11.55A.2.2,0,0,1,69.57,144.51Z" transform="translate(0 0)"/><path class="cls-3" d="M26.51,144.51h-22a1.29,1.29,0,0,1-1.15-.69,1.32,1.32,0,0,1,.08-1.37c3.92-5.76,4-10.6.21-14.81a1.11,1.11,0,0,1-.18-1.19,1.06,1.06,0,0,1,1-.64H26.15a9.35,9.35,0,0,1,9.35,9.35h0a9.06,9.06,0,0,1-8.77,9.35ZM4.41,126.36a.5.5,0,0,0-.49.31.53.53,0,0,0,.09.6c4,4.43,3.91,9.49-.17,15.49a.77.77,0,0,0,0,.8.75.75,0,0,0,.67.4h22A8.51,8.51,0,0,0,35,135.39v-.23a8.8,8.8,0,0,0-8.8-8.8H4.41Z" transform="translate(0 0)"/><path class="cls-3" d="M4.79,126.36h.72a1.29,1.29,0,0,1-1.15-.69,1.32,1.32,0,0,1,.08-1.37c3.91-5.76,4-10.6.21-14.82a1.09,1.09,0,0,1-.18-1.18,1.06,1.06,0,0,1,1-.64H27.2a9.35,9.35,0,0,1,0,18.7Zm.67-18.16a.52.52,0,0,0-.49.32.53.53,0,0,0,.09.6c4,4.43,3.91,9.49-.17,15.49a.77.77,0,0,0,0,.8c.13.25-.34.4,0,.4H27.2a8.81,8.81,0,0,0,0-17.61Z" transform="translate(0 0)"/><path class="cls-3" d="M13.44,117.48l.34,15.38a1,1,0,0,0,1.1.89,1,1,0,0,0,.62-.31l2.59-3.27L21.23,134a1,1,0,0,0,1.41,0,1,1,0,0,0,.29-.61v-15.9Z" transform="translate(0 0)"/><path class="cls-3" d="M251.22,144.51H.05c-.15,0,.09-.12.09-.28S-.1,144,.05,144H251.22a.28.28,0,0,1,.11.55h-.11Z" transform="translate(0 0)"/><ellipse class="cls-3" cx="146.41" cy="53.34" rx="1.84" ry="1.75"/><path class="cls-3" d="M229.4,134.91H63.73a.85.85,0,0,0-.84.84v.93a7.55,7.55,0,0,0,7.55,7.55H222.69a7.55,7.55,0,0,0,7.55-7.55h0v-.93a.85.85,0,0,0-.84-.84Z" transform="translate(0 0)"/><path class="cls-5" d="M172.53,139.57H128a.69.69,0,0,1-.69-.69h0a.69.69,0,0,1,.69-.69h44.57a.69.69,0,0,1,.69.69h0a.69.69,0,0,1-.69.69Z" transform="translate(0 0)"/><path class="cls-3" d="M27.65,117.76H10.5a.28.28,0,0,1-.27-.28.27.27,0,0,1,.27-.27H27.65a.27.27,0,0,1,.27.27A.28.28,0,0,1,27.65,117.76Z" transform="translate(0 0)"/><path d="M40,72.67a.28.28,0,0,1-.27-.22c0-.09-1.5-9,0-16.63a.29.29,0,0,1,.36-.16.29.29,0,0,1,.18.27c-1.44,7.52,0,16.34,0,16.42a.27.27,0,0,1-.21.32H40Z" transform="translate(0 0)"/><rect class="cls-1" x="85.64" y="62.4" width="35.59" height="64.41" rx="2.03"/><rect class="cls-6" x="89.75" y="99.96" width="25.08" height="20.01"/><circle class="cls-6" cx="145.3" cy="79.28" r="9.89"/><path class="cls-3" d="M198.11,74.33H159.06a.3.3,0,0,1-.28-.28.28.28,0,0,1,.28-.27h39.05a.27.27,0,0,1,.27.27h0A.28.28,0,0,1,198.11,74.33Z" transform="translate(0 0)"/><path class="cls-3" d="M186.39,85.07H159.06a.27.27,0,1,1,0-.54h27.33a.27.27,0,0,1,0,.54Z" transform="translate(0 0)"/><path class="cls-3" d="M115.73,74.33H91.38a.28.28,0,0,1-.27-.28.27.27,0,0,1,.27-.27h24.35a.28.28,0,0,1,.28.27A.3.3,0,0,1,115.73,74.33Z" transform="translate(0 0)"/><path class="cls-3" d="M115.73,85.07H91.38a.27.27,0,0,1,0-.54h24.35a.27.27,0,0,1,0,.54Z" transform="translate(0 0)"/><circle class="cls-6" cx="145.3" cy="109.84" r="9.89"/><path class="cls-3" d="M198.11,104.89H159.06a.27.27,0,1,1,0-.54h39.05a.27.27,0,1,1,0,.54Z" transform="translate(0 0)"/><path class="cls-3" d="M186.39,115.64H159.06a.28.28,0,0,1-.28-.27.3.3,0,0,1,.28-.28h27.33a.3.3,0,0,1,.28.28A.28.28,0,0,1,186.39,115.64Z" transform="translate(0 0)"/><path class="cls-3" d="M200.14,94H136.42a4.83,4.83,0,0,1-4.81-4.81V70.53a4.81,4.81,0,0,1,4.81-4.81h63.72A4.81,4.81,0,0,1,205,70.48v18.7A4.82,4.82,0,0,1,200.18,94ZM136.42,66.26a4.28,4.28,0,0,0-4.26,4.27V89.18a4.26,4.26,0,0,0,4.26,4.26h63.72a4.28,4.28,0,0,0,4.27-4.26V70.53a4.28,4.28,0,0,0-4.27-4.27Z" transform="translate(0 0)"/><path class="cls-3" d="M53.74,83.39a.27.27,0,0,1-.19-.08l-6.44-6.43L41,83a.28.28,0,0,1-.38,0L35,77.46l-5.16,5.15a.28.28,0,0,1-.38,0L26.28,79.5a.27.27,0,0,1,0-.39.27.27,0,0,1,.38,0h0l3,2.93,5.15-5.16a.29.29,0,0,1,.39,0l5.57,5.57,6.15-6.15a.27.27,0,0,1,.38,0h0l6.43,6.43L56.46,80a.27.27,0,0,1,.38,0h0a.28.28,0,0,1,0,.38l-2.91,2.91A.26.26,0,0,1,53.74,83.39Z" transform="translate(0 0)"/><path class="cls-3" d="M36,83.27a1.34,1.34,0,1,1-1.34-1.34h0A1.34,1.34,0,0,1,36,83.27Z" transform="translate(0 0)"/><path class="cls-3" d="M48.24,83.27a1.34,1.34,0,1,1-1.34-1.34h0A1.34,1.34,0,0,1,48.24,83.27Z" transform="translate(0 0)"/><path class="cls-3" d="M44.74,69.66h-.06a.28.28,0,0,1-.21-.33,173.6,173.6,0,0,1,4.69-17.12c4-12.06,8.22-19.85,12.59-23.17a.28.28,0,0,1,.33.44c-10.22,7.76-17,39.64-17.07,40A.28.28,0,0,1,44.74,69.66Z" transform="translate(0 0)"/><path class="cls-2" d="M145.39,84.31a.52.52,0,0,1-.41-.18l-4.81-5.45a.55.55,0,0,1,.05-.78h0a.57.57,0,0,1,.77,0l4.28,4.86,4.28-8.26a.56.56,0,0,1,1,.5l-4.65,9a.54.54,0,0,1-.42.29Z" transform="translate(0 0)"/><path class="cls-2" d="M145.39,115a.53.53,0,0,1-.41-.19l-4.81-5.45a.54.54,0,0,1,0-.76h0a.55.55,0,0,1,.77,0l4.28,4.86,4.28-8.26a.53.53,0,0,1,.71-.24h0a.53.53,0,0,1,.24.72h0l-4.65,9a.54.54,0,0,1-.42.29Z" transform="translate(0 0)"/><path class="cls-3" d="M246.79,92.27a4.71,4.71,0,1,1,4.71-4.71A4.71,4.71,0,0,1,246.79,92.27Zm0-8.88A4.17,4.17,0,1,0,251,87.56a4.17,4.17,0,0,0-4.21-4.17Z" transform="translate(0 0)"/><path class="cls-3" d="M117.12,35.51H106.77a.28.28,0,0,1-.23-.13.3.3,0,0,1,0-.26l5.09-10.32a.28.28,0,0,1,.24-.15h0a.28.28,0,0,1,.24.15l5.26,10.31a.32.32,0,0,1,0,.27A.28.28,0,0,1,117.12,35.51ZM107.21,35h9.46l-4.81-9.43Z" transform="translate(0 0)"/><path class="cls-3" d="M14.73,91.8H7.12a.27.27,0,0,1-.28-.26h0V83.92a.29.29,0,0,1,.28-.28h7.61a.28.28,0,0,1,.27.28v7.61a.27.27,0,0,1-.27.27Zm-7.34-.54h7.07V84.19H7.39Z" transform="translate(0 0)"/><path class="cls-3" d="M180.79,39.54H168.15a.27.27,0,1,1,0-.54h12.64a.27.27,0,0,1,0,.54Z" transform="translate(0 0)"/><path class="cls-3" d="M78.71,20.34H72.39a.28.28,0,0,1-.22-.33.28.28,0,0,1,.22-.22h6.32a.28.28,0,0,1,.22.33A.28.28,0,0,1,78.71,20.34Z" transform="translate(0 0)"/><path class="cls-3" d="M238.9,111.09h-6.32a.27.27,0,0,1-.27-.27h0a.28.28,0,0,1,.27-.28h6.32a.29.29,0,0,1,.28.28.27.27,0,0,1-.27.27Z" transform="translate(0 0)"/></svg>