<?xml version="1.0" encoding="utf-8"?>
<!-- Generator: Adobe Illustrator 25.4.1, SVG Export Plug-In . SVG Version: 6.00 Build 0)  -->
<svg version="1.1" id="Layer_1" xmlns="http://www.w3.org/2000/svg" xmlns:xlink="http://www.w3.org/1999/xlink" x="0px" y="0px"
	 viewBox="0 0 257.9 145.7" style="enable-background:new 0 0 257.9 145.7;" xml:space="preserve">
<style type="text/css">
	.st0{fill:#F2F2F2;}
	.st1{fill:#FFFFFF;}
	.st2{fill:#3F3F3F;}
	.st3{fill:#D8D8D8;}
	.st4{fill:#FAFDFF;}
	.st5{fill:#5CE3AF;}
</style>
<path class="st0" d="M78.9,43.8c0,0,9.5-45.8,48.3-43.7s21.9,32.4,77.2,27.7s74.2,84.8,24.9,107.2s-176,8.6-177.1-27
	S57.7,53,78.9,43.8z"/>
<path class="st1" d="M223.9,130.2V52.8c0.1-2.1-1.5-4-3.7-4.1H72.9c-2.2,0.1-3.8,2-3.7,4.1v78.9L223.9,130.2z"/>
<path class="st2" d="M69.2,131.9c-0.1,0-0.3-0.1-0.3-0.3l0,0l0,0V52.8c-0.1-2.3,1.6-4.3,3.9-4.4h147.3c2.3,0.1,4.1,2.1,3.9,4.4v77.4
	c0,0.1-0.1,0.3-0.3,0.3c0,0,0,0,0,0l0,0c-0.2,0-0.3-0.1-0.3-0.3V52.8c0.1-2-1.4-3.7-3.4-3.9H72.9c-2,0.1-3.5,1.9-3.4,3.9v78.9
	C69.5,131.8,69.4,131.9,69.2,131.9L69.2,131.9z"/>
<rect x="78.9" y="57.5" class="st3" width="136.3" height="74.1"/>
<path class="st0" d="M129.9,62.4h76.3c1.7,0,3.1,1.4,3.1,3.1v58.2c0,1.7-1.4,3.1-3.1,3.1h-76.3c-1.7,0-3.1-1.4-3.1-3.1V65.5
	C126.8,63.8,128.2,62.4,129.9,62.4z"/>
<path class="st1" d="M136.4,66h63.7c2.5,0,4.5,2,4.5,4.5v18.7c0,2.5-2,4.5-4.5,4.5h-63.7c-2.5,0-4.5-2-4.5-4.5V70.5
	C131.9,68,133.9,66,136.4,66z"/>
<path d="M52.3,108.2H30.5c-0.1,0-0.2-0.1-0.3-0.2l-5-35.5c0-0.1,0.1-0.3,0.2-0.3c0,0,0,0,0,0h32.5c0.1,0,0.2,0,0.2,0.1
	c0.1,0.1,0.1,0.1,0.1,0.2L52.6,108C52.5,108.1,52.4,108.2,52.3,108.2z M30.7,107.7h21.4l5.5-35H25.8L30.7,107.7z"/>
<path class="st2" d="M51.2,72.7H34.4c-0.1,0-0.2-0.1-0.3-0.2C31,62.2,25.9,51.6,18.7,40c-0.1-0.1-0.1-0.2,0-0.3
	c0.1-0.1,0.2-0.1,0.3-0.1c9.3,4.4,16.3,9.6,20.7,15.6c2.6-12.7,10.8-23,24.5-30.5c0.1-0.1,0.2-0.1,0.3,0c0.1,0.1,0.1,0.2,0.1,0.3
	c-1.9,20.4-7.3,33.3-11.6,43.8c-0.5,1.3-1.1,2.6-1.6,3.8C51.5,72.6,51.4,72.7,51.2,72.7z M34.6,72.1h16.5c0.5-1.2,1-2.4,1.5-3.6
	c4.3-10.3,9.7-23.1,11.6-43.1C50.6,33,42.5,43.2,40.2,55.9c0,0.1-0.2,0.2-0.3,0.2c-0.1,0-0.2-0.1-0.2-0.1c-4.2-6-11-11.2-20-15.5
	C26.6,51.7,31.5,62.1,34.6,72.1z"/>
<path class="st2" d="M69.2,107.9h-42c5-0.2,9.2,3.7,9.4,8.7c0.2,5-3.7,9.2-8.7,9.4c0,0,0,0-0.1,0c-0.2,0-0.4,0-0.6,0h42V107.9z"/>
<path class="st2" d="M69.6,126.4H6.1c-0.2,0,0.4-0.1,0.4-0.3s-0.6-0.3-0.4-0.3h63.5c0.2,0,0.3,0.1,0.3,0.3
	C69.8,126.2,69.7,126.4,69.6,126.4z"/>
<path d="M69.6,144.5H6.5c-0.2,0,0.1-0.1,0.1-0.3S6.3,144,6.5,144h63.1c0.2,0,0.3,0.1,0.3,0.2s-0.1,0.3-0.2,0.3
	C69.6,144.5,69.6,144.5,69.6,144.5z"/>
<path class="st2" d="M26.5,144.5h-22c-0.5,0-0.9-0.3-1.2-0.7c-0.2-0.4-0.2-1,0.1-1.4c3.9-5.8,4-10.6,0.2-14.8
	c-0.3-0.3-0.4-0.8-0.2-1.2c0.2-0.4,0.6-0.7,1-0.6h21.7c5.2,0,9.4,4.2,9.4,9.4l0,0l0,0c0.2,5-3.8,9.2-8.8,9.3c0,0,0,0,0,0L26.5,144.5
	z M4.4,126.4c-0.2,0-0.4,0.1-0.5,0.3c-0.1,0.2-0.1,0.4,0.1,0.6c4,4.4,3.9,9.5-0.2,15.5c-0.1,0.2-0.1,0.6,0,0.8
	c0.1,0.2,0.4,0.4,0.7,0.4h22c4.7,0,8.5-3.8,8.5-8.5c0,0,0,0,0,0v-0.2c0-4.9-3.9-8.8-8.8-8.8h0H4.4z"/>
<path class="st2" d="M4.8,126.4h0.7c-0.5,0-0.9-0.3-1.2-0.7c-0.2-0.4-0.2-1,0.1-1.4c3.9-5.8,4-10.6,0.2-14.8
	c-0.3-0.3-0.4-0.8-0.2-1.2c0.2-0.4,0.6-0.7,1-0.6h21.7c5.2,0,9.4,4.2,9.4,9.3c0,5.2-4.2,9.4-9.4,9.4H4.8z M5.5,108.2
	c-0.2,0-0.4,0.1-0.5,0.3c-0.1,0.2-0.1,0.4,0.1,0.6c4,4.4,3.9,9.5-0.2,15.5c-0.1,0.2-0.1,0.6,0,0.8c0.1,0.2-0.3,0.4,0,0.4h22.3
	c4.9-0.2,8.7-4.2,8.5-9.1c-0.2-4.6-3.9-8.4-8.5-8.5H5.5z"/>
<path class="st2" d="M13.4,117.5l0.3,15.4c0.1,0.5,0.5,0.9,1.1,0.9c0,0,0,0,0,0c0.2,0,0.5-0.1,0.6-0.3l2.6-3.3l3.1,3.8
	c0.4,0.4,1,0.4,1.4,0c0.2-0.2,0.3-0.4,0.3-0.6v-15.9L13.4,117.5z"/>
<path class="st2" d="M251.2,144.5H0.1c-0.2,0,0.1-0.1,0.1-0.3s-0.2-0.2-0.1-0.2h251.2c0.2,0,0.3,0.1,0.3,0.2s-0.1,0.3-0.2,0.3
	L251.2,144.5L251.2,144.5z"/>
<ellipse class="st2" cx="146.4" cy="53.3" rx="1.8" ry="1.8"/>
<path class="st2" d="M229.4,134.9H63.7c-0.5,0-0.8,0.4-0.8,0.8v0.9c0,4.2,3.4,7.6,7.5,7.6h0h152.2c4.2,0,7.6-3.4,7.6-7.6l0,0l0,0
	v-0.9C230.2,135.3,229.9,134.9,229.4,134.9L229.4,134.9z"/>
<path class="st4" d="M172.5,139.6H128c-0.4,0-0.7-0.3-0.7-0.7l0,0l0,0c0-0.4,0.3-0.7,0.7-0.7c0,0,0,0,0,0h44.6
	c0.4,0,0.7,0.3,0.7,0.7l0,0l0,0C173.3,139.3,173,139.6,172.5,139.6L172.5,139.6L172.5,139.6z"/>
<path class="st2" d="M27.6,117.8H10.5c-0.2,0-0.3-0.1-0.3-0.3c0-0.1,0.1-0.3,0.3-0.3h17.1c0.1,0,0.3,0.1,0.3,0.3
	C27.9,117.6,27.8,117.8,27.6,117.8z"/>
<path d="M40,72.7c-0.1,0-0.2-0.1-0.3-0.2c0-0.1-1.5-9,0-16.6c0.1-0.1,0.2-0.2,0.4-0.2c0.1,0,0.2,0.2,0.2,0.3c-1.4,7.5,0,16.3,0,16.4
	C40.3,72.5,40.2,72.6,40,72.7C40.1,72.7,40.1,72.7,40,72.7L40,72.7z"/>
<path class="st0" d="M87.7,62.4h31.5c1.1,0,2,0.9,2,2v60.4c0,1.1-0.9,2-2,2H87.7c-1.1,0-2-0.9-2-2V64.4
	C85.6,63.3,86.5,62.4,87.7,62.4z"/>
<rect x="89.8" y="100" class="st5" width="25.1" height="20"/>
<circle class="st5" cx="145.3" cy="79.3" r="9.9"/>
<path class="st2" d="M198.1,74.3h-39.1c-0.2,0-0.3-0.1-0.3-0.3c0-0.2,0.1-0.3,0.3-0.3h39.1c0.1,0,0.3,0.1,0.3,0.3l0,0l0,0
	C198.4,74.2,198.3,74.3,198.1,74.3z"/>
<path class="st2" d="M186.4,85.1h-27.3c-0.1,0-0.3-0.1-0.3-0.3c0-0.1,0.1-0.3,0.3-0.3h27.3c0.1,0,0.3,0.1,0.3,0.3
	C186.7,84.9,186.5,85.1,186.4,85.1z"/>
<path class="st2" d="M115.7,74.3H91.4c-0.2,0-0.3-0.1-0.3-0.3c0-0.1,0.1-0.3,0.3-0.3h24.3c0.2,0,0.3,0.1,0.3,0.3
	C116,74.2,115.9,74.3,115.7,74.3z"/>
<path class="st2" d="M115.7,85.1H91.4c-0.1,0-0.3-0.1-0.3-0.3c0-0.1,0.1-0.3,0.3-0.3h24.3c0.1,0,0.3,0.1,0.3,0.3
	C116,84.9,115.9,85.1,115.7,85.1z"/>
<circle class="st5" cx="145.3" cy="109.8" r="9.9"/>
<path class="st2" d="M198.1,104.9h-39.1c-0.1,0-0.3-0.1-0.3-0.3c0-0.1,0.1-0.3,0.3-0.3h39.1c0.1,0,0.3,0.1,0.3,0.3
	C198.4,104.8,198.3,104.9,198.1,104.9z"/>
<path class="st2" d="M186.4,115.6h-27.3c-0.2,0-0.3-0.1-0.3-0.3c0-0.2,0.1-0.3,0.3-0.3h27.3c0.2,0,0.3,0.1,0.3,0.3
	C186.7,115.5,186.5,115.6,186.4,115.6z"/>
<path class="st2" d="M200.1,94h-63.7c-2.7,0-4.8-2.2-4.8-4.8V70.5c0-2.7,2.2-4.8,4.8-4.8h63.7c2.7,0,4.8,2.1,4.9,4.8c0,0,0,0,0,0
	v18.7C205,91.8,202.8,94,200.1,94L200.1,94z M136.4,66.3c-2.4,0-4.3,1.9-4.3,4.3v18.7c0,2.4,1.9,4.3,4.3,4.3h63.7
	c2.4,0,4.3-1.9,4.3-4.3V70.5c0-2.4-1.9-4.3-4.3-4.3H136.4z"/>
<path class="st2" d="M53.7,83.4c-0.1,0-0.1,0-0.2-0.1l-6.4-6.4L41,83c-0.1,0.1-0.3,0.1-0.4,0L35,77.5l-5.2,5.2
	c-0.1,0.1-0.3,0.1-0.4,0l-3.2-3.1c-0.1-0.1-0.1-0.3,0-0.4c0,0,0,0,0,0c0.1-0.1,0.3-0.1,0.4,0l0,0l3,2.9l5.2-5.2
	c0.1-0.1,0.3-0.1,0.4,0l5.6,5.6l6.2-6.2c0.1-0.1,0.3-0.1,0.4,0l0,0l6.4,6.4l2.7-2.7c0.1-0.1,0.3-0.1,0.4,0l0,0
	c0.1,0.1,0.1,0.3,0,0.4l-2.9,2.9C53.9,83.3,53.8,83.4,53.7,83.4z"/>
<path class="st2" d="M36,83.3c0,0.7-0.6,1.3-1.3,1.3s-1.3-0.6-1.3-1.3c0-0.7,0.6-1.3,1.3-1.3h0l0,0C35.4,81.9,36,82.5,36,83.3z"/>
<path class="st2" d="M48.2,83.3c0,0.7-0.6,1.3-1.3,1.3s-1.3-0.6-1.3-1.3c0-0.7,0.6-1.3,1.3-1.3h0l0,0C47.6,81.9,48.2,82.5,48.2,83.3
	z"/>
<path class="st2" d="M44.7,69.7L44.7,69.7c-0.2,0-0.3-0.2-0.3-0.3c1.3-5.8,2.8-11.5,4.7-17.1c4-12.1,8.2-19.8,12.6-23.2
	c0.1-0.1,0.3,0,0.4,0.1c0.1,0.1,0,0.2,0,0.3c-10.2,7.8-17,39.6-17.1,40C45,69.6,44.9,69.7,44.7,69.7z"/>
<path class="st1" d="M145.4,84.3c-0.2,0-0.3-0.1-0.4-0.2l-4.8-5.4c-0.2-0.2-0.2-0.6,0-0.8c0,0,0,0,0,0l0,0c0.2-0.2,0.6-0.2,0.8,0
	l4.3,4.9l4.3-8.3c0.2-0.3,0.5-0.4,0.8-0.2c0.2,0.1,0.3,0.4,0.2,0.7l-4.6,9C145.8,84.2,145.7,84.3,145.4,84.3L145.4,84.3z"/>
<path class="st1" d="M145.4,115c-0.2,0-0.3-0.1-0.4-0.2l-4.8-5.4c-0.2-0.2-0.2-0.5,0-0.8l0,0c0.2-0.2,0.6-0.2,0.8,0l4.3,4.9l4.3-8.3
	c0.1-0.3,0.4-0.4,0.7-0.2l0,0c0.3,0.1,0.4,0.4,0.2,0.7c0,0,0,0,0,0l0,0l-4.6,9C145.7,114.8,145.6,114.9,145.4,115L145.4,115z"/>
<path class="st2" d="M246.8,92.3c-2.6,0-4.7-2.1-4.7-4.7s2.1-4.7,4.7-4.7c2.6,0,4.7,2.1,4.7,4.7C251.5,90.2,249.4,92.3,246.8,92.3
	L246.8,92.3z M246.8,83.4c-2.3,0-4.2,1.9-4.1,4.2c0,2.3,1.9,4.2,4.2,4.1c2.3,0,4.1-1.9,4.1-4.2C251,85.3,249.1,83.4,246.8,83.4
	C246.8,83.4,246.8,83.4,246.8,83.4z"/>
<path class="st2" d="M117.1,35.5h-10.4c-0.1,0-0.2-0.1-0.2-0.1c0-0.1,0-0.2,0-0.3l5.1-10.3c0-0.1,0.1-0.1,0.2-0.1l0,0
	c0.1,0,0.2,0.1,0.2,0.1l5.3,10.3c0,0.1,0,0.2,0,0.3C117.3,35.5,117.2,35.5,117.1,35.5z M107.2,35h9.5l-4.8-9.4L107.2,35z"/>
<path class="st2" d="M14.7,91.8H7.1c-0.1,0-0.3-0.1-0.3-0.3c0,0,0,0,0,0l0,0v-7.6c0-0.2,0.1-0.3,0.3-0.3h7.6c0.2,0,0.3,0.1,0.3,0.3
	v7.6C15,91.7,14.9,91.8,14.7,91.8z M7.4,91.3h7.1v-7.1H7.4L7.4,91.3z"/>
<path class="st2" d="M180.8,39.5h-12.6c-0.1,0-0.3-0.1-0.3-0.3s0.1-0.3,0.3-0.3l0,0h12.6c0.1,0,0.3,0.1,0.3,0.3
	S180.9,39.5,180.8,39.5z"/>
<path class="st2" d="M78.7,20.3h-6.3c-0.2,0-0.3-0.2-0.2-0.3c0,0,0,0,0,0c0-0.1,0.1-0.2,0.2-0.2h6.3c0.2,0,0.3,0.2,0.2,0.3
	c0,0,0,0,0,0C78.9,20.2,78.8,20.3,78.7,20.3z"/>
<path class="st2" d="M238.9,111.1h-6.3c-0.1,0-0.3-0.1-0.3-0.3l0,0l0,0c0-0.2,0.1-0.3,0.3-0.3h6.3c0.2,0,0.3,0.1,0.3,0.3
	C239.2,111,239.1,111.1,238.9,111.1L238.9,111.1L238.9,111.1z"/>
</svg>
