<svg width="686" height="666" viewBox="0 0 686 666" fill="none" xmlns="http://www.w3.org/2000/svg">
<mask id="mask0_1274_35210" style="mask-type:alpha" maskUnits="userSpaceOnUse" x="0" y="0" width="686" height="666">
<rect width="686" height="666" fill="url(#paint0_radial_1274_35210)"/>
</mask>
<g mask="url(#mask0_1274_35210)">
<path fill-rule="evenodd" clip-rule="evenodd" d="M11 666V0H12V666H11Z" fill="#4B4B4B"/>
<path fill-rule="evenodd" clip-rule="evenodd" d="M25 666V0H26V666H25Z" fill="#4B4B4B"/>
<path fill-rule="evenodd" clip-rule="evenodd" d="M39 666V0H40V666H39Z" fill="#4B4B4B"/>
<path fill-rule="evenodd" clip-rule="evenodd" d="M53 666V0H54V666H53Z" fill="#4B4B4B"/>
<path fill-rule="evenodd" clip-rule="evenodd" d="M67 666V0H68V666H67Z" fill="#4B4B4B"/>
<path fill-rule="evenodd" clip-rule="evenodd" d="M81 666V0H82V666H81Z" fill="#4B4B4B"/>
<path fill-rule="evenodd" clip-rule="evenodd" d="M94 666V0H95V666H94Z" fill="#4B4B4B"/>
<path fill-rule="evenodd" clip-rule="evenodd" d="M108 666V0H109V666H108Z" fill="#4B4B4B"/>
<path fill-rule="evenodd" clip-rule="evenodd" d="M122 666V0H123V666H122Z" fill="#4B4B4B"/>
<path fill-rule="evenodd" clip-rule="evenodd" d="M136 666V0H137V666H136Z" fill="#4B4B4B"/>
<path fill-rule="evenodd" clip-rule="evenodd" d="M150 666V0H151V666H150Z" fill="#4B4B4B"/>
<path fill-rule="evenodd" clip-rule="evenodd" d="M164 666V0H165V666H164Z" fill="#4B4B4B"/>
<path fill-rule="evenodd" clip-rule="evenodd" d="M177 666V0H178V666H177Z" fill="#4B4B4B"/>
<path fill-rule="evenodd" clip-rule="evenodd" d="M191 666V0H192V666H191Z" fill="#4B4B4B"/>
<path fill-rule="evenodd" clip-rule="evenodd" d="M205 666V0H206V666H205Z" fill="#4B4B4B"/>
<path fill-rule="evenodd" clip-rule="evenodd" d="M219 666V0H220V666H219Z" fill="#4B4B4B"/>
<path fill-rule="evenodd" clip-rule="evenodd" d="M233 666V0H234V666H233Z" fill="#4B4B4B"/>
<path fill-rule="evenodd" clip-rule="evenodd" d="M247 666V0H248V666H247Z" fill="#4B4B4B"/>
<path fill-rule="evenodd" clip-rule="evenodd" d="M261 666V0H262V666H261Z" fill="#4B4B4B"/>
<path fill-rule="evenodd" clip-rule="evenodd" d="M274 666V0H275V666H274Z" fill="#4B4B4B"/>
<path fill-rule="evenodd" clip-rule="evenodd" d="M288 666V0H289V666H288Z" fill="#4B4B4B"/>
<path fill-rule="evenodd" clip-rule="evenodd" d="M302 666V0H303V666H302Z" fill="#4B4B4B"/>
<path fill-rule="evenodd" clip-rule="evenodd" d="M316 666V0H317V666H316Z" fill="#4B4B4B"/>
<path fill-rule="evenodd" clip-rule="evenodd" d="M330 666V0H331V666H330Z" fill="#4B4B4B"/>
<path fill-rule="evenodd" clip-rule="evenodd" d="M344 666V0H345V666H344Z" fill="#4B4B4B"/>
<path fill-rule="evenodd" clip-rule="evenodd" d="M371 666V0H372V666H371Z" fill="#4B4B4B"/>
<path fill-rule="evenodd" clip-rule="evenodd" d="M385 666V0H386V666H385Z" fill="#4B4B4B"/>
<path fill-rule="evenodd" clip-rule="evenodd" d="M399 666V0H400V666H399Z" fill="#4B4B4B"/>
<path fill-rule="evenodd" clip-rule="evenodd" d="M413 666V0H414V666H413Z" fill="#4B4B4B"/>
<path fill-rule="evenodd" clip-rule="evenodd" d="M427 666V0H428V666H427Z" fill="#4B4B4B"/>
<path fill-rule="evenodd" clip-rule="evenodd" d="M441 666V0H442V666H441Z" fill="#4B4B4B"/>
<path fill-rule="evenodd" clip-rule="evenodd" d="M455 666V0H456V666H455Z" fill="#4B4B4B"/>
<path fill-rule="evenodd" clip-rule="evenodd" d="M468 666V0H469V666H468Z" fill="#4B4B4B"/>
<path fill-rule="evenodd" clip-rule="evenodd" d="M482 666V0H483V666H482Z" fill="#4B4B4B"/>
<path fill-rule="evenodd" clip-rule="evenodd" d="M496 666V0H497V666H496Z" fill="#4B4B4B"/>
<path fill-rule="evenodd" clip-rule="evenodd" d="M510 666V0H511V666H510Z" fill="#4B4B4B"/>
<path fill-rule="evenodd" clip-rule="evenodd" d="M524 666V0H525V666H524Z" fill="#4B4B4B"/>
<path fill-rule="evenodd" clip-rule="evenodd" d="M538 666V0H539V666H538Z" fill="#4B4B4B"/>
<path fill-rule="evenodd" clip-rule="evenodd" d="M552 666V0H553V666H552Z" fill="#4B4B4B"/>
<path fill-rule="evenodd" clip-rule="evenodd" d="M565 666V0H566V666H565Z" fill="#4B4B4B"/>
<path fill-rule="evenodd" clip-rule="evenodd" d="M579 666V0H580V666H579Z" fill="#4B4B4B"/>
<path fill-rule="evenodd" clip-rule="evenodd" d="M593 666V0H594V666H593Z" fill="#4B4B4B"/>
<path fill-rule="evenodd" clip-rule="evenodd" d="M607 666V0H608V666H607Z" fill="#4B4B4B"/>
<path fill-rule="evenodd" clip-rule="evenodd" d="M621 666V0H622V666H621Z" fill="#4B4B4B"/>
<path fill-rule="evenodd" clip-rule="evenodd" d="M635 666V0H636V666H635Z" fill="#4B4B4B"/>
<path fill-rule="evenodd" clip-rule="evenodd" d="M648 666V0H649V666H648Z" fill="#4B4B4B"/>
<path fill-rule="evenodd" clip-rule="evenodd" d="M662 666V0H663V666H662Z" fill="#4B4B4B"/>
<path fill-rule="evenodd" clip-rule="evenodd" d="M676 666V0H677V666H676Z" fill="#4B4B4B"/>
<path fill-rule="evenodd" clip-rule="evenodd" d="M2.29065 0.237153L685.71 0.237183L685.71 0.814395L2.29065 0.814365L2.29065 0.237153Z" fill="#4B4B4B"/>
<path fill-rule="evenodd" clip-rule="evenodd" d="M2.29065 14.0903L685.71 14.0903L685.71 14.6675L2.29065 14.6675L2.29065 14.0903Z" fill="#4B4B4B"/>
<path fill-rule="evenodd" clip-rule="evenodd" d="M2.29065 27.9433L685.71 27.9434L685.71 28.5206L2.29065 28.5205L2.29065 27.9433Z" fill="#4B4B4B"/>
<path fill-rule="evenodd" clip-rule="evenodd" d="M2.29065 41.7964L685.71 41.7964L685.71 42.3736L2.29065 42.3736L2.29065 41.7964Z" fill="#4B4B4B"/>
<path fill-rule="evenodd" clip-rule="evenodd" d="M2.29065 55.6495L685.71 55.6495L685.71 56.2267L2.29065 56.2267L2.29065 55.6495Z" fill="#4B4B4B"/>
<path fill-rule="evenodd" clip-rule="evenodd" d="M2.29065 69.5027L685.71 69.5027L685.71 70.0799L2.29065 70.0799L2.29065 69.5027Z" fill="#4B4B4B"/>
<path fill-rule="evenodd" clip-rule="evenodd" d="M2.29065 83.3557L685.71 83.3557L685.71 83.9329L2.29065 83.9329L2.29065 83.3557Z" fill="#4B4B4B"/>
<path fill-rule="evenodd" clip-rule="evenodd" d="M2.29065 97.2088L685.71 97.2089L685.71 97.7861L2.29065 97.786L2.29065 97.2088Z" fill="#4B4B4B"/>
<path fill-rule="evenodd" clip-rule="evenodd" d="M2.29065 111.062L685.71 111.062L685.71 111.639L2.29065 111.639L2.29065 111.062Z" fill="#4B4B4B"/>
<path fill-rule="evenodd" clip-rule="evenodd" d="M2.29065 124.915L685.71 124.915L685.71 125.492L2.29065 125.492L2.29065 124.915Z" fill="#4B4B4B"/>
<path fill-rule="evenodd" clip-rule="evenodd" d="M2.29065 138.768L685.71 138.768L685.71 139.345L2.29065 139.345L2.29065 138.768Z" fill="#4B4B4B"/>
<path fill-rule="evenodd" clip-rule="evenodd" d="M2.29065 152.621L685.71 152.621L685.71 153.198L2.29065 153.198L2.29065 152.621Z" fill="#4B4B4B"/>
<path fill-rule="evenodd" clip-rule="evenodd" d="M2.29065 166.474L685.71 166.474L685.71 167.052L2.29065 167.052L2.29065 166.474Z" fill="#4B4B4B"/>
<path fill-rule="evenodd" clip-rule="evenodd" d="M2.29065 180.327L685.71 180.327L685.71 180.905L2.29065 180.905L2.29065 180.327Z" fill="#4B4B4B"/>
<path fill-rule="evenodd" clip-rule="evenodd" d="M2.29065 194.181L685.71 194.181L685.71 194.758L2.29065 194.758L2.29065 194.181Z" fill="#4B4B4B"/>
<path fill-rule="evenodd" clip-rule="evenodd" d="M2.29065 208.034L685.71 208.034L685.71 208.611L2.29065 208.611L2.29065 208.034Z" fill="#4B4B4B"/>
<path fill-rule="evenodd" clip-rule="evenodd" d="M2.29065 221.887L685.71 221.887L685.71 222.464L2.29065 222.464L2.29065 221.887Z" fill="#4B4B4B"/>
<path fill-rule="evenodd" clip-rule="evenodd" d="M2.29065 235.74L685.71 235.74L685.71 236.317L2.29065 236.317L2.29065 235.74Z" fill="#4B4B4B"/>
<path fill-rule="evenodd" clip-rule="evenodd" d="M2.29065 249.593L685.71 249.593L685.71 250.17L2.29065 250.17L2.29065 249.593Z" fill="#4B4B4B"/>
<path fill-rule="evenodd" clip-rule="evenodd" d="M2.29065 263.446L685.71 263.446L685.71 264.023L2.29065 264.023L2.29065 263.446Z" fill="#4B4B4B"/>
<path fill-rule="evenodd" clip-rule="evenodd" d="M2.29065 277.299L685.71 277.299L685.71 277.876L2.29065 277.876L2.29065 277.299Z" fill="#4B4B4B"/>
<path fill-rule="evenodd" clip-rule="evenodd" d="M2.29065 291.152L685.71 291.152L685.71 291.729L2.29065 291.729L2.29065 291.152Z" fill="#4B4B4B"/>
<path fill-rule="evenodd" clip-rule="evenodd" d="M2.29065 305.005L685.71 305.005L685.71 305.582L2.29065 305.582L2.29065 305.005Z" fill="#4B4B4B"/>
<path fill-rule="evenodd" clip-rule="evenodd" d="M2.29065 318.858L685.71 318.858L685.71 319.436L2.29065 319.436L2.29065 318.858Z" fill="#4B4B4B"/>
<path fill-rule="evenodd" clip-rule="evenodd" d="M2.29065 332.711L685.71 332.711L685.71 333.289L2.29065 333.289L2.29065 332.711Z" fill="#4B4B4B"/>
<path fill-rule="evenodd" clip-rule="evenodd" d="M2.29065 346.564L685.71 346.564L685.71 347.142L2.29065 347.142L2.29065 346.564Z" fill="#4B4B4B"/>
<path fill-rule="evenodd" clip-rule="evenodd" d="M2.29065 360.418L685.71 360.418L685.71 360.995L2.29065 360.995L2.29065 360.418Z" fill="#4B4B4B"/>
<path fill-rule="evenodd" clip-rule="evenodd" d="M2.29065 374.271L685.71 374.271L685.71 374.848L2.29065 374.848L2.29065 374.271Z" fill="#4B4B4B"/>
<path fill-rule="evenodd" clip-rule="evenodd" d="M2.29065 388.124L685.71 388.124L685.71 388.701L2.29065 388.701L2.29065 388.124Z" fill="#4B4B4B"/>
<path fill-rule="evenodd" clip-rule="evenodd" d="M2.29065 401.977L685.71 401.977L685.71 402.554L2.29065 402.554L2.29065 401.977Z" fill="#4B4B4B"/>
<path fill-rule="evenodd" clip-rule="evenodd" d="M2.29065 415.83L685.71 415.83L685.71 416.407L2.29065 416.407L2.29065 415.83Z" fill="#4B4B4B"/>
<path fill-rule="evenodd" clip-rule="evenodd" d="M2.29065 429.683L685.71 429.683L685.71 430.26L2.29065 430.26L2.29065 429.683Z" fill="#4B4B4B"/>
<path fill-rule="evenodd" clip-rule="evenodd" d="M2.29065 443.536L685.71 443.536L685.71 444.113L2.29065 444.113L2.29065 443.536Z" fill="#4B4B4B"/>
<path fill-rule="evenodd" clip-rule="evenodd" d="M2.29065 457.389L685.71 457.389L685.71 457.966L2.29065 457.966L2.29065 457.389Z" fill="#4B4B4B"/>
<path fill-rule="evenodd" clip-rule="evenodd" d="M2.29065 471.242L685.71 471.242L685.71 471.82L2.29065 471.82L2.29065 471.242Z" fill="#4B4B4B"/>
<path fill-rule="evenodd" clip-rule="evenodd" d="M2.29065 485.095L685.71 485.095L685.71 485.673L2.29065 485.673L2.29065 485.095Z" fill="#4B4B4B"/>
<path fill-rule="evenodd" clip-rule="evenodd" d="M2.29065 498.948L685.71 498.948L685.71 499.526L2.29065 499.526L2.29065 498.948Z" fill="#4B4B4B"/>
<path fill-rule="evenodd" clip-rule="evenodd" d="M2.29065 512.802L685.71 512.802L685.71 513.379L2.29065 513.379L2.29065 512.802Z" fill="#4B4B4B"/>
<path fill-rule="evenodd" clip-rule="evenodd" d="M2.29065 526.655L685.71 526.655L685.71 527.232L2.29065 527.232L2.29065 526.655Z" fill="#4B4B4B"/>
<path fill-rule="evenodd" clip-rule="evenodd" d="M2.29065 540.508L685.71 540.508L685.71 541.085L2.29065 541.085L2.29065 540.508Z" fill="#4B4B4B"/>
<path fill-rule="evenodd" clip-rule="evenodd" d="M2.29065 554.361L685.71 554.361L685.71 554.938L2.29065 554.938L2.29065 554.361Z" fill="#4B4B4B"/>
<path fill-rule="evenodd" clip-rule="evenodd" d="M2.29065 568.214L685.71 568.214L685.71 568.791L2.29065 568.791L2.29065 568.214Z" fill="#4B4B4B"/>
<path fill-rule="evenodd" clip-rule="evenodd" d="M2.29065 582.067L685.71 582.067L685.71 582.644L2.29065 582.644L2.29065 582.067Z" fill="#4B4B4B"/>
<path fill-rule="evenodd" clip-rule="evenodd" d="M2.29065 595.92L685.71 595.92L685.71 596.497L2.29065 596.497L2.29065 595.92Z" fill="#4B4B4B"/>
<path fill-rule="evenodd" clip-rule="evenodd" d="M2.29065 609.773L685.71 609.773L685.71 610.351L2.29065 610.351L2.29065 609.773Z" fill="#4B4B4B"/>
<path fill-rule="evenodd" clip-rule="evenodd" d="M2.29065 623.626L685.71 623.626L685.71 624.204L2.29065 624.204L2.29065 623.626Z" fill="#4B4B4B"/>
<path fill-rule="evenodd" clip-rule="evenodd" d="M2.29065 637.479L685.71 637.479L685.71 638.057L2.29065 638.057L2.29065 637.479Z" fill="#4B4B4B"/>
<path fill-rule="evenodd" clip-rule="evenodd" d="M2.29065 651.332L685.71 651.333L685.71 651.91L2.29065 651.91L2.29065 651.332Z" fill="#4B4B4B"/>
<path fill-rule="evenodd" clip-rule="evenodd" d="M2.29065 665.186L685.71 665.186L685.71 665.763L2.29065 665.763L2.29065 665.186Z" fill="#4B4B4B"/>
<path fill-rule="evenodd" clip-rule="evenodd" d="M358 666V0H359V666H358Z" fill="#4B4B4B"/>
</g>
<defs>
<radialGradient id="paint0_radial_1274_35210" cx="0" cy="0" r="1" gradientUnits="userSpaceOnUse" gradientTransform="translate(343 333) rotate(90) scale(333 343)">
<stop stop-color="#141723"/>
<stop offset="1" stop-color="#141723" stop-opacity="0"/>
</radialGradient>
</defs>
</svg>
