<svg width="41" height="36" viewBox="0 0 41 36" fill="none" xmlns="http://www.w3.org/2000/svg">
<path d="M27.4771 11.6657C27.4771 9.04093 27.5503 7.65563 27.8434 5.10376H21.0291C21.3222 7.65563 21.3955 9.04093 21.3955 11.6657V17.5715H6.37468V11.6657C6.37468 9.04093 6.44795 7.65563 6.74104 5.10376H0C0.293089 7.65563 0.366361 9.04093 0.366361 11.6657V24.0605C0.366361 26.6853 0.293089 28.0706 0 30.6225H6.81431C6.52122 28.0706 6.44795 26.6853 6.44795 24.0605V18.1548H21.4687V24.0605C21.4687 26.6853 21.3955 28.0706 21.1024 30.6225H27.8434C27.5503 28.0706 27.4771 26.6853 27.4771 24.0605V11.6657Z" fill="white"/>
<path d="M21.6889 34.9971C33.2659 34.9971 40.3001 28.7997 40.3001 17.4985C40.3001 5.75994 33.0461 0 21.6889 0H10.9912C11.2843 3.49971 11.3576 5.39538 11.3576 9.04091V26.0291C11.3576 29.6746 11.2843 31.5703 10.9912 35.07H21.6889V34.9971ZM17.4392 0.802017H21.5424C28.7963 0.802017 33.7788 6.12449 33.7788 17.4985C33.7788 28.4351 28.7963 34.1951 21.5424 34.1951H17.4392V0.802017Z" fill="white"/>
<path d="M21.6889 34.9971C33.2659 34.9971 40.3001 28.7997 40.3001 17.4985C40.3001 5.75994 33.0461 0 21.6889 0H10.9912C11.2843 3.49971 11.3576 5.39538 11.3576 9.04091V26.0291C11.3576 29.6746 11.2843 31.5703 10.9912 35.07H21.6889V34.9971ZM17.4392 0.802017H21.5424C28.7963 0.802017 33.7788 6.12449 33.7788 17.4985C33.7788 28.4351 28.7963 34.1951 21.5424 34.1951H17.4392V0.802017Z" fill="white"/>
</svg>
