<?xml version="1.0" encoding="UTF-8"?>
<svg width="1200px" height="1200px" viewBox="0 0 1200 1200" version="1.1" xmlns="http://www.w3.org/2000/svg" xmlns:xlink="http://www.w3.org/1999/xlink">
    <title>logo full color</title>
    <g id="logo-full-color" stroke="none" stroke-width="1" fill="none" fill-rule="evenodd">
        <rect fill="#FFFFFF" x="0" y="0" width="1200" height="1200"></rect>
        <g id="mark-and-text" transform="translate(333.000000, 544.000000)">
            <g id="mark" transform="translate(0.000000, 35.000000)" fill="#30C8C9">
                <path d="M0,0 L12.7777778,0 C12.7777778,8.51851852 12.7777778,16.1851852 12.7777778,23 C12.7777778,29.8148148 16.1851852,33.2222222 23,33.2222222 L46,33.2222222 L46,46 C40.8888889,46 33.2222222,46 23,46 C7.66666667,46 0,38.3333333 0,23 C0,12.7777778 0,5.11111111 0,0 Z" id="d"></path>
                <path d="M13.3159221,3.29532164 L26.0936999,3.29532164 C26.0936999,0.739766082 26.0936999,2.86939571 26.0936999,9.68421053 C26.0936999,16.4990253 29.5011073,19.9064327 36.3159221,19.9064327 L42.7044785,19.9064327 L42.7044785,32.6842105 C48.6676631,32.6842105 46.5381443,32.6842105 36.3159221,32.6842105 C20.9825888,32.6842105 13.3159221,25.0175439 13.3159221,9.68421053 C13.3159221,-0.538011696 13.3159221,-2.66764133 13.3159221,3.29532164 Z" id="l" transform="translate(29.657961, 16.342105) rotate(-180.000000) translate(-29.657961, -16.342105) "></path>
            </g>
            <g id="loopdash" transform="translate(64.321289, 0.750000)" fill="#041B20">
                <path d="M16.8505859,89.25 L16.8505859,0 L0,0 L0,89.25 L16.8505859,89.25 Z M57.8730469,90.4121094 C66.9375,90.4121094 74.1619466,87.4971517 79.5463867,81.6672363 C84.9308268,75.837321 87.6230469,68.0996094 87.6230469,58.4541016 L87.6230469,58.4541016 L87.5068359,54.1542969 C86.8870443,45.2447917 83.8946126,38.1946615 78.529541,33.0039062 C73.1644694,27.813151 66.2402344,25.2177734 57.7568359,25.2177734 C51.7913411,25.2177734 46.5521647,26.5541992 42.0393066,29.2270508 C37.5264486,31.8999023 34.0691732,35.6767578 31.6674805,40.5576172 C29.2657878,45.4384766 28.0649414,50.9972331 28.0649414,57.2338867 L28.0649414,57.2338867 L28.0649414,57.9892578 C28.0649414,67.9833984 30.7668457,75.8857422 36.1706543,81.6962891 C41.5744629,87.5068359 48.8085938,90.4121094 57.8730469,90.4121094 Z M57.8730469,76.8735352 C53.6894531,76.8735352 50.4742839,75.2950033 48.2275391,72.1379395 C45.9807943,68.9808757 44.8574219,64.4195964 44.8574219,58.4541016 C44.8574219,51.7526042 45.9807943,46.8039551 48.2275391,43.6081543 C50.4742839,40.4123535 53.6507161,38.8144531 57.7568359,38.8144531 C61.9016927,38.8144531 65.116862,40.4220378 67.4023438,43.637207 C69.6878255,46.8523763 70.8305664,51.3846029 70.8305664,57.2338867 C70.8305664,64.090332 69.6878255,69.0777181 67.4023438,72.1960449 C65.116862,75.3143717 61.9404297,76.8735352 57.8730469,76.8735352 Z M125.15918,90.4121094 C134.223633,90.4121094 141.448079,87.4971517 146.83252,81.6672363 C152.21696,75.837321 154.90918,68.0996094 154.90918,58.4541016 L154.90918,58.4541016 L154.792969,54.1542969 C154.173177,45.2447917 151.180745,38.1946615 145.815674,33.0039062 C140.450602,27.813151 133.526367,25.2177734 125.042969,25.2177734 C119.077474,25.2177734 113.838298,26.5541992 109.325439,29.2270508 C104.812581,31.8999023 101.355306,35.6767578 98.9536133,40.5576172 C96.5519206,45.4384766 95.3510742,50.9972331 95.3510742,57.2338867 L95.3510742,57.2338867 L95.3510742,57.9892578 C95.3510742,67.9833984 98.0529785,75.8857422 103.456787,81.6962891 C108.860596,87.5068359 116.094727,90.4121094 125.15918,90.4121094 Z M125.15918,76.8735352 C120.975586,76.8735352 117.760417,75.2950033 115.513672,72.1379395 C113.266927,68.9808757 112.143555,64.4195964 112.143555,58.4541016 C112.143555,51.7526042 113.266927,46.8039551 115.513672,43.6081543 C117.760417,40.4123535 120.936849,38.8144531 125.042969,38.8144531 C129.187826,38.8144531 132.402995,40.4220378 134.688477,43.637207 C136.973958,46.8523763 138.116699,51.3846029 138.116699,57.2338867 C138.116699,64.090332 136.973958,69.0777181 134.688477,72.1960449 C132.402995,75.3143717 129.226562,76.8735352 125.15918,76.8735352 Z M182.044434,113.421875 L182.044434,83.7880859 C185.956868,88.2041016 191.089518,90.4121094 197.442383,90.4121094 C204.91862,90.4121094 210.855062,87.4971517 215.251709,81.6672363 C219.648356,75.837321 221.84668,68.0802409 221.84668,58.3959961 L221.84668,58.3959961 L221.84668,57.5244141 C221.84668,47.4527995 219.696777,39.5504557 215.396973,33.8173828 C211.097168,28.0843099 205.073568,25.2177734 197.326172,25.2177734 C190.779622,25.2177734 185.472656,27.6582031 181.405273,32.5390625 L181.405273,32.5390625 L180.824219,26.3798828 L165.251953,26.3798828 L165.251953,113.421875 L182.044434,113.421875 Z M193.026367,76.8735352 C187.758138,76.8735352 184.097493,74.8011068 182.044434,70.65625 L182.044434,70.65625 L182.044434,44.9155273 C184.02002,40.8868815 187.641927,38.8725586 192.910156,38.8725586 C196.861328,38.8725586 199.873128,40.4607747 201.945557,43.637207 C204.017985,46.8136393 205.054199,51.3264974 205.054199,57.1757812 C205.054199,70.3076172 201.044922,76.8735352 193.026367,76.8735352 Z M254.15332,90.4121094 C260.738607,90.4121094 266.123047,87.7973633 270.306641,82.5678711 L270.306641,82.5678711 L271.120117,89.25 L286.285645,89.25 L286.285645,0 L269.435059,0 L269.435059,32.0742188 C265.44515,27.5032552 260.389974,25.2177734 254.269531,25.2177734 C246.638346,25.2177734 240.62443,28.1230469 236.227783,33.9335938 C231.831136,39.7441406 229.632812,47.5496419 229.632812,57.3500977 C229.632812,67.7316081 231.869873,75.837321 236.343994,81.6672363 C240.818115,87.4971517 246.754557,90.4121094 254.15332,90.4121094 Z M258.453125,76.8154297 C254.54069,76.8154297 251.557943,75.246582 249.504883,72.1088867 C247.451823,68.9711914 246.425293,64.4583333 246.425293,58.5703125 C246.425293,45.4384766 250.473307,38.8725586 258.569336,38.8725586 C263.721354,38.8725586 267.343262,41.0611979 269.435059,45.4384766 L269.435059,45.4384766 L269.435059,70.2495117 C267.304525,74.6267904 263.64388,76.8154297 258.453125,76.8154297 Z M318.185547,90.4121094 C324.693359,90.4121094 329.980957,88.1459961 334.04834,83.6137695 C334.396973,85.8605143 334.958659,87.7392578 335.733398,89.25 L335.733398,89.25 L352.700195,89.25 L352.700195,88.262207 C351.073242,85.2019857 350.240397,80.6891276 350.20166,74.7236328 L350.20166,74.7236328 L350.20166,47.472168 C350.20166,40.4220378 347.925863,34.9504395 343.374268,31.057373 C338.822673,27.1643066 332.673177,25.2177734 324.925781,25.2177734 C319.8125,25.2177734 315.202799,26.0990397 311.09668,27.8615723 C306.99056,29.6241048 303.814128,32.0548503 301.567383,35.1538086 C299.320638,38.2527669 298.197266,41.6228841 298.197266,45.2641602 L298.197266,45.2641602 L314.989746,45.2641602 C314.989746,42.9012044 315.793538,41.0418294 317.401123,39.6860352 C319.008708,38.3302409 321.2264,37.6523438 324.054199,37.6523438 C327.269368,37.6523438 329.62264,38.5239258 331.114014,40.2670898 C332.605387,42.0102539 333.351074,44.3344727 333.351074,47.2397461 L333.351074,47.2397461 L333.351074,50.8422852 L325.623047,50.8422852 C316.287435,50.8810221 309.150146,52.6822917 304.211182,56.2460938 C299.272217,59.8098958 296.802734,64.9231771 296.802734,71.5859375 C296.802734,77.0091146 298.826742,81.5026042 302.874756,85.0664062 C306.92277,88.6302083 312.026367,90.4121094 318.185547,90.4121094 Z M321.846191,77.5708008 C319.289551,77.5708008 317.275228,76.8929036 315.803223,75.5371094 C314.331217,74.1813151 313.595215,72.4575195 313.595215,70.3657227 L313.595215,70.3657227 L313.65332,69.3779297 C314.195638,63.5673828 318.669759,60.6621094 327.075684,60.6621094 L327.075684,60.6621094 L333.351074,60.6621094 L333.351074,71.4697266 C332.343913,73.3291016 330.794434,74.810791 328.702637,75.9147949 C326.61084,77.0187988 324.325358,77.5708008 321.846191,77.5708008 Z M387.040527,90.4121094 C394.82666,90.4121094 401.179525,88.6398926 406.099121,85.095459 C411.018717,81.5510254 413.478516,76.9122721 413.478516,71.1791992 C413.478516,63.1606445 409.043132,57.5244141 400.172363,54.2705078 C397.305827,53.2246094 393.780762,52.2852376 389.597168,51.4523926 C385.413574,50.6195475 382.440511,49.6317546 380.677979,48.4890137 C378.915446,47.3462728 378.03418,45.8452148 378.03418,43.9858398 C378.03418,42.0102539 378.808919,40.3833008 380.358398,39.1049805 C381.907878,37.8266602 384.096517,37.1875 386.924316,37.1875 C390.21696,37.1875 392.638021,37.9719238 394.1875,39.5407715 C395.736979,41.1096191 396.511719,43.0948893 396.511719,45.496582 L396.511719,45.496582 L413.304199,45.496582 C413.304199,39.4923503 410.912191,34.6114909 406.128174,30.8540039 C401.344157,27.0965169 394.96224,25.2177734 386.982422,25.2177734 C379.506185,25.2177734 373.453532,27.0868327 368.824463,30.8249512 C364.195394,34.5630697 361.880859,39.2211914 361.880859,44.7993164 C361.880859,54.3673503 369.357096,60.7202148 384.30957,63.8579102 C388.80306,64.7875977 392.06665,65.8431803 394.100342,67.0246582 C396.134033,68.2061361 397.150879,69.8234049 397.150879,71.8764648 C397.150879,73.8520508 396.327718,75.4499512 394.681396,76.670166 C393.035075,77.8903809 390.604329,78.5004883 387.38916,78.5004883 C383.941569,78.5004883 381.191243,77.7063802 379.138184,76.1181641 C377.085124,74.5299479 375.98112,72.2444661 375.826172,69.2617188 L375.826172,69.2617188 L359.905273,69.2617188 C359.905273,73.0579427 361.067383,76.5926921 363.391602,79.8659668 C365.71582,83.1392415 368.921305,85.7152507 373.008057,87.5939941 C377.094808,89.4727376 381.772298,90.4121094 387.040527,90.4121094 Z M440.671875,89.25 L440.671875,44.5668945 C442.879883,40.7706706 446.443685,38.8725586 451.363281,38.8725586 C454.96582,38.8725586 457.541829,39.7344564 459.091309,41.458252 C460.640788,43.1820475 461.415527,45.8452148 461.415527,49.4477539 L461.415527,49.4477539 L461.415527,89.25 L478.208008,89.25 L478.208008,48.9829102 C478.014323,33.1394857 471.099772,25.2177734 457.464355,25.2177734 C450.724121,25.2177734 445.126628,27.890625 440.671875,33.2363281 L440.671875,33.2363281 L440.671875,0 L423.879395,0 L423.879395,89.25 L440.671875,89.25 Z"></path>
            </g>
        </g>
    </g>
</svg>