<?xml version="1.0" encoding="utf-8"?>
<!-- Generator: Adobe Illustrator 25.4.1, SVG Export Plug-In . SVG Version: 6.00 Build 0)  -->
<svg version="1.1" id="Layer_1" xmlns="http://www.w3.org/2000/svg" xmlns:xlink="http://www.w3.org/1999/xlink" x="0px" y="0px"
	 viewBox="0 0 550.4 111.7" style="enable-background:new 0 0 550.4 111.7;" xml:space="preserve">
<style type="text/css">
	.st0{fill-rule:evenodd;clip-rule:evenodd;fill:#00BCE2;}
	.st1{fill-rule:evenodd;clip-rule:evenodd;fill:#002229;}
</style>
<g>
	<path id="d" class="st0" d="M0,33h12.8c0,8.5,0,16.2,0,23S16.2,66.3,23,66.3h23v12.8c-5.1,0-12.8,0-23,0c-15.3,0-23-7.7-23-23
		C0,45.8,0,38.2,0,33z"/>
	<path id="l" class="st0" d="M46,62.4H33.2c0,2.6,0,0.4,0-6.4S29.8,45.8,23,45.8h-6.4V33c-6,0-3.8,0,6.4,0c15.3,0,23,7.7,23,23
		C46,66.3,46,68.4,46,62.4z"/>
	<path class="st1" d="M80.3,89.1V0h-17v89.1H80.3z M121.3,90.4c8.9,0,16.1-3,21.6-8.9c5.6-5.9,8.4-13.6,8.4-23
		c0-9.5-2.8-17.2-8.4-23.2c-5.6-5.9-12.8-8.9-21.6-8.9s-16.1,3-21.6,8.9c-5.6,5.9-8.4,13.7-8.4,23.2c0,9.4,2.8,17.1,8.4,23
		C105.2,87.5,112.4,90.4,121.3,90.4z M121.3,76c-4.1,0-7.3-1.6-9.7-4.9s-3.5-7.5-3.5-12.7c0-5.3,1.2-9.6,3.5-12.8s5.5-4.9,9.7-4.9
		s7.3,1.6,9.7,4.9c2.3,3.2,3.5,7.5,3.5,12.8c0,5.2-1.2,9.4-3.5,12.7C128.6,74.4,125.4,76,121.3,76z M188.3,90.4
		c8.9,0,16.1-3,21.6-8.9c5.6-5.9,8.4-13.6,8.4-23c0-9.5-2.8-17.2-8.4-23.2c-5.6-5.9-12.8-8.9-21.6-8.9s-16.1,3-21.6,8.9
		s-8.4,13.7-8.4,23.2c0,9.4,2.8,17.1,8.4,23C172.2,87.5,179.4,90.4,188.3,90.4z M188.3,76c-4.1,0-7.3-1.6-9.7-4.9
		c-2.3-3.2-3.5-7.5-3.5-12.7c0-5.3,1.2-9.6,3.5-12.8c2.3-3.2,5.5-4.9,9.7-4.9s7.3,1.6,9.7,4.9c2.3,3.2,3.5,7.5,3.5,12.8
		c0,5.2-1.2,9.4-3.5,12.7C195.6,74.4,192.4,76,188.3,76z M246.1,111.7V84c1.5,1.7,3.6,3.2,6.4,4.5c2.8,1.3,5.8,1.9,8.9,1.9
		c8.6,0,15.4-3.1,20.4-9.2c5-6.1,7.5-13.7,7.5-22.7s-2.5-16.6-7.5-22.8s-11.8-9.2-20.4-9.2c-3.1,0-6.1,0.6-8.9,1.9s-5,2.8-6.4,4.5
		l0,0v-5.1h-17v83.8H246.1z M257.6,75.6c-2.5,0-4.7-0.7-6.9-2s-3.7-3-4.7-5.1l0,0V48.4c1.1-2.1,2.7-3.8,4.7-5.1c2.1-1.3,4.3-2,6.8-2
		c4.5,0,8,1.6,10.7,4.9c2.6,3.2,4,7.4,4,12.4s-1.3,9.1-4,12.3C265.6,74,262.1,75.6,257.6,75.6z M324.2,90.4c3.1,0,6.1-0.6,8.9-1.9
		c2.8-1.3,5-2.8,6.4-4.5l0,0v5.1h17.1V0h-17.1v32.9c-1.5-1.7-3.6-3.2-6.4-4.5s-5.8-1.9-8.9-1.9c-8.6,0-15.4,3.1-20.3,9.2
		s-7.5,13.7-7.5,22.9s2.5,16.7,7.5,22.8C308.8,87.4,315.6,90.4,324.2,90.4z M328,75.6c-4.5,0-8-1.6-10.7-4.8c-2.6-3.2-4-7.3-4-12.3
		s1.3-9.2,4-12.4s6.2-4.9,10.7-4.9c2.5,0,4.7,0.7,6.9,2c2.1,1.3,3.7,3,4.7,5.1l0,0v20.1c-1,2.1-2.5,3.8-4.6,5.1
		C332.9,75,330.6,75.6,328,75.6z M390.3,90.1c3.2,0,6.2-0.5,9-1.4c2.8-0.9,4.8-1.9,5.9-3l0,0v3.3h16.3V50c0-7.4-2.3-13.2-6.8-17.3
		s-10.8-6.2-19-6.2c-6.9,0-12.6,1.8-17.3,5.5s-7.5,8.4-8.4,14l0,0h16.2c1.5-3.8,4.5-5.8,9-5.8c3.3,0,5.8,0.9,7.5,2.7
		c1.7,1.8,2.5,4,2.5,6.8l0,0v4.5c-1.3-0.9-3.3-1.7-6-2.5c-2.7-0.7-5.4-1.1-7.9-1.1c-6.8,0-12.4,1.8-16.9,5.5
		c-4.5,3.7-6.8,8.4-6.8,14.1c0,6.1,2.2,11,6.5,14.5C378.4,88.4,383.9,90.1,390.3,90.1z M394.2,77.7c-3,0-5.6-0.6-7.7-1.9
		c-2.1-1.3-3.2-3.2-3.2-5.6c0-2.5,1.1-4.3,3.2-5.6c2.1-1.3,4.7-1.9,7.6-1.9c2.6,0,4.9,0.5,6.9,1.4c2.1,1,3.4,2.3,4.2,3.9l0,0v4.4
		c-0.7,1.6-2.1,2.9-4.2,3.9C399,77.2,396.7,77.7,394.2,77.7z M458.7,90.4c7.3,0,13.3-1.8,18-5.3c4.7-3.6,7.1-8.4,7.1-14.5
		c0-9.2-5.4-15.2-16.3-17.8l0,0l-12.6-2.9c-3.7-0.9-5.5-2.5-5.5-4.8c0-1.8,0.8-3.2,2.4-4.2c1.6-1,3.5-1.5,5.7-1.5c5.1,0,8.3,2,9.6,6
		l0,0h16.2c-1.1-5.9-3.8-10.6-8.2-13.9c-4.3-3.3-10.3-5-17.9-5c-6.9,0-12.7,1.8-17.4,5.5c-4.7,3.7-7,8.5-7,14.3
		c0,9,5.3,14.8,15.9,17.3l0,0l12.3,2.7c2.2,0.5,3.8,1.2,4.7,2c1,0.8,1.4,1.8,1.4,3.2c0,4-2.9,6-8.6,6c-5.5,0-8.9-2.2-10.3-6.7l0,0
		h-16.9c0.9,6.2,3.8,11,8.6,14.5C444.9,88.7,451.1,90.4,458.7,90.4z M512.3,89.1V50.3c0.6-2.6,2-4.7,4-6.2s4.4-2.3,7.1-2.3
		c3.3,0,5.8,1,7.5,2.9c1.7,2,2.5,4.6,2.5,7.9l0,0v36.4h17V49c0-6.8-1.9-12.3-5.7-16.4s-9.1-6.2-16-6.2c-6.9,0-12.4,2.3-16.4,7l0,0V0
		h-17v89.1H512.3z"/>
</g>
</svg>
