<?xml version="1.0" encoding="UTF-8"?>
<svg width="38px" height="38px" viewBox="0 0 38 38" version="1.1" xmlns="http://www.w3.org/2000/svg" xmlns:xlink="http://www.w3.org/1999/xlink">
    <title>mark</title>
    <g id="Logo" stroke="none" stroke-width="1" fill="none" fill-rule="evenodd">
        <g id="mark" transform="translate(-45.000000, -45.000000)" fill="#000000" fill-rule="nonzero">
            <g id="Group" transform="translate(41.000000, 41.000000)">
                <g id="mark" transform="translate(4.472222, 4.472222)">
                    <path d="M0,0 L10.2932099,0 C10.2932099,6.86213992 10.2932099,13.0380658 10.2932099,18.5277778 C10.2932099,20.2720893 10.2932099,23.0169453 10.2932099,26.7623457 L18.5277778,26.7623457 L37.0555556,26.7623457 L37.0555556,37.0555556 C32.9382716,37.0555556 26.7623457,37.0555556 18.5277778,37.0555556 C14.2578234,37.0555556 8.08189743,37.0555556 0,37.0555556 C0,28.4444607 0,22.2685348 0,18.5277778 C0,10.2932099 0,4.11728395 0,0 Z" id="d"></path>
                    <path d="M13.3814407,6.24192056e-13 L23.6746505,6.24192056e-13 C23.6746505,6.24192056e-13 23.6746505,1.71553498 23.6746505,5.14660494 C23.6746505,6.45066841 23.6746505,9.19552437 23.6746505,13.3811728 L31.9092184,13.3811728 L37.0555556,13.3811728 L37.0555556,23.6743827 C37.0555556,23.6743827 35.3401098,23.6743827 31.9092184,23.6743827 C27.7032157,23.6743827 21.5272898,23.6743827 13.3814407,23.6743827 C13.3814407,15.3509932 13.3814407,9.17506723 13.3814407,5.14660494 C13.3814407,1.71553498 13.3814407,6.24192056e-13 13.3814407,6.24192056e-13 Z" id="l" transform="translate(25.218498, 11.837191) rotate(-180.000000) translate(-25.218498, -11.837191) "></path>
                </g>
            </g>
        </g>
    </g>
</svg>