<svg width="256" height="45" viewBox="0 0 256 45" fill="none" xmlns="http://www.w3.org/2000/svg">
<path d="M24.5082 33.835C26.7078 35.1005 29.2593 35.8238 31.9789 35.8238C38.7842 35.8238 45 30.4639 45 22.1828C45 13.901 38.2844 7.1874 30.0001 7.1874L15 7.1874C23.2843 7.1874 30.0001 13.901 30.0001 22.1828C30.0001 27.7242 27.0128 31.9005 24.5009 33.806L24.5082 33.835Z" fill="black"/>
<path d="M20.4925 10.5399C18.2924 9.27491 15.7415 8.55104 13.0211 8.55105C6.2165 8.55105 -7.39867e-07 13.9113 -4.76629e-07 22.1927C-2.13412e-07 30.4735 6.71612 37.1874 15.0005 37.1874L30 37.1874C21.7162 37.1874 15.0005 30.4735 15.0005 22.1927C15.0005 16.6509 17.9877 12.4748 20.4998 10.5687L20.4925 10.5399Z" fill="black"/>
<path d="M219.48 35.2975V0H224.373V13.4118C225.987 11.3455 228.558 10.3351 231.483 10.3351C237.431 10.3351 241.165 13.9663 241.165 20.6741V35.2975H236.273V21.1261C236.273 16.7884 234.153 14.7715 230.575 14.7715C226.997 14.7715 224.373 17.343 224.373 21.278V35.2975H219.48Z" fill="#010101"/>
<path d="M206.452 36.0033C199.896 36.0033 196.014 33.3825 195.76 28.3877H200.804C201.054 30.8072 203.022 32.0189 206.551 32.0189C209.779 32.0189 211.743 30.6591 211.743 28.4371C211.743 26.6215 210.383 25.5618 207.861 25.3111L203.979 24.9085C199.44 24.4565 196.565 21.9344 196.565 17.9006C196.565 13.2629 200.447 10.3383 206.399 10.3383C212.351 10.3383 216.183 12.8603 216.483 17.8019H211.591C211.439 15.4811 209.525 14.3227 206.345 14.3227C203.166 14.3227 201.404 15.5837 201.404 17.65C201.404 19.4162 202.714 20.3733 205.54 20.7266L209.475 21.1824C214.064 21.6875 216.688 24.259 216.688 28.2434C216.688 32.9837 212.704 36.0109 206.452 36.0109V36.0033Z" fill="#010101"/>
<path d="M180.27 36.0033C174.672 36.0033 171.143 33.0786 171.143 28.4409C171.143 24.1033 174.068 20.9773 180.02 20.624L187.381 20.2214V18.8616C187.381 15.6862 185.816 14.372 182.488 14.372C179.161 14.372 177.646 15.2305 177.243 17.8019H172.351C172.905 12.8109 176.335 10.3383 182.838 10.3383C188.638 10.3383 192.015 13.2629 192.015 18.6071V30.4578C192.015 31.0123 192.265 31.263 192.82 31.263H194.886V35.2968H190.951C189.287 35.2968 188.33 34.389 188.33 32.7747V32.0683C186.917 34.541 184.042 36.0033 180.263 36.0033H180.27ZM176.035 28.289C176.035 30.5072 177.851 31.9695 180.825 31.9695C184.76 31.9695 187.381 29.7019 187.381 25.5656V24.0007L180.623 24.5059C177.497 24.7072 176.035 26.3215 176.035 28.289Z" fill="#010101"/>
<path d="M155.642 36.004C148.733 36.004 143.993 30.8611 143.993 23.1468C143.993 15.4324 148.733 10.3389 155.642 10.3389C159.171 10.3389 162.046 11.6493 163.558 14.0195V0H168.397V35.2975H164.059V31.9208C162.445 34.4922 159.421 36.004 155.638 36.004H155.642ZM149.037 23.1468C149.037 28.1909 152.011 31.5676 156.398 31.5676C160.785 31.5676 163.66 28.1909 163.66 23.1468C163.66 18.1026 160.785 14.7753 156.398 14.7753C152.011 14.7753 149.037 18.1558 149.037 23.1468Z" fill="#010101"/>
<path d="M118.054 44.3748V11.0411H122.392V14.4709C123.957 11.8501 127.029 10.3346 130.813 10.3346C137.722 10.3346 142.462 15.4775 142.462 23.1424C142.462 30.8074 137.722 35.9996 130.813 35.9996C127.333 35.9996 124.507 34.6892 122.946 32.3191V44.371H118.054V44.3748ZM122.844 23.1462C122.844 28.1903 125.719 31.567 130.106 31.567C134.493 31.567 137.418 28.1865 137.418 23.1462C137.418 18.1059 134.493 14.7748 130.106 14.7748C125.719 14.7748 122.844 18.1553 122.844 23.1462Z" fill="#010101"/>
<path d="M102.421 36.0033C95.06 36.0033 89.9171 30.8604 89.9171 23.1461C89.9171 15.4318 95.06 10.3383 102.421 10.3383C109.782 10.3383 114.929 15.4811 114.929 23.1461C114.929 30.811 109.835 36.0033 102.421 36.0033ZM94.9575 23.1461C94.9575 28.1902 97.9847 31.5669 102.421 31.5669C106.858 31.5669 109.885 28.1864 109.885 23.1461C109.885 18.1058 106.911 14.7747 102.421 14.7747C97.9315 14.7747 94.9575 18.1551 94.9575 23.1461Z" fill="#010101"/>
<path d="M75.9014 36.0033C68.5403 36.0033 63.3974 30.8604 63.3974 23.1461C63.3974 15.4318 68.5403 10.3383 75.9014 10.3383C83.2625 10.3383 88.4054 15.4811 88.4054 23.1461C88.4054 30.811 83.3119 36.0033 75.9014 36.0033ZM68.4378 23.1461C68.4378 28.1902 71.465 31.5669 75.9014 31.5669C80.3378 31.5669 83.365 28.1864 83.365 23.1461C83.365 18.1058 80.391 14.7747 75.9014 14.7747C71.4118 14.7747 68.4378 18.1551 68.4378 23.1461Z" fill="#010101"/>
<path d="M58.8922 35.2975C55.4623 35.2975 54 33.9871 54 30.7091V0H58.8922V29.1974C58.8922 30.4585 59.3442 31.013 60.6052 31.013H63.6818V35.2975H58.8922Z" fill="#010101"/>
</svg>
