<svg width="92" height="19" viewBox="0 0 92 19" fill="none" xmlns="http://www.w3.org/2000/svg">
<path d="M23.1398 5.54056H27.9984L29.7905 12.4341H29.9116C29.9977 11.8599 30.0841 11.2504 30.2392 10.6944L31.7029 5.54056H36.5111L38.6474 18.6665H34.0815L33.4432 11.477H33.3577C33.2718 11.912 33.1853 12.3643 33.0475 12.7822L31.1694 18.6666H28.4127L26.7242 13.1127C26.5862 12.5558 26.4652 12.0337 26.4305 11.4769H26.2754C26.2415 11.9993 26.2071 12.5385 26.1552 13.06L25.6033 18.6663H21.0376L23.1398 5.54056Z" fill="#ffffff"/>
<path d="M45.6354 13.9142L45.0841 11.5987C44.9465 11.0411 44.8596 10.4669 44.7731 9.90997H44.6017L43.7398 13.9142H45.6354ZM42.5162 18.6665H37.5195L42.0334 5.54056H47.2549L51.8902 18.6665H46.8928L46.463 17.0295H42.8953L42.5162 18.6665ZM64.7253 10.9371C64.69 13.0785 64.69 14.8712 63.1565 16.5418C61.778 18.0571 59.6594 18.8753 57.6432 18.8753C53.6809 18.8753 50.476 16.4033 50.476 12.1904C50.476 7.90843 53.5941 5.33157 57.6781 5.33157C59.9351 5.33157 63.0373 6.46335 64.053 8.7089L59.6418 10.3458C59.2804 9.68415 58.6084 9.33581 57.85 9.33581C56.1623 9.33581 55.2309 10.7981 55.2309 12.3818C55.2309 13.8261 56.127 15.1845 57.6605 15.1845C58.402 15.1845 59.3492 14.8362 59.5729 14.0357H57.4367V10.9371H64.7253ZM65.0778 5.54056H69.6105L73.8483 12.8175H73.9856C73.7968 11.7206 73.5896 10.5889 73.5896 9.47501V5.54056H78.1035V18.6665H73.5896L69.4375 11.7731H69.2999C69.4544 12.6776 69.5924 13.531 69.5924 14.402V18.6665H65.0778V5.54056Z" fill="#ffffff"/>
<path d="M85.7458 13.9142L85.1938 11.5987C85.0562 11.0411 84.9701 10.4669 84.8836 9.90997H84.7114L83.8499 13.9142H85.7458ZM82.6271 18.6665H77.6304L82.1439 5.54056H87.365L92 18.6665H87.0033L86.5727 17.0295H83.0061L82.6271 18.6665Z" fill="#ffffff"/>
<path d="M13.8343 18.6794L18.7297 18.68L14.0153 5.57608L10.4316 5.57541L9.77295 7.39905L13.8343 18.6794Z" fill="#ffffff"/>
<path d="M10.5158 0C9.20228 0 8.1377 1.07526 8.1377 2.40308C8.1377 3.7293 9.20228 4.80538 10.5158 4.80538C11.8292 4.80538 12.8935 3.7293 12.8935 2.40293C12.8935 1.07526 11.8292 0 10.5158 0Z" fill="#ffffff"/>
<path d="M0 18.6794L7.29774 18.6787L3.6479 8.55677L0 18.6794ZM8.12555 18.6794L13.021 18.68L8.30539 5.57608L4.72212 5.57541L4.06432 7.39905L8.12555 18.6794Z" fill="#ffffff"/>
</svg>
