<svg width="78" height="14" viewBox="0 0 78 14" fill="none" xmlns="http://www.w3.org/2000/svg">
<path d="M5.60192 0.263535H0V4.15755H5.66175C6.87812 4.15755 7.0459 5.15938 7.0459 5.77637C7.0459 6.50114 6.81073 7.41453 5.66175 7.41453H0V13.972H4.11738V11.3092H5.60192C9.10871 11.3092 11.2038 8.97186 11.2038 5.77637C11.2038 2.59331 9.1094 0.263535 5.60192 0.263535Z" fill="white"/>
<path d="M18.2741 0.263412H14.1567V13.9719H18.2741V0.263412Z" fill="white"/>
<path d="M31.5742 8.30891C31.1478 9.41438 30.1811 10.0452 28.9214 10.0452C27.1893 10.0452 26.0252 8.82986 26.0252 7.02104C26.0252 5.21221 27.1914 3.99965 28.9234 3.99965C30.1831 3.99965 31.1499 4.63253 31.5762 5.73593L31.7137 6.09521H36.0023L35.8579 5.41534C35.1703 2.15214 32.4447 0.043457 28.9234 0.043457C24.8116 0.043457 21.8267 2.97848 21.8267 7.02173C21.8267 11.065 24.8116 14 28.9234 14C32.4447 14 35.1669 11.8913 35.8579 8.62811L36.0023 7.94825H31.7151L31.5742 8.30891Z" fill="white"/>
<path d="M72.7229 8.30891C72.2966 9.41438 71.3298 10.0452 70.0701 10.0452C68.3374 10.0452 67.1739 8.82986 67.1739 7.02104C67.1739 5.21221 68.3374 3.99965 70.0701 3.99965C71.3298 3.99965 72.2966 4.63253 72.7229 5.73593L72.8604 6.09521H77.1483L77.0039 5.41534C76.3122 2.15214 73.5907 0.043457 70.0694 0.043457C65.9569 0.043457 62.9727 2.97848 62.9727 7.02173C62.9727 11.065 65.9569 14 70.0694 14C73.5907 14 76.3122 11.8913 77.0039 8.62811L77.1483 7.94825H72.8604L72.7229 8.30891Z" fill="white"/>
<path d="M45.5043 0C41.7067 0 39.439 2.23996 39.439 5.99302V13.9717H43.557V5.99302C43.557 4.56144 44.1759 3.8947 45.5043 3.8947C46.8328 3.8947 47.4516 4.56144 47.4516 5.99302V13.9717H51.569V5.99302C51.569 2.23996 49.302 0 45.5043 0Z" fill="white"/>
<path d="M59.2634 0.263412H55.146V13.9719H59.2634V0.263412Z" fill="white"/>
</svg>
