<svg width="100%" height="100%" viewBox="0 0 71 14" fill="none" xmlns="http://www.w3.org/2000/svg">
<path d="M7.5 0L9.0716 4.83688H14.1574L10.0429 7.82624L11.6145 12.6631L7.5 9.67376L3.3855 12.6631L4.9571 7.82624L0.842604 4.83688H5.9284L7.5 0Z" fill="#FFB21A"></path>
<path d="M21.5 0L23.0716 4.83688H28.1574L24.0429 7.82624L25.6145 12.6631L21.5 9.67376L17.3855 12.6631L18.9571 7.82624L14.8426 4.83688H19.9284L21.5 0Z" fill="#FFB21A"></path>
<path d="M35.5 0L37.0716 4.83688H42.1574L38.0429 7.82624L39.6145 12.6631L35.5 9.67376L31.3855 12.6631L32.9571 7.82624L28.8426 4.83688H33.9284L35.5 0Z" fill="#FFB21A"></path>
<path d="M49.5 0L51.0716 4.83688H56.1574L52.0429 7.82624L53.6145 12.6631L49.5 9.67376L45.3855 12.6631L46.9571 7.82624L42.8426 4.83688H47.9284L49.5 0Z" fill="#FFB21A"></path>
<path opacity="0.25" d="M63.5 0L65.0716 4.83688H70.1574L66.0429 7.82624L67.6145 12.6631L63.5 9.67376L59.3855 12.6631L60.9571 7.82624L56.8426 4.83688H61.9284L63.5 0Z" fill="#FFB21A"></path>
<path d="M61.9284 4.83688L63.5 0V9.67376L59.3855 12.6631L60.9571 7.82624L56.8426 4.83688H61.9284Z" fill="#FFB21A"></path>
</svg>