<svg width="99" height="18" viewBox="0 0 99 18" fill="none" xmlns="http://www.w3.org/2000/svg">
<path d="M9.08785 1.46352C9.23753 1.00287 9.88923 1.00287 10.0389 1.46352L11.6646 6.46702C11.7316 6.67303 11.9236 6.81251 12.1402 6.81251H17.4012C17.8855 6.81251 18.0869 7.43231 17.6951 7.71702L13.4388 10.8093C13.2636 10.9367 13.1903 11.1624 13.2572 11.3684L14.8829 16.3718C15.0326 16.8325 14.5054 17.2155 14.1135 16.9308L9.85727 13.8385C9.68203 13.7112 9.44473 13.7112 9.26949 13.8385L5.01326 16.9308C4.6214 17.2155 4.09416 16.8325 4.24384 16.3718L5.86957 11.3684C5.93651 11.1624 5.86318 10.9367 5.68794 10.8093L1.43171 7.71701C1.03986 7.43231 1.24125 6.81251 1.72561 6.81251H6.98659C7.2032 6.81251 7.39518 6.67303 7.46212 6.46702L9.08785 1.46352Z" fill="#FFB21A"/>
<path d="M28.8062 1.46352C28.9558 1.00287 29.6075 1.00287 29.7572 1.46352L31.383 6.46702C31.4499 6.67303 31.6419 6.81251 31.8585 6.81251H37.1195C37.6038 6.81251 37.8052 7.43231 37.4134 7.71702L33.1571 10.8093C32.9819 10.9367 32.9086 11.1624 32.9755 11.3684L34.6012 16.3718C34.7509 16.8325 34.2237 17.2155 33.8318 16.9308L29.5756 13.8385C29.4003 13.7112 29.163 13.7112 28.9878 13.8385L24.7316 16.9308C24.3397 17.2155 23.8125 16.8325 23.9622 16.3718L25.5879 11.3684C25.6548 11.1624 25.5815 10.9367 25.4063 10.8093L21.15 7.71702C20.7582 7.43232 20.9596 6.81251 21.4439 6.81251H26.7049C26.9215 6.81251 27.1135 6.67303 27.1804 6.46702L28.8062 1.46352Z" fill="#FFB21A"/>
<path d="M48.5245 1.46352C48.6741 1.00287 49.3259 1.00287 49.4755 1.46352L51.1013 6.46702C51.1682 6.67303 51.3602 6.81251 51.5768 6.81251H56.8378C57.3221 6.81251 57.5235 7.43231 57.1317 7.71702L52.8754 10.8093C52.7002 10.9367 52.6269 11.1624 52.6938 11.3684L54.3195 16.3718C54.4692 16.8325 53.942 17.2155 53.5501 16.9308L49.2939 13.8385C49.1186 13.7112 48.8814 13.7112 48.7061 13.8385L44.4499 16.9308C44.058 17.2155 43.5308 16.8325 43.6805 16.3718L45.3062 11.3684C45.3731 11.1624 45.2998 10.9367 45.1246 10.8093L40.8683 7.71702C40.4765 7.43232 40.6779 6.81251 41.1622 6.81251H46.4232C46.6398 6.81251 46.8318 6.67303 46.8987 6.46702L48.5245 1.46352Z" fill="#FFB21A"/>
<path d="M68.2428 1.46353C68.3925 1.00287 69.0442 1.00287 69.1938 1.46352L70.8196 6.46702C70.8865 6.67303 71.0785 6.81251 71.2951 6.81251H76.5561C77.0405 6.81251 77.2418 7.43232 76.85 7.71702L72.5938 10.8093C72.4185 10.9367 72.3452 11.1624 72.4121 11.3684L74.0379 16.3718C74.1875 16.8325 73.6603 17.2155 73.2684 16.9308L69.0122 13.8385C68.837 13.7112 68.5997 13.7112 68.4244 13.8385L64.1682 16.9308C63.7763 17.2155 63.2491 16.8325 63.3988 16.3718L65.0245 11.3684C65.0914 11.1624 65.0181 10.9367 64.8429 10.8093L60.5866 7.71702C60.1948 7.43232 60.3962 6.81251 60.8805 6.81251H66.1415C66.3581 6.81251 66.5501 6.67303 66.617 6.46702L68.2428 1.46353Z" fill="#FFB21A"/>
<path d="M88.2428 1.46353C88.3925 1.00287 89.0442 1.00287 89.1938 1.46352L90.8196 6.46702C90.8865 6.67303 91.0785 6.81251 91.2951 6.81251H96.5561C97.0405 6.81251 97.2418 7.43232 96.85 7.71702L92.5938 10.8093C92.4185 10.9367 92.3452 11.1624 92.4121 11.3684L94.0379 16.3718C94.1875 16.8325 93.6603 17.2155 93.2684 16.9308L89.0122 13.8385C88.837 13.7112 88.5997 13.7112 88.4244 13.8385L84.1682 16.9308C83.7763 17.2155 83.2491 16.8325 83.3988 16.3718L85.0245 11.3684C85.0914 11.1624 85.0181 10.9367 84.8429 10.8093L80.5866 7.71702C80.1948 7.43232 80.3962 6.81251 80.8805 6.81251H86.1415C86.3581 6.81251 86.5501 6.67303 86.617 6.46702L88.2428 1.46353Z" fill="#FFB21A"/>
<path opacity="0.25" d="M87.9611 1.46352C88.1108 1.00287 88.7625 1.00287 88.9121 1.46352L90.5379 6.46702C90.6048 6.67303 90.7968 6.81251 91.0134 6.81251H96.2744C96.7588 6.81251 96.9601 7.43231 96.5683 7.71702L92.3121 10.8093C92.1368 10.9367 92.0635 11.1624 92.1304 11.3684L93.7562 16.3718C93.9058 16.8325 93.3786 17.2155 92.9867 16.9308L88.7305 13.8385C88.5553 13.7112 88.318 13.7112 88.1427 13.8385L83.8865 16.9308C83.4946 17.2155 82.9674 16.8325 83.1171 16.3718L84.7428 11.3684C84.8097 11.1624 84.7364 10.9367 84.5612 10.8093L80.3049 7.71702C79.9131 7.43231 80.1145 6.81251 80.5988 6.81251H85.8598C86.0764 6.81251 86.2684 6.67303 86.3353 6.46702L87.9611 1.46352Z" fill="#FFB21A"/>
<path d="M85.8598 6.81251C86.0764 6.81251 86.2684 6.67303 86.3353 6.46702L87.4611 3.00236C87.637 2.46084 88.4366 2.58748 88.4366 3.15687V13.3703C88.4366 13.5303 88.36 13.6807 88.2305 13.7748L83.8865 16.9308C83.4946 17.2155 82.9674 16.8325 83.1171 16.3718L84.7428 11.3684C84.8097 11.1624 84.7364 10.9367 84.5612 10.8093L80.3049 7.71702C79.9131 7.43231 80.1145 6.81251 80.5988 6.81251H85.8598Z" fill="#FFB21A"/>
</svg>
