<?xml version="1.0" encoding="utf-8"?>
<!-- Generator: Adobe Illustrator 25.4.1, SVG Export Plug-In . SVG Version: 6.00 Build 0)  -->
<svg version="1.1" id="Layer_1" xmlns="http://www.w3.org/2000/svg" xmlns:xlink="http://www.w3.org/1999/xlink" x="0px" y="0px"
	 viewBox="0 0 1440 987.4" style="enable-background:new 0 0 1440 987.4;" xml:space="preserve">
<style type="text/css">
	.st0{fill:url(#Path_00000011005492706626692980000004549304180444898456_);}
</style>
<desc>Created with Sketch.</desc>
<g id="Artboard">
	<g id="section2" transform="translate(-910.000000, -1.000000)">
		
			<linearGradient id="Path_00000180336903651501689850000008290561383296095409_" gradientUnits="userSpaceOnUse" x1="947.4902" y1="1211.0115" x2="947.4907" y2="1210.8612" gradientTransform="matrix(4077.9321 0 0 -4042.7458 -3861764 4896208)">
			<stop  offset="0" style="stop-color:#F2F2F2"/>
			<stop  offset="1" style="stop-color:#F2F2F2;stop-opacity:0"/>
		</linearGradient>
		<path id="Path" style="fill:url(#Path_00000180336903651501689850000008290561383296095409_);" d="M3316.3,1901.7l11.2,544.8
			c3.1,162.4-271.1,262.2-482.9,176.1l-712.5-289.6c-291.2-118.6-628.6-180.2-971.2-178.2l-839.2,5.3
			C71.6,2161.3-83,1982.8,49,1845.2l443.2-461.6c181.4-188.7,275-407.5,270.7-630L752,208.6C749,46.2,1023.1-53.5,1235.6,32.7
			l712.1,289.8c291.2,118.6,628.6,180.2,971.2,178.2l838.8-5.2c250.1-1.3,404.8,177.1,272.8,314.8L3587,1271.7
			C3405.6,1460.3,3311.9,1679.2,3316.3,1901.7z"/>
	</g>
</g>
</svg>
