<?xml version="1.0" encoding="utf-8"?>
<!-- Generator: Adobe Illustrator 25.4.1, SVG Export Plug-In . SVG Version: 6.00 Build 0)  -->
<svg version="1.1" id="Layer_1" xmlns="http://www.w3.org/2000/svg" xmlns:xlink="http://www.w3.org/1999/xlink" x="0px" y="0px"
	 viewBox="0 0 695.9 460.1" style="enable-background:new 0 0 695.9 460.1;" xml:space="preserve">
<style type="text/css">
	.st0{fill:#455A64;}
	.st1{fill:#E0E0E0;}
	.st2{opacity:0.6;}
	.st3{fill:#FFFFFF;}
	.st4{fill:#263238;}
	.st5{fill:#39C0C8;}
	.st6{opacity:0.3;}
	.st7{fill:#FFBE9D;}
	.st8{fill:#EB996E;}
	.st9{fill:#F5F5F5;}
	.st10{fill:#EBEBEB;}
	.st11{opacity:0.2;}
	.st12{fill:#FAFAFA;}
	.st13{opacity:0.5;}
</style>
<g id="freepik--Character--inject-548_00000032631986034955063030000016017376025614356628_">
	<path class="st0" d="M-1106.5,1511.7l-6.4,21.2c0,0-23.7,0.6-25.2,4.3l40.6,14l11.4-32.6L-1106.5,1511.7z"/>
	<path class="st1" d="M-1099.8,1535.4c0.7,0.5,0.9,1.5,0.5,2.3c-0.5,0.7-1.5,1-2.3,0.5c-0.8-0.6-1-1.6-0.5-2.4
		c0.6-0.7,1.7-0.8,2.4-0.3"/>
	<g class="st2">
		<path class="st3" d="M-1097.6,1551.2l1-3.3l-39.3-12.1c0,0-2.1,0.2-2.3,1.5L-1097.6,1551.2z"/>
	</g>
	<path class="st4" d="M-1113.5,1532.4c-0.1,0.2,0.9,0.6,1.7,1.6s1,2,1.2,2c0.2,0,0.3-1.3-0.6-2.4
		C-1112.2,1532.4-1113.5,1532.2-1113.5,1532.4z"/>
	<path class="st4" d="M-1118.4,1532.7c-0.1,0.2,0.6,0.8,1,1.9c0.4,1.1,0.3,2,0.5,2.1c0.2,0.1,0.7-1,0.2-2.3
		S-1118.3,1532.5-1118.4,1532.7z"/>
	<path class="st4" d="M-1122.6,1537c0.2,0.1,0.8-0.8,0.7-2c-0.1-1.3-0.9-2-1.1-1.9c-0.1,0.1,0.2,0.9,0.3,1.9
		S-1122.8,1536.9-1122.6,1537z"/>
	<path class="st4" d="M-1111.5,1527.8c0,0.2,1,0.2,2.1,0.7s1.8,1.1,2,1s-0.4-1.1-1.7-1.7
		C-1110.4,1527.3-1111.6,1527.6-1111.5,1527.8z"/>
	<path class="st0" d="M-1135.7,1483.6l-13,17.9c0,0-22.6-7.2-25.3-4.1l33.9,26.4l21.3-27.1L-1135.7,1483.6z"/>
	<path class="st1" d="M-1137,1508.2c0.5,0.7,0.4,1.7-0.3,2.3c-0.7,0.5-1.7,0.4-2.3-0.2c-0.5-0.8-0.4-1.8,0.3-2.5
		c0.8-0.5,1.9-0.3,2.4,0.5"/>
	<g class="st2">
		<path class="st3" d="M-1140.1,1523.8l2-2.8l-33.2-24.2c0,0-2-0.5-2.7,0.7L-1140.1,1523.8z"/>
	</g>
	<path class="st4" d="M-1149.1,1500.9c-0.1,0.2,0.6,0.9,1,2s0.3,2.2,0.5,2.2c0.2,0,0.7-1.1,0.2-2.5
		C-1147.9,1501.3-1149,1500.7-1149.1,1500.9z"/>
	<path class="st4" d="M-1153.8,1499.6c-0.2,0.1,0.3,1,0.3,2.1s-0.4,2-0.2,2.1s1-0.7,1-2.1
		C-1152.7,1500.3-1153.6,1499.5-1153.8,1499.6z"/>
	<path class="st4" d="M-1159.1,1502.3c0.1,0.2,1-0.5,1.3-1.7c0.3-1.2-0.2-2.2-0.4-2.1c-0.2,0.1-0.1,0.9-0.3,2
		S-1159.2,1502.1-1159.1,1502.3z"/>
	<path class="st4" d="M-1145.7,1497.2c0,0.2,0.9,0.6,1.8,1.4c0.9,0.8,1.4,1.6,1.6,1.6c0.2-0.1,0-1.2-1.1-2.1
		S-1145.6,1497-1145.7,1497.2z"/>
	<polygon class="st5" points="-1006.6,1425.2 -990.3,1429.9 -992.2,1416.3 -996.3,1414.1 -1002.7,1413.1 -1006.3,1416.1 
		-1007.5,1419.8 	"/>
	<g class="st6">
		<polygon points="-1006.5,1425.1 -990.3,1429.9 -992.2,1416.3 -996.3,1414.1 -1002.7,1413.1 -1006.3,1416.1 -1007.5,1419.8 		"/>
	</g>
	<path class="st7" d="M-1003.8,1385.3c0,0,10.7,6.2,15.6,7.1c4.9,1,19.9,5,19.9,5l16.8-21.2c0,0-32.4-1.2-36.9-4
		c-4.5-2.8-30-34-30-34l-6.9,7.1C-1025.3,1345.3-1005.8,1384.2-1003.8,1385.3z"/>
	<path class="st5" d="M-970,1398.2l0.2-25l28.2-3.9c0,0,5.8-1.7,8-0.2s-10.8,18.8-10.8,18.8L-970,1398.2z"/>
	<path class="st4" d="M-834.8,1303.1c-0.5-4.3-4.2-7.9-8.4-9s-8.7-0.3-12.7,1.4c1-3.2-1.8-6.7-5.1-7.4c-3.3-0.6-6.7,0.9-9.3,3
		c-5,4.2-7.9,10.4-7.8,17c0.1,3.2,0.9,6.3,1.2,9.5c0.3,3.2,0,6.6-1.8,9.2s-5.7,4-8.4,2.4l-0.6,9.3c8,4.1,17.6,4.2,25.7,0.3
		c3.5-1.7,6.9-4.9,6.3-8.8c-0.2-1.2-0.7-2.3-0.8-3.5c-0.3-2.7,1.5-5.2,3.7-6.7s4.8-2.2,7.3-3.2c3-1.1,5.6-2.8,7.8-5.1
		C-835.7,1309.4-834.5,1306.3-834.8,1303.1z"/>
	<path class="st4" d="M-905.6,1368.3c4.7,4.8,12.4,5,17.2,0.3c0.9-0.8,1.6-1.8,2.2-2.8c1.7-3.1,2.2-7,4.8-9.3
		c1.8-1.6,4.4-2.2,6.1-3.9c2.6-2.5,2.6-6.6,2.4-10.2c0-2.3-0.4-4.6-1.1-6.8c-0.7-2.2-2.4-4-4.6-4.9"/>
	<path class="st4" d="M-910.3,1312.3c-1.2,2.4-3.9,3.6-6.5,4.4c-2.5,0.8-5.3,1.6-7,3.7c-3,3.7-1.2,9.8-4.4,13.3
		c-1.7,1.9-4.5,2.6-6,4.5s-1.6,4.6-1.2,7s1.4,4.7,1.6,7.2c0,0,0.1,5.7,9.5,7.6"/>
	<path class="st4" d="M-877.1,1336.6c1.3-2,0.3-4.8-1.2-6.7s-3.5-3.5-4.5-5.6c-0.9-1.9-1-4.1-1.5-6.2c-2-8-10.1-12.8-18.1-10.8
		c-2.6,0.7-5,2-6.9,4c-2.5,2.5-4,6.3-2.9,9.7c1.4,3.9,5.7,5.7,9.6,7.1c3.9,1.3,8.2,3,9.9,6.7c1,2.3,0.8,4.8,0.8,7.3s0.2,5.2,1.8,7
		s5.1,2.3,6.4,0.2"/>
	<path class="st7" d="M-885.6,1332.2c1.7,1.2,2.1,3.6,1,5.4l0,0l-29.7,45.8c-3.4,5.5-13.3,3.8-19.2,0.2l0,0
		c-5.9-3.7-4.4-6.7-1.3-12.1c5.1-8.9,7-12.2,7-12.2c0,0-6.8-5.7-2.5-16.6c2.1-5.4,7.1-13.3,11.5-19.6c3.9-5.7,12.1-10.7,17.7-6.5
		L-885.6,1332.2z"/>
	<path class="st4" d="M-921.4,1331.4c-0.4,0.7-0.2,1.6,0.5,2c0.6,0.5,1.5,0.3,2-0.3c0,0,0,0,0,0c0.4-0.7,0.2-1.6-0.5-2
		C-920,1330.6-920.9,1330.8-921.4,1331.4C-921.4,1331.4-921.4,1331.4-921.4,1331.4z"/>
	<path class="st4" d="M-919.4,1327.1c0.1,0.3,1.4,0.1,2.8,0.9c1.4,0.8,2,2.1,2.2,2c0.2-0.1,0.1-0.4-0.1-1c-0.3-0.8-0.9-1.4-1.7-1.8
		c-0.7-0.4-1.5-0.6-2.3-0.5C-919.1,1326.8-919.4,1327-919.4,1327.1z"/>
	<path class="st4" d="M-908.8,1339.3c-0.4,0.7-0.2,1.6,0.5,2c0.6,0.5,1.5,0.3,2-0.3c0,0,0,0,0-0.1c0.4-0.7,0.2-1.6-0.5-2
		C-907.4,1338.5-908.3,1338.6-908.8,1339.3C-908.7,1339.3-908.8,1339.3-908.8,1339.3z"/>
	<path class="st4" d="M-906,1335.9c0.1,0.3,1.4,0.1,2.8,0.9c1.4,0.8,2,2.1,2.2,2c0.2-0.1,0.1-0.4-0.1-1c-0.3-0.8-0.9-1.4-1.6-1.8
		c-0.7-0.4-1.5-0.6-2.3-0.5C-905.7,1335.5-906.1,1335.8-906,1335.9z"/>
	<path class="st4" d="M-917.4,1343.7c-0.6-0.7-1.3-1.2-2-1.7c-0.3-0.2-0.6-0.5-0.5-0.8s0.4-0.6,0.8-0.9l2.6-2
		c3.7-2.9,6.5-5.4,6.4-5.6c-0.1-0.2-3.2,2.1-6.8,5l-2.5,2.1c-0.5,0.3-0.8,0.7-1,1.3c0,0.3,0.1,0.6,0.3,0.8c0.2,0.2,0.3,0.3,0.5,0.4
		C-918.9,1342.9-918.2,1343.4-917.4,1343.7z"/>
	<path class="st8" d="M-927.9,1359.3c4.6,2.8,9.9,4.3,15.3,4.3c0,0-7.4,4.8-16.7-2L-927.9,1359.3z"/>
	<path class="st4" d="M-904.7,1332.2c-0.1,0.5,1.4,1.1,2.9,2.2c1.5,1.1,2.5,2.3,2.9,2.1c0.2-0.1,0.2-0.6-0.1-1.2
		c-0.9-1.7-2.5-3-4.4-3.3C-904.2,1331.9-904.6,1332-904.7,1332.2z"/>
	<path class="st4" d="M-917.4,1324.2c0.1,0.5,1.3,0.8,2.6,1.5s2.2,1.6,2.7,1.4c0.2-0.1,0.2-0.5-0.1-1.1c-0.9-1.5-2.5-2.4-4.3-2.4
		C-917.1,1323.7-917.4,1324-917.4,1324.2z"/>
	<path class="st4" d="M-897.9,1368.8c-5.3-1.8-8.1-7.6-6.3-13c0.4-1.1,0.9-2,1.6-2.9c1.7-2.2,4.5-4,5-6.7c0.7-3.7-3-7.1-2.4-10.8
		c0.4-2.2,2.2-3.9,2.5-6s-0.9-4-2.2-5.6c-1.3-1.6-2.8-3.1-3.6-5c-0.8-2-0.4-4.5,1.4-5.5c6.9,5.2,13.1,11.3,18.6,18
		c1.3,1.6,2.5,3.3,2.6,5.3s-1.1,4-2.2,5.8l-17,25.9"/>
	<path class="st5" d="M-873.1,1341.3c-0.2,0-0.2-3.4-2.3-6.9c-2-3.5-4.9-5.3-4.8-5.5c0.7,0.2,1.3,0.6,1.9,1.1c2.8,2.3,4.6,5.5,5.1,9
		C-873,1339.8-873,1340.6-873.1,1341.3z"/>
	<path class="st0" d="M-880.4,1328.2c0,0-0.1,0.1-0.3,0.2c-0.3,0.1-0.7,0.2-1,0.3c-1.3,0.1-2.7-0.3-3.7-1.2
		c-1.4-1.4-2.4-3.1-2.8-5.1c-0.6-2.1-0.8-4.5-2-6.6c-1.2-2-3-3.4-5.2-4.1c-1.8-0.5-3.7-0.4-5.5,0.2c-1.2,0.4-2.3,1.1-3.2,2
		c-0.7,0.6-1,1-1,1s0-0.1,0.2-0.3c0.2-0.3,0.4-0.6,0.7-0.8c0.9-1,2-1.7,3.2-2.2c1.8-0.8,3.9-0.9,5.8-0.4c2.4,0.7,4.4,2.2,5.6,4.3
		c1.3,2.3,1.5,4.7,2,6.8c0.3,1.8,1.2,3.6,2.5,4.9c0.9,0.8,2.2,1.3,3.4,1.3C-881.2,1328.4-880.8,1328.3-880.4,1328.2z"/>
	<path class="st8" d="M-918.8,1347.4c-0.2,0.7-0.2,1.4-0.1,2.2c0.1,0.7,0.4,1.4,1,1.8c0.7,0.4,1.5,0.4,2.2,0.1
		c0.7-0.4,1.2-0.9,1.6-1.6c0.3-0.6,0.5-1.5-0.1-1.9c-0.2-0.2-0.5-0.3-0.8-0.3l-3.9-0.6"/>
	<path class="st4" d="M-919.1,1350.7c0.5,0.4,1.2,0.6,1.8,0.8c0.7,0.1,1.4,0,2-0.4c0.7-0.5,1.1-1.2,1.2-2c0-0.2,0-0.4,0-0.6
		c0-0.2,0-0.2-0.2-0.2c-0.2-0.1-0.4-0.1-0.6-0.1l-0.6-0.1c-0.8-0.1-1.6-0.2-2.2-0.4c-0.7-0.1-1.4-0.2-2-0.5c0.7-0.1,1.4-0.1,2.1,0
		c0.6,0,1.4,0.1,2.2,0.2l0.7,0.1c0.2,0,0.5,0.1,0.7,0.1c0.2,0,0.3,0.1,0.5,0.3c0.1,0.1,0.2,0.3,0.2,0.5c0,0.3,0,0.5,0,0.8
		c-0.1,1-0.7,1.9-1.6,2.5c-0.7,0.4-1.6,0.5-2.4,0.3c-0.5-0.1-1-0.4-1.4-0.8C-919,1350.9-919.1,1350.7-919.1,1350.7z"/>
	<path class="st4" d="M-1145.8,1495.5c0,0,42.1-63.7,47.6-70.9c5.5-7.3,10.9-13.4,24.3-9.5c6.5,1.9,73.1,19.5,73.1,19.5l0,0
		l10.9-1.7l37.3,29.4c0,0-22.7,26.3-51.1,15.6c-28.7-10.7-71-29.1-71-29.1s-19.8,22-26.5,30.9c-7.1,9.3-24.7,27.6-24.7,27.6
		L-1145.8,1495.5z"/>
	<path class="st4" d="M-998.2,1422.6c-1.6,0.6-95.8,16-95.8,16l-19,87.5l22.7,7l24.5-71.1l33.4,2.3l42.4-31.4L-998.2,1422.6z"/>
	<path class="st5" d="M-998.3,1411.2l10.4,1l13.4-3.1c0,0,6.8-16.3,10.2-23.2s30.5-17.6,30.5-17.6l25.9,3.7l7.5,3.2l-8.5,30.6
		l-23,34.4l-22.3,26.7c0,0-42.1-37.5-43.8-43.6c-1.4-5.2,0.6-8-3-9.7c-1.3-0.6-3,0.6-3.6,1.6c-1.4,2.2-2.8,3.3-2,9.1
		c-0.8-1.6-1.1-3.3-0.9-5.1c0.4-1.6,1.1-3.1,2-4.4C-1004,1412.4-1001.3,1411-998.3,1411.2z"/>
	<g class="st6">
		<path d="M-951.2,1393.4c-2.8,3.4-5.5,8.3-5.4,12.7c0.1,1.9,0.2,3.7,0.1,5.6c-0.2,2-0.9,3.8-1.1,5.8c-0.1,2.4,0.1,4.8,0.8,7.2
			c0.3,1.7,0.8,3.4,1.6,4.9c0.9,1.3,1.9,2.6,3,3.8c2.1,2.8,3.2,6.2,4.6,9.4c1.5,3.2,3.7,6.3,7.1,7.3c1.6-1.4,3.3-2.9,3.5-5
			c0.1-1.4-0.2-2.8-0.8-4c-3.2-7.8-7.1-15.3-11.9-22.3c-1.5-2.3-2.7-4.8-3.5-7.4C-955.2,1405.5-953.1,1398.8-951.2,1393.4"/>
	</g>
	<path class="st4" d="M-949.7,1416.6c-0.3-0.2-0.6-0.4-0.8-0.6c-0.7-0.6-1.3-1.4-1.8-2.2c-1.6-2.8-2.3-5.9-2.1-9.1
		c0.3-3.1,1.1-6.2,2.3-9.1c0.4-1.1,0.8-2,1.1-2.6c0.1-0.3,0.3-0.6,0.5-0.9c-0.3,1.2-0.8,2.5-1.2,3.7c-1.1,2.9-1.8,5.9-2.1,9
		c-0.2,3.1,0.4,6.2,1.9,8.9C-951.3,1414.6-950.5,1415.6-949.7,1416.6z"/>
	<path class="st7" d="M-1050.6,1325.6l11.5-4.9l9.5,3.6l13.5,16.9l-7,7.4l-2.2-3.2c0,0-6.8-2.5-8.1-4.9c-1-1.7-2.1-3.3-3.3-4.8
		l-2.5-1.8c0,0-6.9,2.2-8.8,0.8l-0.8-0.8l7.2-3l-0.1-1.9c0,0-5.6,3.2-8.8,2.1l-0.9-1.5l5.9-2.4c0,0-3.5,0.7-4.2,0
		C-1050.1,1326.7-1050.4,1326.2-1050.6,1325.6z"/>
	<path class="st8" d="M-1031,1329.5c0,0,0.1,0.1,0,0.3c-0.1,0.3-0.2,0.5-0.5,0.6c-0.4,0.2-0.9,0.2-1.2,0c-0.5-0.2-0.9-0.5-1.4-0.8
		c-1-0.6-2.2-1.3-3.5-1.9c-0.7-0.3-1.4-0.7-2.2-1c-0.7-0.4-1.5-0.6-2.3-0.5c-0.3,0.1-0.6,0.3-0.8,0.6c-0.1,0.3-0.1,0.7,0.2,1
		c0.5,0.6,1,1.2,1.6,1.7l2.9,2.8c0.8,0.8,1.5,1.5,1.9,2c0.4,0.5,0.7,0.7,0.6,0.8c-0.3-0.2-0.6-0.4-0.8-0.6c-0.5-0.4-1.2-1-2-1.8
		l-3-2.8l-0.9-0.8c-0.3-0.3-0.6-0.6-0.9-0.9c-0.3-0.4-0.4-1-0.2-1.4c0.2-0.5,0.6-0.8,1.1-0.9c0.9-0.1,1.8,0,2.6,0.5
		c0.8,0.3,1.5,0.7,2.2,1c1.4,0.7,2.5,1.4,3.5,2.1c0.4,0.3,0.8,0.6,1.3,0.8c0.3,0.2,0.7,0.2,1,0.1
		C-1031.3,1330.1-1031.1,1329.8-1031,1329.5z"/>
	<path class="st8" d="M-1032,1329.2c-0.7-0.2-1.4-0.6-2-1c-1.6-0.9-3-1.9-4.4-3.1l-0.4-0.3h0.3c-1.9,0.7-3.5,1.3-4.7,1.7
		c-0.6,0.3-1.3,0.5-2,0.6c0.6-0.4,1.2-0.7,1.9-0.9c1.2-0.5,2.8-1.2,4.7-1.9l0.2-0.1l0.1,0.1l0.4,0.3
		C-1034.9,1327.4-1032,1329-1032,1329.2z"/>
	<path class="st7" d="M-921.1,1406.9l-7.9,24.7l-4.5-4.4l-9.4,4.8l5.1,21c0,0,5.7,7.9,12.2,7.4s7.8-4.6,9.9-9.5
		c2.1-4.9,13.5-35.7,13.5-35.7S-918.2,1406.6-921.1,1406.9z"/>
	<path class="st7" d="M-956.8,1415.6c0,0,12.1-4.9,13.4-4.6l10.3,3.2c1,1,1.2,2.5,0.5,3.7c0,0,1.6,4.1,0.8,6.4l-0.9,2.3
		c0.4,1.2,0.4,2.4-0.2,3.6c-1.4,2.8-1.2,3.5-2.4,3.9s-7.8-1-7.8-1s-8.4-1.8-8.9-2.8c-0.5-1,0.6-1.8,0.6-1.8h7l-1.1-1.2l-4.1-1
		c0,0-4.2,1.3-6.4-0.3c-0.4-0.3-0.5-0.9-0.2-1.4l1.1-1.3c-1.7-0.3-3-1.8-3-3.6l3.4-1.1C-954.8,1418.7-959,1417.7-956.8,1415.6z"/>
	<path class="st8" d="M-938,1417.3c-2.7-0.4-5.5-0.6-8.2-0.5c-2.7,0.3-5.4,0.8-8.1,1.6c0.7-0.4,1.4-0.8,2.2-1c1.9-0.6,3.8-1,5.8-1.1
		c2-0.1,3.9,0,5.9,0.3C-939.6,1416.7-938.8,1417-938,1417.3z"/>
	<path class="st8" d="M-937.3,1423.7c-0.9-0.1-1.8-0.3-2.6-0.5c-2.1-0.4-4.2-0.6-6.4-0.7c-2.1,0-4.3,0.2-6.4,0.5
		c-0.9,0.2-1.8,0.3-2.6,0.4c0.8-0.4,1.7-0.7,2.6-0.8c2.1-0.5,4.3-0.7,6.5-0.7c2.2,0,4.3,0.3,6.4,0.8
		C-939,1423-938.1,1423.3-937.3,1423.7z"/>
	<path class="st8" d="M-937.1,1430.1c-1.4,0-2.7-0.2-4-0.5c-1.3-0.2-2.6-0.5-3.9-1c1.4,0,2.7,0.2,4,0.5
		C-939.7,1429.3-938.4,1429.6-937.1,1430.1z"/>
	<path class="st8" d="M-916.5,1445c-0.3-0.2-0.5-0.4-0.7-0.6c-0.4-0.4-1-1-1.8-1.8c-1.5-1.5-3.4-3.8-5.6-6.1
		c-2.2-2.3-4.2-4.5-5.7-6.1c-0.8-0.8-1.6-1.7-2.2-2.6c0.9,0.7,1.7,1.5,2.5,2.4c1.5,1.5,3.5,3.6,5.8,6s4.1,4.6,5.5,6.2
		C-918,1443.2-917.2,1444.1-916.5,1445z"/>
	<path class="st5" d="M-901.2,1374.9c4.4,2.4,6.9,7.2,6.4,12.2c-0.9,8.7-4.8,30.2-4.8,30.2l-24.8-11.5l4.4-17.1
		C-920,1388.8-907.9,1373.6-901.2,1374.9z"/>
	<path class="st4" d="M-942.9,1372.8c-0.1,0.1-0.3,0.2-0.4,0.2l-1.3,0.6c-1.1,0.5-2.8,1.2-4.8,2.1c-2.4,1-4.7,2.2-6.9,3.6
		c-1.2,0.8-2.5,1.6-3.8,2.6c-1.3,0.9-2.5,2-3.5,3.3c-1.9,2.6-3.4,5.3-4.6,8.3c-1.1,2.7-2,5.2-2.9,7.2c-0.8,2.1-1.4,3.8-2,4.9
		c-0.2,0.6-0.5,1-0.6,1.3c-0.1,0.2-0.2,0.3-0.3,0.4c0.2-0.6,0.4-1.2,0.7-1.8c0.5-1.1,1.1-2.8,1.8-4.9c0.8-2.1,1.6-4.6,2.8-7.3
		c1.2-3,2.7-5.8,4.6-8.4c1-1.3,2.3-2.5,3.6-3.4c1.3-1,2.6-1.8,3.8-2.6c2.2-1.3,4.6-2.5,7-3.5c2-0.9,3.7-1.5,4.9-1.9l1.3-0.5
		C-943.3,1372.9-943.1,1372.8-942.9,1372.8z"/>
	<path class="st4" d="M-899.7,1417.4c-0.6-0.2-1.1-0.4-1.7-0.7l-4.4-2c-3.7-1.7-8.8-4-14.5-6.7l-4.3-2l-0.2-0.1v-0.2
		c1.1-5,2.1-9.3,2.9-12.4c0.4-1.5,0.7-2.8,1-3.6c0.1-0.4,0.2-0.9,0.4-1.3c0,0.4-0.1,0.9-0.2,1.3c-0.2,0.9-0.5,2.2-0.8,3.6
		c-0.7,3.2-1.6,7.5-2.7,12.4l-0.1-0.3l4.3,2c5.7,2.6,10.8,5,14.4,6.8l4.3,2.1C-900.7,1416.7-900.2,1417-899.7,1417.4z"/>
	<path class="st4" d="M-900.7,1375.2c0,0.1-0.9-0.1-2.3-0.1c-1.9,0-3.7,0.4-5.5,1c-1.8,0.6-3.4,1.5-4.9,2.7
		c-1.1,0.9-1.7,1.6-1.8,1.5c0.4-0.7,0.9-1.3,1.6-1.8c2.9-2.6,6.8-4,10.7-3.8C-902.3,1374.7-901.5,1374.9-900.7,1375.2z"/>
	<path class="st0" d="M-990.1,1438.5c0,0.1-8-2-17.8-4.9c-9.8-2.9-17.7-5.2-17.7-5.3c0-0.1,8,2,17.9,4.8
		C-998,1436-990.1,1438.3-990.1,1438.5z"/>
	<path class="st0" d="M-1145.8,1495.5l0.4,0.2l1,0.6l4,2.3l14.6,8.6h-0.2c9.6-10.7,22.9-25.6,37.2-42.4c5.3-6.3,10.3-12.4,14.7-18.2
		l0.1-0.2l0.2,0.1c7.6,3.1,14.4,6.4,20.5,9.4s11.4,5.7,15.9,7.9c4.5,2.2,8.1,3.8,10.6,4.9l2.9,1.2l0.7,0.3l0.2,0.1l-0.3-0.1
		l-0.7-0.3c-0.7-0.3-1.6-0.6-2.9-1.2c-2.5-1-6.1-2.6-10.7-4.8s-9.9-4.8-16-7.8s-12.9-6.3-20.5-9.3l0.3-0.1
		c-4.4,5.8-9.4,11.9-14.7,18.2c-14.3,16.8-27.7,31.7-37.3,42.3l-0.1,0.1l-0.1-0.1l-14.5-8.8l-3.9-2.4l-1-0.6
		C-1145.6,1495.6-1145.7,1495.5-1145.8,1495.5z"/>
	<path class="st0" d="M-1074,1446.9c-0.5-1.3-0.9-2.6-1.2-3.9c-0.5-1.3-0.9-2.6-1.1-3.9c0.8,1.1,1.3,2.4,1.6,3.8
		C-1074.2,1444.1-1074,1445.5-1074,1446.9z"/>
	<path class="st3" d="M-950.8,1392.5c-0.8,0.2-1.6,0.3-2.4,0.3c-3.9,0.1-7.7-1.2-10.8-3.7c-0.7-0.5-1.2-1-1.7-1.7
		c2.1,1.7,4.4,3.1,6.9,4C-956.2,1392.2-953.5,1392.6-950.8,1392.5z"/>
	<path class="st3" d="M-923.2,1395.3c0,0.1-1.5-0.5-3.9-1.2c-3.2-0.9-6.4-1.4-9.7-1.5c-3.3-0.1-6.6,0.1-9.8,0.7
		c-2.5,0.5-4,0.9-4,0.8c0.3-0.2,0.7-0.3,1-0.4c1-0.3,1.9-0.6,2.9-0.8c6.5-1.5,13.3-1.2,19.8,0.8c1,0.3,1.9,0.6,2.8,1
		C-923.9,1394.9-923.5,1395.1-923.2,1395.3z"/>
	<path class="st3" d="M-895.9,1394.4c0,0.1-5.8-0.3-12.8-1.1s-12.8-1.4-12.8-1.6c0-0.1,5.8,0.3,12.8,1.1S-895.9,1394.3-895.9,1394.4
		z"/>
	<path class="st3" d="M-956.2,1378.9c-0.5-1-0.9-2.1-1.1-3.2c-0.4-1.1-0.6-2.2-0.6-3.4C-957,1374.4-956.4,1376.6-956.2,1378.9z"/>
	<path class="st8" d="M-933.1,1426.1c0.3,0.3,0.6,0.8,0.6,1.3c0.2,1.3-0.2,2.6-1.1,3.5l0.1-0.3c0.5,1.1,0.1,2.4-1,3
		c-0.5,0.2-1.1,0.4-1.7,0.4c-0.5,0-1,0-1.5,0c-0.9,0-1.7-0.1-2.6-0.2c-0.8,0-1.6-0.2-2.3-0.5c0.8,0,1.6,0.1,2.3,0.2
		c0.7,0,1.6,0.1,2.5,0c1,0.1,2-0.1,2.9-0.4c0.8-0.4,1.2-1.4,0.8-2.3l-0.1-0.2l0.1-0.1c0.8-0.8,1.2-1.9,1.1-3.1
		C-932.8,1426.9-932.9,1426.5-933.1,1426.1z"/>
	<path class="st0" d="M-874.4,1337.2c-0.1,0.4-0.3,0.8-0.5,1.1c-0.6,1-1.3,1.9-2.1,2.6c-1.2,1.2-2.7,2.1-4.2,2.8
		c-1.9,0.8-4,1.2-6.1,1.1c-2.1-0.1-4.1-0.8-5.9-1.8c-1.5-0.8-2.8-1.9-3.9-3.2c-0.7-0.9-1.3-1.8-1.8-2.9c-0.2-0.4-0.3-0.8-0.4-1.2
		c0.7,1.4,1.5,2.6,2.5,3.8c1.1,1.2,2.4,2.3,3.8,3.1c3.5,2,7.8,2.3,11.6,0.7c1.5-0.6,2.9-1.5,4.2-2.6
		C-876.2,1339.6-875.2,1338.4-874.4,1337.2z"/>
	<path class="st0" d="M-874.2,1338.3c0,0,0,0.1,0.1,0.4c0.1,0.4,0.1,0.8,0.1,1.2c-0.1,1.5-0.4,3-1.1,4.4c-1,2-2.3,3.9-3.8,5.6
		c-1.7,1.9-3.8,3.8-5.6,6s-3.4,4.5-5.2,6.4c-1.5,1.7-3.5,3-5.6,3.8c-1.4,0.5-3,0.7-4.5,0.5c-0.4-0.1-0.8-0.2-1.2-0.3
		c-0.1,0-0.3-0.1-0.4-0.2c0-0.1,0.6,0.2,1.6,0.3c1.5,0.2,3-0.1,4.4-0.6c2.1-0.8,3.9-2.1,5.4-3.8c1.7-1.8,3.3-4.1,5.2-6.4
		s4-4.2,5.6-6c1.5-1.6,2.8-3.4,3.8-5.4c0.7-1.3,1.1-2.8,1.2-4.3C-874.2,1338.9-874.2,1338.3-874.2,1338.3z"/>
	<path class="st0" d="M-858.2,1295c0,0-0.6,0.2-1.6,0.6c-1.4,0.6-2.8,1.5-3.9,2.6c-1.7,1.6-2.9,3.7-3.5,5.9
		c-0.7,2.5-0.2,5.5,0.1,8.5c0.3,2.9,0,5.9-1,8.6c-0.8,2.2-2,4.3-3.6,6.1c-1,1.2-2.2,2.3-3.5,3.2c-0.4,0.2-0.7,0.5-1.1,0.7
		c-0.1,0.1-0.3,0.2-0.4,0.2c0,0,0.5-0.4,1.4-1c1.3-0.9,2.4-2,3.4-3.2c1.5-1.8,2.6-3.9,3.4-6.1c0.9-2.7,1.2-5.6,0.9-8.4
		c-0.3-3-0.7-6,0-8.7c0.6-2.3,1.9-4.4,3.7-6c1.2-1.1,2.6-1.9,4.1-2.5c0.4-0.1,0.8-0.3,1.2-0.3C-858.5,1295.1-858.4,1295-858.2,1295z
		"/>
	<path class="st0" d="M-836.4,1303.3c0,0-0.8-0.3-2.1-0.8c-2-0.7-4.1-1-6.1-1c-3.1,0-6.1,0.9-8.8,2.5c-5,3.1-8.1,8.4-8.3,14.2
		c-0.1,1.9-0.1,3.8-0.3,5.5c-0.2,1.7-0.6,3.3-1.4,4.8c-0.7,1.3-1.6,2.5-2.7,3.5c-1.5,1.5-3.4,2.5-5.5,3.1c-0.6,0.2-1.1,0.3-1.7,0.3
		c-0.2,0-0.4,0-0.6,0c0-0.1,0.8-0.1,2.2-0.6c2-0.6,3.8-1.7,5.3-3.2c2.2-2.1,3.6-5,3.8-8.1c0.2-1.7,0.2-3.6,0.3-5.5
		c0.2-6,3.5-11.5,8.6-14.6c4.6-2.7,10.2-3.2,15.2-1.3c0.5,0.2,1.1,0.5,1.6,0.7C-836.7,1303.1-836.5,1303.2-836.4,1303.3z"/>
</g>
<g id="freepik--Floor--inject-548">
	<path class="st4" d="M249.9,1959.9c0,0.1-148,0.3-330.4,0.3s-330.5-0.1-330.5-0.3s147.9-0.3,330.5-0.3S249.9,1959.8,249.9,1959.9z"
		/>
</g>
<g id="freepik--Device--inject-548">
	<path class="st0" d="M79.4,1886.1l-104.3,11.4c-8.4,0.9-15.9-5.1-16.9-13.5c0,0,0,0,0,0l-25.7-234.8c-1-9.6,5.9-18.2,15.4-19.2
		l102.3-11.2c8.5-0.9,16.1,5.2,17,13.7l25.9,236.4C94.2,1877.5,88,1885.2,79.4,1886.1z"/>
	<path class="st4" d="M65.3,1633.6L91,1868.3c0.9,7.9-4.8,14.9-12.7,15.8L-24,1895.3c-7.9,0.9-14.9-4.8-15.8-12.7l-25.7-234.7
		c-0.9-7.9,4.8-14.9,12.7-15.8L49.5,1621C57.4,1620.1,64.4,1625.8,65.3,1633.6z"/>
	<path class="st0" d="M-10.4,1636.1c-0.8,0.1-1.6-0.6-1.6-1.4c-0.1-0.8,0.5-1.5,1.3-1.6l19.3-2.1c0.8-0.1,1.6,0.6,1.6,1.4
		c0.1,0.8-0.5,1.5-1.3,1.6L-10.4,1636.1z"/>
	<path class="st0" d="M-20.7,1637.2c-0.8,0.1-1.6-0.5-1.7-1.3c-0.1-0.8,0.5-1.6,1.3-1.7c0.8-0.1,1.6,0.5,1.7,1.3c0,0,0,0,0,0
		C-19.3,1636.4-19.9,1637.1-20.7,1637.2z"/>
	<path class="st0" d="M-15.2,1636.6c-0.8,0.1-1.6-0.5-1.7-1.3c-0.1-0.8,0.5-1.6,1.3-1.7c0,0,0.1,0,0.1,0c0.8-0.1,1.6,0.5,1.7,1.3
		c0,0,0,0,0,0C-13.8,1635.8-14.4,1636.5-15.2,1636.6z"/>
	<path class="st0" d="M19.4,1632.8c-0.8,0.1-1.6-0.5-1.7-1.3c-0.1-0.8,0.5-1.6,1.3-1.7c0.8-0.1,1.6,0.5,1.7,1.3
		C20.8,1632,20.2,1632.7,19.4,1632.8z"/>
	<path class="st0" d="M13.8,1633.4c-0.8,0.1-1.6-0.5-1.7-1.3c-0.1-0.8,0.5-1.6,1.3-1.7c0.8-0.1,1.6,0.5,1.7,1.3
		C15.3,1632.6,14.7,1633.3,13.8,1633.4C13.8,1633.4,13.8,1633.4,13.8,1633.4z"/>
	<path class="st9" d="M46.4,1623.2l-18.2,2c-1.8,0.2-3.2,1.5-3.5,3.3l-0.9,5.3c-0.3,2-1.9,3.4-3.9,3.7l-40.3,4.4
		c-2,0.2-3.8-0.9-4.6-2.7l-2-5c-0.7-1.6-2.4-2.6-4.1-2.4l-18.2,2c-8,0.9-13.8,8.1-12.9,16.1l25,228.8c0.9,8,8,13.8,16,12.9
		c0,0,0,0,0,0l95.7-10.5c8-0.9,13.8-8.1,12.9-16.1c0,0,0,0,0,0l-25-228.8C61.6,1628,54.4,1622.3,46.4,1623.2
		C46.4,1623.2,46.4,1623.2,46.4,1623.2z"/>
	<path class="st3" d="M57.2,1626.3c-3-2.5-6.9-3.6-10.8-3.2l-18.2,2c-1.8,0.2-3.2,1.5-3.5,3.3l-0.9,5.3c-0.3,2-1.9,3.4-3.9,3.7
		l-40.3,4.4c-2,0.2-3.8-0.9-4.6-2.7l-2-5c-0.7-1.6-2.4-2.6-4.1-2.4l-18.2,2c-8,0.9-13.8,8.1-12.9,16.1l18,164h0.4
		c12.3,0,23.3-9,28.8-19.9s6.5-23.7,6.4-36s-1.4-24.7,0.2-36.8c2.7-20.7,13.2-39.6,29.2-52.9c7.9-6.4,16.9-11.4,24.3-18.4
		C51.7,1643.5,57,1635.1,57.2,1626.3z"/>
	<path class="st3" d="M87.5,1864.9l-7.2-66.2c-33.2,7.1-54.4,39.7-47.4,72.9c1,4.6,2.5,9.1,4.5,13.4l37.2-4.1
		C82.6,1880.1,88.4,1872.9,87.5,1864.9C87.6,1864.9,87.5,1864.9,87.5,1864.9z"/>
	<path class="st0" d="M72,1675.2L72,1675.2c0.5-0.1,0.9,0.3,1,0.8c0,0,0,0,0,0l3.2,29c0.1,0.5-0.3,0.9-0.8,1c0,0,0,0,0,0l0,0
		L72,1675.2z"/>
	<path class="st0" d="M-60.9,1708.9L-60.9,1708.9c-0.5,0.1-0.9,0.5-0.8,1l1.9,17.6c0.1,0.5,0.5,0.9,1,0.8l0,0L-60.9,1708.9z"/>
	<path class="st0" d="M-63.7,1683.5L-63.7,1683.5c-0.5,0.1-0.9,0.5-0.8,1l1.9,17.6c0.1,0.5,0.5,0.9,1,0.8l0,0L-63.7,1683.5z"/>
	<path class="st0" d="M-65.8,1664.4L-65.8,1664.4c-0.4,0-0.7,0.4-0.7,0.9c0,0,0,0,0,0l0.8,7.5c0.1,0.4,0.4,0.7,0.9,0.7l0,0
		L-65.8,1664.4z"/>
	
		<rect x="31.7" y="1633.5" transform="matrix(0.9941 -0.1087 0.1087 0.9941 -177.4368 13.1759)" class="st3" width="0.9" height="1.3"/>
	
		<rect x="33.2" y="1632.8" transform="matrix(0.9941 -0.1089 0.1089 0.9941 -177.6592 13.3708)" class="st3" width="0.9" height="1.9"/>
	
		<rect x="34.6" y="1632.2" transform="matrix(0.9941 -0.1087 0.1087 0.9941 -177.3305 13.4931)" class="st3" width="0.9" height="2.3"/>
	
		<rect x="36.1" y="1631.2" transform="matrix(0.9941 -0.1087 0.1087 0.9941 -177.2571 13.6479)" class="st3" width="0.9" height="3.2"/>
	<path class="st3" d="M50.9,1632.9l-4.6,0.5c-0.2,0-0.3-0.1-0.4-0.3l-0.3-2.3c0-0.2,0.1-0.3,0.3-0.4l4.7-0.5c0,0,0,0,0.1,0
		c0,0,0,0,0,0.1l0.1,0.8h0.5c0,0,0.1,0,0.1,0.1c0,0,0,0,0,0l0.1,1.1c0,0,0,0.1-0.1,0.1c0,0,0,0,0,0h-0.5l0.1,0.8
		C51,1632.8,50.9,1632.8,50.9,1632.9z M50.5,1630.1l-4.6,0.5c-0.1,0-0.2,0.1-0.1,0.2c0,0,0,0,0,0l0.2,2.3c0,0.1,0.1,0.2,0.2,0.2
		l4.6-0.5l-0.1-0.8c0,0,0-0.1,0-0.1c0,0,0,0,0,0l0.5-0.1l-0.1-0.9l-0.5,0.1c0,0-0.1,0-0.1-0.1c0,0,0,0,0,0L50.5,1630.1z"/>
	<polygon class="st3" points="46.4,1632.8 46.2,1630.9 50.2,1630.5 50.3,1631.3 50.3,1631.5 50.4,1632.4 	"/>
	<path class="st3" d="M41.6,1633.7c0-0.2-0.2-0.3-0.4-0.3c0,0,0,0,0,0c-0.2,0-0.3,0.2-0.3,0.4c0,0.2,0.2,0.3,0.4,0.3l0,0
		C41.5,1634,41.7,1633.9,41.6,1633.7C41.6,1633.7,41.6,1633.7,41.6,1633.7z"/>
	<path class="st3" d="M40,1633l0.5,0.4c0.2-0.2,0.4-0.3,0.7-0.4c0.3,0,0.5,0,0.8,0.2l0.4-0.5C41.7,1632.2,40.6,1632.3,40,1633
		C40,1633,40,1633,40,1633L40,1633z"/>
	<path class="st3" d="M41,1631.5c-0.7,0.1-1.3,0.4-1.8,1l0.5,0.4c0.3-0.4,0.8-0.7,1.4-0.7c0.5-0.1,1.1,0.1,1.5,0.4l0.4-0.5
		C42.4,1631.6,41.7,1631.4,41,1631.5z"/>
	<path class="st3" d="M38.5,1631.8l0.5,0.4c0.5-0.6,1.2-1,2-1.1c0.8-0.1,1.6,0.1,2.2,0.7l0.4-0.5C42,1630,39.8,1630.2,38.5,1631.8
		C38.5,1631.8,38.5,1631.8,38.5,1631.8L38.5,1631.8z"/>
	<circle class="st10" cx="39.7" cy="1746.9" r="16.6"/>
</g>
<path class="st10" d="M52.3,727.4l-2.4,0.7c-20,5.8-35.4,21.8-39.5,42.1c-0.5,2.6-0.9,5.2-1,7.9c-1,19.1,8.4,38.5,24.2,49.7
	c9.3,6.6,20.8,10.9,27,20.3c8.1,12.3,4.1,28.5-0.2,42.5s-8.2,30.2,0,42.5c5.1,7.7,14.1,12.1,23.2,14.1c24,5.1,49.7-5.7,65.8-23.9
	c16.2-18.2,23.8-42.6,25.3-66.9c2.2-33.9-7.4-69.3-30-95.2S86,720.7,52.3,727.4z"/>
<path class="st4" d="M111.7,866.5c0,0,0-0.2,0.1-0.5s0.2-0.8,0.3-1.4c0.3-1.2,0.7-3,1.2-5.2c1-4.5,2.5-11.1,4.3-19.1
	c3.7-16.2,8.8-38.5,14.5-63.3l0.2-1.1l0.2,1.1c0.1,0.4,0.2,0.9,0.3,1.4c5.7,25.1,10.8,47.8,14.5,64.3c1.8,8.2,3.3,14.9,4.3,19.5
	l1.2,5.3l0.3,1.4c0.1,0.3,0.1,0.5,0.1,0.5s0-0.1-0.1-0.5c-0.1-0.3-0.2-0.8-0.3-1.4c-0.3-1.2-0.7-3-1.2-5.3
	c-1.1-4.6-2.6-11.3-4.5-19.5l-14.6-64.3c-0.1-0.5-0.2-1-0.3-1.4h0.5c-5.7,24.7-10.9,47.1-14.7,63.2c-1.9,8-3.4,14.6-4.5,19.1
	l-1.3,5.2c-0.1,0.6-0.3,1-0.3,1.3C111.8,866.4,111.7,866.5,111.7,866.5z"/>
<path class="st0" d="M111.7,885.3v-15.9h42.4v15.9c0,10.2-8.3,18.5-18.5,18.5h-5.4C120,903.7,111.7,895.5,111.7,885.3z"/>
<path class="st4" d="M111.7,869.4c0.2,0.2,0.3,0.4,0.5,0.7l1.3,2c1.1,1.8,2.7,4.2,4.7,7.3l15.3,24.1l0.1,0.2h-0.4l14.8-24.3l4.5-7.3
	c0.5-0.8,0.9-1.5,1.3-2c0.1-0.2,0.3-0.5,0.5-0.7c-0.1,0.3-0.2,0.5-0.4,0.7c-0.3,0.5-0.7,1.2-1.2,2l-4.4,7.4l-14.7,24.4l-0.2,0.4
	l-0.2-0.4l-0.1-0.2l-15.1-24.2l-4.5-7.4l-1.2-2C112,869.9,111.8,869.6,111.7,869.4z"/>
<path class="st4" d="M137.1,776.9c0,2.6-2.1,4.6-4.6,4.6s-4.6-2.1-4.6-4.6s2.1-4.6,4.6-4.6S137.1,774.3,137.1,776.9L137.1,776.9z"/>
<path class="st4" d="M132.5,719.2c0.2,0,0.3,13.1,0.3,29.3s-0.1,29.2-0.3,29.2s-0.3-13.1-0.3-29.3S132.3,719.2,132.5,719.2z"/>
<path class="st4" d="M134.9,905.5c0,1.1-0.9,2-2,2s-2-0.9-2-2c0-1.1,0.9-2,2-2S134.9,904.4,134.9,905.5z"/>
<path class="st4" d="M132,906.2l0.3-0.2c-1.1,0.7-1.9,1.9-2,3.3c-0.1,1.3,0,2.7,0.3,3.9c0.1,0.4,0.3,0.9,0.7,0.9
	c0.4,0,0.6-0.5,0.6-0.9c0.1-0.8,0.2-1.6,0.1-2.4c0,1,0.3,2,0.9,2.8c0.1,0.1,0.3,0.3,0.5,0.3c0.2,0,0.3-0.2,0.3-0.4
	c0.2-0.7,0.3-1.3,0.3-2c0,0.6,0.3,1.2,0.6,1.7c0.4,0.5,1.1,0.5,1.5,0.1c0,0,0,0,0,0c0.2-0.3,0.3-0.8,0.2-1.2
	c-0.3-2.4-1.3-4.6-2.8-6.5"/>
<path class="st5" d="M114.4,869.4c0,0-19-22-16.9-22.7c2.1-0.8,19,11.4,19,11.4s-14.5-32.5-11.6-34.9s18.3,28.8,18.3,28.8
	s-2.4-45.5,0-46c2.4-0.5,11.1,45.5,11.1,45.5s13-42.1,16.7-42.1s-4,40.5-4,40.5s15.3-25.9,17.7-22.5s-10.8,31.5-10.8,31.5
	s19.3-16.1,20.1-14s-20.9,24.6-20.9,24.6L114.4,869.4z"/>
<path class="st4" d="M111.7,836.3c0.1-0.1,3.5,7.2,7.5,16.2s7.2,16.3,7.1,16.4s-3.5-7.2-7.5-16.2S111.6,836.4,111.7,836.3z"/>
<path class="st4" d="M127.1,840.4c0.2,0,0.7,6.4,1.3,14.2c0.5,7.9,0.9,14.3,0.7,14.3c-0.1,0-0.7-6.4-1.3-14.2
	C127.3,846.8,127,840.4,127.1,840.4z"/>
<path class="st4" d="M148.3,820c0,0.2,0,0.4-0.1,0.5l-0.4,1.4c-0.4,1.3-0.9,3.1-1.6,5.3c-1.3,4.5-3.2,10.7-5,17.5
	s-3.4,13.2-4.4,17.7c-0.5,2.2-1,4-1.3,5.4c-0.1,0.6-0.3,1.1-0.4,1.5c0,0.2-0.1,0.3-0.2,0.5c0-0.2,0-0.4,0.1-0.5
	c0.1-0.4,0.2-0.9,0.3-1.5c0.2-1.3,0.6-3.1,1.1-5.4c1-4.6,2.4-10.9,4.3-17.8c1.8-6.9,3.7-13.1,5.1-17.5c0.7-2.2,1.3-4,1.8-5.2
	c0.2-0.6,0.4-1,0.5-1.4C148.2,820.3,148.2,820.1,148.3,820z"/>
<path class="st4" d="M157.5,843.4c0.1,0.1-3.6,5.6-8.3,12.4s-8.6,12.2-8.7,12.1c-0.1-0.1,3.6-5.6,8.3-12.4S157.4,843.4,157.5,843.4z
	"/>
<path class="st4" d="M120.8,868.9c-0.6-0.3-1.2-0.7-1.7-1.2c-1.3-1.1-2.5-2.2-3.6-3.3c-1.1-1.2-2.2-2.4-3.2-3.7
	c-0.5-0.5-0.8-1.1-1.2-1.7c0.1-0.1,2.1,2.3,4.8,5C118.6,866.7,120.9,868.8,120.8,868.9z"/>
<path class="st4" d="M132.4,860.2c0.4,1.5,0.6,3,0.7,4.5c0.2,1.5,0.3,3.1,0.2,4.6c-0.4-1.5-0.6-3-0.7-4.5
	C132.3,863.3,132.3,861.7,132.4,860.2z"/>
<path class="st3" d="M154.1,879.3c-0.5,0.2-1.1,0.3-1.6,0.3c-1,0.2-2.6,0.4-4.5,0.7c-5,0.7-10,1.1-15,1.3c-5,0.2-10,0-15-0.6
	c-1.9-0.2-3.5-0.5-4.5-0.7c-0.6-0.1-1.1-0.2-1.6-0.4c0.6,0,1.1,0.1,1.7,0.2c1.1,0.2,2.6,0.4,4.5,0.6c5,0.5,10,0.7,15,0.5
	c5.8-0.2,11.1-0.7,15-1.2l4.5-0.5C153,879.3,153.6,879.3,154.1,879.3z"/>
<path class="st3" d="M154.1,884c-0.5,0.2-1.1,0.3-1.6,0.3c-1,0.2-2.6,0.4-4.5,0.7c-5,0.7-10,1.1-15,1.3c-5,0.2-10,0-15-0.6
	c-1.9-0.2-3.5-0.5-4.5-0.7c-0.6-0.1-1.1-0.2-1.6-0.4c0.6,0,1.1,0.1,1.7,0.2c1.1,0.2,2.6,0.4,4.5,0.6c5,0.5,10,0.7,15,0.5
	c5.8-0.2,11.1-0.7,15-1.2l4.5-0.5C153,884.1,153.6,884,154.1,884z"/>
<g id="freepik--Floor--inject-548_00000120541521860717156970000002575907985665100466_">
	<path class="st4" d="M1292.5,2038c0,0.2-148,0.3-330.4,0.3s-330.5-0.1-330.5-0.3s147.9-0.3,330.5-0.3S1292.5,2037.9,1292.5,2038z"
		/>
</g>
<g id="freepik--landing-page--inject-548_00000159467076518573475520000015298939567149554108_">
	<path class="st3" d="M691.8,1622.3h532.7c6.6,0,12,5.4,12,12v356.2c0,6.6-5.4,12-12,12H691.8c-6.6,0-12-5.4-12-12v-356.2
		C679.8,1627.7,685.2,1622.3,691.8,1622.3z"/>
	<path class="st10" d="M1113.8,1818.7c1.3-2.1,2.8-3.9,4.6-5.6l-1.8-6.5l9.8-5.2l4.4,5.1c2.4-0.6,4.8-0.8,7.2-0.7l3.3-5.8l10.6,3.2
		l-0.5,6.7c2.1,1.3,3.9,2.8,5.6,4.6l6.5-1.8l5.2,9.8l-5.1,4.4c0.6,2.4,0.8,4.8,0.7,7.2l5.8,3.3l-3.2,10.6l-6.7-0.5
		c-1.3,2.1-2.8,3.9-4.6,5.6l1.8,6.5l-9.8,5.2l-4.4-5.1c-2.4,0.6-4.8,0.8-7.2,0.7l-3.3,5.8l-10.6-3.2l0.5-6.7
		c-2.1-1.3-3.9-2.8-5.6-4.6l-6.5,1.8l-5.2-9.8l5.1-4.4c-0.6-2.4-0.8-4.8-0.7-7.2l-5.8-3.3l3.2-10.6L1113.8,1818.7L1113.8,1818.7z
		 M1122.7,1828.8c-2.4,7.9,2.1,16.3,10,18.7c7.9,2.4,16.3-2.1,18.7-10c2.4-7.9-2.1-16.3-10-18.7c0,0,0,0,0,0
		C1133.5,1816.4,1125.2,1820.8,1122.7,1828.8L1122.7,1828.8z"/>
	<path class="st10" d="M999.1,1695.6c1.2-2,2.7-3.8,4.4-5.4l-1.7-6.2l9.5-5l4.2,4.9c2.3-0.5,4.6-0.8,7-0.7l3.2-5.6l10.3,3.1
		l-0.5,6.5c2,1.2,3.8,2.7,5.4,4.4l6.2-1.7l5.1,9.5l-4.9,4.2c0.5,2.3,0.8,4.6,0.7,7l5.6,3.2l-3.1,10.2l-6.5-0.5
		c-1.2,2-2.7,3.8-4.4,5.4l1.7,6.2l-9.4,5l-4.2-4.9c-2.3,0.5-4.6,0.8-7,0.7l-3.2,5.6l-10.3-3.1l0.5-6.5c-2-1.2-3.8-2.7-5.4-4.4
		l-6.2,1.7l-5-9.5l4.9-4.2c-0.5-2.3-0.8-4.6-0.7-7l-5.6-3.2l3.1-10.2L999.1,1695.6L999.1,1695.6z M1007.7,1705.3
		c-2.3,7.6,2,15.7,9.6,18c7.6,2.3,15.7-2,18-9.6c2.3-7.6-2-15.7-9.6-18C1018.1,1693.4,1010.1,1697.7,1007.7,1705.3L1007.7,1705.3z"
		/>
	<path class="st10" d="M954.2,1783.8c0.8-1.2,1.7-2.4,2.8-3.4l-1.1-3.9l5.9-3.1l2.6,3.1c1.4-0.3,2.9-0.5,4.3-0.4l2-3.5l6.4,2l-0.3,4
		c1.2,0.8,2.4,1.7,3.4,2.8l3.9-1.1l3.1,5.9l-3.1,2.6c0.3,1.4,0.5,2.9,0.4,4.3l3.5,2l-2,6.4l-4-0.3c-0.8,1.2-1.7,2.4-2.8,3.4l1.1,3.9
		l-5.9,3.1l-2.6-3.1c-1.4,0.3-2.9,0.5-4.3,0.4l-2,3.5l-6.4-1.9l0.3-4c-1.2-0.8-2.4-1.7-3.3-2.8l-3.9,1l-3.1-5.9l3-2.6
		c-0.3-1.4-0.5-2.9-0.4-4.3l-3.5-2l2-6.4L954.2,1783.8L954.2,1783.8z M959.5,1789.8c-1.4,4.8,1.2,9.8,6,11.2s9.8-1.2,11.2-6
		c1.4-4.8-1.2-9.8-6-11.2C966,1782.3,961,1785,959.5,1789.8C959.5,1789.8,959.5,1789.8,959.5,1789.8L959.5,1789.8z"/>
	<path class="st10" d="M1048.7,1960.6c0.8-1.2,1.7-2.4,2.8-3.4l-1.1-3.9l5.9-3.1l2.6,3.1c1.4-0.3,2.9-0.5,4.3-0.4l2-3.5l6.4,2
		l-0.3,4c1.2,0.8,2.4,1.7,3.4,2.8l3.9-1.1l3.1,5.9l-3.1,2.6c0.3,1.4,0.5,2.9,0.4,4.3l3.5,2l-1.9,6.4l-4-0.3
		c-0.8,1.2-1.7,2.4-2.8,3.4l1.1,3.9l-5.9,3.2l-2.6-3.1c-1.4,0.3-2.9,0.5-4.4,0.4l-2,3.5l-6.4-1.9l0.3-4c-1.2-0.8-2.4-1.7-3.4-2.8
		l-3.9,1.1l-3.1-5.9l3.1-2.6c-0.3-1.4-0.5-2.9-0.4-4.3l-3.5-2l2-6.4L1048.7,1960.6L1048.7,1960.6z M1054.1,1966.7
		c-1.4,4.8,1.2,9.8,6,11.2c4.8,1.4,9.8-1.2,11.2-6c1.4-4.8-1.2-9.8-6-11.2C1060.6,1959.2,1055.6,1961.9,1054.1,1966.7
		C1054.1,1966.7,1054.1,1966.7,1054.1,1966.7z"/>
	
		<rect x="899.2" y="1804.6" transform="matrix(0.3313 -0.9435 0.9435 0.3313 -1116.9218 2109.1868)" class="st3" width="60.8" height="76"/>
	<path class="st4" d="M975.6,1826.5c-0.1,0-0.2-0.1-0.3-0.1l-1-0.3l-3.9-1.4l-14.7-5.1l-51.8-18.1l0.2-0.1l-20.1,57.4l0,0l-0.1-0.3
		l71.8,25.2l-0.2,0.1c6.1-17.3,11.2-31.6,14.7-41.6l4.2-11.6c0.5-1.3,0.8-2.4,1.1-3.1C975.5,1826.9,975.6,1826.5,975.6,1826.5
		c0,0-0.1,0.3-0.3,1l-1,3l-4,11.6c-3.5,10.1-8.5,24.4-14.6,41.8l-0.1,0.2l-0.2-0.1l-71.8-25.2l-0.2-0.1l0.1-0.2l0,0
		c7.3-20.7,14.2-40.3,20.2-57.4l0.1-0.2l0.2,0.1l51.9,18.3l14.6,5.3l3.8,1.4l1,0.4L975.6,1826.5z"/>
	
		<rect x="903" y="1807.2" transform="matrix(0.3313 -0.9435 0.9435 0.3313 -1116.9318 2109.1311)" class="st5" width="53.1" height="70.7"/>
	<g class="st11">
		<polygon points="887.4,1855.9 921.6,1832.9 929.2,1857.5 942.7,1850.5 954.1,1879.4 		"/>
	</g>
	<g class="st11">
		<path d="M943.5,1836.4c-1,2.9-4.2,4.4-7.1,3.4c-2.9-1-4.4-4.2-3.4-7.1s4.2-4.4,7.1-3.4c0,0,0,0,0,0
			C943,1830.3,944.6,1833.4,943.5,1836.4z"/>
	</g>
	<path class="st0" d="M1194.8,1935.6c0.8,0,1.5-0.3,2.2-0.7c0.8-0.5,1.3-1.3,1.5-2.2c0.1-0.6,0.2-1.2,0.2-1.8c0-0.7,0-1.3,0-2.1
		c0.1-5.9,0.2-14.2,0.4-24.6c0.1-2.6,0.1-5.3,0.2-8.2c0-1.4,0.1-2.9,0.1-4.3c0.1-0.7,0.1-1.4,0-2.2c-0.1-0.7-0.5-1.3-0.9-1.8
		c-0.5-0.5-1.1-0.9-1.8-1c-0.8-0.1-1.5-0.1-2.3-0.1h-4.8l-10-0.1l-44.7-0.3c-1.9,0-3.4,1.5-3.6,3.3c0,2-0.1,3.9-0.2,5.8
		c-0.1,3.9-0.2,7.7-0.3,11.4c-0.2,7.5-0.3,14.7-0.5,21.6l-0.1,2.6c-0.1,0.8,0.1,1.6,0.5,2.2c0.4,0.7,1,1.2,1.7,1.4
		c0.7,0.2,1.5,0.3,2.3,0.2l9.5,0.1l17,0.2l24.6,0.3l6.7,0.1l1.7,0.1L1194.8,1935.6c-0.1,0-0.3,0-0.5,0h-1.7h-6.7l-24.6-0.1l-17-0.1
		l-9.5-0.1c-0.9,0.1-1.7,0-2.5-0.3c-0.8-0.3-1.5-0.9-2-1.7c-0.5-0.8-0.7-1.7-0.6-2.6l0.1-2.6c0.1-6.9,0.3-14.1,0.5-21.6
		c0.1-3.7,0.2-7.5,0.2-11.4c0-1.9,0.1-3.9,0.2-5.9c0.2-2.2,2.1-4,4.3-4l44.7,0.4l10,0.1h4.8c0.8,0,1.6,0,2.4,0.1
		c0.8,0.2,1.6,0.6,2.2,1.2c0.6,0.6,0.9,1.4,1.1,2.2c0.1,0.8,0.1,1.5,0,2.3c0,1.5-0.1,2.9-0.1,4.3c-0.1,2.8-0.1,5.6-0.2,8.2
		c-0.3,10.4-0.5,18.8-0.7,24.6c0,0.7,0,1.4-0.1,2.1c0,0.6,0,1.2-0.2,1.8c-0.3,0.9-0.9,1.7-1.7,2.3c-0.5,0.3-1.1,0.5-1.6,0.6
		C1195.2,1935.5,1195,1935.6,1194.8,1935.6z"/>
	<polygon class="st0" points="1167.4,1906.5 1175.6,1911.6 1167.1,1916.5 1158.6,1921.4 1158.9,1911.4 1159.1,1901.4 	"/>
	<path class="st5" d="M1126.2,1719.7c0.1,0,0.1,0,0.2,0l0.6,0.2l2.3,0.6l8.5,2.3l-0.1,0.1c0.4-1.5,0.8-3.1,1.2-4.9v-0.1h0.1
		c3-0.5,6-1.5,8.7-2.9c1.5-0.8,2.9-1.9,4.1-3.1c1.3-1.3,2.4-2.8,3.1-4.5c1.5-3.7,1.7-7.8,0.4-11.6c-1.3-4.1-3.9-7.6-7.4-10.2
		c-2.6-1.9-5.7-3-8.9-3.2c-3-0.3-6.1,0.2-8.9,1.4c-2.6,1.2-4.9,3-6.6,5.2c-0.4,0.6-0.8,1.1-1.2,1.7l-1,1.7c-0.6,1.1-1,2.3-1.3,3.6
		c-0.3,1.2-0.5,2.4-0.5,3.6c0,1.1,0.1,2.3,0.3,3.4c0.4,2,1.1,3.9,2.1,5.7c1.5,2.6,3.4,4.9,5.7,6.8l0,0l0,0c-0.4,1.3-0.8,2.3-1,3
		c-0.1,0.3-0.2,0.6-0.3,0.8C1126.2,1719.5,1126.1,1719.6,1126.2,1719.7c0-0.2,0-0.2,0-0.3c0.1-0.2,0.1-0.4,0.2-0.8
		c0.2-0.7,0.5-1.7,1-3v0.1c-2.4-1.9-4.3-4.2-5.8-6.8c-1-1.8-1.8-3.7-2.2-5.8c-0.2-1.1-0.3-2.3-0.3-3.4c0-1.2,0.2-2.4,0.5-3.6
		c0.3-1.3,0.8-2.5,1.3-3.6l1-1.8c0.3-0.6,0.8-1.1,1.2-1.7c1.7-2.3,4.1-4.2,6.7-5.4c2.9-1.2,6-1.7,9.1-1.5c3.3,0.2,6.4,1.3,9.1,3.2
		c3.5,2.6,6.2,6.2,7.5,10.4c0.6,2,0.9,4,0.8,6.1c0,0.5-0.1,1-0.1,1.5c-0.1,0.5-0.1,1-0.3,1.5c-0.1,0.5-0.2,1-0.3,1.4l-0.5,1.4
		c-0.7,1.7-1.8,3.3-3.2,4.6c-1.3,1.2-2.7,2.3-4.2,3.1c-2.7,1.5-5.7,2.5-8.8,2.9l0.1-0.1l-1.3,4.9v0.1h-0.1l-8.5-2.4l-2.2-0.6
		l-0.6-0.2L1126.2,1719.7z"/>
	<path class="st5" d="M1137.3,1723.4l0.1-0.2l-11-3.2h-0.1h-0.1l-0.1-0.1c0,0,0,0-0.1-0.1c0,0,0-0.1,0-0.1v-0.2l0,0c0,0,0-0.1,0-0.2
		l1.1-3.6c-2.3-1.9-4.3-4.2-5.7-6.7c-1.1-1.8-1.8-3.8-2.2-5.8c-0.2-1.2-0.3-2.3-0.3-3.5c0-1.2,0.2-2.5,0.5-3.7
		c0.3-1.3,0.8-2.5,1.4-3.7l1-1.8c0.2-0.4,0.5-0.8,0.8-1.1l0.4-0.6c1.8-2.4,4.1-4.3,6.8-5.5c2.9-1.3,6.1-1.8,9.2-1.5
		c3.3,0.2,6.5,1.3,9.2,3.3c3.6,2.6,6.2,6.3,7.6,10.5c0.6,2,0.9,4.1,0.8,6.2c0,0.4,0,0.8-0.1,1.2l-0.1,0.5c0,0.5-0.1,0.9-0.2,1.3
		l-0.1,0.5c-0.1,0.3-0.2,0.6-0.2,0.9l-0.5,1.4c-0.7,1.8-1.8,3.3-3.2,4.7c-1.3,1.2-2.7,2.3-4.3,3.1c-2.7,1.4-5.6,2.4-8.6,2.9
		l-1.1,4.3l0.2,0.1l-0.3,0.2l-0.1,0.5l-0.5-0.1L1137.3,1723.4z M1126.5,1719.5l2.8,0.7l8.2,2.2l1-4l-0.3,0l0.3-0.3l0.1-0.5h0.2h0.3
		l0.3-0.3l-0.1,0.2c2.8-0.5,5.5-1.5,8-2.8c1.5-0.8,2.9-1.8,4.1-3c1.3-1.3,2.3-2.8,3-4.4c1.5-3.6,1.6-7.7,0.4-11.4
		c-1.3-4-3.8-7.6-7.3-10.1c-2.6-1.9-5.6-2.9-8.8-3.1c-3-0.3-6,0.2-8.8,1.4c-2.6,1.1-4.8,2.9-6.5,5.2c-0.1,0.2-0.3,0.4-0.4,0.6
		c-0.3,0.3-0.5,0.7-0.7,1.1l-1,1.7c-0.6,1.1-1,2.3-1.3,3.5c-0.3,1.2-0.5,2.3-0.5,3.5c0,1.1,0.1,2.2,0.3,3.3c0.4,2,1.1,3.9,2.1,5.6
		c1.4,2.4,3.2,4.6,5.3,6.4l0.1-0.3l0.2,0.5l0.1,0.1l0.1,0.1l-0.1,0.3l0.2,0.6l-0.3-0.2L1126.5,1719.5L1126.5,1719.5z"/>
	<path class="st5" d="M1137,1726.1c-2-0.4-4-0.9-6-1.5c-2-0.5-4-1.1-5.9-1.8C1129.2,1723.7,1133.1,1724.8,1137,1726.1L1137,1726.1z"
		/>
	<path class="st5" d="M1137,1726.4c-2.1-0.3-4.1-0.8-6.1-1.5c-6.2-1.7-6.1-1.9-6.1-2.1c0.1-0.3,0.1-0.3,2.1,0.2
		c1.1,0.3,2.6,0.7,4.2,1.1c6.2,1.7,6.1,1.9,6.1,2.1v0.1l-0.1,0.1C1137.1,1726.4,1137.1,1726.4,1137,1726.4z"/>
	<path class="st5" d="M1131.9,1729.6c-0.7,0-1.5-0.1-2.2-0.3c-0.7-0.2-1.4-0.5-2-1c0.7,0.1,1.4,0.3,2.1,0.6
		C1130.6,1729,1131.3,1729.2,1131.9,1729.6z"/>
	<path class="st5" d="M1131.7,1729.8c-0.7,0-1.4-0.2-2-0.4c-0.8-0.2-1.5-0.6-2.1-1.1v-0.1l0-0.1c0.1-0.3,0.3-0.2,1.4,0.2l1,0.3
		l1,0.3c1.1,0.3,1.3,0.4,1.3,0.7v0.1l-0.1,0.1C1132.1,1729.9,1131.9,1729.9,1131.7,1729.8z"/>
	<path class="st5" d="M1128.6,1720.3c0-0.1,0-0.1,0-0.2c0-0.2,0.1-0.3,0.2-0.6c0.2-0.5,0.4-1.3,0.7-2.2l2.5-8.1
		c0.5-1.7,1.1-3.6,1.7-5.6c0.2-0.5,0.2-1,0.2-1.5c0-0.5-0.4-0.9-0.8-1c-0.5,0-1,0.3-1.2,0.8c-0.3,0.5-0.3,1-0.2,1.6
		c0.5,2,2.5,3.1,4.4,2.7c0.4-0.1,0.8-0.3,1.2-0.5c1.1-0.7,1.8-1.7,2.2-3c0.2-0.6,0.3-1.2,0.1-1.9c-0.2-0.6-0.7-1-1.3-1
		c-0.6,0.1-1.1,0.6-1.1,1.2c0,0.6,0.1,1.3,0.4,1.8c0.5,1.2,1.2,2.2,2.2,3c0.5,0.4,1.1,0.6,1.7,0.7c0.6,0.1,1.2,0,1.8-0.2
		c0.5-0.2,1-0.5,1.3-1c0.3-0.5,0.5-1,0.3-1.6c-0.1-0.5-0.5-1-1-1.1c-0.5-0.1-1,0-1.4,0.4c-0.7,0.8-1.2,1.7-1.5,2.7
		c-0.8,1.9-1.4,3.8-2.1,5.4c-1.2,3.3-2.1,6-2.8,7.9c-0.3,0.9-0.6,1.7-0.8,2.2c-0.1,0.2-0.2,0.4-0.2,0.6c0,0.2-0.1,0.2-0.1,0.2
		c0-0.1,0-0.1,0-0.2c0-0.1,0.1-0.3,0.2-0.6l0.7-2.2c0.6-1.9,1.5-4.6,2.7-8c0.6-1.7,1.2-3.5,2-5.5c0.2-0.5,0.4-1,0.6-1.5
		c0.2-0.5,0.6-1,1-1.4c0.5-0.4,1.1-0.6,1.7-0.5c0.6,0.2,1.1,0.7,1.2,1.4c0.1,0.6,0,1.3-0.4,1.8c-0.4,0.5-0.9,0.9-1.5,1.2
		c-0.6,0.2-1.3,0.3-1.9,0.2c-0.7-0.1-1.3-0.4-1.8-0.7c-1.1-0.8-1.9-1.9-2.4-3.2c-0.3-0.6-0.4-1.3-0.4-2c0-0.9,0.7-1.6,1.5-1.6
		c0.8,0,1.4,0.6,1.6,1.3c0.2,0.7,0.1,1.4-0.1,2.1c-0.4,1.3-1.3,2.4-2.4,3.1c-1.1,0.8-2.5,0.9-3.8,0.4c-1.2-0.5-2.1-1.5-2.4-2.8
		c-0.1-0.6,0-1.3,0.3-1.8c0.3-0.6,0.9-0.9,1.5-0.9c0.3,0,0.6,0.2,0.8,0.4c0.2,0.2,0.3,0.5,0.3,0.8c0,0.6,0,1.1-0.2,1.6
		c-0.6,2-1.2,3.8-1.8,5.5c-1.1,3.4-2,6.1-2.6,8c-0.3,0.9-0.5,1.7-0.7,2.2l-0.2,0.6C1128.6,1720.2,1128.6,1720.3,1128.6,1720.3z"/>
	<path class="st5" d="M1135,1722.4L1135,1722.4c-0.3-0.1-0.3-0.3-0.2-0.5l0.9-2.8c0.6-1.8,1.5-4.6,2.7-8c0.5-1.4,1-2.8,1.6-4.3
		c-0.2-0.1-0.4-0.2-0.6-0.3c-0.4-0.3-0.7-0.6-1-0.9c-0.3,0.3-0.6,0.5-0.9,0.7c-1.2,0.8-2.7,1-4,0.4l-0.2-0.1l-4.4,13.7
		c-0.1,0.2-0.2,0.4-0.4,0.3c-0.2-0.1-0.2-0.3-0.1-0.5l0.8-2.8l3.4-11.1c-0.9-0.6-1.4-1.5-1.7-2.5c-0.1-0.7,0-1.4,0.3-2
		c0.3-0.6,1-1,1.8-1.1c0.4,0,0.8,0.2,1,0.5c0.2,0.3,0.4,0.6,0.4,1c0,0.6,0,1.2-0.2,1.7l-0.6,1.8l0.2,0.1c1.1,0.4,2.3,0.3,3.2-0.4
		c0.3-0.2,0.6-0.4,0.8-0.7c-0.4-0.5-0.7-1.1-0.9-1.7c-0.3-0.7-0.5-1.4-0.4-2.2c0-1,0.9-1.8,1.9-1.7c0.8,0,1.5,0.6,1.7,1.4
		c0.2,0.7,0.1,1.5-0.1,2.2c-0.2,0.7-0.6,1.4-1,1.9c0.3,0.3,0.6,0.6,0.9,0.9c0.1,0.1,0.2,0.2,0.4,0.2c0.1-0.1,0.1-0.2,0.1-0.4
		l0.2-0.4c0.2-0.4,0.3-0.7,0.5-1.1c0.2-0.6,0.6-1.1,1.1-1.5c0.5-0.5,1.2-0.7,1.9-0.5c0.7,0.2,1.3,0.8,1.4,1.6c0.1,0.7,0,1.4-0.4,2
		c-0.4,0.6-1,1-1.6,1.2c-0.6,0.3-1.3,0.3-2,0.3c-0.2,0-0.4-0.1-0.7-0.1c-0.6,1.5-1.1,3-1.6,4.2l-3.8,10.7
		C1135.3,1722.2,1135.2,1722.4,1135,1722.4z M1141,1706.3c0.1,0,0.3,0.1,0.4,0.1c0.5,0.1,1.1,0,1.6-0.2c0.5-0.2,0.9-0.5,1.2-0.9
		c0.3-0.4,0.4-0.9,0.3-1.4c-0.1-0.4-0.4-0.8-0.8-0.9c-0.4-0.1-0.9,0.1-1.2,0.3c-0.6,0.6-1,1.2-1.2,2c-0.1,0.2-0.2,0.4-0.3,0.6
		L1141,1706.3z M1133,1701.5c-0.4,0.1-0.7,0.3-0.9,0.7c-0.2,0.4-0.3,0.9-0.2,1.4c0.2,0.7,0.5,1.3,1.1,1.8l0.5-1.6
		c0.2-0.5,0.2-0.9,0.2-1.4C1133.6,1701.9,1133.4,1701.5,1133,1701.5L1133,1701.5z M1138.3,1700.1L1138.3,1700.1
		c-0.5,0.1-0.9,0.5-0.9,1c0,0.6,0.1,1.2,0.3,1.7c0.2,0.5,0.4,0.9,0.7,1.3c0.3-0.4,0.5-0.9,0.7-1.4c0.2-0.5,0.3-1.1,0.1-1.7
		C1139.1,1700.5,1138.8,1700.2,1138.3,1700.1L1138.3,1700.1z"/>
	<path class="st5" d="M1135.4,1728.1c-1.7-0.3-3.3-0.7-4.9-1.2c-1.6-0.4-3.2-0.9-4.8-1.5C1129,1726.1,1132.2,1726.9,1135.4,1728.1
		L1135.4,1728.1z"/>
	<path class="st5" d="M1135.3,1728.3c-1.7-0.2-3.3-0.6-4.9-1.2c-5.1-1.4-5-1.6-4.9-1.8v-0.1l0.1-0.1c0.1,0,0.3-0.2,5.1,1.1
		c4.8,1.3,4.9,1.6,4.9,1.6l0.1,0.1l-0.1,0.2l-0.1,0.1C1135.4,1728.3,1135.4,1728.3,1135.3,1728.3z"/>
	<path class="st12" d="M956.3,1727.4h-63c-2.4,0-4.4,2-4.4,4.4v38.4c0,2.4,2,4.4,4.4,4.4h36.8l16.9,14.3v-14.3h9.4
		c2.4,0,4.4-2,4.4-4.4v-38.4C960.7,1729.4,958.8,1727.4,956.3,1727.4C956.3,1727.4,956.3,1727.4,956.3,1727.4z"/>
	<path class="st4" d="M956.3,1727.4c0.4,0,0.8,0,1.1,0.1c1.1,0.3,2,1,2.6,1.9c0.4,0.7,0.7,1.5,0.7,2.3c0,0.9,0,1.8,0,2.9
		c0,2.1,0,4.5,0,7.2c0,5.4,0,11.9,0,19.4c0,1.9,0,3.8,0,5.8c0,1,0,2,0,3c0,1.1-0.3,2.1-1,3c-0.7,0.9-1.7,1.5-2.8,1.6
		c-0.5,0.1-1.1,0.1-1.6,0.1h-8.4l0.2-0.2c0,4.5,0,9.4,0,14.3v0.5l-0.4-0.3l-16.9-14.3l0.2,0.1h-36.5c-2.3,0.1-4.3-1.5-4.8-3.8
		c-0.1-0.5-0.1-1.1-0.1-1.6v-7.7c0-8.1,0-16,0-23.5v-5.5c0-0.5,0-0.9,0-1.4c0.2-1.4,1-2.7,2.2-3.4c0.8-0.5,1.7-0.7,2.6-0.7h7.7h18.5
		l26.8,0.1h7.3h1.9h0.6h-0.6h-1.9h-7.3l-26.8,0.1h-18.5h-7.7c-0.8,0-1.7,0.2-2.4,0.6c-0.7,0.4-1.3,1.1-1.7,1.9
		c-0.2,0.4-0.3,0.8-0.3,1.2c0,0.4,0,0.9,0,1.3c0,1.8,0,3.7,0,5.5c0,7.5,0,15.3,0,23.5v7.7c0,0.5,0,1,0.1,1.5c0.2,1,0.7,1.9,1.5,2.5
		c0.8,0.6,1.8,1,2.8,0.9h36.7l0.1,0.1l16.9,14.6l-0.4,0.2c0-5,0-9.8,0-14.3v-0.2h8.6c0.5,0,1.1,0,1.6-0.1c1-0.1,1.9-0.7,2.6-1.5
		c1.4-1.6,0.8-3.8,1-5.8c0.1-2,0-3.9,0-5.8c0-7.5,0-14,0-19.4c0-2.7,0-5.1,0-7.2c0-1.1,0-2,0-2.9c0-0.8-0.2-1.6-0.6-2.2
		c-0.6-0.9-1.5-1.6-2.5-1.9C957,1727.5,956.7,1727.5,956.3,1727.4z"/>
	<path class="st4" d="M948.2,1742.3c0,0.1-10.5,0.3-23.4,0.3s-23.4-0.1-23.4-0.3s10.5-0.3,23.4-0.3S948.2,1742.1,948.2,1742.3z"/>
	<path class="st4" d="M948.2,1749.7c0,0.1-10.5,0.3-23.4,0.3s-23.4-0.1-23.4-0.3c0-0.2,10.5-0.3,23.4-0.3S948.2,1749.6,948.2,1749.7
		z"/>
	<path class="st4" d="M948.2,1757.2c0,0.1-10.5,0.3-23.4,0.3s-23.4-0.1-23.4-0.3s10.5-0.3,23.4-0.3S948.2,1757,948.2,1757.2z"/>
	<path class="st9" d="M868.3,1622.3c3.2,12.7-6.2,25.2-17.9,31c-11.7,5.8-25.3,6-38.4,6.2s-26.7,0.5-38.3,6.5
		c-12.4,6.3-20.8,18.2-28.5,29.8c-7.6,11.6-15.3,23.8-26.9,31.4c-11.6,7.6-28.4,9.4-38.7,0v-90.3c0-8,6.5-14.5,14.5-14.5l0,0H868.3z
		"/>
	<circle class="st5" cx="733" cy="1671.9" r="12.5"/>
	<path class="st4" d="M896,1656.5c0-0.2,11.2-0.3,25.1-0.3s25.1,0.2,25.1,0.3"/>
	<path class="st4" d="M1013.2,1656.5c0,0.2-11.3,0.3-25.1,0.3c-13.9,0-25.1-0.2-25.1-0.3c0-0.2,11.2-0.3,25.1-0.3
		S1013.2,1656.4,1013.2,1656.5z"/>
	<path class="st4" d="M1080.1,1656.5c0,0.2-11.3,0.3-25.1,0.3s-25.1-0.2-25.1-0.3c0-0.2,11.2-0.3,25.1-0.3
		S1080.1,1656.4,1080.1,1656.5z"/>
	<path class="st4" d="M1147.5,1656.5c0,0.2-11.2,0.3-25.1,0.3s-25.1-0.2-25.1-0.3c0-0.2,11.3-0.3,25.1-0.3
		S1147.5,1656.4,1147.5,1656.5z"/>
	<path class="st4" d="M1206.2,1664.5c0,0,0.4,0,1.2-0.2c1.1-0.3,2.1-0.9,2.9-1.8c0.5-0.6,0.9-1.4,1.2-2.2c0.2-1,0.3-2,0.2-3
		c-0.1-2.1,0.5-4.8-1.4-6.8c-0.9-1-2.2-1.7-3.6-1.8c-1.4,0-3,0-4.6,0h-10.2h-23.4c-2,0-3.8,1.1-4.7,2.9c-0.4,0.9-0.6,1.8-0.6,2.8
		c0,1,0,2,0,3c-0.1,0.9,0,1.9,0.2,2.8c0.2,0.9,0.7,1.7,1.3,2.3c0.6,0.6,1.4,1.1,2.2,1.4c0.9,0.2,1.7,0.3,2.6,0.2l19.2,0.1l12.9,0.1
		l3.5,0.1h0.9c0.1,0,0.2,0,0.3,0c-0.1,0-0.2,0-0.3,0h-0.9l-3.5,0.1l-12.9,0.1l-19.2,0.1c-0.9,0.1-1.9,0-2.8-0.2
		c-2-0.6-3.5-2.2-4-4.1c-0.1-0.5-0.2-1-0.2-1.5v-4.2c-0.1-1.1,0.2-2.1,0.7-3.1c1-2,3.1-3.2,5.3-3.2h23.5h10.2c1.6,0,3.1,0,4.7,0
		c1.5,0.1,2.9,0.9,3.9,2c0.9,1,1.4,2.3,1.5,3.7c0,1.2,0,2.4,0,3.5c0.1,1,0,2-0.2,3c-0.2,0.8-0.7,1.6-1.3,2.2
		c-0.8,0.9-1.9,1.5-3.1,1.7C1207,1664.5,1206.6,1664.5,1206.2,1664.5z"/>
	<path class="st1" d="M804.9,1896.5h-61c-6.1,0-11.1-5-11.1-11.1l0,0l0,0c0-6.1,5-11.1,11.1-11.1c0,0,0,0,0,0h61
		c6.1,0,11.1,5,11.1,11.1l0,0l0,0C816,1891.5,811.1,1896.5,804.9,1896.5C804.9,1896.5,804.9,1896.5,804.9,1896.5z"/>
	<path class="st4" d="M848.4,1804c0,0.2-26,0.4-58.2,0.4s-58.2-0.2-58.2-0.4s26-0.4,58.2-0.4S848.4,1803.8,848.4,1804z"/>
	<path class="st4" d="M848.4,1825.1c0,0.2-26,0.4-58.2,0.4s-58.2-0.2-58.2-0.4s26-0.4,58.2-0.4S848.4,1824.9,848.4,1825.1z"/>
	<path class="st4" d="M800.8,1846.2c0,0.2-15.4,0.4-34.4,0.4s-34.4-0.2-34.4-0.4c0-0.2,15.4-0.4,34.4-0.4S800.8,1846,800.8,1846.2z"
		/>
	<path class="st5" d="M798.3,1780.7c0,0.1-14.6,0.3-32.7,0.3s-32.7-0.1-32.7-0.3c0-0.2,14.6-0.3,32.7-0.3S798.3,1780.6,798.3,1780.7
		z"/>
	<path class="st4" d="M1225.3,2002.4c1.6,0,3.2-0.4,4.6-1.1c1.8-0.8,3.3-2.1,4.4-3.7c0.7-1,1.2-2.2,1.6-3.4c0.3-1.4,0.5-2.9,0.4-4.3
		c0-12.3,0-30.5,0-53.9c0-46.8,0-114.5-0.1-198.2c0-20.9,0-42.8,0-65.7v-30.5c0-1.5,0-3-0.1-4.4c-0.3-2.9-1.5-5.7-3.2-8.1
		c-0.4-0.6-0.9-1.2-1.4-1.7c-0.5-0.5-1.1-1-1.7-1.5c-1.2-0.9-2.5-1.7-3.8-2.2c-1.4-0.6-2.9-0.9-4.3-1.1c-1.5-0.1-3-0.1-4.5-0.1h-9.3
		h-157.1l-173.6,0H696.6c-1,0-2,0-3,0.1l-1.5,0.2l-1.4,0.4c-3.8,1.2-7,3.8-8.9,7.3c-0.9,1.7-1.6,3.6-1.8,5.5c-0.2,1.9-0.1,4-0.1,5.9
		v162.6c0,60.2,0,118.3,0,173.7v10.3c-0.1,1.7,0,3.4,0.3,5.1c0.4,1.6,1.1,3.2,2.1,4.5c2.1,2.6,5.4,4.1,8.8,4h50h76.3h136.9
		L1225.3,2002.4l-270.9,0.1H817.5H691.2c-5.4,0.2-10.2-3.6-11.4-8.9c-0.1-0.4-0.1-0.9-0.2-1.3c-0.1-0.4,0-0.9,0-1.3v-2.5
		c0-3.4,0-6.9,0-10.3c0-55.3,0-113.4,0-173.7v-91.9c0-15.6,0-31.2,0-47V1642c0-2-0.1-4,0.1-6c0.7-6.2,5-11.4,11-13.3l1.4-0.4
		c0.5-0.1,1-0.2,1.5-0.2c1-0.1,2-0.1,3-0.1h354h157.1h9.2c1.5,0,3,0,4.6,0.1c1.5,0.2,3,0.6,4.4,1.1c1.4,0.6,2.8,1.3,4,2.3
		c0.6,0.5,1.2,1,1.7,1.5c0.5,0.5,1,1.1,1.5,1.7c1.8,2.4,3,5.3,3.3,8.3c0.1,1.5,0.1,3,0.1,4.5v30.5c0,22.8,0,44.7,0,65.7
		c0,83.7-0.1,151.4-0.1,198.2c0,23.4,0,41.6,0,53.9c0.1,1.5-0.1,2.9-0.4,4.3c-0.9,3.2-3.1,5.8-6.1,7.2c-1.1,0.5-2.3,0.8-3.4,1
		C1225.7,2002.4,1225.3,2002.4,1225.3,2002.4z"/>
</g>
<path class="st5" d="M713.1,1965.8c1-3.4,3.1-6.7,6.4-8.1c3.3-1.4,7.3-0.6,10.8,0.6s6.9,3,10.6,3.2c3.7,0.2,7.9-1.5,9-5.1
	c1-3.3-1-6.9-3.5-9.3c-8.7-8.4-22.6-8.1-31,0.6c-2.2,2.3-3.9,5-4.9,8"/>
<g class="st13">
	<path d="M713.1,1965.8c1-3.4,3.1-6.7,6.4-8.1c3.3-1.4,7.3-0.6,10.8,0.6s6.9,3,10.6,3.2c3.7,0.2,7.9-1.5,9-5.1c1-3.3-1-6.9-3.5-9.3
		c-8.7-8.4-22.6-8.1-31,0.6c-2.2,2.3-3.9,5-4.9,8"/>
</g>
<path class="st5" d="M683.9,1980.7c-5.4-5.2-5.2-14.1-2.5-21.1c2.7-7,8.6-12.3,15.2-15.9c13.1-6.9,28.5-7.4,42-1.4
	c-6.6,0.3-12.6,3.8-16.1,9.5c-3,4.9-3.6,10.9-6.1,16.1C710.7,1980.2,696.4,1985.8,683.9,1980.7"/>
<path class="st5" d="M681.2,1949.7c-6-7.1-6.8-18.5-5.9-27.7c0.9-9.2,3-18.6,1.6-27.7c-0.9-5.4-3-10.6-3.7-16.1s0.3-11.6,4.5-15.2
	c4.9-4,12.5-3.1,17.6,0.7c5.1,3.8,8,9.8,10.1,15.7c4.7,13.1,6.4,27.6,2.6,40.9c-3.9,13.3-12.9,25.3-26.2,29.3"/>
<path class="st4" d="M678.4,2007.9c0-0.3,0-0.5,0-0.8c0-0.5,0-1.3,0-2.3c0.1-2,0.3-5,0.7-8.6c0.5-4.2,1.3-8.4,2.3-12.6
	c1.2-5.1,3.2-10,5.7-14.6c2.6-4.6,5.7-8.8,9.4-12.5c3-3.1,6.3-5.8,9.8-8.2c1.5-1,3-1.8,4.2-2.6s2.4-1.2,3.3-1.7l2.2-0.9
	c0.3-0.1,0.5-0.2,0.8-0.3c-0.2,0.2-0.5,0.3-0.7,0.4l-2.1,1c-0.9,0.5-2,1-3.3,1.7c-1.3,0.7-2.7,1.5-4.1,2.6
	c-7.8,5.3-14.3,12.4-19,20.7c-5.5,9.7-7,19.8-8.1,26.9c-0.5,3.6-0.7,6.5-0.9,8.6c-0.1,1-0.1,1.8-0.1,2.3
	C678.4,2007.3,678.4,2007.6,678.4,2007.9z"/>
<path class="st5" d="M626.6,1921.8c-11.1,6.7-11.1,12.8-9.2,18.6s8.7,9.8,14.3,7.6c3.2-1.2,5.5-4,7.5-6.8s3.8-5.8,6.6-7.8
	c2.8-2,6.8-2.8,9.6-0.8"/>
<g class="st13">
	<path d="M626.6,1921.8c-11.1,6.7-11.1,12.8-9.2,18.6s8.7,9.8,14.3,7.6c3.2-1.2,5.5-4,7.5-6.8s3.8-5.8,6.6-7.8
		c2.8-2,6.8-2.8,9.6-0.8"/>
</g>
<path class="st5" d="M618.2,1929.1c2.9-4,10.1-5.2,14.6-3.2c4.5,2,7.8,6,10.8,9.9c3,3.9,5.9,8.2,10,10.9c4.1,2.8,9.9,3.8,14,1
	c2.6-2,4.4-4.9,4.8-8.2c0.4-3.2,0.1-6.5-0.6-9.7c-1-4.7-2.6-9.5-6.3-12.5c-4.2-3.3-9.9-3.5-15.2-3.3c-6.1,0.2-12.3,0.7-18,2.8
	C626.5,1919,620.7,1923.5,618.2,1929.1"/>
<path class="st4" d="M669.1,1999c0-0.1,0-0.2,0-0.2c0-0.2,0-0.4,0-0.7c0-0.7,0-1.6-0.1-2.8c-0.1-2.4-0.2-5.9-0.3-10.2
	s-0.3-9.4-0.6-15s-0.7-11.9-1.6-18.3c-0.4-3.1-1-6.3-1.8-9.3c-0.9-2.8-2-5.5-3.4-8.1c-1.2-2.4-2.7-4.6-4.3-6.8
	c-1.4-1.8-3-3.6-4.7-5.2c-2.5-2.3-5.3-4.2-8.3-5.7c-0.5-0.2-1-0.5-1.5-0.7l-1.1-0.3l-0.7-0.3c-0.1,0-0.2-0.1-0.2-0.1l0.2,0.1
	l0.7,0.2l1.1,0.4c0.4,0.2,0.9,0.4,1.5,0.6c3.1,1.4,5.9,3.3,8.5,5.6c1.7,1.6,3.3,3.3,4.8,5.2c1.6,2.1,3.1,4.4,4.4,6.8
	c1.4,2.6,2.6,5.4,3.5,8.2c0.9,3.1,1.5,6.2,1.9,9.4c0.9,6.5,1.3,12.7,1.6,18.4c0.3,5.7,0.4,10.8,0.5,15c0.1,4.3,0.1,7.8,0.1,10.1v2.8
	c0,0.3,0,0.5,0,0.7C669.2,1998.8,669.1,1998.9,669.1,1999z"/>
<path class="st4" d="M673.1,2004c-0.5-1.6-0.9-3.2-1.2-4.8c-0.8-4.4-0.9-8.9-0.5-13.4c0.7-6.6,2.1-13.1,4.2-19.5
	c2.3-7.2,5.4-14.8,8-23c1.3-4,2.4-8.1,3.2-12.2c0.7-3.8,1.3-7.7,1.6-11.6c0.5-6.6,0.6-13.2,0.4-19.9c-0.2-5.7-0.5-10.2-0.7-13.4
	c-0.1-1.6-0.2-2.8-0.2-3.6c0-0.4,0-0.7,0-1c0-0.1,0-0.2,0-0.3c0,0.1,0,0.2,0,0.3c0,0.2,0.1,0.5,0.1,0.9c0.1,0.9,0.2,2.1,0.3,3.6
	c0.2,3.2,0.6,7.7,0.8,13.4c0.3,6.6,0.2,13.3-0.2,19.9c-0.3,3.9-0.8,7.8-1.5,11.7c-0.8,4.2-1.9,8.3-3.2,12.3
	c-2.7,8.2-5.8,15.9-8.1,23c-2.1,6.3-3.6,12.8-4.3,19.3c-0.4,4.4-0.3,8.9,0.4,13.3c0.3,1.6,0.5,2.8,0.8,3.6c0.1,0.4,0.2,0.7,0.2,0.9
	C673.1,2003.8,673.1,2003.9,673.1,2004z"/>
<polygon class="st0" points="700.7,2009 648.5,2009 647.3,1999 700.7,1999 "/>
<polygon class="st0" points="654.1,2007.9 660.6,2038 689,2038 695.1,2007.9 "/>
<path class="st0" d="M700.7,2009c0,0.1-11.5,0.2-25.6,0.2c-14.2,0-25.6-0.2-25.6-0.3s11.5-0.2,25.7-0.2S700.7,2008.9,700.7,2009z"/>
<path class="st4" d="M691.7,2023.9c-1.4-1.1-3-2-4.6-2.6c-1.8-0.7-3.7-1.1-5.6-1.1c-2.3,0-4.7,0.4-6.9,1.3c-2.4,0.8-4.6,1.7-6.8,2.3
	c-1.9,0.4-3.9,0.5-5.8,0.2c-1.3-0.2-2.6-0.6-3.7-1.2c-0.3-0.2-0.6-0.4-0.9-0.6c-0.2-0.1-0.3-0.2-0.3-0.2c0,0,0.4,0.2,1.3,0.6
	c1.2,0.5,2.4,0.9,3.7,1c1.9,0.2,3.8,0.1,5.7-0.3c2.1-0.5,4.3-1.5,6.7-2.3c2.2-0.8,4.6-1.3,7-1.2c2,0.1,3.9,0.5,5.7,1.2
	c1.2,0.5,2.4,1.2,3.4,2c0.3,0.2,0.6,0.5,0.8,0.7C691.6,2023.8,691.7,2023.9,691.7,2023.9z"/>
<path class="st3" d="M691.3,2025.9c-1.4-1-2.9-1.9-4.4-2.6c-1.7-0.7-3.5-1.1-5.4-1.1c-2.3,0-4.5,0.4-6.6,1.2
	c-2.3,0.8-4.5,1.7-6.5,2.2c-1.8,0.5-3.7,0.7-5.6,0.6c-1.3-0.1-2.5-0.4-3.7-1c-0.3-0.2-0.6-0.4-0.9-0.6c-0.2-0.1-0.3-0.2-0.3-0.2
	c0,0,0.4,0.2,1.2,0.6c1.1,0.5,2.4,0.8,3.6,0.8c1.9,0.1,3.7-0.2,5.5-0.7c2-0.6,4.2-1.5,6.5-2.2c2.2-0.8,4.5-1.2,6.8-1.2
	c1.9,0.1,3.8,0.5,5.6,1.3c1.2,0.5,2.3,1.2,3.3,2c0.3,0.2,0.5,0.4,0.8,0.7C691.3,2025.8,691.3,2025.9,691.3,2025.9z"/>
<path class="st3" d="M692.2,2021.9c-1.5-1.1-3-2-4.7-2.8c-1.8-0.8-3.8-1.2-5.7-1.4c-2.4,0-4.8,0.4-7.1,1.2c-2.3,0.9-4.6,1.7-7,2.3
	c-2,0.3-4,0.3-6,0c-1.3-0.2-2.7-0.6-3.9-1.2c-0.3-0.2-0.6-0.4-0.9-0.6c-0.2-0.1-0.3-0.2-0.3-0.2s0.5,0.3,1.3,0.7
	c1.2,0.5,2.5,0.9,3.8,1.1c2,0.3,4,0.2,5.9-0.1c2.2-0.5,4.5-1.5,6.9-2.3c2.3-0.9,4.8-1.3,7.3-1.2c2,0.2,4,0.7,5.8,1.5
	c1.2,0.6,2.4,1.3,3.4,2.1c0.3,0.2,0.6,0.5,0.8,0.7C692.2,2021.8,692.2,2021.9,692.2,2021.9z"/>
<path class="st4" d="M701.1,2009.1c0,0.1-11.7,0.2-26.2,0.2c-14.5,0-26.2-0.1-26.2-0.2s11.7-0.2,26.2-0.2
	C689.4,2008.8,701.1,2008.9,701.1,2009.1z"/>
<circle class="st10" cx="830.3" cy="898.3" r="67.9"/>
<g>
	<g id="freepik--background-simple--inject-548_00000001636575431883312520000001715938592670413189_">
		<path class="st10" d="M573.1,8.2l-2.4,0.7c-20,5.8-35.4,21.8-39.5,42.1c-0.5,2.6-0.9,5.2-1,7.9c-1,19.1,8.4,38.5,24.2,49.7
			c9.3,6.6,20.8,10.9,27,20.3c8.1,12.3,4.1,28.5-0.2,42.5c-4.2,14-8.2,30.2,0,42.5c5.1,7.7,14.1,12.1,23.2,14.1
			c24,5.1,49.7-5.7,65.8-23.9s23.8-42.6,25.3-66.9c2.2-33.9-7.4-69.3-30-95.1S606.8,1.5,573.1,8.2z"/>
		<circle class="st10" cx="67.9" cy="214.3" r="67.9"/>
	</g>
	<g id="freepik--Floor--inject-548_00000178192158622958422310000001780336165871747476_">
		<path class="st4" d="M678.4,459.9c0,0.1-148,0.3-330.4,0.3S17.5,460,17.5,459.9s147.9-0.3,330.5-0.3S678.4,459.7,678.4,459.9z"/>
	</g>
	<g id="freepik--landing-page--inject-548_00000068652172415400333340000003432400386480559010_">
		<path class="st3" d="M77.6,44.2h532.7c6.6,0,12,5.4,12,12v356.2c0,6.6-5.4,12-12,12H77.6c-6.6,0-12-5.4-12-12V56.1
			C65.6,49.5,71,44.2,77.6,44.2z"/>
		<path class="st10" d="M499.7,240.5c1.3-2.1,2.8-3.9,4.6-5.6l-1.8-6.5l9.8-5.2l4.4,5.1c2.4-0.6,4.8-0.8,7.2-0.7l3.3-5.8l10.6,3.2
			l-0.5,6.7c2.1,1.3,3.9,2.8,5.6,4.6l6.5-1.8l5.2,9.8l-5.1,4.4c0.6,2.4,0.8,4.8,0.7,7.2l5.8,3.3l-3.2,10.6l-6.7-0.5
			c-1.3,2.1-2.8,3.9-4.6,5.6l1.8,6.5l-9.8,5.2l-4.4-5.1c-2.4,0.6-4.8,0.8-7.2,0.7l-3.3,5.8l-10.6-3.2l0.5-6.7
			c-2.1-1.3-3.9-2.8-5.6-4.6l-6.5,1.8l-5.2-9.8l5.1-4.4c-0.6-2.4-0.8-4.8-0.7-7.2l-5.8-3.3l3.2-10.6L499.7,240.5L499.7,240.5z
			 M508.6,250.6c-2.4,7.9,2.1,16.3,10,18.7c7.9,2.4,16.3-2.1,18.7-10s-2.1-16.3-10-18.7c0,0,0,0,0,0
			C519.4,238.2,511,242.7,508.6,250.6L508.6,250.6z"/>
		<path class="st10" d="M384.9,117.5c1.2-2,2.7-3.8,4.4-5.4l-1.7-6.2l9.5-5l4.2,4.9c2.3-0.5,4.6-0.8,7-0.7l3.2-5.6l10.3,3.1
			l-0.5,6.5c2,1.2,3.8,2.7,5.4,4.4l6.2-1.7l5,9.5l-4.9,4.2c0.5,2.3,0.8,4.6,0.7,7l5.6,3.1l-3.1,10.2l-6.5-0.5
			c-1.2,2-2.7,3.8-4.4,5.4l1.7,6.2l-9.5,5l-4.2-4.9c-2.3,0.5-4.6,0.8-7,0.7l-3.2,5.6l-10.3-3.1l0.5-6.5c-2-1.2-3.8-2.7-5.4-4.4
			l-6.2,1.7l-5-9.5l4.9-4.2c-0.5-2.3-0.8-4.6-0.7-7l-5.6-3.2l3.1-10.2L384.9,117.5L384.9,117.5z M393.5,127.2
			c-2.3,7.6,2,15.7,9.6,18c7.6,2.3,15.7-2,18-9.6c2.3-7.6-2-15.7-9.6-18C404,115.2,395.9,119.5,393.5,127.2L393.5,127.2z"/>
		<path class="st10" d="M340,205.6c0.8-1.2,1.7-2.4,2.8-3.4l-1.1-3.9l5.9-3.1l2.6,3.1c1.4-0.3,2.9-0.5,4.3-0.4l2-3.5l6.4,2l-0.3,4
			c1.2,0.8,2.4,1.7,3.4,2.8l3.9-1.1l3.1,5.9l-3.1,2.6c0.3,1.4,0.5,2.9,0.4,4.3l3.5,2l-2,6.4l-4-0.3c-0.8,1.2-1.7,2.4-2.8,3.4
			l1.1,3.9l-5.9,3.1l-2.6-3c-1.4,0.3-2.9,0.5-4.3,0.4l-2,3.5l-6.4-1.9l0.3-4c-1.2-0.8-2.4-1.7-3.3-2.8l-3.9,1l-3.1-5.9l3-2.6
			c-0.3-1.4-0.5-2.9-0.4-4.3l-3.5-2l2-6.4L340,205.6L340,205.6z M345.4,211.6c-1.4,4.8,1.2,9.8,6,11.2c4.8,1.4,9.8-1.2,11.2-6
			c1.4-4.8-1.2-9.8-6-11.2C351.9,204.2,346.8,206.9,345.4,211.6C345.4,211.6,345.4,211.7,345.4,211.6L345.4,211.6z"/>
		<path class="st10" d="M434.6,382.5c0.8-1.2,1.7-2.4,2.8-3.4l-1.1-3.9l5.9-3.1l2.6,3c1.4-0.3,2.9-0.5,4.3-0.4l2-3.5l6.4,2l-0.3,4
			c1.2,0.8,2.4,1.7,3.4,2.8l3.9-1.1l3.1,5.9l-3.1,2.6c0.3,1.4,0.5,2.9,0.4,4.3l3.5,2l-1.9,6.4l-4-0.3c-0.8,1.2-1.7,2.4-2.8,3.4
			l1.1,3.9l-5.9,3.2l-2.6-3.1c-1.4,0.3-2.9,0.5-4.4,0.4l-2,3.5l-6.4-1.9l0.3-4c-1.2-0.8-2.4-1.7-3.4-2.8l-3.9,1.1l-3.1-5.9l3-2.6
			c-0.3-1.4-0.5-2.9-0.4-4.3l-3.5-2l2-6.4L434.6,382.5L434.6,382.5z M439.9,388.5c-1.4,4.8,1.2,9.8,6,11.2c4.8,1.4,9.8-1.2,11.2-6
			c1.4-4.8-1.2-9.8-6-11.2C446.4,381.1,441.4,383.8,439.9,388.5C440,388.5,440,388.5,439.9,388.5z"/>
		
			<rect x="285.1" y="226.4" transform="matrix(0.3313 -0.9435 0.9435 0.3313 -38.5745 474.4797)" class="st3" width="60.8" height="76"/>
		<path class="st4" d="M361.4,248.4c-0.1,0-0.2-0.1-0.4-0.1l-1-0.3l-3.9-1.4l-14.7-5.1l-51.8-18.1l0.2-0.1l-20.1,57.4l0,0l-0.1-0.3
			l71.8,25.2l-0.2,0.1c6.1-17.3,11.2-31.6,14.7-41.6l4.2-11.6c0.5-1.3,0.8-2.4,1.1-3.1S361.4,248.4,361.4,248.4c0,0-0.1,0.4-0.3,1
			l-1,3l-4,11.6c-3.5,10-8.5,24.4-14.6,41.8l-0.1,0.2l-0.2-0.1l-71.8-25.2l-0.2-0.1l0.1-0.2l0,0c7.3-20.7,14.2-40.3,20.2-57.4
			l0.1-0.2l0.2,0.1l51.9,18.3l14.6,5.3l3.9,1.4l1,0.4L361.4,248.4z"/>
		
			<rect x="288.8" y="229.1" transform="matrix(0.3313 -0.9435 0.9435 0.3313 -38.5844 474.4239)" class="st5" width="53.1" height="70.7"/>
		<g class="st11">
			<polygon points="273.2,277.8 307.5,254.8 315.1,279.4 328.5,272.4 340,301.2 			"/>
		</g>
		<g class="st11">
			<path d="M329.4,258.2c-1,2.9-4.2,4.4-7.1,3.4c-2.9-1-4.4-4.2-3.4-7.1c1-2.9,4.2-4.4,7.1-3.4c0,0,0,0,0,0
				C328.9,252.1,330.4,255.3,329.4,258.2z"/>
		</g>
		<path class="st0" d="M580.7,357.4c0.8,0,1.5-0.3,2.2-0.7c0.8-0.5,1.3-1.3,1.5-2.2c0.1-0.6,0.2-1.2,0.2-1.8c0-0.6,0-1.3,0-2.1
			c0.1-5.9,0.2-14.2,0.4-24.6c0-2.6,0.1-5.3,0.2-8.2c0-1.4,0.1-2.9,0.1-4.3c0.1-0.7,0.1-1.4,0-2.2c-0.1-0.7-0.5-1.3-0.9-1.8
			c-0.5-0.5-1.1-0.9-1.8-1c-0.8-0.1-1.5-0.1-2.3-0.1h-4.8l-10-0.1l-44.7-0.3c-1.9,0-3.4,1.5-3.6,3.3c0,2-0.1,3.9-0.2,5.8
			c-0.1,3.9-0.2,7.7-0.3,11.4c-0.2,7.5-0.3,14.7-0.5,21.5l-0.1,2.6c-0.1,0.8,0.1,1.6,0.5,2.2c0.4,0.7,1,1.2,1.7,1.4
			c0.7,0.2,1.5,0.3,2.3,0.2l9.5,0.1l17,0.2l24.6,0.3l6.7,0.1l1.7,0L580.7,357.4c-0.1,0-0.3,0-0.5,0h-1.7h-6.7l-24.6-0.1l-17-0.1
			l-9.5-0.1c-0.9,0.1-1.7,0-2.5-0.3c-0.8-0.3-1.5-0.9-2-1.7c-0.5-0.8-0.7-1.7-0.6-2.6l0.1-2.6c0.1-6.9,0.3-14.1,0.5-21.6
			c0.1-3.7,0.2-7.5,0.2-11.4c0-1.9,0.1-3.9,0.2-5.9c0.2-2.2,2.1-4,4.3-4l44.7,0.4l10,0.1h4.8c0.8,0,1.6,0,2.4,0.1
			c0.8,0.2,1.6,0.6,2.2,1.2c0.6,0.6,0.9,1.4,1.1,2.2c0.1,0.8,0.1,1.5,0,2.3c0,1.5-0.1,2.9-0.1,4.3c-0.1,2.8-0.1,5.5-0.2,8.1
			c-0.3,10.4-0.5,18.8-0.7,24.6c0,0.7,0,1.4-0.1,2c0,0.6,0,1.2-0.2,1.8c-0.3,0.9-0.9,1.7-1.7,2.3c-0.5,0.3-1.1,0.5-1.6,0.6
			C581.1,357.4,580.9,357.4,580.7,357.4z"/>
		<polygon class="st0" points="553.2,328.4 561.5,333.5 553,338.4 544.5,343.3 544.7,333.3 545,323.3 		"/>
		<path class="st5" d="M512,141.5c0.1,0,0.1,0,0.2,0l0.6,0.2l2.3,0.6l8.5,2.3l-0.1,0.1c0.4-1.5,0.8-3.1,1.2-4.9v-0.1h0.1
			c3-0.5,6-1.5,8.7-2.9c1.5-0.8,2.9-1.9,4.1-3.1c1.3-1.3,2.4-2.8,3.1-4.5c1.5-3.7,1.7-7.8,0.4-11.6c-1.3-4.1-3.9-7.6-7.4-10.2
			c-2.6-1.9-5.7-3-8.9-3.2c-3-0.3-6.1,0.2-8.9,1.4c-2.6,1.2-4.9,3-6.6,5.2c-0.4,0.6-0.8,1.1-1.2,1.7l-1,1.7c-0.6,1.1-1,2.3-1.3,3.6
			c-0.3,1.2-0.5,2.4-0.5,3.6c0,1.1,0.1,2.3,0.3,3.4c0.4,2,1.1,3.9,2.1,5.7c1.5,2.6,3.4,4.9,5.7,6.8l0,0l0,0c-0.4,1.3-0.8,2.3-1,3
			c-0.1,0.3-0.2,0.6-0.3,0.8S512,141.5,512,141.5c0-0.2,0-0.2,0-0.3c0.1-0.2,0.1-0.4,0.2-0.8c0.2-0.7,0.5-1.7,1-3v0.1
			c-2.4-1.9-4.3-4.2-5.9-6.8c-1-1.8-1.8-3.7-2.2-5.8c-0.2-1.1-0.3-2.3-0.3-3.4c0-1.2,0.2-2.4,0.5-3.6c0.3-1.3,0.8-2.5,1.3-3.6l1-1.8
			c0.3-0.6,0.8-1.1,1.2-1.7c1.7-2.3,4.1-4.2,6.7-5.4c2.9-1.2,6-1.7,9.1-1.5c3.3,0.2,6.4,1.3,9.1,3.2c3.5,2.6,6.2,6.2,7.5,10.4
			c0.6,2,0.9,4,0.8,6.1c0,0.5-0.1,1-0.1,1.5c-0.1,0.5-0.1,1-0.3,1.5c-0.1,0.5-0.2,1-0.3,1.4l-0.5,1.4c-0.7,1.7-1.8,3.3-3.2,4.6
			c-1.3,1.2-2.7,2.3-4.2,3.1c-2.7,1.5-5.7,2.5-8.8,2.9l0.1-0.1l-1.3,4.9v0.1h-0.1l-8.5-2.4l-2.2-0.6l-0.6-0.2L512,141.5z"/>
		<path class="st5" d="M523.1,145.2l0.1-0.2l-11-3.2h-0.1H512l-0.1-0.1c0,0,0,0-0.1-0.1c0,0,0-0.1,0-0.1v-0.2l0,0c0,0,0-0.1,0-0.1
			l1.1-3.6c-2.3-1.9-4.3-4.2-5.7-6.7c-1.1-1.8-1.8-3.8-2.2-5.8c-0.2-1.2-0.3-2.3-0.3-3.5c0-1.2,0.2-2.5,0.5-3.7
			c0.3-1.3,0.8-2.5,1.4-3.7l1-1.8c0.2-0.4,0.5-0.8,0.8-1.1l0.4-0.6c1.8-2.4,4.1-4.3,6.8-5.5c2.9-1.3,6.1-1.8,9.2-1.5
			c3.3,0.2,6.5,1.3,9.2,3.3c3.6,2.6,6.2,6.3,7.6,10.5c0.6,2,0.9,4.1,0.8,6.2c0,0.4,0,0.8-0.1,1.2l-0.1,0.5c0,0.5-0.1,0.9-0.2,1.4
			l-0.1,0.5c-0.1,0.3-0.2,0.6-0.2,0.9l-0.5,1.4c-0.7,1.8-1.8,3.3-3.2,4.7c-1.3,1.2-2.7,2.3-4.3,3.1c-2.7,1.4-5.6,2.4-8.6,2.9
			l-1.1,4.3l0.2,0.1l-0.3,0.2l-0.1,0.5l-0.5-0.1L523.1,145.2z M512.4,141.3l2.8,0.7l8.2,2.2l1-4l-0.3,0.1l0.3-0.3l0.1-0.5h0.2h0.3
			l0.3-0.3l-0.1,0.2c2.8-0.5,5.5-1.5,8-2.8c1.5-0.8,2.9-1.8,4.1-3c1.3-1.3,2.3-2.8,3-4.4c1.5-3.6,1.6-7.7,0.4-11.4
			c-1.3-4-3.8-7.6-7.3-10.1c-2.6-1.9-5.6-2.9-8.8-3.1c-3-0.3-6,0.2-8.8,1.4c-2.6,1.1-4.8,2.9-6.5,5.2c-0.1,0.2-0.3,0.4-0.4,0.6
			c-0.3,0.3-0.5,0.7-0.7,1.1l-1,1.7c-0.6,1.1-1,2.3-1.3,3.5c-0.3,1.2-0.5,2.3-0.5,3.5c0,1.1,0.1,2.2,0.3,3.3c0.4,2,1.1,3.9,2.1,5.6
			c1.4,2.4,3.2,4.6,5.3,6.4l0.1-0.3l0.2,0.5l0.1,0.1l0.1,0.1l-0.1,0.3l0.2,0.6l-0.3-0.2L512.4,141.3L512.4,141.3z"/>
		<path class="st5" d="M522.9,148c-2-0.4-4-0.9-6-1.5c-2-0.5-4-1.1-5.9-1.8C515,145.5,519,146.6,522.9,148L522.9,148z"/>
		<path class="st5" d="M522.9,148.2c-2.1-0.3-4.1-0.8-6.1-1.5c-6.2-1.7-6.1-1.9-6.1-2.1s0.1-0.3,2.1,0.2c1.1,0.3,2.6,0.7,4.2,1.1
			c6.2,1.7,6.1,1.9,6.1,2.1v0.1l-0.1,0.1C523,148.2,522.9,148.2,522.9,148.2z"/>
		<path class="st5" d="M517.8,151.4c-0.7,0-1.5-0.1-2.2-0.3c-0.7-0.2-1.4-0.5-2-1c0.7,0.1,1.4,0.3,2.1,0.6
			C516.4,150.8,517.1,151.1,517.8,151.4z"/>
		<path class="st5" d="M517.6,151.7c-0.7,0-1.4-0.2-2-0.4c-0.8-0.2-1.5-0.6-2.1-1.1v-0.1l0-0.1c0.1-0.3,0.3-0.2,1.4,0.2l1,0.3l1,0.3
			c1.1,0.3,1.3,0.4,1.3,0.7v0.1l-0.1,0.1C517.9,151.7,517.7,151.7,517.6,151.7z"/>
		<path class="st5" d="M514.5,142.2c0-0.1,0-0.1,0-0.2c0-0.1,0.1-0.3,0.2-0.6c0.2-0.5,0.4-1.3,0.7-2.2l2.5-8.1
			c0.5-1.7,1.1-3.6,1.7-5.6c0.2-0.5,0.2-1,0.2-1.5c0-0.5-0.4-0.9-0.8-1c-0.5,0-1,0.3-1.2,0.8c-0.3,0.5-0.3,1-0.2,1.6
			c0.5,2,2.5,3.1,4.4,2.7c0.4-0.1,0.8-0.3,1.2-0.5c1.1-0.7,1.8-1.7,2.2-2.9c0.2-0.6,0.3-1.2,0.1-1.9c-0.1-0.6-0.7-1-1.3-1
			c-0.6,0.1-1.1,0.6-1.1,1.2c0,0.6,0.1,1.3,0.4,1.8c0.5,1.2,1.2,2.2,2.2,3c0.5,0.4,1.1,0.6,1.7,0.7c0.6,0.1,1.2,0,1.8-0.2
			c0.5-0.2,1-0.5,1.3-1c0.3-0.5,0.5-1,0.3-1.6c-0.1-0.5-0.5-1-1-1.1c-0.5-0.1-1,0-1.4,0.4c-0.7,0.8-1.2,1.7-1.5,2.7
			c-0.8,1.9-1.4,3.8-2,5.4c-1.2,3.3-2.1,6-2.8,7.9c-0.3,0.9-0.6,1.6-0.8,2.2c-0.1,0.2-0.2,0.4-0.2,0.6s-0.1,0.2-0.1,0.2
			c0-0.1,0-0.1,0-0.2c0-0.1,0.1-0.3,0.2-0.6l0.7-2.2c0.6-1.9,1.5-4.6,2.7-8c0.6-1.7,1.2-3.5,2-5.5c0.2-0.5,0.4-1,0.6-1.5
			c0.2-0.5,0.6-1,1-1.4c0.5-0.4,1.1-0.6,1.7-0.5c0.6,0.2,1.1,0.7,1.2,1.4c0.1,0.6,0,1.3-0.4,1.8c-0.4,0.5-0.9,0.9-1.5,1.2
			c-0.6,0.2-1.3,0.3-1.9,0.2c-0.7-0.1-1.3-0.4-1.8-0.7c-1.1-0.8-1.9-1.9-2.4-3.2c-0.3-0.6-0.4-1.3-0.4-2c0-0.9,0.7-1.6,1.5-1.6
			c0.8,0,1.4,0.6,1.6,1.3c0.2,0.7,0.1,1.4-0.1,2.1c-0.4,1.3-1.3,2.4-2.4,3.1c-1.1,0.8-2.5,0.9-3.8,0.4c-1.2-0.5-2.1-1.5-2.4-2.8
			c-0.1-0.6,0-1.3,0.3-1.8c0.3-0.6,0.9-0.9,1.5-0.9c0.3,0,0.6,0.2,0.8,0.4c0.2,0.2,0.3,0.5,0.3,0.8c0,0.6,0,1.1-0.2,1.6
			c-0.6,2-1.2,3.9-1.8,5.5c-1.1,3.4-2,6.1-2.6,8c-0.3,0.9-0.5,1.6-0.7,2.2l-0.2,0.6C514.5,142.1,514.5,142.1,514.5,142.2z"/>
		<path class="st5" d="M520.9,144.2L520.9,144.2c-0.3-0.1-0.3-0.3-0.2-0.5l0.9-2.8c0.6-1.8,1.5-4.6,2.7-8c0.5-1.4,1-2.8,1.6-4.3
			c-0.2-0.1-0.4-0.2-0.6-0.3c-0.4-0.3-0.7-0.6-1-0.9c-0.3,0.3-0.6,0.5-0.9,0.7c-1.2,0.8-2.7,1-4,0.4l-0.2-0.1l-4.4,13.6
			c-0.1,0.2-0.2,0.4-0.4,0.4s-0.2-0.3-0.1-0.5l0.8-2.8l3.4-11.1c-0.9-0.6-1.4-1.5-1.7-2.5c-0.1-0.7,0-1.4,0.3-2c0.3-0.6,1-1,1.8-1.1
			c0.4,0,0.8,0.2,1,0.5c0.2,0.3,0.4,0.6,0.4,1c0,0.6,0,1.2-0.2,1.7l-0.6,1.9l0.2,0.1c1.1,0.4,2.3,0.3,3.2-0.4
			c0.3-0.2,0.6-0.4,0.8-0.6c-0.4-0.5-0.7-1.1-0.9-1.7c-0.3-0.7-0.5-1.4-0.4-2.2c0-1,0.9-1.8,1.9-1.7c0.8,0,1.5,0.6,1.7,1.4
			c0.2,0.7,0.1,1.5-0.1,2.2c-0.2,0.7-0.6,1.4-1,1.9c0.3,0.3,0.6,0.6,0.9,0.9c0.1,0.1,0.2,0.2,0.4,0.2c0-0.1,0.1-0.2,0.1-0.4l0.2-0.4
			c0.2-0.4,0.3-0.7,0.5-1.1c0.2-0.6,0.6-1.1,1.1-1.5c0.5-0.5,1.2-0.7,1.9-0.5c0.7,0.2,1.3,0.8,1.4,1.6c0.1,0.7,0,1.4-0.4,2
			c-0.4,0.6-1,1-1.6,1.3c-0.6,0.3-1.3,0.3-2,0.3c-0.2,0-0.4-0.1-0.7-0.1c-0.6,1.5-1.1,3-1.6,4.2l-3.8,10.7
			C521.1,144,521,144.2,520.9,144.2z M526.9,128.1c0.1,0,0.3,0.1,0.4,0.1c0.5,0.1,1.1,0,1.6-0.2c0.5-0.2,0.9-0.5,1.2-0.9
			c0.3-0.4,0.4-0.9,0.3-1.4c-0.1-0.4-0.4-0.8-0.8-0.9c-0.4-0.1-0.9,0.1-1.2,0.3c-0.6,0.6-1,1.2-1.2,2c-0.1,0.2-0.2,0.4-0.3,0.6
			L526.9,128.1z M518.8,123.3c-0.4,0.1-0.7,0.3-0.9,0.7c-0.2,0.4-0.3,0.9-0.2,1.4c0.2,0.7,0.5,1.3,1.1,1.8l0.5-1.6
			c0.2-0.5,0.2-0.9,0.2-1.4C519.5,123.7,519.2,123.4,518.8,123.3L518.8,123.3z M524.2,122L524.2,122c-0.5,0.1-0.9,0.5-0.9,1
			c0,0.6,0.1,1.2,0.3,1.7c0.2,0.5,0.4,0.9,0.7,1.3c0.3-0.4,0.5-0.9,0.7-1.4c0.2-0.5,0.3-1.1,0.1-1.7C525,122.4,524.6,122,524.2,122
			L524.2,122z"/>
		<path class="st5" d="M521.2,149.9c-1.7-0.3-3.3-0.7-4.9-1.2c-1.6-0.4-3.2-0.9-4.8-1.5C514.8,147.9,518.1,148.8,521.2,149.9
			L521.2,149.9z"/>
		<path class="st5" d="M521.2,150.2c-1.7-0.2-3.3-0.6-4.9-1.2c-5.1-1.4-5-1.6-4.9-1.8v-0.1l0.1-0.1c0.1,0,0.3-0.2,5.1,1.1
			c4.8,1.3,4.9,1.6,4.9,1.6l0.1,0.1l-0.1,0.2l-0.1,0.1C521.3,150.2,521.2,150.2,521.2,150.2z"/>
		<path class="st12" d="M342.2,149.3h-63c-2.4,0-4.4,2-4.4,4.4v38.4c0,2.4,2,4.4,4.4,4.4h36.8l16.9,14.4v-14.4h9.4
			c2.4,0,4.4-2,4.4-4.4v-38.4C346.6,151.2,344.6,149.3,342.2,149.3C342.2,149.3,342.2,149.3,342.2,149.3z"/>
		<path class="st4" d="M342.2,149.3c0.4,0,0.8,0,1.1,0.1c1.1,0.3,2,1,2.6,1.9c0.4,0.7,0.7,1.5,0.7,2.3c0,0.9,0,1.9,0,2.9
			c0,2.1,0,4.5,0,7.2c0,5.4,0,11.9,0,19.4c0,1.9,0,3.8,0,5.8c0,1,0,2,0,3c0,1.1-0.3,2.1-1,3c-0.7,0.9-1.7,1.5-2.8,1.6
			c-0.5,0.1-1.1,0.1-1.6,0.1h-8.4l0.2-0.2c0,4.5,0,9.4,0,14.4v0.5l-0.4-0.3l-16.9-14.3l0.2,0.1h-36.5c-2.3,0.1-4.3-1.5-4.8-3.8
			c-0.1-0.5-0.1-1.1-0.1-1.6v-7.7c0-8.1,0-16,0-23.5v-5.5c0-0.5,0-0.9,0-1.4c0.2-1.4,1-2.7,2.2-3.4c0.8-0.5,1.7-0.7,2.6-0.6h7.7
			h18.5l26.8,0.1h7.3h1.9h0.6h-0.6h-1.9h-7.3l-26.8,0.1H287h-7.7c-0.8,0-1.7,0.2-2.4,0.6c-0.7,0.4-1.3,1.1-1.6,1.9
			c-0.2,0.4-0.3,0.8-0.3,1.2c0,0.4,0,0.9,0,1.3c0,1.8,0,3.7,0,5.5c0,7.5,0,15.3,0,23.4v7.7c0,0.5,0,1,0.1,1.5c0.2,1,0.7,1.9,1.5,2.5
			c0.8,0.6,1.8,1,2.8,0.9h36.7l0.1,0.1l16.9,14.6l-0.4,0.2c0-5,0-9.8,0-14.4v-0.2h8.6c0.5,0,1.1,0,1.6,0c1-0.1,1.9-0.7,2.6-1.5
			c1.4-1.6,0.8-3.8,1-5.8c0.1-2,0-3.9,0-5.8c0-7.5,0-14,0-19.4c0-2.7,0-5.1,0-7.2c0-1,0-2,0-2.9c0-0.8-0.2-1.6-0.6-2.2
			c-0.6-0.9-1.5-1.6-2.5-1.9C342.9,149.4,342.5,149.3,342.2,149.3z"/>
		<path class="st4" d="M334.1,164.1c0,0.1-10.5,0.3-23.4,0.3s-23.4-0.1-23.4-0.3c0-0.1,10.5-0.3,23.4-0.3S334.1,164,334.1,164.1z"/>
		<path class="st4" d="M334.1,171.5c0,0.1-10.5,0.3-23.4,0.3s-23.4-0.1-23.4-0.3c0-0.2,10.5-0.3,23.4-0.3S334.1,171.4,334.1,171.5z"
			/>
		<path class="st4" d="M334.1,179c0,0.1-10.5,0.3-23.4,0.3s-23.4-0.1-23.4-0.3c0-0.1,10.5-0.3,23.4-0.3S334.1,178.9,334.1,179z"/>
		<path class="st9" d="M254.2,44.2c3.2,12.7-6.1,25.2-17.9,31s-25.3,6-38.4,6.2s-26.7,0.5-38.3,6.5c-12.4,6.3-20.8,18.2-28.5,29.8
			s-15.3,23.8-26.9,31.4s-28.4,9.4-38.7,0V58.7c0-8,6.5-14.5,14.5-14.5l0,0L254.2,44.2z"/>
		<circle class="st5" cx="118.8" cy="93.8" r="12.5"/>
		<path class="st4" d="M281.9,78.4c0-0.2,11.2-0.3,25.1-0.3s25.1,0.2,25.1,0.3"/>
		<path class="st4" d="M399,78.4c0,0.2-11.3,0.3-25.1,0.3s-25.1-0.2-25.1-0.3S360,78,373.9,78S399,78.2,399,78.4z"/>
		<path class="st4" d="M465.9,78.4c0,0.2-11.3,0.3-25.1,0.3s-25.1-0.2-25.1-0.3s11.2-0.3,25.1-0.3S465.9,78.2,465.9,78.4z"/>
		<path class="st4" d="M533.4,78.4c0,0.2-11.2,0.3-25.1,0.3c-13.9,0-25.1-0.2-25.1-0.3s11.3-0.3,25.1-0.3
			C522.1,78,533.4,78.2,533.4,78.4z"/>
		<path class="st4" d="M592,86.4c0,0,0.4,0,1.2-0.2c1.1-0.3,2.1-0.9,2.9-1.8c0.5-0.6,0.9-1.4,1.2-2.2c0.2-1,0.3-2,0.2-3
			c-0.1-2.1,0.5-4.8-1.4-6.8c-0.9-1-2.2-1.7-3.6-1.8c-1.5,0-3,0-4.6,0h-10.2h-23.5c-2,0-3.8,1.1-4.7,2.9c-0.4,0.9-0.6,1.8-0.6,2.8
			c0,1,0,2,0,3c-0.1,0.9,0,1.9,0.2,2.8c0.2,0.9,0.7,1.7,1.3,2.3c0.6,0.6,1.4,1.1,2.2,1.4c0.9,0.2,1.7,0.3,2.6,0.2l19.2,0.1l12.9,0.1
			l3.5,0.1h0.9c0.1,0,0.2,0,0.3,0c-0.1,0-0.2,0-0.3,0h-0.9l-3.5,0.1l-12.9,0.1l-19.2,0.1c-0.9,0.1-1.9,0-2.8-0.2
			c-2-0.6-3.5-2.2-4-4.1c-0.1-0.5-0.2-1-0.2-1.5v-4.2c-0.1-1.1,0.2-2.1,0.7-3.1c1-2,3.1-3.2,5.3-3.2h23.5h10.2c1.6,0,3.1,0,4.7,0
			c1.5,0.1,2.9,0.9,3.9,2c0.9,1,1.4,2.3,1.5,3.7c0,1.2,0,2.4,0,3.5c0.1,1,0,2-0.2,3c-0.2,0.8-0.7,1.6-1.3,2.2
			c-0.8,0.9-1.9,1.5-3,1.7C592.9,86.3,592.4,86.4,592,86.4z"/>
		<path class="st1" d="M190.8,318.3h-61c-6.1,0-11.1-5-11.1-11.1l0,0l0,0c0-6.1,5-11.1,11.1-11.1c0,0,0,0,0,0h61
			c6.1,0,11.1,5,11.1,11.1l0,0l0,0C201.9,313.4,196.9,318.3,190.8,318.3C190.8,318.3,190.8,318.3,190.8,318.3z"/>
		<path class="st4" d="M234.2,225.9c0,0.2-26.1,0.4-58.2,0.4s-58.2-0.2-58.2-0.4s26-0.4,58.2-0.4S234.2,225.7,234.2,225.9z"/>
		<path class="st4" d="M234.2,247c0,0.2-26.1,0.4-58.2,0.4s-58.2-0.2-58.2-0.4s26-0.4,58.2-0.4S234.2,246.8,234.2,247z"/>
		<path class="st4" d="M186.7,268.1c0,0.2-15.4,0.4-34.4,0.4s-34.4-0.2-34.4-0.4s15.4-0.4,34.4-0.4S186.7,267.9,186.7,268.1z"/>
		<path class="st5" d="M184.2,202.5c0,0.1-14.6,0.3-32.7,0.3s-32.7-0.1-32.7-0.3s14.6-0.3,32.7-0.3S184.2,202.4,184.2,202.5z"/>
		<path class="st4" d="M611.2,424.3c1.6,0,3.2-0.4,4.6-1c1.8-0.8,3.3-2.1,4.4-3.7c0.7-1,1.2-2.2,1.6-3.4c0.3-1.4,0.5-2.9,0.4-4.3
			c0-12.3,0-30.5,0-53.9c0-46.8,0-114.5-0.1-198.2c0-20.9,0-42.8,0-65.7V63.5c0-1.5,0-3-0.1-4.4c-0.3-2.9-1.5-5.7-3.2-8.1
			c-0.4-0.6-0.9-1.2-1.4-1.7c-0.5-0.5-1.1-1-1.7-1.5c-1.2-0.9-2.5-1.7-3.8-2.2c-1.4-0.6-2.9-0.9-4.3-1.1c-1.5-0.1-3-0.1-4.5-0.1
			h-9.3H436.5l-173.6,0H82.5c-1,0-2,0-3,0.1L78,44.8l-1.4,0.4c-3.8,1.2-7,3.8-8.9,7.3C66.8,54.1,66.2,56,66,58
			c-0.2,1.9-0.1,4-0.1,5.9v162.6c0,60.2,0,118.3,0,173.6v10.3c-0.1,1.7,0,3.4,0.3,5.1c0.4,1.6,1.1,3.2,2.2,4.5
			c2.1,2.6,5.4,4.1,8.8,4h50h76.3h136.9L611.2,424.3l-270.9,0.1H203.3H77.1c-5.4,0.2-10.2-3.6-11.4-8.9c-0.1-0.4-0.1-0.9-0.2-1.3
			s0-0.9,0-1.3v-2.5c0-3.4,0-6.9,0-10.3c0-55.3,0-113.4,0-173.6v-91.9c0-15.6,0-31.2,0-47V63.9c0-2-0.1-4,0.1-6
			c0.7-6.2,5-11.4,11-13.3l1.4-0.4c0.5-0.1,1-0.2,1.5-0.2c1-0.1,2-0.1,3-0.1h354h157.1h9.2c1.5,0,3,0,4.6,0.1c1.5,0.2,3,0.6,4.4,1.1
			c1.4,0.6,2.8,1.3,4,2.3c0.6,0.5,1.2,1,1.7,1.5c0.5,0.5,1,1.1,1.5,1.7c1.8,2.4,3,5.3,3.3,8.3c0.1,1.5,0.1,3,0.1,4.5v30.5
			c0,22.8,0,44.7,0,65.7c0,83.7-0.1,151.4-0.1,198.2c0,23.4,0,41.6,0,53.9c0.1,1.5-0.1,2.9-0.4,4.3c-0.9,3.2-3.1,5.8-6.1,7.2
			c-1.1,0.5-2.3,0.8-3.4,1C611.6,424.3,611.2,424.3,611.2,424.3z"/>
	</g>
	<g id="freepik--Device--inject-548_00000021826229838259877660000003747248317138721967_">
		<path class="st0" d="M507.9,386.1l-104.3,11.4c-8.4,0.9-15.9-5.1-16.9-13.5c0,0,0,0,0,0l-25.7-234.8c-1-9.6,5.9-18.2,15.4-19.2
			l102.3-11.2c8.5-0.9,16.1,5.2,17,13.7l25.9,236.4C522.7,377.4,516.5,385.1,507.9,386.1z"/>
		<path class="st4" d="M493.8,133.6l25.7,234.7c0.9,7.9-4.8,14.9-12.7,15.8l-102.3,11.2c-7.9,0.9-14.9-4.8-15.8-12.7l-25.7-234.7
			c-0.9-7.9,4.8-14.9,12.7-15.8L478,120.9C485.9,120.1,493,125.7,493.8,133.6z"/>
		<path class="st0" d="M418.1,136c-0.8,0.1-1.6-0.6-1.6-1.4c-0.1-0.8,0.5-1.5,1.3-1.6l19.3-2.1c0.8-0.1,1.6,0.6,1.6,1.4
			c0.1,0.8-0.5,1.5-1.3,1.6L418.1,136z"/>
		<path class="st0" d="M407.8,137.1c-0.8,0.1-1.6-0.5-1.7-1.3s0.5-1.6,1.3-1.7c0.8-0.1,1.6,0.5,1.7,1.3c0,0,0,0,0,0
			C409.2,136.3,408.6,137,407.8,137.1z"/>
		<path class="st0" d="M413.3,136.5c-0.8,0.1-1.6-0.5-1.7-1.3c-0.1-0.8,0.5-1.6,1.3-1.7c0,0,0.1,0,0.1,0c0.8-0.1,1.6,0.5,1.7,1.3
			c0,0,0,0,0,0C414.7,135.7,414.1,136.4,413.3,136.5z"/>
		<path class="st0" d="M447.9,132.8c-0.8,0.1-1.6-0.5-1.7-1.3c-0.1-0.8,0.5-1.6,1.3-1.7c0.8-0.1,1.6,0.5,1.7,1.3
			C449.3,131.9,448.7,132.7,447.9,132.8z"/>
		<path class="st0" d="M442.4,133.4c-0.8,0.1-1.6-0.5-1.7-1.3c-0.1-0.8,0.5-1.6,1.3-1.7c0.8-0.1,1.6,0.5,1.7,1.3
			C443.8,132.5,443.2,133.3,442.4,133.4C442.4,133.4,442.4,133.4,442.4,133.4z"/>
		<path class="st9" d="M474.9,123.1l-18.2,2c-1.8,0.2-3.2,1.5-3.5,3.3l-0.9,5.3c-0.3,2-1.9,3.4-3.9,3.7l-40.3,4.4
			c-2,0.2-3.8-0.9-4.6-2.7l-2-5c-0.7-1.6-2.4-2.6-4.1-2.4l-18.2,2c-8,0.9-13.8,8.1-12.9,16.1l25,228.8c0.9,8,8,13.8,16,12.9
			c0,0,0,0,0,0l95.7-10.5c8-0.9,13.8-8.1,12.9-16.1c0,0,0,0,0,0L491,136C490.2,128,483,122.2,474.9,123.1
			C475,123.1,475,123.1,474.9,123.1z"/>
		<path class="st3" d="M485.7,126.3c-3-2.5-6.9-3.6-10.8-3.2l-18.2,2c-1.8,0.2-3.2,1.5-3.5,3.3l-0.9,5.3c-0.3,2-1.9,3.4-3.9,3.7
			l-40.3,4.4c-2,0.2-3.8-0.9-4.6-2.7l-2-5c-0.7-1.6-2.4-2.6-4.1-2.4l-18.2,2c-8,0.9-13.8,8.1-12.9,16.1l18,164h0.4
			c12.3,0,23.3-9,28.8-19.9s6.5-23.7,6.4-36s-1.4-24.6,0.2-36.9c2.7-20.7,13.2-39.6,29.2-52.9c7.9-6.4,16.9-11.4,24.3-18.4
			C480.2,143.4,485.5,135.1,485.7,126.3z"/>
		<path class="st3" d="M516.1,364.8l-7.2-66.2c-33.2,7.1-54.4,39.7-47.4,72.9c1,4.6,2.5,9.1,4.5,13.4l37.2-4.1
			C511.1,380,516.9,372.8,516.1,364.8C516.1,364.8,516.1,364.8,516.1,364.8z"/>
		<path class="st0" d="M500.5,175.1L500.5,175.1c0.5-0.1,0.9,0.3,1,0.8c0,0,0,0,0,0l3.2,29c0.1,0.5-0.3,0.9-0.8,1c0,0,0,0,0,0l0,0
			L500.5,175.1z"/>
		<path class="st0" d="M367.6,208.8L367.6,208.8c-0.5,0.1-0.9,0.5-0.8,1l1.9,17.6c0.1,0.5,0.5,0.9,1,0.8l0,0L367.6,208.8z"/>
		<path class="st0" d="M364.8,183.4L364.8,183.4c-0.5,0.1-0.9,0.5-0.8,1l1.9,17.6c0.1,0.5,0.5,0.9,1,0.8l0,0L364.8,183.4z"/>
		<path class="st0" d="M362.7,164.3L362.7,164.3c-0.4,0-0.7,0.4-0.7,0.9c0,0,0,0,0,0l0.8,7.5c0.1,0.4,0.4,0.7,0.9,0.7l0,0
			L362.7,164.3z"/>
		
			<rect x="460.2" y="133.5" transform="matrix(0.9941 -0.1087 0.1087 0.9941 -11.8505 50.8658)" class="st3" width="0.9" height="1.3"/>
		
			<rect x="461.7" y="132.7" transform="matrix(0.9941 -0.1089 0.1089 0.9941 -11.8046 51.1066)" class="st3" width="0.9" height="1.9"/>
		
			<rect x="463.2" y="132.2" transform="matrix(0.9941 -0.1087 0.1087 0.9941 -11.7442 51.183)" class="st3" width="0.9" height="2.3"/>
		
			<rect x="464.6" y="131.1" transform="matrix(0.9941 -0.1087 0.1087 0.9941 -11.6709 51.3378)" class="st3" width="0.9" height="3.2"/>
		<path class="st3" d="M479.4,132.8l-4.6,0.5c-0.2,0-0.3-0.1-0.4-0.3l-0.3-2.3c0-0.2,0.1-0.3,0.3-0.4l4.7-0.5c0,0,0,0,0.1,0
			c0,0,0,0,0,0.1l0.1,0.8h0.5c0,0,0.1,0,0.1,0.1c0,0,0,0,0,0l0.1,1.1c0,0,0,0.1-0.1,0.1c0,0,0,0,0,0h-0.5l0.1,0.8
			C479.5,132.7,479.5,132.8,479.4,132.8z M479,130l-4.6,0.5c-0.1,0-0.2,0.1-0.1,0.2c0,0,0,0,0,0l0.2,2.3c0,0.1,0.1,0.2,0.2,0.1
			l4.6-0.5l-0.1-0.8c0,0,0-0.1,0-0.1c0,0,0,0,0,0l0.5-0.1l-0.1-0.9l-0.5,0c0,0-0.1,0-0.1-0.1c0,0,0,0,0,0L479,130z"/>
		<polygon class="st3" points="474.9,132.7 474.7,130.8 478.7,130.4 478.8,131.3 478.8,131.4 478.9,132.3 		"/>
		<path class="st3" d="M470.2,133.6c0-0.2-0.2-0.3-0.4-0.3c0,0,0,0,0,0c-0.2,0-0.3,0.2-0.3,0.4c0,0.2,0.2,0.3,0.4,0.3l0,0
			C470,134,470.2,133.8,470.2,133.6C470.2,133.6,470.2,133.6,470.2,133.6z"/>
		<path class="st3" d="M468.6,133l0.5,0.4c0.2-0.2,0.4-0.3,0.7-0.4c0.3,0,0.5,0,0.8,0.2l0.4-0.5C470.2,132.1,469.1,132.3,468.6,133
			C468.6,133,468.6,133,468.6,133L468.6,133z"/>
		<path class="st3" d="M469.6,131.4c-0.7,0.1-1.3,0.4-1.8,1l0.5,0.4c0.3-0.4,0.8-0.7,1.4-0.7c0.5-0.1,1.1,0.1,1.5,0.4l0.4-0.5
			C471,131.5,470.3,131.3,469.6,131.4z"/>
		<path class="st3" d="M467,131.7l0.5,0.4c0.5-0.6,1.2-1,2-1.1c0.8-0.1,1.6,0.1,2.2,0.6l0.4-0.5C470.6,129.9,468.3,130.2,467,131.7
			C467,131.7,467,131.7,467,131.7L467,131.7z"/>
		<circle class="st10" cx="468.2" cy="246.9" r="16.6"/>
	</g>
	<g id="freepik--Plants--inject-548_00000139268209721281133420000013651641604682354313_">
		<path class="st4" d="M632.6,147.3c0,0,0-0.2,0.1-0.5s0.2-0.8,0.3-1.4c0.3-1.2,0.7-3,1.2-5.2c1-4.5,2.5-11.1,4.3-19.1
			c3.7-16.2,8.8-38.5,14.5-63.3l0.2-1.1l0.2,1.1c0.1,0.4,0.2,0.9,0.3,1.4c5.7,25.1,10.8,47.8,14.5,64.3c1.8,8.2,3.3,14.9,4.3,19.5
			l1.2,5.3l0.3,1.4c0.1,0.3,0.1,0.5,0.1,0.5s0-0.1-0.1-0.5c-0.1-0.3-0.2-0.8-0.3-1.4c-0.3-1.2-0.7-3-1.2-5.3
			c-1.1-4.6-2.6-11.3-4.5-19.5l-14.6-64.3c-0.1-0.5-0.2-1-0.3-1.4h0.5c-5.7,24.7-10.9,47.1-14.7,63.2c-1.9,8.1-3.4,14.6-4.5,19.1
			l-1.3,5.2c-0.1,0.6-0.3,1-0.3,1.3S632.6,147.3,632.6,147.3z"/>
		<path class="st0" d="M632.6,166.1v-15.9h42.4v15.9c0,10.2-8.3,18.5-18.5,18.5h-5.4C640.9,184.5,632.6,176.3,632.6,166.1z"/>
		<path class="st4" d="M632.6,150.2c0.2,0.2,0.3,0.4,0.5,0.7l1.3,2c1.1,1.8,2.7,4.2,4.7,7.3l15.2,24.1l0.1,0.2h-0.4l14.8-24.3
			l4.5-7.3c0.5-0.8,0.9-1.5,1.3-2c0.1-0.2,0.3-0.5,0.5-0.7c-0.1,0.3-0.2,0.5-0.4,0.7c-0.3,0.5-0.7,1.2-1.2,2l-4.4,7.4l-14.7,24.4
			l-0.2,0.4l-0.2-0.4l-0.1-0.2l-15.1-24.2l-4.5-7.4l-1.2-2C632.8,150.7,632.7,150.5,632.6,150.2z"/>
		<path class="st4" d="M657.9,57.7c0,2.6-2.1,4.6-4.6,4.6s-4.6-2.1-4.6-4.6c0-2.6,2.1-4.6,4.6-4.6S657.9,55.2,657.9,57.7L657.9,57.7
			z"/>
		<path class="st4" d="M653.3,0c0.2,0,0.3,13.1,0.3,29.3s-0.1,29.2-0.3,29.2s-0.3-13.1-0.3-29.3S653.2,0,653.3,0z"/>
		<path class="st4" d="M655.7,186.3c0,1.1-0.9,2-2,2s-2-0.9-2-2c0-1.1,0.9-2,2-2S655.7,185.2,655.7,186.3z"/>
		<path class="st4" d="M652.9,187l0.3-0.2c-1.1,0.7-1.9,1.9-2,3.3c-0.1,1.3,0,2.7,0.3,3.9c0.1,0.4,0.3,0.9,0.7,0.9s0.6-0.5,0.6-0.9
			c0.1-0.8,0.2-1.6,0.1-2.4c0,1,0.3,2,0.9,2.8c0.1,0.1,0.3,0.3,0.5,0.3c0.2,0,0.3-0.2,0.3-0.4c0.2-0.7,0.3-1.3,0.3-2
			c0,0.6,0.3,1.2,0.6,1.6c0.4,0.5,1.1,0.5,1.5,0.1c0,0,0,0,0,0c0.2-0.3,0.3-0.8,0.2-1.2c-0.3-2.4-1.3-4.6-2.8-6.5"/>
		<path class="st5" d="M635.2,150.2c0,0-19-22-16.9-22.7c2.1-0.8,19,11.4,19,11.4s-14.5-32.5-11.6-34.9s18.3,28.8,18.3,28.8
			s-2.4-45.5,0-46s11.1,45.5,11.1,45.5s13-42.1,16.7-42.1s-4,40.5-4,40.5s15.3-25.9,17.7-22.5s-10.8,31.5-10.8,31.5
			s19.3-16.1,20.1-14s-20.9,24.6-20.9,24.6L635.2,150.2z"/>
		<path class="st4" d="M632.6,117.2c0.1-0.1,3.5,7.2,7.5,16.2c4,9,7.2,16.3,7.1,16.4s-3.5-7.2-7.5-16.2S632.4,117.2,632.6,117.2z"/>
		<path class="st4" d="M647.9,121.2c0.2,0,0.7,6.4,1.3,14.3s0.9,14.3,0.7,14.3c-0.1,0-0.7-6.4-1.2-14.2S647.8,121.2,647.9,121.2z"/>
		<path class="st4" d="M669.2,100.8c0,0.2,0,0.4-0.1,0.5l-0.4,1.4c-0.4,1.3-0.9,3.1-1.6,5.3c-1.3,4.5-3.2,10.7-5,17.5
			c-1.8,6.9-3.4,13.2-4.4,17.7c-0.5,2.2-1,4-1.3,5.4c-0.1,0.6-0.3,1.1-0.4,1.5c0,0.2-0.1,0.3-0.2,0.5c0-0.2,0-0.4,0.1-0.5
			c0.1-0.4,0.2-0.9,0.3-1.5c0.2-1.3,0.6-3.1,1.1-5.4c1-4.6,2.4-10.9,4.3-17.8c1.8-6.9,3.7-13.1,5.1-17.5c0.7-2.2,1.3-4,1.8-5.2
			c0.2-0.6,0.4-1,0.5-1.4C669,101.1,669.1,101,669.2,100.8z"/>
		<path class="st4" d="M678.4,124.3c0.1,0.1-3.6,5.6-8.3,12.4s-8.6,12.2-8.7,12.1c-0.1-0.1,3.6-5.6,8.3-12.4
			S678.2,124.2,678.4,124.3z"/>
		<path class="st4" d="M641.7,149.7c-0.6-0.3-1.2-0.7-1.7-1.2c-1.3-1.1-2.5-2.2-3.6-3.4c-1.1-1.2-2.2-2.4-3.2-3.7
			c-0.5-0.5-0.8-1.1-1.2-1.7c0.1-0.1,2.1,2.3,4.8,5C639.4,147.5,641.8,149.6,641.7,149.7z"/>
		<path class="st4" d="M653.2,141c0.4,1.5,0.6,3,0.7,4.5c0.2,1.5,0.3,3.1,0.2,4.6c-0.4-1.5-0.6-3-0.7-4.5
			C653.2,144.1,653.1,142.5,653.2,141z"/>
		<path class="st3" d="M674.9,160.1c-0.5,0.2-1.1,0.3-1.6,0.3c-1,0.2-2.6,0.4-4.5,0.7c-5,0.7-10,1.1-15,1.3c-5,0.2-10,0-15-0.6
			c-1.9-0.2-3.5-0.5-4.5-0.7c-0.6-0.1-1.1-0.2-1.6-0.4c0.6,0,1.1,0.1,1.7,0.2c1.1,0.2,2.6,0.4,4.5,0.6c5,0.5,10,0.7,15,0.5
			c5.8-0.2,11.1-0.7,15-1.2l4.5-0.5C673.9,160.2,674.4,160.1,674.9,160.1z"/>
		<path class="st3" d="M674.9,164.8c-0.5,0.2-1.1,0.3-1.6,0.3c-1,0.2-2.6,0.4-4.5,0.7c-5,0.7-10,1.1-15,1.3c-5,0.2-10,0-15-0.6
			c-1.9-0.2-3.5-0.5-4.5-0.7c-0.6-0.1-1.1-0.2-1.6-0.4c0.6,0,1.1,0.1,1.7,0.2c1.1,0.2,2.6,0.4,4.5,0.6c5,0.5,10,0.7,15,0.5
			c5.8-0.2,11.1-0.7,15-1.2l4.5-0.5C673.9,164.9,674.4,164.8,674.9,164.8z"/>
		<path class="st5" d="M99,387.7c1-3.4,3.1-6.7,6.4-8.1s7.3-0.6,10.8,0.6s6.9,3,10.6,3.2s7.9-1.5,9-5.1c1-3.3-1-6.9-3.5-9.3
			c-8.7-8.4-22.6-8.1-31,0.6c-2.2,2.3-3.9,5-4.9,8"/>
		<g class="st13">
			<path d="M99,387.7c1-3.4,3.1-6.7,6.4-8.1s7.3-0.6,10.8,0.6s6.9,3,10.6,3.2s7.9-1.5,9-5.1c1-3.3-1-6.9-3.5-9.3
				c-8.7-8.4-22.6-8.1-31,0.6c-2.2,2.3-3.9,5-4.9,8"/>
		</g>
		<path class="st5" d="M69.7,402.5c-5.4-5.1-5.2-14.1-2.4-21.1s8.6-12.3,15.2-15.9c13.1-6.9,28.5-7.4,42-1.4
			c-6.6,0.3-12.6,3.8-16.1,9.5c-3,4.9-3.6,10.9-6.1,16.1C96.5,402,82.2,407.6,69.7,402.5"/>
		<path class="st5" d="M67.1,371.5c-6-7.1-6.8-18.5-5.9-27.7s3-18.6,1.6-27.7c-0.9-5.4-3-10.6-3.7-16.1s0.3-11.6,4.5-15.1
			c4.9-4,12.5-3.1,17.6,0.7s8,9.8,10.1,15.7c4.7,13.1,6.4,27.6,2.6,40.9s-12.9,25.3-26.2,29.3"/>
		<path class="st4" d="M64.2,429.7c0-0.3,0-0.5,0-0.8c0-0.5,0-1.3,0.1-2.3c0.1-2,0.3-5,0.7-8.6c0.5-4.2,1.3-8.4,2.3-12.6
			c1.2-5.1,3.2-10,5.7-14.6c2.6-4.6,5.7-8.8,9.4-12.5c3-3.1,6.3-5.8,9.8-8.2c1.5-1,3-1.8,4.2-2.5s2.4-1.2,3.3-1.7l2.2-0.9
			c0.3-0.1,0.5-0.2,0.8-0.3c-0.2,0.2-0.5,0.3-0.7,0.4l-2.1,1c-0.9,0.5-2,1-3.3,1.7s-2.7,1.5-4.1,2.6c-7.8,5.3-14.3,12.4-19,20.7
			c-5.5,9.7-7,19.8-8.1,26.9c-0.5,3.6-0.7,6.5-0.9,8.5c-0.1,1-0.1,1.8-0.1,2.3C64.3,429.2,64.3,429.5,64.2,429.7z"/>
		<path class="st5" d="M12.4,343.6c-11.1,6.7-11.1,12.8-9.2,18.6s8.7,9.8,14.3,7.6c3.2-1.2,5.5-4,7.5-6.8s3.8-5.8,6.6-7.8
			s6.8-2.8,9.6-0.8"/>
		<g class="st13">
			<path d="M12.4,343.6c-11.1,6.7-11.1,12.8-9.2,18.6s8.7,9.8,14.3,7.6c3.2-1.2,5.5-4,7.5-6.8s3.8-5.8,6.6-7.8s6.8-2.8,9.6-0.8"/>
		</g>
		<path class="st5" d="M4.1,351c2.9-4,10.1-5.2,14.6-3.2s7.8,6,10.8,9.9s5.9,8.1,10,10.9s9.9,3.8,14,1c2.6-2,4.4-4.9,4.8-8.2
			c0.4-3.2,0.1-6.5-0.7-9.7c-1-4.7-2.6-9.5-6.3-12.5c-4.2-3.3-9.9-3.5-15.2-3.3c-6.1,0.2-12.3,0.6-18,2.8S6.6,345.4,4.1,351"/>
		<path class="st4" d="M54.9,420.8c0-0.1,0-0.2,0-0.2c0-0.2,0-0.4,0-0.7c0-0.7,0-1.6-0.1-2.8c-0.1-2.4-0.2-5.9-0.3-10.1
			s-0.3-9.4-0.6-15s-0.7-11.9-1.6-18.3c-0.4-3.1-1-6.3-1.8-9.3c-0.9-2.8-2-5.5-3.4-8.1c-1.2-2.4-2.7-4.6-4.3-6.8
			c-1.4-1.8-3-3.6-4.7-5.1c-2.5-2.3-5.3-4.2-8.4-5.7c-0.5-0.2-1-0.5-1.5-0.7l-1.1-0.3l-0.7-0.3c-0.1,0-0.2-0.1-0.2-0.1l0.2,0.1
			l0.7,0.2l1.1,0.4c0.4,0.2,0.9,0.4,1.5,0.6c3.1,1.4,5.9,3.3,8.5,5.6c1.7,1.6,3.3,3.3,4.8,5.2c1.6,2.1,3.1,4.4,4.4,6.8
			c1.4,2.6,2.6,5.4,3.5,8.2c0.9,3.1,1.5,6.2,1.9,9.4c0.9,6.5,1.3,12.7,1.6,18.4s0.4,10.8,0.5,15s0.1,7.8,0.1,10.1v2.8
			c0,0.3,0,0.5,0,0.7C55,420.7,55,420.8,54.9,420.8z"/>
		<path class="st4" d="M58.9,425.9c-0.5-1.6-0.9-3.2-1.2-4.8c-0.8-4.4-0.9-8.9-0.5-13.4c0.7-6.6,2.1-13.1,4.2-19.5
			c2.3-7.1,5.4-14.8,8-23c1.3-4,2.4-8.1,3.2-12.2c0.7-3.8,1.3-7.7,1.6-11.6c0.5-6.6,0.6-13.2,0.3-19.9c-0.2-5.7-0.5-10.2-0.7-13.4
			c-0.1-1.6-0.2-2.8-0.2-3.6c0-0.4,0-0.7,0-1c0-0.1,0-0.2,0-0.3c0,0.1,0,0.2,0.1,0.3c0,0.2,0.1,0.5,0.1,0.9c0.1,0.9,0.2,2.1,0.3,3.6
			c0.2,3.2,0.6,7.7,0.8,13.4c0.3,6.6,0.2,13.3-0.2,19.9c-0.3,3.9-0.8,7.8-1.6,11.7c-0.8,4.2-1.9,8.3-3.2,12.3
			c-2.7,8.2-5.8,15.9-8.1,23c-2.1,6.3-3.6,12.8-4.3,19.3c-0.4,4.4-0.3,8.9,0.4,13.3c0.3,1.6,0.5,2.8,0.8,3.6
			c0.1,0.4,0.2,0.7,0.2,0.9C58.9,425.6,59,425.8,58.9,425.9z"/>
		<polygon class="st0" points="86.5,430.9 34.3,430.9 33.2,420.8 86.5,420.8 		"/>
		<polygon class="st0" points="39.9,429.7 46.5,459.9 74.8,459.9 80.9,429.7 		"/>
		<path class="st0" d="M86.5,430.9c0,0.1-11.5,0.2-25.6,0.2s-25.6-0.2-25.6-0.3s11.5-0.2,25.7-0.2S86.5,430.7,86.5,430.9z"/>
		<path class="st4" d="M77.6,445.8c-1.4-1.1-3-2-4.6-2.6c-1.8-0.7-3.7-1.1-5.6-1.1c-2.3,0-4.7,0.4-6.9,1.3c-2.4,0.8-4.6,1.7-6.8,2.3
			c-1.9,0.4-3.9,0.5-5.8,0.2c-1.3-0.2-2.6-0.6-3.7-1.2c-0.3-0.2-0.6-0.4-0.9-0.6c-0.2-0.1-0.3-0.2-0.3-0.2s0.4,0.2,1.3,0.6
			c1.2,0.5,2.4,0.9,3.7,1c1.9,0.2,3.8,0.1,5.7-0.3c2.1-0.5,4.3-1.5,6.7-2.3c2.2-0.8,4.6-1.3,7-1.2c2,0.1,3.9,0.5,5.7,1.2
			c1.2,0.5,2.4,1.2,3.4,2c0.3,0.2,0.6,0.5,0.8,0.7C77.5,445.6,77.6,445.7,77.6,445.8z"/>
		<path class="st3" d="M77.2,447.8c-1.4-1-2.9-1.9-4.4-2.6c-1.7-0.7-3.5-1.1-5.4-1.1c-2.3,0-4.5,0.4-6.7,1.2
			c-2.3,0.8-4.4,1.7-6.5,2.2c-1.8,0.5-3.7,0.7-5.6,0.6c-1.3-0.1-2.5-0.4-3.7-1c-0.3-0.2-0.6-0.4-0.9-0.6c-0.2-0.1-0.3-0.2-0.3-0.2
			c0,0,0.4,0.2,1.2,0.6c1.1,0.5,2.4,0.8,3.6,0.8c1.9,0.1,3.7-0.2,5.5-0.7c2-0.6,4.2-1.5,6.5-2.2c2.2-0.8,4.5-1.2,6.8-1.2
			c1.9,0.1,3.8,0.5,5.6,1.3c1.2,0.5,2.3,1.2,3.3,2c0.3,0.2,0.5,0.4,0.8,0.7C77.1,447.7,77.2,447.8,77.2,447.8z"/>
		<path class="st3" d="M78.1,443.8c-1.5-1.1-3-2-4.7-2.8c-1.8-0.8-3.8-1.2-5.7-1.4c-2.4,0-4.8,0.4-7.1,1.2c-2.3,0.9-4.6,1.7-7,2.3
			c-2,0.3-4,0.3-6,0c-1.3-0.2-2.7-0.6-3.9-1.2c-0.3-0.2-0.6-0.4-0.9-0.6c-0.2-0.1-0.3-0.2-0.3-0.2s0.5,0.3,1.3,0.7
			c1.2,0.5,2.5,0.9,3.8,1c2,0.3,4,0.2,5.9-0.1c2.2-0.5,4.4-1.5,6.9-2.3c2.3-0.9,4.8-1.3,7.3-1.2c2,0.2,4,0.7,5.8,1.5
			c1.2,0.6,2.4,1.3,3.4,2.1c0.3,0.2,0.6,0.5,0.8,0.7C78,443.6,78.1,443.7,78.1,443.8z"/>
		<path class="st4" d="M86.9,430.9c0,0.1-11.7,0.2-26.2,0.2s-26.2-0.1-26.2-0.2s11.7-0.2,26.2-0.2S86.9,430.8,86.9,430.9z"/>
	</g>
	<g id="freepik--Character--inject-548_00000144314871415319789320000016286418645893644181_">
		<path class="st0" d="M323.8,364.9l-6.4,21.2c0,0-23.7,0.6-25.2,4.4l40.6,14l11.4-32.6L323.8,364.9z"/>
		<path class="st1" d="M330.6,388.6c0.7,0.5,0.9,1.5,0.5,2.3c-0.5,0.7-1.5,1-2.3,0.5c-0.8-0.6-1-1.6-0.5-2.4
			c0.6-0.7,1.7-0.8,2.4-0.3"/>
		<g class="st2">
			<path class="st3" d="M332.7,404.4l1-3.3l-39.3-12.1c0,0-2.1,0.2-2.3,1.5L332.7,404.4z"/>
		</g>
		<path class="st4" d="M316.8,385.6c-0.1,0.2,0.9,0.6,1.7,1.6s1,2,1.2,2s0.3-1.3-0.6-2.4S316.8,385.5,316.8,385.6z"/>
		<path class="st4" d="M311.9,385.9c-0.1,0.2,0.6,0.8,1,1.9s0.3,2,0.5,2.1s0.7-1,0.2-2.3S312,385.8,311.9,385.9z"/>
		<path class="st4" d="M307.8,390.2c0.2,0.1,0.8-0.8,0.6-2s-0.9-2-1.1-1.9s0.2,0.9,0.3,2S307.6,390.1,307.8,390.2z"/>
		<path class="st4" d="M318.8,381c0,0.2,1,0.2,2.1,0.7s1.8,1.1,2,1s-0.4-1.1-1.7-1.6S318.8,380.8,318.8,381z"/>
		<path class="st0" d="M294.7,336.8l-13,17.9c0,0-22.6-7.2-25.3-4.1l33.9,26.4l21.4-27.1L294.7,336.8z"/>
		<path class="st1" d="M293.3,361.4c0.5,0.7,0.4,1.7-0.3,2.3c-0.7,0.5-1.7,0.4-2.3-0.2c-0.5-0.8-0.4-1.8,0.3-2.5
			c0.8-0.5,1.9-0.3,2.4,0.5"/>
		<g class="st2">
			<path class="st3" d="M290.3,377.1l2-2.8L259.1,350c0,0-2-0.5-2.7,0.7L290.3,377.1z"/>
		</g>
		<path class="st4" d="M281.3,354.1c-0.1,0.2,0.6,0.9,1,2s0.3,2.2,0.5,2.2s0.7-1.1,0.2-2.5S281.4,354,281.3,354.1z"/>
		<path class="st4" d="M276.6,352.8c-0.2,0.1,0.3,1,0.4,2.1s-0.4,2-0.2,2.1s1-0.7,1-2.1S276.7,352.7,276.6,352.8z"/>
		<path class="st4" d="M271.2,355.5c0.1,0.1,1-0.5,1.3-1.7s-0.2-2.2-0.4-2.1s-0.1,0.9-0.3,2S271.1,355.4,271.2,355.5z"/>
		<path class="st4" d="M284.7,350.4c0,0.2,0.9,0.6,1.8,1.4s1.4,1.6,1.6,1.6s0-1.2-1.1-2.1S284.7,350.2,284.7,350.4z"/>
		<polygon class="st5" points="423.8,278.5 440,283.1 438.2,269.6 434,267.4 427.6,266.4 424,269.3 422.9,273.1 		"/>
		<g class="st6">
			<polygon points="423.8,278.4 440,283.1 438.2,269.6 434,267.4 427.6,266.4 424,269.3 422.9,273.1 			"/>
		</g>
		<path class="st7" d="M426.6,238.5c0,0,10.7,6.2,15.6,7.1s19.9,5,19.9,5l16.8-21.2c0,0-32.4-1.2-36.9-4s-30-34-30-34l-6.9,7.1
			C405.1,198.5,424.6,237.5,426.6,238.5z"/>
		<path class="st5" d="M460.4,251.4l0.2-25l28.2-3.9c0,0,5.8-1.6,8-0.1s-10.8,18.8-10.8,18.8L460.4,251.4z"/>
		<path class="st4" d="M595.6,156.4c-0.5-4.3-4.2-7.9-8.4-9c-4.2-1.1-8.7-0.3-12.7,1.4c1-3.2-1.8-6.7-5.1-7.4s-6.7,0.9-9.3,3
			c-5,4.2-7.9,10.4-7.8,17c0.1,3.2,0.9,6.3,1.2,9.5s0,6.6-1.8,9.2c-1.8,2.6-5.7,4-8.4,2.4l-0.6,9.3c8,4.1,17.6,4.2,25.7,0.3
			c3.5-1.7,6.9-4.9,6.3-8.8c-0.2-1.2-0.7-2.3-0.8-3.5c-0.3-2.6,1.5-5.2,3.7-6.6s4.8-2.2,7.3-3.2c3-1.1,5.6-2.8,7.8-5.1
			C594.7,162.6,595.8,159.5,595.6,156.4z"/>
		<path class="st4" d="M524.8,221.5c4.7,4.8,12.4,5,17.2,0.3c0.9-0.8,1.6-1.8,2.2-2.8c1.7-3.1,2.2-7,4.8-9.3
			c1.8-1.6,4.4-2.2,6.1-3.9c2.6-2.5,2.6-6.6,2.4-10.2c0-2.3-0.4-4.6-1.1-6.9c-0.7-2.2-2.4-4-4.6-4.9"/>
		<path class="st4" d="M520,165.5c-1.2,2.4-3.9,3.5-6.5,4.4c-2.5,0.8-5.3,1.6-7,3.7c-3,3.7-1.2,9.8-4.4,13.3c-1.7,1.9-4.5,2.6-6,4.6
			c-1.5,2-1.6,4.6-1.2,7s1.4,4.7,1.6,7.2c0,0,0.1,5.7,9.5,7.6"/>
		<path class="st4" d="M553.2,189.8c1.3-2,0.3-4.8-1.2-6.7c-1.5-1.9-3.5-3.5-4.5-5.6c-0.9-1.9-1-4.1-1.5-6.2
			c-2-8-10.1-12.8-18.1-10.8c-2.6,0.7-5,2-6.9,4c-2.5,2.5-4,6.3-2.9,9.7c1.4,3.9,5.7,5.7,9.6,7.1c3.9,1.3,8.2,3,9.9,6.7
			c1,2.3,0.8,4.9,0.8,7.3s0.2,5.2,1.8,7s5.1,2.3,6.4,0.2"/>
		<path class="st7" d="M544.7,185.4c1.7,1.2,2.1,3.6,1,5.4l0,0L516,236.5c-3.4,5.5-13.3,3.8-19.2,0.2l0,0c-5.9-3.7-4.4-6.7-1.3-12.1
			c5.1-8.9,7-12.2,7-12.2c0,0-6.8-5.7-2.5-16.5c2.1-5.4,7.1-13.3,11.5-19.6c3.9-5.7,12.1-10.7,17.7-6.5L544.7,185.4z"/>
		<path class="st4" d="M508.9,184.7c-0.4,0.7-0.2,1.6,0.5,2c0.6,0.5,1.5,0.3,2-0.3c0,0,0,0,0,0c0.4-0.7,0.2-1.6-0.5-2
			C510.3,183.8,509.4,184,508.9,184.7C509,184.6,509,184.7,508.9,184.7z"/>
		<path class="st4" d="M510.9,180.3c0.1,0.3,1.4,0.1,2.8,0.9s2,2.1,2.2,2s0.1-0.4-0.1-1c-0.3-0.8-0.9-1.4-1.7-1.8
			c-0.7-0.4-1.5-0.6-2.4-0.5C511.3,180,510.9,180.2,510.9,180.3z"/>
		<path class="st4" d="M521.6,192.5c-0.4,0.7-0.2,1.6,0.5,2c0.6,0.5,1.5,0.3,2-0.3c0,0,0,0,0-0.1c0.4-0.7,0.2-1.6-0.5-2
			C522.9,191.7,522.1,191.9,521.6,192.5C521.6,192.5,521.6,192.5,521.6,192.5z"/>
		<path class="st4" d="M524.3,189.1c0.1,0.3,1.4,0.1,2.8,0.9s2,2.1,2.2,2c0.2-0.1,0.1-0.4-0.1-1c-0.3-0.8-0.9-1.4-1.6-1.8
			c-0.7-0.4-1.5-0.6-2.3-0.5C524.6,188.8,524.3,189,524.3,189.1z"/>
		<path class="st4" d="M512.9,197c-0.6-0.7-1.3-1.2-2-1.7c-0.3-0.2-0.6-0.5-0.5-0.8c0.1-0.3,0.4-0.6,0.8-0.9l2.6-2
			c3.7-2.9,6.5-5.4,6.4-5.6c-0.1-0.1-3.2,2.1-6.8,5l-2.5,2.1c-0.5,0.3-0.8,0.7-1,1.3c0,0.3,0.1,0.6,0.3,0.9c0.2,0.2,0.3,0.3,0.5,0.4
			C511.4,196.2,512.2,196.6,512.9,197z"/>
		<path class="st8" d="M502.5,212.5c4.6,2.8,9.9,4.3,15.3,4.3c0,0-7.4,4.8-16.7-2L502.5,212.5z"/>
		<path class="st4" d="M525.7,185.4c-0.1,0.5,1.4,1.1,2.9,2.2c1.5,1.1,2.5,2.3,2.9,2.1c0.2-0.1,0.2-0.6-0.1-1.2
			c-0.9-1.7-2.5-3-4.4-3.3C526.2,185.1,525.7,185.2,525.7,185.4z"/>
		<path class="st4" d="M512.9,177.4c0.1,0.5,1.3,0.8,2.6,1.5c1.3,0.7,2.2,1.6,2.7,1.4c0.2-0.1,0.2-0.5-0.1-1.1
			c-0.9-1.5-2.5-2.4-4.3-2.4C513.3,177,512.9,177.2,512.9,177.4z"/>
		<path class="st4" d="M532.5,222c-5.3-1.8-8.1-7.6-6.3-13c0.4-1.1,0.9-2,1.6-2.9c1.7-2.2,4.5-4,5-6.7c0.7-3.7-3-7.1-2.4-10.9
			c0.4-2.1,2.2-3.9,2.5-6s-0.9-4-2.2-5.6s-2.8-3-3.6-5c-0.8-1.9-0.4-4.5,1.4-5.5c6.9,5.2,13.1,11.3,18.6,18c1.3,1.6,2.5,3.3,2.6,5.3
			s-1.1,4-2.2,5.8l-17,25.9"/>
		<path class="st5" d="M557.2,194.5c-0.2,0-0.2-3.4-2.3-6.9c-2-3.5-4.9-5.3-4.8-5.5c0.7,0.2,1.3,0.6,1.9,1.1c2.8,2.3,4.6,5.5,5.1,9
			C557.3,193.1,557.4,193.8,557.2,194.5z"/>
		<path class="st0" d="M549.9,181.4c0,0-0.1,0.1-0.3,0.2c-0.3,0.1-0.7,0.2-1,0.3c-1.3,0.1-2.7-0.3-3.7-1.2c-1.4-1.4-2.4-3.1-2.8-5.1
			c-0.6-2.1-0.8-4.5-2-6.6c-1.2-2-3-3.4-5.2-4.1c-1.8-0.5-3.7-0.4-5.5,0.2c-1.2,0.4-2.3,1.1-3.2,2c-0.7,0.6-1,1-1,1s0-0.1,0.2-0.3
			c0.2-0.3,0.4-0.6,0.7-0.8c0.9-1,2-1.7,3.2-2.2c1.8-0.8,3.9-0.9,5.8-0.4c2.4,0.7,4.4,2.2,5.6,4.3c1.3,2.3,1.5,4.7,2,6.8
			c0.3,1.8,1.2,3.6,2.5,4.9c0.9,0.8,2.2,1.3,3.4,1.3C549.1,181.6,549.5,181.5,549.9,181.4z"/>
		<path class="st8" d="M511.5,200.6c-0.2,0.7-0.2,1.4-0.1,2.2c0.1,0.7,0.4,1.4,1,1.8c0.7,0.4,1.5,0.4,2.2,0.1
			c0.7-0.4,1.2-0.9,1.6-1.6c0.3-0.6,0.5-1.5-0.1-1.9c-0.2-0.2-0.5-0.3-0.8-0.3l-3.9-0.6"/>
		<path class="st4" d="M511.3,203.9c0.5,0.4,1.2,0.6,1.8,0.8c0.7,0.1,1.4,0,2-0.4c0.7-0.5,1.1-1.2,1.2-2c0-0.2,0-0.4,0-0.6
			c0-0.2,0-0.2-0.2-0.2c-0.2-0.1-0.4-0.1-0.6-0.1l-0.6-0.1c-0.8-0.1-1.6-0.2-2.2-0.4c-0.7-0.1-1.4-0.2-2-0.5c0.7-0.1,1.4-0.1,2.1,0
			c0.6,0,1.4,0.1,2.2,0.2l0.7,0.1c0.2,0,0.5,0.1,0.7,0.1c0.2,0,0.3,0.1,0.5,0.3c0.1,0.1,0.2,0.3,0.2,0.5c0,0.3,0,0.5,0,0.8
			c-0.1,1-0.7,1.9-1.6,2.5c-0.7,0.4-1.6,0.5-2.4,0.4c-0.5-0.1-1-0.4-1.4-0.8C511.3,204.1,511.2,204,511.3,203.9z"/>
		<path class="st4" d="M284.5,348.7c0,0,42.1-63.6,47.6-70.9s10.9-13.4,24.3-9.5c6.5,1.9,73.1,19.5,73.1,19.5l0,0l10.9-1.7
			l37.3,29.4c0,0-22.6,26.3-51.1,15.6c-28.7-10.7-71-29.1-71-29.1s-19.8,22-26.5,30.9c-7.1,9.3-24.7,27.6-24.7,27.6L284.5,348.7z"/>
		<path class="st4" d="M432.1,275.9c-1.6,0.6-95.8,16-95.8,16l-19,87.5l22.6,7l24.5-71.1l33.4,2.3l42.4-31.4L432.1,275.9z"/>
		<path class="st5" d="M432,264.4l10.4,1l13.4-3.1c0,0,6.8-16.3,10.1-23.2s30.5-17.5,30.5-17.5l25.9,3.7l7.5,3.2l-8.5,30.5l-23,34.5
			l-22.3,26.7c0,0-42.1-37.5-43.8-43.6c-1.4-5.2,0.6-8-3-9.7c-1.3-0.6-3,0.6-3.6,1.6c-1.4,2.2-2.8,3.4-2,9.1
			c-0.8-1.6-1.1-3.3-0.9-5.1c0.4-1.6,1.1-3.1,2-4.4C426.3,265.7,429.1,264.3,432,264.4z"/>
		<g class="st6">
			<path d="M479.2,246.6c-2.8,3.4-5.5,8.3-5.4,12.7c0.1,1.9,0.2,3.7,0.1,5.6c-0.2,2-0.9,3.8-1.1,5.8c-0.1,2.4,0.1,4.8,0.8,7.2
				c0.3,1.7,0.8,3.4,1.6,4.9c0.9,1.3,1.9,2.6,3,3.8c2.1,2.8,3.1,6.2,4.6,9.4s3.7,6.3,7.1,7.3c1.6-1.4,3.3-2.9,3.5-5
				c0.1-1.4-0.2-2.8-0.8-4c-3.2-7.8-7.1-15.3-11.9-22.3c-1.5-2.3-2.7-4.8-3.5-7.5C475.1,258.8,477.3,252.1,479.2,246.6"/>
		</g>
		<path class="st4" d="M480.7,269.8c-0.3-0.2-0.6-0.4-0.8-0.6c-0.7-0.6-1.3-1.4-1.8-2.2c-1.6-2.8-2.3-5.9-2.1-9.1
			c0.3-3.1,1.1-6.2,2.3-9.1c0.4-1.1,0.8-2,1.1-2.6c0.1-0.3,0.3-0.6,0.5-0.9c-0.3,1.2-0.8,2.5-1.2,3.7c-1.1,2.9-1.8,5.9-2.1,9
			c-0.2,3.1,0.4,6.2,1.9,8.9C479,267.8,479.8,268.9,480.7,269.8z"/>
		<path class="st7" d="M379.8,178.8l11.5-4.9l9.5,3.5l13.5,16.9l-7,7.4l-2.2-3.2c0,0-6.8-2.5-8.1-4.9c-1-1.7-2.1-3.3-3.3-4.9
			l-2.5-1.8c0,0-6.9,2.2-8.8,0.8l-0.9-0.8l7.2-3l0-1.9c0,0-5.6,3.2-8.8,2.1l-0.9-1.5l5.9-2.4c0,0-3.5,0.7-4.2,0
			C380.2,179.9,379.9,179.4,379.8,178.8z"/>
		<path class="st8" d="M399.3,182.7c0,0,0.1,0.1,0,0.3c-0.1,0.3-0.2,0.5-0.5,0.6c-0.4,0.2-0.9,0.2-1.2,0c-0.5-0.2-0.9-0.5-1.4-0.8
			c-1-0.6-2.2-1.3-3.5-1.9c-0.7-0.3-1.4-0.7-2.1-1c-0.7-0.4-1.5-0.6-2.3-0.5c-0.3,0.1-0.6,0.3-0.8,0.6c-0.1,0.3-0.1,0.7,0.1,1
			c0.5,0.6,1,1.2,1.6,1.7l2.9,2.8c0.8,0.8,1.5,1.5,1.9,2c0.5,0.5,0.7,0.7,0.6,0.8c-0.3-0.2-0.6-0.4-0.8-0.6c-0.5-0.4-1.2-1-2-1.8
			l-3-2.8l-0.9-0.8c-0.3-0.3-0.6-0.6-0.9-0.9c-0.3-0.4-0.4-1-0.2-1.4c0.2-0.5,0.6-0.8,1.1-0.9c0.9-0.1,1.8,0,2.6,0.5
			c0.8,0.3,1.5,0.7,2.2,1c1.4,0.7,2.5,1.4,3.5,2.1c0.4,0.3,0.8,0.6,1.3,0.8c0.3,0.2,0.7,0.2,1,0.1
			C399.1,183.3,399.3,183.1,399.3,182.7z"/>
		<path class="st8" d="M398.3,182.4c-0.7-0.2-1.4-0.6-2-1c-1.6-0.9-3-1.9-4.4-3.1l-0.4-0.3h0.3c-1.9,0.7-3.5,1.3-4.7,1.7
			c-0.6,0.3-1.3,0.5-2,0.6c0.6-0.4,1.2-0.7,1.9-0.9c1.2-0.5,2.8-1.2,4.7-1.9l0.1-0.1l0.1,0.1l0.4,0.3
			C395.4,180.6,398.4,182.2,398.3,182.4z"/>
		<path class="st7" d="M509.2,260.1l-7.9,24.7l-4.5-4.4l-9.4,4.8l5.1,21c0,0,5.7,7.9,12.2,7.4s7.8-4.6,9.9-9.5s13.5-35.7,13.5-35.7
			S512.1,259.9,509.2,260.1z"/>
		<path class="st7" d="M473.5,268.8c0,0,12.1-5,13.4-4.6l10.3,3.2c1,1,1.2,2.5,0.5,3.7c0,0,1.6,4.1,0.8,6.4l-0.9,2.3
			c0.4,1.2,0.4,2.4-0.2,3.5c-1.4,2.8-1.2,3.5-2.4,3.9s-7.8-1-7.8-1s-8.4-1.8-8.9-2.8s0.6-1.8,0.6-1.8h7l-1.1-1.2l-4.1-1
			c0,0-4.2,1.3-6.4-0.3c-0.4-0.3-0.5-0.9-0.2-1.4l1.1-1.3c-1.7-0.3-3-1.8-3-3.6l3.4-1.1C475.5,271.9,471.4,270.9,473.5,268.8z"/>
		<path class="st8" d="M492.3,270.5c-2.7-0.4-5.5-0.6-8.2-0.5c-2.7,0.3-5.4,0.8-8.1,1.6c0.7-0.4,1.4-0.8,2.2-1
			c1.9-0.6,3.8-1,5.8-1.1c2-0.1,3.9,0,5.9,0.3C490.8,270,491.6,270.2,492.3,270.5z"/>
		<path class="st8" d="M493,276.9c-0.9-0.1-1.8-0.3-2.6-0.5c-2.1-0.4-4.2-0.6-6.4-0.7c-2.1,0-4.3,0.2-6.4,0.5
			c-0.9,0.2-1.8,0.3-2.6,0.4c0.8-0.4,1.7-0.7,2.6-0.8c2.1-0.5,4.3-0.7,6.5-0.7c2.2,0,4.3,0.3,6.4,0.8
			C491.4,276.3,492.2,276.5,493,276.9z"/>
		<path class="st8" d="M493.2,283.4c-1.4,0-2.7-0.2-4-0.5c-1.3-0.2-2.6-0.5-3.9-1c1.4,0,2.7,0.2,4,0.5
			C490.7,282.5,492,282.9,493.2,283.4z"/>
		<path class="st8" d="M513.8,298.2c-0.3-0.2-0.5-0.4-0.7-0.6c-0.4-0.4-1-1-1.8-1.8c-1.5-1.5-3.4-3.8-5.6-6.1s-4.2-4.5-5.7-6.1
			c-0.8-0.8-1.6-1.7-2.2-2.6c0.9,0.7,1.7,1.5,2.5,2.4c1.5,1.5,3.5,3.6,5.8,6s4.1,4.6,5.5,6.2C512.4,296.4,513.1,297.3,513.8,298.2z"
			/>
		<path class="st5" d="M529.1,228.1c4.4,2.4,6.9,7.2,6.4,12.2c-0.9,8.7-4.8,30.2-4.8,30.2l-24.8-11.5l4.4-17.1
			C510.3,242,522.5,226.8,529.1,228.1z"/>
		<path class="st4" d="M487.4,226c-0.1,0.1-0.3,0.2-0.4,0.2l-1.3,0.6c-1.1,0.5-2.8,1.2-4.8,2.1c-2.4,1-4.7,2.2-6.9,3.6
			c-1.2,0.8-2.5,1.6-3.8,2.6c-1.3,0.9-2.5,2-3.5,3.3c-1.9,2.6-3.4,5.3-4.6,8.3c-1.1,2.7-2,5.2-2.9,7.2s-1.4,3.8-2,4.9
			c-0.2,0.6-0.5,1-0.6,1.3c-0.1,0.2-0.2,0.3-0.3,0.4c0.2-0.6,0.4-1.2,0.7-1.8c0.5-1.1,1.1-2.8,1.8-4.9s1.6-4.6,2.8-7.3
			c1.2-3,2.7-5.8,4.6-8.4c1-1.3,2.3-2.5,3.6-3.4c1.3-1,2.6-1.8,3.8-2.6c2.2-1.3,4.6-2.5,7-3.5c2-0.9,3.7-1.5,4.9-1.9l1.3-0.5
			C487.1,226.1,487.2,226.1,487.4,226z"/>
		<path class="st4" d="M530.7,270.6c-0.6-0.2-1.1-0.4-1.7-0.7l-4.4-2c-3.7-1.7-8.8-4-14.5-6.7l-4.3-2l-0.2-0.1V259
			c1.1-5,2.1-9.3,2.9-12.4c0.4-1.5,0.7-2.8,1-3.6c0.1-0.4,0.2-0.9,0.4-1.3c0,0.4-0.1,0.9-0.2,1.3c-0.2,0.9-0.5,2.1-0.8,3.6
			c-0.7,3.2-1.6,7.5-2.7,12.4l-0.1-0.3l4.3,2c5.7,2.6,10.8,5,14.4,6.8l4.3,2.1C529.6,270,530.2,270.3,530.7,270.6z"/>
		<path class="st4" d="M529.6,228.4c0,0.1-0.9-0.1-2.3-0.1c-1.9,0-3.7,0.4-5.5,1c-1.8,0.6-3.4,1.5-4.9,2.7c-1.1,0.9-1.7,1.6-1.8,1.5
			c0.4-0.7,0.9-1.3,1.6-1.8c2.9-2.6,6.8-4,10.7-3.8C528.1,228,528.9,228.1,529.6,228.4z"/>
		<path class="st0" d="M440.2,291.7c0,0.1-8-2-17.8-4.9s-17.8-5.2-17.7-5.4s8,2,17.9,4.9S440.3,291.5,440.2,291.7z"/>
		<path class="st0" d="M284.5,348.7l0.4,0.2l1,0.6l4,2.3l14.6,8.6h-0.2c9.6-10.7,22.9-25.6,37.2-42.4c5.3-6.3,10.3-12.4,14.7-18.2
			l0.1-0.1l0.2,0.1c7.6,3.1,14.4,6.4,20.5,9.4s11.5,5.7,15.9,7.9s8.1,3.8,10.6,4.9l2.9,1.2l0.7,0.3l0.2,0.1l-0.3-0.1l-0.8-0.3
			c-0.7-0.3-1.6-0.6-2.9-1.2c-2.5-1-6.1-2.6-10.6-4.8s-9.9-4.8-16-7.8s-12.9-6.3-20.5-9.3l0.3-0.1c-4.4,5.8-9.4,11.9-14.7,18.2
			c-14.3,16.8-27.7,31.7-37.4,42.3l-0.1,0.1l-0.1-0.1l-14.5-8.8l-3.9-2.4l-1-0.6C284.7,348.8,284.6,348.8,284.5,348.7z"/>
		<path class="st0" d="M356.4,300.1c-0.5-1.3-0.9-2.6-1.2-3.9c-0.5-1.3-0.9-2.6-1.1-3.9c0.8,1.1,1.3,2.4,1.6,3.8
			C356.1,297.3,356.4,298.7,356.4,300.1z"/>
		<path class="st3" d="M479.5,245.8c-0.8,0.2-1.6,0.3-2.4,0.3c-3.9,0.1-7.7-1.3-10.8-3.7c-0.7-0.5-1.2-1-1.7-1.7
			c2.1,1.7,4.4,3.1,6.9,4C474.2,245.4,476.8,245.8,479.5,245.8z"/>
		<path class="st3" d="M507.1,248.5c0,0.1-1.5-0.5-3.9-1.2c-3.2-0.9-6.4-1.4-9.7-1.5c-3.3-0.1-6.6,0.1-9.8,0.7c-2.5,0.5-4,0.9-4,0.8
			c0.3-0.2,0.7-0.3,1-0.4c1-0.3,1.9-0.6,2.9-0.8c6.5-1.5,13.3-1.2,19.8,0.8c1,0.3,1.9,0.6,2.8,1
			C506.5,248.1,506.8,248.3,507.1,248.5z"/>
		<path class="st3" d="M534.5,247.7c0,0.1-5.8-0.3-12.8-1.1s-12.8-1.4-12.8-1.6s5.8,0.3,12.8,1.1S534.5,247.5,534.5,247.7z"/>
		<path class="st3" d="M474.2,232.1c-0.5-1-0.9-2.1-1.1-3.2c-0.4-1.1-0.6-2.2-0.6-3.4C473.3,227.6,473.9,229.8,474.2,232.1z"/>
		<path class="st8" d="M497.3,279.3c0.3,0.3,0.6,0.8,0.6,1.3c0.2,1.3-0.2,2.6-1.1,3.5l0.1-0.3c0.5,1.1,0.1,2.4-1,3
			c-0.5,0.2-1.1,0.4-1.7,0.4c-0.5,0-1,0-1.5,0c-0.9,0-1.7-0.1-2.6-0.2c-0.8,0-1.6-0.2-2.3-0.5c0.8,0,1.6,0.1,2.3,0.1
			c0.7,0,1.6,0.1,2.5,0c1,0.1,2-0.1,2.9-0.4c0.8-0.4,1.2-1.4,0.8-2.3l-0.1-0.2l0.1-0.1c0.8-0.8,1.2-1.9,1.1-3.1
			C497.5,280.2,497.4,279.7,497.3,279.3z"/>
		<path class="st0" d="M555.9,190.4c-0.1,0.4-0.3,0.8-0.5,1.1c-0.6,1-1.3,1.9-2.1,2.6c-1.2,1.2-2.7,2.1-4.2,2.8
			c-1.9,0.8-4,1.2-6.1,1.1c-2.1-0.1-4.1-0.8-5.9-1.8c-1.5-0.8-2.8-1.9-3.9-3.2c-0.7-0.9-1.3-1.8-1.8-2.9c-0.2-0.4-0.3-0.8-0.4-1.2
			c0.7,1.4,1.5,2.6,2.5,3.8c1.1,1.2,2.4,2.3,3.8,3.1c3.5,2,7.8,2.3,11.6,0.7c1.5-0.6,2.9-1.5,4.2-2.6
			C554.1,192.8,555.1,191.7,555.9,190.4z"/>
		<path class="st0" d="M556.2,191.5c0,0,0,0.1,0.1,0.4c0.1,0.4,0.1,0.8,0.1,1.2c-0.1,1.5-0.4,3-1.1,4.4c-1,2-2.3,3.9-3.8,5.6
			c-1.7,1.9-3.8,3.8-5.6,6s-3.4,4.5-5.2,6.4c-1.5,1.7-3.5,3-5.6,3.8c-1.4,0.5-3,0.7-4.5,0.5c-0.4-0.1-0.8-0.2-1.2-0.3
			c-0.1,0-0.3-0.1-0.4-0.2c0-0.1,0.6,0.2,1.6,0.3c1.5,0.2,3-0.1,4.4-0.6c2.1-0.8,3.9-2.1,5.4-3.8c1.7-1.8,3.3-4.1,5.2-6.4
			s4-4.1,5.6-6c1.5-1.6,2.8-3.4,3.8-5.4c0.7-1.3,1.1-2.8,1.2-4.3C556.2,192.2,556.1,191.5,556.2,191.5z"/>
		<path class="st0" d="M572.1,148.2c0,0.1-0.6,0.2-1.6,0.6c-1.4,0.6-2.8,1.5-3.9,2.6c-1.7,1.6-2.9,3.7-3.5,5.9
			c-0.7,2.5-0.2,5.5,0.1,8.5c0.3,2.9,0,5.9-1,8.6c-0.8,2.2-2,4.3-3.6,6.1c-1,1.2-2.2,2.3-3.5,3.2c-0.4,0.2-0.7,0.5-1.1,0.7
			c-0.1,0.1-0.3,0.2-0.4,0.2c0,0,0.5-0.4,1.4-1c1.3-0.9,2.4-2,3.4-3.2c1.5-1.8,2.6-3.9,3.4-6c0.9-2.7,1.2-5.6,0.9-8.4
			c-0.3-3-0.7-6,0-8.7c0.6-2.3,1.9-4.4,3.7-6c1.2-1.1,2.6-1.9,4.1-2.5c0.4-0.1,0.8-0.3,1.2-0.4C571.8,148.3,572,148.3,572.1,148.2z"
			/>
		<path class="st0" d="M593.9,156.5c0,0-0.8-0.4-2.1-0.9c-2-0.7-4.1-1-6.1-1c-3.1,0-6.1,0.9-8.8,2.5c-5,3.1-8.1,8.4-8.3,14.2
			c-0.1,1.9-0.1,3.8-0.3,5.5c-0.2,1.7-0.6,3.3-1.4,4.8c-0.7,1.3-1.6,2.5-2.7,3.5c-1.5,1.5-3.4,2.5-5.5,3.1c-0.6,0.2-1.1,0.3-1.7,0.3
			c-0.2,0-0.4,0-0.6,0c0,0,0.8-0.1,2.2-0.5c2-0.6,3.8-1.7,5.3-3.2c2.2-2.1,3.6-5,3.8-8.1c0.2-1.7,0.2-3.6,0.3-5.5
			c0.2-6,3.5-11.5,8.6-14.6c4.6-2.7,10.2-3.2,15.2-1.3c0.5,0.2,1.1,0.5,1.6,0.7C593.6,156.3,593.8,156.4,593.9,156.5z"/>
	</g>
</g>
</svg>
