<svg width="24" height="24" viewBox="0 0 24 24" fill="none" xmlns="http://www.w3.org/2000/svg">
<path d="M7.53902 21.515C16.5954 21.515 21.551 14.0048 21.551 7.503C21.551 7.29172 21.551 7.08043 21.5414 6.86915C22.5018 6.17767 23.3373 5.30372 24 4.31453C23.1164 4.70828 22.1657 4.96759 21.1669 5.09244C22.1849 4.4874 22.9628 3.51741 23.3373 2.36495C22.3866 2.93157 21.3301 3.33493 20.2065 3.55582C19.3037 2.59544 18.0264 2 16.6146 2C13.8968 2 11.6879 4.20888 11.6879 6.92677C11.6879 7.31092 11.7359 7.68547 11.8127 8.05042C7.72149 7.84874 4.09124 5.87995 1.66146 2.90276C1.2389 3.63265 0.9988 4.47779 0.9988 5.38055C0.9988 7.09004 1.87275 8.59784 3.18848 9.48139C2.38175 9.45258 1.62305 9.23169 0.960384 8.86675C0.960384 8.88595 0.960384 8.90516 0.960384 8.93397C0.960384 11.3157 2.66026 13.3133 4.90756 13.7647C4.4946 13.88 4.06242 13.9376 3.61104 13.9376C3.29412 13.9376 2.98679 13.9088 2.68908 13.8511C3.31333 15.8103 5.13806 17.2317 7.28932 17.2701C5.59904 18.5954 3.47659 19.383 1.17167 19.383C0.777912 19.383 0.384154 19.3637 0 19.3157C2.17047 20.6987 4.76351 21.515 7.53902 21.515Z" fill="white"/>
</svg>
