<svg xmlns="http://www.w3.org/2000/svg" xmlns:xlink="http://www.w3.org/1999/xlink" viewBox="0 0 500 500" width="500" height="500" preserveAspectRatio="xMidYMid meet"><defs><clipPath id="__lottie_element_2"><rect width="500" height="500" x="0" y="0"></rect></clipPath><clipPath id="__lottie_element_5"><path d="M0,0 L500,0 L500,500 L0,500z"></path></clipPath></defs><g clip-path="url(#__lottie_element_2)"><g clip-path="url(#__lottie_element_5)" transform="matrix(1,0,0,1,0,0)" opacity="1" style="display: block;"><g class="primary design" style="display: none;"><g><path stroke-linecap="round" stroke-linejoin="round" fill-opacity="0" class="primary"></path></g></g><g class="primary design" style="display: none;"><g><path stroke-linecap="round" stroke-linejoin="round" fill-opacity="0" class="primary"></path></g></g><g class="primary design" style="display: none;"><g><path stroke-linecap="round" stroke-linejoin="round" fill-opacity="0" class="primary"></path></g></g><g class="primary design" style="display: none;"><g><path class="primary"></path></g><g><path class="primary"></path></g><g><path class="primary"></path></g></g><g class="primary design" transform="matrix(20.829999923706055,0,0,20.829999923706055,-4957.498046875,-4957.498046875)" opacity="1" style="display: block;"><g opacity="1" transform="matrix(1,0,0,1,243.5,254.5)"><path class="primary" fill="rgb(255,255,255)" fill-opacity="1" d=" M1.75,4.5 C1.75,4.5 -1.75,4.5 -1.75,4.5 C-2.1600000858306885,4.5 -2.5,4.159999847412109 -2.5,3.75 C-2.5,3.75 -2.5,-3.75 -2.5,-3.75 C-2.5,-4.170000076293945 -2.1600000858306885,-4.5 -1.75,-4.5 C-1.75,-4.5 1.75,-4.5 1.75,-4.5 C2.1600000858306885,-4.5 2.5,-4.170000076293945 2.5,-3.75 C2.5,-3.75 2.5,3.75 2.5,3.75 C2.5,4.159999847412109 2.1600000858306885,4.5 1.75,4.5z M-1,3 C-1,3 1,3 1,3 C1,3 1,-3 1,-3 C1,-3 -1,-3 -1,-3 C-1,-3 -1,3 -1,3z"></path></g><g opacity="1" transform="matrix(1,0,0,1,256.5,252.5)"><path class="primary" fill="rgb(255,255,255)" fill-opacity="1" d=" M1.75,6.5 C1.75,6.5 -1.75,6.5 -1.75,6.5 C-2.1600000858306885,6.5 -2.5,6.159999847412109 -2.5,5.75 C-2.5,5.75 -2.5,-5.75 -2.5,-5.75 C-2.5,-6.159999847412109 -2.1600000858306885,-6.5 -1.75,-6.5 C-1.75,-6.5 1.75,-6.5 1.75,-6.5 C2.1600000858306885,-6.5 2.5,-6.159999847412109 2.5,-5.75 C2.5,-5.75 2.5,5.75 2.5,5.75 C2.5,6.159999847412109 2.1600000858306885,6.5 1.75,6.5z M-1,5 C-1,5 1,5 1,5 C1,5 1,-5 1,-5 C1,-5 -1,-5 -1,-5 C-1,-5 -1,5 -1,5z"></path></g><g opacity="1" transform="matrix(1,0,0,1,250,250.5)"><path class="primary" fill="rgb(255,255,255)" fill-opacity="1" d=" M1.75,8.5 C1.75,8.5 -1.75,8.5 -1.75,8.5 C-2.1600000858306885,8.5 -2.5,8.15999984741211 -2.5,7.75 C-2.5,7.75 -2.5,-7.75 -2.5,-7.75 C-2.5,-8.15999984741211 -2.1600000858306885,-8.5 -1.75,-8.5 C-1.75,-8.5 1.75,-8.5 1.75,-8.5 C2.1600000858306885,-8.5 2.5,-8.15999984741211 2.5,-7.75 C2.5,-7.75 2.5,7.75 2.5,7.75 C2.5,8.15999984741211 2.1600000858306885,8.5 1.75,8.5z M-1,7 C-1,7 1,7 1,7 C1,7 1,-7 1,-7 C1,-7 -1,-7 -1,-7 C-1,-7 -1,7 -1,7z"></path></g></g></g></g></svg>