<svg xmlns="http://www.w3.org/2000/svg" xmlns:xlink="http://www.w3.org/1999/xlink" viewBox="0 0 500 500" width="500" height="500" preserveAspectRatio="xMidYMid meet" style="width: 100%; height: 100%; transform: translate3d(0px, 0px, 0px); content-visibility: visible;"><defs><clipPath id="__lottie_element_46"><rect width="500" height="500" x="0" y="0"></rect></clipPath><clipPath id="__lottie_element_49"><path d="M0,0 L500,0 L500,500 L0,500z"></path></clipPath></defs><g clip-path="url(#__lottie_element_46)"><g clip-path="url(#__lottie_element_49)" transform="matrix(1,0,0,1,0,0)" opacity="1" style="display: block;"><g style="display: none;"><g><path stroke-linecap="round" stroke-linejoin="round" fill-opacity="0" class="primary"></path></g></g><g class="primary design" style="display: none;"><g><path stroke-linecap="round" stroke-linejoin="round" fill-opacity="0" class="primary"></path></g></g><g class="primary design" style="display: none;"><g><path stroke-linecap="round" stroke-linejoin="round" fill-opacity="0" class="primary"></path></g></g><g class="primary design" style="display: none;"><g><path stroke-linecap="round" stroke-linejoin="round" fill-opacity="0" class="primary"></path></g></g><g class="primary design" style="display: none;"><g><path stroke-linecap="round" stroke-linejoin="round" fill-opacity="0" class="primary"></path></g></g><g class="primary design" style="display: none;"><g><path stroke-linecap="round" stroke-linejoin="round" fill-opacity="0" class="primary"></path></g></g><g class="primary design" style="display: none;"><g><path stroke-linecap="round" stroke-linejoin="round" fill-opacity="0" class="primary"></path></g></g><g class="primary design" transform="matrix(1,0,0,1,250,250)" opacity="1" style="display: block;"><g opacity="1" transform="matrix(1,0,0,1,0,0)"><path class="primary" fill-opacity="1" d=" M0.004000000189989805,-208.3560028076172 C-114.88600158691406,-208.3560028076172 -208.3560028076172,-114.88700103759766 -208.3560028076172,0.003000000026077032 C-208.3560028076172,114.89299774169922 -114.88600158691406,208.36199951171875 0.004000000189989805,208.36199951171875 C114.89399719238281,208.36199951171875 208.36300659179688,114.89299774169922 208.36300659179688,0.003000000026077032 C208.36300659179688,-114.88700103759766 114.89399719238281,-208.3560028076172 0.004000000189989805,-208.3560028076172z M176.36300659179688,-15.647000312805176 C176.36300659179688,-15.647000312805176 83.18000030517578,-15.647000312805176 83.18000030517578,-15.647000312805176 C81.78700256347656,-75.79499816894531 72.39299774169922,-129.86399841308594 57.24100112915039,-167.55799865722656 C122.13700103759766,-145.32899475097656 170.13699340820312,-86.39299774169922 176.36300659179688,-15.647000312805176z M18.22800064086914,-176.12399291992188 C37.16899871826172,-145.7310028076172 50.12300109863281,-83.77999877929688 51.86000061035156,-15.647000312805176 C51.86000061035156,-15.647000312805176 -51.861000061035156,-15.647000312805176 -51.861000061035156,-15.647000312805176 C-49.979000091552734,-92.31700134277344 -34.46799850463867,-149.5 -18.16900062561035,-176.1300048828125 C-12.192999839782715,-176.74200439453125 -6.13100004196167,-177.0570068359375 0.004000000189989805,-177.0570068359375 C6.156000137329102,-177.0570068359375 12.236000061035156,-176.74000549316406 18.22800064086914,-176.12399291992188z M-57.16699981689453,-167.58200073242188 C-72.35399627685547,-129.79100036621094 -81.77400207519531,-75.69599914550781 -83.1729965209961,-15.647000312805176 C-83.1729965209961,-15.647000312805176 -176.3560028076172,-15.647000312805176 -176.3560028076172,-15.647000312805176 C-170.1280059814453,-86.41699981689453 -122.09700012207031,-145.37100219726562 -57.16699981689453,-167.58200073242188z M-176.3560028076172,15.652999877929688 C-176.3560028076172,15.652999877929688 -83.1729965209961,15.652999877929688 -83.1729965209961,15.652999877929688 C-81.77400207519531,75.70099639892578 -72.35600280761719,129.7949981689453 -57.16899871826172,167.58700561523438 C-122.0979995727539,145.375 -170.1280059814453,86.4219970703125 -176.3560028076172,15.652999877929688z M-18.17099952697754,176.13499450683594 C-34.46900177001953,149.5030059814453 -49.97999954223633,92.32099914550781 -51.86199951171875,15.652999877929688 C-51.86199951171875,15.652999877929688 51.86000061035156,15.652999877929688 51.86000061035156,15.652999877929688 C50.12300109863281,83.78500366210938 37.17100143432617,145.73399353027344 18.231000900268555,176.12899780273438 C12.23799991607666,176.7449951171875 6.1570000648498535,177.06199645996094 0.004000000189989805,177.06199645996094 C-6.13100004196167,177.06199645996094 -12.194000244140625,176.7469940185547 -18.17099952697754,176.13499450683594z M57.24300003051758,167.56300354003906 C72.39399719238281,129.8679962158203 81.78700256347656,75.80000305175781 83.18000030517578,15.652999877929688 C83.18000030517578,15.652999877929688 176.36300659179688,15.652999877929688 176.36300659179688,15.652999877929688 C170.13699340820312,86.39800262451172 122.13800048828125,145.33399963378906 57.24300003051758,167.56300354003906z"></path></g></g><g class="primary design" style="display: none;"><g><path class="primary"></path></g></g></g></g></svg>