<svg fill="#78766d" viewBox="0 0 16 16" xmlns="http://www.w3.org/2000/svg"><path clip-rule="evenodd" d="M7.9999 13.6496C10.5698 13.6496 12.9461 13.1038 14.7162 12.1728C16.44 11.2661 17.8399 9.84028 17.8399 8.00001C17.8399 6.15974 16.44 4.73389 14.7162 3.82722C12.9461 2.89617 10.5698 2.35043 7.9999 2.35043C5.42997 2.35043 3.05373 2.89617 1.28358 3.82722C-0.440229 4.73389 -1.84009 6.15974 -1.84009 8.00001C-1.84009 9.84028 -0.440229 11.2661 1.28358 12.1728C3.05373 13.1038 5.42997 13.6496 7.9999 13.6496ZM16.8399 8.00001C16.8399 10.5679 12.8821 12.6496 7.9999 12.6496C3.11771 12.6496 -0.840088 10.5679 -0.840088 8.00001C-0.840088 5.43212 3.11771 3.35043 7.9999 3.35043C12.8821 3.35043 16.8399 5.43212 16.8399 8.00001ZM6.87738 4.72751C6.88194 4.70401 6.90252 4.68703 6.92646 4.68703H7.9244C7.93933 4.68703 7.95347 4.6937 7.96297 4.70522C7.97247 4.71674 7.97633 4.7319 7.97348 4.74655L7.7477 5.91034C7.84026 5.91005 7.9323 5.90915 8.02328 5.90826C8.33164 5.90523 8.62788 5.90233 8.89109 5.9236C9.24813 5.95245 9.55863 6.02638 9.76423 6.216C9.87161 6.31473 9.94117 6.42259 9.97569 6.5654C10.0097 6.70601 10.0089 6.87748 9.98244 7.10232C9.94727 7.40106 9.8651 7.80454 9.74965 8.37142L9.74964 8.37145L9.74963 8.3715C9.69183 8.65534 9.62568 8.98014 9.55291 9.35328C9.54833 9.37676 9.52775 9.39371 9.50383 9.39371H8.49295C8.47802 9.39371 8.46387 9.38704 8.45437 9.37552C8.44488 9.364 8.44102 9.34884 8.44386 9.33419C8.52282 8.92716 8.58966 8.5905 8.64516 8.31095L8.6452 8.31076C8.73782 7.8442 8.79885 7.53677 8.83193 7.32694C8.85847 7.15866 8.86601 7.05871 8.85915 6.99197C8.85276 6.92984 8.83413 6.8978 8.80269 6.8641L8.80265 6.86405C8.74366 6.80064 8.64179 6.76909 8.43806 6.75735C8.30039 6.74942 8.12483 6.75064 7.89766 6.75222H7.89756C7.80294 6.75288 7.69936 6.7536 7.58584 6.75374L7.07911 9.35328C7.07453 9.37676 7.05396 9.39371 7.03003 9.39371H6.03318C6.01825 9.39371 6.0041 9.38704 5.9946 9.37552C5.9851 9.36401 5.98125 9.34885 5.98409 9.33419L6.87738 4.72751ZM2.69684 5.95416C2.7014 5.93065 2.72198 5.91368 2.74593 5.91368H4.67706C5.26358 5.91368 5.70732 6.06602 5.98566 6.3872L5.94796 6.42002L5.98574 6.38729L5.98566 6.3872C6.25284 6.69412 6.33382 7.1487 6.26023 7.60473C6.18652 8.06151 5.95682 8.52755 5.59142 8.86359C5.00271 9.41486 4.36602 9.40924 3.44999 9.40117C3.34805 9.40027 3.24265 9.39934 3.13347 9.39914L2.90398 10.5831C2.89942 10.6066 2.87884 10.6236 2.85489 10.6236H1.85156C1.83663 10.6236 1.82249 10.6169 1.81299 10.6054C1.80349 10.5939 1.79963 10.5787 1.80248 10.5641L2.69684 5.95416ZM10.5358 5.95415C10.5403 5.93065 10.5609 5.91368 10.5848 5.91368H12.5171C13.1036 5.91368 13.5473 6.06602 13.8256 6.3872L13.788 6.42003L13.8257 6.38729L13.8256 6.3872C14.0928 6.69412 14.1738 7.1487 14.1002 7.60473C14.0265 8.06152 13.7968 8.52756 13.4314 8.86361C12.8466 9.41043 12.238 9.4066 11.2662 9.40048H11.2662H11.2662H11.2662H11.2661C11.1721 9.39988 11.0746 9.39927 10.9735 9.39913L10.744 10.5831C10.7394 10.6066 10.7188 10.6236 10.6949 10.6236H9.68939C9.67446 10.6236 9.66031 10.6169 9.65081 10.6054C9.64131 10.5939 9.63746 10.5787 9.64031 10.5641L10.5358 5.95415ZM3.65348 6.74077L3.29849 8.56995C3.36057 8.57023 3.42151 8.5709 3.48133 8.57155H3.48135H3.48137H3.48138H3.4814C3.6276 8.57314 3.76717 8.57465 3.90059 8.57041C4.10547 8.56389 4.28973 8.54381 4.4503 8.49113C4.60986 8.43878 4.7459 8.35429 4.85535 8.21803C4.96524 8.08121 5.05079 7.88912 5.10374 7.61781C5.17864 7.22899 5.12314 7.02269 4.9944 6.90717C4.92839 6.84793 4.83845 6.80787 4.72385 6.78174C4.60919 6.7556 4.47305 6.74411 4.31748 6.73973C4.1854 6.736 4.04245 6.73745 3.88872 6.739H3.88871H3.88869H3.88868H3.88866L3.88856 6.739C3.81282 6.73977 3.73445 6.74056 3.65348 6.74077ZM11.4902 6.74077L11.1352 8.56998C11.2034 8.57036 11.2702 8.57129 11.3358 8.57221C11.471 8.57409 11.601 8.57591 11.7268 8.57265C11.9303 8.56738 12.1151 8.54876 12.2771 8.49702C12.438 8.4456 12.5762 8.36154 12.6876 8.22455C12.7995 8.08703 12.8869 7.89302 12.9405 7.61781C13.0154 7.22882 12.9608 7.02253 12.8329 6.90707C12.7674 6.8479 12.6779 6.80786 12.5636 6.78174C12.4493 6.7556 12.3132 6.74411 12.1575 6.73973C12.0252 6.736 11.8816 6.73745 11.727 6.739L11.7268 6.739H11.7268H11.7268H11.7268C11.6506 6.73977 11.5717 6.74056 11.4902 6.74077Z" fill-rule="evenodd"></path></svg>