<svg width="16" height="18" viewBox="0 0 16 18" fill="none" xmlns="http://www.w3.org/2000/svg">
<path d="M10.5308 17.9869L16 16.8144C16 16.8144 14.0272 3.60302 14.0109 3.51553C13.9947 3.42905 13.9235 3.37073 13.8503 3.37073C13.7772 3.37073 12.3878 3.26916 12.3878 3.26916C12.3878 3.26916 11.4232 2.31486 11.3063 2.2133C11.2789 2.18413 11.2484 2.17006 11.2189 2.15497L10.5308 17.9869ZM10.9841 2.12682C10.9679 2.12682 10.9404 2.14089 10.9262 2.14089C10.9099 2.14089 10.7056 2.20022 10.3844 2.29978C10.0612 1.37564 9.49104 0.521899 8.48279 0.521899H8.39538C8.10164 0.158883 7.752 0 7.44403 0C5.09008 0 3.96189 2.90816 3.61225 4.38335C2.70563 4.65989 2.04904 4.86201 1.97281 4.89117C1.46055 5.05006 1.44734 5.06413 1.3894 5.54279C1.33147 5.88871 0 16.0904 0 16.0904L10.2828 18L10.9841 2.12682ZM8.30593 2.83475V2.93732C7.73777 3.11128 7.10863 3.29933 6.49371 3.48737C6.84538 2.15698 7.50197 1.50436 8.07216 1.25799C8.22056 1.63508 8.30593 2.14089 8.30593 2.83475ZM7.37085 0.622458C7.47249 0.622458 7.57515 0.650614 7.67882 0.725028C6.93482 1.07095 6.1146 1.95385 5.77716 3.71966C5.30096 3.87037 4.82288 4.01518 4.34303 4.15408C4.73841 2.8076 5.68975 0.622458 7.37085 0.622458ZM7.77944 8.4781C7.77944 8.4781 7.16554 8.16134 6.43578 8.16134C5.33808 8.16134 5.29437 8.84112 5.29437 9.01508C5.29437 9.94123 7.752 10.3022 7.752 12.4874C7.752 14.2089 6.6543 15.309 5.16326 15.309C3.37848 15.309 2.47186 14.2089 2.47186 14.2089L2.95464 12.6463C2.95464 12.6463 3.89175 13.4427 4.67946 13.4427C4.77406 13.4465 4.86847 13.4313 4.95704 13.3982C5.0456 13.3651 5.12651 13.3146 5.19491 13.2498C5.26332 13.1851 5.31783 13.1073 5.35517 13.0212C5.39252 12.9352 5.41194 12.8425 5.41227 12.7488C5.41227 11.5331 3.39372 11.4737 3.39372 9.47866C3.39372 7.80033 4.60831 6.16525 7.08017 6.16525C8.03151 6.16525 8.49803 6.43877 8.49803 6.43877L7.77944 8.4781ZM8.71655 1.15642C9.24304 1.21676 9.58048 1.80804 9.79799 2.47475C9.53576 2.56223 9.24203 2.64871 8.92085 2.74927V2.56123C8.92085 1.99709 8.84767 1.53352 8.71655 1.15642Z" fill="black"/>
</svg>
