<svg width="73" height="24" viewBox="0 0 73 24" fill="none" xmlns="http://www.w3.org/2000/svg">
<path d="M7.19336 21.9789H8.41114C8.48239 22.5619 8.72201 23.0478 9.70661 23.0478C10.3544 23.0478 10.7949 22.6914 10.7949 22.1667C10.7949 21.6421 10.5293 21.4348 9.57709 21.2923C8.05481 21.072 7.38768 20.6445 7.38768 19.4656C7.38768 18.4357 8.25566 17.6649 9.57056 17.6649C10.8855 17.6649 11.7212 18.3126 11.8377 19.4786H10.6783C10.6674 19.3469 10.6296 19.2189 10.5669 19.1025C10.5042 18.9861 10.4181 18.8841 10.3141 18.8025C10.2102 18.721 10.0904 18.6618 9.96244 18.6288C9.83449 18.5958 9.70106 18.5896 9.57056 18.6106C8.92286 18.6106 8.57951 18.915 8.57951 19.362C8.57951 19.809 8.78681 20.0616 9.79084 20.2041C11.2548 20.4049 12.0126 20.8065 12.0126 22.0566C12.0126 23.1319 11.1123 24 9.70661 24C8.01596 23.9676 7.27751 23.1708 7.19336 21.9789Z" fill="white"/>
<path d="M24.7275 17.7491H26.0554L27.5841 22.6008L29.1193 17.7491H30.3111L28.2448 23.8963H26.7873L24.7275 17.7491Z" fill="white"/>
<path d="M36.0046 17.7491H34.7285V23.8963H36.0046V17.7491Z" fill="white"/>
<path d="M40.9492 17.7491H42.4391L44.907 21.9919V17.7491H46.0406V23.8963H44.758L42.0893 19.3491V23.8963H40.9492V17.7491Z" fill="white"/>
<path d="M50.2307 20.8584V20.7872C50.2117 20.3737 50.2784 19.9608 50.4269 19.5744C50.5752 19.188 50.8019 18.8364 51.0928 18.542C51.3836 18.2475 51.7322 18.0164 52.1168 17.8632C52.5013 17.7101 52.9133 17.6382 53.327 17.652C54.6679 17.652 55.8662 18.2997 56.0216 19.7637H54.7585C54.7401 19.5975 54.6888 19.4368 54.6075 19.2908C54.5262 19.1448 54.4166 19.0164 54.2851 18.9132C54.1536 18.8101 54.0029 18.7343 53.8417 18.6901C53.6805 18.6459 53.5121 18.6343 53.3464 18.656C52.2128 18.656 51.5522 19.4981 51.5522 20.8001V20.8713C51.5522 22.1215 52.1092 22.996 53.3529 22.996C53.5524 23.0211 53.755 23.0031 53.9469 22.9428C54.1388 22.8827 54.3154 22.7818 54.4648 22.6472C54.6142 22.5126 54.7328 22.3473 54.8126 22.1627C54.8923 21.978 54.9313 21.7785 54.9269 21.5774H53.4565V20.6382H56.1707V21.247C56.1707 22.9182 55.1148 23.9806 53.327 23.9806C52.9104 24.0109 52.4921 23.9508 52.1009 23.8042C51.7097 23.6577 51.3549 23.4282 51.0608 23.1316C50.7666 22.835 50.5401 22.4783 50.3969 22.0859C50.2536 21.6935 50.1969 21.2748 50.2307 20.8584Z" fill="white"/>
<path d="M60.3867 21.9789H61.6045C61.6757 22.5619 61.9154 23.0478 62.9 23.0478C63.5477 23.0478 63.9882 22.6914 63.9882 22.1667C63.9882 21.6421 63.7226 21.4348 62.7704 21.2923C61.2482 21.072 60.581 20.6445 60.581 19.4656C60.581 18.4357 61.449 17.6649 62.764 17.6649C64.079 17.6649 64.921 18.3126 65.0312 19.4786H63.8717C63.8608 19.3469 63.8229 19.2189 63.7602 19.1025C63.6976 18.9861 63.6115 18.8841 63.5075 18.8025C63.4035 18.721 63.2837 18.6618 63.1558 18.6288C63.0278 18.5958 62.8945 18.5896 62.764 18.6106C62.1162 18.6106 61.7794 18.915 61.7794 19.362C61.7794 19.809 61.9802 20.0616 62.9842 20.2041C64.4481 20.4049 65.206 20.8065 65.206 22.0566C65.206 23.1319 64.3056 24 62.9 24C61.2093 23.9676 60.4709 23.1708 60.3867 21.9789Z" fill="white"/>
<path d="M17.732 21.5385H19.4681L18.5936 18.7855L17.732 21.5385ZM17.8421 17.7491H19.4681L21.4826 23.8963H20.187L19.7336 22.4518H17.447L16.9936 23.8963H15.8018L17.8421 17.7491Z" fill="white"/>
<path d="M36.5061 10.6393C35.8845 10.9982 35.0298 11.2033 34.3045 11.2033C31.6626 11.2033 30.0308 9.22927 30.1603 6.66557C30.238 5.12737 31.7662 3.92243 33.398 4.56335C34.1232 4.84536 34.8484 5.58883 35.8068 6.69121H36.0399V3.61479C34.5636 2.97387 32.1288 2.87132 30.4194 3.58915C28.0623 4.58899 26.586 6.56302 26.586 9.02415C26.586 11.8186 28.7099 13.9977 31.6885 13.9977C33.916 13.9977 35.5219 12.7672 36.6357 10.7418L36.5061 10.6393ZM42.9223 11.5879C42.8446 9.48562 42.8706 7.8192 42.8706 6.43484H46.5226V3.23024C45.4866 3.23024 43.518 4.15316 42.7929 5.43501L42.8187 3.15333L37.6644 4.76845V4.84536L39.1926 5.87083C39.2703 6.74248 39.2444 10.5111 39.1149 11.5879C39.0372 12.5364 38.571 12.9979 37.7162 13.6644V13.7413H44.7095V13.6644C43.544 13.0492 43 12.6646 42.9223 11.5879ZM25.5276 10.6393C24.906 10.9982 24.0513 11.2033 23.3261 11.2033C20.6841 11.2033 19.0524 9.22927 19.1819 6.66557C19.2596 5.12737 20.7877 3.92243 22.4195 4.56335C23.1447 4.84536 23.87 5.58883 24.8283 6.69121H25.0614V3.61479C23.5851 2.97387 21.1503 2.87132 19.4409 3.58915C17.0838 4.58899 15.6075 6.56302 15.6075 9.02415C15.6075 11.8186 17.7314 13.9977 20.71 13.9977C22.9375 13.9977 24.5434 12.7672 25.6572 10.7418L25.5276 10.6393ZM60.6869 12.2544C60.1171 11.8954 59.5731 11.5622 59.3142 11.2546C59.0551 10.8956 59.0034 10.4341 59.0034 9.9471V2.79441L55.1441 3.94807L55.1181 10.7674C54.885 10.87 54.1598 10.9982 53.8231 10.9982C52.4244 10.9982 51.9064 10.0496 51.9323 8.28067L51.9841 3.07642L48.2284 4.28135L48.2025 10.2291C48.2025 12.562 49.1868 13.972 51.3107 13.9977C52.7871 13.9977 54.4447 13.1004 55.2218 11.7673V13.9977L60.6869 12.3313V12.2544ZM64.9275 6.6143C64.9792 5.34658 65.4972 3.91092 66.6369 3.91092C67.6989 3.91092 68.191 5.21839 68.2428 6.35793L64.9275 6.6143ZM72.0243 7.79362C71.7912 4.94791 69.8228 3.07642 67.1031 3.07642C64.0986 3.07642 61.4049 5.89647 61.4049 8.89597C61.4049 10.8956 62.6481 12.8184 64.6684 13.5875C66.2225 14.2285 68.2687 14.1515 69.8228 13.1517C70.6775 12.6133 71.4546 11.716 72.1539 10.5111L72.0762 10.4598C70.3408 11.434 67.4916 11.434 66.0671 10.1521C65.2383 9.3831 64.9015 8.28067 64.9015 6.8963V7.79362H72.0243ZM4.86943 8.87032L6.57891 4.6659L8.44377 8.87032H4.86943ZM15.1004 13.6132C14.2974 12.7672 13.9866 12.1775 13.3909 10.9469L8.59917 0H4.66222L5.43925 1.84585L1.81309 10.4854C1.37276 11.6647 0.828839 12.7672 0 13.6388V13.7413H5.02483V13.6388C4.2737 12.7159 3.96289 11.7929 4.04059 10.6393H9.16902C9.73887 12.4595 8.46972 13.6388 8.46972 13.6388V13.7413H15.1004V13.6132Z" fill="white"/>
</svg>
