<svg id="Layer_1" data-name="Layer 1" xmlns="http://www.w3.org/2000/svg" viewBox="0 0 695.94 460.12"><defs><style>.cls-1{fill:#ebebeb;}.cls-2{fill:#263238;}.cls-3{fill:#455a64;}.cls-4{fill:#39c0c8;}.cls-5{fill:#fff;}</style></defs><path class="cls-1" d="M573.15,8.21l-2.37.69c-20,5.8-35.4,21.85-39.49,42.06a53.56,53.56,0,0,0-1,7.88c-1,19.11,8.43,38.5,24.17,49.72,9.26,6.6,20.81,10.86,27,20.33,8.08,12.32,4.1,28.47-.15,42.48s-8.19,30.18,0,42.47c5.09,7.69,14.09,12.12,23.17,14.06,24,5.11,49.65-5.69,65.84-23.85s23.77-42.63,25.32-66.86c2.18-33.93-7.4-69.34-30-95.15S606.82,1.48,573.15,8.21Z"/><path class="cls-2" d="M632.58,147.3a2.12,2.12,0,0,1,.08-.47c.08-.31.17-.78.29-1.36.27-1.21.65-3,1.15-5.2,1-4.54,2.51-11.07,4.33-19.14,3.72-16.19,8.84-38.53,14.53-63.28l.25-1.12.25,1.12c.11.44.21.93.32,1.41,5.65,25.1,10.77,47.81,14.48,64.28,1.82,8.22,3.3,14.87,4.32,19.5l1.16,5.3.28,1.39c.06.31.08.47.08.47a1.37,1.37,0,0,0-.13-.46c-.13-.31-.19-.79-.34-1.37-.29-1.23-.71-3-1.24-5.29-1.07-4.61-2.6-11.26-4.49-19.45L653.27,59.37c-.11-.48-.21-1-.31-1.4h.5c-5.74,24.73-10.92,47.07-14.67,63.24-1.9,8-3.43,14.57-4.49,19.1l-1.25,5.23c-.14.57-.26,1-.34,1.34A1.74,1.74,0,0,1,632.58,147.3Z"/><path class="cls-3" d="M632.57,166.09V150.2H675v15.89a18.49,18.49,0,0,1-18.49,18.45h-5.4A18.48,18.48,0,0,1,632.57,166.09Z"/><path class="cls-2" d="M632.57,150.2a4.54,4.54,0,0,1,.48.67l1.29,2c1.14,1.76,2.72,4.24,4.67,7.28l15.25,24.15.11.17H654l14.79-24.28,4.52-7.32c.53-.83.94-1.49,1.26-2a6.11,6.11,0,0,1,.46-.67,3.85,3.85,0,0,1-.37.73c-.3.5-.69,1.18-1.17,2l-4.39,7.41L654.4,184.7l-.22.36-.23-.36-.1-.17L638.73,160.3l-4.53-7.38-1.21-2A5.2,5.2,0,0,1,632.57,150.2Z"/><path class="cls-2" d="M658,57.71a4.63,4.63,0,1,1-4.63-4.63A4.63,4.63,0,0,1,658,57.71Z"/><path class="cls-2" d="M653.34,0c.15,0,.26,13.11.26,29.29s-.11,29.25-.26,29.25-.26-13.11-.26-29.29S653.2,0,653.34,0Z"/><path class="cls-2" d="M655.74,186.31a2,2,0,1,1-2-2A2,2,0,0,1,655.74,186.31Z"/><path class="cls-2" d="M652.88,187.05l.32-.16a4.39,4.39,0,0,0-2,3.28,11.38,11.38,0,0,0,.34,3.94c.09.42.31.93.73.9s.56-.47.62-.85a8.55,8.55,0,0,0,.06-2.37,4.13,4.13,0,0,0,.92,2.8c.12.15.3.31.49.26s.26-.25.31-.43a9.57,9.57,0,0,0,.3-2,3,3,0,0,0,.63,1.65,1.1,1.1,0,0,0,1.55.14l0,0a1.52,1.52,0,0,0,.17-1.16,13.69,13.69,0,0,0-2.78-6.51"/><path class="cls-4" d="M635.24,150.2s-19-21.95-16.93-22.74,19,11.37,19,11.37-14.54-32.53-11.63-34.91S644,132.75,644,132.75s-2.38-45.49,0-46,11.11,45.49,11.11,45.49,13-42.05,16.66-42.05-4,40.46-4,40.46,15.33-25.91,17.71-22.48-10.84,31.47-10.84,31.47,19.31-16.13,20.1-14-20.89,24.59-20.89,24.59Z"/><path class="cls-2" d="M632.58,117.15c.13-.06,3.51,7.18,7.54,16.17s7.2,16.32,7.07,16.38-3.51-7.16-7.54-16.16S632.45,117.2,632.58,117.15Z"/><path class="cls-2" d="M648,121.19c.15,0,.71,6.37,1.26,14.25s.87,14.28.73,14.29-.71-6.37-1.25-14.25S647.82,121.2,648,121.19Z"/><path class="cls-2" d="M669.18,100.82a1.86,1.86,0,0,1-.11.52l-.42,1.44c-.4,1.33-.94,3.12-1.59,5.3-1.34,4.47-3.15,10.67-5,17.55s-3.36,13.16-4.42,17.71c-.52,2.22-1,4-1.26,5.39-.14.59-.26,1.07-.36,1.46a1.82,1.82,0,0,1-.16.5,1.51,1.51,0,0,1,.06-.52c.07-.4.16-.89.26-1.48.24-1.29.61-3.14,1.1-5.43,1-4.57,2.44-10.86,4.28-17.76s3.7-13.08,5.14-17.53c.71-2.22,1.31-4,1.75-5.25.2-.57.37-1,.51-1.42A1.74,1.74,0,0,1,669.18,100.82Z"/><path class="cls-2" d="M678.36,124.27c.11.08-3.6,5.62-8.31,12.37s-8.61,12.16-8.73,12.08,3.6-5.62,8.31-12.38S678.24,124.18,678.36,124.27Z"/><path class="cls-2" d="M641.66,149.74a7.28,7.28,0,0,1-1.66-1.19,46,46,0,0,1-3.63-3.35,47.51,47.51,0,0,1-3.25-3.7,7.82,7.82,0,0,1-1.15-1.7c.13-.09,2.1,2.3,4.78,5S641.76,149.62,641.66,149.74Z"/><path class="cls-2" d="M653.23,141a20.39,20.39,0,0,1,.72,4.52,20.65,20.65,0,0,1,.16,4.58,19.85,19.85,0,0,1-.68-4.53A19.41,19.41,0,0,1,653.23,141Z"/><path class="cls-5" d="M675,160.1a9.37,9.37,0,0,1-1.64.34c-1,.19-2.59.43-4.5.69a145,145,0,0,1-15,1.33,95.13,95.13,0,0,1-15-.62c-1.91-.25-3.45-.5-4.51-.73a8.9,8.9,0,0,1-1.62-.39,13.18,13.18,0,0,1,1.66.19c1.06.16,2.6.36,4.51.56a112.07,112.07,0,0,0,15,.47c5.85-.2,11.13-.74,15-1.18l4.52-.52A11.89,11.89,0,0,1,675,160.1Z"/><path class="cls-5" d="M675,164.83a10.39,10.39,0,0,1-1.64.34c-1,.19-2.59.43-4.5.69a145,145,0,0,1-15,1.33,94,94,0,0,1-15-.63c-1.91-.24-3.45-.49-4.51-.72a9.1,9.1,0,0,1-1.62-.39,13.18,13.18,0,0,1,1.66.19c1.06.16,2.6.36,4.51.56a112.07,112.07,0,0,0,15,.47c5.85-.2,11.13-.74,15-1.18l4.52-.52A10.42,10.42,0,0,1,675,164.83Z"/></svg>