<svg width="92" height="23" viewBox="0 0 92 23" fill="none" xmlns="http://www.w3.org/2000/svg">
<path d="M29.3032 0.925812C26.6287 0.925812 24.52 2.9831 24.52 5.65757C24.52 8.22918 26.6287 10.2865 29.2003 10.2865C30.0233 10.2865 30.8976 10.0293 31.5662 9.66928L31.6691 9.61785V7.86915L31.3605 8.12632C30.7433 8.69207 29.9718 9.00066 29.1489 9.00066C27.3488 9.00066 25.9087 7.50913 25.9087 5.65757C25.9087 3.80601 27.3488 2.26305 29.1489 2.26305C29.9204 2.26305 30.7433 2.57164 31.3091 3.08596L31.5662 3.34312V1.59443V1.543C30.8976 1.13154 30.1261 0.925812 29.3032 0.925812Z" fill="white"/>
<path d="M37.5848 0.925812C35.0132 0.925812 32.853 3.03453 32.853 5.60614C32.853 8.22918 34.9103 10.2865 37.5848 10.2865C40.2078 10.2865 42.3165 8.22918 42.3165 5.60614C42.3165 3.03453 40.2078 0.925812 37.5848 0.925812ZM37.5848 8.94923C35.7847 8.94923 34.2931 7.4577 34.2931 5.60614C34.2931 3.70315 35.6818 2.26305 37.5848 2.26305C39.4363 2.26305 40.8764 3.70315 40.8764 5.60614C40.8764 7.4577 39.3849 8.94923 37.5848 8.94923Z" fill="white"/>
<path d="M49.3113 10.0807V8.79492H45.0425L49.4656 1.08009H43.4481V2.41733H47.0998L42.728 10.0807H49.3113Z" fill="white"/>
<path d="M55.8947 8.79492H52.3459V5.81185H55.7918V4.52605H52.3459V2.41733H55.8947V1.08009H50.9058V10.0807H55.8947V8.79492Z" fill="white"/>
<path d="M59.1349 4.21746L65.6154 10.3379V1.0801H64.1753V6.94337L57.6948 0.822937V10.0807H59.1349V4.21746Z" fill="white"/>
<path d="M35.8351 11.6751L34.395 15.5325L35.3722 15.944L37.1724 12.2409L35.8351 11.6751Z" fill="white"/>
<path d="M29.2518 13.4238C26.6802 13.4238 24.52 15.5326 24.52 18.1042C24.52 20.7272 26.5773 22.7845 29.2518 22.7845C31.8748 22.7845 33.9835 20.7272 33.9835 18.1042C33.9321 15.5326 31.8234 13.4238 29.2518 13.4238ZM29.2518 21.4473C27.4517 21.4473 25.9601 19.9557 25.9601 18.1042C25.9601 16.2012 27.4002 14.7611 29.2518 14.7611C31.1033 14.7611 32.5434 16.2012 32.5434 18.1042C32.492 19.9557 31.0519 21.4473 29.2518 21.4473Z" fill="white"/>
<path d="M41.1855 13.4238C38.5111 13.4238 36.4023 15.4811 36.4023 18.1556C36.4023 20.7272 38.5111 22.7845 41.0827 22.7845C41.9056 22.7845 42.7799 22.5273 43.4486 22.1673L43.5514 22.1159V20.3672L43.2943 20.6243C42.6771 21.1901 41.9056 21.4987 41.0827 21.4987C39.2825 21.4987 37.8424 20.0072 37.8424 18.1556C37.8424 16.304 39.2825 14.7611 41.0827 14.7611C41.8542 14.7611 42.6771 15.0697 43.2428 15.584L43.5 15.8412V14.0925L43.3971 14.041C42.8314 13.6296 42.0599 13.4238 41.1855 13.4238Z" fill="white"/>
<path d="M49.5164 13.4238C46.9448 13.4238 44.7847 15.5326 44.7847 18.1042C44.7847 20.7272 46.842 22.7845 49.5164 22.7845C52.1395 22.7845 54.2482 20.7272 54.2482 18.1042C54.1968 15.5326 52.088 13.4238 49.5164 13.4238ZM49.5164 21.4473C47.7163 21.4473 46.2248 19.9557 46.2248 18.1042C46.2248 16.2012 47.6134 14.7611 49.5164 14.7611C51.368 14.7611 52.8081 16.2012 52.8081 18.1042C52.7567 19.9557 51.3166 21.4473 49.5164 21.4473Z" fill="white"/>
<path d="M62.2199 19.4414L55.688 13.321V22.5787H57.1281V16.7155L63.6085 22.8359V13.5781H62.2199V19.4414Z" fill="white"/>
<path d="M72.0947 19.4414L65.6143 13.321V22.5787H67.0029V16.7155L73.5348 22.8359V13.5781H72.0947V19.4414Z" fill="white"/>
<path d="M79.7073 13.4238C77.1357 13.4238 74.9756 15.5326 74.9756 18.1042C74.9756 20.7272 77.0329 22.7845 79.7073 22.7845C82.3304 22.7845 84.4391 20.7272 84.4391 18.1042C84.4391 15.5326 82.3304 13.4238 79.7073 13.4238ZM79.7073 21.4473C77.9072 21.4473 76.4157 19.9557 76.4157 18.1042C76.4157 16.2012 77.8558 14.7611 79.7073 14.7611C81.5589 14.7611 82.999 16.2012 82.999 18.1042C82.999 19.9557 81.5589 21.4473 79.7073 21.4473Z" fill="white"/>
<path d="M91.1255 16.2526C91.1255 15.3268 90.6626 14.5039 89.8911 14.041C89.1196 13.6296 88.2453 13.6296 87.5252 13.6296H86.0337V22.6302H87.4738V18.9785H87.6795L90.2511 22.6302H91.9998L89.2225 18.8242C90.3026 18.5156 91.1255 17.487 91.1255 16.2526ZM89.7368 16.304C89.7368 17.2812 89.1196 17.7441 87.6281 17.7441H87.4224V14.9154H87.5252C89.0682 14.9154 89.7368 15.3268 89.7368 16.304Z" fill="white"/>
<path d="M20.7144 10.3379C20.0458 8.43487 17.9371 7.2005 15.6741 6.42902C17.1142 7.40623 18.3485 8.6406 18.7086 10.1836C19.0172 11.6751 18.1943 13.1666 16.2913 14.6067L13.8225 16.0983C13.7711 16.1497 11.7652 17.1269 12.1253 19.2871L12.5367 21.0872C15.5198 19.9042 22.8231 16.3554 20.7144 10.3379Z" fill="white"/>
<path d="M0.553265 15.9954C1.83907 19.6985 6.67369 21.6015 11.0969 22.5787C8.06236 21.0872 5.0793 18.927 4.41068 15.944C3.79349 13.1666 6.3651 10.1836 11.6112 7.66339C12.6398 7.04621 14.1828 5.70897 13.9256 3.54882L13.1541 0C9.19387 1.49153 -2.68696 6.73761 0.553265 15.9954Z" fill="white"/>
</svg>
