<svg width="114" height="16" viewBox="0 0 114 16" fill="none" xmlns="http://www.w3.org/2000/svg">
<path d="M52.7946 5.19811H54.3483V6.16604H54.3836C54.8779 5.48491 55.5842 5.00094 56.6082 5.00094C58.4973 5.00094 59.7509 6.54245 59.7509 8.90849C59.7509 11.2925 58.515 12.7981 56.6082 12.7981C55.6018 12.7981 54.9309 12.4217 54.4365 11.7406H54.4012V15.3075H52.8122V5.19811H52.7946ZM58.1089 8.94434C58.1089 7.4566 57.5439 6.34528 56.2727 6.34528C54.9132 6.34528 54.3306 7.51038 54.3306 8.94434C54.3306 10.3962 54.9486 11.4358 56.3257 11.4358C57.4556 11.4358 58.1089 10.4679 58.1089 8.94434ZM62.3815 6.18396H62.4169C62.9465 5.43113 63.5821 5.01887 64.6062 5.01887C66.1245 5.01887 67.0779 6.05849 67.0779 7.63585V12.6009H65.4889V7.83302C65.4889 6.97264 64.9593 6.43491 64.0765 6.43491C63.1054 6.43491 62.3815 7.18774 62.3815 8.26321V12.6009H60.7925V2.33019H62.3815V6.18396ZM72.7807 11.633C72.3746 12.2066 71.739 12.7443 70.5208 12.7443C69.1083 12.7443 68.0843 12.0094 68.0843 10.5755C68.0843 8.89057 69.3908 8.44245 71.0681 8.19151C72.1627 8.01226 72.7807 7.92264 72.7807 7.25943C72.7807 6.63208 72.2863 6.23774 71.4035 6.23774C70.4325 6.23774 69.9558 6.63208 69.9205 7.49245H68.4021C68.4374 6.14811 69.3555 5.03679 71.3859 5.03679C73.3457 5.03679 74.352 5.86132 74.352 7.58208V10.8085C74.352 11.3462 74.458 11.5613 74.97 11.4717H75.0053V12.5113C74.8464 12.6009 74.6345 12.6726 74.2638 12.6726C73.381 12.6906 72.9219 12.3858 72.7807 11.633ZM72.7983 9.93019V8.76509C72.4452 8.98019 71.8979 9.12358 71.3682 9.23113C70.3266 9.46415 69.7086 9.66132 69.7086 10.5217C69.7086 11.3283 70.2383 11.5613 70.9268 11.5613C72.1804 11.5792 72.7983 10.7009 72.7983 9.93019ZM77.4594 6.41698H77.4947C77.9361 5.6283 78.5187 5.14434 79.4368 5.14434C79.6487 5.14434 79.7723 5.16226 79.8959 5.19811V6.66792H79.8606C79.7546 6.63208 79.631 6.63208 79.4721 6.63208C78.3775 6.63208 77.5124 7.38491 77.5124 8.80094V12.583H75.9234V5.19811H77.4771V6.41698H77.4594ZM80.6551 5.19811H82.2088V6.21981H82.2441C82.6501 5.53868 83.3917 5.01887 84.3627 5.01887C85.2632 5.01887 85.987 5.52075 86.3225 6.32736H86.3578C86.8345 5.50283 87.6467 5.01887 88.5648 5.01887C89.9949 5.01887 90.8777 5.96887 90.8777 7.54623V12.6009H89.271V7.76132C89.271 6.88302 88.7766 6.41698 88.0704 6.41698C87.2053 6.41698 86.552 7.13396 86.552 8.17358V12.583H84.963V7.7434C84.963 6.86509 84.504 6.39906 83.7978 6.39906C82.9679 6.39906 82.2617 7.11604 82.2617 8.15566V12.5651H80.6727V5.19811H80.6551ZM96.5627 11.633C96.1567 12.2066 95.5211 12.7443 94.3028 12.7443C92.8904 12.7443 91.8664 12.0094 91.8664 10.5755C91.8664 8.89057 93.1729 8.44245 94.8502 8.19151C95.9448 8.01226 96.5627 7.92264 96.5627 7.25943C96.5627 6.63208 96.0684 6.23774 95.1856 6.23774C94.2145 6.23774 93.7379 6.63208 93.7025 7.49245H92.1842C92.2195 6.14811 93.1376 5.03679 95.168 5.03679C97.1277 5.03679 98.1341 5.86132 98.1341 7.58208V10.8085C98.1341 11.3462 98.24 11.5613 98.752 11.4717H98.7873V12.5113C98.6284 12.6009 98.4166 12.6726 98.0458 12.6726C97.1807 12.6906 96.704 12.3858 96.5627 11.633ZM96.5804 9.93019V8.76509C96.2273 8.98019 95.68 9.12358 95.1503 9.23113C94.1086 9.46415 93.4907 9.66132 93.4907 10.5217C93.4907 11.3283 94.0203 11.5613 94.7089 11.5613C95.9625 11.5792 96.5804 10.7009 96.5804 9.93019ZM99.2994 8.89057C99.2994 6.70377 100.676 5.00094 102.866 5.00094C104.684 5.00094 105.832 6.05849 106.079 7.63585H104.49C104.349 6.84717 103.766 6.30943 102.901 6.30943C101.577 6.30943 100.888 7.36698 100.888 8.87264C100.888 10.3604 101.559 11.4358 102.883 11.4358C103.837 11.4358 104.437 10.916 104.543 9.96604H106.097C105.973 11.6151 104.79 12.7802 102.901 12.7802C100.712 12.7981 99.2994 11.0774 99.2994 8.89057ZM107.015 15.3075V13.9811H107.05C107.227 14.0349 107.439 14.0708 107.686 14.0708C108.286 14.0708 108.569 13.8557 108.78 13.2462L109.081 12.4038L106.344 5.19811H108.039L109.381 9.05189C109.61 9.69717 109.857 10.5934 109.857 10.5934H109.893C109.893 10.5934 110.122 9.69717 110.352 9.05189L111.641 5.19811H113.283L110.352 13.3358C109.804 14.9132 109.257 15.3972 108.004 15.3972C107.633 15.4151 107.333 15.3792 107.015 15.3075ZM42.8015 8.74717C42.9957 9.66132 43.5077 9.98396 44.5671 9.98396C45.5028 9.98396 46.0148 9.6434 46.0148 9.10566C46.0148 8.33491 45.3263 8.28113 43.8962 7.90472C42.2189 7.4566 41.1419 7.08019 40.6475 6.7217C39.7118 6.05849 39.2704 5.10849 39.2704 3.90755C39.2704 1.54151 41.1066 0 44.3022 0C47.4096 0 49.2281 1.38019 49.44 3.85377H45.7853C45.6617 3.11887 45.1674 2.7783 44.2316 2.7783C43.4195 2.7783 43.0134 3.04717 43.0134 3.60283C43.0134 4.24811 43.6313 4.37358 44.7966 4.6783C46.2973 5.07264 47.4802 5.30566 48.2394 5.8434C49.2988 6.56038 49.7755 7.43868 49.7755 8.6934C49.7755 11.3462 47.904 12.9057 44.4082 12.9057C41.1772 12.9057 39.2881 11.3642 39.0409 8.74717H42.8015ZM28.6064 7.81509C28.3946 11.0236 26.3112 12.9057 22.8507 12.9057C19.0018 12.9057 16.6713 10.4321 16.6713 6.45283C16.6713 2.45566 19.0371 0 22.7801 0C26.2759 0 28.324 1.79245 28.5535 4.96509H24.8811C24.7752 3.7283 24.0866 3.06509 22.8331 3.06509C21.3147 3.06509 20.5732 4.19434 20.5732 6.45283C20.5732 8.67547 21.3853 9.82264 22.9567 9.82264C24.1219 9.82264 24.8635 9.10566 24.987 7.79717H28.6064V7.81509ZM27.7766 0.358491H31.7138L33.7442 8.24528L35.9158 0.358491H39.7118L35.6687 12.583H31.8198L27.7766 0.358491ZM4.29472 0.0179246C3.83567 0.0179246 3.37663 0.19717 3.04117 0.55566L0.516426 3.11887C-0.172142 3.81792 -0.172142 4.96509 0.516426 5.68208L7.64928 12.9057L14.7645 5.66415C15.453 4.96509 15.453 3.81792 14.7645 3.10094L12.2397 0.55566C11.8866 0.19717 11.4276 0.0179246 10.9862 0.0179246C10.5271 0.0179246 10.0681 0.19717 9.71498 0.55566L7.64928 2.67075L5.56592 0.55566C5.21281 0.19717 4.75376 0.0179246 4.29472 0.0179246Z" fill="#ffffff"/>
</svg>
