<svg width="71" height="29" viewBox="0 0 71 29" fill="none" xmlns="http://www.w3.org/2000/svg">
<path d="M71 0.255798H58.575V6.84259H50.3558V9.78918H55.1778L55.1088 10.227C54.9066 11.2108 54.3988 12.0176 53.5754 12.6472C52.752 13.2769 51.7709 13.5917 50.6318 13.5917C49.9071 13.5917 49.2267 13.4589 48.5906 13.1884C47.9497 12.9178 47.4023 12.5489 46.9389 12.0815C46.4754 11.6142 46.1154 11.0583 45.8542 10.409C45.5928 9.76456 45.4597 9.06606 45.4597 8.31343C45.4597 7.56079 45.5879 6.86718 45.8394 6.22769C46.0957 5.5882 46.4459 5.03724 46.8995 4.56992C47.3531 4.1026 47.8905 3.73366 48.5166 3.4631C49.1379 3.19255 49.8134 3.05974 50.5382 3.05974C51.4011 3.05974 52.2047 3.24174 52.9492 3.60084C53.6937 3.95994 54.3544 4.48138 54.9215 5.15531L57.2536 3.01054C56.4844 2.07589 55.5081 1.33802 54.3199 0.796908C53.1415 0.270555 51.8793 0 50.5382 0C49.3499 0 48.2356 0.216444 47.1904 0.644413C46.1451 1.0773 45.2379 1.66269 44.4785 2.40548C43.7488 3.11876 43.1768 3.95502 42.7429 4.90935C42.7085 4.30429 42.5753 3.73858 42.3436 3.22206C42.0675 2.60717 41.6829 2.08082 41.1899 1.64301C40.6968 1.2052 40.11 0.865777 39.4247 0.619818C38.7394 0.373858 37.9899 0.250878 37.1714 0.250878H29.2727V6.90653C29.1642 6.26704 28.9867 5.65215 28.7304 5.05693C28.2817 4.03373 27.6802 3.1532 26.9159 2.40548C26.1566 1.66269 25.2493 1.07238 24.2041 0.644413C23.1588 0.216444 22.0346 0 20.8315 0C19.6483 0 18.529 0.216444 17.4838 0.644413C16.4385 1.0773 15.5313 1.66269 14.772 2.40548C14.0077 3.14828 13.4062 4.03373 12.9575 5.05693C12.706 5.63247 12.5335 6.23261 12.425 6.84751V6.84259H3.34785V3.15811H12.425V0.255798H0V16.3809H3.34785V9.7941H12.425V9.78918C12.5335 10.404 12.706 11.0042 12.9575 11.5798C13.4062 12.603 14.0077 13.4835 14.772 14.2312C15.5313 14.974 16.4385 15.5643 17.4838 15.9923C18.529 16.4202 19.6483 16.6367 20.8315 16.6367C22.0346 16.6367 23.1538 16.4202 24.2041 15.9923C25.2493 15.5643 26.1566 14.974 26.9159 14.2312C27.6802 13.4884 28.2817 12.603 28.7304 11.5798C28.9916 10.9845 29.1642 10.3697 29.2727 9.73017V16.3809H32.6205V10.2073H36.2691L39.4345 16.3809H43.1768L39.5923 9.74495C40.5489 9.36118 41.3131 8.77091 41.89 7.96908C41.9442 7.89529 41.9935 7.81659 42.0428 7.73788C42.033 7.92973 42.0133 8.12158 42.0133 8.31343C42.0133 9.47928 42.2352 10.5713 42.6838 11.5847C43.1325 12.598 43.7341 13.4786 44.4983 14.2214C45.2576 14.9642 46.1648 15.5545 47.2101 15.9825C48.2554 16.4104 49.3795 16.6269 50.5826 16.6269C51.7363 16.6269 52.816 16.4153 53.817 15.9923C54.8179 15.5692 55.6758 14.9937 56.3907 14.2656C57.1057 13.5376 57.6677 12.662 58.077 11.6388C58.3137 11.0485 58.4715 10.4287 58.57 9.78426C58.57 9.77933 58.57 9.77441 58.57 9.76948V16.3809H70.9951V13.4786H61.9179V9.78918H71V9.65147V6.98032V6.84259H61.9228V3.15811H71V0.255798ZM25.565 10.3894C25.3036 11.0337 24.9437 11.5896 24.49 12.0619C24.0364 12.5292 23.4941 12.8981 22.863 13.1687C22.2319 13.4393 21.5564 13.572 20.8315 13.572C20.1068 13.572 19.4363 13.4393 18.8101 13.1687C18.1888 12.8981 17.6464 12.5292 17.1928 12.0619C16.7392 11.5945 16.3793 11.0386 16.118 10.3894C15.8566 9.74495 15.7235 9.05128 15.7235 8.31343C15.7235 7.56079 15.8517 6.86718 16.118 6.22769C16.3793 5.5882 16.7392 5.03724 17.1928 4.56992C17.6464 4.1026 18.1839 3.73366 18.8101 3.4631C19.4313 3.19255 20.1068 3.05974 20.8315 3.05974C21.5564 3.05974 22.2319 3.19255 22.863 3.4631C23.4941 3.73366 24.0364 4.1026 24.49 4.56992C24.9437 5.03724 25.3036 5.59311 25.565 6.22769C25.8262 6.86718 25.9594 7.56079 25.9594 8.31343C25.9594 9.05621 25.8262 9.74495 25.565 10.3894ZM38.6802 6.86718C38.2266 7.26564 37.6201 7.46732 36.8657 7.46732H32.6156V3.13352H36.8657C37.6201 3.13352 38.2266 3.3352 38.6802 3.73366C39.1338 4.13212 39.3606 4.65355 39.3606 5.29797C39.3655 5.94237 39.1387 6.46873 38.6802 6.86718Z" fill="white"/>
<path d="M12.5186 28.6527V22.603H13.7916V25.0315H16.6187V22.603H17.8918V28.6527H16.6187V26.181H13.7916V28.6527H12.5186Z" fill="white"/>
<path d="M21.4683 28.6527V22.603H26.1917V23.6919H22.7413V25.0747H26.1917V26.1291H22.7413V27.5637H26.2268V28.6527H21.4683Z" fill="white"/>
<path d="M29.0996 28.6527L31.6282 22.603H33.1032L35.5966 28.6527H34.2182L33.5949 27.0625H31.0575L30.4253 28.6527H29.0996ZM31.4526 26.0599H33.2086L32.3393 23.8302L31.4526 26.0599Z" fill="white"/>
<path d="M38.5786 28.6527V22.603H39.8516V27.5464H43.2143V28.6527H38.5786Z" fill="white"/>
<path d="M44.6089 23.7092V22.603H50.0173V23.7092H47.954V28.6527H46.6809V23.7092H44.6089Z" fill="white"/>
<path d="M53.1895 28.6527V22.603H54.4625V25.0315H57.2896V22.603H58.5627V28.6527H57.2896V26.181H54.4625V28.6527H53.1895Z" fill="white"/>
</svg>
