<svg width="25" height="24" viewBox="0 0 25 24" fill="none" xmlns="http://www.w3.org/2000/svg">
<path fill-rule="evenodd" clip-rule="evenodd" d="M11.9976 2.16233C15.203 2.16233 15.5793 2.17662 16.8462 2.23378C18.0179 2.28617 18.6513 2.48144 19.0752 2.64814C19.6372 2.86724 20.0373 3.12443 20.4564 3.54356C20.8756 3.96269 21.1375 4.36277 21.3519 4.92479C21.5138 5.34868 21.7138 5.98214 21.7662 7.1538C21.8234 8.42072 21.8377 8.79698 21.8377 12.0024C21.8377 15.2078 21.8234 15.584 21.7662 16.851C21.7138 18.0226 21.5186 18.6561 21.3519 19.08C21.1328 19.642 20.8756 20.0421 20.4564 20.4612C20.0373 20.8803 19.6372 21.1423 19.0752 21.3566C18.6513 21.5186 18.0179 21.7186 16.8462 21.771C15.5793 21.8281 15.203 21.8424 11.9976 21.8424C8.79222 21.8424 8.41596 21.8281 7.14904 21.771C5.97738 21.7186 5.34392 21.5233 4.92002 21.3566C4.35801 21.1375 3.95793 20.8803 3.5388 20.4612C3.11967 20.0421 2.85771 19.642 2.64338 19.08C2.48144 18.6561 2.28141 18.0226 2.22901 16.851C2.17186 15.584 2.15757 15.2078 2.15757 12.0024C2.15757 8.79698 2.17186 8.42072 2.22901 7.1538C2.28141 5.98214 2.47668 5.34868 2.64338 4.92479C2.86247 4.36277 3.11967 3.96269 3.5388 3.54356C3.95793 3.12443 4.35801 2.86247 4.92002 2.64814C5.34392 2.48621 5.97738 2.28617 7.14904 2.23378C8.41596 2.17186 8.79222 2.16233 11.9976 2.16233ZM11.9976 0C8.73983 0 8.33022 0.0142885 7.04902 0.0714428C5.77257 0.128597 4.90097 0.333399 4.13892 0.628696C3.34828 0.933519 2.68148 1.34789 2.01469 2.01469C1.34789 2.68148 0.938281 3.35305 0.628696 4.13892C0.333399 4.90097 0.128597 5.77257 0.0714428 7.05378C0.0142885 8.33022 0 8.73983 0 11.9976C0 15.2554 0.0142885 15.665 0.0714428 16.9462C0.128597 18.2227 0.333399 19.0943 0.628696 19.8611C0.933519 20.6517 1.34789 21.3185 2.01469 21.9853C2.68148 22.6521 3.35305 23.0617 4.13892 23.3713C4.90097 23.6666 5.77257 23.8714 7.05378 23.9286C8.33499 23.9857 8.73983 24 12.0024 24C15.2649 24 15.6698 23.9857 16.951 23.9286C18.2274 23.8714 19.099 23.6666 19.8658 23.3713C20.6565 23.0665 21.3233 22.6521 21.9901 21.9853C22.6569 21.3185 23.0665 20.647 23.3761 19.8611C23.6714 19.099 23.8762 18.2274 23.9333 16.9462C23.9905 15.665 24.0048 15.2602 24.0048 11.9976C24.0048 8.73507 23.9905 8.33022 23.9333 7.04902C23.8762 5.77257 23.6714 4.90097 23.3761 4.13415C23.0712 3.34352 22.6569 2.67672 21.9901 2.00992C21.3233 1.34312 20.6517 0.933519 19.8658 0.623933C19.1038 0.328637 18.2322 0.123834 16.951 0.0666799C15.665 0.0142886 15.2554 0 11.9976 0ZM11.9976 5.8345C8.59694 5.8345 5.83449 8.59219 5.83449 11.9976C5.83449 15.4031 8.59694 18.1608 11.9976 18.1608C15.3983 18.1608 18.1607 15.3983 18.1607 11.9976C18.1607 8.59696 15.3983 5.8345 11.9976 5.8345ZM11.9976 15.9984C9.78765 15.9984 7.99682 14.2076 7.99682 11.9976C7.99682 9.78767 9.78765 7.99684 11.9976 7.99684C14.2076 7.99684 15.9984 9.78767 15.9984 11.9976C15.9984 14.2076 14.2076 15.9984 11.9976 15.9984ZM19.842 5.59158C19.842 6.38597 19.198 7.02996 18.4037 7.02996C17.6093 7.02996 16.9653 6.38597 16.9653 5.59158C16.9653 4.79718 17.6093 4.1532 18.4037 4.1532C19.198 4.1532 19.842 4.79718 19.842 5.59158Z" fill="white"/>
</svg>
