<?xml version="1.0" encoding="utf-8"?>
<!-- Generator: Adobe Illustrator 25.4.1, SVG Export Plug-In . SVG Version: 6.00 Build 0)  -->
<svg version="1.1" id="Layer_1" xmlns="http://www.w3.org/2000/svg" xmlns:xlink="http://www.w3.org/1999/xlink" x="0px" y="0px"
	 viewBox="0 0 542.5 113.4" style="enable-background:new 0 0 542.5 113.4;" xml:space="preserve">
<style type="text/css">
	.st0{fill-rule:evenodd;clip-rule:evenodd;fill:#FFFFFF;}
</style>
<g>
	<path id="d" class="st0" d="M0,34.2h12.8c0,8.5,0,16.2,0,23S16.2,67.5,23,67.5h23v12.8c-5.1,0-12.8,0-23,0c-15.3,0-23-7.7-23-23
		C0,47,0,39.4,0,34.2z"/>
	<path id="l" class="st0" d="M46,63.6H33.2c0,2.6,0,0.4,0-6.4C33.2,50.4,29.8,47,23,47h-6.4V34.2c-6,0-3.8,0,6.4,0
		c15.3,0,23,7.7,23,23C46,67.5,46,69.6,46,63.6z"/>
	<path class="st0" d="M81.2,89.2V0H64.3v89.2H81.2z M122.2,90.4c9.1,0,16.3-2.9,21.7-8.7s8.1-13.6,8.1-23.2l0,0l-0.1-4.3
		c-0.6-8.9-3.6-16-9-21.2s-12.3-7.8-20.8-7.8c-6,0-11.2,1.3-15.7,4s-8,6.4-10.4,11.3c-2.4,4.9-3.6,10.4-3.6,16.7l0,0V58
		c0,10,2.7,17.9,8.1,23.7S113.1,90.4,122.2,90.4z M122.2,76.9c-4.2,0-7.4-1.6-9.6-4.7s-3.4-7.7-3.4-13.7c0-6.7,1.1-11.7,3.4-14.8
		s5.4-4.8,9.5-4.8c4.1,0,7.4,1.6,9.6,4.8s3.4,7.7,3.4,13.6c0,6.9-1.1,11.8-3.4,15S126.3,76.9,122.2,76.9z M189.5,90.4
		c9.1,0,16.3-2.9,21.7-8.7s8.1-13.6,8.1-23.2l0,0l-0.1-4.3c-0.6-8.9-3.6-16-9-21.2s-12.3-7.8-20.8-7.8c-6,0-11.2,1.3-15.7,4
		s-8,6.4-10.4,11.3s-3.6,10.4-3.6,16.7l0,0V58c0,10,2.7,17.9,8.1,23.7S180.4,90.4,189.5,90.4z M189.5,76.9c-4.2,0-7.4-1.6-9.6-4.7
		s-3.4-7.7-3.4-13.7c0-6.7,1.1-11.7,3.4-14.8s5.4-4.8,9.5-4.8c4.1,0,7.4,1.6,9.6,4.8s3.4,7.7,3.4,13.6c0,6.9-1.1,11.8-3.4,15
		S193.5,76.9,189.5,76.9z M246.4,113.4V83.8c3.9,4.4,9,6.6,15.4,6.6c7.5,0,13.4-2.9,17.8-8.7s6.6-13.6,6.6-23.3l0,0v-0.9
		c0-10.1-2.1-18-6.4-23.7s-10.3-8.6-18.1-8.6c-6.5,0-11.9,2.4-15.9,7.3l0,0l-0.6-6.2h-15.6v87H246.4z M257.3,76.9
		c-5.3,0-8.9-2.1-11-6.2l0,0V44.9c2-4,5.6-6,10.9-6c4,0,7,1.6,9,4.8s3.1,7.7,3.1,13.5C269.4,70.3,265.4,76.9,257.3,76.9z
		 M318.5,90.4c6.6,0,12-2.6,16.2-7.8l0,0l0.8,6.7h15.2V0h-16.9v32.1c-4-4.6-9-6.9-15.2-6.9c-7.6,0-13.6,2.9-18,8.7
		S294,47.5,294,57.4c0,10.4,2.2,18.5,6.7,24.3S311.1,90.4,318.5,90.4z M322.8,76.8c-3.9,0-6.9-1.6-8.9-4.7s-3.1-7.7-3.1-13.5
		c0-13.1,4-19.7,12.1-19.7c5.2,0,8.8,2.2,10.9,6.6l0,0v24.8C331.6,74.6,328,76.8,322.8,76.8z M382.5,90.4c6.5,0,11.8-2.3,15.9-6.8
		c0.3,2.2,0.9,4.1,1.7,5.6l0,0h17v-1c-1.6-3.1-2.5-7.6-2.5-13.5l0,0V47.5c0-7.1-2.3-12.5-6.8-16.4s-10.7-5.8-18.4-5.8
		c-5.1,0-9.7,0.9-13.8,2.6s-7.3,4.2-9.5,7.3s-3.4,6.5-3.4,10.1l0,0h16.8c0-2.4,0.8-4.2,2.4-5.6s3.8-2,6.7-2c3.2,0,5.6,0.9,7.1,2.6
		s2.2,4.1,2.2,7l0,0v3.6h-7.7c-9.3,0-16.5,1.8-21.4,5.4s-7.4,8.7-7.4,15.3c0,5.4,2,9.9,6.1,13.5S376.3,90.4,382.5,90.4z M386.2,77.6
		c-2.6,0-4.6-0.7-6-2s-2.2-3.1-2.2-5.2l0,0l0.1-1c0.5-5.8,5-8.7,13.4-8.7l0,0h6.3v10.8c-1,1.9-2.6,3.3-4.6,4.4
		S388.6,77.6,386.2,77.6z M451.4,90.4c7.8,0,14.1-1.8,19.1-5.3s7.4-8.2,7.4-13.9c0-8-4.4-13.7-13.3-16.9c-2.9-1-6.4-2-10.6-2.8
		s-7.2-1.8-8.9-3s-2.6-2.6-2.6-4.5c0-2,0.8-3.6,2.3-4.9s3.7-1.9,6.6-1.9c3.3,0,5.7,0.8,7.3,2.4s2.3,3.6,2.3,6l0,0h16.8
		c0-6-2.4-10.9-7.2-14.6s-11.2-5.6-19.1-5.6c-7.5,0-13.5,1.9-18.2,5.6s-6.9,8.4-6.9,14c0,9.6,7.5,15.9,22.4,19.1
		c4.5,0.9,7.8,2,9.8,3.2s3.1,2.8,3.1,4.9c0,2-0.8,3.6-2.5,4.8s-4.1,1.8-7.3,1.8c-3.4,0-6.2-0.8-8.3-2.4s-3.2-3.9-3.3-6.9l0,0h-15.9
		c0,3.8,1.2,7.3,3.5,10.6s5.5,5.8,9.6,7.7S446.1,90.4,451.4,90.4z M505,89.2V44.6c2.2-3.8,5.8-5.7,10.7-5.7c3.6,0,6.2,0.9,7.7,2.6
		s2.3,4.4,2.3,8l0,0v39.8h16.8V49c-0.2-15.8-7.1-23.8-20.7-23.8c-6.7,0-12.3,2.7-16.8,8l0,0V0h-16.8v89.2H505z"/>
</g>
</svg>
