<svg width="88" height="30" viewBox="0 0 88 30" fill="none" xmlns="http://www.w3.org/2000/svg">
<path d="M37.0786 0.569331C37.4591 1.45813 37.4635 2.51407 36.782 3.2549C35.9077 4.21197 34.9805 5.07488 33.9037 5.76763C32.852 6.3494 31.6721 6.80271 30.5933 7.35254C30.0102 7.63435 29.4512 7.94777 28.8464 8.1872C28.8424 8.24538 28.7687 8.21814 28.7731 8.27463C28.6596 8.27632 28.5328 8.37787 28.4149 8.43841C27.3599 8.85674 26.4819 9.54579 25.6166 10.2103C25.3743 10.5254 25.0128 10.7773 25.061 11.2154C25.1802 11.2985 25.3017 11.3621 25.4419 11.277C26.6225 10.5062 27.9855 9.84172 29.3793 9.46777C29.4911 9.38908 29.7083 9.44558 29.8147 9.37799C29.8492 9.36891 29.8924 9.34873 29.9188 9.37866C30.272 9.08273 30.8751 9.12207 31.2534 8.85674C31.4713 8.92333 31.562 8.68625 31.7538 8.65464C32.0132 8.72862 32.1364 8.43706 32.363 8.46262C33.3856 7.91817 34.5173 7.39155 35.4645 6.67459C36.1664 6.29392 36.6367 5.58133 37.2717 5.09338C37.3959 5.02108 37.5944 4.93768 37.7363 5.00695C37.7504 5.52248 37.7012 6.02388 37.9237 6.57101C37.9468 6.87199 37.7996 7.14303 37.834 7.44973C38.3683 7.55532 38.5346 6.88611 38.7592 6.50846C38.9544 5.59242 38.8844 4.64948 38.8647 3.71326C38.8312 3.3763 38.6782 2.90752 38.5952 2.56485C38.3991 2.22217 38.3301 1.7813 38.1336 1.43997C37.8591 0.908644 37.6958 0.193364 37.1288 0H37.1274C36.8734 0.155364 37.103 0.370587 37.0786 0.569331Z" fill="white"/>
<path d="M17.2082 13.6884C18.1776 12.8803 19.5834 12.6947 20.7623 12.6365C21.8886 12.5541 23.0023 12.6008 24.1293 12.4885C24.2019 12.4031 24.1758 12.3039 24.1892 12.2131C23.0839 11.6552 21.8358 11.4924 20.611 11.4558C19.9566 11.2964 19.2276 11.5395 18.5521 11.589C17.6852 11.9656 16.5431 12.0231 16.0638 12.8443C15.8981 13.0424 15.7786 13.3524 15.6246 13.5293C15.5239 13.5078 15.5152 13.4049 15.4134 13.384C15.4697 13.1971 15.2695 13.0572 15.3174 12.8803C15.1426 12.6207 14.7831 12.5269 14.4943 12.5178C13.3937 12.6974 12.2727 13.1544 11.2592 13.5122C9.30172 14.4242 7.2974 14.3001 5.36537 13.9463C4.81844 14.0068 4.22096 13.9571 3.78716 13.5539C3.348 12.8362 4.15301 12.1966 4.48639 11.6162C4.72572 11.1871 5.22814 10.9171 5.27466 10.4133C5.21843 10.1994 4.9694 10.38 4.85961 10.4305C3.86782 11.3418 2.9316 12.313 2.02752 13.3356C1.60577 13.6218 1.37715 14.2029 1.03305 14.5547C0.440929 15.4926 -0.376464 16.5202 0.19223 17.6455C1.61648 18.7885 3.43637 18.9432 5.14111 18.9849C7.05305 18.9408 9.04097 18.6173 10.9469 18.3732C11.9842 18.1707 13.2277 17.9222 14.2339 17.4309C14.4086 17.3653 14.5539 17.2587 14.676 17.1108C14.6573 17.0375 14.6466 16.9635 14.5639 16.9376C13.8463 17.0835 13.0563 17.1995 12.3132 17.2544C10.8237 17.445 9.34958 17.5839 7.89822 17.5214C7.77471 17.5264 7.62409 17.4988 7.54308 17.5496C5.88018 17.4501 4.20188 17.5079 2.61696 16.8007C2.11957 16.1944 2.59554 15.5366 2.866 15.0137C3.02499 14.8543 3.22214 14.9854 3.40959 14.972C4.04958 15.2898 4.72739 15.357 5.38479 15.4878C7.36434 15.5897 9.37201 15.4811 11.4292 15.0137C11.4403 14.9831 11.4567 14.977 11.4831 14.9996C12.1472 14.8018 12.8789 14.6344 13.5299 14.6794C13.7104 14.7067 13.9072 14.6925 14.0782 14.7618C14.6091 14.7453 14.7915 15.3207 15.1517 15.5975C15.3729 15.7397 15.5932 15.5285 15.7682 15.4314C16.2027 14.7958 16.7038 14.2389 17.2082 13.6884Z" fill="white"/>
<path d="M25.4214 13.5078C25.1877 13.9261 25.3785 14.4618 25.5124 14.9639C25.6403 15.7656 25.3822 16.5179 25.1432 17.2735C24.9949 18.0826 24.7914 18.8967 24.8138 19.7371C24.9333 21.0786 23.7946 22.2599 23.9827 23.6128C23.98 23.9979 24.1307 24.3802 24.1273 24.7656C24.3379 25.4106 23.9978 26.1084 23.5218 26.5432C23.2939 26.6236 23.003 26.7867 22.7637 26.6804C22.1411 26.6061 21.7371 26.1296 21.49 25.6009C20.2345 23.8721 20.4203 21.1209 18.9682 19.5895C18.4404 19.2226 17.8211 18.7363 17.939 18.0594C17.7759 17.3071 17.6196 16.4348 17.1594 15.8557C17.0185 15.8275 16.8504 15.9502 16.7172 15.9183C16.3952 16.1493 15.935 16.3215 15.8546 16.7368C15.5962 17.0949 15.7452 17.5439 15.8017 17.9047C16.0702 18.5517 16.1191 19.27 16.335 19.9043C16.417 20.4971 16.9197 20.8425 17.2923 21.2625C19.3471 23.0532 19.8877 26.0125 21.5694 28.0864C21.6534 28.1893 21.7702 28.265 21.8395 28.38C22.1049 28.4429 22.3365 28.7354 22.6107 28.6907C22.9668 28.5179 23.4328 28.6524 23.6577 28.3131C24.4383 27.9771 24.8764 27.1774 25.4093 26.5247C26.6752 24.8487 25.829 22.7889 25.7132 20.8781C25.5891 19.7008 26.2448 18.6398 26.2833 17.4948C26.2906 16.196 26.2605 14.7917 25.6851 13.5343C25.6075 13.4583 25.5171 13.4728 25.4214 13.5078Z" fill="white"/>
<path d="M34.6729 22.4962C34.6729 22.399 34.596 22.3583 34.4182 22.3583C34.1129 22.3583 34.1635 22.5651 33.0934 22.5651H30.9819V13.7887C30.9819 13.1105 31.2357 13.1105 31.2357 12.9981C31.2357 12.8761 31.1329 12.8478 31.0342 12.8478H29.1487C29.0466 12.8478 28.9448 12.8761 28.9448 12.9981C28.9448 13.1105 29.1989 13.1105 29.1989 13.7887V22.2752C29.1989 22.9525 28.9448 22.9525 28.9448 23.0635C28.9448 23.1882 29.0466 23.2138 29.1487 23.2138H34.29C34.6977 23.2138 34.6729 23.1882 34.6729 23.0218V22.4962Z" fill="white"/>
<path d="M39.8537 21.7779C39.8537 22.1845 39.7125 22.7706 38.7522 22.7706C37.8852 22.7706 37.7447 22.1845 37.7447 21.7779V15.1128C37.7447 14.7069 37.978 14.1214 38.8456 14.1214C39.7125 14.1214 39.8537 14.7069 39.8537 15.1128V21.7779ZM38.8456 13.4855C36.0583 13.4855 35.7544 15.9649 35.7544 18.4578C35.7544 20.6578 36.0583 23.4059 38.7522 23.4059C41.446 23.4059 41.8437 20.6578 41.8437 18.4578C41.8437 15.9649 41.5394 13.4855 38.8456 13.4855Z" fill="white"/>
<path d="M48.0947 23.2137H49.0296C49.3807 23.2137 49.4048 23.1256 49.4048 22.9733V14.5406C49.4048 13.9185 49.6394 13.9185 49.6394 13.8166C49.6394 13.7016 49.5447 13.6767 49.4513 13.6767H48.0699C47.9762 13.6767 47.8815 13.7016 47.8815 13.8166C47.8815 13.9185 48.1171 13.9185 48.1171 14.5406V19.7426L45.5404 13.9054C45.4935 13.7513 45.4229 13.6767 45.1183 13.6767H43.7366C43.6445 13.6767 43.5498 13.7016 43.5498 13.8166C43.5498 13.9185 43.7831 13.9185 43.7831 14.5406V22.3508C43.7831 22.9733 43.5498 22.9733 43.5498 23.0748C43.5498 23.1899 43.6445 23.2137 43.7366 23.2137H45.1183C45.2134 23.2137 45.3068 23.1899 45.3068 23.0748C45.3068 22.9733 45.0718 22.9733 45.0718 22.3508V16.6901L47.8594 22.9602C47.8594 22.9602 47.9062 23.2137 48.0947 23.2137Z" fill="white"/>
<path d="M57.1994 22.3615V19.2209C57.1994 19.1069 57.1297 19.0814 56.9651 19.0814H55.4678C55.2791 19.0814 54.9534 19.1069 54.9534 19.2599C54.9534 19.6285 55.5606 19.5646 55.5606 19.9967V22.1594C55.5606 22.4896 55.1853 22.7708 54.5768 22.7708C53.6858 22.7708 53.3363 22.2102 53.3363 21.5366V15.1125C53.3363 14.7066 53.7092 14.1215 54.5768 14.1215C55.5606 14.1215 55.6305 15.0372 55.6305 16.118C55.6305 16.5512 55.4678 16.4994 55.4678 16.7281C55.4678 16.8562 55.6777 16.8562 55.8404 16.8562H56.8499C57.2231 16.8562 57.2697 16.8437 57.2697 16.6517C57.2697 16.5885 57.1994 16.4355 57.1994 16.3215C57.1994 14.6552 56.4964 13.4853 54.5079 13.4853C51.9539 13.4853 51.3447 15.965 51.3447 18.4579C51.3447 20.6579 51.7675 23.4057 54.5303 23.4057C56.0295 23.4057 57.0119 22.6806 57.1994 22.3615Z" fill="white"/>
<path d="M60.9734 23.2137C61.0749 23.2137 61.1759 23.1882 61.1759 23.0634C61.1759 22.9528 60.9216 22.9528 60.9216 22.2752V17.2023H63.4655V22.2752C63.4655 22.9528 63.2127 22.9528 63.2127 23.0634C63.2127 23.1882 63.3162 23.2137 63.4179 23.2137H65.2994C65.4032 23.2137 65.5042 23.1882 65.5042 23.0634C65.5042 22.9528 65.2489 22.9528 65.2489 22.2752V13.789C65.2489 13.1104 65.5042 13.1104 65.5042 12.9981C65.5042 12.876 65.4032 12.8477 65.2994 12.8477H63.4179C63.3162 12.8477 63.2127 12.876 63.2127 12.9981C63.2127 13.1104 63.4655 13.1104 63.4655 13.789V16.3024H60.9216V13.789C60.9216 13.1104 61.1759 13.1104 61.1759 12.9981C61.1759 12.876 61.0749 12.8477 60.9734 12.8477H59.0903C58.9882 12.8477 58.8848 12.876 58.8848 12.9981C58.8848 13.1104 59.1402 13.1104 59.1402 13.789V22.2752C59.1402 22.9528 58.8848 22.9528 58.8848 23.0634C58.8848 23.1882 58.9882 23.2137 59.0903 23.2137H60.9734Z" fill="white"/>
<path d="M71.1928 21.7779C71.1928 22.1845 71.0522 22.7706 70.0905 22.7706C69.2243 22.7706 69.0837 22.1845 69.0837 21.7779V15.1128C69.0837 14.7069 69.3193 14.1214 70.1846 14.1214C71.0522 14.1214 71.1928 14.7069 71.1928 15.1128V21.7779ZM73.184 18.4578C73.184 15.9649 72.8788 13.4855 70.1846 13.4855C67.3973 13.4855 67.0938 15.9649 67.0938 18.4578C67.0938 20.6578 67.3973 23.4059 70.0905 23.4059C72.784 23.4059 73.184 20.6578 73.184 18.4578Z" fill="white"/>
<path d="M76.5743 14.2611C77.9801 14.2611 78.2141 14.6926 78.2141 16.143C78.2141 17.4034 77.8867 18.165 76.5743 18.3046V14.2611ZM78.6593 22.9601C78.7061 23.2137 78.8701 23.2137 79.1279 23.2137H80.4152C80.5786 23.2137 80.7667 23.2271 80.7667 23.0493C80.7667 22.8576 80.4628 22.8845 80.3915 22.6292C80.2522 22.1988 79.807 19.6027 78.5896 18.5474C79.5958 18.1533 80.206 17.3385 80.206 16.143C80.206 14.9861 79.5024 13.6766 77.0429 13.6766H74.8879C74.7959 13.6766 74.7012 13.7015 74.7012 13.8165C74.7012 13.9184 74.9358 13.9184 74.9358 14.5406V22.3508C74.9358 22.9733 74.7012 22.9733 74.7012 23.0748C74.7012 23.1898 74.7959 23.2137 74.8879 23.2137H76.6218C76.7165 23.2137 76.8076 23.1898 76.8076 23.0748C76.8076 22.9733 76.5743 22.9733 76.5743 22.3508V18.8911C78.1197 18.8517 78.5896 22.5028 78.6593 22.9601Z" fill="white"/>
<path d="M87.8127 13.6765H86.4296C86.3362 13.6765 86.2428 13.7014 86.2428 13.8164C86.2428 13.9187 86.4761 13.9187 86.4761 14.5405V19.7425L83.9014 13.9056C83.8532 13.7515 83.7819 13.6765 83.4773 13.6765H82.0973C82.0042 13.6765 81.9102 13.7014 81.9102 13.8164C81.9102 13.9187 82.1441 13.9187 82.1441 14.5405V22.3507C82.1441 22.9735 81.9102 22.9735 81.9102 23.0747C81.9102 23.1897 82.0042 23.2136 82.0973 23.2136H83.4773C83.5727 23.2136 83.6661 23.1897 83.6661 23.0747C83.6661 22.9735 83.4321 22.9735 83.4321 22.3507V16.69L86.2204 22.96C86.2204 22.96 86.2669 23.2136 86.4537 23.2136H87.3906C87.7404 23.2136 87.7645 23.1258 87.7645 22.9735V14.5405C87.7645 13.9187 88.0001 13.9187 88.0001 13.8164C88.0001 13.7014 87.9074 13.6765 87.8127 13.6765Z" fill="white"/>
<path d="M30.1679 26.4482C30.1679 26.276 30.4039 26.0957 31.0945 26.0957C31.8402 26.0957 32.7436 26.3069 32.7436 26.4949V26.5773L32.8397 26.622L33.3873 25.5721L33.2989 25.5442C33.243 25.6034 33.1882 25.6565 33.0871 25.6565C32.8712 25.6565 32.0852 25.3408 31.0001 25.3408C29.8332 25.3408 29.0727 25.8587 29.0727 26.6153C29.0727 28.0711 32.339 27.4526 32.339 28.0105C32.339 28.3431 31.9815 28.5237 31.1905 28.5237C30.3658 28.5237 29.5176 28.1834 29.5176 27.9816C29.5176 27.913 29.5176 27.8592 29.532 27.8209L29.452 27.7846L28.8662 29.1273L28.9606 29.1512C29.0101 29.1045 29.0567 29.0534 29.1216 29.0534C29.3027 29.0534 29.8901 29.3997 31.2136 29.3997C32.9341 29.3997 33.4492 28.6831 33.4492 28.0348C33.4492 26.2985 30.1679 27.119 30.1679 26.4482Z" fill="white"/>
<path d="M39.1899 25.4912H35.2736C35.1856 25.4912 35.1554 25.4522 35.13 25.28H35.0366V26.6211H35.13C35.1554 26.4493 35.1856 26.4106 35.2736 26.4106H36.6369V29.2327C36.6369 29.301 36.6128 29.3541 36.4157 29.3682V29.4607H38.0475V29.3682C37.8506 29.3541 37.8262 29.301 37.8262 29.2327V26.4106H39.1899C39.2782 26.4106 39.3084 26.4493 39.3325 26.6211H39.4282V25.28H39.3325C39.3084 25.4522 39.2782 25.4912 39.1899 25.4912Z" fill="white"/>
<path d="M45.3073 28.2301C45.2842 28.4194 45.2521 28.4571 45.1661 28.4571H42.6205V27.7546H44.094C44.2523 27.7546 44.3099 27.8303 44.333 27.9284H44.4263V26.7518H44.333C44.3099 26.8483 44.2523 26.9253 44.094 26.9253H42.6205V26.2995H45.1661C45.2521 26.2995 45.2842 26.3358 45.3073 26.5107H45.4021V25.1975H45.3073C45.2842 25.3707 45.2521 25.4087 45.1661 25.4087H41.209V25.4988C41.4065 25.5129 41.4292 25.566 41.4292 25.6333V29.1512C41.4292 29.2181 41.4065 29.2719 41.209 29.287V29.3782H45.1661C45.2521 29.3782 45.2842 29.4148 45.3073 29.543H45.4021V28.2301H45.3073Z" fill="white"/>
<path d="M50.0306 27.8915H48.5528L49.2605 26.0957M51.6949 29.0366C51.2039 27.8915 50.2265 25.6333 50.2265 25.5742C50.2265 25.4978 50.282 25.483 50.3704 25.4753V25.3855H48.3005V25.4753C48.3721 25.483 48.4595 25.4978 48.4595 25.551C48.4595 25.5977 47.1179 28.9168 47.0473 29.0897C46.9987 29.2114 46.9532 29.242 46.8438 29.2629V29.3543H48.2442V29.2629C48.1324 29.2629 48.1016 29.2353 48.1016 29.1886C48.1016 29.1438 48.1495 29.0433 48.357 28.4945H50.2355C50.2676 28.5916 50.5036 29.1438 50.5036 29.1724C50.5036 29.2185 50.4658 29.2572 50.354 29.2629V29.3543H51.9175V29.2629C51.8204 29.2629 51.7746 29.2185 51.6949 29.0366Z" fill="white"/>
<path d="M57.673 29.1437L56.0556 26.8415L57.429 25.718C57.6271 25.5508 57.6653 25.4903 57.8712 25.4755V25.3847H55.8571V25.4755C55.9445 25.4829 56.0001 25.4829 56.0001 25.5744C56.0001 25.6568 55.0816 26.3818 54.4469 26.9703H54.3907V25.611C54.3907 25.5445 54.4151 25.4903 54.612 25.4755V25.3847H52.9785V25.4755C53.1793 25.4903 53.2018 25.5445 53.2018 25.611V29.1272C53.2018 29.1945 53.1793 29.2493 52.9785 29.2628V29.3542H54.612V29.2628C54.4151 29.2493 54.3907 29.1945 54.3907 29.1272V28.2236L55.1686 27.5598C55.2881 27.7478 56.2621 29.0758 56.2621 29.1662C56.2621 29.2628 56.2079 29.2628 56.1119 29.2628V29.3542H57.9267V29.2628C57.8236 29.2628 57.761 29.2628 57.673 29.1437Z" fill="white"/>
<path d="M62.3354 25.4755C62.5326 25.4903 62.5574 25.5444 62.5574 25.611V26.8108H60.4961V25.611C60.4961 25.5444 60.5196 25.4903 60.7184 25.4755V25.3853H59.0859V25.4755C59.2828 25.4903 59.3075 25.5444 59.3075 25.611V29.1272C59.3075 29.1948 59.2828 29.2496 59.0859 29.263V29.3542H60.7184V29.263C60.5196 29.2496 60.4961 29.1948 60.4961 29.1272V27.7319H62.5574V29.1272C62.5574 29.1948 62.5326 29.2496 62.3354 29.263V29.3542H63.9689V29.263C63.7707 29.2496 63.7486 29.1948 63.7486 29.1272V25.611C63.7486 25.5444 63.7707 25.4903 63.9689 25.4755V25.3853H62.3354V25.4755Z" fill="white"/>
<path d="M67.6024 28.4797C66.9118 28.4797 66.2999 28.0788 66.2999 27.3703C66.2999 26.6604 66.9118 26.2602 67.6024 26.2602C68.2902 26.2602 68.9024 26.6604 68.9024 27.3703C68.9024 28.0788 68.2902 28.4797 67.6024 28.4797ZM67.6024 25.3408C66.2524 25.3408 65.1284 26.0497 65.1284 27.3703C65.1284 28.6899 66.2524 29.3997 67.6024 29.3997C68.9489 29.3997 70.0756 28.6899 70.0756 27.3703C70.0756 26.0497 68.9489 25.3408 67.6024 25.3408Z" fill="white"/>
<path d="M78.7582 26.4482C78.7582 26.276 78.9952 26.0957 79.6847 26.0957C80.4305 26.0957 81.3346 26.3069 81.3346 26.4949V26.5773L81.429 26.622L81.9766 25.5721L81.8892 25.5442C81.8337 25.6034 81.7778 25.6565 81.6767 25.6565C81.4601 25.6565 80.6759 25.3408 79.5897 25.3408C78.4248 25.3408 77.6633 25.8587 77.6633 26.6153C77.6633 28.0711 80.9299 27.4526 80.9299 28.0105C80.9299 28.3431 80.5741 28.5237 79.7818 28.5237C78.9571 28.5237 78.1082 28.1834 78.1082 27.9816C78.1082 27.913 78.1082 27.8592 78.1229 27.8209L78.0426 27.7846L77.4585 29.1273L77.5519 29.1512C77.5997 29.1045 77.6469 29.0534 77.7095 29.0534C77.894 29.0534 78.4804 29.3997 79.8039 29.3997C81.5257 29.3997 82.0388 28.6831 82.0388 28.0348C82.0388 26.2985 78.7582 27.119 78.7582 26.4482Z" fill="white"/>
<path d="M87.8239 28.2301C87.7998 28.4194 87.7697 28.4571 87.6834 28.4571H85.1371V27.7546H86.6132C86.7696 27.7546 86.8245 27.8303 86.8492 27.9284H86.946V26.7518H86.8492C86.8245 26.8483 86.7696 26.9253 86.6132 26.9253H85.1371V26.2995H87.6834C87.7697 26.2995 87.7998 26.3358 87.8239 26.5107H87.9197V25.1975H87.8239C87.7998 25.3707 87.7697 25.4087 87.6834 25.4087H83.7256V25.4988C83.9237 25.5129 83.9485 25.566 83.9485 25.6333V29.1512C83.9485 29.2181 83.9237 29.2719 83.7256 29.287V29.3782H87.6834C87.7697 29.3782 87.7998 29.4148 87.8239 29.543H87.9197V28.2301H87.8239Z" fill="white"/>
<path d="M74.4534 25.4538C74.6482 25.4679 74.6746 25.521 74.6746 25.5876V27.6114C74.6746 28.1918 74.3091 28.4255 73.6761 28.4255C73.0392 28.4255 72.6763 28.1918 72.6763 27.6114V25.5876C72.6763 25.521 72.6998 25.4679 72.8983 25.4538V25.364H71.2651V25.4538C71.463 25.4679 71.4864 25.521 71.4864 25.5876V27.6114C71.4864 28.94 72.4628 29.3775 73.6761 29.3775C74.8895 29.3775 75.8642 28.94 75.8642 27.6114V25.5876C75.8642 25.521 75.8863 25.4679 76.0851 25.4538V25.364H74.4534V25.4538Z" fill="white"/>
</svg>
