<svg width="88" height="27" viewBox="0 0 88 27" fill="none" xmlns="http://www.w3.org/2000/svg">
<path d="M72.3612 18.5402C72.3612 12.8029 72.3598 13.9961 72.3598 9.05908H70.4459V18.8174C70.2158 18.9736 69.8092 19.129 69.2462 19.129C68.5334 19.129 68.0732 18.6365 68.0732 17.4462V9.05872H66.1597V17.1599C66.1597 19.6729 67.3075 20.7862 69.17 20.7862C70.6756 20.7862 71.6261 20.1606 72.482 19.9855C72.4788 19.9705 72.4759 19.957 72.4727 19.9421C72.4468 19.906 72.372 19.6466 72.3612 18.5402Z" fill="#ffffff"/>
<path d="M64.4059 2.12159C64.866 2.12159 65.0141 2.28939 65.1417 2.34082L65.7507 0.623416C65.7507 0.623416 65.0903 0.233826 64.3293 0.233826C62.232 0.233826 61.4811 1.61599 61.4807 3.70694C61.4807 6.55408 61.48 23.7759 61.48 26.6194L63.395 25.6403V11.1639H65.1665V9.05869H63.395V8.97698C63.395 8.96932 63.3979 3.70694 63.3903 3.70694C63.3903 3.29072 63.4489 2.12159 64.4059 2.12159Z" fill="#ffffff"/>
<path d="M56.691 8.77264C54.3582 8.79015 53.1421 10.8143 53.1421 14.7026C53.1421 18.7076 54.3953 20.7857 56.691 20.7857C58.9867 20.7857 60.2398 18.7076 60.2398 14.7026C60.2398 10.8143 59.0233 8.79052 56.691 8.77264ZM56.691 19.0424C55.6661 19.0424 55.0977 17.9211 55.0977 14.7029C55.0977 11.6501 55.6373 10.5681 56.691 10.5681C57.7443 10.5681 58.2889 11.9233 58.2839 14.7029C58.2781 17.8226 57.7152 19.0424 56.691 19.0424Z" fill="#ffffff"/>
<path d="M87.7951 19.942C87.6009 19.6713 87.6825 15.4891 87.6825 9.06815H85.7683V18.817C85.3279 19.1147 83.3953 19.8016 83.3953 17.4454V9.06851H81.4824V17.1602C81.4824 19.6732 82.6299 20.7858 84.4928 20.7858C85.9983 20.7858 86.9485 20.1609 87.8044 19.9858C87.8008 19.9708 87.7979 19.957 87.7951 19.942Z" fill="#ffffff"/>
<path d="M77.9261 13.7261L80.2994 9.06854H78.0246L75.9334 13.4704C75.9334 13.4704 75.9503 0.15248 75.9503 0L74.0181 0.978352V20.4279H75.9503V14.1376H76.0024L78.5782 20.4279H80.5151C80.5334 20.4287 80.5496 20.4272 80.5676 20.4279L80.5611 20.4137L80.6798 20.4279L77.9261 13.7261Z" fill="#ffffff"/>
<path d="M49.5667 8.77673C48.6482 8.77673 47.8422 9.37279 47.2052 10.0458C46.9755 9.37279 46.2752 8.77673 45.2542 8.77673C44.4033 8.77673 43.7034 9.33412 43.3008 9.75983V9.05908H41.3872V20.4276H43.3008V11.799C43.3008 11.5086 43.6567 11.1405 43.6567 11.1391C44.1582 10.6495 45.0436 10.5934 45.4178 11.1391C45.4243 11.1475 45.4297 11.1566 45.4354 11.1653C45.4361 11.1661 45.4361 11.1664 45.4369 11.1672C45.5886 11.3959 45.6741 11.7395 45.6741 12.232V20.4272H47.5769V11.799C47.5769 11.5086 47.9328 11.1405 47.9328 11.1391C48.3113 10.7696 48.9092 10.6473 49.3402 10.8447C50.0189 11.1121 49.9599 12.1134 49.9599 12.7193V20.428H51.8997V12.0653C51.8997 9.60479 50.8421 8.77673 49.5667 8.77673Z" fill="#ffffff"/>
<path d="M29.4705 8.77673C28.552 8.77673 27.7464 9.37279 27.1086 10.0458C26.8793 9.37279 26.1786 8.77673 25.158 8.77673C24.3071 8.77673 23.6068 9.33412 23.2046 9.75983V9.05908H21.291V20.4276H23.2046V11.799C23.2046 11.5086 23.5605 11.1405 23.5605 11.1391C24.062 10.6495 24.9474 10.5934 25.3216 11.1391C25.3277 11.1475 25.3335 11.1566 25.3392 11.1653C25.3399 11.1661 25.3403 11.1664 25.3407 11.1672C25.6599 11.6483 25.5776 11.5666 25.5776 20.4272H27.4807V11.799C27.4807 11.5086 27.8366 11.1405 27.8366 11.1391C28.2155 10.7696 28.813 10.6473 29.244 10.8447C29.9227 11.1121 29.8634 12.1134 29.8634 12.7193V20.428H31.8036V12.0653C31.8036 9.60479 30.7463 8.77673 29.4705 8.77673Z" fill="#ffffff"/>
<path d="M36.5962 8.77264C34.2635 8.79015 33.0474 10.8143 33.0474 14.7026C33.0474 18.7076 34.3005 20.7857 36.5962 20.7857C38.8916 20.7857 40.1451 18.7076 40.1451 14.7026C40.1451 10.8143 38.929 8.79052 36.5962 8.77264ZM36.5962 19.0424C35.5717 19.0424 35.0033 17.9211 35.0033 14.7029C35.0033 11.6501 35.5429 10.5681 36.5962 10.5681C37.6495 10.5681 38.1945 11.9233 38.1891 14.7029C38.1834 17.8226 37.6208 19.0424 36.5962 19.0424Z" fill="#ffffff"/>
<path d="M18.3573 7.20668C17.1836 5.18359 14.5341 3.40381 11.5777 3.90757C9.99449 4.17751 9.08785 5.0789 8.3944 5.78257C8.38253 5.78512 8.37391 5.78694 8.3624 5.7895C7.17393 5.34701 3.39893 8.50787 4.37962 13.4069C4.96882 16.3584 7.25122 17.9135 9.21296 18.1929C11.7682 18.5562 14.0319 17.4783 15.3092 17.5589C15.3092 17.5589 15.3099 17.5582 15.3103 17.5582C15.3369 17.5604 15.3627 17.5618 15.3901 17.5618L15.3908 17.5626C15.4609 17.5611 15.5119 17.5498 15.5328 17.4735C15.5454 17.425 15.5324 17.3765 15.4882 17.2948L15.4886 17.2941C15.2319 16.9165 16.2392 16.1377 16.7597 15.7408C17.7462 14.989 18.5701 13.6495 18.8599 12.4486C19.1115 11.4072 19.4444 9.08131 18.3573 7.20668Z" fill="#ffffff"/>
<path d="M15.0333 3.59169C15.1627 3.51071 15.2378 3.37355 15.0854 3.38413C14.8845 3.40127 14.6256 3.37282 14.3053 3.24004C13.5569 2.9183 12.7707 2.46633 11.9356 2.40833C11.1414 2.35106 10.7525 2.6593 10.4282 3.11455C10.9322 3.46766 11.3748 3.72666 11.7961 3.89811C12.4856 4.17753 13.1125 4.21912 13.8383 4.04037C13.893 4.02651 13.9437 4.01302 13.9951 3.99915C14.2701 3.92401 14.5012 3.84011 14.7241 3.74089C14.7241 3.74089 14.8539 3.68544 15.0142 3.6019C15.0207 3.59826 15.0268 3.59497 15.0333 3.59169Z" fill="#ffffff"/>
<path d="M5.16998 1.65828V1.65572C2.91993 2.27768 0.934115 4.00494 0.0835638 5.48779L0.0864398 5.48633C0.0472554 5.55783 0.077812 5.49289 0.00483569 5.63735C-0.0149362 5.67675 0.0299999 5.71687 0.0659489 5.6917C0.283799 5.53667 0.618484 5.38528 1.11925 5.3229C4.88994 4.8465 9.61147 5.33494 10.3402 1.77173C8.71454 1.31356 6.73627 1.27161 5.16998 1.65828Z" fill="#ffffff"/>
<path d="M70.4632 24.4501C70.4689 24.5263 70.4689 24.6197 70.4689 24.6547C70.4689 25.2967 70.2615 25.7932 69.8359 26.1967C69.4505 26.5472 68.9497 26.7453 68.4263 26.7453C67.2864 26.7453 66.4175 25.8753 66.4175 24.7313C66.4175 23.5749 67.2806 22.6987 68.4148 22.6987C69.0594 22.6987 69.6403 22.9796 70.0318 23.4695L69.3236 24.0244C69.0763 23.7143 68.8059 23.5749 68.4436 23.5749C67.8278 23.5749 67.3611 24.0707 67.3611 24.7371C67.3611 25.3792 67.8565 25.8869 68.4835 25.8869C68.9267 25.8869 69.2887 25.6298 69.4447 25.2157H68.5011V24.4504L70.4632 24.4501Z" fill="#ffffff"/>
<path d="M72.5873 26.6687H71.6548V22.7743H72.8975C73.4037 22.7743 73.7725 22.8676 74.026 23.0665C74.2902 23.2766 74.4397 23.6271 74.4397 24.0532C74.4397 24.6423 74.1924 25.0399 73.6978 25.2387L74.5436 26.6687H73.4278L72.5877 25.1625V26.6687H72.5873ZM72.8864 24.631C73.2714 24.631 73.4961 24.4329 73.4961 24.0937C73.4961 23.7668 73.2779 23.5509 72.9436 23.5509H72.5873V24.631H72.8864Z" fill="#ffffff"/>
<path d="M79.6334 24.7306C79.6334 25.8457 78.7357 26.7446 77.6253 26.7446C76.4803 26.7446 75.5708 25.8567 75.5708 24.7361C75.5708 24.1695 75.7955 23.6439 76.2154 23.2412C76.5838 22.8906 77.0843 22.6984 77.6483 22.6984C78.7821 22.6987 79.6334 23.5687 79.6334 24.7306ZM76.5209 24.7244C76.5209 25.3671 76.998 25.8687 77.608 25.8687C78.2062 25.8687 78.6897 25.3671 78.6897 24.7423C78.6897 24.0769 78.2299 23.5746 77.6141 23.5746C76.9868 23.5742 76.5209 24.0645 76.5209 24.7244Z" fill="#ffffff"/>
<path d="M81.7586 25.0399C81.7586 25.3314 81.7985 25.5123 81.8905 25.6469C81.9886 25.7815 82.1673 25.8691 82.3625 25.8691C82.575 25.8691 82.7766 25.7637 82.8629 25.6119C82.9323 25.4828 82.961 25.3205 82.961 25.0399V22.7743H83.8928V24.9994C83.8928 25.5714 83.7606 26.0033 83.496 26.2955C83.2364 26.5819 82.8288 26.7449 82.3675 26.7449C81.8901 26.7449 81.4591 26.5698 81.1823 26.2598C80.935 25.9796 80.8257 25.6064 80.8257 24.9994V22.7743H81.7582L81.7586 25.0399Z" fill="#ffffff"/>
<path d="M86.1875 26.6687H85.2554V22.7743H86.5733C87.4824 22.7743 88.0001 23.2416 88.0001 24.0532C88.0001 24.8703 87.4655 25.4018 86.6308 25.4018H86.1875V26.6687ZM86.4464 24.6252C86.8317 24.6252 87.0561 24.4271 87.0561 24.0879C87.0561 23.7665 86.8378 23.5505 86.5096 23.5505H86.1872V24.6248L86.4464 24.6252Z" fill="#ffffff"/>
</svg>
