<?xml version="1.0" encoding="UTF-8"?>
<svg width="99px" height="18px" viewBox="0 0 99 18" version="1.1" xmlns="http://www.w3.org/2000/svg" xmlns:xlink="http://www.w3.org/1999/xlink">
    <title>review-stars</title>
    <g id="Page-1" stroke="none" stroke-width="1" fill="none" fill-rule="evenodd">
        <g id="review-stars" transform="translate(0.186766, 0.000000)" fill="#FFB21A" fill-rule="nonzero">
            <polygon id="Path" points="9.37661408 0 11.5901352 6.81250704 18.7532338 6.81250704 12.9581634 11.0228732 15.1716845 17.8353521 9.37661408 13.6250141 3.58154366 17.8353521 5.79506479 11.0228732 -2.44249065e-15 6.81250704 7.16309296 6.81250704"></polygon>
            <polygon id="Path" points="29.0949239 0 31.3084451 6.81250704 38.4715437 6.81250704 32.6764732 11.0228732 34.8899944 17.8353521 29.0949239 13.6250141 23.2998535 17.8353521 25.5133746 11.0228732 19.7183042 6.81250704 26.8814028 6.81250704"></polygon>
            <polygon id="Path" points="48.8132338 0 51.0267549 6.81250704 58.1898535 6.81250704 52.3947831 11.0228732 54.6083042 17.8353521 48.8132338 13.6250141 43.0181634 17.8353521 45.2316845 11.0228732 39.4366141 6.81250704 46.5997127 6.81250704"></polygon>
            <polygon id="Path" points="68.5315437 0 70.7450648 6.81250704 77.9081634 6.81250704 72.113093 11.0228732 74.3266141 17.8353521 68.5315437 13.6250141 62.7364732 17.8353521 64.9499944 11.0228732 59.1549239 6.81250704 66.3180225 6.81250704"></polygon>
            <polygon id="Path" points="88.5315437 0 90.7450648 6.81250704 97.9081634 6.81250704 92.113093 11.0228732 94.3266141 17.8353521 88.5315437 13.6250141 82.7364732 17.8353521 84.9499944 11.0228732 79.1549239 6.81250704 86.3180225 6.81250704"></polygon>
            <polygon id="Path" opacity="0.25" points="88.2498535 0 90.4633746 6.81250704 97.6264732 6.81250704 91.8314028 11.0228732 94.0449239 17.8353521 88.2498535 13.6250141 82.4547831 17.8353521 84.6683042 11.0228732 78.8732338 6.81250704 86.0363324 6.81250704"></polygon>
            <polygon id="Path" points="86.0363324 6.81250704 88.2498535 0 88.2498535 13.6250141 82.4547831 17.8353521 84.6683042 11.0228732 78.8732338 6.81250704"></polygon>
        </g>
    </g>
</svg>