<?xml version="1.0" encoding="utf-8"?>
<!-- Generator: Adobe Illustrator 25.4.1, SVG Export Plug-In . SVG Version: 6.00 Build 0)  -->
<svg version="1.1" id="Layer_1" xmlns="http://www.w3.org/2000/svg" xmlns:xlink="http://www.w3.org/1999/xlink" x="0px" y="0px"
	 viewBox="0 0 492 441" style="enable-background:new 0 0 492 441;" xml:space="preserve">
<style type="text/css">
	.st0{fill:#EBEBEB;}
	.st1{fill:#263238;}
	.st2{fill:#39C0C8;}
	.st3{fill:#FAFAFA;}
	.st4{fill:#FFFFFF;}
	.st5{fill:#455A64;}
	.st6{opacity:0.3;}
	.st7{fill:#E0E0E0;}
	.st8{fill:#FFBE9D;}
	.st9{fill:#EB996E;}
	.st10{opacity:0.2;}
</style>
<g id="freepik--background-simple--inject-960">
	<path class="st0" d="M444.2,108.8c0.8,16.9-9.3,32.5-23.6,41.4c-14.7,8.9-33.1,9.5-48.3,1.4c-16.7-9.1-27.5-27.9-45.7-33.4
		c-13.9-4.2-29,0.4-43.2-2.5c-26.8-5.4-42.1-38.4-33.6-64.4c8.5-26,35.4-43.1,62.6-45.8s54.4,6.7,78.1,20.2
		c15.3,8.7,29.8,19.4,40.3,33.5S447.2,91.5,444.2,108.8"/>
	<path class="st0" d="M297.8,258.1c-14.5-10.8-34.4-9.5-52.2-6.6s-36.8,6.5-53.4-0.7c-13.9-6.1-23.7-19.2-30.1-33
		s-10-28.7-15.6-42.9s-13.5-28.1-26.2-36.5s-38.7-17.5-50.5-7.8l0,0c-10,5.3-20.5,16.7-26.7,26.2c-11,17.1-18.4,50.1-19.3,64.3
		C21.4,263.7,27,310,60,341.9c35.4,34.3,82.4,51.3,121.4,48c36.1-3.1,76.4-19.5,103.7-43.3c13-11.3,24-25.6,27.7-42.3
		S311.5,268.3,297.8,258.1z"/>
</g>
<g id="freepik--Floor--inject-960">
	<path class="st1" d="M488.1,435.1c0,0.1-104.4,0.3-233.1,0.3s-233.1-0.1-233.1-0.3s104.4-0.3,233.1-0.3S488.1,435,488.1,435.1z"/>
</g>
<g id="freepik--Plant--inject-960">
	<path class="st2" d="M434.5,351.8c2.9,1.3,5.1,3.8,6.1,6.8c1,3,1.3,6.2,0.9,9.3c-0.6,6-4,12.1-7.6,17c-5.1-4.4-6.4-12.1-6.8-16
		C426.6,362.6,429.2,351,434.5,351.8"/>
	<path class="st2" d="M440,394.8c-0.7-3.5,0.4-7.1,3.1-9.5c2.7-2.3,6.2-3.5,9.7-3.2c1.6,0.1,3.4,0.5,4.3,1.9c0.8,1.3,0.9,3,0.1,4.3
		c-0.8,1.3-1.8,2.4-3.2,3.2C449.7,394.3,445,396.2,440,394.8"/>
	<path class="st2" d="M431.5,398.3c-1.5-7.4-6.5-13.5-13.4-16.5c-1.7-0.7-4-1.2-5.3,0.1s-0.9,3.6-0.2,5.3
		c3.4,7.3,10.8,11.9,18.8,11.6"/>
	<path class="st1" d="M433,413.7c0-0.4,0.1-0.8,0.2-1.3c0.1-0.8,0.4-2,0.7-3.4c0.8-3.7,2-7.4,3.7-10.8c1.7-3.4,4.4-6.3,7.6-8.4
		c1-0.6,2-1.1,3.1-1.5c0.3-0.1,0.6-0.2,0.9-0.2c0.1,0,0.2-0.1,0.3-0.1c-1.5,0.5-2.9,1.2-4.2,2c-3.1,2.1-5.7,5-7.4,8.4
		c-1.7,3.4-3,7-3.8,10.7l-0.8,3.4C433.3,412.9,433.2,413.3,433,413.7z"/>
	<path class="st1" d="M433.2,360.9c0,0.2,0.1,0.4,0.1,0.5c0,0.4,0.1,0.9,0.1,1.5c0.1,1.4,0.2,3.3,0.3,5.7c0.2,4.8,0.4,11.5,0.5,18.9
		s0,14-0.2,18.9c-0.1,2.4-0.1,4.4-0.2,5.7c0,0.6-0.1,1.2-0.1,1.5c0,0.2,0,0.4-0.1,0.5c0-0.2,0-0.4,0-0.5c0-0.4,0-0.9,0-1.6
		c0-1.4,0-3.3,0.1-5.7c0.1-4.8,0.1-11.5,0.1-18.9s-0.2-14-0.4-18.9c-0.1-2.4-0.1-4.3-0.2-5.7c0-0.6,0-1.2,0-1.6
		C433.3,361.3,433.2,361.1,433.2,360.9z"/>
	<path class="st1" d="M419.2,387.3c0.4,0.1,0.8,0.3,1.1,0.5c0.4,0.2,0.9,0.4,1.3,0.7c0.5,0.3,1.1,0.6,1.6,1l0.9,0.6
		c0.3,0.2,0.6,0.5,0.9,0.8c0.6,0.5,1.3,1.1,1.9,1.8c1.4,1.5,2.6,3.1,3.6,4.8c1,1.7,1.8,3.6,2.4,5.5c0.3,0.8,0.5,1.7,0.7,2.5
		c0.1,0.4,0.2,0.8,0.2,1.2s0.1,0.7,0.1,1.1c0.1,0.7,0.1,1.3,0.1,1.9c0,0.5,0,1,0,1.4c0,0.4,0,0.8-0.1,1.2c-0.1,0,0.1-1.7-0.3-4.5
		c0-0.4-0.1-0.7-0.2-1.1s-0.2-0.8-0.2-1.1c-0.1-0.8-0.4-1.6-0.7-2.5c-1.2-3.8-3.3-7.3-6-10.2c-0.6-0.6-1.2-1.3-1.9-1.8
		c-0.3-0.3-0.6-0.5-0.9-0.8l-0.9-0.7C420.8,388.1,419.2,387.4,419.2,387.3z"/>
	<polygon class="st1" points="443.4,435.1 425.1,435.1 421.3,408.2 446.9,408.2 	"/>
	<path class="st3" d="M445.3,420.6c0,0.1-5,0.3-11.1,0.3s-11.1-0.1-11.1-0.3s5-0.3,11.1-0.3S445.3,420.4,445.3,420.6z"/>
	<path class="st3" d="M445.3,422.2c0,0.1-5,0.3-11.1,0.3s-11.1-0.1-11.1-0.3s5-0.3,11.1-0.3S445.3,422,445.3,422.2z"/>
</g>
<g id="freepik--Files--inject-960">
	<path class="st1" d="M388.6,435l-140.1,0.1c-1.2,0-2.1-0.9-2.1-2.1c0,0,0,0,0,0v-84.6c0-1.2,1-2.1,2.1-2.1c0,0,0,0,0,0l140.1-0.1
		c1.2,0,2.1,1,2.1,2.1v84.6C390.7,434,389.8,435,388.6,435z"/>
	<polygon class="st4" points="320,381.7 331.9,388 320.5,395.5 309.1,403 308.7,389.2 308.2,375.3 	"/>
	<path class="st4" d="M380.3,426.1c0,0.1-27.6,0.3-61.8,0.3s-61.8-0.1-61.8-0.2s27.6-0.3,61.8-0.3S380.3,426,380.3,426.1z"/>
	<path class="st4" d="M259,426.2c0,0.9-0.7,1.6-1.6,1.6s-1.6-0.7-1.6-1.6s0.7-1.6,1.6-1.6l0,0C258.3,424.6,259,425.3,259,426.2z"/>
	<path class="st5" d="M366.7,434.8l-148.8,0.1c-1.2,0-2.1-1-2.1-2.1l0,0v-89.9c0-1.2,1-2.1,2.1-2.1c0,0,0,0,0,0l148.8-0.1
		c1.2,0,2.1,1,2.1,2.1v90C368.8,433.9,367.9,434.8,366.7,434.8z"/>
	<polygon class="st4" points="293.9,378.2 306.5,385 294.4,392.9 282.3,400.9 281.8,386.2 281.3,371.5 	"/>
	<path class="st4" d="M357.8,425.4c0,0.1-29.3,0.3-65.5,0.3s-65.5-0.1-65.5-0.2s29.3-0.3,65.5-0.3S357.8,425.2,357.8,425.4z"/>
	<path class="st4" d="M229.1,425.4c0,0.9-0.7,1.6-1.6,1.6c-0.9,0-1.7-0.7-1.7-1.6c0-0.9,0.7-1.6,1.6-1.6h0
		C228.4,423.8,229.1,424.5,229.1,425.4z"/>
	<path class="st2" d="M226.1,381h83.5c1.2,0,2.1,1,2.1,2.1v49.8c0,1.2-1,2.1-2.1,2.1h-83.5c-1.2,0-2.1-1-2.1-2.1v-49.8
		C224,382,224.9,381,226.1,381z"/>
	<polygon class="st4" points="268.8,402.6 276,406.5 269.1,411 262.1,415.6 261.9,407.2 261.6,398.7 	"/>
	<path class="st4" d="M305.4,429.7c0,0.1-16.8,0.3-37.6,0.3s-37.6-0.1-37.6-0.2s16.8-0.3,37.6-0.3S305.4,429.5,305.4,429.7z"/>
	<path class="st4" d="M231.6,429.7c0,0.5-0.4,0.9-1,0.9c-0.5,0-0.9-0.4-0.9-1c0-0.5,0.4-0.9,1-0.9c0,0,0,0,0,0
		C231.2,428.7,231.6,429.2,231.6,429.7z"/>
</g>
<g id="freepik--Screen--inject-960">
	<rect x="60" y="67.4" class="st4" width="393.2" height="250.5"/>
	<path class="st1" d="M453.5,316.9c0-1.9-0.1-96.8-0.2-250.5l0.2,0.2L60.3,66.7l0,0l0.3-0.3c0,88.7,0,173.4,0,250.5l-0.3-0.3
		L453.5,316.9l-393.2,0.3H60v-0.3c0-77.1,0-161.8,0-250.5v-0.3h0.3l393.2,0.1h0.2v0.2C453.6,220.1,453.5,315,453.5,316.9z"/>
	<path class="st1" d="M453.7,81.4c0,0.2-88.1,0.3-196.8,0.3S60,81.6,60,81.4s88.1-0.3,196.9-0.3S453.7,81.3,453.7,81.4z"/>
	<path class="st1" d="M73,72.2c0,1.4-1.1,2.5-2.5,2.5s-2.5-1.1-2.5-2.5s1.1-2.5,2.5-2.5S73,70.7,73,72.2L73,72.2z"/>
	<path class="st1" d="M80.8,72.2c0,1.4-1.1,2.5-2.5,2.5s-2.5-1.1-2.5-2.5s1.1-2.5,2.5-2.5S80.8,70.7,80.8,72.2L80.8,72.2z"/>
	<path class="st1" d="M88.5,72.2c0,1.4-1.1,2.5-2.5,2.5s-2.5-1.1-2.5-2.5s1.1-2.5,2.5-2.5S88.5,70.7,88.5,72.2L88.5,72.2z"/>
	<rect x="86.4" y="216.4" class="st2" width="81.1" height="78.5"/>
	<g class="st6">
		<polygon points="92.7,288.1 115.1,247.8 133.4,273.6 144.6,259.9 161.2,288.1 		"/>
	</g>
	<g class="st6">
		<path d="M141.3,239.9c0,3.2-2.6,5.8-5.8,5.9c-3.2,0-5.8-2.6-5.9-5.8c0-3.2,2.6-5.8,5.8-5.9c0,0,0,0,0,0
			C138.6,234.1,141.2,236.7,141.3,239.9z"/>
	</g>
	<g class="st6">
		<path d="M161.2,288.4c0-0.1,0-0.2,0-0.3c0-0.2,0-0.5,0-0.9c0-0.8,0-2,0-3.5c0-3.1,0-7.6-0.1-13.3c0-11.5-0.1-27.8-0.2-47.4
			l0.3,0.3l-68.5,0.1l0.4-0.4v17.6c0,5.8,0,11.4,0,16.9c0,11,0,21.4,0,30.9l-0.3-0.3l49.5,0.2l14,0.1h3.7h1h0.3c-0.1,0-0.2,0-0.3,0
			h-0.9h-3.6l-13.9,0.1l-49.8,0.2h-0.3v-0.3c0-9.5,0-19.9,0-30.9c0-5.5,0-11.1,0-16.9v-17.5l0.4-0.4l68.5,0h0.3v0.3
			c-0.1,19.7-0.1,36.1-0.2,47.6c0,5.7-0.1,10.2-0.1,13.2c0,1.5,0,2.6,0,3.5c0,0.4,0,0.6,0,0.9C161.4,288.2,161.3,288.3,161.2,288.4z
			"/>
	</g>
	<rect x="178.7" y="231.3" class="st2" width="54.9" height="2.8"/>
	<path class="st1" d="M252.7,243.2c0,0.2-16.5,0.3-36.8,0.3s-36.8-0.1-36.8-0.3s16.5-0.3,36.8-0.3S252.7,243,252.7,243.2z"/>
	<path class="st1" d="M252.7,250.9c0,0.2-16.5,0.3-36.8,0.3S179,251,179,250.9s16.5-0.3,36.8-0.3S252.7,250.7,252.7,250.9z"/>
	<path class="st1" d="M252.7,258.6c0,0.2-16.5,0.3-36.8,0.3s-36.8-0.1-36.8-0.3s16.5-0.3,36.8-0.3S252.7,258.4,252.7,258.6z"/>
	<path class="st1" d="M252.7,266.3c0,0.1-16.5,0.3-36.8,0.3s-36.8-0.1-36.8-0.3s16.5-0.3,36.8-0.3S252.7,266.1,252.7,266.3z"/>
	<path class="st1" d="M252.7,274c0,0.1-16.5,0.3-36.8,0.3S179,274.1,179,274s16.5-0.3,36.8-0.3S252.7,273.8,252.7,274z"/>
	<path class="st1" d="M216.9,281c0,0.1-8.5,0.3-18.9,0.3S179,281.2,179,281s8.5-0.3,18.9-0.3S216.9,280.9,216.9,281z"/>
	<rect x="356" y="226.7" class="st2" width="54.9" height="2.8"/>
	<path class="st1" d="M430,238.5c0,0.2-16.5,0.3-36.8,0.3s-36.8-0.1-36.8-0.3s16.5-0.3,36.8-0.3S430,238.4,430,238.5z"/>
	<path class="st1" d="M430,246.2c0,0.2-16.5,0.3-36.8,0.3s-36.8-0.1-36.8-0.3s16.5-0.3,36.8-0.3S430,246.1,430,246.2z"/>
	<path class="st1" d="M430,253.9c0,0.1-16.5,0.3-36.8,0.3s-36.8-0.1-36.8-0.3s16.5-0.3,36.8-0.3S430,253.8,430,253.9z"/>
	<path class="st1" d="M430,261.6c0,0.1-16.5,0.3-36.8,0.3s-36.8-0.1-36.8-0.3s16.5-0.3,36.8-0.3S430,261.5,430,261.6z"/>
	<path class="st1" d="M430,269.3c0,0.2-16.5,0.3-36.8,0.3s-36.8-0.1-36.8-0.3s16.5-0.3,36.8-0.3S430,269.2,430,269.3z"/>
	<path class="st1" d="M394.2,276.4c0,0.1-8.5,0.3-18.9,0.3s-18.9-0.1-18.9-0.3s8.5-0.3,18.9-0.3S394.2,276.2,394.2,276.4z"/>
	<path class="st1" d="M344.7,297.5c0.9-0.3,1.8-0.4,2.7-0.3c-0.6,0.6-0.2,0.2-0.3,0.3l0,0V297v-0.5c0-0.3,0-0.6,0.1-0.9
		c0-0.5,0.1-0.8,0.2-0.8s0.1,0.3,0.2,0.8c0,0.3,0,0.5,0.1,0.9v1l0,0l-0.3,0.3C346.5,297.9,345.5,297.8,344.7,297.5z"/>
	<path class="st1" d="M333,297.5c1.9-0.4,3.9-0.4,5.8,0C336.9,297.9,334.9,297.9,333,297.5z"/>
	<path class="st1" d="M321.4,297.5c1.9-0.4,3.9-0.4,5.8,0C325.3,297.9,323.3,297.9,321.4,297.5z"/>
	<path class="st1" d="M309.8,297.5c1.9-0.4,3.9-0.4,5.8,0C313.7,297.9,311.7,297.9,309.8,297.5z"/>
	<path class="st1" d="M298.1,297.5c1.9-0.4,3.9-0.4,5.8,0C302,297.9,300,297.9,298.1,297.5z"/>
	<path class="st1" d="M286.5,297.5c1.9-0.4,3.9-0.4,5.8,0C290.4,297.9,288.4,297.9,286.5,297.5z"/>
	<path class="st1" d="M274.8,297.5c1.9-0.4,3.9-0.4,5.8,0C278.7,297.9,276.8,297.9,274.8,297.5z"/>
	<path class="st1" d="M266.3,294.8c0.3,0.9,0.4,1.8,0.3,2.7l-0.3-0.3h1.1l0.9,0.1c0.5,0.1,0.8,0.1,0.8,0.2s-0.3,0.1-0.8,0.2
		l-0.9,0.1h-1.1c-0.1-0.1,0.3,0.3-0.3-0.3C265.9,296.6,266,295.7,266.3,294.8z"/>
	<path class="st1" d="M266.3,283.6c0.4,1.9,0.4,3.8,0,5.6C265.9,287.3,265.9,285.4,266.3,283.6z"/>
	<path class="st1" d="M266.3,272.3c0.4,1.9,0.4,3.8,0,5.6C265.9,276.1,265.9,274.2,266.3,272.3z"/>
	<path class="st1" d="M266.3,261.1c0.4,1.9,0.4,3.8,0,5.6c-0.3-0.9-0.4-1.9-0.3-2.8C265.9,263,266,262,266.3,261.1z"/>
	<path class="st1" d="M266.3,249.9c0.4,1.9,0.4,3.8,0,5.6C265.9,253.6,265.9,251.7,266.3,249.9z"/>
	<path class="st1" d="M266.3,238.6c0.4,1.9,0.4,3.8,0,5.6c-0.3-0.9-0.4-1.9-0.3-2.8C265.9,240.5,266,239.5,266.3,238.6z"/>
	<path class="st1" d="M266.3,227.4c0.4,1.9,0.4,3.8,0,5.6C265.9,231.2,265.9,229.2,266.3,227.4z"/>
	<path class="st1" d="M269,219.1c-0.9,0.3-1.8,0.4-2.7,0.3l0.3-0.3l0,0v0.5v0.5c0,0.3,0,0.6-0.1,0.9c0,0.5-0.1,0.8-0.2,0.8
		s-0.1-0.3-0.2-0.8c0-0.2,0-0.5-0.1-0.9s0-0.4,0-0.5v-0.5l0,0l0.3-0.3C267.2,218.7,268.1,218.8,269,219.1z"/>
	<path class="st1" d="M280.7,219.1c-1.9,0.4-3.9,0.4-5.8,0C276.8,218.7,278.7,218.7,280.7,219.1z"/>
	<path class="st1" d="M292.3,219.1c-1.9,0.4-3.9,0.4-5.8,0C288.4,218.7,290.4,218.7,292.3,219.1z"/>
	<path class="st1" d="M303.9,219.1c-1.9,0.4-3.9,0.4-5.8,0C300,218.7,302,218.7,303.9,219.1z"/>
	<path class="st1" d="M315.6,219.1c-1.9,0.4-3.9,0.4-5.8,0C311.7,218.7,313.7,218.7,315.6,219.1z"/>
	<path class="st1" d="M327.2,219.1c-1.9,0.4-3.9,0.4-5.8,0C323.3,218.7,325.3,218.7,327.2,219.1z"/>
	<path class="st1" d="M338.9,219.1c-1.9,0.4-3.9,0.4-5.8,0C335,218.7,336.9,218.7,338.9,219.1z"/>
	<path class="st1" d="M347.4,221.8c-0.3-0.9-0.4-1.8-0.3-2.7l0.3,0.3h-0.5h-0.5c-0.3,0-0.6,0-0.9-0.1c-0.5,0-0.8-0.1-0.8-0.2
		s0.3-0.1,0.8-0.2c0.3,0,0.5,0,0.9-0.1h0.5h0.5l0.3,0.3C347.8,220,347.7,220.9,347.4,221.8z"/>
	<path class="st1" d="M347.4,233c-0.4-1.9-0.4-3.8,0-5.6C347.8,229.2,347.8,231.1,347.4,233z"/>
	<path class="st1" d="M347.4,244.2c-0.4-1.9-0.4-3.8,0-5.6c0.3,0.9,0.4,1.9,0.3,2.8C347.8,242.4,347.7,243.3,347.4,244.2z"/>
	<path class="st1" d="M347.4,255.5c-0.4-1.9-0.4-3.8,0-5.6C347.8,251.7,347.8,253.6,347.4,255.5z"/>
	<path class="st1" d="M347.4,266.7c-0.4-1.9-0.4-3.8,0-5.6c0.3,0.9,0.4,1.9,0.3,2.8C347.8,264.8,347.7,265.8,347.4,266.7z"/>
	<path class="st1" d="M347.4,278c-0.4-1.9-0.4-3.8,0-5.6C347.8,274.2,347.8,276.1,347.4,278z"/>
	<path class="st1" d="M347.4,289.2c-0.4-1.9-0.4-3.8,0-5.6C347.8,285.4,347.8,287.3,347.4,289.2z"/>
	<path class="st2" d="M322.5,144.4c0,0,0-0.2,0-0.6s0-1,0-1.7c0-1.5,0-3.6,0-6.3c0-5.4-0.1-13.3-0.1-22.8l0.2,0.2l-50.9,0.1
		c-0.1,0.1,0.5-0.5,0.2-0.3l0,0v16.2c0,5.2,0,10.3,0,15.1l-0.2-0.2l36.6,0.1l10.5,0.1h2.8h0.7C322.4,144.3,322.5,144.3,322.5,144.4
		l-0.9-0.1h-2.8l-10.5,0.1l-36.8,0.1h-0.2v-0.2c0-4.8,0-9.9,0-15.1v-8c0-1.4,0-2.7,0-4.1v-4l0,0c-0.2,0.2,0.3-0.3,0.3-0.3l50.9,0.1
		h0.2v0.2c0,9.6-0.1,17.5-0.1,22.9c0,2.7,0,4.8,0,6.2c0,0.7,0,1.2,0,1.6S322.5,144.4,322.5,144.4z"/>
	<polygon class="st2" points="297.4,126.1 301.5,128.3 297.5,131 293.5,133.6 293.3,128.7 293.2,123.8 	"/>
	<path class="st2" d="M318.8,141.2c0,0.1-9.8,0.3-21.8,0.3s-21.8-0.1-21.8-0.3S285,141,297,141S318.8,141.1,318.8,141.2z"/>
	<circle class="st2" cx="275.5" cy="141.2" r="0.5"/>
	<rect x="334" y="116.7" class="st2" width="54.9" height="2.8"/>
	<path class="st1" d="M407.9,128.5c0,0.1-16.5,0.3-36.8,0.3s-36.8-0.1-36.8-0.3s16.5-0.3,36.8-0.3S407.9,128.4,407.9,128.5z"/>
	<path class="st1" d="M407.9,136.2c0,0.2-16.5,0.3-36.8,0.3s-36.8-0.1-36.8-0.3s16.5-0.3,36.8-0.3S407.9,136.1,407.9,136.2z"/>
	<path class="st2" d="M322.5,190.4c0,0,0-0.2,0-0.6s0-0.9,0-1.7c0-1.5,0-3.6,0-6.3c0-5.4-0.1-13.3-0.1-22.8l0.2,0.2l-50.9,0.1
		c-0.1,0,0.5-0.5,0.2-0.3l0,0v16.2c0,5.2,0,10.3,0,15.1l-0.2-0.2l36.6,0.1l10.5,0.1h2.8h0.7L322.5,190.4c0.1,0,0,0-0.2,0h-0.7h-2.8
		l-10.5,0.1l-36.8,0.1h-0.2v-0.2c0-4.8,0-9.9,0-15.1v-8c0-1.4,0-2.7,0-4.1V159l0,0c-0.2,0.2,0.3-0.3,0.3-0.3l50.9,0.1h0.2v0.2
		c0,9.6-0.1,17.5-0.1,22.9c0,2.7,0,4.8,0,6.3c0,0.7,0,1.2,0,1.6C322.6,190,322.6,190.2,322.5,190.4z"/>
	<polygon class="st2" points="297.4,172.1 301.5,174.4 297.5,177 293.5,179.7 293.3,174.8 293.2,169.9 	"/>
	<path class="st2" d="M318.8,187.3c0,0.1-9.8,0.3-21.8,0.3s-21.8-0.1-21.8-0.3S285,187,297,187S318.8,187.2,318.8,187.3z"/>
	<circle class="st2" cx="275.5" cy="187.3" r="0.5"/>
	<rect x="334" y="162.7" class="st2" width="54.9" height="2.8"/>
	<path class="st1" d="M407.9,174.6c0,0.2-16.5,0.3-36.8,0.3s-36.8-0.1-36.8-0.3s16.5-0.3,36.8-0.3S407.9,174.4,407.9,174.6z"/>
	<path class="st1" d="M407.9,182.3c0,0.2-16.5,0.3-36.8,0.3s-36.8-0.1-36.8-0.3s16.5-0.3,36.8-0.3S407.9,182.1,407.9,182.3z"/>
	<path class="st7" d="M244.8,201.5c0.8-0.3,1.7-0.3,2.5-0.3l-0.3,0.3l0,0V201v-0.5c0-0.3,0-0.6,0.1-0.8c0-0.4,0.1-0.7,0.2-0.7
		s0.1,0.3,0.2,0.7c0,0.2,0,0.5,0.1,0.8v1l0,0l-0.3,0.3C246.4,201.9,245.6,201.8,244.8,201.5z"/>
	<path class="st7" d="M234.8,201.5c1.6-0.3,3.4-0.3,5,0C238.1,201.8,236.4,201.8,234.8,201.5z"/>
	<path class="st7" d="M224.8,201.5c1.6-0.3,3.4-0.3,5,0C228.2,201.8,226.5,201.8,224.8,201.5z"/>
	<path class="st7" d="M214.8,201.5c1.6-0.3,3.4-0.3,5,0C218.2,201.8,216.5,201.8,214.8,201.5z"/>
	<path class="st7" d="M204.9,201.5c0.8-0.3,1.7-0.3,2.5-0.3c0.8-0.1,1.7,0,2.5,0.3c-0.8,0.3-1.7,0.3-2.5,0.3
		C206.5,201.8,205.7,201.7,204.9,201.5z"/>
	<path class="st7" d="M194.9,201.5c1.6-0.3,3.4-0.3,5,0C198.2,201.8,196.5,201.8,194.9,201.5z"/>
	<path class="st7" d="M184.9,201.5c1.6-0.3,3.4-0.3,5,0C188.3,201.8,186.6,201.8,184.9,201.5z"/>
	<path class="st7" d="M174.9,201.5c0.8-0.3,1.7-0.3,2.5-0.3c0.8-0.1,1.7,0,2.5,0.3c-0.8,0.3-1.7,0.3-2.5,0.3
		C176.6,201.8,175.7,201.7,174.9,201.5z"/>
	<path class="st7" d="M165,201.5c1.6-0.3,3.4-0.3,5,0C168.4,201.8,166.6,201.8,165,201.5z"/>
	<path class="st7" d="M155,201.5c1.6-0.3,3.4-0.3,5,0C158.4,201.8,156.6,201.8,155,201.5z"/>
	<path class="st7" d="M145,201.5c1.6-0.3,3.4-0.3,5,0C148.4,201.8,146.6,201.8,145,201.5z"/>
	<path class="st7" d="M135.1,201.5c1.6-0.3,3.4-0.3,5,0C138.4,201.8,136.7,201.8,135.1,201.5z"/>
	<path class="st7" d="M125.1,201.5c1.6-0.3,3.4-0.3,5,0C128.4,201.8,126.7,201.8,125.1,201.5z"/>
	<path class="st7" d="M115.1,201.5c0.8-0.3,1.7-0.3,2.5-0.3c0.8-0.1,1.7,0,2.5,0.3c-0.8,0.3-1.7,0.3-2.5,0.3
		C116.8,201.8,115.9,201.7,115.1,201.5z"/>
	<path class="st7" d="M105.1,201.5c0.8-0.3,1.7-0.3,2.5-0.3c0.8-0.1,1.7,0,2.5,0.3c-0.8,0.3-1.7,0.3-2.5,0.3
		C106.8,201.8,105.9,201.7,105.1,201.5z"/>
	<path class="st7" d="M95.2,201.5c0.8-0.3,1.7-0.3,2.5-0.3c0.8-0.1,1.7,0,2.5,0.3c-0.8,0.3-1.7,0.3-2.5,0.3
		C96.8,201.8,96,201.7,95.2,201.5z"/>
	<path class="st7" d="M87.7,199c0.3,0.8,0.3,1.7,0.3,2.5l-0.3-0.3h1c0.3,0,0.6,0,0.8,0.1c0.4,0,0.7,0.1,0.7,0.2s-0.3,0.1-0.7,0.2
		l-0.8,0.1h-0.5h-0.5l-0.3-0.3C87.3,200.6,87.4,199.8,87.7,199z"/>
	<path class="st7" d="M87.7,189.2c0.3,1.6,0.3,3.3,0,4.9C87.3,192.5,87.3,190.8,87.7,189.2z"/>
	<path class="st7" d="M87.7,179.4c0.3,1.6,0.3,3.3,0,4.9C87.3,182.6,87.3,181,87.7,179.4z"/>
	<path class="st7" d="M87.7,169.5c0.3,1.6,0.3,3.3,0,4.9C87.3,172.8,87.3,171.1,87.7,169.5z"/>
	<path class="st7" d="M87.7,159.7c0.3,1.6,0.3,3.3,0,4.9C87.3,163,87.3,161.3,87.7,159.7z"/>
	<path class="st7" d="M87.7,149.9c0.3,1.6,0.3,3.3,0,4.9C87.3,153.2,87.3,151.5,87.7,149.9z"/>
	<path class="st7" d="M87.7,140.1c0.3,1.6,0.3,3.3,0,4.9C87.3,143.4,87.3,141.7,87.7,140.1z"/>
	<path class="st7" d="M87.7,130.3c0.3,1.6,0.3,3.3,0,4.9C87.3,133.6,87.3,131.9,87.7,130.3z"/>
	<path class="st7" d="M87.7,120.4c0.3,1.6,0.3,3.3,0,4.9C87.3,123.7,87.3,122.1,87.7,120.4z"/>
	<path class="st7" d="M87.7,110.6c0.3,1.6,0.3,3.3,0,4.9C87.3,113.9,87.3,112.2,87.7,110.6z"/>
	<path class="st7" d="M90.2,103.2c-0.8,0.3-1.7,0.4-2.5,0.3c0.5-0.5,0.1-0.1,0.3-0.3l0,0v0.5c0,0.1,0,0.3,0,0.5s0,0.6-0.1,0.8
		c0,0.4-0.1,0.7-0.2,0.7s-0.1-0.3-0.2-0.7c0-0.2,0-0.5-0.1-0.8v-1l0,0c0.1-0.1-0.3,0.2,0.3-0.3C88.5,102.8,89.4,102.9,90.2,103.2z"
		/>
	<path class="st7" d="M100.1,103.2c-0.8,0.3-1.7,0.4-2.5,0.3c-0.8,0.1-1.7,0-2.5-0.3c0.8-0.3,1.7-0.3,2.5-0.3
		C98.5,102.9,99.3,103,100.1,103.2z"/>
	<path class="st7" d="M110.1,103.2c-0.8,0.3-1.7,0.4-2.5,0.3c-0.8,0.1-1.7,0-2.5-0.3c0.8-0.3,1.7-0.3,2.5-0.3
		C108.5,102.9,109.3,103,110.1,103.2z"/>
	<path class="st7" d="M120.1,103.2c-0.8,0.3-1.7,0.4-2.5,0.3c-0.8,0.1-1.7,0-2.5-0.3c0.8-0.3,1.7-0.3,2.5-0.3
		C118.4,102.9,119.3,103,120.1,103.2z"/>
	<path class="st7" d="M130.1,103.2c-1.6,0.4-3.4,0.4-5,0C126.7,102.9,128.4,102.9,130.1,103.2z"/>
	<path class="st7" d="M140,103.2c-1.6,0.4-3.4,0.4-5,0C136.6,102.9,138.4,102.9,140,103.2z"/>
	<path class="st7" d="M150,103.2c-1.6,0.4-3.4,0.4-5,0C146.6,102.9,148.4,102.9,150,103.2z"/>
	<path class="st7" d="M160,103.2c-1.6,0.4-3.4,0.4-5,0C156.6,102.9,158.4,102.9,160,103.2z"/>
	<path class="st7" d="M170,103.2c-1.6,0.4-3.4,0.4-5,0C166.6,102.9,168.4,102.9,170,103.2z"/>
	<path class="st7" d="M179.9,103.2c-0.8,0.3-1.7,0.4-2.5,0.3c-0.8,0.1-1.7,0-2.5-0.3c0.8-0.3,1.7-0.3,2.5-0.3
		C178.3,102.9,179.1,103,179.9,103.2z"/>
	<path class="st7" d="M189.9,103.2c-1.6,0.4-3.4,0.4-5,0C186.6,102.9,188.3,102.9,189.9,103.2z"/>
	<path class="st7" d="M199.9,103.2c-1.6,0.4-3.4,0.4-5,0C196.5,102.9,198.2,102.9,199.9,103.2z"/>
	<path class="st7" d="M209.9,103.2c-0.8,0.3-1.7,0.4-2.5,0.3c-0.8,0.1-1.7,0-2.5-0.3c0.8-0.3,1.7-0.3,2.5-0.3
		C208.2,102.9,209.1,103,209.9,103.2z"/>
	<path class="st7" d="M219.8,103.2c-1.6,0.4-3.4,0.4-5,0C216.5,102.9,218.2,102.9,219.8,103.2z"/>
	<path class="st7" d="M229.8,103.2c-1.6,0.4-3.4,0.4-5,0C226.4,102.9,228.2,102.9,229.8,103.2z"/>
	<path class="st7" d="M239.8,103.2c-1.6,0.4-3.4,0.4-5,0C236.4,102.9,238.1,102.9,239.8,103.2z"/>
	<path class="st7" d="M247.3,105.7c-0.3-0.8-0.3-1.7-0.3-2.5c0.5,0.5,0.1,0.1,0.3,0.3h-0.5h-0.5h-0.8c-0.4-0.1-0.7-0.1-0.7-0.2
		s0.3-0.1,0.7-0.2l0.8-0.1h1c0.1,0.1-0.3-0.3,0.3,0.3C247.6,104.1,247.5,104.9,247.3,105.7z"/>
	<path class="st7" d="M247.3,115.5c-0.3-1.6-0.3-3.3,0-4.9C247.6,112.2,247.6,113.9,247.3,115.5z"/>
	<path class="st7" d="M247.3,125.4c-0.3-1.6-0.3-3.3,0-4.9C247.6,122.1,247.6,123.7,247.3,125.4z"/>
	<path class="st7" d="M247.3,135.2c-0.3-1.6-0.3-3.3,0-4.9C247.6,131.9,247.6,133.6,247.3,135.2z"/>
	<path class="st7" d="M247.3,145c-0.3-1.6-0.3-3.3,0-4.9C247.6,141.7,247.6,143.4,247.3,145z"/>
	<path class="st7" d="M247.3,154.8c-0.3-1.6-0.3-3.3,0-4.9C247.6,151.5,247.6,153.2,247.3,154.8z"/>
	<path class="st7" d="M247.3,164.6c-0.3-1.6-0.3-3.3,0-4.9C247.6,161.3,247.6,163,247.3,164.6z"/>
	<path class="st7" d="M247.3,174.4c-0.3-1.6-0.3-3.3,0-4.9C247.6,171.1,247.6,172.8,247.3,174.4z"/>
	<path class="st7" d="M247.3,184.3c-0.3-0.8-0.3-1.6-0.3-2.5c-0.1-0.8,0-1.7,0.3-2.4c0.3,0.8,0.3,1.6,0.3,2.4
		C247.6,182.6,247.5,183.5,247.3,184.3z"/>
	<path class="st7" d="M247.3,194.1c-0.3-1.6-0.3-3.3,0-4.9C247.6,190.8,247.6,192.5,247.3,194.1z"/>
</g>
<g id="freepik--Character--inject-960">
	<path class="st2" d="M235.8,200.7l-155.1,8.5c-1.2,0.1-2.2-0.8-2.2-2l-5.1-93.9c-0.1-1.2,0.8-2.2,2-2.2l155.1-8.5
		c1.2-0.1,2.2,0.8,2.2,2l5.1,93.9C237.8,199.6,236.9,200.6,235.8,200.7C235.8,200.7,235.8,200.7,235.8,200.7z"/>
	<polygon class="st4" points="156.6,145.9 170.1,152.3 158,161.2 145.9,170.2 144.5,154.9 143.2,139.6 	"/>
	<path class="st4" d="M225.8,191.4c0,0.1-30.5,1.9-68.2,4s-68.2,3.6-68.2,3.5s30.5-1.9,68.2-4S225.8,191.3,225.8,191.4z"/>
	<path class="st4" d="M91.9,198.8c0,0.9-0.7,1.8-1.6,1.8c-0.9,0-1.8-0.7-1.8-1.6c0-0.9,0.7-1.8,1.6-1.8
		C91,197.1,91.8,197.8,91.9,198.8C91.9,198.8,91.9,198.8,91.9,198.8z"/>
	<g class="st6">
		<path d="M222.1,103.2c-2.5,4.8-5,10.2-3.3,15.3c0.8,2.3,2.4,4.3,3.6,6.4c3.7,6.6,3.6,14.5,3.4,22.1c-0.1,2.1-0.2,4.5-1.9,5.9
			c-1.3,1.1-3.2,1.3-5,1.3l-21.1,0.8v37.1l39.1-8.7l-1.8-55.5l-1-9.4l-3.9-16L222.1,103.2z"/>
	</g>
	<polygon class="st2" points="188.5,403.6 189.9,434.9 206.8,434.5 205.5,403.1 	"/>
	<path class="st1" d="M198.2,433.5c0.1,0-0.1-6.9-0.6-15.3s-1-15.3-1.1-15.3s0.1,6.9,0.6,15.3S198,433.6,198.2,433.5z"/>
	<polygon class="st7" points="189.8,432.8 206.7,432.3 206.8,434.5 189.9,434.9 	"/>
	<path class="st1" d="M206.4,424.5c0,0-0.1-0.3-0.5-0.7c-1.2-1.4-2.7-2.5-4.4-3.2c-1.3-0.5-2.6-0.8-4-0.7c-2.5,0.1-4.8,1.3-6.5,3.2
		c-0.5,0.6-0.9,1.2-1.1,1.9c-0.1,0.2-0.2,0.5-0.2,0.8c0.5-0.9,1-1.7,1.7-2.4c1.6-1.7,3.8-2.8,6.2-2.9c2.4,0,4.7,0.7,6.6,2.2
		C205.6,423.7,206.3,424.6,206.4,424.5z"/>
	<g class="st6">
		<polygon points="205.9,412.1 206,415.5 189.1,415.8 188.9,413.2 		"/>
	</g>
	<path class="st2" d="M147.6,404.4l0.9,19.6c0,0-19.6,7.5-19.9,11.1l38.1-0.3l-0.1-30.6L147.6,404.4z"/>
	<path class="st7" d="M160,422.3c0.8,0.2,1.2,1,1.1,1.8c-0.2,0.8-1,1.3-1.8,1.1c-0.8-0.2-1.3-1.1-1.1-1.9c0.3-0.8,1.2-1.2,1.9-0.9"
		/>
	<path class="st7" d="M166.7,434.8v-3.1l-36.9,1.4c0,0-1.7,0.8-1.5,2L166.7,434.8z"/>
	<path class="st1" d="M148.1,424.1c0,0.2,1,0.3,1.9,0.9s1.4,1.4,1.6,1.3s-0.1-1.2-1.2-1.9S148.1,424,148.1,424.1z"/>
	<path class="st1" d="M144.1,425.8c0,0.2,0.8,0.5,1.4,1.3s0.8,1.6,1,1.6s0.3-1.1-0.5-2S144.1,425.6,144.1,425.8z"/>
	<path class="st1" d="M141.8,430.7c0.2,0,0.4-0.9-0.1-1.9s-1.4-1.4-1.4-1.3s0.5,0.7,0.9,1.5S141.7,430.6,141.8,430.7z"/>
	<path class="st1" d="M148.4,419.6c0.1,0.2,0.9-0.1,2,0s1.9,0.4,2,0.2s-0.7-0.8-1.9-0.9S148.3,419.5,148.4,419.6z"/>
	<path class="st1" d="M147.7,415.4c0.6,0.2,1.3,0.2,1.9,0c0.7-0.1,1.4-0.3,2-0.6c0.4-0.2,0.7-0.4,1.1-0.6c0.2-0.1,0.4-0.3,0.6-0.5
		c0.3-0.3,0.3-0.7,0.1-1c-0.2-0.3-0.5-0.4-0.8-0.4c-0.2,0-0.5,0-0.7,0.1c-0.4,0.1-0.8,0.2-1.2,0.4c-0.6,0.3-1.2,0.7-1.8,1.2
		c-0.9,0.8-1.2,1.5-1.1,1.6s0.5-0.5,1.4-1.2c0.5-0.4,1.1-0.7,1.7-1c0.4-0.1,0.7-0.3,1.1-0.3c0.4-0.1,0.8-0.1,0.9,0.1s0,0.1,0,0.2
		c-0.1,0.1-0.3,0.2-0.4,0.3c-0.3,0.2-0.7,0.4-1,0.6c-0.6,0.3-1.2,0.5-1.9,0.7C148.9,415,148.3,415.2,147.7,415.4z"/>
	<path class="st1" d="M147.9,415.7c0.4-0.6,0.5-1.2,0.5-1.9c0-0.7-0.1-1.4-0.3-2.1c-0.1-0.4-0.3-0.8-0.5-1.2c-0.2-0.5-0.7-0.9-1.2-1
		c-0.3,0-0.7,0.2-0.8,0.5c-0.1,0.2-0.2,0.5-0.2,0.7c-0.1,0.4-0.1,0.9,0,1.3c0.1,0.7,0.4,1.4,0.8,2c0.8,1,1.5,1.2,1.6,1.1
		s-0.6-0.5-1.2-1.4c-0.4-0.5-0.6-1.2-0.7-1.8c0-0.4,0-0.7,0-1.1c0.1-0.4,0.2-0.7,0.4-0.7s0.5,0.3,0.7,0.6c0.2,0.3,0.4,0.7,0.5,1
		c0.2,0.6,0.4,1.3,0.4,1.9C148,414.9,147.8,415.6,147.9,415.7z"/>
	<g class="st6">
		<polygon points="166.7,416 166.6,420.3 148.3,420.3 148.3,417.9 		"/>
	</g>
	<path class="st8" d="M223.7,106.2c-0.4,0-1.5,4.3-2.1,6.5c-0.2,0.8-0.1,1.6,0.3,2.4l4.4,7.8c0.8,1.4,2,2.6,3.5,3.5l2.2,1.2l0.3,4.6
		l12.4,0.2l-3.8-14.5l-1.6-8.8c-0.4-0.9-1.3-1.5-2.2-1.6l-1.2-0.2l-0.4-1.1c-0.3-0.6-0.8-1.1-1.5-1.2l-0.7-0.1l-1-2.5
		c-0.3-0.8-1.1-1.3-2-1.4l-6,0.1c0,0-1.3,1.8,1.7,2.6c0.8,0.2,1.7,0.3,2.6,0.3l1.4,5.4c0,0,1,5.7-1.7,5.7c-2.3,0-2.6-3.1-2.6-3.1
		S226.8,105.9,223.7,106.2z"/>
	<path class="st9" d="M236,111.7c-0.1-0.4-0.1-0.8-0.2-1.1c-0.3-0.9-0.9-1.6-1.7-2.1c-0.4-0.9-0.7-1.8-0.9-2.7
		c-0.1-0.4-0.2-0.8-0.1-1.2c0,0,0.1,0.4,0.3,1.1c0.2,0.9,0.6,1.8,0.9,2.6l0.6,0.5c0.2,0.2,0.4,0.4,0.5,0.6c0.3,0.4,0.4,0.7,0.6,1.2
		c0.1,0.3,0.1,0.6,0.1,0.9C236,111.4,236,111.6,236,111.7z"/>
	<path class="st9" d="M237.9,110.6c0-0.2-0.1-0.4-0.2-0.6c-0.2-0.4-0.7-0.7-1.1-0.8h-0.1v-0.1l-0.1-0.2c-0.3-0.7-0.5-1.5-0.7-2.2
		c0.4,0.7,0.7,1.4,0.9,2.2l0.1,0.2l-0.1-0.1c0.6,0.1,1,0.4,1.3,0.9C238,110.4,237.9,110.6,237.9,110.6z"/>
	<path class="st9" d="M228.4,104.1c-0.1,0-0.3-0.3-0.2-0.7s0.3-0.7,0.3-0.6s-0.1,0.3-0.1,0.7S228.5,104.1,228.4,104.1z"/>
	<path class="st8" d="M164.9,160.3l22.5-0.3l-2.5-19.2c0,0,1.5-0.3,1.6-8.7s0.5-22.5,0.5-22.5l0,0c-9.7-4.1-20.8-2.7-29.1,3.7
		l-1.2,1L164.9,160.3z"/>
	<path class="st8" d="M159.2,124.6c-0.1-0.1-5.7-1.7-5.6,4s5.9,4.3,5.9,4.2S159.2,124.6,159.2,124.6z"/>
	<path class="st8" d="M186,123.4c0.1-0.1,5.2-1.4,5,4.3s-5.9,4.3-5.9,4.2S186,123.4,186,123.4z"/>
	<path class="st1" d="M192.4,106.9c0.1-1.1-0.3-2.1-1.1-2.8c-0.9-0.6-2.1-0.5-2.8,0.2c0.3-1.4-0.6-2.7-1.9-3c-0.1,0-0.2,0-0.3,0
		c-1.4-0.1-2.5,0.9-3.8,1.3c-1.3,0.3-2.7,0.1-3.9-0.4c-1.2-0.5-2.4-1.2-3.6-1.6c-5.5-2-11.6,0.8-13.6,6.3c-1.9-0.5-3.9,0.3-5,1.9
		c-1.1,1.6-1.5,3.6-1.2,5.5c0.2,1.3,0.5,2.5,1,3.7c0,0.1,0,0.2,0,0.3c0.1,4.6,2.5,19.1,4.4,19.1c3.4,0.1,0.7-15.5,0.7-15.5
		c4.2-1.6,2.6-7.9,3.7-8.8s3.2-3.2,12,1.3c3.3,1.5,6.9,1.8,10.4,1.1h0.2h0.1c0,0,0.1,0,0.1,0c0.8-0.2,1.5-0.6,2.2-1
		c0.8-0.5,1.5-1.2,1.9-2.1c0.4-0.9,0.2-1.9-0.5-2.6C191.9,109,192.3,108,192.4,106.9z"/>
	<path class="st1" d="M157.4,124c0.9,4.8,0.7,7.3,1.5,10.5c1.2,5,3.8,8.9,8.3,11.4s10.7,2.5,14.6-1c2.7-2.4,4.6-5.1,5-8.7
		s0.8-9.9,0.8-13.5c0-6.5,0.5-12.7,0.5-12.7l-18.6-3.4l-10.6,6.3L157.4,124z"/>
	<path class="st1" d="M176.6,148.8c-1,0.4-2.2,0.5-3.3,0.3c-1.1,0-2.2-0.4-3.1-1c0.1-0.1,1.4,0.3,3.2,0.5S176.6,148.6,176.6,148.8z"
		/>
	<path class="st5" d="M181.4,105.8c-0.3,0.1-0.6,0.2-0.9,0.2c-0.8,0-1.6-0.2-2.4-0.6c-1.1-0.6-2.1-1.2-3-2c-1.1-0.9-2.5-1.6-3.9-1.8
		c-1.5-0.2-2.9,0.1-4.2,0.7c-1.1,0.6-1.9,1.4-2.6,2.4c-0.6,0.9-1,2-1.1,3.1c0-0.3,0-0.6,0.1-0.9c0.2-0.8,0.5-1.6,0.9-2.3
		c0.6-1.1,1.5-1.9,2.6-2.5c1.3-0.7,2.9-1,4.4-0.8c1.5,0.2,2.9,0.9,4,1.9c0.9,0.8,1.9,1.4,3,2c0.7,0.4,1.5,0.6,2.3,0.6
		C181.1,105.9,181.4,105.8,181.4,105.8z"/>
	<path class="st5" d="M163.5,108.1c-0.4-0.2-0.9-0.4-1.3-0.5c-1.1-0.3-2.3-0.1-3.3,0.5c-1,0.6-1.7,1.6-1.9,2.7
		c-0.1,0.5-0.1,0.9-0.1,1.4c0-0.1-0.1-0.3-0.1-0.4c0-0.4,0-0.7,0.1-1.1c0.4-2.3,2.7-3.9,5-3.4c0.1,0,0.3,0.1,0.4,0.1
		c0.4,0.1,0.7,0.2,1,0.4C163.4,107.9,163.5,108,163.5,108.1z"/>
	<path class="st5" d="M163,128.4c-1.2-1.8-2.1-3.9-2.6-6C161.5,124.3,162.4,126.3,163,128.4z"/>
	<path class="st5" d="M167.9,131.7c-1.1-0.6-2-1.5-2.6-2.6c-0.8-1-1.2-2.2-1.4-3.5c0.1,0,0.7,1.5,1.8,3.2S168,131.6,167.9,131.7z"/>
	<path class="st5" d="M172.7,132.8c-0.8-0.3-1.6-0.7-2.2-1.4c-1.1-1-1.8-1.9-1.7-2s0.9,0.7,2,1.6S172.8,132.6,172.7,132.8z"/>
	<path class="st5" d="M181.2,125.1c0.1,1,0,2-0.5,2.8c-0.3,0.9-0.9,1.8-1.6,2.4c0.3-0.9,0.7-1.7,1.2-2.6
		C180.5,126.8,180.8,125.9,181.2,125.1z"/>
	<path class="st5" d="M184,120.6c0.2,1.2,0.1,2.4-0.3,3.5c-0.3,1.2-0.8,2.2-1.7,3.1c-0.1-0.1,0.7-1.4,1.2-3.2S183.9,120.6,184,120.6
		z"/>
	<path class="st5" d="M186.2,109c-0.2,0.2-0.5,0.4-0.7,0.6c-0.7,0.4-1.6,0.7-2.4,0.8c-1.3,0.1-2.6-0.1-3.8-0.6
		c-1.4-0.6-2.8-1.3-4.2-2.1c-1.3-0.8-2.7-1.4-4.2-1.8c-1.2-0.3-2.5-0.3-3.7,0c-0.8,0.2-1.6,0.7-2.2,1.2c-0.4,0.4-0.6,0.7-0.6,0.7
		c0.1-0.3,0.3-0.5,0.5-0.8c0.6-0.6,1.4-1.1,2.2-1.3c1.2-0.4,2.5-0.4,3.8-0.1c1.5,0.4,2.9,1,4.3,1.8c1.3,0.8,2.7,1.5,4.1,2.1
		c1.2,0.5,2.4,0.7,3.7,0.6C184.2,110.1,185.3,109.7,186.2,109z"/>
	<path class="st5" d="M187.9,111.7c-0.1,0.1-0.2,0.1-0.3,0.2c-0.3,0.2-0.6,0.3-0.9,0.4c-2,0.9-4.3,1.1-6.4,0.6
		c-0.3-0.1-0.7-0.2-1-0.3c-0.2-0.1-0.3-0.1-0.3-0.1s0.5,0.1,1.3,0.3c1.1,0.2,2.1,0.2,3.2,0.1c1.1-0.1,2.1-0.3,3.1-0.7
		C187.4,111.9,187.9,111.7,187.9,111.7z"/>
	<polyline class="st1" points="177.5,284 183,336.8 186.9,416.2 207.9,416.2 208.5,247.1 148.4,251.4 136,340.1 146.8,417.8 
		169.8,417.8 164.4,344 177.5,284 	"/>
	<path class="st5" d="M177.5,284c-1.2,1.5-2.6,2.8-4.1,4c-1.4,1.3-2.8,2.6-4.4,3.6c1.2-1.5,2.6-2.8,4.1-4
		C174.5,286.3,176,285.1,177.5,284z"/>
	<path class="st5" d="M177.5,283c-0.1-2.3-0.1-4.5,0.1-6.8c0-2.3,0.1-4.5,0.4-6.8c0.3,2.3,0.3,4.5,0.1,6.8
		C178.1,278.5,177.9,280.8,177.5,283z"/>
	<path class="st5" d="M184.4,263.3c0.1,0,0.2,0,0.3,0l1-0.1l4-0.2l14.2-0.6h0.2v0.2c0,4.4,0,9.5,0,14.8v0.5l-0.2,0.1l-9.2,3.7h-0.1
		h-0.1l-8.2-2.8h-0.1v-0.1c-0.6-4.6-1.1-8.5-1.4-11.2c-0.2-1.3-0.3-2.3-0.4-3.1S184.4,263.3,184.4,263.3c0,0.2,0,0.3,0.1,0.4
		c0,0.2,0.1,0.5,0.1,0.8c0.1,0.8,0.3,1.8,0.5,3.1c0.4,2.7,1,6.5,1.7,11l-0.1-0.2l8.2,2.8h-0.2l9.2-3.7l-0.2,0.2v-0.3
		c0-5.3,0-10.3,0-14.8l0.2,0.2l-14.1,0.4l-4,0.1L184.4,263.3L184.4,263.3z"/>
	<path class="st5" d="M154.1,263.5c0.1,0,0.2,0,0.3,0h0.9l3.6-0.1l13-0.3h0.2v0.2c-0.1,4.4-0.3,9.4-0.5,14.8v0.1l-0.1,0.1l-1.5,1
		l-7.6,5l-0.1,0.1l-0.1-0.1l-8.6-5.4l-0.1-0.1v-0.1c0.2-4.6,0.3-8.4,0.4-11.2c0.1-1.3,0.1-2.3,0.1-3.1
		C154.1,264.2,154.1,263.9,154.1,263.5c0,0.1,0,0.2,0,0.3v0.8c0,0.8,0,1.8,0,3.1c0,2.7-0.1,6.5-0.2,11l-0.1-0.2l8.6,5.1h-0.3l7.6-5
		l1.5-1l-0.1,0.2c0.2-5.4,0.4-10.4,0.5-14.8l0.2,0.2l-12.8,0.1h-4.6L154.1,263.5z"/>
	<path class="st5" d="M202,287.4c-0.9,0.1-1.9,0-2.8-0.1c-1.8-0.1-4.2-0.4-6.8-0.7s-5.1-0.7-6.8-1c-0.9-0.1-1.9-0.3-2.8-0.6
		c0.9,0,1.9,0.1,2.8,0.3l6.8,0.9l6.8,0.9C200.1,287,201.1,287.2,202,287.4z"/>
	<path class="st5" d="M201.5,346.2c0,0-0.1,0.3-0.5,0.7c-0.6,0.5-1.4,0.7-2.1,0.7c-1.1,0-2.3-0.5-3.1-1.2c-1-0.9-2-1.8-2.9-2.9
		c-1.6-1.9-3-3.9-4.2-6c-0.5-0.9-1-1.8-1.3-2.7c0.6,0.8,1.1,1.7,1.6,2.5c1.3,2,2.8,4,4.3,5.8c0.8,1,1.8,2,2.8,2.9
		c0.8,0.7,1.8,1.1,2.8,1.2c0.7,0,1.4-0.1,2-0.5C201.3,346.5,201.5,346.2,201.5,346.2z"/>
	<path class="st5" d="M160.1,348.1c0,0,0,0.3-0.3,0.7c-0.4,0.6-0.9,1-1.4,1.4c-0.9,0.5-1.9,0.8-2.9,0.8c-1.2,0-2.4-0.4-3.5-1.1
		c-1.8-1.3-3.3-3-4.2-5c-0.4-0.8-0.8-1.6-1-2.5c0.5,0.7,1,1.5,1.4,2.3c1,1.9,2.4,3.5,4.1,4.7c1,0.6,2.1,1,3.2,1.1
		c0.9,0,1.9-0.2,2.7-0.6C159,349.4,159.6,348.8,160.1,348.1z"/>
	<path class="st5" d="M161.4,340.1c-0.5,0.4-1.1,0.8-1.7,1c-1.5,0.6-3.1,0.9-4.7,1c-1.6,0.1-3.2-0.1-4.8-0.6
		c-0.6-0.2-1.3-0.5-1.8-0.9c2.1,0.7,4.3,1,6.5,1C157.2,341.5,159.4,341,161.4,340.1z"/>
	<path class="st5" d="M229.7,153.9h-30.6c0,0-4.2-2.4-6.2-2c-1.5,0.5-2.8,1.4-3.8,2.6l4.1,33.7l9.9-7.3L240,177
		c3.2,0,6.2-1.4,8.4-3.7l0,0c2.4-2.5,3.5-6,3.1-9.4l-6.8-36.2l-14,0.5l-0.6,9.2L229.7,153.9z"/>
	<path class="st5" d="M145.5,162.4c-3.3,2-5.9,5-7.4,8.6c-1.8,4.3-14,25.7-20.4,36.8c-2.3,4.1-1.7,9.2,1.5,12.6l0,0
		c3.9,4.1,10.4,5.2,16.1,3.3c2.6-0.8,12.8-9.1,12.8-9.1L145.5,162.4z"/>
	<polygon class="st5" points="150.8,238.8 143.8,178.5 145.5,162.4 163.4,154.8 186.5,153.3 208.5,155.7 203.3,217.6 209,252.5 
		147.3,255.2 	"/>
	<path class="st1" d="M150.8,238.5c-0.1,0-1.8-13.4-3.8-30s-3.4-30-3.2-30.1s1.8,13.4,3.8,30S151,238.5,150.8,238.5z"/>
	<path class="st1" d="M208,169.2c0,0.2,0,0.4,0,0.6c0,0.4-0.1,0.9-0.1,1.6c-0.1,1.4-0.3,3.3-0.6,5.7c-0.5,4.9-1.1,11.5-1.9,18.8
		s-1.3,14-1.6,18.8c-0.2,2.4-0.3,4.3-0.4,5.7c0,0.6-0.1,1.1-0.1,1.5c0,0.2,0,0.4-0.1,0.5c0-0.2,0-0.4,0-0.5c0-0.4,0-0.9,0-1.6
		c0-1.4,0.1-3.3,0.2-5.7c0.3-4.8,0.8-11.5,1.5-18.8s1.4-14,2-18.8c0.3-2.4,0.6-4.3,0.8-5.7c0.1-0.6,0.2-1.1,0.2-1.5
		C207.9,169.6,207.9,169.4,208,169.2z"/>
	<path class="st1" d="M197.4,229.3c-0.3,0.4-0.6,0.8-1,1.2c-0.4,0.5-0.8,0.9-1.2,1.3c-0.5,0.5-1.1,1.1-1.8,1.6
		c-0.7,0.6-1.5,1.2-2.3,1.8c-0.9,0.6-1.9,1.2-2.8,1.8c-4.5,2.5-9.5,4-14.6,4.4c-1.2,0-2.3,0.1-3.3,0.1c-1,0-1.9-0.1-2.9-0.2
		c-0.8-0.1-1.6-0.2-2.4-0.4c-0.6-0.1-1.2-0.2-1.8-0.4c-0.5-0.1-1-0.3-1.5-0.5c0-0.1,2.1,0.5,5.6,0.9c1,0.1,1.9,0.1,2.9,0.1
		c1,0,2.1-0.1,3.3-0.1c5-0.4,9.9-1.9,14.4-4.3c1-0.6,2-1.1,2.8-1.7s1.6-1.1,2.3-1.7C195.9,230.9,197.3,229.2,197.4,229.3z"/>
	<g class="st6">
		<path d="M164.8,240.6c-3-0.9-3.2-3.7-2-4.9s3-1.4,4.7-1.1c1.6,0.4,3.3,0.6,5,0.7c2.7-0.2,5-2.1,6.9-4.1s3.7-4.2,6.2-5.3
			s6-0.7,7.3,1.7c0.8,1.6,0.7,3.5-0.3,5c-0.9,1.5-2.2,2.7-3.7,3.6C181.9,240.9,173.2,242.5,164.8,240.6"/>
	</g>
	<g class="st10">
		<path d="M146.4,200.6c-0.5,0.8-5.8,7.9-5.8,7.9c-0.1,0.7-5.2,7.2-5.2,7.2s4.5-2.5,7.9-4.3c1.5-0.9,2.8-1.9,4.1-2.9
			c0,0-0.8-4.9-1.1-6.7c-0.8-4.1-1.3-13.4-1.3-13.4"/>
	</g>
	<path class="st1" d="M201.3,155.1c1.6,0.6,3.1,1.7,4,3.2c1.1,1.4,1.7,3.1,1.8,4.8C206.1,159.9,204.1,157.1,201.3,155.1L201.3,155.1
		z"/>
	<path class="st1" d="M146.4,200.6c-0.4,0.9-0.9,1.7-1.5,2.4c-1,1.5-2.4,3.5-3.9,5.6c-3.1,4.4-5.8,7.9-6,7.6l1.6-2.3l4-5.6
		c1.6-2.2,3-4.2,4.1-5.6C145.1,202.1,145.7,201.3,146.4,200.6z"/>
</g>
</svg>
