<?xml version="1.0" encoding="utf-8"?>
<!-- Generator: Adobe Illustrator 25.4.1, SVG Export Plug-In . SVG Version: 6.00 Build 0)  -->
<svg version="1.1" id="Layer_1" xmlns="http://www.w3.org/2000/svg" xmlns:xlink="http://www.w3.org/1999/xlink" x="0px" y="0px"
	 viewBox="0 0 425 401" style="enable-background:new 0 0 425 401;" xml:space="preserve">
<style type="text/css">
	.st0{opacity:0.9;}
	.st1{fill:#39C0C8;}
	.st2{fill:#FFFFFF;}
	.st3{fill:#F5F5F5;}
	.st4{opacity:0.6;fill:#FFFFFF;enable-background:new    ;}
	.st5{opacity:0.8;fill:#FFFFFF;enable-background:new    ;}
	.st6{opacity:0.3;fill:#FFFFFF;enable-background:new    ;}
	.st7{opacity:0.5;}
	.st8{opacity:0.3;fill:#39C0C8;enable-background:new    ;}
	.st9{opacity:0.1;fill:#39C0C8;enable-background:new    ;}
	.st10{opacity:0.4;fill:#FFFFFF;enable-background:new    ;}
	.st11{opacity:0.6;fill:#39C0C8;enable-background:new    ;}
	.st12{opacity:0.7;fill:#FFFFFF;enable-background:new    ;}
	.st13{opacity:0.7;fill:#39C0C8;enable-background:new    ;}
	.st14{opacity:0.2;enable-background:new    ;}
	.st15{opacity:0.1;fill:#FFFFFF;enable-background:new    ;}
	.st16{opacity:0.5;fill:#39C0C8;enable-background:new    ;}
	.st17{opacity:0.5;fill:#FFFFFF;enable-background:new    ;}
	.st18{opacity:0.2;fill:#39C0C8;enable-background:new    ;}
	.st19{fill:#263238;}
	.st20{opacity:0.12;fill:#FFFFFF;enable-background:new    ;}
	.st21{fill:#FFB573;}
	.st22{fill:#E0E0E0;}
	.st23{fill:#E6E6E6;}
	.st24{fill:#ED893E;}
	.st25{opacity:0.3;}
</style>
<g id="freepik--background-simple--inject-545">
	<g class="st0">
		<path class="st1" d="M322.4,309.6c-56.4,79-151.2,6.5-173.6-56.7c-8.9-25.1-7.2-38.7-26.9-56.3c-14.4-12.8-36.4-9.5-49.9-25.1
			c-29.6-34.3-18.1-98.9,7.7-128.9c26.8-31.2,65-43.5,93.1-19.8c20.6,17.3,22,47.9,34.3,57.8c25.3,20.4,41.8,7.9,68.6,12.1
			C374,108.1,373.5,237.9,322.4,309.6z"/>
	</g>
	<g class="st0">
		<path class="st2" d="M322.4,309.6c-56.4,79-151.2,6.5-173.6-56.7c-8.9-25.1-7.2-38.7-26.9-56.3c-14.4-12.8-36.4-9.5-49.9-25.1
			c-29.6-34.3-18.1-98.9,7.7-128.9c26.8-31.2,65-43.5,93.1-19.8c20.6,17.3,22,47.9,34.3,57.8c25.3,20.4,41.8,7.9,68.6,12.1
			C374,108.1,373.5,237.9,322.4,309.6z"/>
	</g>
</g>
<g id="freepik--Shadow--inject-545">
	<ellipse id="freepik--path--inject-545" class="st3" cx="212" cy="378.2" rx="193.9" ry="11.3"/>
</g>
<g id="freepik--landing-page--inject-545">
	<rect x="5" y="54.7" class="st1" width="414" height="261.4"/>
	<rect x="5" y="54.7" class="st4" width="414" height="261.4"/>
	<rect x="7.7" y="51.8" class="st1" width="408.7" height="261.7"/>
	<rect x="7.7" y="51.8" class="st5" width="408.7" height="261.7"/>
	<path class="st6" d="M300,300.7c-1.8,0-3.6,0-5.4-0.1c-36-1.5-59.2-16.6-83.8-32.6c-10.6-6.9-21.6-14-34.1-20.4
		c-21.4-11-36.3-5.9-52.1-0.6c-10.4,3.5-21.2,7.2-34.3,6.3c-15.1-1-26.3-6.5-33.3-16.5c-10.9-15.5-9.6-39-4.8-55.9
		c9.6-33.4,32.3-59.2,65.7-74.7c31.9-14.8,72.3-19.8,116.8-14.5c58.5,7,110,35.5,134.4,74.4c16.2,25.9,19.6,54.9,9.6,83.9
		C367.7,282.5,339.1,300.7,300,300.7z M151.9,240.6c7.5,0,15.7,1.8,25.1,6.6c12.5,6.4,23.5,13.5,34.1,20.5
		c24.5,15.9,47.7,31,83.5,32.5c41.6,1.7,72.1-16.6,83.7-50.2c9.9-28.9,6.6-57.7-9.6-83.5c-24.3-38.8-75.7-67.2-134-74.2
		c-93.3-11.2-163,22.9-182,88.9c-4.8,16.8-6.1,40.1,4.7,55.5c7,9.9,18,15.4,33,16.3c13,0.8,23.7-2.8,34.1-6.3
		C133.5,243.6,142.2,240.6,151.9,240.6z"/>
	<path class="st2" d="M379.9,131.9c26,39.7,20.9,98.4-29,132.8c-54.5,37.5-106.4,27.8-132.9-11.3s-14.9-88.8,26.8-124.5
		S352.4,89.9,379.9,131.9z"/>
	<g class="st7">
		<path class="st1" d="M34.5,67h21.1c0.8,0,1.4,0.6,1.4,1.4v0.3c0,0.8-0.6,1.4-1.4,1.4H34.5c-0.8,0-1.4-0.6-1.4-1.4v-0.3
			C33,67.6,33.7,67,34.5,67z"/>
		<path class="st1" d="M82.4,67h21.1c0.8,0,1.4,0.6,1.4,1.4v0.3c0,0.8-0.6,1.4-1.4,1.4H82.4c-0.8,0-1.4-0.6-1.4-1.4v-0.3
			C80.9,67.6,81.6,67,82.4,67z"/>
		<path class="st1" d="M130.3,67h21.1c0.8,0,1.4,0.6,1.4,1.4v0.3c0,0.8-0.6,1.4-1.4,1.4h-21.1c-0.8,0-1.4-0.6-1.4-1.4v-0.3
			C128.9,67.6,129.5,67,130.3,67z"/>
		<path class="st1" d="M178.3,67h21.1c0.8,0,1.4,0.6,1.4,1.4v0.3c0,0.8-0.6,1.4-1.4,1.4h-21.1c-0.8,0-1.4-0.6-1.4-1.4v-0.3
			C176.8,67.6,177.5,67,178.3,67z"/>
	</g>
	<path class="st1" d="M355.4,67h38.3c1.5,0,2.6,1.2,2.6,2.6v0.6c0,1.5-1.2,2.6-2.6,2.6h-38.3c-1.5,0-2.6-1.2-2.6-2.6v-0.6
		C352.8,68.1,354,67,355.4,67z"/>
	<path class="st2" d="M39.1,113.9h112c3.4,0,6.1,2.7,6.1,6.1v0c0,3.4-2.7,6.1-6.1,6.1h-112c-3.4,0-6.1-2.7-6.1-6.1v0
		C33,116.6,35.7,113.9,39.1,113.9z"/>
	<path class="st2" d="M38.4,138.2h142.9c3,0,5.4,2.4,5.4,5.4v14.6c0,3-2.4,5.4-5.4,5.4H38.4c-3,0-5.4-2.4-5.4-5.4v-14.6
		C33,140.6,35.4,138.2,38.4,138.2z"/>
	<path class="st2" d="M38.4,173.9h97.8c3,0,5.4,2.4,5.4,5.4v14.6c0,3-2.4,5.4-5.4,5.4H38.4c-3,0-5.4-2.4-5.4-5.4v-14.6
		C33,176.4,35.4,173.9,38.4,173.9z"/>
	<path class="st8" d="M137.6,216.7H35.3c-1.2,0-2.2-1-2.3-2.2c0,0,0,0,0,0l0,0c0-1.2,1-2.2,2.2-2.2l0,0h102.3c1.2,0,2.2,1,2.2,2.2
		c0,0,0,0,0,0l0,0C139.8,215.7,138.8,216.7,137.6,216.7C137.6,216.7,137.6,216.7,137.6,216.7z"/>
	<path class="st8" d="M106.2,225.4h-71c-1.2,0-2.2-1-2.2-2.2l0,0c0-1.2,1-2.2,2.2-2.2h71c1.2,0,2.2,1,2.2,2.2l0,0
		C108.5,224.4,107.5,225.4,106.2,225.4C106.2,225.4,106.2,225.4,106.2,225.4z"/>
	<path class="st9" d="M48.2,246.9h70.3c8.4,0,15.2,6.8,15.2,15.2l0,0c0,8.4-6.8,15.2-15.2,15.2H48.2c-8.4,0-15.2-6.8-15.2-15.2l0,0
		C33,253.7,39.8,246.9,48.2,246.9z"/>
	<path class="st1" d="M117.3,274.3h-68c-8.1,0-14.7-6.5-14.8-14.7c0,0,0,0,0-0.1l0,0c0-8.1,6.6-14.7,14.7-14.7h68.1
		c8.1,0,14.7,6.6,14.7,14.7c0,0,0,0,0,0l0,0C132,267.7,125.4,274.3,117.3,274.3C117.3,274.3,117.3,274.3,117.3,274.3z"/>
	<path class="st10" d="M100.2,263.5H66.3c-2.2,0-3.9-1.7-3.9-3.9l0,0c0-2.2,1.7-3.9,3.9-3.9h33.9c2.1,0,3.9,1.7,3.9,3.9c0,0,0,0,0,0
		l0,0C104.1,261.8,102.3,263.5,100.2,263.5C100.2,263.5,100.2,263.5,100.2,263.5z"/>
	<path class="st2" d="M253.9,95c2.3,8.5-2.7,17.3-11.3,19.6c-6.2,1.7-12.8-0.5-16.7-5.5c2.7,0.7,5.5,0.7,8.1,0
		c8.5-2.2,13.7-11,11.4-19.5c-0.6-2.2-1.6-4.2-3-6C248,85,252.4,89.4,253.9,95z"/>
	<circle class="st4" cx="399.2" cy="141.9" r="0.9"/>
	<path class="st4" d="M333.4,94.2c0,0.5-0.4,0.9-0.9,0.9c-0.5,0-0.9-0.4-0.9-0.9s0.4-0.9,0.9-0.9C333,93.3,333.4,93.7,333.4,94.2
		L333.4,94.2z"/>
	<circle class="st4" cx="264.5" cy="107.6" r="0.9"/>
	<circle class="st11" cx="303.3" cy="133.8" r="0.9"/>
	<path class="st11" d="M375.4,180.3c0,0.5-0.4,0.9-0.9,0.9c-0.5,0-0.9-0.4-0.9-0.9s0.4-0.9,0.9-0.9
		C375,179.4,375.4,179.8,375.4,180.3L375.4,180.3z"/>
	<path class="st12" d="M290.5,89.9c-2.6,0.9-3.4,1.6-4.2,4.2c-0.9-2.6-1.6-3.4-4.2-4.2c2.6-0.9,3.4-1.6,4.2-4.2
		C287.2,88.3,287.9,89.1,290.5,89.9z"/>
	<circle class="st12" cx="381" cy="106.7" r="2.7"/>
	<path class="st12" d="M212.9,119.9c-1.4,0.3-2.4,1.3-2.7,2.7c-0.3-1.4-1.3-2.4-2.7-2.7c1.4-0.3,2.4-1.3,2.7-2.7
		C210.5,118.6,211.5,119.7,212.9,119.9z"/>
	<path class="st13" d="M275.7,134.4c-2.1,0.7-2.6,1.3-3.4,3.4c-0.7-2.1-1.3-2.6-3.4-3.4c2.1-0.7,2.6-1.3,3.4-3.4
		C273,133.1,273.6,133.7,275.7,134.4z"/>
	<circle class="st13" cx="308.5" cy="107.6" r="1.6"/>
	<path class="st1" d="M344.1,203.7c0.4-1.5,7.1-0.9,15,1.2s14,5.1,13.6,6.6l8.3,2.3c0.6-2.3-9-7-21.5-10.4s-23.1-4.3-23.8-2
		L344.1,203.7z"/>
	<path class="st14" d="M347.8,200.8c4,0.6,7.9,1.5,11.8,2.6c3.9,1,7.7,2.3,11.4,3.8c0.1,0.8,0.1,1.6,0.1,2.4
		c-3.8-2.1-7.8-3.6-12-4.7c-5.2-1.4-9.9-2.1-12.6-2.1C346.8,202.2,347.3,201.5,347.8,200.8z"/>
	<circle class="st1" cx="358.4" cy="207.6" r="11.4"/>
	<circle class="st10" cx="358.4" cy="207.6" r="11.4"/>
	<path class="st15" d="M349.5,204.3c0.1,2.2,1.7,3.2,3.7,2.3c2-1.1,3.3-3.2,3.3-5.5c-0.1-2.2-1.7-3.2-3.7-2.3
		C350.8,199.9,349.5,202,349.5,204.3z"/>
	<path class="st15" d="M360.4,202.9c0.3,0.8,1.1,1.2,1.9,0.9c0.8-0.3,1.2-1.1,0.9-1.9c-0.3-0.8-1.1-1.2-1.9-0.9c0,0,0,0,0,0
		C360.5,201.2,360.1,202.1,360.4,202.9z"/>
	<path class="st15" d="M363.1,215c0.2,0.7,1,1,1.6,0.8c0,0,0,0,0,0c0.6-0.3,0.9-1,0.6-1.7c-0.3-0.6-0.9-0.9-1.5-0.7
		C363.2,213.6,362.9,214.3,363.1,215C363.1,215,363.1,215,363.1,215z"/>
	<path class="st16" d="M357.4,211.3c3.5,1,7.2,1.7,10.8,2c-0.4,0.6-0.8,1.2-1.3,1.8c-3-0.5-6.4-1.3-10-2.3s-6.8-2-9.7-3.1
		c-0.2-0.7-0.2-1.5-0.2-2.2C350.4,209.1,353.8,210.4,357.4,211.3z"/>
	<path class="st1" d="M344.1,203.7c-0.4,1.5,5.7,4.4,13.6,6.6s14.6,2.7,15,1.2l8.3,2.3c-0.6,2.3-11.3,1.4-23.8-2
		s-22.1-8.1-21.5-10.4L344.1,203.7z"/>
	<path class="st1" d="M185.3,245l-10.9,18l17.3-4.9l17.3-4.8l-21.1-9C187,243.9,185.9,244.1,185.3,245z"/>
	<path class="st17" d="M185.3,245l-10.9,18l17.3-4.9l17.3-4.8l-21.1-9C187,243.9,185.9,244.1,185.3,245z"/>
	<path class="st1" d="M217,276.5l-33,9.2c-0.8,0.2-1.7-0.3-2-1.1l-7.9-20.7c-0.3-0.7,0-1.5,0.7-1.8c0.1,0,0.1-0.1,0.2-0.1l33-9.2
		c0.8-0.2,1.7,0.3,2,1.1l7.9,20.7c0.3,0.7,0,1.5-0.7,1.8C217.1,276.4,217.1,276.4,217,276.5z"/>
	<path class="st6" d="M217,276.5l-33,9.2c-0.8,0.2-1.7-0.3-2-1.1l-7.9-20.7c-0.3-0.7,0-1.5,0.7-1.8c0.1,0,0.1-0.1,0.2-0.1l33-9.2
		c0.8-0.2,1.7,0.3,2,1.1l7.9,20.7c0.3,0.7,0,1.5-0.7,1.8C217.1,276.4,217.1,276.4,217,276.5z"/>
	<path class="st18" d="M196.7,272.5l-19.9-9.6c-0.4-0.1-0.6-0.6-0.4-0.9c0.1-0.2,0.2-0.4,0.4-0.4l14.7-4.1l14.7-4.1
		c0.4-0.1,0.9,0.2,1,0.6c0,0.2,0,0.3,0,0.5l-9.5,17.9C197.5,272.6,197,272.7,196.7,272.5z"/>
	<path class="st19" d="M197.2,267.9c-1.2-0.6-2.7-0.2-3.4,1l-9.7,16.8l33-9.2L197.2,267.9z"/>
	<path class="st1" d="M196.2,267.7l-12.2,18l16.5-4.6l16.5-4.6l-18.3-9.5C197.8,266.6,196.7,266.9,196.2,267.7z"/>
	<path class="st20" d="M198.7,267c-0.9-0.4-2-0.1-2.5,0.7l-12.2,18l33-9.2L198.7,267z"/>
</g>
<g id="freepik--Character--inject-545">
	<path class="st19" d="M234.2,136.1c3.3-3.6,8.3,4.8,8.3,4.8s3.3,1.2,0.2,3.8C233.2,140.4,234.2,136.1,234.2,136.1z"/>
	<path d="M263.5,254.9c-7.6-12.9,48-24.2,48.6-35.2c-8.5-16.6-23.1-36-23.1-36l-48.3,21.3C240.7,204.9,249.4,248.6,263.5,254.9z"/>
	<path class="st19" d="M277.3,234.8l15.2-24.1c0,0,51,37.3,55,45.4s5.5,73.4,5.5,73.4l-9.6-0.2c0,0-12.2-33-12.9-62.6
		C301.3,254,277.3,234.8,277.3,234.8z"/>
	<path d="M300.6,241.4c-0.4,3.6,0.2,7.3,1.8,10.6c-3.7-2.2-7-4.4-10.1-6.4l-0.5-0.9L300.6,241.4z"/>
	<path class="st19" d="M362.6,342.6c0,0-11.1-8.3-11.4-13.9l-8,0.5l-1.6,8.6l4.3,1.5l0.9-1l0.9,1.6c3.5,1.2,12.7,4.3,15.1,4.3
		C362.9,343.8,362.9,343.1,362.6,342.6z"/>
	<polygon class="st1" points="353.5,331.7 342.3,331.1 341.5,326.1 354.1,326.1 	"/>
	<path class="st19" d="M264.2,233.5l26.6-10.3c0,0,18.5,60.4,17,69.2s-39.5,62.2-39.5,62.2l-7.6-5.9c0,0,9.9-33.8,27-57.9
		C272,263.2,264.2,233.5,264.2,233.5z"/>
	<path class="st19" d="M268.2,370.9c0,0-4-13.3-0.9-18l-6.7-4.3l-6.5,5.9l2.5,3.8l1.3-0.3l-0.3,1.8c2,3,7.6,11,9.5,12.5
		C267.7,372,268.1,371.5,268.2,370.9z"/>
	<polygon class="st1" points="267.4,356.7 258.8,349.5 261.1,345 271.2,352.5 	"/>
	<path class="st19" d="M272.6,160.5c2.3,1.4,4.8,3,7.2,4.5s4.9,2.9,7.3,4.3s4.9,2.6,7.3,3.8c2.2,1.1,4.5,1.9,6.8,2.6l-2.5,0.1
		c0.5,0,1-0.2,1.4-0.4c0.8-0.4,1.6-0.8,2.3-1.2c1.6-1,3.4-2.2,5.1-3.5s3.4-2.7,5.1-4.1l5.2-4.2l0.1-0.1c1.6-1.3,3.9-1.1,5.2,0.5
		c1,1.2,1.1,2.8,0.4,4.2c-1.2,2.1-2.5,4.1-3.9,6c-1.4,1.9-2.9,3.8-4.5,5.7c-1.6,1.9-3.4,3.7-5.3,5.4c-1.1,0.9-2.2,1.8-3.4,2.5
		c-1.5,1-3.1,1.7-4.9,2.2c-0.7,0.2-1.3,0.2-2,0.1l-0.5-0.1c-3.4-0.5-6.8-1.4-10.1-2.7c-1.5-0.6-3-1.2-4.5-1.8s-2.9-1.3-4.2-2
		c-2.8-1.4-5.5-2.9-8.1-4.4s-5.2-3.2-7.8-5c-3.3-2.4-4-7-1.6-10.2c2.2-3.1,6.4-3.9,9.7-2L272.6,160.5z"/>
	<path class="st21" d="M322.1,166c3.6,0.3,6.5-5.8,6.5-5.8l2.4-3.4c0.8-1.2,0.7-2.7-0.3-3.7l-2.5-2.5c-1.1-1.1-3-1.1-4.1,0
		c0,0,0,0,0,0l-2.8,3c-0.5,0.5-0.9,1.2-1.1,1.9l-1,2.9c-0.8,2.4-0.2,5.1,1.7,6.9l0.2,0.2C321.3,165.8,321.7,166,322.1,166z"/>
	<path class="st22" d="M315.5,163.4c0,0,0.9-2,1.6-3.4c2.2-0.4,7.9,4.3,8.6,6.3c-0.5,1.1-3.2,3.2-3.2,3.2
		C320.7,167.6,316.8,164.7,315.5,163.4z"/>
	<path class="st2" d="M233.5,179c8.1-6.2,20.7-13.4,30-16.8c4.7-1.7,10-0.2,13.2,3.8c9.1,11.7,16.6,28.7,28.4,51.7
		c-15.4,17.7-39.5,22.8-39.5,22.8c-3.3-4.1-6.4-13.8-9.9-22.2c-6.3-7.2-15.1-14.6-23.6-24.1c-3.8-4.1-3.6-10.6,0.5-14.4
		C232.9,179.5,233.2,179.2,233.5,179z"/>
	<path class="st23" d="M291.8,224.3c-0.2,0-0.4-0.1-0.5-0.3c-8.2-20.7-30.7-45.2-35.3-48.4c-0.2-0.2-0.2-0.5,0-0.7
		c0.2-0.2,0.4-0.2,0.6-0.1c4.6,3.2,27.4,28,35.7,48.9c0.1,0.3,0,0.5-0.3,0.6C292,224.3,291.9,224.3,291.8,224.3z"/>
	<path class="st19" d="M240,174.4c17.1,8.9,9.4,62.2,36.2,85.6c-15.8-0.1-26.8-11.4-26.8-11.4s-10-43.4-20-56
		C223.4,185,231.9,178.5,240,174.4z"/>
	<path class="st19" d="M255.9,165.7c8.8,3.4,57,46.6,58.1,71c4.8-17.4-3.3-32-3.3-32s-16.2-18.2-23.4-27.9s-15.5-19-22.1-16.9
		C256.8,162.5,255.9,165.7,255.9,165.7z"/>
	<path class="st21" d="M232.4,157.2l14.7,2.4c0.7,4.2,2.4,8,8.8,6.1c2.5,1.1,1.2,4.6-0.5,7c-4,1.7-10.1,3.6-14.2,1.7
		C240.5,171.5,236.3,161.7,232.4,157.2z"/>
	<path class="st1" d="M256.6,169.2c0.3,1.4,0.2,2.9-0.2,4.3c-1.5,0.9-4.8,0.4-4.8,0.4s-0.5-2.9,0.4-4.1
		C255.5,168.8,256.6,169.2,256.6,169.2z"/>
	<path class="st1" d="M253.8,173.4c0.2-0.8,0.7-1.5,1.3-2.1c8.2,7.5,27.9,12.1,32.6,15.7c2.3,1.6,6.3,5.6,6.3,10.7
		c-4.4-3.7-10-2.4-12.6-4.5C274.2,186.2,257.9,180.9,253.8,173.4z"/>
	<path class="st14" d="M238.5,158.2l8.6,1.4c0.1,1,0.4,1.9,0.7,2.9c-2.2,1.5-6.6,1-8-1C239.2,160.5,238.8,159.4,238.5,158.2z"/>
	<path class="st21" d="M226.8,155.6c5.6,4.7,8.7,7.7,13.9,7.5c7.9-0.2,11.5-9.2,7.4-15.4c-3.7-5.6-12.3-12.3-19.3-9.1
		c-5,2.4-7.2,8.4-4.8,13.4C224.7,153.5,225.7,154.7,226.8,155.6z"/>
	<path class="st19" d="M229.5,157.9c3.4-3,1.5-5.9-0.3-5.5c1.6-2.2-1.7-5.9-4.4-5.3c4.2-3,12.5-6.5,11.1-12.6
		c-1.2-5.7-11.9-5.3-11.6,1.9c1.8-0.6,2.2,2.1-3,4.4c-8.4,3.6-7.6,9.8-3.2,10.2C214.9,152.9,221.7,159.6,229.5,157.9z"/>
	<path class="st19" d="M233.9,140.5c3.1-4.4,2.8-8,2.4-9.9C238.6,134.4,237.1,139.1,233.9,140.5z"/>
	<path class="st19" d="M212.9,150.2c5.3,1.1,8.4-0.7,10.1-1.9C220.4,152,215.6,152.5,212.9,150.2z"/>
	<path class="st21" d="M228.1,160.6c1.4,0.9,3.1,1.2,4.8,0.9c2.2-0.5,2.2-2.7,0.8-4.2c-1.3-1.4-4-2.8-5.8-1.5
		c-1.3,0.9-1.5,2.7-0.6,4C227.4,160.2,227.7,160.4,228.1,160.6z"/>
	<path class="st19" d="M234.5,149c0.4,0.4,1,0.5,1.3,0.2s0.1-0.9-0.3-1.3s-1-0.5-1.3-0.2S234.1,148.6,234.5,149z"/>
	<path class="st19" d="M239.7,144.1c0.4,0.4,1,0.5,1.3,0.2s0.1-0.9-0.3-1.2s-1-0.5-1.3-0.2S239.3,143.7,239.7,144.1z"/>
	<path class="st24" d="M239.2,145.7c1.8,0.7,3.7,1.2,5.6,1.4c-0.1,1-0.7,1.9-1.5,2.5L239.2,145.7z"/>
	<path class="st19" d="M232.1,148.9c0,0-0.1,0.1-0.1,0.1c-0.2,0.1-0.4,0-0.4-0.2c0,0,0,0,0,0c-0.4-1.1-0.3-2.2,0.3-3.2
		c0.1-0.2,0.3-0.2,0.5-0.1c0.2,0.1,0.2,0.3,0.1,0.5l0,0c-0.5,0.8-0.6,1.7-0.2,2.5C232.2,148.6,232.2,148.8,232.1,148.9z"/>
	<path class="st19" d="M240.6,140.2c-0.1,0.1-0.2,0.2-0.3,0.2c-0.9,0.1-1.7,0.5-2.2,1.3c-0.1,0.2-0.3,0.2-0.5,0.1
		c-0.2-0.1-0.2-0.3-0.1-0.5c0.6-1,1.6-1.6,2.7-1.7c0.2,0,0.4,0.1,0.4,0.3C240.7,140.1,240.7,140.2,240.6,140.2L240.6,140.2z"/>
	<path class="st23" d="M241,173.8c0,0-0.2-0.6-0.2-0.6c-0.5,0-2.2,1.6-1.4,2.5c2.9,2.9,10.4,2.7,13.4,1.8c-1-0.9-1.4-5.8-1-7.5
		C249.5,171.5,246.4,172.7,241,173.8z"/>
	<path class="st23" d="M252,169.9c3-0.4,6,0.5,8.4,2.4c0.8-1.3-0.3-3.8-0.8-4.5c-1.5-2.6-3.1-3.9-5.9-1.5
		C253.6,167.2,254.5,168.2,252,169.9z"/>
	<path class="st19" d="M241.2,190.8l-4.2,5.8c-1.4,2-2.7,3.9-4,5.9s-2.5,3.9-3.6,5.8c-0.5,1-1,1.9-1.5,2.8c-0.4,0.8-0.7,1.6-1,2.4
		c-0.4,1.6-0.5,3.3-0.3,5c0.2,2.2,0.6,4.3,1.2,6.5c1.2,4.6,2.7,9.1,4.3,13.5l0.1,0.2c0.7,1.9-0.3,4-2.2,4.7c-1.4,0.5-3,0.1-4-1.1
		c-1.7-2.1-3.3-4.2-4.7-6.5c-1.4-2.3-2.7-4.6-3.9-7.1c-1.2-2.6-2.2-5.2-2.9-8c-0.9-3.2-1.1-6.6-0.6-9.9c0.3-1.6,0.7-3.2,1.3-4.8
		c0.5-1.4,1.1-2.8,1.7-4c1.1-2.5,2.4-4.9,3.8-7.2c1.4-2.3,2.8-4.5,4.3-6.6s3-4.2,4.7-6.3c2.6-3.1,7.2-3.5,10.3-0.9
		c2.9,2.4,3.4,6.7,1.3,9.8L241.2,190.8z"/>
	<path class="st21" d="M225.4,240.5c0.2-0.3,0.5-0.6,0.9-0.7l3.2-1.2c0.6-0.2,1.3-0.1,1.8,0.4l2.1,2c2,2,3.6,4.4,4.7,7l0.4,0.9
		c0.6,1.5-0.2,3.2-1.7,3.8c0,0,0,0,0,0l-3.3,1.2c-1.3,0.5-2.8-0.1-3.5-1.3l-2-3.6C227.8,248.9,223.6,243.7,225.4,240.5z"/>
	<path class="st22" d="M231.5,237.4c1.1,0.8,2,1.8,2.8,2.9c-0.9,2.1-7.9,4.1-10,3.7c-0.6-1-0.9-4.5-0.9-4.5
		C226,239.2,229.7,237.8,231.5,237.4z"/>
	<path class="st19" d="M242.7,152.9c0.3-0.2,0.6-0.5,0.8-0.8c0.1-0.1,0.1-0.2,0-0.3c0,0,0,0,0,0c-0.1-0.1-0.2-0.1-0.3,0
		c-1.1,1.3-2.8,2.1-4.5,2.1c-0.1,0-0.2,0.1-0.2,0.2c0,0,0,0,0,0c0,0.1,0.1,0.2,0.2,0.2C240.1,154.4,241.5,153.9,242.7,152.9z"/>
	<path class="st1" d="M327.8,147.1l46.7-17.5c0.7-0.2,1-0.9,0.8-1.6c0-0.1-0.1-0.2-0.1-0.3l-15.3-26c-0.5-0.7-1.4-1.1-2.2-0.8
		l-46.7,17.5c-0.7,0.2-1,0.9-0.8,1.6c0,0.1,0.1,0.2,0.1,0.3l15.3,26C326,147,327,147.3,327.8,147.1z"/>
	<path class="st1" d="M325.4,183l46.7-17.5c0.9-0.4,1.5-1.3,1.6-2.2l2.8-32.8c0.1-0.9-0.5-1.4-1.3-1.1l-46.7,17.5
		c-0.9,0.4-1.5,1.2-1.6,2.2l-2.8,32.8C324,182.8,324.6,183.3,325.4,183z"/>
	<path class="st14" d="M328.6,150.1c0.1-1,0.7-1.8,1.6-2.2l44.7-16.8c0.6-0.2,1.2,0.1,1.4,0.7c0.1,0.2,0.1,0.3,0.1,0.5l-2.6,31
		c-0.1,1-0.7,1.8-1.6,2.2l-44.7,16.8c-0.6,0.2-1.2-0.1-1.4-0.6c-0.1-0.2-0.1-0.3-0.1-0.5L328.6,150.1z"/>
	<g class="st25">
		<circle class="st1" cx="232.8" cy="149.7" r="23.5"/>
		
			<ellipse transform="matrix(8.889467e-02 -0.996 0.996 8.889467e-02 49.2522 352.3316)" class="st10" cx="217.2" cy="149.2" rx="10.6" ry="6.8"/>
		<path class="st10" d="M227.4,155.4c-1-0.6-2.5,0.2-3.3,1.7s-0.6,3.2,0.4,3.8s2.5-0.2,3.4-1.7S228.4,156,227.4,155.4z"/>
	</g>
</g>
</svg>
