<?xml version="1.0" encoding="utf-8"?>
<!-- Generator: Adobe Illustrator 25.4.1, SVG Export Plug-In . SVG Version: 6.00 Build 0)  -->
<svg version="1.1" id="Layer_1" xmlns="http://www.w3.org/2000/svg" xmlns:xlink="http://www.w3.org/1999/xlink" x="0px" y="0px"
	 viewBox="0 0 644.9 463.8" style="enable-background:new 0 0 644.9 463.8;" xml:space="preserve">
<style type="text/css">
	.st0{fill:#F5F5F5;}
	.st1{fill:#D8D8D8;}
	.st2{fill:#3F3F3F;}
	.st3{fill:#FFFFFF;}
	.st4{fill:#E0E0E0;}
	.st5{fill:#FF725E;}
	.st6{fill:#74D3D8;}
	.st7{fill:#39C0C8;}
	.st8{fill:#263238;}
	.st9{fill:#455A64;}
</style>
<g id="freepik--background-complete--inject-207">
	<path class="st0" d="M583.8,355.1c-13.6,0-24.6-11-24.7-24.6c0-6.4,2.5-12.6,6.9-17.2l0,0c2.3-2.4,5-4.3,8.1-5.6
		c2.9-1.3,6.1-1.9,9.2-2h0.4c13.6,0,24.6,11,24.7,24.6c0,3-0.6,6.1-1.7,8.9c-2.4,6.2-7.2,11.2-13.3,13.8c-2.9,1.3-6.1,1.9-9.2,2
		L583.8,355.1z M583.8,305.9h-0.4c-6.5,0.1-12.7,2.8-17.3,7.5c-4.5,4.7-7,11-6.9,17.5c0.1,3.2,0.7,6.3,2,9.2
		c3.9,9.1,12.8,14.9,22.6,14.9h0.4c13.6-0.4,24.3-11.7,23.9-25.3C607.8,316.6,597.1,306,583.8,305.9L583.8,305.9z"/>
	<path class="st0" d="M566.1,313.4c1.3-1.6,2.8-2.9,4.6-4c4.8-3.1,10.4-4.4,16.1-3.8c3.9,0.4,7.6,1.7,10.9,3.9
		c3.8,2.5,6.8,5.9,8.8,10c2.2,4.5,3,9.5,2.4,14.5c-1.4,11-9.9,19.7-20.8,21.5c-2.5,0.4-5.1,0.5-7.6,0.1c-2.4-0.3-4.8-1-7-2
		c-4.1-1.9-7.7-4.8-10.2-8.5c-5.6-8-6-18.6-1-27C563.3,316.3,564.6,314.7,566.1,313.4c0.1,0.1-1.5,1.6-3.4,5
		c-2.7,4.8-3.6,10.4-2.7,15.8c1.3,8.1,6.6,14.9,14.1,18.2c2.1,1,4.3,1.6,6.6,1.9c2.4,0.3,4.8,0.3,7.2-0.2
		c10.3-1.7,18.3-10,19.7-20.4c0.6-4.7-0.1-9.5-2.2-13.7c-3.6-7.4-10.6-12.4-18.7-13.4c-5.4-0.7-10.9,0.5-15.6,3.3
		C567.7,311.8,566.2,313.5,566.1,313.4z"/>
	<path class="st0" d="M554,33.9c1.3-1.6,2.8-2.9,4.6-4c4.8-3.1,10.4-4.4,16.1-3.8c3.9,0.4,7.6,1.7,10.9,3.9c3.8,2.5,6.8,5.9,8.8,10
		c2.2,4.5,3,9.5,2.4,14.5c-1.4,11-9.9,19.7-20.8,21.5c-2.5,0.4-5.1,0.5-7.6,0.1c-2.4-0.3-4.8-1-7-2c-4.1-1.9-7.7-4.8-10.2-8.5
		c-5.6-8-6-18.6-1-27C551.2,36.8,552.5,35.2,554,33.9c0.1,0.1-1.5,1.6-3.4,5c-2.7,4.8-3.6,10.4-2.7,15.8c1.3,8.1,6.6,14.9,14.1,18.2
		c2.1,1,4.3,1.6,6.6,1.9c2.4,0.3,4.8,0.3,7.2-0.2c10.3-1.7,18.3-10,19.7-20.4c0.6-4.7-0.1-9.5-2.2-13.7
		c-3.6-7.4-10.6-12.4-18.7-13.4c-5.4-0.7-10.9,0.5-15.6,3.3C555.6,32.3,554.1,34,554,33.9z"/>
	<path class="st0" d="M185.9,62.2c0.7-0.8,1.5-1.6,2.4-2.1c2.5-1.6,5.5-2.3,8.5-2c2,0.2,4,0.9,5.8,2c2,1.3,3.6,3.1,4.7,5.2
		c1.2,2.4,1.6,5,1.2,7.6c-0.8,5.8-5.2,10.4-11,11.3c-2.6,0.4-5.3,0.1-7.7-1c-2.2-1-4-2.5-5.4-4.5c-1.2-1.7-2-3.6-2.2-5.7
		c-0.4-3,0.2-6,1.7-8.5C184.4,63.7,185.1,62.9,185.9,62.2c0,0-0.8,0.8-1.8,2.6c-1.4,2.5-1.9,5.5-1.4,8.3c0.7,4.2,3.5,7.9,7.4,9.6
		c2.3,1,4.8,1.3,7.3,0.9c5.4-0.9,9.6-5.3,10.4-10.7c0.2-1.3,0.2-2.5-0.1-3.8c-0.2-1.2-0.6-2.4-1.1-3.5c-1.9-3.9-5.6-6.5-9.9-7.1
		c-2.9-0.4-5.8,0.3-8.3,1.7C186.7,61.4,186,62.3,185.9,62.2z"/>
	<path class="st0" d="M63.4,194.1c-3.6,3.7-3.5,9.7,0.2,13.2s9.7,3.5,13.2-0.2c3.6-3.7,3.5-9.7-0.2-13.2
		C72.9,190.3,67,190.4,63.4,194.1C63.4,194.1,63.4,194.1,63.4,194.1z"/>
	<path class="st0" d="M63.4,194.1c0.5-0.6,1.1-1.1,1.7-1.5c1.8-1.2,4-1.7,6.1-1.4c3.2,0.3,6.1,2.3,7.5,5.3c0.8,1.7,1.2,3.6,0.9,5.5
		c-0.3,2-1.2,3.9-2.6,5.4c-1.4,1.5-3.3,2.4-5.3,2.8c-1.9,0.3-3.8,0.1-5.5-0.7c-1.6-0.7-2.9-1.8-3.9-3.2c-2.1-3-2.3-7.1-0.4-10.3
		C62.3,195.2,62.8,194.6,63.4,194.1c0,0-0.6,0.6-1.3,1.9c-1,1.8-1.3,3.9-1,6c0.5,3.1,2.5,5.7,5.3,6.9c0.8,0.4,1.6,0.6,2.5,0.7
		c0.9,0.1,1.8,0.1,2.7-0.1c1.9-0.3,3.7-1.3,5-2.6c1.3-1.4,2.2-3.2,2.5-5.1c0.2-1.8,0-3.6-0.8-5.2c-1.3-2.8-4-4.7-7.1-5.1
		c-2.1-0.3-4.2,0.2-6,1.2C64,193.5,63.4,194.2,63.4,194.1z"/>
	<path class="st0" d="M139.9,8c-3,3.1-2.9,8,0.2,11s8,2.9,11-0.2c3-3.1,2.9-8-0.2-11C147.8,4.8,142.9,4.9,139.9,8L139.9,8z"/>
	<path class="st0" d="M139.9,8c0.4-0.5,0.9-0.9,1.4-1.3c1.5-1,3.3-1.4,5.1-1.2c2.7,0.3,5,1.9,6.2,4.4c0.3,0.7,0.6,1.4,0.7,2.2
		c0.1,0.8,0.1,1.6,0,2.4c-0.4,3.5-3.1,6.2-6.6,6.8c-0.8,0.1-1.6,0.1-2.4,0c-0.8-0.1-1.5-0.3-2.2-0.6c-1.3-0.6-2.4-1.5-3.2-2.6
		c-0.7-1-1.2-2.2-1.3-3.4c-0.3-1.8,0.1-3.6,1-5.1C139,8.9,139.4,8.4,139.9,8c0,0-0.5,0.5-1.1,1.6c-2.1,3.7-0.7,8.3,2.9,10.4
		c0.2,0.1,0.4,0.2,0.6,0.3c0.7,0.3,1.4,0.5,2.1,0.6c0.7,0.1,1.5,0.1,2.3,0c1.6-0.3,3-1,4.2-2.2c1.1-1.2,1.8-2.6,2-4.2
		c0.2-1.5,0-3-0.7-4.3c-1.8-3.8-6.4-5.4-10.2-3.6c-0.2,0.1-0.4,0.2-0.6,0.3C140.4,7.5,139.9,8,139.9,8z"/>
	<path class="st0" d="M91.8,92.8c1.1-1.3,2.4-2.5,3.9-3.4c7-4.5,16-4.4,22.9,0.1c3.2,2.1,5.8,5,7.5,8.5c0.9,1.9,1.6,3.8,1.9,5.9
		c0.4,2.1,0.4,4.3,0.1,6.4c-1.2,9.3-8.4,16.7-17.7,18.3c-4.2,0.7-8.5,0.1-12.4-1.6c-6.6-3-11.3-9.1-12.3-16.4
		c-0.7-4.8,0.3-9.6,2.7-13.8C89.3,95.3,90.5,93.9,91.8,92.8c0.1,0.1-1.3,1.4-2.9,4.2c-2.2,4.1-3.1,8.8-2.3,13.4
		c1.1,6.9,5.6,12.7,12,15.5c3.7,1.6,7.8,2.1,11.7,1.4c8.8-1.5,15.5-8.5,16.7-17.3c0.3-2,0.3-4.1-0.1-6.1c-0.3-1.9-0.9-3.8-1.8-5.6
		c-3-6.3-9-10.5-15.9-11.4c-4.6-0.6-9.3,0.4-13.4,2.8C93.1,91.5,91.9,92.9,91.8,92.8z"/>
</g>
<g id="freepik--Device--inject-207">
	<path class="st1" d="M514.4,81.3H120.1c-6.8,0-12.3,5.5-12.3,12.3v278.5c0,6.8,5.5,12.3,12.3,12.3h151.3c0,0,9.6,29.8-20.2,45.2
		h141.5c0,0-33.7-11.5-25-45.2h146.7c6.8,0,12.3-5.5,12.3-12.3V93.6C526.7,86.8,521.2,81.3,514.4,81.3z"/>
	<path class="st2" d="M322.5,355.2c5.4,7.7-3,16.1-10.7,10.7c-0.3-0.2-0.5-0.4-0.7-0.7c-5.4-7.7,3-16,10.7-10.7
		C322.1,354.7,322.3,354.9,322.5,355.2z"/>
	<path class="st3" d="M124.2,86.4h386c5.4,0,9.7,4.3,9.7,9.7v0v237.4l0,0H114.6l0,0V96.1C114.6,90.8,118.9,86.4,124.2,86.4z"/>
	<path class="st2" d="M443.9,384.5c0,0.1-56.1,0.2-125.3,0.2s-125.3-0.1-125.3-0.2s56.1-0.2,125.3-0.2S443.9,384.4,443.9,384.5z"/>
	<rect x="123.5" y="96.6" class="st2" width="387.5" height="236.9"/>
	<path class="st4" d="M153.1,333.4c-0.2,0-0.4-46.6-0.4-104s0.2-104,0.4-104s0.4,46.6,0.4,104S153.4,333.4,153.1,333.4z"/>
	<path class="st4" d="M153.1,333.7c-0.1,0-0.2,0-0.2-0.3l0,0c-0.1-0.6-0.1-2.5-0.2-8.1c0-5.2-0.1-12.7-0.1-22.3
		c-0.1-19.6-0.1-45.8-0.1-73.6s0-53.9,0.1-73.6c0-9.6,0.1-17.1,0.1-22.3c0.1-5.6,0.1-7.5,0.2-8.1l0,0l0,0c0-0.3,0.1-0.3,0.2-0.3
		s0.2,0,0.2,0.3l0,0l0,0c0.1,0.6,0.1,2.5,0.1,8.1c0,5.2,0.1,12.7,0.1,22.3c0.1,19.7,0.1,45.8,0.1,73.6s0,53.9-0.1,73.6
		c0,9.5-0.1,17-0.1,22.3c0,5.6-0.1,7.5-0.1,8.1l0,0C153.3,333.7,153.2,333.7,153.1,333.7z M153.1,148.3c-0.1,19.1-0.1,48.5-0.1,81.1
		s0.1,62,0.1,81.1c0.1-19.1,0.1-48.5,0.1-81.1S153.2,167.4,153.1,148.3z"/>
	<path class="st4" d="M145.1,134.1c0,0.2-2.9,0.4-6.5,0.4s-6.5-0.2-6.5-0.4s2.9-0.4,6.5-0.4S145.1,133.9,145.1,134.1z"/>
	<path class="st4" d="M138.6,134.8c-6.7,0-6.7-0.4-6.7-0.6s0-0.6,6.7-0.6s6.7,0.4,6.7,0.6S145.3,134.8,138.6,134.8z M133.6,134.2
		c1.1,0.1,2.8,0.1,5,0.1s4-0.1,5.1-0.1c-1.1-0.1-2.8-0.1-5.1-0.1S134.6,134.1,133.6,134.2L133.6,134.2z"/>
	<path class="st4" d="M145.1,147.8c0,0.2-2.9,0.4-6.5,0.4s-6.5-0.2-6.5-0.4s2.9-0.4,6.5-0.4S145.1,147.6,145.1,147.8z"/>
	<path class="st4" d="M138.6,148.5c-6.7,0-6.7-0.4-6.7-0.6s0-0.6,6.7-0.6s6.7,0.4,6.7,0.6S145.3,148.5,138.6,148.5z M133.6,147.8
		c1.1,0.1,2.8,0.1,5,0.1s4-0.1,5.1-0.1c-1.1-0.1-2.8-0.1-5.1-0.1S134.6,147.8,133.6,147.8L133.6,147.8z"/>
	<path class="st4" d="M145.1,161.6c0,0.2-2.9,0.4-6.5,0.4s-6.5-0.2-6.5-0.4s2.9-0.4,6.5-0.4S145.1,161.4,145.1,161.6z"/>
	<path class="st4" d="M138.6,162.2c-6.7,0-6.7-0.4-6.7-0.6s0-0.6,6.7-0.6s6.7,0.4,6.7,0.6S145.3,162.2,138.6,162.2z M133.6,161.6
		c1.1,0.1,2.8,0.1,5,0.1s4-0.1,5.1-0.1c-1.1-0.1-2.8-0.1-5.1-0.1S134.6,161.5,133.6,161.6L133.6,161.6z"/>
	<path class="st4" d="M145.1,175.3c0,0.2-2.9,0.4-6.5,0.4s-6.5-0.2-6.5-0.4s2.9-0.4,6.5-0.4S145.1,175.1,145.1,175.3z"/>
	<path class="st4" d="M138.6,175.9c-6.7,0-6.7-0.4-6.7-0.6s0-0.6,6.7-0.6s6.7,0.4,6.7,0.6S145.3,175.9,138.6,175.9z M133.6,175.3
		c1.1,0.1,2.8,0.1,5,0.1s4-0.1,5-0.1c-1.1-0.1-2.8-0.1-5-0.1S134.7,175.2,133.6,175.3L133.6,175.3z"/>
	<path class="st4" d="M145.1,189c0,0.2-2.9,0.4-6.5,0.4s-6.5-0.2-6.5-0.4s2.9-0.4,6.5-0.4S145.1,188.8,145.1,189z"/>
	<path class="st4" d="M138.6,189.6c-6.7,0-6.7-0.4-6.7-0.6s0-0.6,6.7-0.6s6.7,0.4,6.7,0.6S145.3,189.6,138.6,189.6z M133.6,189
		c1.1,0.1,2.8,0.1,5,0.1s4-0.1,5.1-0.1c-1.1-0.1-2.8-0.1-5.1-0.1S134.6,188.9,133.6,189L133.6,189z"/>
	<path class="st4" d="M145.1,202.7c0,0.2-2.9,0.4-6.5,0.4s-6.5-0.2-6.5-0.4s2.9-0.4,6.5-0.4S145.1,202.5,145.1,202.7z"/>
	<path class="st4" d="M138.6,203.3c-6.7,0-6.7-0.4-6.7-0.6s0-0.6,6.7-0.6s6.7,0.4,6.7,0.6S145.3,203.3,138.6,203.3z M133.6,202.7
		c1.1,0.1,2.8,0.1,5,0.1s4-0.1,5.1-0.1c-1.1-0.1-2.8-0.1-5.1-0.1S134.6,202.6,133.6,202.7L133.6,202.7z"/>
	<path class="st4" d="M145.1,216.4c0,0.2-2.9,0.4-6.5,0.4s-6.5-0.2-6.5-0.4s2.9-0.4,6.5-0.4S145.1,216.2,145.1,216.4z"/>
	<path class="st4" d="M138.6,217c-6.7,0-6.7-0.4-6.7-0.6s0-0.6,6.7-0.6s6.7,0.4,6.7,0.6S145.3,217,138.6,217z M133.6,216.4
		c1.1,0.1,2.8,0.1,5,0.1s4-0.1,5.1-0.1c-1.1-0.1-2.8-0.1-5.1-0.1S134.6,216.3,133.6,216.4L133.6,216.4z"/>
	<path class="st4" d="M145.1,230.1c0,0.2-2.9,0.4-6.5,0.4s-6.5-0.2-6.5-0.4s2.9-0.4,6.5-0.4S145.1,229.9,145.1,230.1z"/>
	<path class="st4" d="M138.6,230.7c-6.7,0-6.7-0.4-6.7-0.6s0-0.6,6.7-0.6s6.7,0.4,6.7,0.6S145.3,230.7,138.6,230.7z M133.6,230.1
		c1.1,0.1,2.8,0.1,5,0.1s4-0.1,5.1-0.1c-1.1-0.1-2.8-0.1-5.1-0.1S134.6,230,133.6,230.1L133.6,230.1z"/>
	<path class="st4" d="M145.1,243.8c0,0.2-2.9,0.4-6.5,0.4s-6.5-0.2-6.5-0.4s2.9-0.4,6.5-0.4S145.1,243.6,145.1,243.8z"/>
	<path class="st4" d="M138.6,244.4c-6.7,0-6.7-0.4-6.7-0.6s0-0.6,6.7-0.6s6.7,0.4,6.7,0.6S145.3,244.4,138.6,244.4z M133.6,243.8
		c1.1,0.1,2.8,0.1,5,0.1s4-0.1,5-0.1c-1.1-0.1-2.8-0.1-5-0.1S134.7,243.8,133.6,243.8L133.6,243.8z"/>
	<path class="st4" d="M145.1,257.5c0,0.2-2.9,0.4-6.5,0.4s-6.5-0.2-6.5-0.4s2.9-0.4,6.5-0.4S145.1,257.3,145.1,257.5z"/>
	<path class="st4" d="M138.6,258.1c-6.7,0-6.7-0.4-6.7-0.6s0-0.6,6.7-0.6s6.7,0.4,6.7,0.6S145.3,258.1,138.6,258.1z M133.6,257.5
		c1.1,0.1,2.8,0.1,5,0.1s4-0.1,5-0.1c-1.1-0.1-2.8-0.1-5-0.1S134.7,257.5,133.6,257.5L133.6,257.5z"/>
	<path class="st4" d="M145.1,271.2c0,0.2-2.9,0.4-6.5,0.4s-6.5-0.2-6.5-0.4s2.9-0.4,6.5-0.4S145.1,271,145.1,271.2z"/>
	<path class="st4" d="M138.6,271.8c-6.7,0-6.7-0.4-6.7-0.6s0-0.6,6.7-0.6s6.7,0.4,6.7,0.6S145.3,271.8,138.6,271.8z M133.6,271.2
		c1.1,0.1,2.8,0.1,5,0.1s4-0.1,5.1-0.1c-1.1-0.1-2.8-0.1-5.1-0.1S134.6,271.2,133.6,271.2L133.6,271.2z"/>
	<path class="st4" d="M145.1,285c0,0.2-2.9,0.4-6.5,0.4s-6.5-0.2-6.5-0.4s2.9-0.4,6.5-0.4S145.1,284.8,145.1,285z"/>
	<path class="st4" d="M138.6,285.6c-6.7,0-6.7-0.4-6.7-0.6s0-0.6,6.7-0.6s6.7,0.4,6.7,0.6S145.3,285.6,138.6,285.6z M133.6,285
		c1.1,0.1,2.8,0.1,5,0.1s4-0.1,5-0.1c-1.1-0.1-2.8-0.1-5-0.1S134.7,284.9,133.6,285L133.6,285z"/>
	<path class="st4" d="M145.1,298.7c0,0.2-2.9,0.4-6.5,0.4s-6.5-0.2-6.5-0.4s2.9-0.4,6.5-0.4S145.1,298.5,145.1,298.7z"/>
	<path class="st4" d="M138.6,299.3c-6.7,0-6.7-0.4-6.7-0.6s0-0.6,6.7-0.6s6.7,0.4,6.7,0.6S145.3,299.3,138.6,299.3z M133.6,298.7
		c1.1,0.1,2.8,0.1,5,0.1s4-0.1,5.1-0.1c-1.1-0.1-2.8-0.1-5.1-0.1S134.6,298.6,133.6,298.7L133.6,298.7z"/>
	<path class="st4" d="M145.1,312.4c0,0.2-2.9,0.4-6.5,0.4s-6.5-0.2-6.5-0.4s2.9-0.4,6.5-0.4S145.1,312.2,145.1,312.4z"/>
	<path class="st4" d="M138.6,313c-6.7,0-6.7-0.4-6.7-0.6s0-0.6,6.7-0.6s6.7,0.4,6.7,0.6S145.3,313,138.6,313z M133.6,312.4
		c1.1,0.1,2.8,0.1,5,0.1s4-0.1,5.1-0.1c-1.1-0.1-2.8-0.1-5.1-0.1S134.6,312.3,133.6,312.4L133.6,312.4z"/>
	<path class="st4" d="M145.1,326.1c0,0.2-2.9,0.4-6.5,0.4s-6.5-0.2-6.5-0.4s2.9-0.4,6.5-0.4S145.1,325.9,145.1,326.1z"/>
	<path class="st4" d="M138.6,326.7c-6.7,0-6.7-0.4-6.7-0.6s0-0.6,6.7-0.6s6.7,0.4,6.7,0.6S145.3,326.7,138.6,326.7z M133.6,326.1
		c1.1,0.1,2.8,0.1,5,0.1s4-0.1,5.1-0.1c-1.1-0.1-2.8-0.1-5.1-0.1S134.6,326,133.6,326.1L133.6,326.1z"/>
	<path class="st5" d="M197,133.3c0,0.2-7.5,0.4-16.8,0.4s-16.8-0.2-16.8-0.4s7.5-0.4,16.8-0.4S197,133.1,197,133.3z"/>
	<path class="st6" d="M180.2,133.9c-4.5,0-8.7,0-11.9-0.1c-5.1-0.1-5.1-0.2-5.1-0.5s0-0.4,5.1-0.5c3.2-0.1,7.4-0.1,11.9-0.1
		s8.7,0,11.9,0.1c5.1,0.1,5.1,0.2,5.1,0.5s0,0.4-5.1,0.5C188.9,133.9,184.7,133.9,180.2,133.9z"/>
	<path class="st5" d="M197,326.1c0,0.2-7.5,0.4-16.8,0.4s-16.8-0.2-16.8-0.4s7.5-0.4,16.8-0.4S197,325.9,197,326.1z"/>
	<path class="st6" d="M180.2,326.7c-4.5,0-8.7,0-11.9-0.1c-5.1-0.1-5.1-0.2-5.1-0.5s0-0.4,5.1-0.5c3.2-0.1,7.4-0.1,11.9-0.1
		s8.7,0,11.9,0.1c5.1,0.1,5.1,0.2,5.1,0.5s0,0.4-5.1,0.5C188.9,326.7,184.7,326.7,180.2,326.7z"/>
	<path class="st5" d="M243.8,161.6c0,0.2-14.1,0.4-31.4,0.4s-31.4-0.2-31.4-0.4s14.1-0.4,31.4-0.4S243.8,161.4,243.8,161.6z"/>
	<path class="st6" d="M212.4,162.2c-8.4,0-16.3,0-22.2-0.1c-9.4-0.1-9.4-0.2-9.4-0.5s0-0.4,9.4-0.5c5.9-0.1,13.8-0.1,22.2-0.1
		s16.3,0,22.2,0.1c9.4,0.1,9.4,0.2,9.4,0.5s0,0.4-9.4,0.5C228.6,162.1,220.8,162.2,212.4,162.2z"/>
	<path class="st4" d="M316.5,161.6c0,0.2-14.1,0.4-31.4,0.4s-31.4-0.2-31.4-0.4s14.1-0.4,31.4-0.4S316.5,161.4,316.5,161.6z"/>
	<path class="st4" d="M285.1,162.2c-8.4,0-16.3,0-22.2-0.1c-9.4-0.1-9.4-0.2-9.4-0.5s0-0.4,9.4-0.5c6-0.1,13.8-0.1,22.2-0.1
		s16.3,0,22.2,0.1c9.4,0.1,9.4,0.2,9.4,0.5s0,0.4-9.4,0.5C301.4,162.1,293.5,162.2,285.1,162.2z M260.6,161.6
		c5.5,0.1,14,0.1,24.5,0.1s19-0.1,24.5-0.1c-5.5-0.1-14-0.1-24.5-0.1S266,161.5,260.6,161.6z"/>
	<path class="st4" d="M288.7,175.3c0,0.2-20.8,0.4-46.3,0.4s-46.3-0.2-46.3-0.4s20.7-0.4,46.3-0.4S288.7,175.1,288.7,175.3z"/>
	<path class="st4" d="M242.4,175.9c-12.4,0-24,0-32.8-0.1c-13.8-0.1-13.8-0.2-13.8-0.5s0-0.4,13.8-0.5c8.8-0.1,20.4-0.1,32.8-0.1
		s24,0,32.8,0.1c13.8,0.1,13.8,0.2,13.8,0.5s0,0.4-13.8,0.5C266.4,175.8,254.8,175.9,242.4,175.9z M206.3,175.3
		c8.1,0.1,20.5,0.1,36.1,0.1s28-0.1,36.1-0.1c-8-0.1-20.5-0.1-36.1-0.1S214.3,175.2,206.3,175.3z"/>
	<path class="st4" d="M288.7,189c0,0.2-20.8,0.4-46.3,0.4s-46.3-0.2-46.3-0.4s20.7-0.4,46.3-0.4S288.7,188.8,288.7,189z"/>
	<path class="st4" d="M242.4,189.6c-12.4,0-24,0-32.8-0.1c-13.8-0.1-13.8-0.2-13.8-0.5s0-0.4,13.8-0.5c8.8-0.1,20.4-0.1,32.8-0.1
		s24,0,32.8,0.1c13.8,0.1,13.8,0.2,13.8,0.5s0,0.4-13.8,0.5C266.4,189.5,254.8,189.6,242.4,189.6z M206.3,189
		c8.1,0.1,20.5,0.1,36.1,0.1s28,0,36.1-0.1c-8-0.1-20.5-0.1-36.1-0.1S214.4,188.9,206.3,189z"/>
	<path class="st4" d="M352.5,230.1c0,0.2-20.7,0.4-46.3,0.4s-46.3-0.2-46.3-0.4s20.7-0.4,46.3-0.4S352.5,229.9,352.5,230.1z"/>
	<path class="st4" d="M306.2,230.7c-12.4,0-24,0-32.8-0.1c-13.8-0.1-13.8-0.2-13.8-0.5s0-0.4,13.8-0.5c8.8-0.1,20.4-0.1,32.8-0.1
		s24,0,32.8,0.1c13.8,0.1,13.8,0.2,13.8,0.5s0,0.4-13.8,0.5C330.2,230.7,318.5,230.7,306.2,230.7z M270.1,230.1
		c8,0.1,20.5,0.1,36.1,0.1s28,0,36.1-0.1c-8-0.1-20.5-0.1-36.1-0.1S278.1,230,270.1,230.1L270.1,230.1z"/>
	<path class="st4" d="M325,202.7c0,0.2-20.7,0.4-46.3,0.4s-46.3-0.2-46.3-0.4s20.7-0.4,46.3-0.4S325,202.5,325,202.7z"/>
	<path class="st4" d="M278.6,203.3c-12.4,0-24,0-32.8-0.1c-13.8-0.1-13.8-0.2-13.8-0.5s0-0.4,13.8-0.5c8.8-0.1,20.4-0.1,32.8-0.1
		s24,0,32.8,0.1c13.8,0.1,13.8,0.2,13.8,0.5s0,0.4-13.8,0.5C302.6,203.3,291,203.3,278.6,203.3z M242.6,202.7
		c8.1,0.1,20.5,0.1,36.1,0.1s28-0.1,36.1-0.1c-8-0.1-20.5-0.1-36.1-0.1S250.6,202.6,242.6,202.7L242.6,202.7z"/>
	<path class="st4" d="M438.2,202.7c0,0.2-20.7,0.4-46.3,0.4s-46.3-0.2-46.3-0.4s20.7-0.4,46.3-0.4S438.2,202.5,438.2,202.7z"/>
	<path class="st4" d="M391.9,203.3c-12.4,0-24,0-32.8-0.1c-13.8-0.1-13.8-0.2-13.8-0.5s0-0.4,13.8-0.5c8.8-0.1,20.4-0.1,32.8-0.1
		s24,0,32.8,0.1c13.8,0.1,13.8,0.2,13.8,0.5s0,0.4-13.8,0.5C415.9,203.3,404.2,203.3,391.9,203.3z M355.8,202.7
		c8,0.1,20.5,0.1,36.1,0.1s28-0.1,36.1-0.1c-8-0.1-20.5-0.1-36.1-0.1S363.8,202.6,355.8,202.7L355.8,202.7z"/>
	<path class="st4" d="M398.8,175.3c0,0.2-20.8,0.4-46.3,0.4s-46.3-0.2-46.3-0.4s20.7-0.4,46.3-0.4S398.8,175.1,398.8,175.3z"/>
	<path class="st4" d="M352.5,175.9c-12.4,0-24,0-32.8-0.1c-13.8-0.1-13.8-0.2-13.8-0.5s0-0.4,13.8-0.5c8.8-0.1,20.4-0.1,32.8-0.1
		s24,0,32.8,0.1c13.8,0.1,13.8,0.2,13.8,0.5s0,0.4-13.8,0.5C376.5,175.8,364.9,175.9,352.5,175.9z M316.4,175.3
		c8,0.1,20.5,0.1,36.1,0.1s28-0.1,36.1-0.1c-8.1-0.1-20.5-0.1-36.1-0.1S324.4,175.2,316.4,175.3z"/>
	<path class="st4" d="M462.8,230.1c0,0.2-20.7,0.4-46.3,0.4s-46.3-0.2-46.3-0.4s20.7-0.4,46.3-0.4S462.8,229.9,462.8,230.1z"/>
	<path class="st4" d="M416.5,230.7c-12.4,0-24,0-32.8-0.1c-13.8-0.1-13.8-0.2-13.8-0.5s0-0.4,13.8-0.5c8.8-0.1,20.4-0.1,32.8-0.1
		s24,0,32.8,0.1c13.8,0.1,13.8,0.2,13.8,0.5s0,0.4-13.8,0.5C440.5,230.7,428.9,230.7,416.5,230.7z M380.4,230.1
		c8.1,0.1,20.5,0.1,36.1,0.1s28,0,36.1-0.1c-8-0.1-20.5-0.1-36.1-0.1S388.5,230,380.4,230.1L380.4,230.1z"/>
	<path class="st4" d="M450,189c0,0.2-32.2,0.4-71.9,0.4s-71.9-0.2-71.9-0.4s32.2-0.4,71.9-0.4S450,188.8,450,189z"/>
	<path class="st4" d="M378.1,189.6c-19.2,0-37.3,0-50.9-0.1c-15.8-0.1-19.9-0.1-20.9-0.3h-0.1l0,0c-0.3,0-0.3-0.1-0.3-0.2
		s0-0.1,0.3-0.2l0,0h0.1c1.1-0.1,5.2-0.2,20.9-0.3c13.6-0.1,31.6-0.1,50.9-0.1s37.3,0,50.9,0.1c15.8,0.1,19.9,0.1,20.9,0.3h0.1l0,0
		c0.3,0,0.3,0.1,0.3,0.2s0,0.1-0.3,0.2l0,0h-0.1c-1.1,0.1-5.2,0.2-20.9,0.3C415.4,189.5,397.3,189.6,378.1,189.6z M322,189
		c13.2,0.1,33.6,0.1,56.1,0.1s42.9,0,56.1-0.1c-13.2-0.1-33.6-0.1-56.1-0.1S335.2,188.9,322,189z"/>
	<path class="st4" d="M197,147.8c0,0.2-7.5,0.4-16.8,0.4s-16.8-0.2-16.8-0.4s7.5-0.4,16.8-0.4S197,147.6,197,147.8z"/>
	<path class="st4" d="M180.2,148.5c-4.5,0-8.7,0-11.9-0.1c-5.1-0.1-5.1-0.2-5.1-0.5s0-0.4,5.1-0.5c3.2-0.1,7.4-0.1,11.9-0.1
		s8.7,0,11.9,0.1c5.1,0.1,5.1,0.2,5.1,0.5s0,0.4-5.1,0.5C188.9,148.4,184.7,148.5,180.2,148.5z M167.1,147.8
		c2.9,0.1,7.5,0.1,13.1,0.1s10.2-0.1,13.1-0.1c-2.9-0.1-7.5-0.1-13.1-0.1S170,147.8,167.1,147.8z"/>
	<path class="st4" d="M197,312.4c0,0.2-7.5,0.4-16.8,0.4s-16.8-0.2-16.8-0.4s7.5-0.4,16.8-0.4S197,312.2,197,312.4z"/>
	<path class="st4" d="M180.2,313c-4.5,0-8.7,0-11.9-0.1c-5.1-0.1-5.1-0.2-5.1-0.5s0-0.4,5.1-0.5c3.2-0.1,7.4-0.1,11.9-0.1
		s8.7,0,11.9,0.1c5.1,0.1,5.1,0.2,5.1,0.5s0,0.4-5.1,0.5C188.9,312.9,184.7,313,180.2,313z M167.1,312.4c2.9,0.1,7.5,0.1,13.1,0.1
		s10.2-0.1,13.1-0.1c-2.9-0.1-7.5-0.1-13.1-0.1S170,312.3,167.1,312.4L167.1,312.4z"/>
	<path class="st4" d="M213.6,202.7c0,0.2-7.5,0.4-16.8,0.4s-16.8-0.2-16.8-0.4s7.5-0.4,16.8-0.4S213.6,202.5,213.6,202.7z"/>
	<path class="st4" d="M196.9,203.3c-4.5,0-8.7,0-11.9-0.1c-5.1-0.1-5.1-0.2-5.1-0.5s0-0.4,5.1-0.5c3.2-0.1,7.4-0.1,11.9-0.1
		s8.7,0,11.9,0.1c5.1,0.1,5.1,0.2,5.1,0.5s0,0.4-5.1,0.5C205.6,203.3,201.3,203.3,196.9,203.3z M183.7,202.7
		c2.9,0.1,7.5,0.1,13.1,0.1s10.1,0,13.1-0.1c-2.9-0.1-7.5-0.1-13.1-0.1S186.7,202.6,183.7,202.7z"/>
	<path class="st4" d="M482.9,202.7c0,0.2-7.5,0.4-16.8,0.4s-16.8-0.2-16.8-0.4s7.5-0.4,16.8-0.4S482.9,202.5,482.9,202.7z"/>
	<path class="st4" d="M466.1,203.3c-4.5,0-8.7,0-11.9-0.1c-5.1-0.1-5.1-0.2-5.1-0.5s0-0.4,5.1-0.5c3.2-0.1,7.4-0.1,11.9-0.1
		s8.7,0,11.9,0.1c5.1,0.1,5.1,0.2,5.1,0.5s0,0.4-5.1,0.5C474.9,203.3,470.6,203.3,466.1,203.3z M453,202.7c2.9,0.1,7.5,0.1,13.1,0.1
		s10.2-0.1,13.1-0.1c-2.9-0.1-7.5-0.1-13.1-0.1S456,202.6,453,202.7z"/>
	<path class="st5" d="M243.8,257.4c0,0.2-14.1,0.4-31.4,0.4s-31.4-0.2-31.4-0.4s14.1-0.4,31.4-0.4S243.8,257.2,243.8,257.4z"/>
	<path class="st6" d="M212.4,258.1c-8.4,0-16.3,0-22.2-0.1c-9.4-0.1-9.4-0.2-9.4-0.5s0-0.4,9.4-0.5c5.9-0.1,13.8-0.1,22.2-0.1
		s16.3,0,22.2,0.1c9.4,0.1,9.4,0.2,9.4,0.5s0,0.4-9.4,0.5C228.6,258,220.8,258.1,212.4,258.1z"/>
	<path class="st4" d="M316.5,257.4c0,0.2-14.1,0.4-31.4,0.4s-31.4-0.2-31.4-0.4s14.1-0.4,31.4-0.4S316.5,257.2,316.5,257.4z"/>
	<path class="st4" d="M285.1,258.1c-8.4,0-16.3,0-22.2-0.1c-9.4-0.1-9.4-0.2-9.4-0.5s0-0.4,9.4-0.5c5.9-0.1,13.8-0.1,22.2-0.1
		s16.3,0,22.2,0.1c9.4,0.1,9.4,0.2,9.4,0.5s0,0.4-9.4,0.5C301.3,258,293.4,258.1,285.1,258.1z M260.5,257.4c5.5,0.1,14,0.1,24.5,0.1
		s19-0.1,24.5-0.1c-5.5-0.1-14-0.1-24.5-0.1S266,257.4,260.5,257.4L260.5,257.4z"/>
	<path class="st4" d="M288.7,271.2c0,0.2-20.8,0.4-46.3,0.4s-46.3-0.2-46.3-0.4s20.7-0.4,46.3-0.4S288.7,271,288.7,271.2z"/>
	<path class="st4" d="M242.4,271.8c-12.4,0-24,0-32.8-0.1c-13.8-0.1-13.8-0.2-13.8-0.5s0-0.4,13.8-0.5c8.8-0.1,20.4-0.1,32.8-0.1
		s24,0,32.8,0.1c13.8,0.1,13.8,0.2,13.8,0.5s0,0.4-13.8,0.5C266.4,271.7,254.8,271.8,242.4,271.8z M206.3,271.2
		c8.1,0.1,20.5,0.1,36.1,0.1s28,0,36.1-0.1c-8-0.1-20.5-0.1-36.1-0.1S214.4,271.1,206.3,271.2L206.3,271.2z"/>
	<path class="st4" d="M288.7,284.9c0,0.2-20.8,0.4-46.3,0.4s-46.3-0.2-46.3-0.4s20.7-0.4,46.3-0.4S288.7,284.7,288.7,284.9z"/>
	<path class="st4" d="M242.4,285.5c-12.4,0-24,0-32.8-0.1c-13.8-0.1-13.8-0.2-13.8-0.5s0-0.4,13.8-0.5c8.8-0.1,20.4-0.1,32.8-0.1
		s24,0,32.8,0.1c13.8,0.1,13.8,0.2,13.8,0.5s0,0.4-13.8,0.5C266.4,285.4,254.8,285.5,242.4,285.5z M206.3,284.9
		c8.1,0.1,20.5,0.1,36.1,0.1s28-0.1,36.1-0.1c-8-0.1-20.5-0.1-36.1-0.1S214.3,284.8,206.3,284.9z"/>
	<path class="st4" d="M325,298.6c0,0.2-20.7,0.4-46.3,0.4s-46.3-0.2-46.3-0.4s20.7-0.4,46.3-0.4S325,298.4,325,298.6z"/>
	<path class="st4" d="M278.6,299.2c-12.4,0-24,0-32.8-0.1c-13.8-0.1-13.8-0.2-13.8-0.5s0-0.4,13.8-0.5c8.7-0.1,20.4-0.1,32.8-0.1
		s24,0,32.8,0.1c13.8,0.1,13.8,0.2,13.8,0.5s0,0.4-13.8,0.5C302.6,299.2,291,299.2,278.6,299.2z M242.5,298.6
		c8.1,0.1,20.5,0.1,36.1,0.1s28-0.1,36.1-0.1c-8-0.1-20.5-0.1-36.1-0.1S250.6,298.5,242.5,298.6L242.5,298.6z"/>
	<path class="st4" d="M438.2,298.6c0,0.2-20.7,0.4-46.3,0.4s-46.3-0.2-46.3-0.4s20.7-0.4,46.3-0.4S438.2,298.4,438.2,298.6z"/>
	<path class="st4" d="M391.9,299.2c-12.4,0-24,0-32.8-0.1c-13.8-0.1-13.8-0.2-13.8-0.5s0-0.4,13.8-0.5c8.7-0.1,20.4-0.1,32.8-0.1
		s24,0,32.8,0.1c13.8,0.1,13.8,0.2,13.8,0.5s0,0.4-13.8,0.5C415.9,299.2,404.2,299.2,391.9,299.2z M355.8,298.6
		c8,0.1,20.5,0.1,36.1,0.1s28-0.1,36.1-0.1c-8-0.1-20.5-0.1-36.1-0.1S363.8,298.5,355.8,298.6z"/>
	<path class="st4" d="M398.8,271.2c0,0.2-20.8,0.4-46.3,0.4s-46.3-0.2-46.3-0.4s20.7-0.4,46.3-0.4S398.8,271,398.8,271.2z"/>
	<path class="st4" d="M352.5,271.8c-12.4,0-24,0-32.8-0.1c-13.8-0.1-13.8-0.2-13.8-0.5s0-0.4,13.8-0.5c8.8-0.1,20.4-0.1,32.8-0.1
		s24,0,32.8,0.1c13.8,0.1,13.8,0.2,13.8,0.5s0,0.4-13.8,0.5C376.5,271.7,364.9,271.8,352.5,271.8z M316.4,271.2
		c8.1,0.1,20.5,0.1,36.1,0.1s28,0,36.1-0.1c-8.1-0.1-20.5-0.1-36.1-0.1S324.5,271.1,316.4,271.2L316.4,271.2z"/>
	<path class="st4" d="M450,284.9c0,0.2-32.2,0.4-71.9,0.4s-71.9-0.2-71.9-0.4s32.2-0.4,71.9-0.4S450,284.7,450,284.9z"/>
	<path class="st4" d="M378.1,285.5c-19.2,0-37.3,0-50.9-0.1c-15.8-0.1-19.9-0.1-20.9-0.3h-0.1l0,0c-0.3,0-0.3-0.1-0.3-0.2
		s0-0.1,0.3-0.2l0,0h0.1c1.1-0.1,5.2-0.2,20.9-0.3c13.6-0.1,31.7-0.1,50.9-0.1s37.3,0,50.9,0.1c15.8,0.1,19.9,0.1,20.9,0.3h0.1l0,0
		c0.3,0,0.3,0.1,0.3,0.2s0,0.1-0.3,0.2l0,0h-0.1c-1.1,0.1-5.2,0.2-20.9,0.3C415.4,285.4,397.3,285.5,378.1,285.5z M321.9,284.9
		c13.2,0.1,33.6,0.1,56.2,0.1s42.9-0.1,56.2-0.1c-13.2-0.1-33.6-0.1-56.2-0.1S335.2,284.8,321.9,284.9z"/>
	<path class="st4" d="M213.6,298.6c0,0.2-7.5,0.4-16.8,0.4s-16.8-0.2-16.8-0.4s7.5-0.4,16.8-0.4S213.6,298.4,213.6,298.6z"/>
	<path class="st4" d="M196.9,299.2c-4.5,0-8.7,0-11.9-0.1c-5.1-0.1-5.1-0.2-5.1-0.5s0-0.4,5.1-0.5c3.2-0.1,7.4-0.1,11.9-0.1
		s8.7,0,11.9,0.1c5.1,0.1,5.1,0.2,5.1,0.5s0,0.4-5.1,0.5C205.6,299.2,201.3,299.2,196.9,299.2z M183.7,298.6
		c2.9,0.1,7.5,0.1,13.1,0.1s10.2-0.1,13.1-0.1c-2.9-0.1-7.5-0.1-13.1-0.1S186.6,298.5,183.7,298.6L183.7,298.6z"/>
	<path class="st4" d="M482.9,298.6c0,0.2-7.5,0.4-16.8,0.4s-16.8-0.2-16.8-0.4s7.5-0.4,16.8-0.4S482.9,298.4,482.9,298.6z"/>
	<path class="st4" d="M466.1,299.2c-4.5,0-8.7,0-11.9-0.1c-5.1-0.1-5.1-0.2-5.1-0.5s0-0.4,5.1-0.5c3.2-0.1,7.4-0.1,11.9-0.1
		s8.7,0,11.9,0.1c5.1,0.1,5.1,0.2,5.1,0.5s0,0.4-5.1,0.5C474.9,299.2,470.6,299.2,466.1,299.2z M453,298.6c2.9,0.1,7.5,0.1,13.1,0.1
		s10.2-0.1,13.1-0.1c-2.9-0.1-7.5-0.1-13.1-0.1S456,298.5,453,298.6z"/>
</g>
<g id="freepik--Window--inject-207">
	<rect x="203.2" y="43.5" class="st3" width="376.9" height="212.7"/>
	<path class="st2" d="M580.1,256.2c0-1.6-0.1-82-0.2-212.7l0.2,0.2l-376.9,0.1l0,0l0.3-0.3c0,75.2,0,147.1,0,212.7l-0.2-0.2
		L580.1,256.2l-376.9,0.3H203v-0.2c0-65.5,0-137.5,0-212.7v-0.3h0.3l376.9,0.1h0.2v0.2C580.2,174.2,580.1,254.6,580.1,256.2z"/>
	<path class="st2" d="M580.1,66.1c0,0.1-84.4,0.3-188.6,0.3S203,66.2,203,66.1s84.4-0.3,188.6-0.3S580.1,65.9,580.1,66.1z"/>
	<path class="st2" d="M220.9,55.4c0,1.7-1.3,3-3,3s-3-1.3-3-3s1.3-3,3-3S220.9,53.8,220.9,55.4z"/>
	<path class="st2" d="M232.4,55.4c0,1.7-1.3,3-3,3s-3-1.3-3-3s1.3-3,3-3S232.4,53.8,232.4,55.4z"/>
	<path class="st2" d="M243.8,55.4c0,1.7-1.3,3-3,3s-3-1.3-3-3s1.3-3,3-3S243.8,53.8,243.8,55.4z"/>
	<path class="st7" d="M513.3,100.1c0,0.1-22.4,0.3-50,0.3s-50-0.1-50-0.3s22.4-0.3,50-0.3S513.3,99.9,513.3,100.1z"/>
	<path class="st8" d="M550.4,124.8c0,0.1-31.2,0.3-69.6,0.3s-69.6-0.1-69.6-0.3s31.2-0.3,69.6-0.3S550.4,124.7,550.4,124.8z"/>
	<path class="st8" d="M550.4,136.8c0,0.1-31.2,0.3-69.6,0.3s-69.6-0.1-69.6-0.3s31.2-0.3,69.6-0.3S550.4,136.6,550.4,136.8z"/>
	<path class="st6" d="M460.8,176.7h-39.7c-6.1,0-11-4.9-11-11l0,0c0-6.1,4.9-11,11-11h39.7c6.1,0,11,4.9,11,11l0,0
		C471.8,171.7,466.8,176.7,460.8,176.7z"/>
	
		<rect x="226.9" y="91.9" transform="matrix(1 -3.490651e-03 3.490651e-03 1 -0.4833 1.0117)" class="st6" width="125.3" height="94.2"/>
	<polygon class="st7" points="227.1,186.3 270.7,127.6 297.9,164.1 316.2,144.5 352.4,185.8 	"/>
	<path class="st7" d="M309.3,120.3c0,5.5-4.4,9.9-9.8,9.9c-5.5,0-9.9-4.4-9.9-9.8s4.4-9.9,9.8-9.9c0,0,0,0,0,0
		C304.8,110.4,309.2,114.8,309.3,120.3z"/>
	
		<rect x="358.9" y="91.8" transform="matrix(1 -3.490651e-03 3.490651e-03 1 -0.3667 1.3181)" class="st6" width="37" height="27.8"/>
	<polygon class="st7" points="359,119.7 371.9,102.3 379.9,113.1 385.3,107.3 396,119.5 	"/>
	<path class="st7" d="M383.2,100.2c0,1.6-1.3,2.9-2.9,2.9s-2.9-1.3-2.9-2.9s1.3-2.9,2.9-2.9C381.9,97.3,383.2,98.5,383.2,100.2
		C383.2,100.2,383.2,100.2,383.2,100.2z"/>
	
		<rect x="358.9" y="125.1" transform="matrix(1 -3.490651e-03 3.490651e-03 1 -0.483 1.3183)" class="st6" width="37" height="27.8"/>
	<polygon class="st7" points="359,153 371.9,135.7 379.9,146.4 385.3,140.6 396,152.9 	"/>
	<path class="st7" d="M383.2,133.5c0,1.6-1.3,2.9-2.9,2.9s-2.9-1.3-2.9-2.9s1.3-2.9,2.9-2.9C381.9,130.6,383.2,131.9,383.2,133.5
		C383.2,133.5,383.2,133.5,383.2,133.5z"/>
	
		<rect x="358.9" y="158.7" transform="matrix(1 -3.490651e-03 3.490651e-03 1 -0.6001 1.3185)" class="st6" width="37" height="27.8"/>
	<polygon class="st7" points="359,186.5 371.9,169.2 379.9,180 385.3,174.2 396,186.4 	"/>
	<path class="st7" d="M383.2,167c0,1.6-1.3,2.9-2.9,2.9c-1.6,0-2.9-1.3-2.9-2.9s1.3-2.9,2.9-2.9C381.9,164.1,383.2,165.4,383.2,167z
		"/>
	<circle class="st2" cx="278.3" cy="197.6" r="2.5"/>
	<circle class="st0" cx="289.8" cy="197.6" r="2.5"/>
	<circle class="st0" cx="301.2" cy="197.6" r="2.5"/>
	<path class="st8" d="M548.6,219.6c0,0.1-137.1,0.3-204.3,0.3s-121.6-0.1-121.6-0.3s54.5-0.3,121.6-0.3S548.6,219.5,548.6,219.6z"/>
	<path class="st8" d="M548.6,233.3c0,0.1-137.1,0.3-204.3,0.3s-121.6-0.1-121.6-0.3s54.5-0.3,121.6-0.3S548.6,233.1,548.6,233.3z"/>
</g>
<g id="freepik--Character--inject-207">
	<path class="st3" d="M505.5,172c0.1,0,0,0.8-0.2,1.7s-0.3,1.6-0.5,1.6s-0.2-0.8,0-1.7S505.4,171.9,505.5,172z"/>
</g>
<g id="freepik--Plant--inject-207">
	<rect x="67.4" y="379.4" class="st8" width="59.4" height="8.2"/>
	<path class="st2" d="M126.9,387.7H67.3v-8.4h59.6V387.7z M67.5,387.5h59.2v-8H67.5V387.5z"/>
	<polygon class="st2" points="72.9,384.8 81.5,427 113.1,427 121.4,387.6 	"/>
	<polygon class="st2" points="72.9,423 77.5,429.3 115.9,429.3 121.4,423 	"/>
	<path class="st8" d="M94.9,386.1c-0.1,0-0.3-19.5-0.3-43.6s0-43.6,0.1-43.6s0.3,19.5,0.3,43.6S95,386.1,94.9,386.1z"/>
	<path class="st8" d="M108.1,337.2c0,0.2-0.1,0.3-0.2,0.5c-0.1,0.3-0.3,0.8-0.5,1.3l-0.4,0.9l-0.4,1.1c-0.2,0.4-0.3,0.8-0.5,1.3
		s-0.3,1-0.4,1.5c-0.7,2.4-1.3,4.8-1.7,7.3c-0.5,3-0.8,6.1-0.9,9.1c-0.2,5.5-0.1,11.1,0.5,16.6c0.2,2.1,0.4,3.8,0.5,5
		c0.1,0.6,0.1,1,0.2,1.4c0,0.2,0,0.3,0,0.5c-0.1-0.2-0.1-0.3-0.1-0.5c-0.1-0.4-0.1-0.8-0.2-1.4c-0.2-1.2-0.4-2.9-0.7-5
		c-0.6-5.5-0.8-11.1-0.6-16.7c0.2-3.1,0.5-6.1,1-9.1c0.4-2.5,1-4.9,1.8-7.3c0.2-0.5,0.3-1,0.5-1.5s0.3-0.9,0.5-1.3s0.3-0.8,0.4-1.1
		s0.3-0.6,0.4-0.9l0.6-1.2C107.9,337.4,108,337.3,108.1,337.2z"/>
	<path class="st8" d="M106.6,321.4c0,0.2-0.1,0.4-0.2,0.6c-0.2,0.5-0.4,1.1-0.6,1.8c-0.1,0.4-0.3,0.8-0.4,1.3l-0.5,1.6
		c-0.3,1.1-0.8,2.4-1.1,3.9c-0.2,0.7-0.4,1.5-0.6,2.2s-0.4,1.6-0.6,2.5c-0.4,1.7-0.7,3.5-1.1,5.5c-0.7,3.9-1.2,8.2-1.6,12.7
		s-0.5,8.9-0.6,12.8s0,7.5,0.2,10.5c0,1.5,0.2,2.8,0.2,4s0.2,2.2,0.2,3s0.1,1.4,0.2,1.9s0,0.7,0,0.7c-0.1-0.2-0.1-0.4-0.1-0.7
		c0-0.5-0.1-1.1-0.2-1.9s-0.2-1.8-0.3-3s-0.2-2.5-0.3-4c-0.2-3-0.3-6.5-0.3-10.5s0.2-8.3,0.6-12.8s1-8.8,1.7-12.7
		c0.4-1.9,0.7-3.8,1.1-5.5c0.2-0.9,0.4-1.7,0.6-2.5l0.6-2.3c0.4-1.5,0.8-2.7,1.2-3.9l0.5-1.6l0.5-1.3l0.7-1.8
		C106.5,321.6,106.6,321.4,106.6,321.4z"/>
	<path class="st8" d="M91.1,389.5c0-0.1,0-0.2,0-0.2c0-0.2,0-0.4-0.1-0.7c0-0.6-0.1-1.5-0.2-2.6c-0.1-2.3-0.3-5.5-0.6-9.5
		c-0.5-8-1.3-19.1-2.6-31.4c-0.7-6.1-1.5-11.9-2.3-17.2c-0.4-2.6-0.8-5.1-1.3-7.4s-0.9-4.5-1.3-6.5s-0.8-3.7-1.2-5.3s-0.7-2.9-1-4
		s-0.5-1.9-0.6-2.5l-0.2-0.7c0-0.1,0-0.2,0-0.2c0,0.1,0.1,0.1,0.1,0.2l0.2,0.6l0.7,2.5c0.3,1.1,0.7,2.4,1,4s0.8,3.3,1.2,5.3
		s0.9,4.1,1.3,6.5s0.9,4.8,1.3,7.5c0.9,5.3,1.7,11.1,2.4,17.2c1.3,12.2,2.1,23.3,2.5,31.4c0.2,4,0.4,7.3,0.5,9.5
		c0,1.1,0.1,2,0.1,2.6c0,0.3,0,0.5,0,0.7C91.1,389.4,91.1,389.5,91.1,389.5z"/>
	<path class="st6" d="M94.4,308.2c-0.3-2.8-3-4.9-5.8-4.9c-2.8,0.1-5.4,1.5-7.1,3.8c-1.6,2.3-2.8,4.8-3.4,7.6
		c-2,6.5-2.7,13.3-2.1,20.1c0.8,6.7,3.5,13.4,8.4,18.1c0.8,0.8,1.8,1.5,2.9,1.3c0.6-0.2,1.1-0.5,1.5-0.9
		c9.6-8.8,14.9-21.3,14.6-34.2c-0.1-2.6-0.4-5.2-1.8-7.4S96.8,307.3,94.4,308.2"/>
	<path class="st7" d="M73.6,286l-3.9,7.1c-0.1,0.2-0.2,0.4-0.4,0.4s-0.4-0.2-0.5-0.4l-10.4-15.9l2.4-1.4L73.6,286z"/>
	<path class="st6" d="M94.6,298.8l-35.3-20.9c-0.4-0.2-0.7-0.5-0.9-0.9c0-0.6,0.2-1.1,0.6-1.4c4.9-5.1,11.8-7.8,18.9-7.4
		c7.1,0.5,13.4,4.5,17,10.6C98.4,284.9,98.5,293,94.6,298.8"/>
	<path class="st8" d="M64.4,271.3l0.5-0.1c0.3,0,0.8-0.1,1.3-0.1c1.6,0,3.3,0.1,4.9,0.4c2.4,0.4,4.8,1.1,7,2.1
		c2.7,1.2,5.3,2.9,7.5,4.9c4,3.7,7,8.4,8.4,13.7c0.4,1.6,0.7,3.2,0.9,4.8c0,0.3,0,0.7,0,1c0,0.3-0.1,0.5-0.3,0.8
		c0.1-0.6,0.1-1.2,0-1.8c-0.2-1.6-0.5-3.2-1-4.8c-3-10.6-11.8-18.5-22.6-20.5c-1.6-0.3-3.2-0.5-4.8-0.5
		C65,271.3,64.4,271.3,64.4,271.3z"/>
	<path class="st8" d="M89.8,284.4c-0.6,0.3-1.2,0.6-1.8,0.8c-1.1,0.5-2.7,1-4.4,1.6s-3.4,1-4.6,1.3c-0.6,0.2-1.3,0.3-1.9,0.4
		c0.6-0.3,1.2-0.5,1.9-0.6l4.5-1.4l4.5-1.5C88.6,284.7,89.2,284.5,89.8,284.4z"/>
	<path class="st8" d="M84.3,269.4c0.5,2.6,0.6,5.3,0.2,7.9C84.3,274.7,84.2,272.1,84.3,269.4z"/>
	<path class="st8" d="M59,277.5c0.8-0.4,1.7-0.7,2.6-0.9c1.6-0.5,3.8-1.1,6.3-1.7s4.8-1.1,6.4-1.4c0.9-0.2,1.8-0.3,2.7-0.4
		c-0.9,0.3-1.7,0.5-2.6,0.7c-1.6,0.4-3.9,0.9-6.4,1.5s-4.7,1.2-6.3,1.6C60.8,277.2,59.9,277.4,59,277.5z"/>
	<path class="st6" d="M79.7,302.2c-3-2.3-6.2-2.8-10.1-2.6c-3.8,0.3-7.5,1.2-11,2.8c-6,2.6-11.5,6.5-15.1,11.9s-4.8,12.6-2.1,18.6
		c0.2,0.6,0.6,1.1,1.2,1.5c0.7,0.2,1.4,0.1,2-0.1c6.8-2.2,13.6-4.5,19.8-7.9s11.9-8.3,15.2-14.6c0.9-1.5,1.4-3.1,1.6-4.8
		C81.5,305.2,80.9,303.4,79.7,302.2"/>
	<path class="st8" d="M79.8,301.4c-0.2,0.1-0.3,0.2-0.5,0.2l-1.4,0.5l-1,0.3c-0.4,0.1-0.8,0.3-1.2,0.5c-0.9,0.3-1.9,0.7-2.9,1.2
		l-1.7,0.8c-0.6,0.3-1.2,0.6-1.8,0.9c-1.2,0.6-2.5,1.4-3.8,2.1c-2.8,1.8-5.5,3.8-8,6c-2.5,2.2-4.8,4.6-6.9,7.2
		c-1,1.2-1.9,2.4-2.6,3.5c-0.4,0.6-0.8,1.1-1.1,1.6l-1,1.5c-0.6,1-1.1,1.9-1.6,2.7c-0.2,0.4-0.4,0.8-0.6,1.1s-0.3,0.7-0.5,1
		c-0.3,0.5-0.5,1-0.7,1.4c-0.1,0.2-0.2,0.3-0.3,0.5c0-0.2,0.1-0.3,0.2-0.5c0.2-0.4,0.3-0.8,0.6-1.4l0.4-1c0.2-0.4,0.4-0.7,0.6-1.1
		c0.4-0.8,0.9-1.8,1.5-2.8l0.9-1.6c0.3-0.5,0.7-1.1,1.1-1.6c0.7-1.2,1.7-2.3,2.6-3.5c4.2-5.3,9.3-9.7,15-13.2
		c1.3-0.8,2.6-1.5,3.8-2.1c0.6-0.3,1.2-0.6,1.8-0.9l1.7-0.7c1.1-0.5,2.1-0.8,2.9-1.1c0.4-0.2,0.8-0.3,1.2-0.4l1-0.3l1.4-0.4
		C79.4,301.5,79.6,301.5,79.8,301.4z"/>
	<path class="st8" d="M56.1,314.3c-2.4,0.9-4.9,1.7-7.4,2.4c-2.5,0.8-5,1.5-7.5,2c2.4-0.9,4.9-1.7,7.4-2.4
		C51,315.5,53.5,314.8,56.1,314.3z"/>
	<path class="st8" d="M55.8,330.6c-0.1-0.8-0.2-1.5-0.2-2.3c0-1.4,0-3.4,0-5.6s0.2-4.1,0.3-5.5c0-0.8,0.1-1.5,0.3-2.3
		c0.1,0.8,0.1,1.5,0,2.3c0,1.6-0.1,3.5-0.2,5.6s-0.1,4-0.1,5.5C55.9,329.1,55.9,329.8,55.8,330.6z"/>
	<path class="st8" d="M69.7,323.5c-0.1,0-0.5-4-0.8-8.9s-0.5-9-0.4-9s0.5,4,0.8,8.9S69.8,323.5,69.7,323.5z"/>
	<path class="st8" d="M52.3,305.2c0.8-0.1,1.6-0.1,2.4-0.1c1.5,0,3.5,0.1,5.7,0.1s4.2,0.2,5.7,0.2c0.8,0,1.6,0.1,2.4,0.2
		c-0.8,0.1-1.6,0.1-2.4,0.1c-1.5,0-3.5,0-5.7-0.1s-4.2-0.2-5.7-0.2C53.9,305.4,53.1,305.4,52.3,305.2z"/>
	<path class="st8" d="M85.9,353.9c0-0.2-0.1-0.3-0.1-0.5c0-0.4,0-0.8-0.1-1.4c0-1.2-0.1-2.9,0-5s0.2-4.6,0.4-7.4s0.7-5.8,1.2-9
		s1.3-6.2,2-8.9s1.5-5.1,2.2-7.1s1.3-3.6,1.8-4.7l0.6-1.3c0.1-0.2,0.1-0.3,0.2-0.4c0,0.2-0.1,0.3-0.1,0.5l-0.5,1.3
		c-0.4,1.1-1,2.7-1.7,4.7s-1.4,4.4-2.1,7.1s-1.4,5.7-2,8.9s-1,6.2-1.3,9s-0.4,5.3-0.5,7.4s-0.1,3.8-0.1,5c0,0.5,0,1,0,1.4
		C85.9,353.6,85.9,353.7,85.9,353.9z"/>
	<path class="st8" d="M87.7,330.7c-0.4,0.6-0.9,1.1-1.4,1.5c-0.9,0.9-2.2,2.1-3.7,3.4s-2.9,2.4-3.9,3.2c-0.5,0.5-1.1,0.9-1.7,1.2
		c0.5-0.5,1-1,1.5-1.4l3.8-3.3l3.8-3.3C86.6,331.6,87.2,331.1,87.7,330.7z"/>
	<path class="st8" d="M98.9,339.8c-0.6-0.7-1.1-1.3-1.5-2.1l-3.5-5.1l-3.6-5c-0.5-0.7-1-1.4-1.4-2.1c0.6,0.6,1.2,1.3,1.7,2
		c1,1.2,2.3,3,3.7,5s2.6,3.8,3.4,5.2C98.1,338.3,98.6,339,98.9,339.8z"/>
	<path class="st8" d="M93.1,311.4c0.1,0.1-3.7,2.6-8.3,5.6s-8.5,5.3-8.5,5.2s3.7-2.6,8.3-5.6S93,311.3,93.1,311.4z"/>
	<path class="st8" d="M103.5,322.7c-2-1.6-3.8-3.4-5.6-5.2c-1.9-1.7-3.7-3.6-5.3-5.5c2,1.6,3.8,3.4,5.6,5.2
		C100.1,319,101.9,320.8,103.5,322.7z"/>
	<path class="st6" d="M106.2,322.5l3.2-0.3c2.3-0.2,4.5-0.9,6.4-2c1-0.6,2-1.1,3-1.5c3.9-1.6,8.3-1.3,12.6-1.5
		c6.9-0.4,13.7-2.1,20-5.1c0.4-0.2,0.7-0.4,0.9-0.8c0.6-1.2-0.6-2.3-1.6-2.9c-5.4-3.3-10.8-6.7-16.9-8.3s-13-1.4-18.2,2.2
		C109.4,306.5,107.2,315.1,106.2,322.5"/>
	<path class="st8" d="M152.3,310.9c-0.2-0.1-0.4-0.1-0.5-0.2l-1.5-0.8c-1.3-0.7-3.2-1.7-5.6-2.9c-2.8-1.4-5.7-2.5-8.6-3.3
		c-3.6-1-7.4-1.4-11.2-0.9c-3.8,0.4-7.3,1.9-10.2,4.4c-2.3,2.1-4.1,4.6-5.3,7.5c-0.9,1.9-1.6,3.8-2.3,5.8c-0.2,0.7-0.4,1.2-0.6,1.6
		c-0.1,0.2-0.1,0.4-0.2,0.5c0-0.2,0.1-0.4,0.1-0.6c0.1-0.4,0.3-1,0.5-1.6c0.6-2,1.4-4,2.2-5.9c1.2-2.9,3-5.5,5.3-7.6
		c2.9-2.5,6.6-4.1,10.4-4.5c3.8-0.4,7.7-0.1,11.4,1c3,0.9,5.9,2,8.7,3.4c2.4,1.2,4.2,2.2,5.5,3l1.5,0.9
		C152,310.7,152.2,310.8,152.3,310.9z"/>
	<path class="st8" d="M144.7,315.1c-0.1,0.1-4.2-2.6-9.3-6s-9.1-6.3-9.1-6.4s4.2,2.6,9.3,6S144.7,315,144.7,315.1z"/>
	<path class="st8" d="M140.2,302.4c-1,0.3-2,0.5-3,0.5c-1,0.2-2.1,0.2-3.1,0c1-0.2,2-0.3,3.1-0.3
		C138.2,302.5,139.2,302.4,140.2,302.4z"/>
	<path class="st8" d="M122,300.1c-0.3,0.8-0.8,1.5-1.4,2.1c-0.5,0.7-1.1,1.4-1.7,2c0.3-0.8,0.8-1.5,1.4-2.1
		C120.7,301.3,121.3,300.6,122,300.1z"/>
	<path class="st8" d="M125.7,317.5c-0.7-0.3-1.4-0.6-2-1.1c-1.2-0.7-2.8-1.8-4.6-3.1s-3.3-2.5-4.4-3.3c-0.6-0.4-1.2-0.9-1.7-1.5
		c0.7,0.4,1.3,0.8,1.9,1.2l4.4,3.2c1.7,1.3,3.3,2.4,4.5,3.2C124.5,316.6,125.1,317,125.7,317.5z"/>
	<path class="st6" d="M110.8,336c-3-0.8-6.7,2.1-7.3,5.2s0.5,6.2,1.9,9.1c2.9,6.4,7.2,12,12.6,16.4c5.4,4.5,12.2,7,19.2,7.1
		c-1.3-6,0.3-12.2-0.4-18.3c-1.3-11-10-19.6-21-20.8C113.9,334.6,111.6,334.3,110.8,336"/>
	<path class="st8" d="M137.2,373.9c-0.2-0.1-0.3-0.1-0.4-0.2c-0.4-0.2-0.8-0.5-1.1-0.8c-1.3-1.1-2.3-2.5-3-4c-0.5-0.9-1-2-1.6-3.1
		s-1.1-2.3-1.6-3.6c-0.6-1.3-1.3-2.6-2-3.9c-0.8-1.3-1.8-2.6-2.8-3.8c-2.1-2.5-4.3-4.6-6.2-6.6c-1.7-1.8-3.3-3.7-4.8-5.7
		c-0.9-1.4-1.7-2.9-2.3-4.5c-0.2-0.4-0.3-0.9-0.4-1.3c0-0.1-0.1-0.3-0.1-0.5c0,0,0.2,0.6,0.7,1.7c0.6,1.5,1.5,3,2.4,4.3
		c1.4,2,3.1,3.9,4.8,5.6c2,2,4.2,4.1,6.3,6.6c1,1.2,2,2.5,2.8,3.8c0.8,1.3,1.4,2.6,2,3.9c0.6,1.3,1.1,2.5,1.6,3.6s1,2.2,1.5,3.1
		c0.7,1.5,1.6,2.9,2.8,4C136.7,373.6,137.3,373.8,137.2,373.9z"/>
	<path class="st8" d="M121.5,368.9c0-0.7,0.1-1.4,0.3-2c0.2-1.2,0.6-3,1.2-4.8s1.1-3.5,1.5-4.7c0.2-0.7,0.5-1.3,0.8-1.9
		c-0.1,0.7-0.3,1.4-0.6,2c-0.4,1.2-0.9,2.9-1.4,4.8s-1,3.6-1.3,4.8C122,367.6,121.8,368.3,121.5,368.9z"/>
	<path class="st8" d="M136.7,354.3c-0.7-0.1-1.4-0.3-2.1-0.5c-1.3-0.4-3.1-0.8-5.1-1.3s-3.8-0.8-5.2-1.1c-0.7-0.1-1.4-0.2-2.2-0.5
		c0.7,0,1.5,0,2.2,0.2c1.3,0.2,3.2,0.5,5.2,0.9s3.8,1,5.1,1.4C135.3,353.7,136,353.9,136.7,354.3z"/>
	<path class="st8" d="M110.2,358.5c0-0.8,0.1-1.6,0.3-2.4c0.3-1.5,0.7-3.5,1.3-5.6s1.2-4.1,1.7-5.5c0.2-0.8,0.5-1.5,0.9-2.2
		c-0.1,0.8-0.3,1.6-0.6,2.3c-0.4,1.4-1,3.4-1.5,5.5s-1,4.1-1.4,5.6C110.7,357,110.5,357.8,110.2,358.5z"/>
	<path class="st8" d="M129.7,341.5c0,0.1-3.8-0.2-8.5-0.7s-8.4-1-8.4-1.1s3.8,0.2,8.5,0.7C124.1,340.6,126.9,341,129.7,341.5z"/>
	<path class="st9" d="M126.9,387.5c0,0.1-13.3,0.2-29.8,0.2s-29.8-0.1-29.8-0.2s13.3-0.2,29.8-0.2S126.9,387.4,126.9,387.5z"/>
	<path class="st9" d="M117.6,404.7c0,0.1-9,0.2-20.1,0.2s-20.1-0.1-20.1-0.2s9-0.2,20.1-0.2S117.6,404.6,117.6,404.7z"/>
	<path class="st9" d="M117.3,407.2c0,0.1-8.8,0.2-19.7,0.2s-19.7-0.1-19.7-0.2s8.8-0.2,19.7-0.2S117.3,407,117.3,407.2z"/>
	<path class="st9" d="M118,402.7c0,0.1-9.3,0.2-20.8,0.2s-20.8-0.1-20.8-0.2s9.3-0.2,20.8-0.2S118,402.6,118,402.7z"/>
</g>
<g id="freepik--Floor--inject-207">
	<path class="st2" d="M693.9,429.6c0,0.1-153.5,0.3-342.7,0.3S8.3,429.8,8.3,429.6s153.4-0.3,342.8-0.3S693.9,429.5,693.9,429.6z"/>
</g>
</svg>
