<svg width="28" height="28" viewBox="0 0 28 28" fill="none" xmlns="http://www.w3.org/2000/svg">
<path d="M13.5765 25.333C13.2696 25.3311 12.9681 25.2519 12.6997 25.1029L9.926 23.4552C9.50775 23.226 9.716 23.142 9.842 23.1009C10.4055 22.9127 10.5096 22.8707 11.0932 22.5374C11.1562 22.4954 11.2394 22.5164 11.3024 22.5584L13.4304 23.8306C13.5135 23.8726 13.6176 23.8726 13.6806 23.8306L22.0045 19.012C22.0876 18.97 22.1296 18.8869 22.1296 18.7819V9.16563C22.1296 9.06063 22.0876 8.9775 22.0045 8.9355L13.6806 4.13875C13.5966 4.09675 13.4925 4.09675 13.4304 4.13875L5.1065 8.93638C5.0225 8.97838 4.98137 9.0825 4.98137 9.16563V18.7827C4.98137 18.8667 5.0225 18.9709 5.1065 19.0129L7.38063 20.3271C8.61088 20.9527 9.38262 20.2221 9.38262 19.4924V9.9995C9.38353 9.93341 9.41019 9.87028 9.45692 9.82355C9.50366 9.77681 9.56679 9.75016 9.63287 9.74925H10.6969C10.7631 9.74993 10.8265 9.77649 10.8734 9.82325C10.9203 9.87001 10.9471 9.93326 10.948 9.9995V19.4915C10.948 21.14 10.0502 22.099 8.48575 22.099C8.00625 22.099 7.63087 22.099 6.56688 21.5775L4.375 20.3262C4.10866 20.1713 3.88767 19.9491 3.73412 19.6819C3.58057 19.4147 3.49984 19.1119 3.5 18.8037V9.18487C3.5 8.55925 3.83338 7.97475 4.37588 7.66238L12.6997 2.84288C12.9694 2.69902 13.2704 2.62378 13.5761 2.62378C13.8817 2.62378 14.1827 2.69902 14.4524 2.84288L22.7762 7.66238C23.0428 7.81726 23.2639 8.03941 23.4176 8.30659C23.5713 8.57377 23.6522 8.87663 23.6521 9.18487V18.8037C23.6521 19.4302 23.3187 20.0139 22.7762 20.3262L14.4524 25.1457C14.177 25.2697 13.8785 25.3338 13.5765 25.3339V25.333ZM16.142 18.7197C12.4915 18.7197 11.7407 17.0511 11.7407 15.6319C11.7417 15.5658 11.7683 15.5027 11.815 15.4559C11.8618 15.4092 11.9249 15.3825 11.991 15.3816H13.076C13.2002 15.3816 13.3052 15.4656 13.3052 15.5908C13.4715 16.6959 13.9519 17.2384 16.163 17.2384C17.9156 17.2384 18.6664 16.842 18.6664 15.9031C18.6664 15.3606 18.4581 14.9642 15.7246 14.693C13.4514 14.4637 12.0321 13.9632 12.0321 12.1485C12.0321 10.4589 13.4514 9.457 15.8296 9.457C18.4992 9.457 19.8135 10.3757 19.9806 12.3777C19.979 12.4454 19.957 12.5109 19.9176 12.5659C19.8765 12.607 19.8135 12.649 19.7514 12.649H18.6664C18.6129 12.647 18.5615 12.6275 18.5201 12.5936C18.4786 12.5596 18.4495 12.513 18.4371 12.4609C18.1869 11.3146 17.5402 10.9384 15.8296 10.9384C13.9099 10.9384 13.6806 11.606 13.6806 12.1065C13.6806 12.7111 13.9519 12.8992 16.5384 13.2335C19.1047 13.5669 20.314 14.0472 20.314 15.841C20.2939 17.6767 18.7915 18.7197 16.142 18.7197V18.7197Z" fill="#89D42C"/>
</svg>
