<svg width="28" height="28" viewBox="0 0 28 28" fill="none" xmlns="http://www.w3.org/2000/svg">
<path d="M22.476 3.009C25.256 3.49 26.045 5.391 25.986 7.382L26 7.353L24.749 23.751L8.483 24.865H8.497C7.147 24.808 4.137 24.685 4 20.477L5.508 17.727L8.092 23.764L8.553 24.839L11.124 16.457L11.097 16.463L11.111 16.435L19.595 19.145L18.315 14.167L17.408 10.592L25.493 10.07L24.929 9.603L19.125 4.871L22.479 3L22.476 3.01V3.009ZM8.703 7.583C11.967 4.345 16.18 2.431 17.798 4.063C19.413 5.693 17.701 9.66 14.431 12.896C11.165 16.134 7.003 18.152 5.389 16.524C3.769 14.894 5.43 10.824 8.699 7.586L8.703 7.583V7.583Z" fill="#D91505"/>
</svg>
