<?xml version="1.0" encoding="UTF-8"?>
<svg width="384px" height="288px" viewBox="0 0 256 192" version="1.1" xmlns="http://www.w3.org/2000/svg" xmlns:xlink="http://www.w3.org/1999/xlink">
    <title>Artboard</title>
    <g id="Artboard" stroke="none" stroke-width="1" fill="none" fill-rule="evenodd" stroke-linecap="round" stroke-linejoin="round">
        <g id="activity" opacity="0.190295991" transform="translate(6.000000, 165.000000)" stroke="#FFFFFF" stroke-width="2">
            <polyline id="Path" points="20 9 16 9 13 18 7 0 4 9 0 9"></polyline>
        </g>
        <g id="power" opacity="0.190295991" transform="translate(230.000000, 133.000000)" stroke="#FFFFFF" stroke-width="2">
            <path d="M16.36,4.64 C19.8738743,8.15502187 19.873254,13.8529724 16.3586147,17.3672293 C12.8439753,20.8814861 7.14602471,20.8814861 3.63138533,17.3672293 C0.116745954,13.8529724 0.116125745,8.15502187 3.63,4.64" id="Path"></path>
            <line x1="10" y1="0" x2="10" y2="10" id="Path"></line>
        </g>
        <g id="mouse-pointer" opacity="0.190295991" transform="translate(167.000000, 73.000000)" stroke="#FFFFFF" stroke-width="2">
            <polygon id="Path" points="0 0 7.07 16.97 9.58 9.58 16.97 7.07"></polygon>
            <line x1="10" y1="10" x2="16" y2="16" id="Path"></line>
        </g>
        <g id="pen-tool-(1)" opacity="0.190295991" transform="translate(135.000000, 102.000000)" stroke="#FFFFFF" stroke-width="2">
            <polygon id="Path" points="10 17 17 10 20 13 13 20"></polygon>
            <polygon id="Path" points="16 11 14.5 3.5 0 0 3.5 14.5 11 16"></polygon>
            <line x1="0" y1="0" x2="7.586" y2="7.586" id="Path"></line>
            <circle id="Oval" cx="9" cy="9" r="2"></circle>
        </g>
        <g id="wifi" opacity="0.190295991" transform="translate(101.000000, 9.000000)" stroke="#FFFFFF" stroke-width="2">
            <path d="M4,7.55 C8.07859165,4.15283199 14.0014083,4.15283199 18.08,7.55" id="Path"></path>
            <path d="M0.42,4 C6.46647704,-1.32980039 15.533523,-1.32980039 21.58,4" id="Path"></path>
            <path d="M7.53,11.11 C9.61082675,9.63167327 12.3991733,9.63167327 14.48,11.11" id="Path"></path>
            <line x1="11" y1="15" x2="11.01" y2="15" id="Path"></line>
        </g>
        <g id="wifi" opacity="0.190295991" transform="translate(196.000000, 104.000000)" stroke="#FFFFFF" stroke-width="2">
            <path d="M4,7.55 C8.07859165,4.15283199 14.0014083,4.15283199 18.08,7.55" id="Path"></path>
            <path d="M0.42,4 C6.46647704,-1.32980039 15.533523,-1.32980039 21.58,4" id="Path"></path>
            <path d="M7.53,11.11 C9.61082675,9.63167327 12.3991733,9.63167327 14.48,11.11" id="Path"></path>
            <line x1="11" y1="15" x2="11.01" y2="15" id="Path"></line>
        </g>
        <g id="smartphone" opacity="0.190295991" transform="translate(48.000000, 79.000000) rotate(-315.000000) translate(-48.000000, -79.000000) translate(41.000000, 69.000000)" stroke="#FFFFFF" stroke-width="2">
            <rect id="Rectangle" x="0" y="0" width="14" height="20" rx="2"></rect>
            <line x1="7" y1="16" x2="7.01" y2="16" id="Path"></line>
        </g>
        <g id="headphones" opacity="0.190295991" transform="translate(79.000000, 48.000000) rotate(-45.000000) translate(-79.000000, -48.000000) translate(70.000000, 39.000000)" stroke="#FFFFFF" stroke-width="2">
            <path d="M0,15.0000001 L0,9.00000013 C0,4.0294373 4.0294373,1.3411045e-07 9,1.3411045e-07 C13.9705627,1.3411045e-07 18,4.0294373 18,9.00000013 L18,15.0000001" id="Path"></path>
            <path d="M18,16 C18,17.1045695 17.1045695,18 16,18 L15,18 C13.8954305,18 13,17.1045695 13,16 L13,13 C13,11.8954305 13.8954305,11 15,11 L18,11 L18,16 Z M0,16 C0,17.1045695 0.8954305,18 2,18 L3,18 C4.1045695,18 5,17.1045695 5,16 L5,13 C5,11.8954305 4.1045695,11 3,11 L0,11 L0,16 Z" id="Shape"></path>
        </g>
        <g id="hard-drive" opacity="0.190295991" transform="translate(6.000000, 40.000000)" stroke="#FFFFFF" stroke-width="2">
            <line x1="20" y1="8" x2="0" y2="8" id="Path"></line>
            <path d="M3.45,1.11 L0,8 L0,14 C0,15.1045695 0.8954305,16 2,16 L18,16 C19.1045695,16 20,15.1045695 20,14 L20,8 L16.55,1.11 C16.21227,0.430342321 15.518944,0.000402725292 14.76,0 L5.24,0 C4.48105603,0.000402725292 3.78773001,0.430342321 3.45,1.11 Z" id="Path"></path>
            <line x1="4" y1="12" x2="4.01" y2="12" id="Path"></line>
            <line x1="8" y1="12" x2="8.01" y2="12" id="Path"></line>
        </g>
        <g id="git-merge-(1)" opacity="0.190295991" transform="translate(231.000000, 72.000000)" stroke="#FFFFFF" stroke-width="2">
            <circle id="Oval" cx="15" cy="15" r="3"></circle>
            <circle id="Oval" cx="3" cy="3" r="3"></circle>
            <path d="M3,18 L3,6 C3,10.9705627 7.02943725,15 12,15" id="Path"></path>
        </g>
        <g id="database-(2)" opacity="0.190295991" transform="translate(198.000000, 38.000000)" stroke="#FFFFFF" stroke-width="2">
            <ellipse id="Oval" cx="9" cy="3" rx="9" ry="3"></ellipse>
            <path d="M18,10 C18,11.66 14,13 9,13 C4,13 0,11.66 0,10" id="Path"></path>
            <path d="M0,3 L0,17 C0,18.66 4,20 9,20 C14,20 18,18.66 18,17 L18,3" id="Path"></path>
        </g>
        <g id="image" opacity="0.190295991" transform="translate(103.000000, 70.000000)" stroke="#FFFFFF" stroke-width="2">
            <rect id="Rectangle" x="0" y="0" width="18" height="18" rx="2"></rect>
            <circle id="Oval" cx="5.5" cy="5.5" r="1.5"></circle>
            <polyline id="Path" points="18 12 13 7 2 18"></polyline>
        </g>
        <g id="code-(2)" opacity="0.190295991" transform="translate(38.000000, 9.000000)" stroke="#FFFFFF" stroke-width="2">
            <polyline id="Path" points="14 12 20 6 14 0"></polyline>
            <polyline id="Path" points="6 0 0 6 6 12"></polyline>
        </g>
        <g id="folder" opacity="0.190295991" transform="translate(145.000000, 48.000000) rotate(-315.000000) translate(-145.000000, -48.000000) translate(135.000000, 39.000000)" stroke="#FFFFFF" stroke-width="2">
            <path d="M20,16 C20,17.1045695 19.1045695,18 18,18 L2,18 C0.8954305,18 0,17.1045695 0,16 L0,2 C0,0.8954305 0.8954305,0 2,0 L7,0 L9,3 L18,3 C19.1045695,3 20,3.8954305 20,5 L20,16 Z" id="Path"></path>
        </g>
        <g id="mail-(1)" opacity="0.190295991" transform="translate(166.000000, 9.000000)" stroke="#FFFFFF" stroke-width="2">
            <path d="M2,0 L18,0 C19.1,0 20,0.9 20,2 L20,14 C20,15.1 19.1,16 18,16 L2,16 C0.9,16 0,15.1 0,14 L0,2 C0,0.9 0.9,0 2,0 Z" id="Path"></path>
            <polyline id="Path" points="20 2 10 9 0 2"></polyline>
        </g>
        <g id="cpu" opacity="0.190295991" transform="translate(70.000000, 100.000000)" stroke="#FFFFFF" stroke-width="2">
            <rect id="Rectangle" x="3" y="3" width="16" height="16" rx="2"></rect>
            <rect id="Rectangle" x="8" y="8" width="6" height="6"></rect>
            <line x1="8" y1="0" x2="8" y2="3" id="Path"></line>
            <line x1="14" y1="0" x2="14" y2="3" id="Path"></line>
            <line x1="8" y1="19" x2="8" y2="22" id="Path"></line>
            <line x1="14" y1="19" x2="14" y2="22" id="Path"></line>
            <line x1="19" y1="8" x2="22" y2="8" id="Path"></line>
            <line x1="19" y1="13" x2="22" y2="13" id="Path"></line>
            <line x1="0" y1="8" x2="3" y2="8" id="Path"></line>
            <line x1="0" y1="13" x2="3" y2="13" id="Path"></line>
        </g>
        <g id="at-sign" opacity="0.190295991" transform="translate(229.000000, 5.000000)" stroke="#FFFFFF" stroke-width="2">
            <circle id="Oval" cx="10" cy="10" r="4"></circle>
            <path d="M14,6 L14,11 C14,12.6568542 15.3431458,14 17,14 C18.6568542,14 20,12.6568542 20,11 L20,10 C19.9997074,5.35290457 16.7981344,1.31841432 12.2726385,0.262297521 C7.7471426,-0.793819277 3.09048158,1.40679177 1.03325592,5.57372333 C-1.02396973,9.74065488 0.0604506391,14.7756537 3.65062819,17.7262674 C7.24080575,20.6768811 12.3904989,20.765434 16.08,17.94" id="Path"></path>
        </g>
        <g id="at-sign" opacity="0.190295991" transform="translate(6.000000, 101.000000)" stroke="#FFFFFF" stroke-width="2">
            <circle id="Oval" cx="10" cy="10" r="4"></circle>
            <path d="M14,6 L14,11 C14,12.6568542 15.3431458,14 17,14 C18.6568542,14 20,12.6568542 20,11 L20,10 C19.9997074,5.35290457 16.7981344,1.31841432 12.2726385,0.262297521 C7.7471426,-0.793819277 3.09048158,1.40679177 1.03325592,5.57372333 C-1.02396973,9.74065488 0.0604506391,14.7756537 3.65062819,17.7262674 C7.24080575,20.6768811 12.3904989,20.765434 16.08,17.94" id="Path"></path>
        </g>
        <g id="settings" opacity="0.190295991" transform="translate(37.000000, 133.000000)" stroke="#FFFFFF" stroke-width="2">
            <circle id="Oval" cx="11" cy="11" r="3"></circle>
            <path d="M18.4,14 C18.1276535,14.6170901 18.2583341,15.3378133 18.73,15.82 L18.79,15.88 C19.1655541,16.2551365 19.3765733,16.7641815 19.3765733,17.295 C19.3765733,17.8258185 19.1655541,18.3348635 18.79,18.71 C18.4148635,19.0855541 17.9058185,19.2965733 17.375,19.2965733 C16.8441815,19.2965733 16.3351365,19.0855541 15.96,18.71 L15.9,18.65 C15.4178133,18.1783341 14.6970901,18.0476535 14.08,18.32 C13.4755294,18.5790683 13.0826229,19.1723571 13.08,19.83 L13.08,20 C13.08,21.1045695 12.1845695,22 11.08,22 C9.9754305,22 9.08,21.1045695 9.08,20 L9.08,19.91 C9.0641566,19.2326708 8.63587177,18.6338652 8,18.4 C7.38290993,18.1276535 6.66218673,18.2583341 6.18,18.73 L6.12,18.79 C5.74486349,19.1655541 5.2358185,19.3765733 4.705,19.3765733 C4.1741815,19.3765733 3.66513651,19.1655541 3.29,18.79 C2.91444591,18.4148635 2.70342669,17.9058185 2.70342669,17.375 C2.70342669,16.8441815 2.91444591,16.3351365 3.29,15.96 L3.35,15.9 C3.82166588,15.4178133 3.95234646,14.6970901 3.68,14.08 C3.42093172,13.4755294 2.82764292,13.0826229 2.17,13.08 L2,13.08 C0.8954305,13.08 0,12.1845695 0,11.08 C0,9.9754305 0.8954305,9.08 2,9.08 L2.09,9.08 C2.76732918,9.0641566 3.36613483,8.63587177 3.6,8 C3.87234646,7.38290993 3.74166588,6.66218673 3.27,6.18 L3.21,6.12 C2.83444591,5.74486349 2.62342669,5.2358185 2.62342669,4.705 C2.62342669,4.1741815 2.83444591,3.66513651 3.21,3.29 C3.58513651,2.91444591 4.0941815,2.70342669 4.625,2.70342669 C5.1558185,2.70342669 5.66486349,2.91444591 6.04,3.29 L6.1,3.35 C6.58218673,3.82166588 7.30290993,3.95234646 7.92,3.68 L8,3.68 C8.60447061,3.42093172 8.99737709,2.82764292 9,2.17 L9,2 C9,0.8954305 9.8954305,0 11,0 C12.1045695,0 13,0.8954305 13,2 L13,2.09 C13.0026229,2.74764292 13.3955294,3.34093172 14,3.6 C14.6170901,3.87234646 15.3378133,3.74166588 15.82,3.27 L15.88,3.21 C16.2551365,2.83444591 16.7641815,2.62342669 17.295,2.62342669 C17.8258185,2.62342669 18.3348635,2.83444591 18.71,3.21 C19.0855541,3.58513651 19.2965733,4.0941815 19.2965733,4.625 C19.2965733,5.1558185 19.0855541,5.66486349 18.71,6.04 L18.65,6.1 C18.1783341,6.58218673 18.0476535,7.30290993 18.32,7.92 L18.32,8 C18.5790683,8.60447061 19.1723571,8.99737709 19.83,9 L20,9 C21.1045695,9 22,9.8954305 22,11 C22,12.1045695 21.1045695,13 20,13 L19.91,13 C19.2523571,13.0026229 18.6590683,13.3955294 18.4,14 Z" id="Path"></path>
        </g>
        <g id="server" opacity="0.190295991" transform="translate(102.000000, 135.000000)" stroke="#FFFFFF" stroke-width="2">
            <rect id="Rectangle" x="0" y="0" width="20" height="8" rx="2"></rect>
            <rect id="Rectangle" x="0" y="12" width="20" height="8" rx="2"></rect>
            <line x1="4" y1="4" x2="4.01" y2="4" id="Path"></line>
            <line x1="4" y1="16" x2="4.01" y2="16" id="Path"></line>
        </g>
        <g id="save" opacity="0.190295991" transform="translate(167.000000, 135.000000)" stroke="#FFFFFF" stroke-width="2">
            <path d="M16,18 L2,18 C0.8954305,18 0,17.1045695 0,16 L0,2 C0,0.8954305 0.8954305,0 2,0 L13,0 L18,5 L18,16 C18,17.1045695 17.1045695,18 16,18 Z" id="Path"></path>
            <polyline id="Path" points="14 18 14 10 4 10 4 18"></polyline>
            <polyline id="Path" points="4 0 4 5 12 5"></polyline>
        </g>
        <g id="archive" opacity="0.19" transform="translate(133.000000, 167.000000)" stroke="#FFFFFF" stroke-width="2">
            <polyline id="Path" points="20 5 20 18 2 18 2 5"></polyline>
            <rect id="Rectangle" x="0" y="0" width="22" height="5"></rect>
            <line x1="9" y1="9" x2="13" y2="9" id="Path"></line>
        </g>
        <g id="coffee" opacity="0.19" transform="translate(198.000000, 165.000000)" stroke="#FFFFFF" stroke-width="2">
            <path d="M16,7 L17,7 C19.209139,7 21,8.790861 21,11 C21,13.209139 19.209139,15 17,15 L16,15" id="Path"></path>
            <path d="M0,7 L16,7 L16,16 C16,18.209139 14.209139,20 12,20 L4,20 C1.790861,20 0,18.209139 0,16 L0,7 Z" id="Path"></path>
            <line x1="4" y1="0" x2="4" y2="3" id="Path"></line>
            <line x1="8" y1="0" x2="8" y2="3" id="Path"></line>
            <line x1="12" y1="0" x2="12" y2="3" id="Path"></line>
        </g>
        <g id="refresh-ccw" opacity="0.19" transform="translate(68.000000, 167.000000)" stroke="#FFFFFF" stroke-width="2">
            <polyline id="Path" points="0 1 0 7 6 7"></polyline>
            <polyline id="Path" points="22 17 22 11 16 11"></polyline>
            <path d="M19.49,6 C18.4591184,3.08681165 16.0057328,0.906218245 12.9917133,0.224258265 C9.97769373,-0.457701715 6.82455916,0.454345733 4.64,2.64 L0,7 M22,11 L17.36,15.36 C15.1754408,17.5456543 12.0223063,18.4577017 9.00828672,17.7757417 C5.99426717,17.0937818 3.54088164,14.9131883 2.51,12" id="Shape"></path>
        </g>
    </g>
</svg>